M48
; DRILL file {KiCad (5.1.5)-3} date 10/05/2020 11:41:28
; FORMAT={-:-/ absolute / inch / decimal}
; #@! TF.CreationDate,2020-05-10T11:41:28+02:00
; #@! TF.GenerationSoftware,Kicad,Pcbnew,(5.1.5)-3
; #@! TF.FileFunction,Plated,1,2,PTH
FMAT,2
INCH
T1C0.0157
T2C0.0315
T3C0.0320
T4C0.0394
T5C0.0400
T6C0.1378
%
G90
G05
T1
X1.7126Y-1.3583
X1.7126Y-1.4764
X1.7126Y-1.5945
X1.7126Y-1.7126
X1.7126Y-1.8307
X1.7126Y-1.9488
X1.7126Y-2.0669
X1.7126Y-2.185
X1.7126Y-2.3031
X1.7126Y-2.4213
X1.7126Y-2.5394
X1.7126Y-2.6575
X1.7126Y-2.7756
X1.7126Y-2.8937
X1.7126Y-3.0118
X1.7126Y-3.1299
X1.7126Y-3.248
X1.7126Y-3.3661
X1.7126Y-3.4843
X1.7126Y-3.6024
X1.7126Y-3.7205
X1.7126Y-3.8386
X1.7126Y-3.9567
X1.7126Y-4.0748
X1.7126Y-4.1929
X1.7126Y-4.311
X1.7126Y-4.4291
X1.7126Y-4.5472
X1.937Y-2.9843
X2.0Y-3.0787
X2.0Y-3.2756
X2.0Y-3.4724
X2.0Y-3.6693
X2.0Y-3.8661
X2.0004Y-2.8823
X2.0079Y-3.9764
X2.0315Y-3.9528
X2.0472Y-1.1024
X2.0472Y-4.8425
X2.0551Y-3.9291
X2.1654Y-1.1024
X2.1654Y-4.8425
X2.2126Y-4.5276
X2.2441Y-2.5
X2.252Y-3.8661
X2.2835Y-1.1024
X2.2835Y-4.8425
X2.3228Y-2.685
X2.3248Y-3.0787
X2.3248Y-2.8819
X2.3248Y-3.2756
X2.3248Y-3.4724
X2.3248Y-3.6693
X2.362Y-4.5728
X2.3917Y-1.6535
X2.4016Y-1.1024
X2.4016Y-4.8425
X2.4232Y-2.7638
X2.491Y-4.5728
X2.5197Y-1.1024
X2.5197Y-4.8425
X2.561Y-4.4961
X2.6378Y-1.1024
X2.6378Y-4.8425
X2.6772Y-2.0079
X2.7559Y-1.1024
X2.7559Y-4.8425
X2.7953Y-3.7402
X2.7953Y-3.8189
X2.8051Y-1.9882
X2.874Y-1.1024
X2.874Y-3.6614
X2.874Y-3.7402
X2.874Y-4.8425
X2.8858Y-1.9114
X2.9134Y-3.622
X2.9921Y-1.1024
X2.9921Y-3.8583
X2.9921Y-4.8425
X2.9946Y-3.7796
X3.1102Y-1.1024
X3.1102Y-4.8425
X3.2087Y-4.0354
X3.2087Y-4.0945
X3.2087Y-4.1535
X3.2087Y-4.2126
X3.2283Y-1.1024
X3.2283Y-4.8425
X3.2677Y-4.0354
X3.2677Y-4.0945
X3.2677Y-4.1535
X3.2677Y-4.2126
X3.5433Y-1.378
X3.5433Y-1.4961
X3.5433Y-1.6142
X3.5433Y-1.7323
X3.5433Y-1.8504
X3.5433Y-1.9685
X3.5433Y-2.0866
X3.5433Y-2.2047
X3.5433Y-2.3228
X3.5433Y-2.4409
X3.5433Y-2.5591
X3.5433Y-2.6772
X3.5433Y-2.7953
X3.5433Y-2.9134
X3.5433Y-3.0315
X3.5433Y-3.1496
X3.5433Y-3.2677
X3.5433Y-3.3858
X3.5433Y-3.5039
X3.5433Y-3.622
X3.5433Y-3.7402
X3.5433Y-3.8583
X3.5433Y-3.9764
X3.5433Y-4.0945
X3.5433Y-4.2126
X3.5433Y-4.3307
X3.5433Y-4.4488
X3.5433Y-4.5669
T2
X1.7685Y-2.1283
X1.7685Y-2.3283
X1.9685Y-2.1283
X1.9685Y-2.3283
X2.0685Y-2.1283
X2.0685Y-2.3283
X2.1685Y-2.1283
X2.1685Y-2.3283
T3
X2.5268Y-2.8209
X2.5268Y-2.9209
X2.5268Y-3.0209
X2.5268Y-3.1209
X2.5268Y-3.2209
X2.5268Y-3.3209
X2.5268Y-3.4209
X2.5268Y-3.5209
X2.5268Y-3.6209
X2.5268Y-3.7209
X2.5268Y-3.8209
X2.5268Y-3.9209
X2.5268Y-4.0209
X2.5268Y-4.1209
X2.5268Y-4.2209
X3.1268Y-2.8209
X3.1268Y-2.9209
X3.1268Y-3.0209
X3.1268Y-3.1209
X3.1268Y-3.2209
X3.1268Y-3.3209
X3.1268Y-3.4209
X3.1268Y-3.5209
X3.1268Y-3.6209
X3.1268Y-3.7209
X3.1268Y-3.8209
X3.1268Y-3.9209
X3.1268Y-4.0209
X3.1268Y-4.1209
X3.1268Y-4.2209
T4
X3.3465Y-1.5276
X3.3465Y-1.8268
T5
X1.8395Y-4.4067
X1.8395Y-4.5067
X3.44Y-2.9937
X3.44Y-3.0937
X3.44Y-3.1937
X3.44Y-3.2937
X3.44Y-3.3937
X3.44Y-3.4937
X3.44Y-3.5937
X3.44Y-3.6937
X3.44Y-3.7937
X3.44Y-2.0685
X3.44Y-2.1685
X3.44Y-2.2685
X3.44Y-2.3685
X3.44Y-2.4685
X3.44Y-2.5685
X3.44Y-2.6685
X3.44Y-2.7685
X3.44Y-2.8685
X1.8316Y-1.5087
X1.8316Y-1.6087
X1.8316Y-1.7087
X1.8316Y-1.8087
X1.8316Y-1.9087
X3.44Y-4.1598
X3.44Y-4.2598
X3.44Y-4.3598
X3.44Y-3.9343
X3.44Y-4.0343
X1.8395Y-3.3374
X1.8395Y-3.4374
X1.8395Y-3.5374
X1.8395Y-3.6374
X1.8395Y-3.7374
X1.8395Y-3.8374
X1.8395Y-3.9374
X1.8395Y-4.0374
X1.8395Y-4.1374
X1.8395Y-4.2374
X1.8395Y-2.6713
X1.8395Y-2.7713
X1.8395Y-2.8713
X1.8395Y-2.9713
X1.8395Y-3.0713
X1.8395Y-3.1713
T6
X3.4252Y-4.7638
X1.8504Y-4.7638
X1.8504Y-1.2205
X3.4252Y-1.2205
T0
M30
