M48
;DRILL file {KiCad 4.0.7} date 12/01/17 09:30:17
;FORMAT={3:3/ absolute / metric / suppress leading zeros}
FMAT,2
METRIC,TZ
T1C0.400
T2C0.800
T3C0.813
T4C1.000
T5C1.016
T6C3.500
%
G90
G05
M71
T1
X162000Y-51000
X162000Y-56000
X162000Y-61000
X162000Y-66000
X162000Y-71000
X162000Y-76000
X162000Y-81000
X162000Y-86000
X162000Y-91000
X162000Y-96000
X162000Y-101000
X162000Y-106000
X162000Y-111000
X162000Y-116000
X162000Y-121000
X165000Y-45000
X165000Y-50000
X165000Y-125000
X165000Y-130000
X167400Y-82600
X169000Y-85000
X169000Y-90000
X169000Y-95000
X169000Y-100000
X169000Y-105000
X169010Y-80010
X169200Y-107800
X169800Y-107200
X170000Y-40000
X170000Y-130000
X170400Y-106600
X174750Y-123500
X175000Y-40000
X175000Y-130000
X175200Y-64200
X175200Y-65200
X175200Y-66800
X175400Y-105000
X177200Y-75000
X177250Y-85000
X177250Y-80000
X177250Y-90000
X177250Y-95000
X177250Y-100000
X177250Y-64500
X177250Y-67500
X177250Y-70500
X178250Y-123500
X179750Y-77000
X180000Y-40000
X180000Y-130000
X181500Y-123500
X183250Y-121000
X185000Y-40000
X185000Y-92000
X185000Y-130000
X187000Y-92000
X187000Y-94000
X190000Y-40000
X190000Y-100500
X190000Y-102000
X190000Y-130000
X191000Y-98500
X192500Y-100500
X192500Y-102000
X195000Y-40000
X195000Y-130000
X195500Y-80500
X195500Y-83000
X195500Y-85500
X195500Y-88000
X195500Y-90500
X195500Y-93000
X196000Y-69500
X196000Y-72000
X196000Y-74500
X196000Y-77000
X197620Y-88610
X200000Y-40000
X200000Y-130000
X201000Y-109000
X201000Y-111000
X201000Y-113000
X203000Y-109000
X203000Y-111000
X203000Y-113000
X203500Y-84500
X203500Y-86500
X203500Y-89000
X203500Y-91500
X205000Y-45000
X205000Y-50000
X205000Y-55000
T2
X170920Y-54460
X170920Y-59540
X173460Y-54460
X173460Y-59540
X176000Y-54460
X176000Y-59540
X181080Y-54460
X181080Y-59540
T3
X182380Y-78450
X182380Y-80990
X182380Y-83530
X182380Y-86070
X182380Y-88610
X182380Y-91150
X182380Y-93690
X182380Y-96230
X182380Y-98770
X182380Y-101310
X182380Y-103850
X182380Y-106390
X182380Y-108930
X182380Y-111470
X182380Y-114010
X197620Y-78450
X197620Y-80990
X197620Y-83530
X197620Y-86070
X197620Y-88610
X197620Y-91150
X197620Y-93690
X197620Y-96230
X197620Y-98770
X197620Y-101310
X197620Y-103850
X197620Y-106390
X197620Y-108930
X197620Y-111470
X197620Y-114010
T4
X188800Y-68000
X192000Y-68000
T5
X164924Y-74650
X164924Y-77190
X164924Y-79730
X164924Y-82270
X164924Y-84810
X164924Y-87350
X164924Y-91570
X164924Y-94110
X164924Y-96650
X164924Y-99190
X164924Y-101730
X164924Y-104270
X164924Y-106810
X164924Y-109350
X164924Y-111890
X164924Y-114430
X164924Y-118730
X164924Y-121270
X205576Y-59340
X205576Y-61880
X205576Y-64420
X205576Y-66960
X205576Y-69500
X205576Y-72040
X205576Y-74580
X205576Y-77120
X205576Y-79660
X205576Y-82840
X205576Y-85380
X205576Y-87920
X205576Y-90460
X205576Y-93000
X205576Y-95540
X205576Y-98080
X205576Y-100620
X205576Y-103160
X205576Y-106730
X205576Y-109270
X205576Y-112460
X205576Y-115000
X205576Y-117540
T6
X165000Y-40000
X165000Y-130000
X205000Y-40000
X205000Y-130000
T0
M30
