G04 #@! TF.FileFunction,Copper,L2,Bot,Signal*
%FSLAX46Y46*%
G04 Gerber Fmt 4.6, Leading zero omitted, Abs format (unit mm)*
G04 Created by KiCad (PCBNEW 4.0.7) date 12/01/17 09:31:09*
%MOMM*%
%LPD*%
G01*
G04 APERTURE LIST*
%ADD10C,0.100000*%
%ADD11R,2.197100X1.524000*%
%ADD12O,2.197100X1.524000*%
%ADD13C,2.000000*%
%ADD14R,2.286000X1.574800*%
%ADD15O,2.286000X1.574800*%
%ADD16R,1.600000X1.600000*%
%ADD17C,1.600000*%
%ADD18R,1.300000X1.500000*%
%ADD19C,7.000000*%
%ADD20R,1.200000X2.200000*%
%ADD21R,5.800000X6.400000*%
%ADD22R,2.750000X3.050000*%
%ADD23C,0.600000*%
%ADD24C,1.000000*%
%ADD25C,0.250000*%
%ADD26C,1.500000*%
%ADD27C,0.254000*%
G04 APERTURE END LIST*
D10*
D11*
X164923800Y-121270000D03*
D12*
X164923800Y-118730000D03*
D13*
X181080000Y-54460000D03*
X181080000Y-59540000D03*
X176000000Y-54460000D03*
X176000000Y-59540000D03*
X173460000Y-54460000D03*
X170920000Y-54460000D03*
X170920000Y-59540000D03*
X173460000Y-59540000D03*
D14*
X182380000Y-78450000D03*
D15*
X182380000Y-80990000D03*
X182380000Y-83530000D03*
X182380000Y-86070000D03*
X182380000Y-88610000D03*
X182380000Y-91150000D03*
X182380000Y-93690000D03*
X182380000Y-96230000D03*
X182380000Y-98770000D03*
X182380000Y-101310000D03*
X182380000Y-103850000D03*
X182380000Y-106390000D03*
X182380000Y-108930000D03*
X182380000Y-111470000D03*
X182380000Y-114010000D03*
X197620000Y-114010000D03*
X197620000Y-111470000D03*
X197620000Y-108930000D03*
X197620000Y-106390000D03*
X197620000Y-103850000D03*
X197620000Y-101310000D03*
X197620000Y-98770000D03*
X197620000Y-96230000D03*
X197620000Y-93690000D03*
X197620000Y-91150000D03*
X197620000Y-88610000D03*
X197620000Y-86070000D03*
X197620000Y-83530000D03*
X197620000Y-80990000D03*
X197620000Y-78450000D03*
D12*
X205576200Y-77120000D03*
X205576200Y-74580000D03*
X205576200Y-69500000D03*
X205576200Y-66960000D03*
X205576200Y-64420000D03*
X205576200Y-79660000D03*
X205576200Y-72040000D03*
D11*
X205576200Y-59340000D03*
D12*
X205576200Y-61880000D03*
D16*
X192000000Y-68000000D03*
D17*
X188800000Y-68000000D03*
D12*
X164923800Y-79730000D03*
X164923800Y-82270000D03*
X164923800Y-74650000D03*
X164923800Y-77190000D03*
D11*
X164923800Y-87350000D03*
D12*
X164923800Y-84810000D03*
X164923800Y-94110000D03*
X164923800Y-96650000D03*
X164923800Y-99190000D03*
X164923800Y-104270000D03*
X164923800Y-106810000D03*
X164923800Y-109350000D03*
X164923800Y-91570000D03*
X164923800Y-101730000D03*
D11*
X164923800Y-114430000D03*
D12*
X164923800Y-111890000D03*
D11*
X205576200Y-106730000D03*
D12*
X205576200Y-109270000D03*
X205576200Y-117540000D03*
D11*
X205576200Y-112460000D03*
D12*
X205576200Y-115000000D03*
X205576200Y-100620000D03*
X205576200Y-98080000D03*
X205576200Y-93000000D03*
X205576200Y-90460000D03*
X205576200Y-87920000D03*
X205576200Y-103160000D03*
X205576200Y-95540000D03*
D11*
X205576200Y-82840000D03*
D12*
X205576200Y-85380000D03*
D18*
X187500000Y-99150000D03*
X187500000Y-101850000D03*
D19*
X165000000Y-40000000D03*
X205000000Y-40000000D03*
X165000000Y-130000000D03*
X205000000Y-130000000D03*
D20*
X187720000Y-106200000D03*
X190000000Y-106200000D03*
X192280000Y-106200000D03*
D21*
X190000000Y-112500000D03*
D22*
X191525000Y-114175000D03*
X188475000Y-110825000D03*
X188475000Y-114175000D03*
X191525000Y-110825000D03*
D23*
X169200000Y-107800000D03*
X169800000Y-107200000D03*
X170400000Y-106600000D03*
X175200000Y-64200000D03*
X175200000Y-65200000D03*
X175200000Y-66800000D03*
X165000000Y-125000000D03*
X165000000Y-45000000D03*
X165000000Y-50000000D03*
X162000000Y-51000000D03*
X162000000Y-56000000D03*
X162000000Y-61000000D03*
X162000000Y-66000000D03*
X162000000Y-71000000D03*
X162000000Y-76000000D03*
X162000000Y-81000000D03*
X162000000Y-86000000D03*
X162000000Y-91000000D03*
X162000000Y-96000000D03*
X162000000Y-101000000D03*
X162000000Y-106000000D03*
X162000000Y-111000000D03*
X162000000Y-116000000D03*
X162000000Y-121000000D03*
X192500000Y-100500000D03*
X190000000Y-100500000D03*
X190000000Y-102000000D03*
X192500000Y-102000000D03*
X175400000Y-105000008D03*
X177199996Y-75000000D03*
X177250010Y-64500000D03*
X177250010Y-70500000D03*
X169010066Y-80010066D03*
X177250010Y-67500000D03*
X177250000Y-100000004D03*
X177250000Y-80000000D03*
X177249994Y-85000000D03*
X177250000Y-90000000D03*
X177250000Y-95000000D03*
X205000000Y-55000000D03*
X205000000Y-50000000D03*
X205000000Y-45000000D03*
X170000000Y-40000000D03*
X175000000Y-40000000D03*
X180000000Y-40000000D03*
X185000000Y-40000000D03*
X190000000Y-40000000D03*
X195000000Y-40000000D03*
X200000000Y-40000000D03*
X170000000Y-130000000D03*
X175000000Y-130000000D03*
X180000000Y-130000000D03*
X185000000Y-130000000D03*
X190000000Y-130000000D03*
X195000000Y-130000000D03*
X200000000Y-130000000D03*
X165000000Y-130000000D03*
X201000000Y-113000000D03*
X201000000Y-111000000D03*
X201000000Y-109000000D03*
X203000000Y-109000000D03*
X203000000Y-111000000D03*
X203000000Y-113000000D03*
X183250000Y-121000000D03*
X181500000Y-123500000D03*
X178250000Y-123500000D03*
X174750000Y-123500000D03*
X169000000Y-85000000D03*
X169000000Y-90000000D03*
X169000000Y-95000000D03*
X169000000Y-100000000D03*
X169000000Y-105000000D03*
X203500000Y-84500000D03*
X203500000Y-86500000D03*
X203500000Y-89000000D03*
X203500000Y-91500000D03*
X196000000Y-77000000D03*
X196000000Y-74500000D03*
X196000000Y-72000000D03*
X196000000Y-69500000D03*
X195500000Y-93000000D03*
X195500000Y-90500000D03*
X195500000Y-88000000D03*
X195500000Y-85500000D03*
X195500000Y-83000000D03*
X195500000Y-80500000D03*
X187000000Y-94000000D03*
X187000000Y-92000000D03*
X185000000Y-92000000D03*
X167400000Y-82600000D03*
X197620000Y-88610000D03*
X179750000Y-77000000D03*
X191000000Y-98500000D03*
D24*
X169800000Y-107200000D02*
X169200000Y-107800000D01*
X170400000Y-106600000D02*
X169800000Y-107200000D01*
X175200000Y-72200000D02*
X175200000Y-101800000D01*
X175200000Y-101800000D02*
X170400000Y-106600000D01*
X175200000Y-65200000D02*
X175200000Y-64200000D01*
X175200000Y-66800000D02*
X175200000Y-65200000D01*
X175200000Y-72200000D02*
X167670000Y-79730000D01*
X167670000Y-79730000D02*
X164923800Y-79730000D01*
X175200000Y-66800000D02*
X175200000Y-72200000D01*
D25*
X165000000Y-45000000D02*
X165000000Y-50000000D01*
X163000000Y-50000000D02*
X165000000Y-50000000D01*
X162000000Y-51000000D02*
X163000000Y-50000000D01*
X162000000Y-61000000D02*
X162000000Y-56000000D01*
X162000000Y-71000000D02*
X162000000Y-66000000D01*
X162000000Y-81000000D02*
X162000000Y-76000000D01*
X162000000Y-91000000D02*
X162000000Y-86000000D01*
X162000000Y-101000000D02*
X162000000Y-96000000D01*
X162000000Y-111000000D02*
X162000000Y-106000000D01*
X162000000Y-121000000D02*
X162000000Y-116000000D01*
X192540000Y-106225000D02*
X192540000Y-102040000D01*
X190000000Y-102000000D02*
X190000000Y-100500000D01*
X192540000Y-102040000D02*
X192500000Y-102000000D01*
X177250010Y-67500000D02*
X177250010Y-64500000D01*
X205000000Y-45000000D02*
X205000000Y-50000000D01*
X205000000Y-40000000D02*
X200000000Y-40000000D01*
X175000000Y-40000000D02*
X170000000Y-40000000D01*
X185000000Y-40000000D02*
X180000000Y-40000000D01*
X195000000Y-40000000D02*
X190000000Y-40000000D01*
X170000000Y-130000000D02*
X165000000Y-130000000D01*
X180000000Y-130000000D02*
X175000000Y-130000000D01*
X190000000Y-130000000D02*
X185000000Y-130000000D01*
X200000000Y-130000000D02*
X195000000Y-130000000D01*
X205576200Y-109270000D02*
X203270000Y-109270000D01*
X203270000Y-109270000D02*
X203000000Y-109000000D01*
X205576200Y-112460000D02*
X203540000Y-112460000D01*
X201000000Y-109000000D02*
X201000000Y-111000000D01*
X203000000Y-111000000D02*
X203000000Y-109000000D01*
X203540000Y-112460000D02*
X203000000Y-113000000D01*
X183250000Y-121750000D02*
X183250000Y-121000000D01*
X181500000Y-123500000D02*
X183250000Y-121750000D01*
X174750000Y-123500000D02*
X178250000Y-123500000D01*
X205576200Y-79660000D02*
X205340000Y-79660000D01*
X205340000Y-79660000D02*
X203500000Y-81500000D01*
X203500000Y-81500000D02*
X203500000Y-84500000D01*
X203500000Y-86500000D02*
X203500000Y-89000000D01*
X196000000Y-74500000D02*
X196000000Y-77000000D01*
X196000000Y-69500000D02*
X196000000Y-72000000D01*
X195500000Y-90500000D02*
X195500000Y-93000000D01*
X195500000Y-85500000D02*
X195500000Y-88000000D01*
X195500000Y-80500000D02*
X195500000Y-83000000D01*
X187000000Y-94000000D02*
X187000000Y-92000000D01*
D26*
X173460000Y-59540000D02*
X173460000Y-54460000D01*
X164923800Y-77190000D02*
X167522350Y-77190000D01*
X167522350Y-77190000D02*
X173460000Y-71252350D01*
X173460000Y-71252350D02*
X173460000Y-60954213D01*
X173460000Y-60954213D02*
X173460000Y-59540000D01*
D24*
X173460000Y-59540000D02*
X173460000Y-60040000D01*
X167400000Y-86972350D02*
X167400000Y-82600000D01*
X164923800Y-87350000D02*
X167022350Y-87350000D01*
X167022350Y-87350000D02*
X167400000Y-86972350D01*
X205576200Y-66960000D02*
X203540000Y-66960000D01*
X199970000Y-83530000D02*
X197620000Y-83530000D01*
X202500000Y-81000000D02*
X199970000Y-83530000D01*
X202500000Y-68000000D02*
X202500000Y-81000000D01*
X203540000Y-66960000D02*
X202500000Y-68000000D01*
X176000000Y-59540000D02*
X176000000Y-54460000D01*
X178400000Y-78800000D02*
X178400000Y-61940000D01*
X178400000Y-61940000D02*
X176000000Y-59540000D01*
X179336979Y-79736979D02*
X178400000Y-78800000D01*
X176050000Y-109350000D02*
X179336979Y-106063021D01*
X179336979Y-106063021D02*
X179336979Y-79736979D01*
X164923800Y-109350000D02*
X176050000Y-109350000D01*
X190000000Y-106225000D02*
X190000000Y-115375000D01*
X205576200Y-117540000D02*
X192165000Y-117540000D01*
X192165000Y-117540000D02*
X190000000Y-115375000D01*
X197620000Y-88610000D02*
X198610000Y-88610000D01*
X198610000Y-88610000D02*
X202000000Y-92000000D01*
X203040000Y-95540000D02*
X205576200Y-95540000D01*
X202000000Y-94500000D02*
X203040000Y-95540000D01*
X202000000Y-92000000D02*
X202000000Y-94500000D01*
X180536990Y-77786990D02*
X180536990Y-102006990D01*
X179750000Y-77000000D02*
X180536990Y-77786990D01*
X180536990Y-102006990D02*
X182380000Y-103850000D01*
X187460000Y-106225000D02*
X187460000Y-101890000D01*
X187460000Y-101890000D02*
X187500000Y-101850000D01*
X197620000Y-96230000D02*
X189770000Y-96230000D01*
X189770000Y-96230000D02*
X187500000Y-98500000D01*
X187500000Y-98500000D02*
X187500000Y-99150000D01*
X191270000Y-98770000D02*
X197620000Y-98770000D01*
X191000000Y-98500000D02*
X191270000Y-98770000D01*
D27*
G36*
X209290000Y-134290000D02*
X160710000Y-134290000D01*
X160710000Y-132957312D01*
X162222293Y-132957312D01*
X162625762Y-133483924D01*
X164139730Y-134127307D01*
X165784666Y-134142346D01*
X167310145Y-133526750D01*
X167374238Y-133483924D01*
X167777707Y-132957312D01*
X202222293Y-132957312D01*
X202625762Y-133483924D01*
X204139730Y-134127307D01*
X205784666Y-134142346D01*
X207310145Y-133526750D01*
X207374238Y-133483924D01*
X207777707Y-132957312D01*
X205000000Y-130179605D01*
X202222293Y-132957312D01*
X167777707Y-132957312D01*
X165000000Y-130179605D01*
X162222293Y-132957312D01*
X160710000Y-132957312D01*
X160710000Y-130784666D01*
X160857654Y-130784666D01*
X161473250Y-132310145D01*
X161516076Y-132374238D01*
X162042688Y-132777707D01*
X164820395Y-130000000D01*
X165179605Y-130000000D01*
X167957312Y-132777707D01*
X168483924Y-132374238D01*
X169127307Y-130860270D01*
X169127998Y-130784666D01*
X200857654Y-130784666D01*
X201473250Y-132310145D01*
X201516076Y-132374238D01*
X202042688Y-132777707D01*
X204820395Y-130000000D01*
X205179605Y-130000000D01*
X207957312Y-132777707D01*
X208483924Y-132374238D01*
X209127307Y-130860270D01*
X209142346Y-129215334D01*
X208526750Y-127689855D01*
X208483924Y-127625762D01*
X207957312Y-127222293D01*
X205179605Y-130000000D01*
X204820395Y-130000000D01*
X202042688Y-127222293D01*
X201516076Y-127625762D01*
X200872693Y-129139730D01*
X200857654Y-130784666D01*
X169127998Y-130784666D01*
X169142346Y-129215334D01*
X168526750Y-127689855D01*
X168483924Y-127625762D01*
X167957312Y-127222293D01*
X165179605Y-130000000D01*
X164820395Y-130000000D01*
X162042688Y-127222293D01*
X161516076Y-127625762D01*
X160872693Y-129139730D01*
X160857654Y-130784666D01*
X160710000Y-130784666D01*
X160710000Y-127042688D01*
X162222293Y-127042688D01*
X165000000Y-129820395D01*
X167777707Y-127042688D01*
X202222293Y-127042688D01*
X205000000Y-129820395D01*
X207777707Y-127042688D01*
X207374238Y-126516076D01*
X205860270Y-125872693D01*
X204215334Y-125857654D01*
X202689855Y-126473250D01*
X202625762Y-126516076D01*
X202222293Y-127042688D01*
X167777707Y-127042688D01*
X167374238Y-126516076D01*
X165860270Y-125872693D01*
X164215334Y-125857654D01*
X162689855Y-126473250D01*
X162625762Y-126516076D01*
X162222293Y-127042688D01*
X160710000Y-127042688D01*
X160710000Y-120508000D01*
X163177810Y-120508000D01*
X163177810Y-122032000D01*
X163222088Y-122267317D01*
X163361160Y-122483441D01*
X163573360Y-122628431D01*
X163825250Y-122679440D01*
X166022350Y-122679440D01*
X166257667Y-122635162D01*
X166473791Y-122496090D01*
X166618781Y-122283890D01*
X166669790Y-122032000D01*
X166669790Y-120508000D01*
X166625512Y-120272683D01*
X166486440Y-120056559D01*
X166274240Y-119911569D01*
X166044663Y-119865079D01*
X166337980Y-119628026D01*
X166599610Y-119147277D01*
X166614570Y-119073070D01*
X166492070Y-118857000D01*
X165050800Y-118857000D01*
X165050800Y-118877000D01*
X164796800Y-118877000D01*
X164796800Y-118857000D01*
X163355530Y-118857000D01*
X163233030Y-119073070D01*
X163247990Y-119147277D01*
X163509620Y-119628026D01*
X163802616Y-119864819D01*
X163589933Y-119904838D01*
X163373809Y-120043910D01*
X163228819Y-120256110D01*
X163177810Y-120508000D01*
X160710000Y-120508000D01*
X160710000Y-118386930D01*
X163233030Y-118386930D01*
X163355530Y-118603000D01*
X164796800Y-118603000D01*
X164796800Y-117333000D01*
X165050800Y-117333000D01*
X165050800Y-118603000D01*
X166492070Y-118603000D01*
X166614570Y-118386930D01*
X166599610Y-118312723D01*
X166337980Y-117831974D01*
X165912291Y-117487941D01*
X165387350Y-117333000D01*
X165050800Y-117333000D01*
X164796800Y-117333000D01*
X164460250Y-117333000D01*
X163935309Y-117487941D01*
X163509620Y-117831974D01*
X163247990Y-118312723D01*
X163233030Y-118386930D01*
X160710000Y-118386930D01*
X160710000Y-113668000D01*
X163177810Y-113668000D01*
X163177810Y-115192000D01*
X163222088Y-115427317D01*
X163361160Y-115643441D01*
X163573360Y-115788431D01*
X163825250Y-115839440D01*
X166022350Y-115839440D01*
X166257667Y-115795162D01*
X166473791Y-115656090D01*
X166618781Y-115443890D01*
X166669790Y-115192000D01*
X166669790Y-114010000D01*
X180567167Y-114010000D01*
X180675441Y-114554329D01*
X180983778Y-115015789D01*
X181445238Y-115324126D01*
X181989567Y-115432400D01*
X182770433Y-115432400D01*
X183314762Y-115324126D01*
X183776222Y-115015789D01*
X184084559Y-114554329D01*
X184192833Y-114010000D01*
X184084559Y-113465671D01*
X183776222Y-113004211D01*
X183381170Y-112740246D01*
X183397262Y-112735525D01*
X183831191Y-112385986D01*
X184098327Y-111896996D01*
X184115010Y-111817060D01*
X183992852Y-111597000D01*
X182507000Y-111597000D01*
X182507000Y-111617000D01*
X182253000Y-111617000D01*
X182253000Y-111597000D01*
X180767148Y-111597000D01*
X180644990Y-111817060D01*
X180661673Y-111896996D01*
X180928809Y-112385986D01*
X181362738Y-112735525D01*
X181378830Y-112740246D01*
X180983778Y-113004211D01*
X180675441Y-113465671D01*
X180567167Y-114010000D01*
X166669790Y-114010000D01*
X166669790Y-113668000D01*
X166625512Y-113432683D01*
X166486440Y-113216559D01*
X166274240Y-113071569D01*
X166044663Y-113025079D01*
X166337980Y-112788026D01*
X166599610Y-112307277D01*
X166614570Y-112233070D01*
X166492070Y-112017000D01*
X165050800Y-112017000D01*
X165050800Y-112037000D01*
X164796800Y-112037000D01*
X164796800Y-112017000D01*
X163355530Y-112017000D01*
X163233030Y-112233070D01*
X163247990Y-112307277D01*
X163509620Y-112788026D01*
X163802616Y-113024819D01*
X163589933Y-113064838D01*
X163373809Y-113203910D01*
X163228819Y-113416110D01*
X163177810Y-113668000D01*
X160710000Y-113668000D01*
X160710000Y-104613070D01*
X163233030Y-104613070D01*
X163247990Y-104687277D01*
X163509620Y-105168026D01*
X163935309Y-105512059D01*
X164029973Y-105540000D01*
X163935309Y-105567941D01*
X163509620Y-105911974D01*
X163247990Y-106392723D01*
X163233030Y-106466930D01*
X163355530Y-106683000D01*
X164796800Y-106683000D01*
X164796800Y-104397000D01*
X165050800Y-104397000D01*
X165050800Y-106683000D01*
X166492070Y-106683000D01*
X166614570Y-106466930D01*
X166599610Y-106392723D01*
X166337980Y-105911974D01*
X165912291Y-105567941D01*
X165817627Y-105540000D01*
X165912291Y-105512059D01*
X166337980Y-105168026D01*
X166599610Y-104687277D01*
X166614570Y-104613070D01*
X166492070Y-104397000D01*
X165050800Y-104397000D01*
X164796800Y-104397000D01*
X163355530Y-104397000D01*
X163233030Y-104613070D01*
X160710000Y-104613070D01*
X160710000Y-99190000D01*
X163156288Y-99190000D01*
X163262628Y-99724609D01*
X163565460Y-100177828D01*
X163987759Y-100460000D01*
X163565460Y-100742172D01*
X163262628Y-101195391D01*
X163156288Y-101730000D01*
X163262628Y-102264609D01*
X163565460Y-102717828D01*
X164000693Y-103008642D01*
X163935309Y-103027941D01*
X163509620Y-103371974D01*
X163247990Y-103852723D01*
X163233030Y-103926930D01*
X163355530Y-104143000D01*
X164796800Y-104143000D01*
X164796800Y-104123000D01*
X165050800Y-104123000D01*
X165050800Y-104143000D01*
X166492070Y-104143000D01*
X166614570Y-103926930D01*
X166599610Y-103852723D01*
X166337980Y-103371974D01*
X165912291Y-103027941D01*
X165846907Y-103008642D01*
X166282140Y-102717828D01*
X166584972Y-102264609D01*
X166691312Y-101730000D01*
X166584972Y-101195391D01*
X166282140Y-100742172D01*
X165859841Y-100460000D01*
X166282140Y-100177828D01*
X166584972Y-99724609D01*
X166691312Y-99190000D01*
X166584972Y-98655391D01*
X166282140Y-98202172D01*
X165846907Y-97911358D01*
X165912291Y-97892059D01*
X166337980Y-97548026D01*
X166599610Y-97067277D01*
X166614570Y-96993070D01*
X166492070Y-96777000D01*
X165050800Y-96777000D01*
X165050800Y-96797000D01*
X164796800Y-96797000D01*
X164796800Y-96777000D01*
X163355530Y-96777000D01*
X163233030Y-96993070D01*
X163247990Y-97067277D01*
X163509620Y-97548026D01*
X163935309Y-97892059D01*
X164000693Y-97911358D01*
X163565460Y-98202172D01*
X163262628Y-98655391D01*
X163156288Y-99190000D01*
X160710000Y-99190000D01*
X160710000Y-94110000D01*
X163156288Y-94110000D01*
X163262628Y-94644609D01*
X163565460Y-95097828D01*
X164000693Y-95388642D01*
X163935309Y-95407941D01*
X163509620Y-95751974D01*
X163247990Y-96232723D01*
X163233030Y-96306930D01*
X163355530Y-96523000D01*
X164796800Y-96523000D01*
X164796800Y-96503000D01*
X165050800Y-96503000D01*
X165050800Y-96523000D01*
X166492070Y-96523000D01*
X166614570Y-96306930D01*
X166599610Y-96232723D01*
X166337980Y-95751974D01*
X165912291Y-95407941D01*
X165846907Y-95388642D01*
X166282140Y-95097828D01*
X166584972Y-94644609D01*
X166691312Y-94110000D01*
X166584972Y-93575391D01*
X166282140Y-93122172D01*
X165846907Y-92831358D01*
X165912291Y-92812059D01*
X166337980Y-92468026D01*
X166599610Y-91987277D01*
X166614570Y-91913070D01*
X166492070Y-91697000D01*
X165050800Y-91697000D01*
X165050800Y-91717000D01*
X164796800Y-91717000D01*
X164796800Y-91697000D01*
X163355530Y-91697000D01*
X163233030Y-91913070D01*
X163247990Y-91987277D01*
X163509620Y-92468026D01*
X163935309Y-92812059D01*
X164000693Y-92831358D01*
X163565460Y-93122172D01*
X163262628Y-93575391D01*
X163156288Y-94110000D01*
X160710000Y-94110000D01*
X160710000Y-91226930D01*
X163233030Y-91226930D01*
X163355530Y-91443000D01*
X164796800Y-91443000D01*
X164796800Y-90173000D01*
X165050800Y-90173000D01*
X165050800Y-91443000D01*
X166492070Y-91443000D01*
X166614570Y-91226930D01*
X166599610Y-91152723D01*
X166337980Y-90671974D01*
X165912291Y-90327941D01*
X165387350Y-90173000D01*
X165050800Y-90173000D01*
X164796800Y-90173000D01*
X164460250Y-90173000D01*
X163935309Y-90327941D01*
X163509620Y-90671974D01*
X163247990Y-91152723D01*
X163233030Y-91226930D01*
X160710000Y-91226930D01*
X160710000Y-74650000D01*
X163156288Y-74650000D01*
X163262628Y-75184609D01*
X163565460Y-75637828D01*
X163987759Y-75920000D01*
X163565460Y-76202172D01*
X163262628Y-76655391D01*
X163156288Y-77190000D01*
X163262628Y-77724609D01*
X163565460Y-78177828D01*
X163987759Y-78460000D01*
X163565460Y-78742172D01*
X163262628Y-79195391D01*
X163156288Y-79730000D01*
X163262628Y-80264609D01*
X163565460Y-80717828D01*
X164000693Y-81008642D01*
X163935309Y-81027941D01*
X163509620Y-81371974D01*
X163247990Y-81852723D01*
X163233030Y-81926930D01*
X163355530Y-82143000D01*
X164796800Y-82143000D01*
X164796800Y-82123000D01*
X165050800Y-82123000D01*
X165050800Y-82143000D01*
X165070800Y-82143000D01*
X165070800Y-82397000D01*
X165050800Y-82397000D01*
X165050800Y-82417000D01*
X164796800Y-82417000D01*
X164796800Y-82397000D01*
X163355530Y-82397000D01*
X163233030Y-82613070D01*
X163247990Y-82687277D01*
X163509620Y-83168026D01*
X163935309Y-83512059D01*
X164000693Y-83531358D01*
X163565460Y-83822172D01*
X163262628Y-84275391D01*
X163156288Y-84810000D01*
X163262628Y-85344609D01*
X163565460Y-85797828D01*
X163789219Y-85947340D01*
X163589933Y-85984838D01*
X163373809Y-86123910D01*
X163228819Y-86336110D01*
X163177810Y-86588000D01*
X163177810Y-88112000D01*
X163222088Y-88347317D01*
X163361160Y-88563441D01*
X163573360Y-88708431D01*
X163825250Y-88759440D01*
X166022350Y-88759440D01*
X166257667Y-88715162D01*
X166473791Y-88576090D01*
X166536030Y-88485000D01*
X167022350Y-88485000D01*
X167456696Y-88398603D01*
X167824916Y-88152566D01*
X168202566Y-87774916D01*
X168448603Y-87406696D01*
X168535000Y-86972350D01*
X168535000Y-82600000D01*
X168448603Y-82165654D01*
X168202566Y-81797434D01*
X167834346Y-81551397D01*
X167400000Y-81465000D01*
X166965654Y-81551397D01*
X166597434Y-81797434D01*
X166582050Y-81820457D01*
X166337980Y-81371974D01*
X165912291Y-81027941D01*
X165846907Y-81008642D01*
X166061882Y-80865000D01*
X167670000Y-80865000D01*
X168104346Y-80778603D01*
X168472566Y-80532566D01*
X174065000Y-74940132D01*
X174065000Y-101329868D01*
X168397434Y-106997434D01*
X168151397Y-107365655D01*
X168065000Y-107800000D01*
X168147549Y-108215000D01*
X166061882Y-108215000D01*
X165846907Y-108071358D01*
X165912291Y-108052059D01*
X166337980Y-107708026D01*
X166599610Y-107227277D01*
X166614570Y-107153070D01*
X166492070Y-106937000D01*
X165050800Y-106937000D01*
X165050800Y-106957000D01*
X164796800Y-106957000D01*
X164796800Y-106937000D01*
X163355530Y-106937000D01*
X163233030Y-107153070D01*
X163247990Y-107227277D01*
X163509620Y-107708026D01*
X163935309Y-108052059D01*
X164000693Y-108071358D01*
X163565460Y-108362172D01*
X163262628Y-108815391D01*
X163156288Y-109350000D01*
X163262628Y-109884609D01*
X163565460Y-110337828D01*
X164000693Y-110628642D01*
X163935309Y-110647941D01*
X163509620Y-110991974D01*
X163247990Y-111472723D01*
X163233030Y-111546930D01*
X163355530Y-111763000D01*
X164796800Y-111763000D01*
X164796800Y-111743000D01*
X165050800Y-111743000D01*
X165050800Y-111763000D01*
X166492070Y-111763000D01*
X166614570Y-111546930D01*
X166599610Y-111472723D01*
X166337980Y-110991974D01*
X165912291Y-110647941D01*
X165846907Y-110628642D01*
X166061882Y-110485000D01*
X176050000Y-110485000D01*
X176484346Y-110398603D01*
X176852566Y-110152566D01*
X180139545Y-106865587D01*
X180140045Y-106864838D01*
X180385582Y-106497367D01*
X180471979Y-106063021D01*
X180471979Y-103547111D01*
X180601627Y-103676759D01*
X180567167Y-103850000D01*
X180675441Y-104394329D01*
X180983778Y-104855789D01*
X181379199Y-105120000D01*
X180983778Y-105384211D01*
X180675441Y-105845671D01*
X180567167Y-106390000D01*
X180675441Y-106934329D01*
X180983778Y-107395789D01*
X181379199Y-107660000D01*
X180983778Y-107924211D01*
X180675441Y-108385671D01*
X180567167Y-108930000D01*
X180675441Y-109474329D01*
X180983778Y-109935789D01*
X181378830Y-110199754D01*
X181362738Y-110204475D01*
X180928809Y-110554014D01*
X180661673Y-111043004D01*
X180644990Y-111122940D01*
X180767148Y-111343000D01*
X182253000Y-111343000D01*
X182253000Y-111323000D01*
X182507000Y-111323000D01*
X182507000Y-111343000D01*
X183992852Y-111343000D01*
X184115010Y-111122940D01*
X184098327Y-111043004D01*
X183831191Y-110554014D01*
X183397262Y-110204475D01*
X183381170Y-110199754D01*
X183776222Y-109935789D01*
X184084559Y-109474329D01*
X184192833Y-108930000D01*
X184084559Y-108385671D01*
X183776222Y-107924211D01*
X183380801Y-107660000D01*
X183776222Y-107395789D01*
X184084559Y-106934329D01*
X184192833Y-106390000D01*
X184084559Y-105845671D01*
X183776222Y-105384211D01*
X183380801Y-105120000D01*
X183776222Y-104855789D01*
X184084559Y-104394329D01*
X184192833Y-103850000D01*
X184084559Y-103305671D01*
X183776222Y-102844211D01*
X183380801Y-102580000D01*
X183776222Y-102315789D01*
X184084559Y-101854329D01*
X184192833Y-101310000D01*
X184084559Y-100765671D01*
X183776222Y-100304211D01*
X183380801Y-100040000D01*
X183776222Y-99775789D01*
X184084559Y-99314329D01*
X184192833Y-98770000D01*
X184119236Y-98400000D01*
X186202560Y-98400000D01*
X186202560Y-99900000D01*
X186246838Y-100135317D01*
X186385910Y-100351441D01*
X186598110Y-100496431D01*
X186611197Y-100499081D01*
X186398559Y-100635910D01*
X186253569Y-100848110D01*
X186202560Y-101100000D01*
X186202560Y-102600000D01*
X186246838Y-102835317D01*
X186325000Y-102956784D01*
X186325000Y-106225000D01*
X186411397Y-106659346D01*
X186472560Y-106750883D01*
X186472560Y-107300000D01*
X186516838Y-107535317D01*
X186655910Y-107751441D01*
X186868110Y-107896431D01*
X187120000Y-107947440D01*
X188320000Y-107947440D01*
X188555317Y-107903162D01*
X188771441Y-107764090D01*
X188860333Y-107633992D01*
X188865000Y-107641244D01*
X188865000Y-108652560D01*
X187100000Y-108652560D01*
X186864683Y-108696838D01*
X186648559Y-108835910D01*
X186503569Y-109048110D01*
X186452560Y-109300000D01*
X186452560Y-115700000D01*
X186496838Y-115935317D01*
X186635910Y-116151441D01*
X186848110Y-116296431D01*
X187100000Y-116347440D01*
X189367308Y-116347440D01*
X191362434Y-118342566D01*
X191730654Y-118588603D01*
X192165000Y-118675000D01*
X204438118Y-118675000D01*
X204671079Y-118830660D01*
X205205688Y-118937000D01*
X205946712Y-118937000D01*
X206481321Y-118830660D01*
X206934540Y-118527828D01*
X207237372Y-118074609D01*
X207343712Y-117540000D01*
X207237372Y-117005391D01*
X206934540Y-116552172D01*
X206512241Y-116270000D01*
X206934540Y-115987828D01*
X207237372Y-115534609D01*
X207343712Y-115000000D01*
X207237372Y-114465391D01*
X206934540Y-114012172D01*
X206702309Y-113857000D01*
X206801060Y-113857000D01*
X207034449Y-113760327D01*
X207213077Y-113581698D01*
X207309750Y-113348309D01*
X207309750Y-112745750D01*
X207151000Y-112587000D01*
X205703200Y-112587000D01*
X205703200Y-112607000D01*
X205449200Y-112607000D01*
X205449200Y-112587000D01*
X204001400Y-112587000D01*
X203842650Y-112745750D01*
X203842650Y-113348309D01*
X203939323Y-113581698D01*
X204117951Y-113760327D01*
X204351340Y-113857000D01*
X204450091Y-113857000D01*
X204217860Y-114012172D01*
X203915028Y-114465391D01*
X203808688Y-115000000D01*
X203915028Y-115534609D01*
X204217860Y-115987828D01*
X204640159Y-116270000D01*
X204438118Y-116405000D01*
X192635132Y-116405000D01*
X192577572Y-116347440D01*
X192900000Y-116347440D01*
X193135317Y-116303162D01*
X193351441Y-116164090D01*
X193496431Y-115951890D01*
X193547440Y-115700000D01*
X193547440Y-109300000D01*
X193503162Y-109064683D01*
X193416496Y-108930000D01*
X195807167Y-108930000D01*
X195915441Y-109474329D01*
X196223778Y-109935789D01*
X196619199Y-110200000D01*
X196223778Y-110464211D01*
X195915441Y-110925671D01*
X195807167Y-111470000D01*
X195915441Y-112014329D01*
X196223778Y-112475789D01*
X196619199Y-112740000D01*
X196223778Y-113004211D01*
X195915441Y-113465671D01*
X195807167Y-114010000D01*
X195915441Y-114554329D01*
X196223778Y-115015789D01*
X196685238Y-115324126D01*
X197229567Y-115432400D01*
X198010433Y-115432400D01*
X198554762Y-115324126D01*
X199016222Y-115015789D01*
X199324559Y-114554329D01*
X199432833Y-114010000D01*
X199324559Y-113465671D01*
X199016222Y-113004211D01*
X198620801Y-112740000D01*
X199016222Y-112475789D01*
X199324559Y-112014329D01*
X199412605Y-111571691D01*
X203842650Y-111571691D01*
X203842650Y-112174250D01*
X204001400Y-112333000D01*
X205449200Y-112333000D01*
X205449200Y-111221750D01*
X205703200Y-111221750D01*
X205703200Y-112333000D01*
X207151000Y-112333000D01*
X207309750Y-112174250D01*
X207309750Y-111571691D01*
X207213077Y-111338302D01*
X207034449Y-111159673D01*
X206801060Y-111063000D01*
X205861950Y-111063000D01*
X205703200Y-111221750D01*
X205449200Y-111221750D01*
X205290450Y-111063000D01*
X204351340Y-111063000D01*
X204117951Y-111159673D01*
X203939323Y-111338302D01*
X203842650Y-111571691D01*
X199412605Y-111571691D01*
X199432833Y-111470000D01*
X199324559Y-110925671D01*
X199016222Y-110464211D01*
X198620801Y-110200000D01*
X199016222Y-109935789D01*
X199231855Y-109613070D01*
X203885430Y-109613070D01*
X203900390Y-109687277D01*
X204162020Y-110168026D01*
X204587709Y-110512059D01*
X205112650Y-110667000D01*
X205449200Y-110667000D01*
X205449200Y-109397000D01*
X205703200Y-109397000D01*
X205703200Y-110667000D01*
X206039750Y-110667000D01*
X206564691Y-110512059D01*
X206990380Y-110168026D01*
X207252010Y-109687277D01*
X207266970Y-109613070D01*
X207144470Y-109397000D01*
X205703200Y-109397000D01*
X205449200Y-109397000D01*
X204007930Y-109397000D01*
X203885430Y-109613070D01*
X199231855Y-109613070D01*
X199324559Y-109474329D01*
X199432833Y-108930000D01*
X199324559Y-108385671D01*
X199016222Y-107924211D01*
X198621170Y-107660246D01*
X198637262Y-107655525D01*
X199071191Y-107305986D01*
X199338327Y-106816996D01*
X199355010Y-106737060D01*
X199232852Y-106517000D01*
X197747000Y-106517000D01*
X197747000Y-106537000D01*
X197493000Y-106537000D01*
X197493000Y-106517000D01*
X196007148Y-106517000D01*
X195884990Y-106737060D01*
X195901673Y-106816996D01*
X196168809Y-107305986D01*
X196602738Y-107655525D01*
X196618830Y-107660246D01*
X196223778Y-107924211D01*
X195915441Y-108385671D01*
X195807167Y-108930000D01*
X193416496Y-108930000D01*
X193364090Y-108848559D01*
X193151890Y-108703569D01*
X192900000Y-108652560D01*
X191135000Y-108652560D01*
X191135000Y-107643588D01*
X191141673Y-107659698D01*
X191320301Y-107838327D01*
X191553690Y-107935000D01*
X191994250Y-107935000D01*
X192153000Y-107776250D01*
X192153000Y-106327000D01*
X192407000Y-106327000D01*
X192407000Y-107776250D01*
X192565750Y-107935000D01*
X193006310Y-107935000D01*
X193239699Y-107838327D01*
X193418327Y-107659698D01*
X193515000Y-107426309D01*
X193515000Y-106485750D01*
X193356250Y-106327000D01*
X192407000Y-106327000D01*
X192153000Y-106327000D01*
X192133000Y-106327000D01*
X192133000Y-106073000D01*
X192153000Y-106073000D01*
X192153000Y-104623750D01*
X192407000Y-104623750D01*
X192407000Y-106073000D01*
X193356250Y-106073000D01*
X193515000Y-105914250D01*
X193515000Y-104973691D01*
X193418327Y-104740302D01*
X193239699Y-104561673D01*
X193006310Y-104465000D01*
X192565750Y-104465000D01*
X192407000Y-104623750D01*
X192153000Y-104623750D01*
X191994250Y-104465000D01*
X191553690Y-104465000D01*
X191320301Y-104561673D01*
X191141673Y-104740302D01*
X191134409Y-104757838D01*
X191064090Y-104648559D01*
X190851890Y-104503569D01*
X190600000Y-104452560D01*
X189400000Y-104452560D01*
X189164683Y-104496838D01*
X188948559Y-104635910D01*
X188859667Y-104766008D01*
X188784090Y-104648559D01*
X188595000Y-104519359D01*
X188595000Y-103068235D01*
X188601441Y-103064090D01*
X188746431Y-102851890D01*
X188797440Y-102600000D01*
X188797440Y-101100000D01*
X188753162Y-100864683D01*
X188614090Y-100648559D01*
X188401890Y-100503569D01*
X188388803Y-100500919D01*
X188601441Y-100364090D01*
X188746431Y-100151890D01*
X188797440Y-99900000D01*
X188797440Y-98807692D01*
X190240132Y-97365000D01*
X191000000Y-97365000D01*
X190565655Y-97451397D01*
X190197434Y-97697434D01*
X189951397Y-98065655D01*
X189865000Y-98500000D01*
X189951397Y-98934345D01*
X190197434Y-99302566D01*
X190467434Y-99572566D01*
X190835655Y-99818604D01*
X191270000Y-99905000D01*
X196417156Y-99905000D01*
X196619199Y-100040000D01*
X196223778Y-100304211D01*
X195915441Y-100765671D01*
X195807167Y-101310000D01*
X195915441Y-101854329D01*
X196223778Y-102315789D01*
X196619199Y-102580000D01*
X196223778Y-102844211D01*
X195915441Y-103305671D01*
X195807167Y-103850000D01*
X195915441Y-104394329D01*
X196223778Y-104855789D01*
X196618830Y-105119754D01*
X196602738Y-105124475D01*
X196168809Y-105474014D01*
X195901673Y-105963004D01*
X195884990Y-106042940D01*
X196007148Y-106263000D01*
X197493000Y-106263000D01*
X197493000Y-106243000D01*
X197747000Y-106243000D01*
X197747000Y-106263000D01*
X199232852Y-106263000D01*
X199355010Y-106042940D01*
X199339370Y-105968000D01*
X203830210Y-105968000D01*
X203830210Y-107492000D01*
X203874488Y-107727317D01*
X204013560Y-107943441D01*
X204225760Y-108088431D01*
X204455337Y-108134921D01*
X204162020Y-108371974D01*
X203900390Y-108852723D01*
X203885430Y-108926930D01*
X204007930Y-109143000D01*
X205449200Y-109143000D01*
X205449200Y-109123000D01*
X205703200Y-109123000D01*
X205703200Y-109143000D01*
X207144470Y-109143000D01*
X207266970Y-108926930D01*
X207252010Y-108852723D01*
X206990380Y-108371974D01*
X206697384Y-108135181D01*
X206910067Y-108095162D01*
X207126191Y-107956090D01*
X207271181Y-107743890D01*
X207322190Y-107492000D01*
X207322190Y-105968000D01*
X207277912Y-105732683D01*
X207138840Y-105516559D01*
X206926640Y-105371569D01*
X206674750Y-105320560D01*
X204477650Y-105320560D01*
X204242333Y-105364838D01*
X204026209Y-105503910D01*
X203881219Y-105716110D01*
X203830210Y-105968000D01*
X199339370Y-105968000D01*
X199338327Y-105963004D01*
X199071191Y-105474014D01*
X198637262Y-105124475D01*
X198621170Y-105119754D01*
X199016222Y-104855789D01*
X199324559Y-104394329D01*
X199432833Y-103850000D01*
X199324559Y-103305671D01*
X199016222Y-102844211D01*
X198620801Y-102580000D01*
X199016222Y-102315789D01*
X199324559Y-101854329D01*
X199432833Y-101310000D01*
X199324559Y-100765671D01*
X199016222Y-100304211D01*
X198620801Y-100040000D01*
X199016222Y-99775789D01*
X199324559Y-99314329D01*
X199432833Y-98770000D01*
X199324559Y-98225671D01*
X199016222Y-97764211D01*
X198620801Y-97500000D01*
X199016222Y-97235789D01*
X199324559Y-96774329D01*
X199432833Y-96230000D01*
X199324559Y-95685671D01*
X199016222Y-95224211D01*
X198620801Y-94960000D01*
X199016222Y-94695789D01*
X199324559Y-94234329D01*
X199432833Y-93690000D01*
X199324559Y-93145671D01*
X199016222Y-92684211D01*
X198620801Y-92420000D01*
X199016222Y-92155789D01*
X199324559Y-91694329D01*
X199432833Y-91150000D01*
X199405014Y-91010146D01*
X200865000Y-92470132D01*
X200865000Y-94500000D01*
X200951397Y-94934346D01*
X201145079Y-95224211D01*
X201197434Y-95302566D01*
X202237434Y-96342566D01*
X202605654Y-96588603D01*
X203040000Y-96675000D01*
X204438118Y-96675000D01*
X204640159Y-96810000D01*
X204217860Y-97092172D01*
X203915028Y-97545391D01*
X203808688Y-98080000D01*
X203915028Y-98614609D01*
X204217860Y-99067828D01*
X204640159Y-99350000D01*
X204217860Y-99632172D01*
X203915028Y-100085391D01*
X203808688Y-100620000D01*
X203915028Y-101154609D01*
X204217860Y-101607828D01*
X204640159Y-101890000D01*
X204217860Y-102172172D01*
X203915028Y-102625391D01*
X203808688Y-103160000D01*
X203915028Y-103694609D01*
X204217860Y-104147828D01*
X204671079Y-104450660D01*
X205205688Y-104557000D01*
X205946712Y-104557000D01*
X206481321Y-104450660D01*
X206934540Y-104147828D01*
X207237372Y-103694609D01*
X207343712Y-103160000D01*
X207237372Y-102625391D01*
X206934540Y-102172172D01*
X206512241Y-101890000D01*
X206934540Y-101607828D01*
X207237372Y-101154609D01*
X207343712Y-100620000D01*
X207237372Y-100085391D01*
X206934540Y-99632172D01*
X206512241Y-99350000D01*
X206934540Y-99067828D01*
X207237372Y-98614609D01*
X207343712Y-98080000D01*
X207237372Y-97545391D01*
X206934540Y-97092172D01*
X206512241Y-96810000D01*
X206934540Y-96527828D01*
X207237372Y-96074609D01*
X207343712Y-95540000D01*
X207237372Y-95005391D01*
X206934540Y-94552172D01*
X206512241Y-94270000D01*
X206934540Y-93987828D01*
X207237372Y-93534609D01*
X207343712Y-93000000D01*
X207237372Y-92465391D01*
X206934540Y-92012172D01*
X206512241Y-91730000D01*
X206934540Y-91447828D01*
X207237372Y-90994609D01*
X207343712Y-90460000D01*
X207237372Y-89925391D01*
X206934540Y-89472172D01*
X206512241Y-89190000D01*
X206934540Y-88907828D01*
X207237372Y-88454609D01*
X207343712Y-87920000D01*
X207237372Y-87385391D01*
X206934540Y-86932172D01*
X206512241Y-86650000D01*
X206934540Y-86367828D01*
X207237372Y-85914609D01*
X207343712Y-85380000D01*
X207237372Y-84845391D01*
X206934540Y-84392172D01*
X206710781Y-84242660D01*
X206910067Y-84205162D01*
X207126191Y-84066090D01*
X207271181Y-83853890D01*
X207322190Y-83602000D01*
X207322190Y-82078000D01*
X207277912Y-81842683D01*
X207138840Y-81626559D01*
X206926640Y-81481569D01*
X206674750Y-81430560D01*
X204477650Y-81430560D01*
X204242333Y-81474838D01*
X204026209Y-81613910D01*
X203881219Y-81826110D01*
X203830210Y-82078000D01*
X203830210Y-83602000D01*
X203874488Y-83837317D01*
X204013560Y-84053441D01*
X204225760Y-84198431D01*
X204442213Y-84242264D01*
X204217860Y-84392172D01*
X203915028Y-84845391D01*
X203808688Y-85380000D01*
X203915028Y-85914609D01*
X204217860Y-86367828D01*
X204640159Y-86650000D01*
X204217860Y-86932172D01*
X203915028Y-87385391D01*
X203808688Y-87920000D01*
X203915028Y-88454609D01*
X204217860Y-88907828D01*
X204640159Y-89190000D01*
X204217860Y-89472172D01*
X203915028Y-89925391D01*
X203808688Y-90460000D01*
X203915028Y-90994609D01*
X204217860Y-91447828D01*
X204640159Y-91730000D01*
X204217860Y-92012172D01*
X203915028Y-92465391D01*
X203808688Y-93000000D01*
X203915028Y-93534609D01*
X204217860Y-93987828D01*
X204640159Y-94270000D01*
X204438118Y-94405000D01*
X203510132Y-94405000D01*
X203135000Y-94029868D01*
X203135000Y-92000000D01*
X203048603Y-91565654D01*
X202802566Y-91197434D01*
X199412566Y-87807434D01*
X199214122Y-87674838D01*
X199044346Y-87561397D01*
X198913064Y-87535283D01*
X198620801Y-87340000D01*
X199016222Y-87075789D01*
X199324559Y-86614329D01*
X199432833Y-86070000D01*
X199324559Y-85525671D01*
X199016222Y-85064211D01*
X198620801Y-84800000D01*
X198822844Y-84665000D01*
X199970000Y-84665000D01*
X200404346Y-84578603D01*
X200772566Y-84332566D01*
X203302566Y-81802566D01*
X203548603Y-81434346D01*
X203635000Y-81000000D01*
X203635000Y-80003070D01*
X203885430Y-80003070D01*
X203900390Y-80077277D01*
X204162020Y-80558026D01*
X204587709Y-80902059D01*
X205112650Y-81057000D01*
X205449200Y-81057000D01*
X205449200Y-79787000D01*
X205703200Y-79787000D01*
X205703200Y-81057000D01*
X206039750Y-81057000D01*
X206564691Y-80902059D01*
X206990380Y-80558026D01*
X207252010Y-80077277D01*
X207266970Y-80003070D01*
X207144470Y-79787000D01*
X205703200Y-79787000D01*
X205449200Y-79787000D01*
X204007930Y-79787000D01*
X203885430Y-80003070D01*
X203635000Y-80003070D01*
X203635000Y-74580000D01*
X203808688Y-74580000D01*
X203915028Y-75114609D01*
X204217860Y-75567828D01*
X204640159Y-75850000D01*
X204217860Y-76132172D01*
X203915028Y-76585391D01*
X203808688Y-77120000D01*
X203915028Y-77654609D01*
X204217860Y-78107828D01*
X204653093Y-78398642D01*
X204587709Y-78417941D01*
X204162020Y-78761974D01*
X203900390Y-79242723D01*
X203885430Y-79316930D01*
X204007930Y-79533000D01*
X205449200Y-79533000D01*
X205449200Y-79513000D01*
X205703200Y-79513000D01*
X205703200Y-79533000D01*
X207144470Y-79533000D01*
X207266970Y-79316930D01*
X207252010Y-79242723D01*
X206990380Y-78761974D01*
X206564691Y-78417941D01*
X206499307Y-78398642D01*
X206934540Y-78107828D01*
X207237372Y-77654609D01*
X207343712Y-77120000D01*
X207237372Y-76585391D01*
X206934540Y-76132172D01*
X206512241Y-75850000D01*
X206934540Y-75567828D01*
X207237372Y-75114609D01*
X207343712Y-74580000D01*
X207237372Y-74045391D01*
X206934540Y-73592172D01*
X206499307Y-73301358D01*
X206564691Y-73282059D01*
X206990380Y-72938026D01*
X207252010Y-72457277D01*
X207266970Y-72383070D01*
X207144470Y-72167000D01*
X205703200Y-72167000D01*
X205703200Y-72187000D01*
X205449200Y-72187000D01*
X205449200Y-72167000D01*
X204007930Y-72167000D01*
X203885430Y-72383070D01*
X203900390Y-72457277D01*
X204162020Y-72938026D01*
X204587709Y-73282059D01*
X204653093Y-73301358D01*
X204217860Y-73592172D01*
X203915028Y-74045391D01*
X203808688Y-74580000D01*
X203635000Y-74580000D01*
X203635000Y-68470132D01*
X204010132Y-68095000D01*
X204438118Y-68095000D01*
X204640159Y-68230000D01*
X204217860Y-68512172D01*
X203915028Y-68965391D01*
X203808688Y-69500000D01*
X203915028Y-70034609D01*
X204217860Y-70487828D01*
X204653093Y-70778642D01*
X204587709Y-70797941D01*
X204162020Y-71141974D01*
X203900390Y-71622723D01*
X203885430Y-71696930D01*
X204007930Y-71913000D01*
X205449200Y-71913000D01*
X205449200Y-71893000D01*
X205703200Y-71893000D01*
X205703200Y-71913000D01*
X207144470Y-71913000D01*
X207266970Y-71696930D01*
X207252010Y-71622723D01*
X206990380Y-71141974D01*
X206564691Y-70797941D01*
X206499307Y-70778642D01*
X206934540Y-70487828D01*
X207237372Y-70034609D01*
X207343712Y-69500000D01*
X207237372Y-68965391D01*
X206934540Y-68512172D01*
X206512241Y-68230000D01*
X206934540Y-67947828D01*
X207237372Y-67494609D01*
X207343712Y-66960000D01*
X207237372Y-66425391D01*
X206934540Y-65972172D01*
X206512241Y-65690000D01*
X206934540Y-65407828D01*
X207237372Y-64954609D01*
X207343712Y-64420000D01*
X207237372Y-63885391D01*
X206934540Y-63432172D01*
X206512241Y-63150000D01*
X206934540Y-62867828D01*
X207237372Y-62414609D01*
X207343712Y-61880000D01*
X207237372Y-61345391D01*
X206934540Y-60892172D01*
X206702309Y-60737000D01*
X206801060Y-60737000D01*
X207034449Y-60640327D01*
X207213077Y-60461698D01*
X207309750Y-60228309D01*
X207309750Y-59625750D01*
X207151000Y-59467000D01*
X205703200Y-59467000D01*
X205703200Y-59487000D01*
X205449200Y-59487000D01*
X205449200Y-59467000D01*
X204001400Y-59467000D01*
X203842650Y-59625750D01*
X203842650Y-60228309D01*
X203939323Y-60461698D01*
X204117951Y-60640327D01*
X204351340Y-60737000D01*
X204450091Y-60737000D01*
X204217860Y-60892172D01*
X203915028Y-61345391D01*
X203808688Y-61880000D01*
X203915028Y-62414609D01*
X204217860Y-62867828D01*
X204640159Y-63150000D01*
X204217860Y-63432172D01*
X203915028Y-63885391D01*
X203808688Y-64420000D01*
X203915028Y-64954609D01*
X204217860Y-65407828D01*
X204640159Y-65690000D01*
X204438118Y-65825000D01*
X203540000Y-65825000D01*
X203105654Y-65911397D01*
X202771251Y-66134838D01*
X202737434Y-66157434D01*
X201697434Y-67197434D01*
X201451397Y-67565654D01*
X201365000Y-68000000D01*
X201365000Y-80529868D01*
X199499868Y-82395000D01*
X198822844Y-82395000D01*
X198620801Y-82260000D01*
X199016222Y-81995789D01*
X199324559Y-81534329D01*
X199432833Y-80990000D01*
X199324559Y-80445671D01*
X199016222Y-79984211D01*
X198620801Y-79720000D01*
X199016222Y-79455789D01*
X199324559Y-78994329D01*
X199432833Y-78450000D01*
X199324559Y-77905671D01*
X199016222Y-77444211D01*
X198554762Y-77135874D01*
X198010433Y-77027600D01*
X197229567Y-77027600D01*
X196685238Y-77135874D01*
X196223778Y-77444211D01*
X195915441Y-77905671D01*
X195807167Y-78450000D01*
X195915441Y-78994329D01*
X196223778Y-79455789D01*
X196619199Y-79720000D01*
X196223778Y-79984211D01*
X195915441Y-80445671D01*
X195807167Y-80990000D01*
X195915441Y-81534329D01*
X196223778Y-81995789D01*
X196619199Y-82260000D01*
X196223778Y-82524211D01*
X195915441Y-82985671D01*
X195807167Y-83530000D01*
X195915441Y-84074329D01*
X196223778Y-84535789D01*
X196619199Y-84800000D01*
X196223778Y-85064211D01*
X195915441Y-85525671D01*
X195807167Y-86070000D01*
X195915441Y-86614329D01*
X196223778Y-87075789D01*
X196619199Y-87340000D01*
X196223778Y-87604211D01*
X195915441Y-88065671D01*
X195807167Y-88610000D01*
X195915441Y-89154329D01*
X196223778Y-89615789D01*
X196619199Y-89880000D01*
X196223778Y-90144211D01*
X195915441Y-90605671D01*
X195807167Y-91150000D01*
X195915441Y-91694329D01*
X196223778Y-92155789D01*
X196619199Y-92420000D01*
X196223778Y-92684211D01*
X195915441Y-93145671D01*
X195807167Y-93690000D01*
X195915441Y-94234329D01*
X196223778Y-94695789D01*
X196619199Y-94960000D01*
X196417156Y-95095000D01*
X189770000Y-95095000D01*
X189335654Y-95181397D01*
X189228493Y-95253000D01*
X188967434Y-95427434D01*
X186697434Y-97697434D01*
X186633363Y-97793323D01*
X186614683Y-97796838D01*
X186398559Y-97935910D01*
X186253569Y-98148110D01*
X186202560Y-98400000D01*
X184119236Y-98400000D01*
X184084559Y-98225671D01*
X183776222Y-97764211D01*
X183380801Y-97500000D01*
X183776222Y-97235789D01*
X184084559Y-96774329D01*
X184192833Y-96230000D01*
X184084559Y-95685671D01*
X183776222Y-95224211D01*
X183380801Y-94960000D01*
X183776222Y-94695789D01*
X184084559Y-94234329D01*
X184192833Y-93690000D01*
X184084559Y-93145671D01*
X183776222Y-92684211D01*
X183380801Y-92420000D01*
X183776222Y-92155789D01*
X184084559Y-91694329D01*
X184192833Y-91150000D01*
X184084559Y-90605671D01*
X183776222Y-90144211D01*
X183380801Y-89880000D01*
X183776222Y-89615789D01*
X184084559Y-89154329D01*
X184192833Y-88610000D01*
X184084559Y-88065671D01*
X183776222Y-87604211D01*
X183380801Y-87340000D01*
X183776222Y-87075789D01*
X184084559Y-86614329D01*
X184192833Y-86070000D01*
X184084559Y-85525671D01*
X183776222Y-85064211D01*
X183380801Y-84800000D01*
X183776222Y-84535789D01*
X184084559Y-84074329D01*
X184192833Y-83530000D01*
X184084559Y-82985671D01*
X183776222Y-82524211D01*
X183380801Y-82260000D01*
X183776222Y-81995789D01*
X184084559Y-81534329D01*
X184192833Y-80990000D01*
X184084559Y-80445671D01*
X183776222Y-79984211D01*
X183604540Y-79869497D01*
X183758317Y-79840562D01*
X183974441Y-79701490D01*
X184119431Y-79489290D01*
X184170440Y-79237400D01*
X184170440Y-77662600D01*
X184126162Y-77427283D01*
X183987090Y-77211159D01*
X183774890Y-77066169D01*
X183523000Y-77015160D01*
X181360093Y-77015160D01*
X181339556Y-76984424D01*
X180552566Y-76197434D01*
X180184345Y-75951397D01*
X179750000Y-75865000D01*
X179535000Y-75907766D01*
X179535000Y-68284187D01*
X187364752Y-68284187D01*
X187582757Y-68811800D01*
X187986077Y-69215824D01*
X188513309Y-69434750D01*
X189084187Y-69435248D01*
X189611800Y-69217243D01*
X190015824Y-68813923D01*
X190234750Y-68286691D01*
X190235248Y-67715813D01*
X190022119Y-67200000D01*
X190552560Y-67200000D01*
X190552560Y-68800000D01*
X190596838Y-69035317D01*
X190735910Y-69251441D01*
X190948110Y-69396431D01*
X191200000Y-69447440D01*
X192800000Y-69447440D01*
X193035317Y-69403162D01*
X193251441Y-69264090D01*
X193396431Y-69051890D01*
X193447440Y-68800000D01*
X193447440Y-67200000D01*
X193403162Y-66964683D01*
X193264090Y-66748559D01*
X193051890Y-66603569D01*
X192800000Y-66552560D01*
X191200000Y-66552560D01*
X190964683Y-66596838D01*
X190748559Y-66735910D01*
X190603569Y-66948110D01*
X190552560Y-67200000D01*
X190022119Y-67200000D01*
X190017243Y-67188200D01*
X189613923Y-66784176D01*
X189086691Y-66565250D01*
X188515813Y-66564752D01*
X187988200Y-66782757D01*
X187584176Y-67186077D01*
X187365250Y-67713309D01*
X187364752Y-68284187D01*
X179535000Y-68284187D01*
X179535000Y-61940000D01*
X179523065Y-61880000D01*
X179448604Y-61505655D01*
X179202567Y-61137434D01*
X177928928Y-59863795D01*
X179444716Y-59863795D01*
X179693106Y-60464943D01*
X180152637Y-60925278D01*
X180753352Y-61174716D01*
X181403795Y-61175284D01*
X182004943Y-60926894D01*
X182465278Y-60467363D01*
X182714716Y-59866648D01*
X182715284Y-59216205D01*
X182466894Y-58615057D01*
X182303814Y-58451691D01*
X203842650Y-58451691D01*
X203842650Y-59054250D01*
X204001400Y-59213000D01*
X205449200Y-59213000D01*
X205449200Y-58101750D01*
X205703200Y-58101750D01*
X205703200Y-59213000D01*
X207151000Y-59213000D01*
X207309750Y-59054250D01*
X207309750Y-58451691D01*
X207213077Y-58218302D01*
X207034449Y-58039673D01*
X206801060Y-57943000D01*
X205861950Y-57943000D01*
X205703200Y-58101750D01*
X205449200Y-58101750D01*
X205290450Y-57943000D01*
X204351340Y-57943000D01*
X204117951Y-58039673D01*
X203939323Y-58218302D01*
X203842650Y-58451691D01*
X182303814Y-58451691D01*
X182007363Y-58154722D01*
X181406648Y-57905284D01*
X180756205Y-57904716D01*
X180155057Y-58153106D01*
X179694722Y-58612637D01*
X179445284Y-59213352D01*
X179444716Y-59863795D01*
X177928928Y-59863795D01*
X177634975Y-59569843D01*
X177635284Y-59216205D01*
X177386894Y-58615057D01*
X177135000Y-58362722D01*
X177135000Y-55637204D01*
X177385278Y-55387363D01*
X177634716Y-54786648D01*
X177634718Y-54783795D01*
X179444716Y-54783795D01*
X179693106Y-55384943D01*
X180152637Y-55845278D01*
X180753352Y-56094716D01*
X181403795Y-56095284D01*
X182004943Y-55846894D01*
X182465278Y-55387363D01*
X182714716Y-54786648D01*
X182715284Y-54136205D01*
X182466894Y-53535057D01*
X182007363Y-53074722D01*
X181406648Y-52825284D01*
X180756205Y-52824716D01*
X180155057Y-53073106D01*
X179694722Y-53532637D01*
X179445284Y-54133352D01*
X179444716Y-54783795D01*
X177634718Y-54783795D01*
X177635284Y-54136205D01*
X177386894Y-53535057D01*
X176927363Y-53074722D01*
X176326648Y-52825284D01*
X175676205Y-52824716D01*
X175075057Y-53073106D01*
X174729801Y-53417759D01*
X174387363Y-53074722D01*
X173786648Y-52825284D01*
X173136205Y-52824716D01*
X172535057Y-53073106D01*
X172189801Y-53417759D01*
X171847363Y-53074722D01*
X171246648Y-52825284D01*
X170596205Y-52824716D01*
X169995057Y-53073106D01*
X169534722Y-53532637D01*
X169285284Y-54133352D01*
X169284716Y-54783795D01*
X169533106Y-55384943D01*
X169992637Y-55845278D01*
X170593352Y-56094716D01*
X171243795Y-56095284D01*
X171844943Y-55846894D01*
X172075000Y-55617239D01*
X172075000Y-58382757D01*
X171847363Y-58154722D01*
X171246648Y-57905284D01*
X170596205Y-57904716D01*
X169995057Y-58153106D01*
X169534722Y-58612637D01*
X169285284Y-59213352D01*
X169284716Y-59863795D01*
X169533106Y-60464943D01*
X169992637Y-60925278D01*
X170593352Y-61174716D01*
X171243795Y-61175284D01*
X171844943Y-60926894D01*
X172075000Y-60697239D01*
X172075000Y-70678664D01*
X166948664Y-75805000D01*
X166031950Y-75805000D01*
X166282140Y-75637828D01*
X166584972Y-75184609D01*
X166691312Y-74650000D01*
X166584972Y-74115391D01*
X166282140Y-73662172D01*
X165828921Y-73359340D01*
X165294312Y-73253000D01*
X164553288Y-73253000D01*
X164018679Y-73359340D01*
X163565460Y-73662172D01*
X163262628Y-74115391D01*
X163156288Y-74650000D01*
X160710000Y-74650000D01*
X160710000Y-42957312D01*
X162222293Y-42957312D01*
X162625762Y-43483924D01*
X164139730Y-44127307D01*
X165784666Y-44142346D01*
X167310145Y-43526750D01*
X167374238Y-43483924D01*
X167777707Y-42957312D01*
X202222293Y-42957312D01*
X202625762Y-43483924D01*
X204139730Y-44127307D01*
X205784666Y-44142346D01*
X207310145Y-43526750D01*
X207374238Y-43483924D01*
X207777707Y-42957312D01*
X205000000Y-40179605D01*
X202222293Y-42957312D01*
X167777707Y-42957312D01*
X165000000Y-40179605D01*
X162222293Y-42957312D01*
X160710000Y-42957312D01*
X160710000Y-40784666D01*
X160857654Y-40784666D01*
X161473250Y-42310145D01*
X161516076Y-42374238D01*
X162042688Y-42777707D01*
X164820395Y-40000000D01*
X165179605Y-40000000D01*
X167957312Y-42777707D01*
X168483924Y-42374238D01*
X169127307Y-40860270D01*
X169127998Y-40784666D01*
X200857654Y-40784666D01*
X201473250Y-42310145D01*
X201516076Y-42374238D01*
X202042688Y-42777707D01*
X204820395Y-40000000D01*
X205179605Y-40000000D01*
X207957312Y-42777707D01*
X208483924Y-42374238D01*
X209127307Y-40860270D01*
X209142346Y-39215334D01*
X208526750Y-37689855D01*
X208483924Y-37625762D01*
X207957312Y-37222293D01*
X205179605Y-40000000D01*
X204820395Y-40000000D01*
X202042688Y-37222293D01*
X201516076Y-37625762D01*
X200872693Y-39139730D01*
X200857654Y-40784666D01*
X169127998Y-40784666D01*
X169142346Y-39215334D01*
X168526750Y-37689855D01*
X168483924Y-37625762D01*
X167957312Y-37222293D01*
X165179605Y-40000000D01*
X164820395Y-40000000D01*
X162042688Y-37222293D01*
X161516076Y-37625762D01*
X160872693Y-39139730D01*
X160857654Y-40784666D01*
X160710000Y-40784666D01*
X160710000Y-37042688D01*
X162222293Y-37042688D01*
X165000000Y-39820395D01*
X167777707Y-37042688D01*
X202222293Y-37042688D01*
X205000000Y-39820395D01*
X207777707Y-37042688D01*
X207374238Y-36516076D01*
X205860270Y-35872693D01*
X204215334Y-35857654D01*
X202689855Y-36473250D01*
X202625762Y-36516076D01*
X202222293Y-37042688D01*
X167777707Y-37042688D01*
X167374238Y-36516076D01*
X165860270Y-35872693D01*
X164215334Y-35857654D01*
X162689855Y-36473250D01*
X162625762Y-36516076D01*
X162222293Y-37042688D01*
X160710000Y-37042688D01*
X160710000Y-35710000D01*
X209290000Y-35710000D01*
X209290000Y-134290000D01*
X209290000Y-134290000D01*
G37*
X209290000Y-134290000D02*
X160710000Y-134290000D01*
X160710000Y-132957312D01*
X162222293Y-132957312D01*
X162625762Y-133483924D01*
X164139730Y-134127307D01*
X165784666Y-134142346D01*
X167310145Y-133526750D01*
X167374238Y-133483924D01*
X167777707Y-132957312D01*
X202222293Y-132957312D01*
X202625762Y-133483924D01*
X204139730Y-134127307D01*
X205784666Y-134142346D01*
X207310145Y-133526750D01*
X207374238Y-133483924D01*
X207777707Y-132957312D01*
X205000000Y-130179605D01*
X202222293Y-132957312D01*
X167777707Y-132957312D01*
X165000000Y-130179605D01*
X162222293Y-132957312D01*
X160710000Y-132957312D01*
X160710000Y-130784666D01*
X160857654Y-130784666D01*
X161473250Y-132310145D01*
X161516076Y-132374238D01*
X162042688Y-132777707D01*
X164820395Y-130000000D01*
X165179605Y-130000000D01*
X167957312Y-132777707D01*
X168483924Y-132374238D01*
X169127307Y-130860270D01*
X169127998Y-130784666D01*
X200857654Y-130784666D01*
X201473250Y-132310145D01*
X201516076Y-132374238D01*
X202042688Y-132777707D01*
X204820395Y-130000000D01*
X205179605Y-130000000D01*
X207957312Y-132777707D01*
X208483924Y-132374238D01*
X209127307Y-130860270D01*
X209142346Y-129215334D01*
X208526750Y-127689855D01*
X208483924Y-127625762D01*
X207957312Y-127222293D01*
X205179605Y-130000000D01*
X204820395Y-130000000D01*
X202042688Y-127222293D01*
X201516076Y-127625762D01*
X200872693Y-129139730D01*
X200857654Y-130784666D01*
X169127998Y-130784666D01*
X169142346Y-129215334D01*
X168526750Y-127689855D01*
X168483924Y-127625762D01*
X167957312Y-127222293D01*
X165179605Y-130000000D01*
X164820395Y-130000000D01*
X162042688Y-127222293D01*
X161516076Y-127625762D01*
X160872693Y-129139730D01*
X160857654Y-130784666D01*
X160710000Y-130784666D01*
X160710000Y-127042688D01*
X162222293Y-127042688D01*
X165000000Y-129820395D01*
X167777707Y-127042688D01*
X202222293Y-127042688D01*
X205000000Y-129820395D01*
X207777707Y-127042688D01*
X207374238Y-126516076D01*
X205860270Y-125872693D01*
X204215334Y-125857654D01*
X202689855Y-126473250D01*
X202625762Y-126516076D01*
X202222293Y-127042688D01*
X167777707Y-127042688D01*
X167374238Y-126516076D01*
X165860270Y-125872693D01*
X164215334Y-125857654D01*
X162689855Y-126473250D01*
X162625762Y-126516076D01*
X162222293Y-127042688D01*
X160710000Y-127042688D01*
X160710000Y-120508000D01*
X163177810Y-120508000D01*
X163177810Y-122032000D01*
X163222088Y-122267317D01*
X163361160Y-122483441D01*
X163573360Y-122628431D01*
X163825250Y-122679440D01*
X166022350Y-122679440D01*
X166257667Y-122635162D01*
X166473791Y-122496090D01*
X166618781Y-122283890D01*
X166669790Y-122032000D01*
X166669790Y-120508000D01*
X166625512Y-120272683D01*
X166486440Y-120056559D01*
X166274240Y-119911569D01*
X166044663Y-119865079D01*
X166337980Y-119628026D01*
X166599610Y-119147277D01*
X166614570Y-119073070D01*
X166492070Y-118857000D01*
X165050800Y-118857000D01*
X165050800Y-118877000D01*
X164796800Y-118877000D01*
X164796800Y-118857000D01*
X163355530Y-118857000D01*
X163233030Y-119073070D01*
X163247990Y-119147277D01*
X163509620Y-119628026D01*
X163802616Y-119864819D01*
X163589933Y-119904838D01*
X163373809Y-120043910D01*
X163228819Y-120256110D01*
X163177810Y-120508000D01*
X160710000Y-120508000D01*
X160710000Y-118386930D01*
X163233030Y-118386930D01*
X163355530Y-118603000D01*
X164796800Y-118603000D01*
X164796800Y-117333000D01*
X165050800Y-117333000D01*
X165050800Y-118603000D01*
X166492070Y-118603000D01*
X166614570Y-118386930D01*
X166599610Y-118312723D01*
X166337980Y-117831974D01*
X165912291Y-117487941D01*
X165387350Y-117333000D01*
X165050800Y-117333000D01*
X164796800Y-117333000D01*
X164460250Y-117333000D01*
X163935309Y-117487941D01*
X163509620Y-117831974D01*
X163247990Y-118312723D01*
X163233030Y-118386930D01*
X160710000Y-118386930D01*
X160710000Y-113668000D01*
X163177810Y-113668000D01*
X163177810Y-115192000D01*
X163222088Y-115427317D01*
X163361160Y-115643441D01*
X163573360Y-115788431D01*
X163825250Y-115839440D01*
X166022350Y-115839440D01*
X166257667Y-115795162D01*
X166473791Y-115656090D01*
X166618781Y-115443890D01*
X166669790Y-115192000D01*
X166669790Y-114010000D01*
X180567167Y-114010000D01*
X180675441Y-114554329D01*
X180983778Y-115015789D01*
X181445238Y-115324126D01*
X181989567Y-115432400D01*
X182770433Y-115432400D01*
X183314762Y-115324126D01*
X183776222Y-115015789D01*
X184084559Y-114554329D01*
X184192833Y-114010000D01*
X184084559Y-113465671D01*
X183776222Y-113004211D01*
X183381170Y-112740246D01*
X183397262Y-112735525D01*
X183831191Y-112385986D01*
X184098327Y-111896996D01*
X184115010Y-111817060D01*
X183992852Y-111597000D01*
X182507000Y-111597000D01*
X182507000Y-111617000D01*
X182253000Y-111617000D01*
X182253000Y-111597000D01*
X180767148Y-111597000D01*
X180644990Y-111817060D01*
X180661673Y-111896996D01*
X180928809Y-112385986D01*
X181362738Y-112735525D01*
X181378830Y-112740246D01*
X180983778Y-113004211D01*
X180675441Y-113465671D01*
X180567167Y-114010000D01*
X166669790Y-114010000D01*
X166669790Y-113668000D01*
X166625512Y-113432683D01*
X166486440Y-113216559D01*
X166274240Y-113071569D01*
X166044663Y-113025079D01*
X166337980Y-112788026D01*
X166599610Y-112307277D01*
X166614570Y-112233070D01*
X166492070Y-112017000D01*
X165050800Y-112017000D01*
X165050800Y-112037000D01*
X164796800Y-112037000D01*
X164796800Y-112017000D01*
X163355530Y-112017000D01*
X163233030Y-112233070D01*
X163247990Y-112307277D01*
X163509620Y-112788026D01*
X163802616Y-113024819D01*
X163589933Y-113064838D01*
X163373809Y-113203910D01*
X163228819Y-113416110D01*
X163177810Y-113668000D01*
X160710000Y-113668000D01*
X160710000Y-104613070D01*
X163233030Y-104613070D01*
X163247990Y-104687277D01*
X163509620Y-105168026D01*
X163935309Y-105512059D01*
X164029973Y-105540000D01*
X163935309Y-105567941D01*
X163509620Y-105911974D01*
X163247990Y-106392723D01*
X163233030Y-106466930D01*
X163355530Y-106683000D01*
X164796800Y-106683000D01*
X164796800Y-104397000D01*
X165050800Y-104397000D01*
X165050800Y-106683000D01*
X166492070Y-106683000D01*
X166614570Y-106466930D01*
X166599610Y-106392723D01*
X166337980Y-105911974D01*
X165912291Y-105567941D01*
X165817627Y-105540000D01*
X165912291Y-105512059D01*
X166337980Y-105168026D01*
X166599610Y-104687277D01*
X166614570Y-104613070D01*
X166492070Y-104397000D01*
X165050800Y-104397000D01*
X164796800Y-104397000D01*
X163355530Y-104397000D01*
X163233030Y-104613070D01*
X160710000Y-104613070D01*
X160710000Y-99190000D01*
X163156288Y-99190000D01*
X163262628Y-99724609D01*
X163565460Y-100177828D01*
X163987759Y-100460000D01*
X163565460Y-100742172D01*
X163262628Y-101195391D01*
X163156288Y-101730000D01*
X163262628Y-102264609D01*
X163565460Y-102717828D01*
X164000693Y-103008642D01*
X163935309Y-103027941D01*
X163509620Y-103371974D01*
X163247990Y-103852723D01*
X163233030Y-103926930D01*
X163355530Y-104143000D01*
X164796800Y-104143000D01*
X164796800Y-104123000D01*
X165050800Y-104123000D01*
X165050800Y-104143000D01*
X166492070Y-104143000D01*
X166614570Y-103926930D01*
X166599610Y-103852723D01*
X166337980Y-103371974D01*
X165912291Y-103027941D01*
X165846907Y-103008642D01*
X166282140Y-102717828D01*
X166584972Y-102264609D01*
X166691312Y-101730000D01*
X166584972Y-101195391D01*
X166282140Y-100742172D01*
X165859841Y-100460000D01*
X166282140Y-100177828D01*
X166584972Y-99724609D01*
X166691312Y-99190000D01*
X166584972Y-98655391D01*
X166282140Y-98202172D01*
X165846907Y-97911358D01*
X165912291Y-97892059D01*
X166337980Y-97548026D01*
X166599610Y-97067277D01*
X166614570Y-96993070D01*
X166492070Y-96777000D01*
X165050800Y-96777000D01*
X165050800Y-96797000D01*
X164796800Y-96797000D01*
X164796800Y-96777000D01*
X163355530Y-96777000D01*
X163233030Y-96993070D01*
X163247990Y-97067277D01*
X163509620Y-97548026D01*
X163935309Y-97892059D01*
X164000693Y-97911358D01*
X163565460Y-98202172D01*
X163262628Y-98655391D01*
X163156288Y-99190000D01*
X160710000Y-99190000D01*
X160710000Y-94110000D01*
X163156288Y-94110000D01*
X163262628Y-94644609D01*
X163565460Y-95097828D01*
X164000693Y-95388642D01*
X163935309Y-95407941D01*
X163509620Y-95751974D01*
X163247990Y-96232723D01*
X163233030Y-96306930D01*
X163355530Y-96523000D01*
X164796800Y-96523000D01*
X164796800Y-96503000D01*
X165050800Y-96503000D01*
X165050800Y-96523000D01*
X166492070Y-96523000D01*
X166614570Y-96306930D01*
X166599610Y-96232723D01*
X166337980Y-95751974D01*
X165912291Y-95407941D01*
X165846907Y-95388642D01*
X166282140Y-95097828D01*
X166584972Y-94644609D01*
X166691312Y-94110000D01*
X166584972Y-93575391D01*
X166282140Y-93122172D01*
X165846907Y-92831358D01*
X165912291Y-92812059D01*
X166337980Y-92468026D01*
X166599610Y-91987277D01*
X166614570Y-91913070D01*
X166492070Y-91697000D01*
X165050800Y-91697000D01*
X165050800Y-91717000D01*
X164796800Y-91717000D01*
X164796800Y-91697000D01*
X163355530Y-91697000D01*
X163233030Y-91913070D01*
X163247990Y-91987277D01*
X163509620Y-92468026D01*
X163935309Y-92812059D01*
X164000693Y-92831358D01*
X163565460Y-93122172D01*
X163262628Y-93575391D01*
X163156288Y-94110000D01*
X160710000Y-94110000D01*
X160710000Y-91226930D01*
X163233030Y-91226930D01*
X163355530Y-91443000D01*
X164796800Y-91443000D01*
X164796800Y-90173000D01*
X165050800Y-90173000D01*
X165050800Y-91443000D01*
X166492070Y-91443000D01*
X166614570Y-91226930D01*
X166599610Y-91152723D01*
X166337980Y-90671974D01*
X165912291Y-90327941D01*
X165387350Y-90173000D01*
X165050800Y-90173000D01*
X164796800Y-90173000D01*
X164460250Y-90173000D01*
X163935309Y-90327941D01*
X163509620Y-90671974D01*
X163247990Y-91152723D01*
X163233030Y-91226930D01*
X160710000Y-91226930D01*
X160710000Y-74650000D01*
X163156288Y-74650000D01*
X163262628Y-75184609D01*
X163565460Y-75637828D01*
X163987759Y-75920000D01*
X163565460Y-76202172D01*
X163262628Y-76655391D01*
X163156288Y-77190000D01*
X163262628Y-77724609D01*
X163565460Y-78177828D01*
X163987759Y-78460000D01*
X163565460Y-78742172D01*
X163262628Y-79195391D01*
X163156288Y-79730000D01*
X163262628Y-80264609D01*
X163565460Y-80717828D01*
X164000693Y-81008642D01*
X163935309Y-81027941D01*
X163509620Y-81371974D01*
X163247990Y-81852723D01*
X163233030Y-81926930D01*
X163355530Y-82143000D01*
X164796800Y-82143000D01*
X164796800Y-82123000D01*
X165050800Y-82123000D01*
X165050800Y-82143000D01*
X165070800Y-82143000D01*
X165070800Y-82397000D01*
X165050800Y-82397000D01*
X165050800Y-82417000D01*
X164796800Y-82417000D01*
X164796800Y-82397000D01*
X163355530Y-82397000D01*
X163233030Y-82613070D01*
X163247990Y-82687277D01*
X163509620Y-83168026D01*
X163935309Y-83512059D01*
X164000693Y-83531358D01*
X163565460Y-83822172D01*
X163262628Y-84275391D01*
X163156288Y-84810000D01*
X163262628Y-85344609D01*
X163565460Y-85797828D01*
X163789219Y-85947340D01*
X163589933Y-85984838D01*
X163373809Y-86123910D01*
X163228819Y-86336110D01*
X163177810Y-86588000D01*
X163177810Y-88112000D01*
X163222088Y-88347317D01*
X163361160Y-88563441D01*
X163573360Y-88708431D01*
X163825250Y-88759440D01*
X166022350Y-88759440D01*
X166257667Y-88715162D01*
X166473791Y-88576090D01*
X166536030Y-88485000D01*
X167022350Y-88485000D01*
X167456696Y-88398603D01*
X167824916Y-88152566D01*
X168202566Y-87774916D01*
X168448603Y-87406696D01*
X168535000Y-86972350D01*
X168535000Y-82600000D01*
X168448603Y-82165654D01*
X168202566Y-81797434D01*
X167834346Y-81551397D01*
X167400000Y-81465000D01*
X166965654Y-81551397D01*
X166597434Y-81797434D01*
X166582050Y-81820457D01*
X166337980Y-81371974D01*
X165912291Y-81027941D01*
X165846907Y-81008642D01*
X166061882Y-80865000D01*
X167670000Y-80865000D01*
X168104346Y-80778603D01*
X168472566Y-80532566D01*
X174065000Y-74940132D01*
X174065000Y-101329868D01*
X168397434Y-106997434D01*
X168151397Y-107365655D01*
X168065000Y-107800000D01*
X168147549Y-108215000D01*
X166061882Y-108215000D01*
X165846907Y-108071358D01*
X165912291Y-108052059D01*
X166337980Y-107708026D01*
X166599610Y-107227277D01*
X166614570Y-107153070D01*
X166492070Y-106937000D01*
X165050800Y-106937000D01*
X165050800Y-106957000D01*
X164796800Y-106957000D01*
X164796800Y-106937000D01*
X163355530Y-106937000D01*
X163233030Y-107153070D01*
X163247990Y-107227277D01*
X163509620Y-107708026D01*
X163935309Y-108052059D01*
X164000693Y-108071358D01*
X163565460Y-108362172D01*
X163262628Y-108815391D01*
X163156288Y-109350000D01*
X163262628Y-109884609D01*
X163565460Y-110337828D01*
X164000693Y-110628642D01*
X163935309Y-110647941D01*
X163509620Y-110991974D01*
X163247990Y-111472723D01*
X163233030Y-111546930D01*
X163355530Y-111763000D01*
X164796800Y-111763000D01*
X164796800Y-111743000D01*
X165050800Y-111743000D01*
X165050800Y-111763000D01*
X166492070Y-111763000D01*
X166614570Y-111546930D01*
X166599610Y-111472723D01*
X166337980Y-110991974D01*
X165912291Y-110647941D01*
X165846907Y-110628642D01*
X166061882Y-110485000D01*
X176050000Y-110485000D01*
X176484346Y-110398603D01*
X176852566Y-110152566D01*
X180139545Y-106865587D01*
X180140045Y-106864838D01*
X180385582Y-106497367D01*
X180471979Y-106063021D01*
X180471979Y-103547111D01*
X180601627Y-103676759D01*
X180567167Y-103850000D01*
X180675441Y-104394329D01*
X180983778Y-104855789D01*
X181379199Y-105120000D01*
X180983778Y-105384211D01*
X180675441Y-105845671D01*
X180567167Y-106390000D01*
X180675441Y-106934329D01*
X180983778Y-107395789D01*
X181379199Y-107660000D01*
X180983778Y-107924211D01*
X180675441Y-108385671D01*
X180567167Y-108930000D01*
X180675441Y-109474329D01*
X180983778Y-109935789D01*
X181378830Y-110199754D01*
X181362738Y-110204475D01*
X180928809Y-110554014D01*
X180661673Y-111043004D01*
X180644990Y-111122940D01*
X180767148Y-111343000D01*
X182253000Y-111343000D01*
X182253000Y-111323000D01*
X182507000Y-111323000D01*
X182507000Y-111343000D01*
X183992852Y-111343000D01*
X184115010Y-111122940D01*
X184098327Y-111043004D01*
X183831191Y-110554014D01*
X183397262Y-110204475D01*
X183381170Y-110199754D01*
X183776222Y-109935789D01*
X184084559Y-109474329D01*
X184192833Y-108930000D01*
X184084559Y-108385671D01*
X183776222Y-107924211D01*
X183380801Y-107660000D01*
X183776222Y-107395789D01*
X184084559Y-106934329D01*
X184192833Y-106390000D01*
X184084559Y-105845671D01*
X183776222Y-105384211D01*
X183380801Y-105120000D01*
X183776222Y-104855789D01*
X184084559Y-104394329D01*
X184192833Y-103850000D01*
X184084559Y-103305671D01*
X183776222Y-102844211D01*
X183380801Y-102580000D01*
X183776222Y-102315789D01*
X184084559Y-101854329D01*
X184192833Y-101310000D01*
X184084559Y-100765671D01*
X183776222Y-100304211D01*
X183380801Y-100040000D01*
X183776222Y-99775789D01*
X184084559Y-99314329D01*
X184192833Y-98770000D01*
X184119236Y-98400000D01*
X186202560Y-98400000D01*
X186202560Y-99900000D01*
X186246838Y-100135317D01*
X186385910Y-100351441D01*
X186598110Y-100496431D01*
X186611197Y-100499081D01*
X186398559Y-100635910D01*
X186253569Y-100848110D01*
X186202560Y-101100000D01*
X186202560Y-102600000D01*
X186246838Y-102835317D01*
X186325000Y-102956784D01*
X186325000Y-106225000D01*
X186411397Y-106659346D01*
X186472560Y-106750883D01*
X186472560Y-107300000D01*
X186516838Y-107535317D01*
X186655910Y-107751441D01*
X186868110Y-107896431D01*
X187120000Y-107947440D01*
X188320000Y-107947440D01*
X188555317Y-107903162D01*
X188771441Y-107764090D01*
X188860333Y-107633992D01*
X188865000Y-107641244D01*
X188865000Y-108652560D01*
X187100000Y-108652560D01*
X186864683Y-108696838D01*
X186648559Y-108835910D01*
X186503569Y-109048110D01*
X186452560Y-109300000D01*
X186452560Y-115700000D01*
X186496838Y-115935317D01*
X186635910Y-116151441D01*
X186848110Y-116296431D01*
X187100000Y-116347440D01*
X189367308Y-116347440D01*
X191362434Y-118342566D01*
X191730654Y-118588603D01*
X192165000Y-118675000D01*
X204438118Y-118675000D01*
X204671079Y-118830660D01*
X205205688Y-118937000D01*
X205946712Y-118937000D01*
X206481321Y-118830660D01*
X206934540Y-118527828D01*
X207237372Y-118074609D01*
X207343712Y-117540000D01*
X207237372Y-117005391D01*
X206934540Y-116552172D01*
X206512241Y-116270000D01*
X206934540Y-115987828D01*
X207237372Y-115534609D01*
X207343712Y-115000000D01*
X207237372Y-114465391D01*
X206934540Y-114012172D01*
X206702309Y-113857000D01*
X206801060Y-113857000D01*
X207034449Y-113760327D01*
X207213077Y-113581698D01*
X207309750Y-113348309D01*
X207309750Y-112745750D01*
X207151000Y-112587000D01*
X205703200Y-112587000D01*
X205703200Y-112607000D01*
X205449200Y-112607000D01*
X205449200Y-112587000D01*
X204001400Y-112587000D01*
X203842650Y-112745750D01*
X203842650Y-113348309D01*
X203939323Y-113581698D01*
X204117951Y-113760327D01*
X204351340Y-113857000D01*
X204450091Y-113857000D01*
X204217860Y-114012172D01*
X203915028Y-114465391D01*
X203808688Y-115000000D01*
X203915028Y-115534609D01*
X204217860Y-115987828D01*
X204640159Y-116270000D01*
X204438118Y-116405000D01*
X192635132Y-116405000D01*
X192577572Y-116347440D01*
X192900000Y-116347440D01*
X193135317Y-116303162D01*
X193351441Y-116164090D01*
X193496431Y-115951890D01*
X193547440Y-115700000D01*
X193547440Y-109300000D01*
X193503162Y-109064683D01*
X193416496Y-108930000D01*
X195807167Y-108930000D01*
X195915441Y-109474329D01*
X196223778Y-109935789D01*
X196619199Y-110200000D01*
X196223778Y-110464211D01*
X195915441Y-110925671D01*
X195807167Y-111470000D01*
X195915441Y-112014329D01*
X196223778Y-112475789D01*
X196619199Y-112740000D01*
X196223778Y-113004211D01*
X195915441Y-113465671D01*
X195807167Y-114010000D01*
X195915441Y-114554329D01*
X196223778Y-115015789D01*
X196685238Y-115324126D01*
X197229567Y-115432400D01*
X198010433Y-115432400D01*
X198554762Y-115324126D01*
X199016222Y-115015789D01*
X199324559Y-114554329D01*
X199432833Y-114010000D01*
X199324559Y-113465671D01*
X199016222Y-113004211D01*
X198620801Y-112740000D01*
X199016222Y-112475789D01*
X199324559Y-112014329D01*
X199412605Y-111571691D01*
X203842650Y-111571691D01*
X203842650Y-112174250D01*
X204001400Y-112333000D01*
X205449200Y-112333000D01*
X205449200Y-111221750D01*
X205703200Y-111221750D01*
X205703200Y-112333000D01*
X207151000Y-112333000D01*
X207309750Y-112174250D01*
X207309750Y-111571691D01*
X207213077Y-111338302D01*
X207034449Y-111159673D01*
X206801060Y-111063000D01*
X205861950Y-111063000D01*
X205703200Y-111221750D01*
X205449200Y-111221750D01*
X205290450Y-111063000D01*
X204351340Y-111063000D01*
X204117951Y-111159673D01*
X203939323Y-111338302D01*
X203842650Y-111571691D01*
X199412605Y-111571691D01*
X199432833Y-111470000D01*
X199324559Y-110925671D01*
X199016222Y-110464211D01*
X198620801Y-110200000D01*
X199016222Y-109935789D01*
X199231855Y-109613070D01*
X203885430Y-109613070D01*
X203900390Y-109687277D01*
X204162020Y-110168026D01*
X204587709Y-110512059D01*
X205112650Y-110667000D01*
X205449200Y-110667000D01*
X205449200Y-109397000D01*
X205703200Y-109397000D01*
X205703200Y-110667000D01*
X206039750Y-110667000D01*
X206564691Y-110512059D01*
X206990380Y-110168026D01*
X207252010Y-109687277D01*
X207266970Y-109613070D01*
X207144470Y-109397000D01*
X205703200Y-109397000D01*
X205449200Y-109397000D01*
X204007930Y-109397000D01*
X203885430Y-109613070D01*
X199231855Y-109613070D01*
X199324559Y-109474329D01*
X199432833Y-108930000D01*
X199324559Y-108385671D01*
X199016222Y-107924211D01*
X198621170Y-107660246D01*
X198637262Y-107655525D01*
X199071191Y-107305986D01*
X199338327Y-106816996D01*
X199355010Y-106737060D01*
X199232852Y-106517000D01*
X197747000Y-106517000D01*
X197747000Y-106537000D01*
X197493000Y-106537000D01*
X197493000Y-106517000D01*
X196007148Y-106517000D01*
X195884990Y-106737060D01*
X195901673Y-106816996D01*
X196168809Y-107305986D01*
X196602738Y-107655525D01*
X196618830Y-107660246D01*
X196223778Y-107924211D01*
X195915441Y-108385671D01*
X195807167Y-108930000D01*
X193416496Y-108930000D01*
X193364090Y-108848559D01*
X193151890Y-108703569D01*
X192900000Y-108652560D01*
X191135000Y-108652560D01*
X191135000Y-107643588D01*
X191141673Y-107659698D01*
X191320301Y-107838327D01*
X191553690Y-107935000D01*
X191994250Y-107935000D01*
X192153000Y-107776250D01*
X192153000Y-106327000D01*
X192407000Y-106327000D01*
X192407000Y-107776250D01*
X192565750Y-107935000D01*
X193006310Y-107935000D01*
X193239699Y-107838327D01*
X193418327Y-107659698D01*
X193515000Y-107426309D01*
X193515000Y-106485750D01*
X193356250Y-106327000D01*
X192407000Y-106327000D01*
X192153000Y-106327000D01*
X192133000Y-106327000D01*
X192133000Y-106073000D01*
X192153000Y-106073000D01*
X192153000Y-104623750D01*
X192407000Y-104623750D01*
X192407000Y-106073000D01*
X193356250Y-106073000D01*
X193515000Y-105914250D01*
X193515000Y-104973691D01*
X193418327Y-104740302D01*
X193239699Y-104561673D01*
X193006310Y-104465000D01*
X192565750Y-104465000D01*
X192407000Y-104623750D01*
X192153000Y-104623750D01*
X191994250Y-104465000D01*
X191553690Y-104465000D01*
X191320301Y-104561673D01*
X191141673Y-104740302D01*
X191134409Y-104757838D01*
X191064090Y-104648559D01*
X190851890Y-104503569D01*
X190600000Y-104452560D01*
X189400000Y-104452560D01*
X189164683Y-104496838D01*
X188948559Y-104635910D01*
X188859667Y-104766008D01*
X188784090Y-104648559D01*
X188595000Y-104519359D01*
X188595000Y-103068235D01*
X188601441Y-103064090D01*
X188746431Y-102851890D01*
X188797440Y-102600000D01*
X188797440Y-101100000D01*
X188753162Y-100864683D01*
X188614090Y-100648559D01*
X188401890Y-100503569D01*
X188388803Y-100500919D01*
X188601441Y-100364090D01*
X188746431Y-100151890D01*
X188797440Y-99900000D01*
X188797440Y-98807692D01*
X190240132Y-97365000D01*
X191000000Y-97365000D01*
X190565655Y-97451397D01*
X190197434Y-97697434D01*
X189951397Y-98065655D01*
X189865000Y-98500000D01*
X189951397Y-98934345D01*
X190197434Y-99302566D01*
X190467434Y-99572566D01*
X190835655Y-99818604D01*
X191270000Y-99905000D01*
X196417156Y-99905000D01*
X196619199Y-100040000D01*
X196223778Y-100304211D01*
X195915441Y-100765671D01*
X195807167Y-101310000D01*
X195915441Y-101854329D01*
X196223778Y-102315789D01*
X196619199Y-102580000D01*
X196223778Y-102844211D01*
X195915441Y-103305671D01*
X195807167Y-103850000D01*
X195915441Y-104394329D01*
X196223778Y-104855789D01*
X196618830Y-105119754D01*
X196602738Y-105124475D01*
X196168809Y-105474014D01*
X195901673Y-105963004D01*
X195884990Y-106042940D01*
X196007148Y-106263000D01*
X197493000Y-106263000D01*
X197493000Y-106243000D01*
X197747000Y-106243000D01*
X197747000Y-106263000D01*
X199232852Y-106263000D01*
X199355010Y-106042940D01*
X199339370Y-105968000D01*
X203830210Y-105968000D01*
X203830210Y-107492000D01*
X203874488Y-107727317D01*
X204013560Y-107943441D01*
X204225760Y-108088431D01*
X204455337Y-108134921D01*
X204162020Y-108371974D01*
X203900390Y-108852723D01*
X203885430Y-108926930D01*
X204007930Y-109143000D01*
X205449200Y-109143000D01*
X205449200Y-109123000D01*
X205703200Y-109123000D01*
X205703200Y-109143000D01*
X207144470Y-109143000D01*
X207266970Y-108926930D01*
X207252010Y-108852723D01*
X206990380Y-108371974D01*
X206697384Y-108135181D01*
X206910067Y-108095162D01*
X207126191Y-107956090D01*
X207271181Y-107743890D01*
X207322190Y-107492000D01*
X207322190Y-105968000D01*
X207277912Y-105732683D01*
X207138840Y-105516559D01*
X206926640Y-105371569D01*
X206674750Y-105320560D01*
X204477650Y-105320560D01*
X204242333Y-105364838D01*
X204026209Y-105503910D01*
X203881219Y-105716110D01*
X203830210Y-105968000D01*
X199339370Y-105968000D01*
X199338327Y-105963004D01*
X199071191Y-105474014D01*
X198637262Y-105124475D01*
X198621170Y-105119754D01*
X199016222Y-104855789D01*
X199324559Y-104394329D01*
X199432833Y-103850000D01*
X199324559Y-103305671D01*
X199016222Y-102844211D01*
X198620801Y-102580000D01*
X199016222Y-102315789D01*
X199324559Y-101854329D01*
X199432833Y-101310000D01*
X199324559Y-100765671D01*
X199016222Y-100304211D01*
X198620801Y-100040000D01*
X199016222Y-99775789D01*
X199324559Y-99314329D01*
X199432833Y-98770000D01*
X199324559Y-98225671D01*
X199016222Y-97764211D01*
X198620801Y-97500000D01*
X199016222Y-97235789D01*
X199324559Y-96774329D01*
X199432833Y-96230000D01*
X199324559Y-95685671D01*
X199016222Y-95224211D01*
X198620801Y-94960000D01*
X199016222Y-94695789D01*
X199324559Y-94234329D01*
X199432833Y-93690000D01*
X199324559Y-93145671D01*
X199016222Y-92684211D01*
X198620801Y-92420000D01*
X199016222Y-92155789D01*
X199324559Y-91694329D01*
X199432833Y-91150000D01*
X199405014Y-91010146D01*
X200865000Y-92470132D01*
X200865000Y-94500000D01*
X200951397Y-94934346D01*
X201145079Y-95224211D01*
X201197434Y-95302566D01*
X202237434Y-96342566D01*
X202605654Y-96588603D01*
X203040000Y-96675000D01*
X204438118Y-96675000D01*
X204640159Y-96810000D01*
X204217860Y-97092172D01*
X203915028Y-97545391D01*
X203808688Y-98080000D01*
X203915028Y-98614609D01*
X204217860Y-99067828D01*
X204640159Y-99350000D01*
X204217860Y-99632172D01*
X203915028Y-100085391D01*
X203808688Y-100620000D01*
X203915028Y-101154609D01*
X204217860Y-101607828D01*
X204640159Y-101890000D01*
X204217860Y-102172172D01*
X203915028Y-102625391D01*
X203808688Y-103160000D01*
X203915028Y-103694609D01*
X204217860Y-104147828D01*
X204671079Y-104450660D01*
X205205688Y-104557000D01*
X205946712Y-104557000D01*
X206481321Y-104450660D01*
X206934540Y-104147828D01*
X207237372Y-103694609D01*
X207343712Y-103160000D01*
X207237372Y-102625391D01*
X206934540Y-102172172D01*
X206512241Y-101890000D01*
X206934540Y-101607828D01*
X207237372Y-101154609D01*
X207343712Y-100620000D01*
X207237372Y-100085391D01*
X206934540Y-99632172D01*
X206512241Y-99350000D01*
X206934540Y-99067828D01*
X207237372Y-98614609D01*
X207343712Y-98080000D01*
X207237372Y-97545391D01*
X206934540Y-97092172D01*
X206512241Y-96810000D01*
X206934540Y-96527828D01*
X207237372Y-96074609D01*
X207343712Y-95540000D01*
X207237372Y-95005391D01*
X206934540Y-94552172D01*
X206512241Y-94270000D01*
X206934540Y-93987828D01*
X207237372Y-93534609D01*
X207343712Y-93000000D01*
X207237372Y-92465391D01*
X206934540Y-92012172D01*
X206512241Y-91730000D01*
X206934540Y-91447828D01*
X207237372Y-90994609D01*
X207343712Y-90460000D01*
X207237372Y-89925391D01*
X206934540Y-89472172D01*
X206512241Y-89190000D01*
X206934540Y-88907828D01*
X207237372Y-88454609D01*
X207343712Y-87920000D01*
X207237372Y-87385391D01*
X206934540Y-86932172D01*
X206512241Y-86650000D01*
X206934540Y-86367828D01*
X207237372Y-85914609D01*
X207343712Y-85380000D01*
X207237372Y-84845391D01*
X206934540Y-84392172D01*
X206710781Y-84242660D01*
X206910067Y-84205162D01*
X207126191Y-84066090D01*
X207271181Y-83853890D01*
X207322190Y-83602000D01*
X207322190Y-82078000D01*
X207277912Y-81842683D01*
X207138840Y-81626559D01*
X206926640Y-81481569D01*
X206674750Y-81430560D01*
X204477650Y-81430560D01*
X204242333Y-81474838D01*
X204026209Y-81613910D01*
X203881219Y-81826110D01*
X203830210Y-82078000D01*
X203830210Y-83602000D01*
X203874488Y-83837317D01*
X204013560Y-84053441D01*
X204225760Y-84198431D01*
X204442213Y-84242264D01*
X204217860Y-84392172D01*
X203915028Y-84845391D01*
X203808688Y-85380000D01*
X203915028Y-85914609D01*
X204217860Y-86367828D01*
X204640159Y-86650000D01*
X204217860Y-86932172D01*
X203915028Y-87385391D01*
X203808688Y-87920000D01*
X203915028Y-88454609D01*
X204217860Y-88907828D01*
X204640159Y-89190000D01*
X204217860Y-89472172D01*
X203915028Y-89925391D01*
X203808688Y-90460000D01*
X203915028Y-90994609D01*
X204217860Y-91447828D01*
X204640159Y-91730000D01*
X204217860Y-92012172D01*
X203915028Y-92465391D01*
X203808688Y-93000000D01*
X203915028Y-93534609D01*
X204217860Y-93987828D01*
X204640159Y-94270000D01*
X204438118Y-94405000D01*
X203510132Y-94405000D01*
X203135000Y-94029868D01*
X203135000Y-92000000D01*
X203048603Y-91565654D01*
X202802566Y-91197434D01*
X199412566Y-87807434D01*
X199214122Y-87674838D01*
X199044346Y-87561397D01*
X198913064Y-87535283D01*
X198620801Y-87340000D01*
X199016222Y-87075789D01*
X199324559Y-86614329D01*
X199432833Y-86070000D01*
X199324559Y-85525671D01*
X199016222Y-85064211D01*
X198620801Y-84800000D01*
X198822844Y-84665000D01*
X199970000Y-84665000D01*
X200404346Y-84578603D01*
X200772566Y-84332566D01*
X203302566Y-81802566D01*
X203548603Y-81434346D01*
X203635000Y-81000000D01*
X203635000Y-80003070D01*
X203885430Y-80003070D01*
X203900390Y-80077277D01*
X204162020Y-80558026D01*
X204587709Y-80902059D01*
X205112650Y-81057000D01*
X205449200Y-81057000D01*
X205449200Y-79787000D01*
X205703200Y-79787000D01*
X205703200Y-81057000D01*
X206039750Y-81057000D01*
X206564691Y-80902059D01*
X206990380Y-80558026D01*
X207252010Y-80077277D01*
X207266970Y-80003070D01*
X207144470Y-79787000D01*
X205703200Y-79787000D01*
X205449200Y-79787000D01*
X204007930Y-79787000D01*
X203885430Y-80003070D01*
X203635000Y-80003070D01*
X203635000Y-74580000D01*
X203808688Y-74580000D01*
X203915028Y-75114609D01*
X204217860Y-75567828D01*
X204640159Y-75850000D01*
X204217860Y-76132172D01*
X203915028Y-76585391D01*
X203808688Y-77120000D01*
X203915028Y-77654609D01*
X204217860Y-78107828D01*
X204653093Y-78398642D01*
X204587709Y-78417941D01*
X204162020Y-78761974D01*
X203900390Y-79242723D01*
X203885430Y-79316930D01*
X204007930Y-79533000D01*
X205449200Y-79533000D01*
X205449200Y-79513000D01*
X205703200Y-79513000D01*
X205703200Y-79533000D01*
X207144470Y-79533000D01*
X207266970Y-79316930D01*
X207252010Y-79242723D01*
X206990380Y-78761974D01*
X206564691Y-78417941D01*
X206499307Y-78398642D01*
X206934540Y-78107828D01*
X207237372Y-77654609D01*
X207343712Y-77120000D01*
X207237372Y-76585391D01*
X206934540Y-76132172D01*
X206512241Y-75850000D01*
X206934540Y-75567828D01*
X207237372Y-75114609D01*
X207343712Y-74580000D01*
X207237372Y-74045391D01*
X206934540Y-73592172D01*
X206499307Y-73301358D01*
X206564691Y-73282059D01*
X206990380Y-72938026D01*
X207252010Y-72457277D01*
X207266970Y-72383070D01*
X207144470Y-72167000D01*
X205703200Y-72167000D01*
X205703200Y-72187000D01*
X205449200Y-72187000D01*
X205449200Y-72167000D01*
X204007930Y-72167000D01*
X203885430Y-72383070D01*
X203900390Y-72457277D01*
X204162020Y-72938026D01*
X204587709Y-73282059D01*
X204653093Y-73301358D01*
X204217860Y-73592172D01*
X203915028Y-74045391D01*
X203808688Y-74580000D01*
X203635000Y-74580000D01*
X203635000Y-68470132D01*
X204010132Y-68095000D01*
X204438118Y-68095000D01*
X204640159Y-68230000D01*
X204217860Y-68512172D01*
X203915028Y-68965391D01*
X203808688Y-69500000D01*
X203915028Y-70034609D01*
X204217860Y-70487828D01*
X204653093Y-70778642D01*
X204587709Y-70797941D01*
X204162020Y-71141974D01*
X203900390Y-71622723D01*
X203885430Y-71696930D01*
X204007930Y-71913000D01*
X205449200Y-71913000D01*
X205449200Y-71893000D01*
X205703200Y-71893000D01*
X205703200Y-71913000D01*
X207144470Y-71913000D01*
X207266970Y-71696930D01*
X207252010Y-71622723D01*
X206990380Y-71141974D01*
X206564691Y-70797941D01*
X206499307Y-70778642D01*
X206934540Y-70487828D01*
X207237372Y-70034609D01*
X207343712Y-69500000D01*
X207237372Y-68965391D01*
X206934540Y-68512172D01*
X206512241Y-68230000D01*
X206934540Y-67947828D01*
X207237372Y-67494609D01*
X207343712Y-66960000D01*
X207237372Y-66425391D01*
X206934540Y-65972172D01*
X206512241Y-65690000D01*
X206934540Y-65407828D01*
X207237372Y-64954609D01*
X207343712Y-64420000D01*
X207237372Y-63885391D01*
X206934540Y-63432172D01*
X206512241Y-63150000D01*
X206934540Y-62867828D01*
X207237372Y-62414609D01*
X207343712Y-61880000D01*
X207237372Y-61345391D01*
X206934540Y-60892172D01*
X206702309Y-60737000D01*
X206801060Y-60737000D01*
X207034449Y-60640327D01*
X207213077Y-60461698D01*
X207309750Y-60228309D01*
X207309750Y-59625750D01*
X207151000Y-59467000D01*
X205703200Y-59467000D01*
X205703200Y-59487000D01*
X205449200Y-59487000D01*
X205449200Y-59467000D01*
X204001400Y-59467000D01*
X203842650Y-59625750D01*
X203842650Y-60228309D01*
X203939323Y-60461698D01*
X204117951Y-60640327D01*
X204351340Y-60737000D01*
X204450091Y-60737000D01*
X204217860Y-60892172D01*
X203915028Y-61345391D01*
X203808688Y-61880000D01*
X203915028Y-62414609D01*
X204217860Y-62867828D01*
X204640159Y-63150000D01*
X204217860Y-63432172D01*
X203915028Y-63885391D01*
X203808688Y-64420000D01*
X203915028Y-64954609D01*
X204217860Y-65407828D01*
X204640159Y-65690000D01*
X204438118Y-65825000D01*
X203540000Y-65825000D01*
X203105654Y-65911397D01*
X202771251Y-66134838D01*
X202737434Y-66157434D01*
X201697434Y-67197434D01*
X201451397Y-67565654D01*
X201365000Y-68000000D01*
X201365000Y-80529868D01*
X199499868Y-82395000D01*
X198822844Y-82395000D01*
X198620801Y-82260000D01*
X199016222Y-81995789D01*
X199324559Y-81534329D01*
X199432833Y-80990000D01*
X199324559Y-80445671D01*
X199016222Y-79984211D01*
X198620801Y-79720000D01*
X199016222Y-79455789D01*
X199324559Y-78994329D01*
X199432833Y-78450000D01*
X199324559Y-77905671D01*
X199016222Y-77444211D01*
X198554762Y-77135874D01*
X198010433Y-77027600D01*
X197229567Y-77027600D01*
X196685238Y-77135874D01*
X196223778Y-77444211D01*
X195915441Y-77905671D01*
X195807167Y-78450000D01*
X195915441Y-78994329D01*
X196223778Y-79455789D01*
X196619199Y-79720000D01*
X196223778Y-79984211D01*
X195915441Y-80445671D01*
X195807167Y-80990000D01*
X195915441Y-81534329D01*
X196223778Y-81995789D01*
X196619199Y-82260000D01*
X196223778Y-82524211D01*
X195915441Y-82985671D01*
X195807167Y-83530000D01*
X195915441Y-84074329D01*
X196223778Y-84535789D01*
X196619199Y-84800000D01*
X196223778Y-85064211D01*
X195915441Y-85525671D01*
X195807167Y-86070000D01*
X195915441Y-86614329D01*
X196223778Y-87075789D01*
X196619199Y-87340000D01*
X196223778Y-87604211D01*
X195915441Y-88065671D01*
X195807167Y-88610000D01*
X195915441Y-89154329D01*
X196223778Y-89615789D01*
X196619199Y-89880000D01*
X196223778Y-90144211D01*
X195915441Y-90605671D01*
X195807167Y-91150000D01*
X195915441Y-91694329D01*
X196223778Y-92155789D01*
X196619199Y-92420000D01*
X196223778Y-92684211D01*
X195915441Y-93145671D01*
X195807167Y-93690000D01*
X195915441Y-94234329D01*
X196223778Y-94695789D01*
X196619199Y-94960000D01*
X196417156Y-95095000D01*
X189770000Y-95095000D01*
X189335654Y-95181397D01*
X189228493Y-95253000D01*
X188967434Y-95427434D01*
X186697434Y-97697434D01*
X186633363Y-97793323D01*
X186614683Y-97796838D01*
X186398559Y-97935910D01*
X186253569Y-98148110D01*
X186202560Y-98400000D01*
X184119236Y-98400000D01*
X184084559Y-98225671D01*
X183776222Y-97764211D01*
X183380801Y-97500000D01*
X183776222Y-97235789D01*
X184084559Y-96774329D01*
X184192833Y-96230000D01*
X184084559Y-95685671D01*
X183776222Y-95224211D01*
X183380801Y-94960000D01*
X183776222Y-94695789D01*
X184084559Y-94234329D01*
X184192833Y-93690000D01*
X184084559Y-93145671D01*
X183776222Y-92684211D01*
X183380801Y-92420000D01*
X183776222Y-92155789D01*
X184084559Y-91694329D01*
X184192833Y-91150000D01*
X184084559Y-90605671D01*
X183776222Y-90144211D01*
X183380801Y-89880000D01*
X183776222Y-89615789D01*
X184084559Y-89154329D01*
X184192833Y-88610000D01*
X184084559Y-88065671D01*
X183776222Y-87604211D01*
X183380801Y-87340000D01*
X183776222Y-87075789D01*
X184084559Y-86614329D01*
X184192833Y-86070000D01*
X184084559Y-85525671D01*
X183776222Y-85064211D01*
X183380801Y-84800000D01*
X183776222Y-84535789D01*
X184084559Y-84074329D01*
X184192833Y-83530000D01*
X184084559Y-82985671D01*
X183776222Y-82524211D01*
X183380801Y-82260000D01*
X183776222Y-81995789D01*
X184084559Y-81534329D01*
X184192833Y-80990000D01*
X184084559Y-80445671D01*
X183776222Y-79984211D01*
X183604540Y-79869497D01*
X183758317Y-79840562D01*
X183974441Y-79701490D01*
X184119431Y-79489290D01*
X184170440Y-79237400D01*
X184170440Y-77662600D01*
X184126162Y-77427283D01*
X183987090Y-77211159D01*
X183774890Y-77066169D01*
X183523000Y-77015160D01*
X181360093Y-77015160D01*
X181339556Y-76984424D01*
X180552566Y-76197434D01*
X180184345Y-75951397D01*
X179750000Y-75865000D01*
X179535000Y-75907766D01*
X179535000Y-68284187D01*
X187364752Y-68284187D01*
X187582757Y-68811800D01*
X187986077Y-69215824D01*
X188513309Y-69434750D01*
X189084187Y-69435248D01*
X189611800Y-69217243D01*
X190015824Y-68813923D01*
X190234750Y-68286691D01*
X190235248Y-67715813D01*
X190022119Y-67200000D01*
X190552560Y-67200000D01*
X190552560Y-68800000D01*
X190596838Y-69035317D01*
X190735910Y-69251441D01*
X190948110Y-69396431D01*
X191200000Y-69447440D01*
X192800000Y-69447440D01*
X193035317Y-69403162D01*
X193251441Y-69264090D01*
X193396431Y-69051890D01*
X193447440Y-68800000D01*
X193447440Y-67200000D01*
X193403162Y-66964683D01*
X193264090Y-66748559D01*
X193051890Y-66603569D01*
X192800000Y-66552560D01*
X191200000Y-66552560D01*
X190964683Y-66596838D01*
X190748559Y-66735910D01*
X190603569Y-66948110D01*
X190552560Y-67200000D01*
X190022119Y-67200000D01*
X190017243Y-67188200D01*
X189613923Y-66784176D01*
X189086691Y-66565250D01*
X188515813Y-66564752D01*
X187988200Y-66782757D01*
X187584176Y-67186077D01*
X187365250Y-67713309D01*
X187364752Y-68284187D01*
X179535000Y-68284187D01*
X179535000Y-61940000D01*
X179523065Y-61880000D01*
X179448604Y-61505655D01*
X179202567Y-61137434D01*
X177928928Y-59863795D01*
X179444716Y-59863795D01*
X179693106Y-60464943D01*
X180152637Y-60925278D01*
X180753352Y-61174716D01*
X181403795Y-61175284D01*
X182004943Y-60926894D01*
X182465278Y-60467363D01*
X182714716Y-59866648D01*
X182715284Y-59216205D01*
X182466894Y-58615057D01*
X182303814Y-58451691D01*
X203842650Y-58451691D01*
X203842650Y-59054250D01*
X204001400Y-59213000D01*
X205449200Y-59213000D01*
X205449200Y-58101750D01*
X205703200Y-58101750D01*
X205703200Y-59213000D01*
X207151000Y-59213000D01*
X207309750Y-59054250D01*
X207309750Y-58451691D01*
X207213077Y-58218302D01*
X207034449Y-58039673D01*
X206801060Y-57943000D01*
X205861950Y-57943000D01*
X205703200Y-58101750D01*
X205449200Y-58101750D01*
X205290450Y-57943000D01*
X204351340Y-57943000D01*
X204117951Y-58039673D01*
X203939323Y-58218302D01*
X203842650Y-58451691D01*
X182303814Y-58451691D01*
X182007363Y-58154722D01*
X181406648Y-57905284D01*
X180756205Y-57904716D01*
X180155057Y-58153106D01*
X179694722Y-58612637D01*
X179445284Y-59213352D01*
X179444716Y-59863795D01*
X177928928Y-59863795D01*
X177634975Y-59569843D01*
X177635284Y-59216205D01*
X177386894Y-58615057D01*
X177135000Y-58362722D01*
X177135000Y-55637204D01*
X177385278Y-55387363D01*
X177634716Y-54786648D01*
X177634718Y-54783795D01*
X179444716Y-54783795D01*
X179693106Y-55384943D01*
X180152637Y-55845278D01*
X180753352Y-56094716D01*
X181403795Y-56095284D01*
X182004943Y-55846894D01*
X182465278Y-55387363D01*
X182714716Y-54786648D01*
X182715284Y-54136205D01*
X182466894Y-53535057D01*
X182007363Y-53074722D01*
X181406648Y-52825284D01*
X180756205Y-52824716D01*
X180155057Y-53073106D01*
X179694722Y-53532637D01*
X179445284Y-54133352D01*
X179444716Y-54783795D01*
X177634718Y-54783795D01*
X177635284Y-54136205D01*
X177386894Y-53535057D01*
X176927363Y-53074722D01*
X176326648Y-52825284D01*
X175676205Y-52824716D01*
X175075057Y-53073106D01*
X174729801Y-53417759D01*
X174387363Y-53074722D01*
X173786648Y-52825284D01*
X173136205Y-52824716D01*
X172535057Y-53073106D01*
X172189801Y-53417759D01*
X171847363Y-53074722D01*
X171246648Y-52825284D01*
X170596205Y-52824716D01*
X169995057Y-53073106D01*
X169534722Y-53532637D01*
X169285284Y-54133352D01*
X169284716Y-54783795D01*
X169533106Y-55384943D01*
X169992637Y-55845278D01*
X170593352Y-56094716D01*
X171243795Y-56095284D01*
X171844943Y-55846894D01*
X172075000Y-55617239D01*
X172075000Y-58382757D01*
X171847363Y-58154722D01*
X171246648Y-57905284D01*
X170596205Y-57904716D01*
X169995057Y-58153106D01*
X169534722Y-58612637D01*
X169285284Y-59213352D01*
X169284716Y-59863795D01*
X169533106Y-60464943D01*
X169992637Y-60925278D01*
X170593352Y-61174716D01*
X171243795Y-61175284D01*
X171844943Y-60926894D01*
X172075000Y-60697239D01*
X172075000Y-70678664D01*
X166948664Y-75805000D01*
X166031950Y-75805000D01*
X166282140Y-75637828D01*
X166584972Y-75184609D01*
X166691312Y-74650000D01*
X166584972Y-74115391D01*
X166282140Y-73662172D01*
X165828921Y-73359340D01*
X165294312Y-73253000D01*
X164553288Y-73253000D01*
X164018679Y-73359340D01*
X163565460Y-73662172D01*
X163262628Y-74115391D01*
X163156288Y-74650000D01*
X160710000Y-74650000D01*
X160710000Y-42957312D01*
X162222293Y-42957312D01*
X162625762Y-43483924D01*
X164139730Y-44127307D01*
X165784666Y-44142346D01*
X167310145Y-43526750D01*
X167374238Y-43483924D01*
X167777707Y-42957312D01*
X202222293Y-42957312D01*
X202625762Y-43483924D01*
X204139730Y-44127307D01*
X205784666Y-44142346D01*
X207310145Y-43526750D01*
X207374238Y-43483924D01*
X207777707Y-42957312D01*
X205000000Y-40179605D01*
X202222293Y-42957312D01*
X167777707Y-42957312D01*
X165000000Y-40179605D01*
X162222293Y-42957312D01*
X160710000Y-42957312D01*
X160710000Y-40784666D01*
X160857654Y-40784666D01*
X161473250Y-42310145D01*
X161516076Y-42374238D01*
X162042688Y-42777707D01*
X164820395Y-40000000D01*
X165179605Y-40000000D01*
X167957312Y-42777707D01*
X168483924Y-42374238D01*
X169127307Y-40860270D01*
X169127998Y-40784666D01*
X200857654Y-40784666D01*
X201473250Y-42310145D01*
X201516076Y-42374238D01*
X202042688Y-42777707D01*
X204820395Y-40000000D01*
X205179605Y-40000000D01*
X207957312Y-42777707D01*
X208483924Y-42374238D01*
X209127307Y-40860270D01*
X209142346Y-39215334D01*
X208526750Y-37689855D01*
X208483924Y-37625762D01*
X207957312Y-37222293D01*
X205179605Y-40000000D01*
X204820395Y-40000000D01*
X202042688Y-37222293D01*
X201516076Y-37625762D01*
X200872693Y-39139730D01*
X200857654Y-40784666D01*
X169127998Y-40784666D01*
X169142346Y-39215334D01*
X168526750Y-37689855D01*
X168483924Y-37625762D01*
X167957312Y-37222293D01*
X165179605Y-40000000D01*
X164820395Y-40000000D01*
X162042688Y-37222293D01*
X161516076Y-37625762D01*
X160872693Y-39139730D01*
X160857654Y-40784666D01*
X160710000Y-40784666D01*
X160710000Y-37042688D01*
X162222293Y-37042688D01*
X165000000Y-39820395D01*
X167777707Y-37042688D01*
X202222293Y-37042688D01*
X205000000Y-39820395D01*
X207777707Y-37042688D01*
X207374238Y-36516076D01*
X205860270Y-35872693D01*
X204215334Y-35857654D01*
X202689855Y-36473250D01*
X202625762Y-36516076D01*
X202222293Y-37042688D01*
X167777707Y-37042688D01*
X167374238Y-36516076D01*
X165860270Y-35872693D01*
X164215334Y-35857654D01*
X162689855Y-36473250D01*
X162625762Y-36516076D01*
X162222293Y-37042688D01*
X160710000Y-37042688D01*
X160710000Y-35710000D01*
X209290000Y-35710000D01*
X209290000Y-134290000D01*
G36*
X175072637Y-60925278D02*
X175673352Y-61174716D01*
X176029895Y-61175027D01*
X177265000Y-62410133D01*
X177265000Y-78800000D01*
X177351397Y-79234346D01*
X177597434Y-79602566D01*
X178201979Y-80207111D01*
X178201979Y-105592889D01*
X175579868Y-108215000D01*
X170390132Y-108215000D01*
X176002566Y-102602566D01*
X176047128Y-102535874D01*
X176248603Y-102234346D01*
X176335000Y-101800000D01*
X176335000Y-64200000D01*
X176248603Y-63765654D01*
X176002566Y-63397434D01*
X175634346Y-63151397D01*
X175200000Y-63065000D01*
X174845000Y-63135614D01*
X174845000Y-60697243D01*
X175072637Y-60925278D01*
X175072637Y-60925278D01*
G37*
X175072637Y-60925278D02*
X175673352Y-61174716D01*
X176029895Y-61175027D01*
X177265000Y-62410133D01*
X177265000Y-78800000D01*
X177351397Y-79234346D01*
X177597434Y-79602566D01*
X178201979Y-80207111D01*
X178201979Y-105592889D01*
X175579868Y-108215000D01*
X170390132Y-108215000D01*
X176002566Y-102602566D01*
X176047128Y-102535874D01*
X176248603Y-102234346D01*
X176335000Y-101800000D01*
X176335000Y-64200000D01*
X176248603Y-63765654D01*
X176002566Y-63397434D01*
X175634346Y-63151397D01*
X175200000Y-63065000D01*
X174845000Y-63135614D01*
X174845000Y-60697243D01*
X175072637Y-60925278D01*
M02*
