G04 #@! TF.GenerationSoftware,KiCad,Pcbnew,(5.1.5)-3*
G04 #@! TF.CreationDate,2020-05-10T11:41:14+02:00*
G04 #@! TF.ProjectId,Mentor,4d656e74-6f72-42e6-9b69-6361645f7063,rev?*
G04 #@! TF.SameCoordinates,Original*
G04 #@! TF.FileFunction,Soldermask,Bot*
G04 #@! TF.FilePolarity,Negative*
%FSLAX46Y46*%
G04 Gerber Fmt 4.6, Leading zero omitted, Abs format (unit mm)*
G04 Created by KiCad (PCBNEW (5.1.5)-3) date 2020-05-10 11:41:14*
%MOMM*%
%LPD*%
G04 APERTURE LIST*
%ADD10C,0.150000*%
%ADD11C,0.100000*%
G04 APERTURE END LIST*
D10*
X92000000Y-26000000D02*
X92000000Y-126000000D01*
X42000000Y-126000000D02*
X42000000Y-26000000D01*
X42000000Y-26000000D02*
X92000000Y-26000000D01*
X42000000Y-126000000D02*
X92000000Y-126000000D01*
D11*
G36*
X88079249Y-117442188D02*
G01*
X88752606Y-117721101D01*
X88752607Y-117721102D01*
X89358613Y-118126022D01*
X89873978Y-118641387D01*
X90144537Y-119046308D01*
X90278899Y-119247394D01*
X90557812Y-119920751D01*
X90700000Y-120635580D01*
X90700000Y-121364420D01*
X90557812Y-122079249D01*
X90278899Y-122752606D01*
X90278898Y-122752607D01*
X89873978Y-123358613D01*
X89358613Y-123873978D01*
X88953692Y-124144537D01*
X88752606Y-124278899D01*
X88079249Y-124557812D01*
X87364420Y-124700000D01*
X86635580Y-124700000D01*
X85920751Y-124557812D01*
X85247394Y-124278899D01*
X85046308Y-124144537D01*
X84641387Y-123873978D01*
X84126022Y-123358613D01*
X83721102Y-122752607D01*
X83721101Y-122752606D01*
X83442188Y-122079249D01*
X83300000Y-121364420D01*
X83300000Y-120635580D01*
X83442188Y-119920751D01*
X83721101Y-119247394D01*
X83855463Y-119046308D01*
X84126022Y-118641387D01*
X84641387Y-118126022D01*
X85247393Y-117721102D01*
X85247394Y-117721101D01*
X85920751Y-117442188D01*
X86635580Y-117300000D01*
X87364420Y-117300000D01*
X88079249Y-117442188D01*
G37*
G36*
X48079249Y-117442188D02*
G01*
X48752606Y-117721101D01*
X48752607Y-117721102D01*
X49358613Y-118126022D01*
X49873978Y-118641387D01*
X50144537Y-119046308D01*
X50278899Y-119247394D01*
X50557812Y-119920751D01*
X50700000Y-120635580D01*
X50700000Y-121364420D01*
X50557812Y-122079249D01*
X50278899Y-122752606D01*
X50278898Y-122752607D01*
X49873978Y-123358613D01*
X49358613Y-123873978D01*
X48953692Y-124144537D01*
X48752606Y-124278899D01*
X48079249Y-124557812D01*
X47364420Y-124700000D01*
X46635580Y-124700000D01*
X45920751Y-124557812D01*
X45247394Y-124278899D01*
X45046308Y-124144537D01*
X44641387Y-123873978D01*
X44126022Y-123358613D01*
X43721102Y-122752607D01*
X43721101Y-122752606D01*
X43442188Y-122079249D01*
X43300000Y-121364420D01*
X43300000Y-120635580D01*
X43442188Y-119920751D01*
X43721101Y-119247394D01*
X43855463Y-119046308D01*
X44126022Y-118641387D01*
X44641387Y-118126022D01*
X45247393Y-117721102D01*
X45247394Y-117721101D01*
X45920751Y-117442188D01*
X46635580Y-117300000D01*
X47364420Y-117300000D01*
X48079249Y-117442188D01*
G37*
G36*
X48022350Y-115432000D02*
G01*
X45425250Y-115432000D01*
X45425250Y-113508000D01*
X48022350Y-113508000D01*
X48022350Y-115432000D01*
G37*
G36*
X47248933Y-110981919D02*
G01*
X47430275Y-111036929D01*
X47597393Y-111126256D01*
X47743878Y-111246472D01*
X47864094Y-111392957D01*
X47953421Y-111560075D01*
X48008431Y-111741417D01*
X48027004Y-111930000D01*
X48008431Y-112118583D01*
X47953421Y-112299925D01*
X47864094Y-112467043D01*
X47743878Y-112613528D01*
X47597393Y-112733744D01*
X47430275Y-112823071D01*
X47248933Y-112878081D01*
X47107607Y-112892000D01*
X46339993Y-112892000D01*
X46198667Y-112878081D01*
X46017325Y-112823071D01*
X45850207Y-112733744D01*
X45703722Y-112613528D01*
X45583506Y-112467043D01*
X45494179Y-112299925D01*
X45439169Y-112118583D01*
X45420596Y-111930000D01*
X45439169Y-111741417D01*
X45494179Y-111560075D01*
X45583506Y-111392957D01*
X45703722Y-111246472D01*
X45850207Y-111126256D01*
X46017325Y-111036929D01*
X46198667Y-110981919D01*
X46339993Y-110968000D01*
X47107607Y-110968000D01*
X47248933Y-110981919D01*
G37*
G36*
X87901333Y-109791919D02*
G01*
X88082675Y-109846929D01*
X88249793Y-109936256D01*
X88396278Y-110056472D01*
X88516494Y-110202957D01*
X88605821Y-110370075D01*
X88660831Y-110551417D01*
X88679404Y-110740000D01*
X88660831Y-110928583D01*
X88605821Y-111109925D01*
X88516494Y-111277043D01*
X88396278Y-111423528D01*
X88249793Y-111543744D01*
X88082675Y-111633071D01*
X87901333Y-111688081D01*
X87760007Y-111702000D01*
X86992393Y-111702000D01*
X86851067Y-111688081D01*
X86669725Y-111633071D01*
X86502607Y-111543744D01*
X86356122Y-111423528D01*
X86235906Y-111277043D01*
X86146579Y-111109925D01*
X86091569Y-110928583D01*
X86072996Y-110740000D01*
X86091569Y-110551417D01*
X86146579Y-110370075D01*
X86235906Y-110202957D01*
X86356122Y-110056472D01*
X86502607Y-109936256D01*
X86669725Y-109846929D01*
X86851067Y-109791919D01*
X86992393Y-109778000D01*
X87760007Y-109778000D01*
X87901333Y-109791919D01*
G37*
G36*
X87901333Y-107251919D02*
G01*
X88082675Y-107306929D01*
X88249793Y-107396256D01*
X88396278Y-107516472D01*
X88516494Y-107662957D01*
X88605821Y-107830075D01*
X88660831Y-108011417D01*
X88679404Y-108200000D01*
X88660831Y-108388583D01*
X88605821Y-108569925D01*
X88516494Y-108737043D01*
X88396278Y-108883528D01*
X88249793Y-109003744D01*
X88082675Y-109093071D01*
X87901333Y-109148081D01*
X87760007Y-109162000D01*
X86992393Y-109162000D01*
X86851067Y-109148081D01*
X86669725Y-109093071D01*
X86502607Y-109003744D01*
X86356122Y-108883528D01*
X86235906Y-108737043D01*
X86146579Y-108569925D01*
X86091569Y-108388583D01*
X86072996Y-108200000D01*
X86091569Y-108011417D01*
X86146579Y-107830075D01*
X86235906Y-107662957D01*
X86356122Y-107516472D01*
X86502607Y-107396256D01*
X86669725Y-107306929D01*
X86851067Y-107251919D01*
X86992393Y-107238000D01*
X87760007Y-107238000D01*
X87901333Y-107251919D01*
G37*
G36*
X74900000Y-109100000D02*
G01*
X68700000Y-109100000D01*
X68700000Y-102300000D01*
X74900000Y-102300000D01*
X74900000Y-109100000D01*
G37*
G36*
X48022350Y-108592000D02*
G01*
X45425250Y-108592000D01*
X45425250Y-106668000D01*
X48022350Y-106668000D01*
X48022350Y-108592000D01*
G37*
G36*
X52985529Y-106705710D02*
G01*
X53035378Y-106720831D01*
X53081310Y-106745382D01*
X53121574Y-106778426D01*
X53154618Y-106818690D01*
X53179169Y-106864622D01*
X53194290Y-106914471D01*
X53200000Y-106972444D01*
X53200000Y-108227556D01*
X53194290Y-108285529D01*
X53179169Y-108335378D01*
X53154618Y-108381310D01*
X53121574Y-108421574D01*
X53081310Y-108454618D01*
X53035378Y-108479169D01*
X52985529Y-108494290D01*
X52927556Y-108500000D01*
X51922444Y-108500000D01*
X51864471Y-108494290D01*
X51814622Y-108479169D01*
X51768690Y-108454618D01*
X51728426Y-108421574D01*
X51695382Y-108381310D01*
X51670831Y-108335378D01*
X51655710Y-108285529D01*
X51650000Y-108227556D01*
X51650000Y-106972444D01*
X51655710Y-106914471D01*
X51670831Y-106864622D01*
X51695382Y-106818690D01*
X51728426Y-106778426D01*
X51768690Y-106745382D01*
X51814622Y-106720831D01*
X51864471Y-106705710D01*
X51922444Y-106700000D01*
X52927556Y-106700000D01*
X52985529Y-106705710D01*
G37*
G36*
X50935529Y-106705710D02*
G01*
X50985378Y-106720831D01*
X51031310Y-106745382D01*
X51071574Y-106778426D01*
X51104618Y-106818690D01*
X51129169Y-106864622D01*
X51144290Y-106914471D01*
X51150000Y-106972444D01*
X51150000Y-108227556D01*
X51144290Y-108285529D01*
X51129169Y-108335378D01*
X51104618Y-108381310D01*
X51071574Y-108421574D01*
X51031310Y-108454618D01*
X50985378Y-108479169D01*
X50935529Y-108494290D01*
X50877556Y-108500000D01*
X49872444Y-108500000D01*
X49814471Y-108494290D01*
X49764622Y-108479169D01*
X49718690Y-108454618D01*
X49678426Y-108421574D01*
X49645382Y-108381310D01*
X49620831Y-108335378D01*
X49605710Y-108285529D01*
X49600000Y-108227556D01*
X49600000Y-106972444D01*
X49605710Y-106914471D01*
X49620831Y-106864622D01*
X49645382Y-106818690D01*
X49678426Y-106778426D01*
X49718690Y-106745382D01*
X49764622Y-106720831D01*
X49814471Y-106705710D01*
X49872444Y-106700000D01*
X50877556Y-106700000D01*
X50935529Y-106705710D01*
G37*
G36*
X79872457Y-106227362D02*
G01*
X79969164Y-106236887D01*
X80155290Y-106293348D01*
X80155292Y-106293349D01*
X80326823Y-106385034D01*
X80477176Y-106508424D01*
X80600566Y-106658777D01*
X80675352Y-106798692D01*
X80692252Y-106830310D01*
X80748713Y-107016436D01*
X80767777Y-107210000D01*
X80748713Y-107403564D01*
X80692252Y-107589690D01*
X80692251Y-107589692D01*
X80600566Y-107761223D01*
X80477176Y-107911576D01*
X80326823Y-108034966D01*
X80155292Y-108126651D01*
X80155290Y-108126652D01*
X79969164Y-108183113D01*
X79872457Y-108192638D01*
X79824104Y-108197400D01*
X79015896Y-108197400D01*
X78967543Y-108192638D01*
X78870836Y-108183113D01*
X78684710Y-108126652D01*
X78684708Y-108126651D01*
X78513177Y-108034966D01*
X78362824Y-107911576D01*
X78239434Y-107761223D01*
X78147749Y-107589692D01*
X78147748Y-107589690D01*
X78091287Y-107403564D01*
X78072223Y-107210000D01*
X78091287Y-107016436D01*
X78147748Y-106830310D01*
X78164648Y-106798692D01*
X78239434Y-106658777D01*
X78362824Y-106508424D01*
X78513177Y-106385034D01*
X78684708Y-106293349D01*
X78684710Y-106293348D01*
X78870836Y-106236887D01*
X78967543Y-106227362D01*
X79015896Y-106222600D01*
X79824104Y-106222600D01*
X79872457Y-106227362D01*
G37*
G36*
X64632457Y-106227362D02*
G01*
X64729164Y-106236887D01*
X64915290Y-106293348D01*
X64915292Y-106293349D01*
X65086823Y-106385034D01*
X65237176Y-106508424D01*
X65360566Y-106658777D01*
X65435352Y-106798692D01*
X65452252Y-106830310D01*
X65508713Y-107016436D01*
X65527777Y-107210000D01*
X65508713Y-107403564D01*
X65452252Y-107589690D01*
X65452251Y-107589692D01*
X65360566Y-107761223D01*
X65237176Y-107911576D01*
X65086823Y-108034966D01*
X64915292Y-108126651D01*
X64915290Y-108126652D01*
X64729164Y-108183113D01*
X64632457Y-108192638D01*
X64584104Y-108197400D01*
X63775896Y-108197400D01*
X63727543Y-108192638D01*
X63630836Y-108183113D01*
X63444710Y-108126652D01*
X63444708Y-108126651D01*
X63273177Y-108034966D01*
X63122824Y-107911576D01*
X62999434Y-107761223D01*
X62907749Y-107589692D01*
X62907748Y-107589690D01*
X62851287Y-107403564D01*
X62832223Y-107210000D01*
X62851287Y-107016436D01*
X62907748Y-106830310D01*
X62924648Y-106798692D01*
X62999434Y-106658777D01*
X63122824Y-106508424D01*
X63273177Y-106385034D01*
X63444708Y-106293349D01*
X63444710Y-106293348D01*
X63630836Y-106236887D01*
X63727543Y-106227362D01*
X63775896Y-106222600D01*
X64584104Y-106222600D01*
X64632457Y-106227362D01*
G37*
G36*
X88674750Y-106622000D02*
G01*
X86077650Y-106622000D01*
X86077650Y-104698000D01*
X88674750Y-104698000D01*
X88674750Y-106622000D01*
G37*
G36*
X47248933Y-104141919D02*
G01*
X47430275Y-104196929D01*
X47597393Y-104286256D01*
X47743878Y-104406472D01*
X47864094Y-104552957D01*
X47953421Y-104720075D01*
X48008431Y-104901417D01*
X48027004Y-105090000D01*
X48008431Y-105278583D01*
X47953421Y-105459925D01*
X47864094Y-105627043D01*
X47743878Y-105773528D01*
X47597393Y-105893744D01*
X47430275Y-105983071D01*
X47248933Y-106038081D01*
X47107607Y-106052000D01*
X46339993Y-106052000D01*
X46198667Y-106038081D01*
X46017325Y-105983071D01*
X45850207Y-105893744D01*
X45703722Y-105773528D01*
X45583506Y-105627043D01*
X45494179Y-105459925D01*
X45439169Y-105278583D01*
X45420596Y-105090000D01*
X45439169Y-104901417D01*
X45494179Y-104720075D01*
X45583506Y-104552957D01*
X45703722Y-104406472D01*
X45850207Y-104286256D01*
X46017325Y-104196929D01*
X46198667Y-104141919D01*
X46339993Y-104128000D01*
X47107607Y-104128000D01*
X47248933Y-104141919D01*
G37*
G36*
X64632457Y-103687362D02*
G01*
X64729164Y-103696887D01*
X64915290Y-103753348D01*
X64915292Y-103753349D01*
X65086823Y-103845034D01*
X65237176Y-103968424D01*
X65360566Y-104118777D01*
X65372936Y-104141920D01*
X65452252Y-104290310D01*
X65508713Y-104476436D01*
X65527777Y-104670000D01*
X65508713Y-104863564D01*
X65497230Y-104901417D01*
X65452251Y-105049692D01*
X65360566Y-105221223D01*
X65237176Y-105371576D01*
X65086823Y-105494966D01*
X64915292Y-105586651D01*
X64915290Y-105586652D01*
X64729164Y-105643113D01*
X64632457Y-105652638D01*
X64584104Y-105657400D01*
X63775896Y-105657400D01*
X63727543Y-105652638D01*
X63630836Y-105643113D01*
X63444710Y-105586652D01*
X63444708Y-105586651D01*
X63273177Y-105494966D01*
X63122824Y-105371576D01*
X62999434Y-105221223D01*
X62907749Y-105049692D01*
X62862770Y-104901417D01*
X62851287Y-104863564D01*
X62832223Y-104670000D01*
X62851287Y-104476436D01*
X62907748Y-104290310D01*
X62987064Y-104141920D01*
X62999434Y-104118777D01*
X63122824Y-103968424D01*
X63273177Y-103845034D01*
X63444708Y-103753349D01*
X63444710Y-103753348D01*
X63630836Y-103696887D01*
X63727543Y-103687362D01*
X63775896Y-103682600D01*
X64584104Y-103682600D01*
X64632457Y-103687362D01*
G37*
G36*
X79872457Y-103687362D02*
G01*
X79969164Y-103696887D01*
X80155290Y-103753348D01*
X80155292Y-103753349D01*
X80326823Y-103845034D01*
X80477176Y-103968424D01*
X80600566Y-104118777D01*
X80612936Y-104141920D01*
X80692252Y-104290310D01*
X80748713Y-104476436D01*
X80767777Y-104670000D01*
X80748713Y-104863564D01*
X80737230Y-104901417D01*
X80692251Y-105049692D01*
X80600566Y-105221223D01*
X80477176Y-105371576D01*
X80326823Y-105494966D01*
X80155292Y-105586651D01*
X80155290Y-105586652D01*
X79969164Y-105643113D01*
X79872457Y-105652638D01*
X79824104Y-105657400D01*
X79015896Y-105657400D01*
X78967543Y-105652638D01*
X78870836Y-105643113D01*
X78684710Y-105586652D01*
X78684708Y-105586651D01*
X78513177Y-105494966D01*
X78362824Y-105371576D01*
X78239434Y-105221223D01*
X78147749Y-105049692D01*
X78102770Y-104901417D01*
X78091287Y-104863564D01*
X78072223Y-104670000D01*
X78091287Y-104476436D01*
X78147748Y-104290310D01*
X78227064Y-104141920D01*
X78239434Y-104118777D01*
X78362824Y-103968424D01*
X78513177Y-103845034D01*
X78684708Y-103753349D01*
X78684710Y-103753348D01*
X78870836Y-103696887D01*
X78967543Y-103687362D01*
X79015896Y-103682600D01*
X79824104Y-103682600D01*
X79872457Y-103687362D01*
G37*
G36*
X47248933Y-101601919D02*
G01*
X47430275Y-101656929D01*
X47597393Y-101746256D01*
X47743878Y-101866472D01*
X47864094Y-102012957D01*
X47953421Y-102180075D01*
X48008431Y-102361417D01*
X48027004Y-102550000D01*
X48008431Y-102738583D01*
X47953421Y-102919925D01*
X47864094Y-103087043D01*
X47743878Y-103233528D01*
X47597393Y-103353744D01*
X47430275Y-103443071D01*
X47248933Y-103498081D01*
X47107607Y-103512000D01*
X46339993Y-103512000D01*
X46198667Y-103498081D01*
X46017325Y-103443071D01*
X45850207Y-103353744D01*
X45703722Y-103233528D01*
X45583506Y-103087043D01*
X45494179Y-102919925D01*
X45439169Y-102738583D01*
X45420596Y-102550000D01*
X45439169Y-102361417D01*
X45494179Y-102180075D01*
X45583506Y-102012957D01*
X45703722Y-101866472D01*
X45850207Y-101746256D01*
X46017325Y-101656929D01*
X46198667Y-101601919D01*
X46339993Y-101588000D01*
X47107607Y-101588000D01*
X47248933Y-101601919D01*
G37*
G36*
X87901333Y-101521919D02*
G01*
X88082675Y-101576929D01*
X88249793Y-101666256D01*
X88396278Y-101786472D01*
X88516494Y-101932957D01*
X88605821Y-102100075D01*
X88660831Y-102281417D01*
X88679404Y-102470000D01*
X88660831Y-102658583D01*
X88605821Y-102839925D01*
X88516494Y-103007043D01*
X88396278Y-103153528D01*
X88249793Y-103273744D01*
X88082675Y-103363071D01*
X87901333Y-103418081D01*
X87760007Y-103432000D01*
X86992393Y-103432000D01*
X86851067Y-103418081D01*
X86669725Y-103363071D01*
X86502607Y-103273744D01*
X86356122Y-103153528D01*
X86235906Y-103007043D01*
X86146579Y-102839925D01*
X86091569Y-102658583D01*
X86072996Y-102470000D01*
X86091569Y-102281417D01*
X86146579Y-102100075D01*
X86235906Y-101932957D01*
X86356122Y-101786472D01*
X86502607Y-101666256D01*
X86669725Y-101576929D01*
X86851067Y-101521919D01*
X86992393Y-101508000D01*
X87760007Y-101508000D01*
X87901333Y-101521919D01*
G37*
G36*
X79872457Y-101147362D02*
G01*
X79969164Y-101156887D01*
X80155290Y-101213348D01*
X80155292Y-101213349D01*
X80326823Y-101305034D01*
X80477176Y-101428424D01*
X80600566Y-101578777D01*
X80612936Y-101601920D01*
X80692252Y-101750310D01*
X80748713Y-101936436D01*
X80767777Y-102130000D01*
X80748713Y-102323564D01*
X80692252Y-102509690D01*
X80692251Y-102509692D01*
X80600566Y-102681223D01*
X80477176Y-102831576D01*
X80326823Y-102954966D01*
X80155292Y-103046651D01*
X80155290Y-103046652D01*
X79969164Y-103103113D01*
X79872457Y-103112638D01*
X79824104Y-103117400D01*
X79015896Y-103117400D01*
X78967543Y-103112638D01*
X78870836Y-103103113D01*
X78684710Y-103046652D01*
X78684708Y-103046651D01*
X78513177Y-102954966D01*
X78362824Y-102831576D01*
X78239434Y-102681223D01*
X78147749Y-102509692D01*
X78147748Y-102509690D01*
X78091287Y-102323564D01*
X78072223Y-102130000D01*
X78091287Y-101936436D01*
X78147748Y-101750310D01*
X78227064Y-101601920D01*
X78239434Y-101578777D01*
X78362824Y-101428424D01*
X78513177Y-101305034D01*
X78684708Y-101213349D01*
X78684710Y-101213348D01*
X78870836Y-101156887D01*
X78967543Y-101147362D01*
X79015896Y-101142600D01*
X79824104Y-101142600D01*
X79872457Y-101147362D01*
G37*
G36*
X64632457Y-101147362D02*
G01*
X64729164Y-101156887D01*
X64915290Y-101213348D01*
X64915292Y-101213349D01*
X65086823Y-101305034D01*
X65237176Y-101428424D01*
X65360566Y-101578777D01*
X65372936Y-101601920D01*
X65452252Y-101750310D01*
X65508713Y-101936436D01*
X65527777Y-102130000D01*
X65508713Y-102323564D01*
X65452252Y-102509690D01*
X65452251Y-102509692D01*
X65360566Y-102681223D01*
X65237176Y-102831576D01*
X65086823Y-102954966D01*
X64915292Y-103046651D01*
X64915290Y-103046652D01*
X64729164Y-103103113D01*
X64632457Y-103112638D01*
X64584104Y-103117400D01*
X63775896Y-103117400D01*
X63727543Y-103112638D01*
X63630836Y-103103113D01*
X63444710Y-103046652D01*
X63444708Y-103046651D01*
X63273177Y-102954966D01*
X63122824Y-102831576D01*
X62999434Y-102681223D01*
X62907749Y-102509692D01*
X62907748Y-102509690D01*
X62851287Y-102323564D01*
X62832223Y-102130000D01*
X62851287Y-101936436D01*
X62907748Y-101750310D01*
X62987064Y-101601920D01*
X62999434Y-101578777D01*
X63122824Y-101428424D01*
X63273177Y-101305034D01*
X63444708Y-101213349D01*
X63444710Y-101213348D01*
X63630836Y-101156887D01*
X63727543Y-101147362D01*
X63775896Y-101142600D01*
X64584104Y-101142600D01*
X64632457Y-101147362D01*
G37*
G36*
X47248933Y-99061919D02*
G01*
X47430275Y-99116929D01*
X47597393Y-99206256D01*
X47743878Y-99326472D01*
X47864094Y-99472957D01*
X47953421Y-99640075D01*
X48008431Y-99821417D01*
X48027004Y-100010000D01*
X48008431Y-100198583D01*
X47953421Y-100379925D01*
X47864094Y-100547043D01*
X47743878Y-100693528D01*
X47597393Y-100813744D01*
X47430275Y-100903071D01*
X47248933Y-100958081D01*
X47107607Y-100972000D01*
X46339993Y-100972000D01*
X46198667Y-100958081D01*
X46017325Y-100903071D01*
X45850207Y-100813744D01*
X45703722Y-100693528D01*
X45583506Y-100547043D01*
X45494179Y-100379925D01*
X45439169Y-100198583D01*
X45420596Y-100010000D01*
X45439169Y-99821417D01*
X45494179Y-99640075D01*
X45583506Y-99472957D01*
X45703722Y-99326472D01*
X45850207Y-99206256D01*
X46017325Y-99116929D01*
X46198667Y-99061919D01*
X46339993Y-99048000D01*
X47107607Y-99048000D01*
X47248933Y-99061919D01*
G37*
G36*
X88674750Y-100892000D02*
G01*
X86077650Y-100892000D01*
X86077650Y-98968000D01*
X88674750Y-98968000D01*
X88674750Y-100892000D01*
G37*
G36*
X72600000Y-100700000D02*
G01*
X71000000Y-100700000D01*
X71000000Y-98100000D01*
X72600000Y-98100000D01*
X72600000Y-100700000D01*
G37*
G36*
X70320000Y-100700000D02*
G01*
X68720000Y-100700000D01*
X68720000Y-98100000D01*
X70320000Y-98100000D01*
X70320000Y-100700000D01*
G37*
G36*
X74880000Y-100700000D02*
G01*
X73280000Y-100700000D01*
X73280000Y-98100000D01*
X74880000Y-98100000D01*
X74880000Y-100700000D01*
G37*
G36*
X79872457Y-98607362D02*
G01*
X79969164Y-98616887D01*
X80155290Y-98673348D01*
X80155292Y-98673349D01*
X80326823Y-98765034D01*
X80477176Y-98888424D01*
X80600566Y-99038777D01*
X80612936Y-99061920D01*
X80692252Y-99210310D01*
X80748713Y-99396436D01*
X80767777Y-99590000D01*
X80748713Y-99783564D01*
X80737230Y-99821417D01*
X80692251Y-99969692D01*
X80600566Y-100141223D01*
X80477176Y-100291576D01*
X80326823Y-100414966D01*
X80155292Y-100506651D01*
X80155290Y-100506652D01*
X79969164Y-100563113D01*
X79872457Y-100572638D01*
X79824104Y-100577400D01*
X79015896Y-100577400D01*
X78967543Y-100572638D01*
X78870836Y-100563113D01*
X78684710Y-100506652D01*
X78684708Y-100506651D01*
X78513177Y-100414966D01*
X78362824Y-100291576D01*
X78239434Y-100141223D01*
X78147749Y-99969692D01*
X78102770Y-99821417D01*
X78091287Y-99783564D01*
X78072223Y-99590000D01*
X78091287Y-99396436D01*
X78147748Y-99210310D01*
X78227064Y-99061920D01*
X78239434Y-99038777D01*
X78362824Y-98888424D01*
X78513177Y-98765034D01*
X78684708Y-98673349D01*
X78684710Y-98673348D01*
X78870836Y-98616887D01*
X78967543Y-98607362D01*
X79015896Y-98602600D01*
X79824104Y-98602600D01*
X79872457Y-98607362D01*
G37*
G36*
X64632457Y-98607362D02*
G01*
X64729164Y-98616887D01*
X64915290Y-98673348D01*
X64915292Y-98673349D01*
X65086823Y-98765034D01*
X65237176Y-98888424D01*
X65360566Y-99038777D01*
X65372936Y-99061920D01*
X65452252Y-99210310D01*
X65508713Y-99396436D01*
X65527777Y-99590000D01*
X65508713Y-99783564D01*
X65497230Y-99821417D01*
X65452251Y-99969692D01*
X65360566Y-100141223D01*
X65237176Y-100291576D01*
X65086823Y-100414966D01*
X64915292Y-100506651D01*
X64915290Y-100506652D01*
X64729164Y-100563113D01*
X64632457Y-100572638D01*
X64584104Y-100577400D01*
X63775896Y-100577400D01*
X63727543Y-100572638D01*
X63630836Y-100563113D01*
X63444710Y-100506652D01*
X63444708Y-100506651D01*
X63273177Y-100414966D01*
X63122824Y-100291576D01*
X62999434Y-100141223D01*
X62907749Y-99969692D01*
X62862770Y-99821417D01*
X62851287Y-99783564D01*
X62832223Y-99590000D01*
X62851287Y-99396436D01*
X62907748Y-99210310D01*
X62987064Y-99061920D01*
X62999434Y-99038777D01*
X63122824Y-98888424D01*
X63273177Y-98765034D01*
X63444708Y-98673349D01*
X63444710Y-98673348D01*
X63630836Y-98616887D01*
X63727543Y-98607362D01*
X63775896Y-98602600D01*
X64584104Y-98602600D01*
X64632457Y-98607362D01*
G37*
G36*
X47248933Y-96521919D02*
G01*
X47430275Y-96576929D01*
X47597393Y-96666256D01*
X47743878Y-96786472D01*
X47864094Y-96932957D01*
X47953421Y-97100075D01*
X48008431Y-97281417D01*
X48027004Y-97470000D01*
X48008431Y-97658583D01*
X47953421Y-97839925D01*
X47864094Y-98007043D01*
X47743878Y-98153528D01*
X47597393Y-98273744D01*
X47430275Y-98363071D01*
X47248933Y-98418081D01*
X47107607Y-98432000D01*
X46339993Y-98432000D01*
X46198667Y-98418081D01*
X46017325Y-98363071D01*
X45850207Y-98273744D01*
X45703722Y-98153528D01*
X45583506Y-98007043D01*
X45494179Y-97839925D01*
X45439169Y-97658583D01*
X45420596Y-97470000D01*
X45439169Y-97281417D01*
X45494179Y-97100075D01*
X45583506Y-96932957D01*
X45703722Y-96786472D01*
X45850207Y-96666256D01*
X46017325Y-96576929D01*
X46198667Y-96521919D01*
X46339993Y-96508000D01*
X47107607Y-96508000D01*
X47248933Y-96521919D01*
G37*
G36*
X64632457Y-96067362D02*
G01*
X64729164Y-96076887D01*
X64915290Y-96133348D01*
X64915292Y-96133349D01*
X65086823Y-96225034D01*
X65237176Y-96348424D01*
X65360566Y-96498777D01*
X65387189Y-96548585D01*
X65452252Y-96670310D01*
X65508713Y-96856436D01*
X65527777Y-97050000D01*
X65508713Y-97243564D01*
X65452252Y-97429690D01*
X65452251Y-97429692D01*
X65360566Y-97601223D01*
X65237176Y-97751576D01*
X65086823Y-97874966D01*
X64915292Y-97966651D01*
X64915290Y-97966652D01*
X64729164Y-98023113D01*
X64632457Y-98032638D01*
X64584104Y-98037400D01*
X63775896Y-98037400D01*
X63727543Y-98032638D01*
X63630836Y-98023113D01*
X63444710Y-97966652D01*
X63444708Y-97966651D01*
X63273177Y-97874966D01*
X63122824Y-97751576D01*
X62999434Y-97601223D01*
X62907749Y-97429692D01*
X62907748Y-97429690D01*
X62851287Y-97243564D01*
X62832223Y-97050000D01*
X62851287Y-96856436D01*
X62907748Y-96670310D01*
X62972811Y-96548585D01*
X62999434Y-96498777D01*
X63122824Y-96348424D01*
X63273177Y-96225034D01*
X63444708Y-96133349D01*
X63444710Y-96133348D01*
X63630836Y-96076887D01*
X63727543Y-96067362D01*
X63775896Y-96062600D01*
X64584104Y-96062600D01*
X64632457Y-96067362D01*
G37*
G36*
X79872457Y-96067362D02*
G01*
X79969164Y-96076887D01*
X80155290Y-96133348D01*
X80155292Y-96133349D01*
X80326823Y-96225034D01*
X80477176Y-96348424D01*
X80600566Y-96498777D01*
X80627189Y-96548585D01*
X80692252Y-96670310D01*
X80748713Y-96856436D01*
X80767777Y-97050000D01*
X80748713Y-97243564D01*
X80692252Y-97429690D01*
X80692251Y-97429692D01*
X80600566Y-97601223D01*
X80477176Y-97751576D01*
X80326823Y-97874966D01*
X80155292Y-97966651D01*
X80155290Y-97966652D01*
X79969164Y-98023113D01*
X79872457Y-98032638D01*
X79824104Y-98037400D01*
X79015896Y-98037400D01*
X78967543Y-98032638D01*
X78870836Y-98023113D01*
X78684710Y-97966652D01*
X78684708Y-97966651D01*
X78513177Y-97874966D01*
X78362824Y-97751576D01*
X78239434Y-97601223D01*
X78147749Y-97429692D01*
X78147748Y-97429690D01*
X78091287Y-97243564D01*
X78072223Y-97050000D01*
X78091287Y-96856436D01*
X78147748Y-96670310D01*
X78212811Y-96548585D01*
X78239434Y-96498777D01*
X78362824Y-96348424D01*
X78513177Y-96225034D01*
X78684708Y-96133349D01*
X78684710Y-96133348D01*
X78870836Y-96076887D01*
X78967543Y-96067362D01*
X79015896Y-96062600D01*
X79824104Y-96062600D01*
X79872457Y-96067362D01*
G37*
G36*
X87901333Y-95411919D02*
G01*
X88082675Y-95466929D01*
X88249793Y-95556256D01*
X88396278Y-95676472D01*
X88516494Y-95822957D01*
X88605821Y-95990075D01*
X88660831Y-96171417D01*
X88679404Y-96360000D01*
X88660831Y-96548583D01*
X88605821Y-96729925D01*
X88516494Y-96897043D01*
X88396278Y-97043528D01*
X88249793Y-97163744D01*
X88082675Y-97253071D01*
X87901333Y-97308081D01*
X87760007Y-97322000D01*
X86992393Y-97322000D01*
X86851067Y-97308081D01*
X86669725Y-97253071D01*
X86502607Y-97163744D01*
X86356122Y-97043528D01*
X86235906Y-96897043D01*
X86146579Y-96729925D01*
X86091569Y-96548583D01*
X86072996Y-96360000D01*
X86091569Y-96171417D01*
X86146579Y-95990075D01*
X86235906Y-95822957D01*
X86356122Y-95676472D01*
X86502607Y-95556256D01*
X86669725Y-95466929D01*
X86851067Y-95411919D01*
X86992393Y-95398000D01*
X87760007Y-95398000D01*
X87901333Y-95411919D01*
G37*
G36*
X47248933Y-93981919D02*
G01*
X47430275Y-94036929D01*
X47597393Y-94126256D01*
X47743878Y-94246472D01*
X47864094Y-94392957D01*
X47953421Y-94560075D01*
X48008431Y-94741417D01*
X48027004Y-94930000D01*
X48008431Y-95118583D01*
X47953421Y-95299925D01*
X47864094Y-95467043D01*
X47743878Y-95613528D01*
X47597393Y-95733744D01*
X47430275Y-95823071D01*
X47248933Y-95878081D01*
X47107607Y-95892000D01*
X46339993Y-95892000D01*
X46198667Y-95878081D01*
X46017325Y-95823071D01*
X45850207Y-95733744D01*
X45703722Y-95613528D01*
X45583506Y-95467043D01*
X45494179Y-95299925D01*
X45439169Y-95118583D01*
X45420596Y-94930000D01*
X45439169Y-94741417D01*
X45494179Y-94560075D01*
X45583506Y-94392957D01*
X45703722Y-94246472D01*
X45850207Y-94126256D01*
X46017325Y-94036929D01*
X46198667Y-93981919D01*
X46339993Y-93968000D01*
X47107607Y-93968000D01*
X47248933Y-93981919D01*
G37*
G36*
X69985529Y-93955710D02*
G01*
X70035378Y-93970831D01*
X70081310Y-93995382D01*
X70121574Y-94028426D01*
X70154618Y-94068690D01*
X70179169Y-94114622D01*
X70194290Y-94164471D01*
X70200000Y-94222444D01*
X70200000Y-95227556D01*
X70194290Y-95285529D01*
X70179169Y-95335378D01*
X70154618Y-95381310D01*
X70121574Y-95421574D01*
X70081310Y-95454618D01*
X70035378Y-95479169D01*
X69985529Y-95494290D01*
X69927556Y-95500000D01*
X68672444Y-95500000D01*
X68614471Y-95494290D01*
X68564622Y-95479169D01*
X68518690Y-95454618D01*
X68478426Y-95421574D01*
X68445382Y-95381310D01*
X68420831Y-95335378D01*
X68405710Y-95285529D01*
X68400000Y-95227556D01*
X68400000Y-94222444D01*
X68405710Y-94164471D01*
X68420831Y-94114622D01*
X68445382Y-94068690D01*
X68478426Y-94028426D01*
X68518690Y-93995382D01*
X68564622Y-93970831D01*
X68614471Y-93955710D01*
X68672444Y-93950000D01*
X69927556Y-93950000D01*
X69985529Y-93955710D01*
G37*
G36*
X79872457Y-93527362D02*
G01*
X79969164Y-93536887D01*
X80155290Y-93593348D01*
X80155292Y-93593349D01*
X80326823Y-93685034D01*
X80477176Y-93808424D01*
X80600566Y-93958777D01*
X80675919Y-94099753D01*
X80692252Y-94130310D01*
X80748713Y-94316436D01*
X80767777Y-94510000D01*
X80748713Y-94703564D01*
X80692252Y-94889690D01*
X80692251Y-94889692D01*
X80600566Y-95061223D01*
X80477176Y-95211576D01*
X80326823Y-95334966D01*
X80182852Y-95411920D01*
X80155290Y-95426652D01*
X79969164Y-95483113D01*
X79872457Y-95492638D01*
X79824104Y-95497400D01*
X79015896Y-95497400D01*
X78967543Y-95492638D01*
X78870836Y-95483113D01*
X78684710Y-95426652D01*
X78657148Y-95411920D01*
X78513177Y-95334966D01*
X78362824Y-95211576D01*
X78239434Y-95061223D01*
X78147749Y-94889692D01*
X78147748Y-94889690D01*
X78091287Y-94703564D01*
X78072223Y-94510000D01*
X78091287Y-94316436D01*
X78147748Y-94130310D01*
X78164081Y-94099753D01*
X78239434Y-93958777D01*
X78362824Y-93808424D01*
X78513177Y-93685034D01*
X78684708Y-93593349D01*
X78684710Y-93593348D01*
X78870836Y-93536887D01*
X78967543Y-93527362D01*
X79015896Y-93522600D01*
X79824104Y-93522600D01*
X79872457Y-93527362D01*
G37*
G36*
X64632457Y-93527362D02*
G01*
X64729164Y-93536887D01*
X64915290Y-93593348D01*
X64915292Y-93593349D01*
X65086823Y-93685034D01*
X65237176Y-93808424D01*
X65360566Y-93958777D01*
X65435919Y-94099753D01*
X65452252Y-94130310D01*
X65508713Y-94316436D01*
X65527777Y-94510000D01*
X65508713Y-94703564D01*
X65452252Y-94889690D01*
X65452251Y-94889692D01*
X65360566Y-95061223D01*
X65237176Y-95211576D01*
X65086823Y-95334966D01*
X64942852Y-95411920D01*
X64915290Y-95426652D01*
X64729164Y-95483113D01*
X64632457Y-95492638D01*
X64584104Y-95497400D01*
X63775896Y-95497400D01*
X63727543Y-95492638D01*
X63630836Y-95483113D01*
X63444710Y-95426652D01*
X63417148Y-95411920D01*
X63273177Y-95334966D01*
X63122824Y-95211576D01*
X62999434Y-95061223D01*
X62907749Y-94889692D01*
X62907748Y-94889690D01*
X62851287Y-94703564D01*
X62832223Y-94510000D01*
X62851287Y-94316436D01*
X62907748Y-94130310D01*
X62924081Y-94099753D01*
X62999434Y-93958777D01*
X63122824Y-93808424D01*
X63273177Y-93685034D01*
X63444708Y-93593349D01*
X63444710Y-93593348D01*
X63630836Y-93536887D01*
X63727543Y-93527362D01*
X63775896Y-93522600D01*
X64584104Y-93522600D01*
X64632457Y-93527362D01*
G37*
G36*
X87901333Y-92871919D02*
G01*
X88082675Y-92926929D01*
X88249793Y-93016256D01*
X88396278Y-93136472D01*
X88516494Y-93282957D01*
X88605821Y-93450075D01*
X88660831Y-93631417D01*
X88679404Y-93820000D01*
X88660831Y-94008583D01*
X88605821Y-94189925D01*
X88516494Y-94357043D01*
X88396278Y-94503528D01*
X88249793Y-94623744D01*
X88082675Y-94713071D01*
X87901333Y-94768081D01*
X87760007Y-94782000D01*
X86992393Y-94782000D01*
X86851067Y-94768081D01*
X86669725Y-94713071D01*
X86502607Y-94623744D01*
X86356122Y-94503528D01*
X86235906Y-94357043D01*
X86146579Y-94189925D01*
X86091569Y-94008583D01*
X86072996Y-93820000D01*
X86091569Y-93631417D01*
X86146579Y-93450075D01*
X86235906Y-93282957D01*
X86356122Y-93136472D01*
X86502607Y-93016256D01*
X86669725Y-92926929D01*
X86851067Y-92871919D01*
X86992393Y-92858000D01*
X87760007Y-92858000D01*
X87901333Y-92871919D01*
G37*
G36*
X69985529Y-91905710D02*
G01*
X70035378Y-91920831D01*
X70081310Y-91945382D01*
X70121574Y-91978426D01*
X70154618Y-92018690D01*
X70179169Y-92064622D01*
X70194290Y-92114471D01*
X70200000Y-92172444D01*
X70200000Y-93177556D01*
X70194290Y-93235529D01*
X70179169Y-93285378D01*
X70154618Y-93331310D01*
X70121574Y-93371574D01*
X70081310Y-93404618D01*
X70035378Y-93429169D01*
X69985529Y-93444290D01*
X69927556Y-93450000D01*
X68672444Y-93450000D01*
X68614471Y-93444290D01*
X68564622Y-93429169D01*
X68518690Y-93404618D01*
X68478426Y-93371574D01*
X68445382Y-93331310D01*
X68420831Y-93285378D01*
X68405710Y-93235529D01*
X68400000Y-93177556D01*
X68400000Y-92172444D01*
X68405710Y-92114471D01*
X68420831Y-92064622D01*
X68445382Y-92018690D01*
X68478426Y-91978426D01*
X68518690Y-91945382D01*
X68564622Y-91920831D01*
X68614471Y-91905710D01*
X68672444Y-91900000D01*
X69927556Y-91900000D01*
X69985529Y-91905710D01*
G37*
G36*
X47248933Y-91441919D02*
G01*
X47430275Y-91496929D01*
X47597393Y-91586256D01*
X47743878Y-91706472D01*
X47864094Y-91852957D01*
X47953421Y-92020075D01*
X48008431Y-92201417D01*
X48027004Y-92390000D01*
X48008431Y-92578583D01*
X47953421Y-92759925D01*
X47864094Y-92927043D01*
X47743878Y-93073528D01*
X47597393Y-93193744D01*
X47430275Y-93283071D01*
X47248933Y-93338081D01*
X47107607Y-93352000D01*
X46339993Y-93352000D01*
X46198667Y-93338081D01*
X46017325Y-93283071D01*
X45850207Y-93193744D01*
X45703722Y-93073528D01*
X45583506Y-92927043D01*
X45494179Y-92759925D01*
X45439169Y-92578583D01*
X45420596Y-92390000D01*
X45439169Y-92201417D01*
X45494179Y-92020075D01*
X45583506Y-91852957D01*
X45703722Y-91706472D01*
X45850207Y-91586256D01*
X46017325Y-91496929D01*
X46198667Y-91441919D01*
X46339993Y-91428000D01*
X47107607Y-91428000D01*
X47248933Y-91441919D01*
G37*
G36*
X64632457Y-90987362D02*
G01*
X64729164Y-90996887D01*
X64915290Y-91053348D01*
X64915292Y-91053349D01*
X65086823Y-91145034D01*
X65237176Y-91268424D01*
X65360566Y-91418777D01*
X65387189Y-91468585D01*
X65452252Y-91590310D01*
X65508713Y-91776436D01*
X65527777Y-91970000D01*
X65508713Y-92163564D01*
X65452252Y-92349690D01*
X65452251Y-92349692D01*
X65360566Y-92521223D01*
X65237176Y-92671576D01*
X65086823Y-92794966D01*
X64942852Y-92871920D01*
X64915290Y-92886652D01*
X64729164Y-92943113D01*
X64632457Y-92952638D01*
X64584104Y-92957400D01*
X63775896Y-92957400D01*
X63727543Y-92952638D01*
X63630836Y-92943113D01*
X63444710Y-92886652D01*
X63417148Y-92871920D01*
X63273177Y-92794966D01*
X63122824Y-92671576D01*
X62999434Y-92521223D01*
X62907749Y-92349692D01*
X62907748Y-92349690D01*
X62851287Y-92163564D01*
X62832223Y-91970000D01*
X62851287Y-91776436D01*
X62907748Y-91590310D01*
X62972811Y-91468585D01*
X62999434Y-91418777D01*
X63122824Y-91268424D01*
X63273177Y-91145034D01*
X63444708Y-91053349D01*
X63444710Y-91053348D01*
X63630836Y-90996887D01*
X63727543Y-90987362D01*
X63775896Y-90982600D01*
X64584104Y-90982600D01*
X64632457Y-90987362D01*
G37*
G36*
X79872457Y-90987362D02*
G01*
X79969164Y-90996887D01*
X80155290Y-91053348D01*
X80155292Y-91053349D01*
X80326823Y-91145034D01*
X80477176Y-91268424D01*
X80600566Y-91418777D01*
X80627189Y-91468585D01*
X80692252Y-91590310D01*
X80748713Y-91776436D01*
X80767777Y-91970000D01*
X80748713Y-92163564D01*
X80692252Y-92349690D01*
X80692251Y-92349692D01*
X80600566Y-92521223D01*
X80477176Y-92671576D01*
X80326823Y-92794966D01*
X80182852Y-92871920D01*
X80155290Y-92886652D01*
X79969164Y-92943113D01*
X79872457Y-92952638D01*
X79824104Y-92957400D01*
X79015896Y-92957400D01*
X78967543Y-92952638D01*
X78870836Y-92943113D01*
X78684710Y-92886652D01*
X78657148Y-92871920D01*
X78513177Y-92794966D01*
X78362824Y-92671576D01*
X78239434Y-92521223D01*
X78147749Y-92349692D01*
X78147748Y-92349690D01*
X78091287Y-92163564D01*
X78072223Y-91970000D01*
X78091287Y-91776436D01*
X78147748Y-91590310D01*
X78212811Y-91468585D01*
X78239434Y-91418777D01*
X78362824Y-91268424D01*
X78513177Y-91145034D01*
X78684708Y-91053349D01*
X78684710Y-91053348D01*
X78870836Y-90996887D01*
X78967543Y-90987362D01*
X79015896Y-90982600D01*
X79824104Y-90982600D01*
X79872457Y-90987362D01*
G37*
G36*
X87901333Y-90331919D02*
G01*
X88082675Y-90386929D01*
X88249793Y-90476256D01*
X88396278Y-90596472D01*
X88516494Y-90742957D01*
X88605821Y-90910075D01*
X88660831Y-91091417D01*
X88679404Y-91280000D01*
X88660831Y-91468583D01*
X88605821Y-91649925D01*
X88516494Y-91817043D01*
X88396278Y-91963528D01*
X88249793Y-92083744D01*
X88082675Y-92173071D01*
X87901333Y-92228081D01*
X87760007Y-92242000D01*
X86992393Y-92242000D01*
X86851067Y-92228081D01*
X86669725Y-92173071D01*
X86502607Y-92083744D01*
X86356122Y-91963528D01*
X86235906Y-91817043D01*
X86146579Y-91649925D01*
X86091569Y-91468583D01*
X86072996Y-91280000D01*
X86091569Y-91091417D01*
X86146579Y-90910075D01*
X86235906Y-90742957D01*
X86356122Y-90596472D01*
X86502607Y-90476256D01*
X86669725Y-90386929D01*
X86851067Y-90331919D01*
X86992393Y-90318000D01*
X87760007Y-90318000D01*
X87901333Y-90331919D01*
G37*
G36*
X47248933Y-88901919D02*
G01*
X47430275Y-88956929D01*
X47597393Y-89046256D01*
X47743878Y-89166472D01*
X47864094Y-89312957D01*
X47953421Y-89480075D01*
X48008431Y-89661417D01*
X48027004Y-89850000D01*
X48008431Y-90038583D01*
X47953421Y-90219925D01*
X47864094Y-90387043D01*
X47743878Y-90533528D01*
X47597393Y-90653744D01*
X47430275Y-90743071D01*
X47248933Y-90798081D01*
X47107607Y-90812000D01*
X46339993Y-90812000D01*
X46198667Y-90798081D01*
X46017325Y-90743071D01*
X45850207Y-90653744D01*
X45703722Y-90533528D01*
X45583506Y-90387043D01*
X45494179Y-90219925D01*
X45439169Y-90038583D01*
X45420596Y-89850000D01*
X45439169Y-89661417D01*
X45494179Y-89480075D01*
X45583506Y-89312957D01*
X45703722Y-89166472D01*
X45850207Y-89046256D01*
X46017325Y-88956929D01*
X46198667Y-88901919D01*
X46339993Y-88888000D01*
X47107607Y-88888000D01*
X47248933Y-88901919D01*
G37*
G36*
X79872457Y-88447362D02*
G01*
X79969164Y-88456887D01*
X80155290Y-88513348D01*
X80155292Y-88513349D01*
X80326823Y-88605034D01*
X80477176Y-88728424D01*
X80600566Y-88878777D01*
X80627189Y-88928585D01*
X80692252Y-89050310D01*
X80748713Y-89236436D01*
X80767777Y-89430000D01*
X80748713Y-89623564D01*
X80692252Y-89809690D01*
X80692251Y-89809692D01*
X80600566Y-89981223D01*
X80477176Y-90131576D01*
X80326823Y-90254966D01*
X80182852Y-90331920D01*
X80155290Y-90346652D01*
X79969164Y-90403113D01*
X79872457Y-90412638D01*
X79824104Y-90417400D01*
X79015896Y-90417400D01*
X78967543Y-90412638D01*
X78870836Y-90403113D01*
X78684710Y-90346652D01*
X78657148Y-90331920D01*
X78513177Y-90254966D01*
X78362824Y-90131576D01*
X78239434Y-89981223D01*
X78147749Y-89809692D01*
X78147748Y-89809690D01*
X78091287Y-89623564D01*
X78072223Y-89430000D01*
X78091287Y-89236436D01*
X78147748Y-89050310D01*
X78212811Y-88928585D01*
X78239434Y-88878777D01*
X78362824Y-88728424D01*
X78513177Y-88605034D01*
X78684708Y-88513349D01*
X78684710Y-88513348D01*
X78870836Y-88456887D01*
X78967543Y-88447362D01*
X79015896Y-88442600D01*
X79824104Y-88442600D01*
X79872457Y-88447362D01*
G37*
G36*
X64632457Y-88447362D02*
G01*
X64729164Y-88456887D01*
X64915290Y-88513348D01*
X64915292Y-88513349D01*
X65086823Y-88605034D01*
X65237176Y-88728424D01*
X65360566Y-88878777D01*
X65387189Y-88928585D01*
X65452252Y-89050310D01*
X65508713Y-89236436D01*
X65527777Y-89430000D01*
X65508713Y-89623564D01*
X65452252Y-89809690D01*
X65452251Y-89809692D01*
X65360566Y-89981223D01*
X65237176Y-90131576D01*
X65086823Y-90254966D01*
X64942852Y-90331920D01*
X64915290Y-90346652D01*
X64729164Y-90403113D01*
X64632457Y-90412638D01*
X64584104Y-90417400D01*
X63775896Y-90417400D01*
X63727543Y-90412638D01*
X63630836Y-90403113D01*
X63444710Y-90346652D01*
X63417148Y-90331920D01*
X63273177Y-90254966D01*
X63122824Y-90131576D01*
X62999434Y-89981223D01*
X62907749Y-89809692D01*
X62907748Y-89809690D01*
X62851287Y-89623564D01*
X62832223Y-89430000D01*
X62851287Y-89236436D01*
X62907748Y-89050310D01*
X62972811Y-88928585D01*
X62999434Y-88878777D01*
X63122824Y-88728424D01*
X63273177Y-88605034D01*
X63444708Y-88513349D01*
X63444710Y-88513348D01*
X63630836Y-88456887D01*
X63727543Y-88447362D01*
X63775896Y-88442600D01*
X64584104Y-88442600D01*
X64632457Y-88447362D01*
G37*
G36*
X87901333Y-87791919D02*
G01*
X88082675Y-87846929D01*
X88249793Y-87936256D01*
X88396278Y-88056472D01*
X88516494Y-88202957D01*
X88605821Y-88370075D01*
X88660831Y-88551417D01*
X88679404Y-88740000D01*
X88660831Y-88928583D01*
X88605821Y-89109925D01*
X88516494Y-89277043D01*
X88396278Y-89423528D01*
X88249793Y-89543744D01*
X88082675Y-89633071D01*
X87901333Y-89688081D01*
X87760007Y-89702000D01*
X86992393Y-89702000D01*
X86851067Y-89688081D01*
X86669725Y-89633071D01*
X86502607Y-89543744D01*
X86356122Y-89423528D01*
X86235906Y-89277043D01*
X86146579Y-89109925D01*
X86091569Y-88928583D01*
X86072996Y-88740000D01*
X86091569Y-88551417D01*
X86146579Y-88370075D01*
X86235906Y-88202957D01*
X86356122Y-88056472D01*
X86502607Y-87936256D01*
X86669725Y-87846929D01*
X86851067Y-87791919D01*
X86992393Y-87778000D01*
X87760007Y-87778000D01*
X87901333Y-87791919D01*
G37*
G36*
X47248933Y-86361919D02*
G01*
X47430275Y-86416929D01*
X47597393Y-86506256D01*
X47743878Y-86626472D01*
X47864094Y-86772957D01*
X47953421Y-86940075D01*
X48008431Y-87121417D01*
X48027004Y-87310000D01*
X48008431Y-87498583D01*
X47953421Y-87679925D01*
X47864094Y-87847043D01*
X47743878Y-87993528D01*
X47597393Y-88113744D01*
X47430275Y-88203071D01*
X47248933Y-88258081D01*
X47107607Y-88272000D01*
X46339993Y-88272000D01*
X46198667Y-88258081D01*
X46017325Y-88203071D01*
X45850207Y-88113744D01*
X45703722Y-87993528D01*
X45583506Y-87847043D01*
X45494179Y-87679925D01*
X45439169Y-87498583D01*
X45420596Y-87310000D01*
X45439169Y-87121417D01*
X45494179Y-86940075D01*
X45583506Y-86772957D01*
X45703722Y-86626472D01*
X45850207Y-86506256D01*
X46017325Y-86416929D01*
X46198667Y-86361919D01*
X46339993Y-86348000D01*
X47107607Y-86348000D01*
X47248933Y-86361919D01*
G37*
G36*
X79872457Y-85907362D02*
G01*
X79969164Y-85916887D01*
X80155290Y-85973348D01*
X80155292Y-85973349D01*
X80326823Y-86065034D01*
X80477176Y-86188424D01*
X80600566Y-86338777D01*
X80627189Y-86388585D01*
X80692252Y-86510310D01*
X80748713Y-86696436D01*
X80767777Y-86890000D01*
X80748713Y-87083564D01*
X80692252Y-87269690D01*
X80692251Y-87269692D01*
X80600566Y-87441223D01*
X80477176Y-87591576D01*
X80326823Y-87714966D01*
X80182852Y-87791920D01*
X80155290Y-87806652D01*
X79969164Y-87863113D01*
X79872457Y-87872638D01*
X79824104Y-87877400D01*
X79015896Y-87877400D01*
X78967543Y-87872638D01*
X78870836Y-87863113D01*
X78684710Y-87806652D01*
X78657148Y-87791920D01*
X78513177Y-87714966D01*
X78362824Y-87591576D01*
X78239434Y-87441223D01*
X78147749Y-87269692D01*
X78147748Y-87269690D01*
X78091287Y-87083564D01*
X78072223Y-86890000D01*
X78091287Y-86696436D01*
X78147748Y-86510310D01*
X78212811Y-86388585D01*
X78239434Y-86338777D01*
X78362824Y-86188424D01*
X78513177Y-86065034D01*
X78684708Y-85973349D01*
X78684710Y-85973348D01*
X78870836Y-85916887D01*
X78967543Y-85907362D01*
X79015896Y-85902600D01*
X79824104Y-85902600D01*
X79872457Y-85907362D01*
G37*
G36*
X64632457Y-85907362D02*
G01*
X64729164Y-85916887D01*
X64915290Y-85973348D01*
X64915292Y-85973349D01*
X65086823Y-86065034D01*
X65237176Y-86188424D01*
X65360566Y-86338777D01*
X65387189Y-86388585D01*
X65452252Y-86510310D01*
X65508713Y-86696436D01*
X65527777Y-86890000D01*
X65508713Y-87083564D01*
X65452252Y-87269690D01*
X65452251Y-87269692D01*
X65360566Y-87441223D01*
X65237176Y-87591576D01*
X65086823Y-87714966D01*
X64942852Y-87791920D01*
X64915290Y-87806652D01*
X64729164Y-87863113D01*
X64632457Y-87872638D01*
X64584104Y-87877400D01*
X63775896Y-87877400D01*
X63727543Y-87872638D01*
X63630836Y-87863113D01*
X63444710Y-87806652D01*
X63417148Y-87791920D01*
X63273177Y-87714966D01*
X63122824Y-87591576D01*
X62999434Y-87441223D01*
X62907749Y-87269692D01*
X62907748Y-87269690D01*
X62851287Y-87083564D01*
X62832223Y-86890000D01*
X62851287Y-86696436D01*
X62907748Y-86510310D01*
X62972811Y-86388585D01*
X62999434Y-86338777D01*
X63122824Y-86188424D01*
X63273177Y-86065034D01*
X63444708Y-85973349D01*
X63444710Y-85973348D01*
X63630836Y-85916887D01*
X63727543Y-85907362D01*
X63775896Y-85902600D01*
X64584104Y-85902600D01*
X64632457Y-85907362D01*
G37*
G36*
X87901333Y-85251919D02*
G01*
X88082675Y-85306929D01*
X88249793Y-85396256D01*
X88396278Y-85516472D01*
X88516494Y-85662957D01*
X88605821Y-85830075D01*
X88660831Y-86011417D01*
X88679404Y-86200000D01*
X88660831Y-86388583D01*
X88605821Y-86569925D01*
X88516494Y-86737043D01*
X88396278Y-86883528D01*
X88249793Y-87003744D01*
X88082675Y-87093071D01*
X87901333Y-87148081D01*
X87760007Y-87162000D01*
X86992393Y-87162000D01*
X86851067Y-87148081D01*
X86669725Y-87093071D01*
X86502607Y-87003744D01*
X86356122Y-86883528D01*
X86235906Y-86737043D01*
X86146579Y-86569925D01*
X86091569Y-86388583D01*
X86072996Y-86200000D01*
X86091569Y-86011417D01*
X86146579Y-85830075D01*
X86235906Y-85662957D01*
X86356122Y-85516472D01*
X86502607Y-85396256D01*
X86669725Y-85306929D01*
X86851067Y-85251919D01*
X86992393Y-85238000D01*
X87760007Y-85238000D01*
X87901333Y-85251919D01*
G37*
G36*
X47248933Y-83821919D02*
G01*
X47430275Y-83876929D01*
X47597393Y-83966256D01*
X47743878Y-84086472D01*
X47864094Y-84232957D01*
X47953421Y-84400075D01*
X48008431Y-84581417D01*
X48027004Y-84770000D01*
X48008431Y-84958583D01*
X47953421Y-85139925D01*
X47864094Y-85307043D01*
X47743878Y-85453528D01*
X47597393Y-85573744D01*
X47430275Y-85663071D01*
X47248933Y-85718081D01*
X47107607Y-85732000D01*
X46339993Y-85732000D01*
X46198667Y-85718081D01*
X46017325Y-85663071D01*
X45850207Y-85573744D01*
X45703722Y-85453528D01*
X45583506Y-85307043D01*
X45494179Y-85139925D01*
X45439169Y-84958583D01*
X45420596Y-84770000D01*
X45439169Y-84581417D01*
X45494179Y-84400075D01*
X45583506Y-84232957D01*
X45703722Y-84086472D01*
X45850207Y-83966256D01*
X46017325Y-83876929D01*
X46198667Y-83821919D01*
X46339993Y-83808000D01*
X47107607Y-83808000D01*
X47248933Y-83821919D01*
G37*
G36*
X64632457Y-83367362D02*
G01*
X64729164Y-83376887D01*
X64915290Y-83433348D01*
X64915292Y-83433349D01*
X65086823Y-83525034D01*
X65237176Y-83648424D01*
X65360566Y-83798777D01*
X65387189Y-83848585D01*
X65452252Y-83970310D01*
X65508713Y-84156436D01*
X65527777Y-84350000D01*
X65508713Y-84543564D01*
X65452252Y-84729690D01*
X65452251Y-84729692D01*
X65360566Y-84901223D01*
X65237176Y-85051576D01*
X65086823Y-85174966D01*
X64942852Y-85251920D01*
X64915290Y-85266652D01*
X64729164Y-85323113D01*
X64632457Y-85332638D01*
X64584104Y-85337400D01*
X63775896Y-85337400D01*
X63727543Y-85332638D01*
X63630836Y-85323113D01*
X63444710Y-85266652D01*
X63417148Y-85251920D01*
X63273177Y-85174966D01*
X63122824Y-85051576D01*
X62999434Y-84901223D01*
X62907749Y-84729692D01*
X62907748Y-84729690D01*
X62851287Y-84543564D01*
X62832223Y-84350000D01*
X62851287Y-84156436D01*
X62907748Y-83970310D01*
X62972811Y-83848585D01*
X62999434Y-83798777D01*
X63122824Y-83648424D01*
X63273177Y-83525034D01*
X63444708Y-83433349D01*
X63444710Y-83433348D01*
X63630836Y-83376887D01*
X63727543Y-83367362D01*
X63775896Y-83362600D01*
X64584104Y-83362600D01*
X64632457Y-83367362D01*
G37*
G36*
X79872457Y-83367362D02*
G01*
X79969164Y-83376887D01*
X80155290Y-83433348D01*
X80155292Y-83433349D01*
X80326823Y-83525034D01*
X80477176Y-83648424D01*
X80600566Y-83798777D01*
X80627189Y-83848585D01*
X80692252Y-83970310D01*
X80748713Y-84156436D01*
X80767777Y-84350000D01*
X80748713Y-84543564D01*
X80692252Y-84729690D01*
X80692251Y-84729692D01*
X80600566Y-84901223D01*
X80477176Y-85051576D01*
X80326823Y-85174966D01*
X80182852Y-85251920D01*
X80155290Y-85266652D01*
X79969164Y-85323113D01*
X79872457Y-85332638D01*
X79824104Y-85337400D01*
X79015896Y-85337400D01*
X78967543Y-85332638D01*
X78870836Y-85323113D01*
X78684710Y-85266652D01*
X78657148Y-85251920D01*
X78513177Y-85174966D01*
X78362824Y-85051576D01*
X78239434Y-84901223D01*
X78147749Y-84729692D01*
X78147748Y-84729690D01*
X78091287Y-84543564D01*
X78072223Y-84350000D01*
X78091287Y-84156436D01*
X78147748Y-83970310D01*
X78212811Y-83848585D01*
X78239434Y-83798777D01*
X78362824Y-83648424D01*
X78513177Y-83525034D01*
X78684708Y-83433349D01*
X78684710Y-83433348D01*
X78870836Y-83376887D01*
X78967543Y-83367362D01*
X79015896Y-83362600D01*
X79824104Y-83362600D01*
X79872457Y-83367362D01*
G37*
G36*
X87901333Y-82711919D02*
G01*
X88082675Y-82766929D01*
X88249793Y-82856256D01*
X88396278Y-82976472D01*
X88516494Y-83122957D01*
X88605821Y-83290075D01*
X88660831Y-83471417D01*
X88679404Y-83660000D01*
X88660831Y-83848583D01*
X88605821Y-84029925D01*
X88516494Y-84197043D01*
X88396278Y-84343528D01*
X88249793Y-84463744D01*
X88082675Y-84553071D01*
X87901333Y-84608081D01*
X87760007Y-84622000D01*
X86992393Y-84622000D01*
X86851067Y-84608081D01*
X86669725Y-84553071D01*
X86502607Y-84463744D01*
X86356122Y-84343528D01*
X86235906Y-84197043D01*
X86146579Y-84029925D01*
X86091569Y-83848583D01*
X86072996Y-83660000D01*
X86091569Y-83471417D01*
X86146579Y-83290075D01*
X86235906Y-83122957D01*
X86356122Y-82976472D01*
X86502607Y-82856256D01*
X86669725Y-82766929D01*
X86851067Y-82711919D01*
X86992393Y-82698000D01*
X87760007Y-82698000D01*
X87901333Y-82711919D01*
G37*
G36*
X64632457Y-80827362D02*
G01*
X64729164Y-80836887D01*
X64915290Y-80893348D01*
X64915292Y-80893349D01*
X65086823Y-80985034D01*
X65237176Y-81108424D01*
X65360566Y-81258777D01*
X65387189Y-81308585D01*
X65452252Y-81430310D01*
X65508713Y-81616436D01*
X65527777Y-81810000D01*
X65508713Y-82003564D01*
X65452252Y-82189690D01*
X65452251Y-82189692D01*
X65360566Y-82361223D01*
X65237176Y-82511576D01*
X65086823Y-82634966D01*
X64942852Y-82711920D01*
X64915290Y-82726652D01*
X64729164Y-82783113D01*
X64632457Y-82792638D01*
X64584104Y-82797400D01*
X63775896Y-82797400D01*
X63727543Y-82792638D01*
X63630836Y-82783113D01*
X63444710Y-82726652D01*
X63417148Y-82711920D01*
X63273177Y-82634966D01*
X63122824Y-82511576D01*
X62999434Y-82361223D01*
X62907749Y-82189692D01*
X62907748Y-82189690D01*
X62851287Y-82003564D01*
X62832223Y-81810000D01*
X62851287Y-81616436D01*
X62907748Y-81430310D01*
X62972811Y-81308585D01*
X62999434Y-81258777D01*
X63122824Y-81108424D01*
X63273177Y-80985034D01*
X63444708Y-80893349D01*
X63444710Y-80893348D01*
X63630836Y-80836887D01*
X63727543Y-80827362D01*
X63775896Y-80822600D01*
X64584104Y-80822600D01*
X64632457Y-80827362D01*
G37*
G36*
X79872457Y-80827362D02*
G01*
X79969164Y-80836887D01*
X80155290Y-80893348D01*
X80155292Y-80893349D01*
X80326823Y-80985034D01*
X80477176Y-81108424D01*
X80600566Y-81258777D01*
X80627189Y-81308585D01*
X80692252Y-81430310D01*
X80748713Y-81616436D01*
X80767777Y-81810000D01*
X80748713Y-82003564D01*
X80692252Y-82189690D01*
X80692251Y-82189692D01*
X80600566Y-82361223D01*
X80477176Y-82511576D01*
X80326823Y-82634966D01*
X80182852Y-82711920D01*
X80155290Y-82726652D01*
X79969164Y-82783113D01*
X79872457Y-82792638D01*
X79824104Y-82797400D01*
X79015896Y-82797400D01*
X78967543Y-82792638D01*
X78870836Y-82783113D01*
X78684710Y-82726652D01*
X78657148Y-82711920D01*
X78513177Y-82634966D01*
X78362824Y-82511576D01*
X78239434Y-82361223D01*
X78147749Y-82189692D01*
X78147748Y-82189690D01*
X78091287Y-82003564D01*
X78072223Y-81810000D01*
X78091287Y-81616436D01*
X78147748Y-81430310D01*
X78212811Y-81308585D01*
X78239434Y-81258777D01*
X78362824Y-81108424D01*
X78513177Y-80985034D01*
X78684708Y-80893349D01*
X78684710Y-80893348D01*
X78870836Y-80836887D01*
X78967543Y-80827362D01*
X79015896Y-80822600D01*
X79824104Y-80822600D01*
X79872457Y-80827362D01*
G37*
G36*
X87901333Y-80171919D02*
G01*
X88082675Y-80226929D01*
X88249793Y-80316256D01*
X88396278Y-80436472D01*
X88516494Y-80582957D01*
X88605821Y-80750075D01*
X88660831Y-80931417D01*
X88679404Y-81120000D01*
X88660831Y-81308583D01*
X88605821Y-81489925D01*
X88516494Y-81657043D01*
X88396278Y-81803528D01*
X88249793Y-81923744D01*
X88082675Y-82013071D01*
X87901333Y-82068081D01*
X87760007Y-82082000D01*
X86992393Y-82082000D01*
X86851067Y-82068081D01*
X86669725Y-82013071D01*
X86502607Y-81923744D01*
X86356122Y-81803528D01*
X86235906Y-81657043D01*
X86146579Y-81489925D01*
X86091569Y-81308583D01*
X86072996Y-81120000D01*
X86091569Y-80931417D01*
X86146579Y-80750075D01*
X86235906Y-80582957D01*
X86356122Y-80436472D01*
X86502607Y-80316256D01*
X86669725Y-80226929D01*
X86851067Y-80171919D01*
X86992393Y-80158000D01*
X87760007Y-80158000D01*
X87901333Y-80171919D01*
G37*
G36*
X48022350Y-81512000D02*
G01*
X45425250Y-81512000D01*
X45425250Y-79588000D01*
X48022350Y-79588000D01*
X48022350Y-81512000D01*
G37*
G36*
X79872457Y-78287362D02*
G01*
X79969164Y-78296887D01*
X80155290Y-78353348D01*
X80155292Y-78353349D01*
X80326823Y-78445034D01*
X80477176Y-78568424D01*
X80600566Y-78718777D01*
X80627189Y-78768585D01*
X80692252Y-78890310D01*
X80748713Y-79076436D01*
X80767777Y-79270000D01*
X80748713Y-79463564D01*
X80692252Y-79649690D01*
X80692251Y-79649692D01*
X80600566Y-79821223D01*
X80477176Y-79971576D01*
X80326823Y-80094966D01*
X80182852Y-80171920D01*
X80155290Y-80186652D01*
X79969164Y-80243113D01*
X79872457Y-80252638D01*
X79824104Y-80257400D01*
X79015896Y-80257400D01*
X78967543Y-80252638D01*
X78870836Y-80243113D01*
X78684710Y-80186652D01*
X78657148Y-80171920D01*
X78513177Y-80094966D01*
X78362824Y-79971576D01*
X78239434Y-79821223D01*
X78147749Y-79649692D01*
X78147748Y-79649690D01*
X78091287Y-79463564D01*
X78072223Y-79270000D01*
X78091287Y-79076436D01*
X78147748Y-78890310D01*
X78212811Y-78768585D01*
X78239434Y-78718777D01*
X78362824Y-78568424D01*
X78513177Y-78445034D01*
X78684708Y-78353349D01*
X78684710Y-78353348D01*
X78870836Y-78296887D01*
X78967543Y-78287362D01*
X79015896Y-78282600D01*
X79824104Y-78282600D01*
X79872457Y-78287362D01*
G37*
G36*
X64632457Y-78287362D02*
G01*
X64729164Y-78296887D01*
X64915290Y-78353348D01*
X64915292Y-78353349D01*
X65086823Y-78445034D01*
X65237176Y-78568424D01*
X65360566Y-78718777D01*
X65387189Y-78768585D01*
X65452252Y-78890310D01*
X65508713Y-79076436D01*
X65527777Y-79270000D01*
X65508713Y-79463564D01*
X65452252Y-79649690D01*
X65452251Y-79649692D01*
X65360566Y-79821223D01*
X65237176Y-79971576D01*
X65086823Y-80094966D01*
X64942852Y-80171920D01*
X64915290Y-80186652D01*
X64729164Y-80243113D01*
X64632457Y-80252638D01*
X64584104Y-80257400D01*
X63775896Y-80257400D01*
X63727543Y-80252638D01*
X63630836Y-80243113D01*
X63444710Y-80186652D01*
X63417148Y-80171920D01*
X63273177Y-80094966D01*
X63122824Y-79971576D01*
X62999434Y-79821223D01*
X62907749Y-79649692D01*
X62907748Y-79649690D01*
X62851287Y-79463564D01*
X62832223Y-79270000D01*
X62851287Y-79076436D01*
X62907748Y-78890310D01*
X62972811Y-78768585D01*
X62999434Y-78718777D01*
X63122824Y-78568424D01*
X63273177Y-78445034D01*
X63444708Y-78353349D01*
X63444710Y-78353348D01*
X63630836Y-78296887D01*
X63727543Y-78287362D01*
X63775896Y-78282600D01*
X64584104Y-78282600D01*
X64632457Y-78287362D01*
G37*
G36*
X87901333Y-77631919D02*
G01*
X88082675Y-77686929D01*
X88249793Y-77776256D01*
X88396278Y-77896472D01*
X88516494Y-78042957D01*
X88605821Y-78210075D01*
X88660831Y-78391417D01*
X88679404Y-78580000D01*
X88660831Y-78768583D01*
X88605821Y-78949925D01*
X88516494Y-79117043D01*
X88396278Y-79263528D01*
X88249793Y-79383744D01*
X88082675Y-79473071D01*
X87901333Y-79528081D01*
X87760007Y-79542000D01*
X86992393Y-79542000D01*
X86851067Y-79528081D01*
X86669725Y-79473071D01*
X86502607Y-79383744D01*
X86356122Y-79263528D01*
X86235906Y-79117043D01*
X86146579Y-78949925D01*
X86091569Y-78768583D01*
X86072996Y-78580000D01*
X86091569Y-78391417D01*
X86146579Y-78210075D01*
X86235906Y-78042957D01*
X86356122Y-77896472D01*
X86502607Y-77776256D01*
X86669725Y-77686929D01*
X86851067Y-77631919D01*
X86992393Y-77618000D01*
X87760007Y-77618000D01*
X87901333Y-77631919D01*
G37*
G36*
X47248933Y-77061919D02*
G01*
X47396518Y-77106689D01*
X47406412Y-77109690D01*
X47430275Y-77116929D01*
X47597393Y-77206256D01*
X47743878Y-77326472D01*
X47864094Y-77472957D01*
X47953421Y-77640075D01*
X48008431Y-77821417D01*
X48027004Y-78010000D01*
X48008431Y-78198583D01*
X47953421Y-78379925D01*
X47864094Y-78547043D01*
X47743878Y-78693528D01*
X47597393Y-78813744D01*
X47430275Y-78903071D01*
X47248933Y-78958081D01*
X47107607Y-78972000D01*
X46339993Y-78972000D01*
X46198667Y-78958081D01*
X46017325Y-78903071D01*
X45850207Y-78813744D01*
X45703722Y-78693528D01*
X45583506Y-78547043D01*
X45494179Y-78379925D01*
X45439169Y-78198583D01*
X45420596Y-78010000D01*
X45439169Y-77821417D01*
X45494179Y-77640075D01*
X45583506Y-77472957D01*
X45703722Y-77326472D01*
X45850207Y-77206256D01*
X46017325Y-77116929D01*
X46041189Y-77109690D01*
X46051082Y-77106689D01*
X46198667Y-77061919D01*
X46339993Y-77048000D01*
X47107607Y-77048000D01*
X47248933Y-77061919D01*
G37*
G36*
X79872457Y-75747362D02*
G01*
X79969164Y-75756887D01*
X80155290Y-75813348D01*
X80155292Y-75813349D01*
X80326823Y-75905034D01*
X80477176Y-76028424D01*
X80600565Y-76178776D01*
X80692252Y-76350310D01*
X80748713Y-76536436D01*
X80767777Y-76730000D01*
X80748713Y-76923564D01*
X80692252Y-77109690D01*
X80692251Y-77109692D01*
X80600566Y-77281223D01*
X80477176Y-77431576D01*
X80326823Y-77554966D01*
X80182852Y-77631920D01*
X80155290Y-77646652D01*
X79969164Y-77703113D01*
X79872457Y-77712638D01*
X79824104Y-77717400D01*
X79015896Y-77717400D01*
X78967543Y-77712638D01*
X78870836Y-77703113D01*
X78684710Y-77646652D01*
X78657148Y-77631920D01*
X78513177Y-77554966D01*
X78362824Y-77431576D01*
X78239434Y-77281223D01*
X78147749Y-77109692D01*
X78147748Y-77109690D01*
X78091287Y-76923564D01*
X78072223Y-76730000D01*
X78091287Y-76536436D01*
X78147748Y-76350310D01*
X78239435Y-76178776D01*
X78362824Y-76028424D01*
X78513177Y-75905034D01*
X78684708Y-75813349D01*
X78684710Y-75813348D01*
X78870836Y-75756887D01*
X78967543Y-75747362D01*
X79015896Y-75742600D01*
X79824104Y-75742600D01*
X79872457Y-75747362D01*
G37*
G36*
X64632457Y-75747362D02*
G01*
X64729164Y-75756887D01*
X64915290Y-75813348D01*
X64915292Y-75813349D01*
X65086823Y-75905034D01*
X65237176Y-76028424D01*
X65360565Y-76178776D01*
X65452252Y-76350310D01*
X65508713Y-76536436D01*
X65527777Y-76730000D01*
X65508713Y-76923564D01*
X65452252Y-77109690D01*
X65452251Y-77109692D01*
X65360566Y-77281223D01*
X65237176Y-77431576D01*
X65086823Y-77554966D01*
X64942852Y-77631920D01*
X64915290Y-77646652D01*
X64729164Y-77703113D01*
X64632457Y-77712638D01*
X64584104Y-77717400D01*
X63775896Y-77717400D01*
X63727543Y-77712638D01*
X63630836Y-77703113D01*
X63444710Y-77646652D01*
X63417148Y-77631920D01*
X63273177Y-77554966D01*
X63122824Y-77431576D01*
X62999434Y-77281223D01*
X62907749Y-77109692D01*
X62907748Y-77109690D01*
X62851287Y-76923564D01*
X62832223Y-76730000D01*
X62851287Y-76536436D01*
X62907748Y-76350310D01*
X62999435Y-76178776D01*
X63122824Y-76028424D01*
X63273177Y-75905034D01*
X63444708Y-75813349D01*
X63444710Y-75813348D01*
X63630836Y-75756887D01*
X63727543Y-75747362D01*
X63775896Y-75742600D01*
X64584104Y-75742600D01*
X64632457Y-75747362D01*
G37*
G36*
X88674750Y-77002000D02*
G01*
X86077650Y-77002000D01*
X86077650Y-75078000D01*
X88674750Y-75078000D01*
X88674750Y-77002000D01*
G37*
G36*
X47248933Y-74521919D02*
G01*
X47396518Y-74566689D01*
X47406412Y-74569690D01*
X47430275Y-74576929D01*
X47597393Y-74666256D01*
X47743878Y-74786472D01*
X47864094Y-74932957D01*
X47953421Y-75100075D01*
X48008431Y-75281417D01*
X48027004Y-75470000D01*
X48008431Y-75658583D01*
X47953421Y-75839925D01*
X47864094Y-76007043D01*
X47743878Y-76153528D01*
X47597393Y-76273744D01*
X47430275Y-76363071D01*
X47248933Y-76418081D01*
X47107607Y-76432000D01*
X46339993Y-76432000D01*
X46198667Y-76418081D01*
X46017325Y-76363071D01*
X45850207Y-76273744D01*
X45703722Y-76153528D01*
X45583506Y-76007043D01*
X45494179Y-75839925D01*
X45439169Y-75658583D01*
X45420596Y-75470000D01*
X45439169Y-75281417D01*
X45494179Y-75100075D01*
X45583506Y-74932957D01*
X45703722Y-74786472D01*
X45850207Y-74666256D01*
X46017325Y-74576929D01*
X46041189Y-74569690D01*
X46051082Y-74566689D01*
X46198667Y-74521919D01*
X46339993Y-74508000D01*
X47107607Y-74508000D01*
X47248933Y-74521919D01*
G37*
G36*
X64632457Y-73207362D02*
G01*
X64729164Y-73216887D01*
X64915290Y-73273348D01*
X64915292Y-73273349D01*
X65086823Y-73365034D01*
X65237176Y-73488424D01*
X65360566Y-73638777D01*
X65373911Y-73663744D01*
X65452252Y-73810310D01*
X65508713Y-73996436D01*
X65527777Y-74190000D01*
X65508713Y-74383564D01*
X65452252Y-74569690D01*
X65452251Y-74569692D01*
X65360566Y-74741223D01*
X65237176Y-74891576D01*
X65086823Y-75014966D01*
X64968894Y-75078000D01*
X64915290Y-75106652D01*
X64729164Y-75163113D01*
X64632457Y-75172638D01*
X64584104Y-75177400D01*
X63775896Y-75177400D01*
X63727543Y-75172638D01*
X63630836Y-75163113D01*
X63444710Y-75106652D01*
X63391106Y-75078000D01*
X63273177Y-75014966D01*
X63122824Y-74891576D01*
X62999434Y-74741223D01*
X62907749Y-74569692D01*
X62907748Y-74569690D01*
X62851287Y-74383564D01*
X62832223Y-74190000D01*
X62851287Y-73996436D01*
X62907748Y-73810310D01*
X62986089Y-73663744D01*
X62999434Y-73638777D01*
X63122824Y-73488424D01*
X63273177Y-73365034D01*
X63444708Y-73273349D01*
X63444710Y-73273348D01*
X63630836Y-73216887D01*
X63727543Y-73207362D01*
X63775896Y-73202600D01*
X64584104Y-73202600D01*
X64632457Y-73207362D01*
G37*
G36*
X79872457Y-73207362D02*
G01*
X79969164Y-73216887D01*
X80155290Y-73273348D01*
X80155292Y-73273349D01*
X80326823Y-73365034D01*
X80477176Y-73488424D01*
X80600566Y-73638777D01*
X80613911Y-73663744D01*
X80692252Y-73810310D01*
X80748713Y-73996436D01*
X80767777Y-74190000D01*
X80748713Y-74383564D01*
X80692252Y-74569690D01*
X80692251Y-74569692D01*
X80600566Y-74741223D01*
X80477176Y-74891576D01*
X80326823Y-75014966D01*
X80208894Y-75078000D01*
X80155290Y-75106652D01*
X79969164Y-75163113D01*
X79872457Y-75172638D01*
X79824104Y-75177400D01*
X79015896Y-75177400D01*
X78967543Y-75172638D01*
X78870836Y-75163113D01*
X78684710Y-75106652D01*
X78631106Y-75078000D01*
X78513177Y-75014966D01*
X78362824Y-74891576D01*
X78239434Y-74741223D01*
X78147749Y-74569692D01*
X78147748Y-74569690D01*
X78091287Y-74383564D01*
X78072223Y-74190000D01*
X78091287Y-73996436D01*
X78147748Y-73810310D01*
X78226089Y-73663744D01*
X78239434Y-73638777D01*
X78362824Y-73488424D01*
X78513177Y-73365034D01*
X78684708Y-73273349D01*
X78684710Y-73273348D01*
X78870836Y-73216887D01*
X78967543Y-73207362D01*
X79015896Y-73202600D01*
X79824104Y-73202600D01*
X79872457Y-73207362D01*
G37*
G36*
X47248933Y-71981919D02*
G01*
X47396518Y-72026689D01*
X47406412Y-72029690D01*
X47430275Y-72036929D01*
X47597393Y-72126256D01*
X47743878Y-72246472D01*
X47864094Y-72392957D01*
X47953421Y-72560075D01*
X48008431Y-72741417D01*
X48027004Y-72930000D01*
X48008431Y-73118583D01*
X47953421Y-73299925D01*
X47864094Y-73467043D01*
X47743878Y-73613528D01*
X47597393Y-73733744D01*
X47430275Y-73823071D01*
X47248933Y-73878081D01*
X47107607Y-73892000D01*
X46339993Y-73892000D01*
X46198667Y-73878081D01*
X46017325Y-73823071D01*
X45850207Y-73733744D01*
X45703722Y-73613528D01*
X45583506Y-73467043D01*
X45494179Y-73299925D01*
X45439169Y-73118583D01*
X45420596Y-72930000D01*
X45439169Y-72741417D01*
X45494179Y-72560075D01*
X45583506Y-72392957D01*
X45703722Y-72246472D01*
X45850207Y-72126256D01*
X46017325Y-72036929D01*
X46041189Y-72029690D01*
X46051082Y-72026689D01*
X46198667Y-71981919D01*
X46339993Y-71968000D01*
X47107607Y-71968000D01*
X47248933Y-71981919D01*
G37*
G36*
X87901333Y-71911919D02*
G01*
X88082675Y-71966929D01*
X88249793Y-72056256D01*
X88396278Y-72176472D01*
X88516494Y-72322957D01*
X88605821Y-72490075D01*
X88660831Y-72671417D01*
X88679404Y-72860000D01*
X88660831Y-73048583D01*
X88605821Y-73229925D01*
X88516494Y-73397043D01*
X88396278Y-73543528D01*
X88249793Y-73663744D01*
X88082675Y-73753071D01*
X87901333Y-73808081D01*
X87760007Y-73822000D01*
X86992393Y-73822000D01*
X86851067Y-73808081D01*
X86669725Y-73753071D01*
X86502607Y-73663744D01*
X86356122Y-73543528D01*
X86235906Y-73397043D01*
X86146579Y-73229925D01*
X86091569Y-73048583D01*
X86072996Y-72860000D01*
X86091569Y-72671417D01*
X86146579Y-72490075D01*
X86235906Y-72322957D01*
X86356122Y-72176472D01*
X86502607Y-72056256D01*
X86669725Y-71966929D01*
X86851067Y-71911919D01*
X86992393Y-71898000D01*
X87760007Y-71898000D01*
X87901333Y-71911919D01*
G37*
G36*
X79872457Y-70667362D02*
G01*
X79969164Y-70676887D01*
X80155290Y-70733348D01*
X80155292Y-70733349D01*
X80326823Y-70825034D01*
X80477176Y-70948424D01*
X80600566Y-71098777D01*
X80613911Y-71123744D01*
X80692252Y-71270310D01*
X80748713Y-71456436D01*
X80767777Y-71650000D01*
X80748713Y-71843564D01*
X80692252Y-72029690D01*
X80692251Y-72029692D01*
X80600566Y-72201223D01*
X80477176Y-72351576D01*
X80326823Y-72474966D01*
X80298550Y-72490078D01*
X80155290Y-72566652D01*
X79969164Y-72623113D01*
X79872457Y-72632638D01*
X79824104Y-72637400D01*
X79015896Y-72637400D01*
X78967543Y-72632638D01*
X78870836Y-72623113D01*
X78684710Y-72566652D01*
X78541450Y-72490078D01*
X78513177Y-72474966D01*
X78362824Y-72351576D01*
X78239434Y-72201223D01*
X78147749Y-72029692D01*
X78147748Y-72029690D01*
X78091287Y-71843564D01*
X78072223Y-71650000D01*
X78091287Y-71456436D01*
X78147748Y-71270310D01*
X78226089Y-71123744D01*
X78239434Y-71098777D01*
X78362824Y-70948424D01*
X78513177Y-70825034D01*
X78684708Y-70733349D01*
X78684710Y-70733348D01*
X78870836Y-70676887D01*
X78967543Y-70667362D01*
X79015896Y-70662600D01*
X79824104Y-70662600D01*
X79872457Y-70667362D01*
G37*
G36*
X65523000Y-72637400D02*
G01*
X62837000Y-72637400D01*
X62837000Y-70662600D01*
X65523000Y-70662600D01*
X65523000Y-72637400D01*
G37*
G36*
X47248933Y-69441919D02*
G01*
X47430275Y-69496929D01*
X47597393Y-69586256D01*
X47743878Y-69706472D01*
X47864094Y-69852957D01*
X47953421Y-70020075D01*
X48008431Y-70201417D01*
X48027004Y-70390000D01*
X48008431Y-70578583D01*
X47953421Y-70759925D01*
X47864094Y-70927043D01*
X47743878Y-71073528D01*
X47597393Y-71193744D01*
X47430275Y-71283071D01*
X47248933Y-71338081D01*
X47107607Y-71352000D01*
X46339993Y-71352000D01*
X46198667Y-71338081D01*
X46017325Y-71283071D01*
X45850207Y-71193744D01*
X45703722Y-71073528D01*
X45583506Y-70927043D01*
X45494179Y-70759925D01*
X45439169Y-70578583D01*
X45420596Y-70390000D01*
X45439169Y-70201417D01*
X45494179Y-70020075D01*
X45583506Y-69852957D01*
X45703722Y-69706472D01*
X45850207Y-69586256D01*
X46017325Y-69496929D01*
X46198667Y-69441919D01*
X46339993Y-69428000D01*
X47107607Y-69428000D01*
X47248933Y-69441919D01*
G37*
G36*
X87901333Y-69371919D02*
G01*
X88082675Y-69426929D01*
X88249793Y-69516256D01*
X88396278Y-69636472D01*
X88516494Y-69782957D01*
X88605821Y-69950075D01*
X88660831Y-70131417D01*
X88679404Y-70320000D01*
X88660831Y-70508583D01*
X88605821Y-70689925D01*
X88516494Y-70857043D01*
X88396278Y-71003528D01*
X88249793Y-71123744D01*
X88082675Y-71213071D01*
X87901333Y-71268081D01*
X87760007Y-71282000D01*
X86992393Y-71282000D01*
X86851067Y-71268081D01*
X86669725Y-71213071D01*
X86502607Y-71123744D01*
X86356122Y-71003528D01*
X86235906Y-70857043D01*
X86146579Y-70689925D01*
X86091569Y-70508583D01*
X86072996Y-70320000D01*
X86091569Y-70131417D01*
X86146579Y-69950075D01*
X86235906Y-69782957D01*
X86356122Y-69636472D01*
X86502607Y-69516256D01*
X86669725Y-69426929D01*
X86851067Y-69371919D01*
X86992393Y-69358000D01*
X87760007Y-69358000D01*
X87901333Y-69371919D01*
G37*
G36*
X47248933Y-66901919D02*
G01*
X47430275Y-66956929D01*
X47597393Y-67046256D01*
X47743878Y-67166472D01*
X47864094Y-67312957D01*
X47953421Y-67480075D01*
X48008431Y-67661417D01*
X48027004Y-67850000D01*
X48008431Y-68038583D01*
X47953421Y-68219925D01*
X47864094Y-68387043D01*
X47743878Y-68533528D01*
X47597393Y-68653744D01*
X47430275Y-68743071D01*
X47248933Y-68798081D01*
X47107607Y-68812000D01*
X46339993Y-68812000D01*
X46198667Y-68798081D01*
X46017325Y-68743071D01*
X45850207Y-68653744D01*
X45703722Y-68533528D01*
X45583506Y-68387043D01*
X45494179Y-68219925D01*
X45439169Y-68038583D01*
X45420596Y-67850000D01*
X45439169Y-67661417D01*
X45494179Y-67480075D01*
X45583506Y-67312957D01*
X45703722Y-67166472D01*
X45850207Y-67046256D01*
X46017325Y-66956929D01*
X46198667Y-66901919D01*
X46339993Y-66888000D01*
X47107607Y-66888000D01*
X47248933Y-66901919D01*
G37*
G36*
X87901333Y-66831919D02*
G01*
X88082675Y-66886929D01*
X88249793Y-66976256D01*
X88396278Y-67096472D01*
X88516494Y-67242957D01*
X88605821Y-67410075D01*
X88660831Y-67591417D01*
X88679404Y-67780000D01*
X88660831Y-67968583D01*
X88605821Y-68149925D01*
X88516494Y-68317043D01*
X88396278Y-68463528D01*
X88249793Y-68583744D01*
X88082675Y-68673071D01*
X87901333Y-68728081D01*
X87760007Y-68742000D01*
X86992393Y-68742000D01*
X86851067Y-68728081D01*
X86669725Y-68673071D01*
X86502607Y-68583744D01*
X86356122Y-68463528D01*
X86235906Y-68317043D01*
X86146579Y-68149925D01*
X86091569Y-67968583D01*
X86072996Y-67780000D01*
X86091569Y-67591417D01*
X86146579Y-67410075D01*
X86235906Y-67242957D01*
X86356122Y-67096472D01*
X86502607Y-66976256D01*
X86669725Y-66886929D01*
X86851067Y-66831919D01*
X86992393Y-66818000D01*
X87760007Y-66818000D01*
X87901333Y-66831919D01*
G37*
G36*
X87901333Y-64291919D02*
G01*
X88082675Y-64346929D01*
X88249793Y-64436256D01*
X88396278Y-64556472D01*
X88516494Y-64702957D01*
X88605821Y-64870075D01*
X88660831Y-65051417D01*
X88679404Y-65240000D01*
X88660831Y-65428583D01*
X88605821Y-65609925D01*
X88516494Y-65777043D01*
X88396278Y-65923528D01*
X88249793Y-66043744D01*
X88082675Y-66133071D01*
X87901333Y-66188081D01*
X87760007Y-66202000D01*
X86992393Y-66202000D01*
X86851067Y-66188081D01*
X86669725Y-66133071D01*
X86502607Y-66043744D01*
X86356122Y-65923528D01*
X86235906Y-65777043D01*
X86146579Y-65609925D01*
X86091569Y-65428583D01*
X86072996Y-65240000D01*
X86091569Y-65051417D01*
X86146579Y-64870075D01*
X86235906Y-64702957D01*
X86356122Y-64556472D01*
X86502607Y-64436256D01*
X86669725Y-64346929D01*
X86851067Y-64291919D01*
X86992393Y-64278000D01*
X87760007Y-64278000D01*
X87901333Y-64291919D01*
G37*
G36*
X87901333Y-61751919D02*
G01*
X88082675Y-61806929D01*
X88249793Y-61896256D01*
X88396278Y-62016472D01*
X88516494Y-62162957D01*
X88605821Y-62330075D01*
X88660831Y-62511417D01*
X88679404Y-62700000D01*
X88660831Y-62888583D01*
X88605821Y-63069925D01*
X88516494Y-63237043D01*
X88396278Y-63383528D01*
X88249793Y-63503744D01*
X88082675Y-63593071D01*
X87901333Y-63648081D01*
X87760007Y-63662000D01*
X86992393Y-63662000D01*
X86851067Y-63648081D01*
X86669725Y-63593071D01*
X86502607Y-63503744D01*
X86356122Y-63383528D01*
X86235906Y-63237043D01*
X86146579Y-63069925D01*
X86091569Y-62888583D01*
X86072996Y-62700000D01*
X86091569Y-62511417D01*
X86146579Y-62330075D01*
X86235906Y-62162957D01*
X86356122Y-62016472D01*
X86502607Y-61896256D01*
X86669725Y-61806929D01*
X86851067Y-61751919D01*
X86992393Y-61738000D01*
X87760007Y-61738000D01*
X87901333Y-61751919D01*
G37*
G36*
X87901333Y-59211919D02*
G01*
X88082675Y-59266929D01*
X88249793Y-59356256D01*
X88396278Y-59476472D01*
X88516494Y-59622957D01*
X88605821Y-59790075D01*
X88660831Y-59971417D01*
X88679404Y-60160000D01*
X88660831Y-60348583D01*
X88605821Y-60529925D01*
X88516494Y-60697043D01*
X88396278Y-60843528D01*
X88249793Y-60963744D01*
X88082675Y-61053071D01*
X87901333Y-61108081D01*
X87760007Y-61122000D01*
X86992393Y-61122000D01*
X86851067Y-61108081D01*
X86669725Y-61053071D01*
X86502607Y-60963744D01*
X86356122Y-60843528D01*
X86235906Y-60697043D01*
X86146579Y-60529925D01*
X86091569Y-60348583D01*
X86072996Y-60160000D01*
X86091569Y-59971417D01*
X86146579Y-59790075D01*
X86235906Y-59622957D01*
X86356122Y-59476472D01*
X86502607Y-59356256D01*
X86669725Y-59266929D01*
X86851067Y-59211919D01*
X86992393Y-59198000D01*
X87760007Y-59198000D01*
X87901333Y-59211919D01*
G37*
G36*
X45270026Y-57986115D02*
G01*
X45488411Y-58076573D01*
X45488413Y-58076574D01*
X45684955Y-58207899D01*
X45852101Y-58375045D01*
X45981083Y-58568080D01*
X45983427Y-58571589D01*
X46073885Y-58789974D01*
X46120000Y-59021809D01*
X46120000Y-59258191D01*
X46073885Y-59490026D01*
X46018823Y-59622957D01*
X45983426Y-59708413D01*
X45852101Y-59904955D01*
X45684955Y-60072101D01*
X45488413Y-60203426D01*
X45488412Y-60203427D01*
X45488411Y-60203427D01*
X45270026Y-60293885D01*
X45038191Y-60340000D01*
X44801809Y-60340000D01*
X44569974Y-60293885D01*
X44351589Y-60203427D01*
X44351588Y-60203427D01*
X44351587Y-60203426D01*
X44155045Y-60072101D01*
X43987899Y-59904955D01*
X43856574Y-59708413D01*
X43821177Y-59622957D01*
X43766115Y-59490026D01*
X43720000Y-59258191D01*
X43720000Y-59021809D01*
X43766115Y-58789974D01*
X43856573Y-58571589D01*
X43858918Y-58568080D01*
X43987899Y-58375045D01*
X44155045Y-58207899D01*
X44351587Y-58076574D01*
X44351589Y-58076573D01*
X44569974Y-57986115D01*
X44801809Y-57940000D01*
X45038191Y-57940000D01*
X45270026Y-57986115D01*
G37*
G36*
X50350026Y-57986115D02*
G01*
X50568411Y-58076573D01*
X50568413Y-58076574D01*
X50764955Y-58207899D01*
X50932101Y-58375045D01*
X51061083Y-58568080D01*
X51063427Y-58571589D01*
X51154516Y-58791497D01*
X51166067Y-58813108D01*
X51181612Y-58832050D01*
X51200554Y-58847595D01*
X51222165Y-58859146D01*
X51245614Y-58866259D01*
X51270000Y-58868661D01*
X51294386Y-58866259D01*
X51317835Y-58859146D01*
X51339446Y-58847595D01*
X51358388Y-58832050D01*
X51373933Y-58813108D01*
X51385484Y-58791497D01*
X51476573Y-58571589D01*
X51478918Y-58568080D01*
X51607899Y-58375045D01*
X51775045Y-58207899D01*
X51971587Y-58076574D01*
X51971589Y-58076573D01*
X52189974Y-57986115D01*
X52421809Y-57940000D01*
X52658191Y-57940000D01*
X52890026Y-57986115D01*
X53108411Y-58076573D01*
X53108413Y-58076574D01*
X53304955Y-58207899D01*
X53472101Y-58375045D01*
X53601083Y-58568080D01*
X53603427Y-58571589D01*
X53694516Y-58791497D01*
X53706067Y-58813108D01*
X53721612Y-58832050D01*
X53740554Y-58847595D01*
X53762165Y-58859146D01*
X53785614Y-58866259D01*
X53810000Y-58868661D01*
X53834386Y-58866259D01*
X53857835Y-58859146D01*
X53879446Y-58847595D01*
X53898388Y-58832050D01*
X53913933Y-58813108D01*
X53925484Y-58791497D01*
X54016573Y-58571589D01*
X54018918Y-58568080D01*
X54147899Y-58375045D01*
X54315045Y-58207899D01*
X54511587Y-58076574D01*
X54511589Y-58076573D01*
X54729974Y-57986115D01*
X54961809Y-57940000D01*
X55198191Y-57940000D01*
X55430026Y-57986115D01*
X55648411Y-58076573D01*
X55648413Y-58076574D01*
X55844955Y-58207899D01*
X56012101Y-58375045D01*
X56141083Y-58568080D01*
X56143427Y-58571589D01*
X56233885Y-58789974D01*
X56280000Y-59021809D01*
X56280000Y-59258191D01*
X56233885Y-59490026D01*
X56178823Y-59622957D01*
X56143426Y-59708413D01*
X56012101Y-59904955D01*
X55844955Y-60072101D01*
X55648413Y-60203426D01*
X55648412Y-60203427D01*
X55648411Y-60203427D01*
X55430026Y-60293885D01*
X55198191Y-60340000D01*
X54961809Y-60340000D01*
X54729974Y-60293885D01*
X54511589Y-60203427D01*
X54511588Y-60203427D01*
X54511587Y-60203426D01*
X54315045Y-60072101D01*
X54147899Y-59904955D01*
X54016574Y-59708413D01*
X53981177Y-59622957D01*
X53925484Y-59488503D01*
X53913933Y-59466892D01*
X53898388Y-59447950D01*
X53879446Y-59432405D01*
X53857835Y-59420854D01*
X53834386Y-59413741D01*
X53810000Y-59411339D01*
X53785614Y-59413741D01*
X53762165Y-59420854D01*
X53740554Y-59432405D01*
X53721612Y-59447950D01*
X53706067Y-59466892D01*
X53694516Y-59488503D01*
X53638823Y-59622957D01*
X53603426Y-59708413D01*
X53472101Y-59904955D01*
X53304955Y-60072101D01*
X53108413Y-60203426D01*
X53108412Y-60203427D01*
X53108411Y-60203427D01*
X52890026Y-60293885D01*
X52658191Y-60340000D01*
X52421809Y-60340000D01*
X52189974Y-60293885D01*
X51971589Y-60203427D01*
X51971588Y-60203427D01*
X51971587Y-60203426D01*
X51775045Y-60072101D01*
X51607899Y-59904955D01*
X51476574Y-59708413D01*
X51441177Y-59622957D01*
X51385484Y-59488503D01*
X51373933Y-59466892D01*
X51358388Y-59447950D01*
X51339446Y-59432405D01*
X51317835Y-59420854D01*
X51294386Y-59413741D01*
X51270000Y-59411339D01*
X51245614Y-59413741D01*
X51222165Y-59420854D01*
X51200554Y-59432405D01*
X51181612Y-59447950D01*
X51166067Y-59466892D01*
X51154516Y-59488503D01*
X51098823Y-59622957D01*
X51063426Y-59708413D01*
X50932101Y-59904955D01*
X50764955Y-60072101D01*
X50568413Y-60203426D01*
X50568412Y-60203427D01*
X50568411Y-60203427D01*
X50350026Y-60293885D01*
X50118191Y-60340000D01*
X49881809Y-60340000D01*
X49649974Y-60293885D01*
X49431589Y-60203427D01*
X49431588Y-60203427D01*
X49431587Y-60203426D01*
X49235045Y-60072101D01*
X49067899Y-59904955D01*
X48936574Y-59708413D01*
X48901177Y-59622957D01*
X48846115Y-59490026D01*
X48800000Y-59258191D01*
X48800000Y-59021809D01*
X48846115Y-58789974D01*
X48936573Y-58571589D01*
X48938918Y-58568080D01*
X49067899Y-58375045D01*
X49235045Y-58207899D01*
X49431587Y-58076574D01*
X49431589Y-58076573D01*
X49649974Y-57986115D01*
X49881809Y-57940000D01*
X50118191Y-57940000D01*
X50350026Y-57986115D01*
G37*
G36*
X87901333Y-56671919D02*
G01*
X88082675Y-56726929D01*
X88249793Y-56816256D01*
X88396278Y-56936472D01*
X88516494Y-57082957D01*
X88605821Y-57250075D01*
X88660831Y-57431417D01*
X88679404Y-57620000D01*
X88660831Y-57808583D01*
X88660830Y-57808585D01*
X88606977Y-57986116D01*
X88605821Y-57989925D01*
X88516494Y-58157043D01*
X88396278Y-58303528D01*
X88249793Y-58423744D01*
X88082675Y-58513071D01*
X87901333Y-58568081D01*
X87760007Y-58582000D01*
X86992393Y-58582000D01*
X86851067Y-58568081D01*
X86669725Y-58513071D01*
X86502607Y-58423744D01*
X86356122Y-58303528D01*
X86235906Y-58157043D01*
X86146579Y-57989925D01*
X86145424Y-57986116D01*
X86091570Y-57808585D01*
X86091569Y-57808583D01*
X86072996Y-57620000D01*
X86091569Y-57431417D01*
X86146579Y-57250075D01*
X86235906Y-57082957D01*
X86356122Y-56936472D01*
X86502607Y-56816256D01*
X86669725Y-56726929D01*
X86851067Y-56671919D01*
X86992393Y-56658000D01*
X87760007Y-56658000D01*
X87901333Y-56671919D01*
G37*
G36*
X87901333Y-54131919D02*
G01*
X88082675Y-54186929D01*
X88249793Y-54276256D01*
X88396278Y-54396472D01*
X88516494Y-54542957D01*
X88605821Y-54710075D01*
X88660831Y-54891417D01*
X88679404Y-55080000D01*
X88660831Y-55268583D01*
X88605821Y-55449925D01*
X88516494Y-55617043D01*
X88396278Y-55763528D01*
X88249793Y-55883744D01*
X88082675Y-55973071D01*
X87901333Y-56028081D01*
X87760007Y-56042000D01*
X86992393Y-56042000D01*
X86851067Y-56028081D01*
X86669725Y-55973071D01*
X86502607Y-55883744D01*
X86356122Y-55763528D01*
X86235906Y-55617043D01*
X86146579Y-55449925D01*
X86091569Y-55268583D01*
X86072996Y-55080000D01*
X86091569Y-54891417D01*
X86146579Y-54710075D01*
X86235906Y-54542957D01*
X86356122Y-54396472D01*
X86502607Y-54276256D01*
X86669725Y-54186929D01*
X86851067Y-54131919D01*
X86992393Y-54118000D01*
X87760007Y-54118000D01*
X87901333Y-54131919D01*
G37*
G36*
X50350026Y-52906115D02*
G01*
X50568411Y-52996573D01*
X50568413Y-52996574D01*
X50764955Y-53127899D01*
X50932101Y-53295045D01*
X51063427Y-53491589D01*
X51154516Y-53711497D01*
X51166067Y-53733108D01*
X51181612Y-53752050D01*
X51200554Y-53767595D01*
X51222165Y-53779146D01*
X51245614Y-53786259D01*
X51270000Y-53788661D01*
X51294386Y-53786259D01*
X51317835Y-53779146D01*
X51339446Y-53767595D01*
X51358388Y-53752050D01*
X51373933Y-53733108D01*
X51385484Y-53711497D01*
X51476573Y-53491589D01*
X51607899Y-53295045D01*
X51775045Y-53127899D01*
X51971587Y-52996574D01*
X51971589Y-52996573D01*
X52189974Y-52906115D01*
X52421809Y-52860000D01*
X52658191Y-52860000D01*
X52890026Y-52906115D01*
X53108411Y-52996573D01*
X53108413Y-52996574D01*
X53304955Y-53127899D01*
X53472101Y-53295045D01*
X53603427Y-53491589D01*
X53694516Y-53711497D01*
X53706067Y-53733108D01*
X53721612Y-53752050D01*
X53740554Y-53767595D01*
X53762165Y-53779146D01*
X53785614Y-53786259D01*
X53810000Y-53788661D01*
X53834386Y-53786259D01*
X53857835Y-53779146D01*
X53879446Y-53767595D01*
X53898388Y-53752050D01*
X53913933Y-53733108D01*
X53925484Y-53711497D01*
X54016573Y-53491589D01*
X54147899Y-53295045D01*
X54315045Y-53127899D01*
X54511587Y-52996574D01*
X54511589Y-52996573D01*
X54729974Y-52906115D01*
X54961809Y-52860000D01*
X55198191Y-52860000D01*
X55430026Y-52906115D01*
X55648411Y-52996573D01*
X55648413Y-52996574D01*
X55844955Y-53127899D01*
X56012101Y-53295045D01*
X56143427Y-53491589D01*
X56233885Y-53709974D01*
X56280000Y-53941809D01*
X56280000Y-54178191D01*
X56233885Y-54410026D01*
X56178823Y-54542957D01*
X56143426Y-54628413D01*
X56012101Y-54824955D01*
X55844955Y-54992101D01*
X55648413Y-55123426D01*
X55648412Y-55123427D01*
X55648411Y-55123427D01*
X55430026Y-55213885D01*
X55198191Y-55260000D01*
X54961809Y-55260000D01*
X54729974Y-55213885D01*
X54511589Y-55123427D01*
X54511588Y-55123427D01*
X54511587Y-55123426D01*
X54315045Y-54992101D01*
X54147899Y-54824955D01*
X54016574Y-54628413D01*
X53981177Y-54542957D01*
X53925484Y-54408503D01*
X53913933Y-54386892D01*
X53898388Y-54367950D01*
X53879446Y-54352405D01*
X53857835Y-54340854D01*
X53834386Y-54333741D01*
X53810000Y-54331339D01*
X53785614Y-54333741D01*
X53762165Y-54340854D01*
X53740554Y-54352405D01*
X53721612Y-54367950D01*
X53706067Y-54386892D01*
X53694516Y-54408503D01*
X53638823Y-54542957D01*
X53603426Y-54628413D01*
X53472101Y-54824955D01*
X53304955Y-54992101D01*
X53108413Y-55123426D01*
X53108412Y-55123427D01*
X53108411Y-55123427D01*
X52890026Y-55213885D01*
X52658191Y-55260000D01*
X52421809Y-55260000D01*
X52189974Y-55213885D01*
X51971589Y-55123427D01*
X51971588Y-55123427D01*
X51971587Y-55123426D01*
X51775045Y-54992101D01*
X51607899Y-54824955D01*
X51476574Y-54628413D01*
X51441177Y-54542957D01*
X51385484Y-54408503D01*
X51373933Y-54386892D01*
X51358388Y-54367950D01*
X51339446Y-54352405D01*
X51317835Y-54340854D01*
X51294386Y-54333741D01*
X51270000Y-54331339D01*
X51245614Y-54333741D01*
X51222165Y-54340854D01*
X51200554Y-54352405D01*
X51181612Y-54367950D01*
X51166067Y-54386892D01*
X51154516Y-54408503D01*
X51098823Y-54542957D01*
X51063426Y-54628413D01*
X50932101Y-54824955D01*
X50764955Y-54992101D01*
X50568413Y-55123426D01*
X50568412Y-55123427D01*
X50568411Y-55123427D01*
X50350026Y-55213885D01*
X50118191Y-55260000D01*
X49881809Y-55260000D01*
X49649974Y-55213885D01*
X49431589Y-55123427D01*
X49431588Y-55123427D01*
X49431587Y-55123426D01*
X49235045Y-54992101D01*
X49067899Y-54824955D01*
X48936574Y-54628413D01*
X48901177Y-54542957D01*
X48846115Y-54410026D01*
X48800000Y-54178191D01*
X48800000Y-53941809D01*
X48846115Y-53709974D01*
X48936573Y-53491589D01*
X49067899Y-53295045D01*
X49235045Y-53127899D01*
X49431587Y-52996574D01*
X49431589Y-52996573D01*
X49649974Y-52906115D01*
X49881809Y-52860000D01*
X50118191Y-52860000D01*
X50350026Y-52906115D01*
G37*
G36*
X45270026Y-52906115D02*
G01*
X45488411Y-52996573D01*
X45488413Y-52996574D01*
X45684955Y-53127899D01*
X45852101Y-53295045D01*
X45983427Y-53491589D01*
X46073885Y-53709974D01*
X46120000Y-53941809D01*
X46120000Y-54178191D01*
X46073885Y-54410026D01*
X46018823Y-54542957D01*
X45983426Y-54628413D01*
X45852101Y-54824955D01*
X45684955Y-54992101D01*
X45488413Y-55123426D01*
X45488412Y-55123427D01*
X45488411Y-55123427D01*
X45270026Y-55213885D01*
X45038191Y-55260000D01*
X44801809Y-55260000D01*
X44569974Y-55213885D01*
X44351589Y-55123427D01*
X44351588Y-55123427D01*
X44351587Y-55123426D01*
X44155045Y-54992101D01*
X43987899Y-54824955D01*
X43856574Y-54628413D01*
X43821177Y-54542957D01*
X43766115Y-54410026D01*
X43720000Y-54178191D01*
X43720000Y-53941809D01*
X43766115Y-53709974D01*
X43856573Y-53491589D01*
X43987899Y-53295045D01*
X44155045Y-53127899D01*
X44351587Y-52996574D01*
X44351589Y-52996573D01*
X44569974Y-52906115D01*
X44801809Y-52860000D01*
X45038191Y-52860000D01*
X45270026Y-52906115D01*
G37*
G36*
X88674750Y-53502000D02*
G01*
X86077650Y-53502000D01*
X86077650Y-51578000D01*
X88674750Y-51578000D01*
X88674750Y-53502000D01*
G37*
G36*
X47822350Y-49442000D02*
G01*
X45225250Y-49442000D01*
X45225250Y-47518000D01*
X47822350Y-47518000D01*
X47822350Y-49442000D01*
G37*
G36*
X86200000Y-47600000D02*
G01*
X83800000Y-47600000D01*
X83800000Y-45200000D01*
X86200000Y-45200000D01*
X86200000Y-47600000D01*
G37*
G36*
X47048933Y-44991919D02*
G01*
X47230275Y-45046929D01*
X47397393Y-45136256D01*
X47543878Y-45256472D01*
X47664094Y-45402957D01*
X47753421Y-45570075D01*
X47808431Y-45751417D01*
X47827004Y-45940000D01*
X47808431Y-46128583D01*
X47753421Y-46309925D01*
X47664094Y-46477043D01*
X47543878Y-46623528D01*
X47397393Y-46743744D01*
X47230275Y-46833071D01*
X47048933Y-46888081D01*
X46907607Y-46902000D01*
X46139993Y-46902000D01*
X45998667Y-46888081D01*
X45817325Y-46833071D01*
X45650207Y-46743744D01*
X45503722Y-46623528D01*
X45383506Y-46477043D01*
X45294179Y-46309925D01*
X45239169Y-46128583D01*
X45220596Y-45940000D01*
X45239169Y-45751417D01*
X45294179Y-45570075D01*
X45383506Y-45402957D01*
X45503722Y-45256472D01*
X45650207Y-45136256D01*
X45817325Y-45046929D01*
X45998667Y-44991919D01*
X46139993Y-44978000D01*
X46907607Y-44978000D01*
X47048933Y-44991919D01*
G37*
G36*
X47048933Y-42451919D02*
G01*
X47230275Y-42506929D01*
X47397393Y-42596256D01*
X47543878Y-42716472D01*
X47664094Y-42862957D01*
X47753421Y-43030075D01*
X47808431Y-43211417D01*
X47827004Y-43400000D01*
X47808431Y-43588583D01*
X47753421Y-43769925D01*
X47664094Y-43937043D01*
X47543878Y-44083528D01*
X47397393Y-44203744D01*
X47230275Y-44293071D01*
X47048933Y-44348081D01*
X46907607Y-44362000D01*
X46139993Y-44362000D01*
X45998667Y-44348081D01*
X45817325Y-44293071D01*
X45650207Y-44203744D01*
X45503722Y-44083528D01*
X45383506Y-43937043D01*
X45294179Y-43769925D01*
X45239169Y-43588583D01*
X45220596Y-43400000D01*
X45239169Y-43211417D01*
X45294179Y-43030075D01*
X45383506Y-42862957D01*
X45503722Y-42716472D01*
X45650207Y-42596256D01*
X45817325Y-42506929D01*
X45998667Y-42451919D01*
X46139993Y-42438000D01*
X46907607Y-42438000D01*
X47048933Y-42451919D01*
G37*
G36*
X47048933Y-39911919D02*
G01*
X47230275Y-39966929D01*
X47397393Y-40056256D01*
X47543878Y-40176472D01*
X47664094Y-40322957D01*
X47753421Y-40490075D01*
X47808431Y-40671417D01*
X47827004Y-40860000D01*
X47808431Y-41048583D01*
X47753421Y-41229925D01*
X47664094Y-41397043D01*
X47543878Y-41543528D01*
X47397393Y-41663744D01*
X47230275Y-41753071D01*
X47048933Y-41808081D01*
X46907607Y-41822000D01*
X46139993Y-41822000D01*
X45998667Y-41808081D01*
X45817325Y-41753071D01*
X45650207Y-41663744D01*
X45503722Y-41543528D01*
X45383506Y-41397043D01*
X45294179Y-41229925D01*
X45239169Y-41048583D01*
X45220596Y-40860000D01*
X45239169Y-40671417D01*
X45294179Y-40490075D01*
X45383506Y-40322957D01*
X45503722Y-40176472D01*
X45650207Y-40056256D01*
X45817325Y-39966929D01*
X45998667Y-39911919D01*
X46139993Y-39898000D01*
X46907607Y-39898000D01*
X47048933Y-39911919D01*
G37*
G36*
X85350026Y-37646115D02*
G01*
X85568411Y-37736573D01*
X85568413Y-37736574D01*
X85764955Y-37867899D01*
X85932101Y-38035045D01*
X85996495Y-38131417D01*
X86063427Y-38231589D01*
X86153885Y-38449974D01*
X86200000Y-38681809D01*
X86200000Y-38918191D01*
X86153885Y-39150026D01*
X86063427Y-39368411D01*
X86063426Y-39368413D01*
X85932101Y-39564955D01*
X85764955Y-39732101D01*
X85568413Y-39863426D01*
X85568412Y-39863427D01*
X85568411Y-39863427D01*
X85350026Y-39953885D01*
X85118191Y-40000000D01*
X84881809Y-40000000D01*
X84649974Y-39953885D01*
X84431589Y-39863427D01*
X84431588Y-39863427D01*
X84431587Y-39863426D01*
X84235045Y-39732101D01*
X84067899Y-39564955D01*
X83936574Y-39368413D01*
X83936573Y-39368411D01*
X83846115Y-39150026D01*
X83800000Y-38918191D01*
X83800000Y-38681809D01*
X83846115Y-38449974D01*
X83936573Y-38231589D01*
X84003506Y-38131417D01*
X84067899Y-38035045D01*
X84235045Y-37867899D01*
X84431587Y-37736574D01*
X84431589Y-37736573D01*
X84649974Y-37646115D01*
X84881809Y-37600000D01*
X85118191Y-37600000D01*
X85350026Y-37646115D01*
G37*
G36*
X47048933Y-37371919D02*
G01*
X47230275Y-37426929D01*
X47397393Y-37516256D01*
X47543878Y-37636472D01*
X47664094Y-37782957D01*
X47753421Y-37950075D01*
X47808431Y-38131417D01*
X47827004Y-38320000D01*
X47808431Y-38508583D01*
X47753421Y-38689925D01*
X47664094Y-38857043D01*
X47543878Y-39003528D01*
X47397393Y-39123744D01*
X47230275Y-39213071D01*
X47048933Y-39268081D01*
X46907607Y-39282000D01*
X46139993Y-39282000D01*
X45998667Y-39268081D01*
X45817325Y-39213071D01*
X45650207Y-39123744D01*
X45503722Y-39003528D01*
X45383506Y-38857043D01*
X45294179Y-38689925D01*
X45239169Y-38508583D01*
X45220596Y-38320000D01*
X45239169Y-38131417D01*
X45294179Y-37950075D01*
X45383506Y-37782957D01*
X45503722Y-37636472D01*
X45650207Y-37516256D01*
X45817325Y-37426929D01*
X45998667Y-37371919D01*
X46139993Y-37358000D01*
X46907607Y-37358000D01*
X47048933Y-37371919D01*
G37*
G36*
X48079249Y-27442188D02*
G01*
X48752606Y-27721101D01*
X48752607Y-27721102D01*
X49358613Y-28126022D01*
X49873978Y-28641387D01*
X50144537Y-29046308D01*
X50278899Y-29247394D01*
X50557812Y-29920751D01*
X50700000Y-30635580D01*
X50700000Y-31364420D01*
X50557812Y-32079249D01*
X50278899Y-32752606D01*
X50278898Y-32752607D01*
X49873978Y-33358613D01*
X49358613Y-33873978D01*
X48953692Y-34144537D01*
X48752606Y-34278899D01*
X48079249Y-34557812D01*
X47364420Y-34700000D01*
X46635580Y-34700000D01*
X45920751Y-34557812D01*
X45247394Y-34278899D01*
X45046308Y-34144537D01*
X44641387Y-33873978D01*
X44126022Y-33358613D01*
X43721102Y-32752607D01*
X43721101Y-32752606D01*
X43442188Y-32079249D01*
X43300000Y-31364420D01*
X43300000Y-30635580D01*
X43442188Y-29920751D01*
X43721101Y-29247394D01*
X43855463Y-29046308D01*
X44126022Y-28641387D01*
X44641387Y-28126022D01*
X45247393Y-27721102D01*
X45247394Y-27721101D01*
X45920751Y-27442188D01*
X46635580Y-27300000D01*
X47364420Y-27300000D01*
X48079249Y-27442188D01*
G37*
G36*
X88079249Y-27442188D02*
G01*
X88752606Y-27721101D01*
X88752607Y-27721102D01*
X89358613Y-28126022D01*
X89873978Y-28641387D01*
X90144537Y-29046308D01*
X90278899Y-29247394D01*
X90557812Y-29920751D01*
X90700000Y-30635580D01*
X90700000Y-31364420D01*
X90557812Y-32079249D01*
X90278899Y-32752606D01*
X90278898Y-32752607D01*
X89873978Y-33358613D01*
X89358613Y-33873978D01*
X88953692Y-34144537D01*
X88752606Y-34278899D01*
X88079249Y-34557812D01*
X87364420Y-34700000D01*
X86635580Y-34700000D01*
X85920751Y-34557812D01*
X85247394Y-34278899D01*
X85046308Y-34144537D01*
X84641387Y-33873978D01*
X84126022Y-33358613D01*
X83721102Y-32752607D01*
X83721101Y-32752606D01*
X83442188Y-32079249D01*
X83300000Y-31364420D01*
X83300000Y-30635580D01*
X83442188Y-29920751D01*
X83721101Y-29247394D01*
X83855463Y-29046308D01*
X84126022Y-28641387D01*
X84641387Y-28126022D01*
X85247393Y-27721102D01*
X85247394Y-27721101D01*
X85920751Y-27442188D01*
X86635580Y-27300000D01*
X87364420Y-27300000D01*
X88079249Y-27442188D01*
G37*
M02*
