G04 #@! TF.FileFunction,Legend,Top*
%FSLAX46Y46*%
G04 Gerber Fmt 4.6, Leading zero omitted, Abs format (unit mm)*
G04 Created by KiCad (PCBNEW 4.0.7) date 12/01/17 10:35:18*
%MOMM*%
%LPD*%
G01*
G04 APERTURE LIST*
%ADD10C,0.100000*%
%ADD11C,0.300000*%
%ADD12C,0.254000*%
%ADD13C,0.050000*%
%ADD14C,0.150000*%
%ADD15C,0.381000*%
%ADD16C,0.120000*%
%ADD17C,0.304800*%
%ADD18C,0.125000*%
G04 APERTURE END LIST*
D10*
D11*
X167642857Y-43628571D02*
X167928571Y-43628571D01*
X168071429Y-43700000D01*
X168214286Y-43842857D01*
X168285714Y-44128571D01*
X168285714Y-44628571D01*
X168214286Y-44914286D01*
X168071429Y-45057143D01*
X167928571Y-45128571D01*
X167642857Y-45128571D01*
X167500000Y-45057143D01*
X167357143Y-44914286D01*
X167285714Y-44628571D01*
X167285714Y-44128571D01*
X167357143Y-43842857D01*
X167500000Y-43700000D01*
X167642857Y-43628571D01*
X168928572Y-45128571D02*
X168928572Y-43628571D01*
X169785715Y-45128571D01*
X169785715Y-43628571D01*
X170357144Y-43628571D02*
X171357144Y-43628571D01*
X170714287Y-45128571D01*
X171928572Y-44342857D02*
X172428572Y-44342857D01*
X172642858Y-45128571D02*
X171928572Y-45128571D01*
X171928572Y-43628571D01*
X172642858Y-43628571D01*
X174285715Y-45271429D02*
X174142858Y-45200000D01*
X174000001Y-45057143D01*
X173785715Y-44842857D01*
X173642858Y-44771429D01*
X173500001Y-44771429D01*
X173571429Y-45128571D02*
X173428572Y-45057143D01*
X173285715Y-44914286D01*
X173214286Y-44628571D01*
X173214286Y-44128571D01*
X173285715Y-43842857D01*
X173428572Y-43700000D01*
X173571429Y-43628571D01*
X173857143Y-43628571D01*
X174000001Y-43700000D01*
X174142858Y-43842857D01*
X174214286Y-44128571D01*
X174214286Y-44628571D01*
X174142858Y-44914286D01*
X174000001Y-45057143D01*
X173857143Y-45128571D01*
X173571429Y-45128571D01*
X167285714Y-47607143D02*
X167500000Y-47678571D01*
X167857143Y-47678571D01*
X168000000Y-47607143D01*
X168071429Y-47535714D01*
X168142857Y-47392857D01*
X168142857Y-47250000D01*
X168071429Y-47107143D01*
X168000000Y-47035714D01*
X167857143Y-46964286D01*
X167571429Y-46892857D01*
X167428571Y-46821429D01*
X167357143Y-46750000D01*
X167285714Y-46607143D01*
X167285714Y-46464286D01*
X167357143Y-46321429D01*
X167428571Y-46250000D01*
X167571429Y-46178571D01*
X167928571Y-46178571D01*
X168142857Y-46250000D01*
X168714285Y-47607143D02*
X168928571Y-47678571D01*
X169285714Y-47678571D01*
X169428571Y-47607143D01*
X169500000Y-47535714D01*
X169571428Y-47392857D01*
X169571428Y-47250000D01*
X169500000Y-47107143D01*
X169428571Y-47035714D01*
X169285714Y-46964286D01*
X169000000Y-46892857D01*
X168857142Y-46821429D01*
X168785714Y-46750000D01*
X168714285Y-46607143D01*
X168714285Y-46464286D01*
X168785714Y-46321429D01*
X168857142Y-46250000D01*
X169000000Y-46178571D01*
X169357142Y-46178571D01*
X169571428Y-46250000D01*
X170214285Y-47678571D02*
X170214285Y-46178571D01*
X170785713Y-46178571D01*
X170928571Y-46250000D01*
X170999999Y-46321429D01*
X171071428Y-46464286D01*
X171071428Y-46678571D01*
X170999999Y-46821429D01*
X170928571Y-46892857D01*
X170785713Y-46964286D01*
X170214285Y-46964286D01*
X171642856Y-47250000D02*
X172357142Y-47250000D01*
X171499999Y-47678571D02*
X171999999Y-46178571D01*
X172499999Y-47678571D01*
X174785713Y-47607143D02*
X174642856Y-47678571D01*
X174357142Y-47678571D01*
X174214284Y-47607143D01*
X174142856Y-47535714D01*
X174071427Y-47392857D01*
X174071427Y-46964286D01*
X174142856Y-46821429D01*
X174214284Y-46750000D01*
X174357142Y-46678571D01*
X174642856Y-46678571D01*
X174785713Y-46750000D01*
X175642856Y-47678571D02*
X175499998Y-47607143D01*
X175428570Y-47535714D01*
X175357141Y-47392857D01*
X175357141Y-46964286D01*
X175428570Y-46821429D01*
X175499998Y-46750000D01*
X175642856Y-46678571D01*
X175857141Y-46678571D01*
X175999998Y-46750000D01*
X176071427Y-46821429D01*
X176142856Y-46964286D01*
X176142856Y-47392857D01*
X176071427Y-47535714D01*
X175999998Y-47607143D01*
X175857141Y-47678571D01*
X175642856Y-47678571D01*
X176785713Y-46678571D02*
X176785713Y-47678571D01*
X176785713Y-46821429D02*
X176857141Y-46750000D01*
X176999999Y-46678571D01*
X177214284Y-46678571D01*
X177357141Y-46750000D01*
X177428570Y-46892857D01*
X177428570Y-47678571D01*
X177928570Y-46678571D02*
X178499999Y-46678571D01*
X178142856Y-46178571D02*
X178142856Y-47464286D01*
X178214284Y-47607143D01*
X178357142Y-47678571D01*
X178499999Y-47678571D01*
X178999999Y-47678571D02*
X178999999Y-46678571D01*
X178999999Y-46964286D02*
X179071427Y-46821429D01*
X179142856Y-46750000D01*
X179285713Y-46678571D01*
X179428570Y-46678571D01*
X180142856Y-47678571D02*
X179999998Y-47607143D01*
X179928570Y-47535714D01*
X179857141Y-47392857D01*
X179857141Y-46964286D01*
X179928570Y-46821429D01*
X179999998Y-46750000D01*
X180142856Y-46678571D01*
X180357141Y-46678571D01*
X180499998Y-46750000D01*
X180571427Y-46821429D01*
X180642856Y-46964286D01*
X180642856Y-47392857D01*
X180571427Y-47535714D01*
X180499998Y-47607143D01*
X180357141Y-47678571D01*
X180142856Y-47678571D01*
X181499999Y-47678571D02*
X181357141Y-47607143D01*
X181285713Y-47464286D01*
X181285713Y-46178571D01*
X183214284Y-47678571D02*
X183214284Y-46178571D01*
X183214284Y-46750000D02*
X183357141Y-46678571D01*
X183642855Y-46678571D01*
X183785712Y-46750000D01*
X183857141Y-46821429D01*
X183928570Y-46964286D01*
X183928570Y-47392857D01*
X183857141Y-47535714D01*
X183785712Y-47607143D01*
X183642855Y-47678571D01*
X183357141Y-47678571D01*
X183214284Y-47607143D01*
X184785713Y-47678571D02*
X184642855Y-47607143D01*
X184571427Y-47535714D01*
X184499998Y-47392857D01*
X184499998Y-46964286D01*
X184571427Y-46821429D01*
X184642855Y-46750000D01*
X184785713Y-46678571D01*
X184999998Y-46678571D01*
X185142855Y-46750000D01*
X185214284Y-46821429D01*
X185285713Y-46964286D01*
X185285713Y-47392857D01*
X185214284Y-47535714D01*
X185142855Y-47607143D01*
X184999998Y-47678571D01*
X184785713Y-47678571D01*
X186571427Y-47678571D02*
X186571427Y-46892857D01*
X186499998Y-46750000D01*
X186357141Y-46678571D01*
X186071427Y-46678571D01*
X185928570Y-46750000D01*
X186571427Y-47607143D02*
X186428570Y-47678571D01*
X186071427Y-47678571D01*
X185928570Y-47607143D01*
X185857141Y-47464286D01*
X185857141Y-47321429D01*
X185928570Y-47178571D01*
X186071427Y-47107143D01*
X186428570Y-47107143D01*
X186571427Y-47035714D01*
X187285713Y-47678571D02*
X187285713Y-46678571D01*
X187285713Y-46964286D02*
X187357141Y-46821429D01*
X187428570Y-46750000D01*
X187571427Y-46678571D01*
X187714284Y-46678571D01*
X188857141Y-47678571D02*
X188857141Y-46178571D01*
X188857141Y-47607143D02*
X188714284Y-47678571D01*
X188428570Y-47678571D01*
X188285712Y-47607143D01*
X188214284Y-47535714D01*
X188142855Y-47392857D01*
X188142855Y-46964286D01*
X188214284Y-46821429D01*
X188285712Y-46750000D01*
X188428570Y-46678571D01*
X188714284Y-46678571D01*
X188857141Y-46750000D01*
X167357143Y-50228571D02*
X167357143Y-49228571D01*
X167357143Y-49514286D02*
X167428571Y-49371429D01*
X167500000Y-49300000D01*
X167642857Y-49228571D01*
X167785714Y-49228571D01*
X168500000Y-50228571D02*
X168357142Y-50157143D01*
X168285714Y-50085714D01*
X168214285Y-49942857D01*
X168214285Y-49514286D01*
X168285714Y-49371429D01*
X168357142Y-49300000D01*
X168500000Y-49228571D01*
X168714285Y-49228571D01*
X168857142Y-49300000D01*
X168928571Y-49371429D01*
X169000000Y-49514286D01*
X169000000Y-49942857D01*
X168928571Y-50085714D01*
X168857142Y-50157143D01*
X168714285Y-50228571D01*
X168500000Y-50228571D01*
X170285714Y-49228571D02*
X170285714Y-50228571D01*
X169642857Y-49228571D02*
X169642857Y-50014286D01*
X169714285Y-50157143D01*
X169857143Y-50228571D01*
X170071428Y-50228571D01*
X170214285Y-50157143D01*
X170285714Y-50085714D01*
X170785714Y-49228571D02*
X171357143Y-49228571D01*
X171000000Y-48728571D02*
X171000000Y-50014286D01*
X171071428Y-50157143D01*
X171214286Y-50228571D01*
X171357143Y-50228571D01*
X171857143Y-50228571D02*
X171857143Y-49228571D01*
X171857143Y-48728571D02*
X171785714Y-48800000D01*
X171857143Y-48871429D01*
X171928571Y-48800000D01*
X171857143Y-48728571D01*
X171857143Y-48871429D01*
X172571429Y-49228571D02*
X172571429Y-50228571D01*
X172571429Y-49371429D02*
X172642857Y-49300000D01*
X172785715Y-49228571D01*
X173000000Y-49228571D01*
X173142857Y-49300000D01*
X173214286Y-49442857D01*
X173214286Y-50228571D01*
X174571429Y-49228571D02*
X174571429Y-50442857D01*
X174500000Y-50585714D01*
X174428572Y-50657143D01*
X174285715Y-50728571D01*
X174071429Y-50728571D01*
X173928572Y-50657143D01*
X174571429Y-50157143D02*
X174428572Y-50228571D01*
X174142858Y-50228571D01*
X174000000Y-50157143D01*
X173928572Y-50085714D01*
X173857143Y-49942857D01*
X173857143Y-49514286D01*
X173928572Y-49371429D01*
X174000000Y-49300000D01*
X174142858Y-49228571D01*
X174428572Y-49228571D01*
X174571429Y-49300000D01*
X176428572Y-50228571D02*
X176428572Y-48728571D01*
X176428572Y-49300000D02*
X176571429Y-49228571D01*
X176857143Y-49228571D01*
X177000000Y-49300000D01*
X177071429Y-49371429D01*
X177142858Y-49514286D01*
X177142858Y-49942857D01*
X177071429Y-50085714D01*
X177000000Y-50157143D01*
X176857143Y-50228571D01*
X176571429Y-50228571D01*
X176428572Y-50157143D01*
X177642858Y-49228571D02*
X178000001Y-50228571D01*
X178357143Y-49228571D02*
X178000001Y-50228571D01*
X177857143Y-50585714D01*
X177785715Y-50657143D01*
X177642858Y-50728571D01*
X179857143Y-49228571D02*
X180428572Y-49228571D01*
X180071429Y-50228571D02*
X180071429Y-48942857D01*
X180142857Y-48800000D01*
X180285715Y-48728571D01*
X180428572Y-48728571D01*
X181571429Y-48728571D02*
X181285715Y-48728571D01*
X181142858Y-48800000D01*
X181071429Y-48871429D01*
X180928572Y-49085714D01*
X180857143Y-49371429D01*
X180857143Y-49942857D01*
X180928572Y-50085714D01*
X181000000Y-50157143D01*
X181142858Y-50228571D01*
X181428572Y-50228571D01*
X181571429Y-50157143D01*
X181642858Y-50085714D01*
X181714286Y-49942857D01*
X181714286Y-49585714D01*
X181642858Y-49442857D01*
X181571429Y-49371429D01*
X181428572Y-49300000D01*
X181142858Y-49300000D01*
X181000000Y-49371429D01*
X180928572Y-49442857D01*
X180857143Y-49585714D01*
X182357143Y-50228571D02*
X182357143Y-49228571D01*
X182357143Y-48728571D02*
X182285714Y-48800000D01*
X182357143Y-48871429D01*
X182428571Y-48800000D01*
X182357143Y-48728571D01*
X182357143Y-48871429D01*
X182857143Y-49228571D02*
X183428572Y-49228571D01*
X183071429Y-48728571D02*
X183071429Y-50014286D01*
X183142857Y-50157143D01*
X183285715Y-50228571D01*
X183428572Y-50228571D01*
X184571429Y-49228571D02*
X184571429Y-50228571D01*
X183928572Y-49228571D02*
X183928572Y-50014286D01*
X184000000Y-50157143D01*
X184142858Y-50228571D01*
X184357143Y-50228571D01*
X184500000Y-50157143D01*
X184571429Y-50085714D01*
D12*
X162714000Y-122286000D02*
X162714000Y-117714000D01*
X162206000Y-117714000D02*
X162206000Y-122286000D01*
X162714000Y-117714000D02*
X161825000Y-117714000D01*
X162714000Y-122286000D02*
X161825000Y-122286000D01*
X168175000Y-120762000D02*
X168175000Y-122540000D01*
X168175000Y-119238000D02*
X168175000Y-117460000D01*
X167921000Y-119492000D02*
X168175000Y-119238000D01*
X167921000Y-120508000D02*
X168175000Y-120762000D01*
X167921000Y-120508000D02*
X167921000Y-119492000D01*
X161825000Y-117460000D02*
X168175000Y-117460000D01*
X168175000Y-122540000D02*
X161825000Y-122540000D01*
X161825000Y-122540000D02*
X161825000Y-117460000D01*
D13*
X177050000Y-85500000D02*
X177050000Y-89500000D01*
X177050000Y-89500000D02*
X169450000Y-89500000D01*
X169450000Y-89500000D02*
X169450000Y-85500000D01*
X169450000Y-85500000D02*
X177050000Y-85500000D01*
D14*
X181000000Y-57400000D02*
X181000000Y-57900000D01*
X181000000Y-56600000D02*
X181000000Y-56100000D01*
X181100000Y-56800000D02*
X181300000Y-57300000D01*
X181300000Y-57300000D02*
X180700000Y-57300000D01*
X180700000Y-57300000D02*
X180900000Y-56800000D01*
X181500000Y-56700000D02*
X180500000Y-56700000D01*
X179175000Y-58905000D02*
X179175000Y-60175000D01*
X179175000Y-55095000D02*
X179175000Y-53825000D01*
X179810000Y-54460000D02*
X178540000Y-54460000D01*
X169650000Y-60810000D02*
X167110000Y-60810000D01*
X167110000Y-60810000D02*
X167110000Y-53190000D01*
X167110000Y-53190000D02*
X169650000Y-53190000D01*
X182350000Y-53190000D02*
X169650000Y-53190000D01*
X182350000Y-53190000D02*
X182350000Y-60810000D01*
X182350000Y-60810000D02*
X169650000Y-60810000D01*
D15*
X196350000Y-74640000D02*
X196350000Y-117820000D01*
X196350000Y-117820000D02*
X183650000Y-117820000D01*
X183650000Y-117820000D02*
X183650000Y-74640000D01*
X183650000Y-74640000D02*
X196350000Y-74640000D01*
X188730000Y-74640000D02*
X188730000Y-75910000D01*
X188730000Y-75910000D02*
X191270000Y-75910000D01*
X191270000Y-75910000D02*
X191270000Y-74640000D01*
D12*
X202325000Y-63912000D02*
X202325000Y-77628000D01*
X207786000Y-68484000D02*
X207786000Y-80676000D01*
X208294000Y-68484000D02*
X208294000Y-80676000D01*
X208675000Y-58070000D02*
X208675000Y-80930000D01*
X208294000Y-67976000D02*
X208294000Y-58324000D01*
X207786000Y-67976000D02*
X207786000Y-58324000D01*
X207786000Y-58324000D02*
X208675000Y-58324000D01*
X207786000Y-80676000D02*
X208675000Y-80676000D01*
X207786000Y-68484000D02*
X208675000Y-68484000D01*
X207786000Y-67976000D02*
X208675000Y-67976000D01*
X202325000Y-62388000D02*
X202325000Y-58070000D01*
X202579000Y-77882000D02*
X202579000Y-78898000D01*
X202579000Y-77882000D02*
X202325000Y-77628000D01*
X202579000Y-78898000D02*
X202325000Y-79152000D01*
X202325000Y-79152000D02*
X202325000Y-80930000D01*
X202579000Y-63658000D02*
X202325000Y-63912000D01*
X202579000Y-62642000D02*
X202325000Y-62388000D01*
X202579000Y-62642000D02*
X202579000Y-63658000D01*
X208675000Y-80930000D02*
X202325000Y-80930000D01*
X202325000Y-58070000D02*
X208675000Y-58070000D01*
D16*
X170300000Y-125650000D02*
X171300000Y-125650000D01*
X171300000Y-123950000D02*
X170300000Y-123950000D01*
X184150000Y-125800000D02*
X184150000Y-117500000D01*
X187850000Y-125800000D02*
X187850000Y-117500000D01*
X184150000Y-125800000D02*
X187850000Y-125800000D01*
X188650000Y-121000000D02*
X188650000Y-122000000D01*
X190350000Y-122000000D02*
X190350000Y-121000000D01*
X180650000Y-115900000D02*
X180650000Y-114900000D01*
X178950000Y-114900000D02*
X178950000Y-115900000D01*
X184650000Y-112000000D02*
X184650000Y-113000000D01*
X186350000Y-113000000D02*
X186350000Y-112000000D01*
X186000000Y-54650000D02*
X185000000Y-54650000D01*
X185000000Y-56350000D02*
X186000000Y-56350000D01*
X177400000Y-72700000D02*
X177400000Y-74300000D01*
X177400000Y-74300000D02*
X180000000Y-74300000D01*
X177400000Y-72700000D02*
X180000000Y-72700000D01*
D12*
X162714000Y-78206000D02*
X162714000Y-73634000D01*
X162206000Y-78206000D02*
X162206000Y-73634000D01*
X162206000Y-78714000D02*
X162206000Y-88366000D01*
X162714000Y-78714000D02*
X162714000Y-88366000D01*
X162714000Y-88366000D02*
X161825000Y-88366000D01*
X162714000Y-73634000D02*
X161825000Y-73634000D01*
X162714000Y-78206000D02*
X161825000Y-78206000D01*
X162714000Y-78714000D02*
X161825000Y-78714000D01*
X161825000Y-88620000D02*
X161825000Y-73380000D01*
X168175000Y-82778000D02*
X168175000Y-76682000D01*
X168175000Y-84302000D02*
X168175000Y-88620000D01*
X167921000Y-76428000D02*
X167921000Y-75412000D01*
X167921000Y-76428000D02*
X168175000Y-76682000D01*
X167921000Y-75412000D02*
X168175000Y-75158000D01*
X168175000Y-75158000D02*
X168175000Y-73380000D01*
X167921000Y-83032000D02*
X168175000Y-82778000D01*
X167921000Y-84048000D02*
X168175000Y-84302000D01*
X167921000Y-84048000D02*
X167921000Y-83032000D01*
X161825000Y-73380000D02*
X168175000Y-73380000D01*
X168175000Y-88620000D02*
X161825000Y-88620000D01*
X162714000Y-105286000D02*
X162714000Y-90554000D01*
X162206000Y-105286000D02*
X162206000Y-90554000D01*
X161825000Y-115700000D02*
X161825000Y-90300000D01*
X168175000Y-109858000D02*
X168175000Y-93602000D01*
X162206000Y-105794000D02*
X162206000Y-115446000D01*
X162714000Y-105794000D02*
X162714000Y-115446000D01*
X162714000Y-115446000D02*
X161825000Y-115446000D01*
X162714000Y-90554000D02*
X161825000Y-90554000D01*
X162714000Y-105286000D02*
X161825000Y-105286000D01*
X162714000Y-105794000D02*
X161825000Y-105794000D01*
X168175000Y-111382000D02*
X168175000Y-115700000D01*
X167921000Y-93348000D02*
X167921000Y-92332000D01*
X167921000Y-93348000D02*
X168175000Y-93602000D01*
X167921000Y-92332000D02*
X168175000Y-92078000D01*
X168175000Y-92078000D02*
X168175000Y-90300000D01*
X167921000Y-110112000D02*
X168175000Y-109858000D01*
X167921000Y-111128000D02*
X168175000Y-111382000D01*
X167921000Y-111128000D02*
X167921000Y-110112000D01*
X161825000Y-90300000D02*
X168175000Y-90300000D01*
X168175000Y-115700000D02*
X161825000Y-115700000D01*
X207786000Y-105714000D02*
X207786000Y-110286000D01*
X208294000Y-110286000D02*
X208294000Y-105714000D01*
X207786000Y-110286000D02*
X208675000Y-110286000D01*
X207786000Y-105714000D02*
X208675000Y-105714000D01*
X202325000Y-107238000D02*
X202325000Y-105460000D01*
X202325000Y-108762000D02*
X202325000Y-110540000D01*
X202579000Y-108508000D02*
X202325000Y-108762000D01*
X202579000Y-107492000D02*
X202325000Y-107238000D01*
X202579000Y-107492000D02*
X202579000Y-108508000D01*
X208675000Y-110540000D02*
X202325000Y-110540000D01*
X202325000Y-105460000D02*
X208675000Y-105460000D01*
X208675000Y-105460000D02*
X208675000Y-110540000D01*
X207786000Y-111444000D02*
X207786000Y-118556000D01*
X208294000Y-118556000D02*
X208294000Y-111444000D01*
X207786000Y-118556000D02*
X208675000Y-118556000D01*
X207786000Y-111444000D02*
X208675000Y-111444000D01*
X202325000Y-114492000D02*
X202325000Y-115508000D01*
X202579000Y-115762000D02*
X202579000Y-116778000D01*
X202579000Y-115762000D02*
X202325000Y-115508000D01*
X202579000Y-116778000D02*
X202325000Y-117032000D01*
X202325000Y-117032000D02*
X202325000Y-118810000D01*
X208675000Y-111190000D02*
X208675000Y-118810000D01*
X202325000Y-112968000D02*
X202325000Y-111190000D01*
X202579000Y-114238000D02*
X202325000Y-114492000D01*
X202579000Y-113222000D02*
X202325000Y-112968000D01*
X202579000Y-113222000D02*
X202579000Y-114238000D01*
X208675000Y-118810000D02*
X202325000Y-118810000D01*
X202325000Y-111190000D02*
X208675000Y-111190000D01*
X202325000Y-87412000D02*
X202325000Y-101128000D01*
X207786000Y-91984000D02*
X207786000Y-104176000D01*
X208294000Y-91984000D02*
X208294000Y-104176000D01*
X208675000Y-81570000D02*
X208675000Y-104430000D01*
X208294000Y-91476000D02*
X208294000Y-81824000D01*
X207786000Y-91476000D02*
X207786000Y-81824000D01*
X207786000Y-81824000D02*
X208675000Y-81824000D01*
X207786000Y-104176000D02*
X208675000Y-104176000D01*
X207786000Y-91984000D02*
X208675000Y-91984000D01*
X207786000Y-91476000D02*
X208675000Y-91476000D01*
X202325000Y-85888000D02*
X202325000Y-81570000D01*
X202579000Y-101382000D02*
X202579000Y-102398000D01*
X202579000Y-101382000D02*
X202325000Y-101128000D01*
X202579000Y-102398000D02*
X202325000Y-102652000D01*
X202325000Y-102652000D02*
X202325000Y-104430000D01*
X202579000Y-87158000D02*
X202325000Y-87412000D01*
X202579000Y-86142000D02*
X202325000Y-85888000D01*
X202579000Y-86142000D02*
X202579000Y-87158000D01*
X208675000Y-104430000D02*
X202325000Y-104430000D01*
X202325000Y-81570000D02*
X208675000Y-81570000D01*
D16*
X178090000Y-69410000D02*
X179350000Y-69410000D01*
X184910000Y-69410000D02*
X183650000Y-69410000D01*
X178090000Y-65650000D02*
X178090000Y-69410000D01*
X184910000Y-63400000D02*
X184910000Y-69410000D01*
X171130000Y-71650000D02*
X171130000Y-72850000D01*
X169370000Y-72850000D02*
X169370000Y-71650000D01*
X185880000Y-96900000D02*
X185880000Y-98100000D01*
X184120000Y-98100000D02*
X184120000Y-96900000D01*
X184120000Y-103600000D02*
X184120000Y-102400000D01*
X185880000Y-102400000D02*
X185880000Y-103600000D01*
X174600000Y-72880000D02*
X173400000Y-72880000D01*
X173400000Y-71120000D02*
X174600000Y-71120000D01*
X184620000Y-77600000D02*
X184620000Y-76400000D01*
X186380000Y-76400000D02*
X186380000Y-77600000D01*
X190120000Y-92600000D02*
X190120000Y-91400000D01*
X191880000Y-91400000D02*
X191880000Y-92600000D01*
X186100000Y-61380000D02*
X184900000Y-61380000D01*
X184900000Y-59620000D02*
X186100000Y-59620000D01*
X198620000Y-63600000D02*
X198620000Y-62400000D01*
X200380000Y-62400000D02*
X200380000Y-63600000D01*
D14*
X197300000Y-72800000D02*
X197300000Y-71600000D01*
X197300000Y-71600000D02*
X199700000Y-71600000D01*
X199700000Y-71600000D02*
X199700000Y-72800000D01*
X196300000Y-67400000D02*
X196300000Y-67800000D01*
X196300000Y-67800000D02*
X200700000Y-67800000D01*
X200700000Y-67800000D02*
X200700000Y-67400000D01*
X197500000Y-71000000D02*
X199300000Y-69000000D01*
X199942221Y-70000000D02*
G75*
G03X199942221Y-70000000I-1442221J0D01*
G01*
X195400000Y-67250000D02*
X201600000Y-67250000D01*
X201600000Y-67250000D02*
X201600000Y-72750000D01*
X201600000Y-72750000D02*
X195400000Y-72750000D01*
X195400000Y-72750000D02*
X195400000Y-67250000D01*
D16*
X184590000Y-86910000D02*
X185850000Y-86910000D01*
X191410000Y-86910000D02*
X190150000Y-86910000D01*
X184590000Y-83150000D02*
X184590000Y-86910000D01*
X191410000Y-80900000D02*
X191410000Y-86910000D01*
D13*
X176800000Y-75000000D02*
X176800000Y-79000000D01*
X176800000Y-79000000D02*
X169200000Y-79000000D01*
X169200000Y-79000000D02*
X169200000Y-75000000D01*
X169200000Y-75000000D02*
X176800000Y-75000000D01*
X177050000Y-100500000D02*
X177050000Y-104500000D01*
X177050000Y-104500000D02*
X169450000Y-104500000D01*
X169450000Y-104500000D02*
X169450000Y-100500000D01*
X169450000Y-100500000D02*
X177050000Y-100500000D01*
X176800000Y-95500000D02*
X176800000Y-99500000D01*
X176800000Y-99500000D02*
X169200000Y-99500000D01*
X169200000Y-99500000D02*
X169200000Y-95500000D01*
X169200000Y-95500000D02*
X176800000Y-95500000D01*
X177050000Y-90500000D02*
X177050000Y-94500000D01*
X177050000Y-94500000D02*
X169450000Y-94500000D01*
X169450000Y-94500000D02*
X169450000Y-90500000D01*
X169450000Y-90500000D02*
X177050000Y-90500000D01*
X176800000Y-80500000D02*
X176800000Y-84500000D01*
X176800000Y-84500000D02*
X169200000Y-84500000D01*
X169200000Y-84500000D02*
X169200000Y-80500000D01*
X169200000Y-80500000D02*
X176800000Y-80500000D01*
D16*
X170750000Y-116570000D02*
X170750000Y-118070000D01*
X170750000Y-118070000D02*
X171020000Y-118070000D01*
X171020000Y-118070000D02*
X171020000Y-120900000D01*
X177650000Y-116570000D02*
X177650000Y-118070000D01*
X177650000Y-118070000D02*
X177380000Y-118070000D01*
X177380000Y-118070000D02*
X177380000Y-119170000D01*
X202300000Y-48000000D02*
G75*
G03X202300000Y-48000000I-6100000J0D01*
G01*
D17*
X165992000Y-123665429D02*
X165992000Y-124754000D01*
X165919428Y-124971714D01*
X165774285Y-125116857D01*
X165556571Y-125189429D01*
X165411428Y-125189429D01*
X167516000Y-125189429D02*
X166645143Y-125189429D01*
X167080571Y-125189429D02*
X167080571Y-123665429D01*
X166935428Y-123883143D01*
X166790286Y-124028286D01*
X166645143Y-124100857D01*
D14*
X179583334Y-87952381D02*
X179107143Y-87952381D01*
X179107143Y-86952381D01*
X180392858Y-86952381D02*
X179916667Y-86952381D01*
X179869048Y-87428571D01*
X179916667Y-87380952D01*
X180011905Y-87333333D01*
X180250001Y-87333333D01*
X180345239Y-87380952D01*
X180392858Y-87428571D01*
X180440477Y-87523810D01*
X180440477Y-87761905D01*
X180392858Y-87857143D01*
X180345239Y-87904762D01*
X180250001Y-87952381D01*
X180011905Y-87952381D01*
X179916667Y-87904762D01*
X179869048Y-87857143D01*
D18*
X175726190Y-57285714D02*
X175488095Y-57452381D01*
X175726190Y-57571428D02*
X175226190Y-57571428D01*
X175226190Y-57380952D01*
X175250000Y-57333333D01*
X175273810Y-57309524D01*
X175321429Y-57285714D01*
X175392857Y-57285714D01*
X175440476Y-57309524D01*
X175464286Y-57333333D01*
X175488095Y-57380952D01*
X175488095Y-57571428D01*
X175726190Y-56833333D02*
X175726190Y-57071428D01*
X175226190Y-57071428D01*
X175726190Y-56404762D02*
X175726190Y-56690476D01*
X175726190Y-56547619D02*
X175226190Y-56547619D01*
X175297619Y-56595238D01*
X175345238Y-56642857D01*
X175369048Y-56690476D01*
D17*
X193026333Y-97854667D02*
X194465667Y-97854667D01*
X194635000Y-97770000D01*
X194719667Y-97685333D01*
X194804333Y-97516000D01*
X194804333Y-97177333D01*
X194719667Y-97008000D01*
X194635000Y-96923333D01*
X194465667Y-96838667D01*
X193026333Y-96838667D01*
X193195667Y-96076666D02*
X193111000Y-95992000D01*
X193026333Y-95822666D01*
X193026333Y-95399333D01*
X193111000Y-95230000D01*
X193195667Y-95145333D01*
X193365000Y-95060666D01*
X193534333Y-95060666D01*
X193788333Y-95145333D01*
X194804333Y-96161333D01*
X194804333Y-95060666D01*
X202992000Y-56165429D02*
X202992000Y-57254000D01*
X202919428Y-57471714D01*
X202774285Y-57616857D01*
X202556571Y-57689429D01*
X202411428Y-57689429D01*
X203572571Y-56165429D02*
X204516000Y-56165429D01*
X204008000Y-56746000D01*
X204225714Y-56746000D01*
X204370857Y-56818571D01*
X204443428Y-56891143D01*
X204516000Y-57036286D01*
X204516000Y-57399143D01*
X204443428Y-57544286D01*
X204370857Y-57616857D01*
X204225714Y-57689429D01*
X203790286Y-57689429D01*
X203645143Y-57616857D01*
X203572571Y-57544286D01*
D14*
X170633334Y-126907143D02*
X170585715Y-126954762D01*
X170442858Y-127002381D01*
X170347620Y-127002381D01*
X170204762Y-126954762D01*
X170109524Y-126859524D01*
X170061905Y-126764286D01*
X170014286Y-126573810D01*
X170014286Y-126430952D01*
X170061905Y-126240476D01*
X170109524Y-126145238D01*
X170204762Y-126050000D01*
X170347620Y-126002381D01*
X170442858Y-126002381D01*
X170585715Y-126050000D01*
X170633334Y-126097619D01*
X171585715Y-127002381D02*
X171014286Y-127002381D01*
X171300000Y-127002381D02*
X171300000Y-126002381D01*
X171204762Y-126145238D01*
X171109524Y-126240476D01*
X171014286Y-126288095D01*
X191957143Y-121766666D02*
X192004762Y-121814285D01*
X192052381Y-121957142D01*
X192052381Y-122052380D01*
X192004762Y-122195238D01*
X191909524Y-122290476D01*
X191814286Y-122338095D01*
X191623810Y-122385714D01*
X191480952Y-122385714D01*
X191290476Y-122338095D01*
X191195238Y-122290476D01*
X191100000Y-122195238D01*
X191052381Y-122052380D01*
X191052381Y-121957142D01*
X191100000Y-121814285D01*
X191147619Y-121766666D01*
X191147619Y-121385714D02*
X191100000Y-121338095D01*
X191052381Y-121242857D01*
X191052381Y-121004761D01*
X191100000Y-120909523D01*
X191147619Y-120861904D01*
X191242857Y-120814285D01*
X191338095Y-120814285D01*
X191480952Y-120861904D01*
X192052381Y-121433333D01*
X192052381Y-120814285D01*
X182957143Y-122566666D02*
X183004762Y-122614285D01*
X183052381Y-122757142D01*
X183052381Y-122852380D01*
X183004762Y-122995238D01*
X182909524Y-123090476D01*
X182814286Y-123138095D01*
X182623810Y-123185714D01*
X182480952Y-123185714D01*
X182290476Y-123138095D01*
X182195238Y-123090476D01*
X182100000Y-122995238D01*
X182052381Y-122852380D01*
X182052381Y-122757142D01*
X182100000Y-122614285D01*
X182147619Y-122566666D01*
X182052381Y-122233333D02*
X182052381Y-121614285D01*
X182433333Y-121947619D01*
X182433333Y-121804761D01*
X182480952Y-121709523D01*
X182528571Y-121661904D01*
X182623810Y-121614285D01*
X182861905Y-121614285D01*
X182957143Y-121661904D01*
X183004762Y-121709523D01*
X183052381Y-121804761D01*
X183052381Y-122090476D01*
X183004762Y-122185714D01*
X182957143Y-122233333D01*
X181907143Y-115566666D02*
X181954762Y-115614285D01*
X182002381Y-115757142D01*
X182002381Y-115852380D01*
X181954762Y-115995238D01*
X181859524Y-116090476D01*
X181764286Y-116138095D01*
X181573810Y-116185714D01*
X181430952Y-116185714D01*
X181240476Y-116138095D01*
X181145238Y-116090476D01*
X181050000Y-115995238D01*
X181002381Y-115852380D01*
X181002381Y-115757142D01*
X181050000Y-115614285D01*
X181097619Y-115566666D01*
X181335714Y-114709523D02*
X182002381Y-114709523D01*
X180954762Y-114947619D02*
X181669048Y-115185714D01*
X181669048Y-114566666D01*
X187857143Y-113166666D02*
X187904762Y-113214285D01*
X187952381Y-113357142D01*
X187952381Y-113452380D01*
X187904762Y-113595238D01*
X187809524Y-113690476D01*
X187714286Y-113738095D01*
X187523810Y-113785714D01*
X187380952Y-113785714D01*
X187190476Y-113738095D01*
X187095238Y-113690476D01*
X187000000Y-113595238D01*
X186952381Y-113452380D01*
X186952381Y-113357142D01*
X187000000Y-113214285D01*
X187047619Y-113166666D01*
X186952381Y-112261904D02*
X186952381Y-112738095D01*
X187428571Y-112785714D01*
X187380952Y-112738095D01*
X187333333Y-112642857D01*
X187333333Y-112404761D01*
X187380952Y-112309523D01*
X187428571Y-112261904D01*
X187523810Y-112214285D01*
X187761905Y-112214285D01*
X187857143Y-112261904D01*
X187904762Y-112309523D01*
X187952381Y-112404761D01*
X187952381Y-112642857D01*
X187904762Y-112738095D01*
X187857143Y-112785714D01*
X185333334Y-54107143D02*
X185285715Y-54154762D01*
X185142858Y-54202381D01*
X185047620Y-54202381D01*
X184904762Y-54154762D01*
X184809524Y-54059524D01*
X184761905Y-53964286D01*
X184714286Y-53773810D01*
X184714286Y-53630952D01*
X184761905Y-53440476D01*
X184809524Y-53345238D01*
X184904762Y-53250000D01*
X185047620Y-53202381D01*
X185142858Y-53202381D01*
X185285715Y-53250000D01*
X185333334Y-53297619D01*
X186190477Y-53202381D02*
X186000000Y-53202381D01*
X185904762Y-53250000D01*
X185857143Y-53297619D01*
X185761905Y-53440476D01*
X185714286Y-53630952D01*
X185714286Y-54011905D01*
X185761905Y-54107143D01*
X185809524Y-54154762D01*
X185904762Y-54202381D01*
X186095239Y-54202381D01*
X186190477Y-54154762D01*
X186238096Y-54107143D01*
X186285715Y-54011905D01*
X186285715Y-53773810D01*
X186238096Y-53678571D01*
X186190477Y-53630952D01*
X186095239Y-53583333D01*
X185904762Y-53583333D01*
X185809524Y-53630952D01*
X185761905Y-53678571D01*
X185714286Y-53773810D01*
X181661905Y-73852381D02*
X181661905Y-72852381D01*
X181900000Y-72852381D01*
X182042858Y-72900000D01*
X182138096Y-72995238D01*
X182185715Y-73090476D01*
X182233334Y-73280952D01*
X182233334Y-73423810D01*
X182185715Y-73614286D01*
X182138096Y-73709524D01*
X182042858Y-73804762D01*
X181900000Y-73852381D01*
X181661905Y-73852381D01*
X183185715Y-73852381D02*
X182614286Y-73852381D01*
X182900000Y-73852381D02*
X182900000Y-72852381D01*
X182804762Y-72995238D01*
X182709524Y-73090476D01*
X182614286Y-73138095D01*
D17*
X165992000Y-67665429D02*
X165992000Y-68754000D01*
X165919428Y-68971714D01*
X165774285Y-69116857D01*
X165556571Y-69189429D01*
X165411428Y-69189429D01*
X166645143Y-67810571D02*
X166717714Y-67738000D01*
X166862857Y-67665429D01*
X167225714Y-67665429D01*
X167370857Y-67738000D01*
X167443428Y-67810571D01*
X167516000Y-67955714D01*
X167516000Y-68100857D01*
X167443428Y-68318571D01*
X166572571Y-69189429D01*
X167516000Y-69189429D01*
X168992000Y-104165429D02*
X168992000Y-105254000D01*
X168919428Y-105471714D01*
X168774285Y-105616857D01*
X168556571Y-105689429D01*
X168411428Y-105689429D01*
X170370857Y-104673429D02*
X170370857Y-105689429D01*
X170008000Y-104092857D02*
X169645143Y-105181429D01*
X170588571Y-105181429D01*
X200492000Y-107165429D02*
X200492000Y-108254000D01*
X200419428Y-108471714D01*
X200274285Y-108616857D01*
X200056571Y-108689429D01*
X199911428Y-108689429D01*
X201943428Y-107165429D02*
X201217714Y-107165429D01*
X201145143Y-107891143D01*
X201217714Y-107818571D01*
X201362857Y-107746000D01*
X201725714Y-107746000D01*
X201870857Y-107818571D01*
X201943428Y-107891143D01*
X202016000Y-108036286D01*
X202016000Y-108399143D01*
X201943428Y-108544286D01*
X201870857Y-108616857D01*
X201725714Y-108689429D01*
X201362857Y-108689429D01*
X201217714Y-108616857D01*
X201145143Y-108544286D01*
X201992000Y-119165429D02*
X201992000Y-120254000D01*
X201919428Y-120471714D01*
X201774285Y-120616857D01*
X201556571Y-120689429D01*
X201411428Y-120689429D01*
X203370857Y-119165429D02*
X203080571Y-119165429D01*
X202935428Y-119238000D01*
X202862857Y-119310571D01*
X202717714Y-119528286D01*
X202645143Y-119818571D01*
X202645143Y-120399143D01*
X202717714Y-120544286D01*
X202790286Y-120616857D01*
X202935428Y-120689429D01*
X203225714Y-120689429D01*
X203370857Y-120616857D01*
X203443428Y-120544286D01*
X203516000Y-120399143D01*
X203516000Y-120036286D01*
X203443428Y-119891143D01*
X203370857Y-119818571D01*
X203225714Y-119746000D01*
X202935428Y-119746000D01*
X202790286Y-119818571D01*
X202717714Y-119891143D01*
X202645143Y-120036286D01*
X200492000Y-89665429D02*
X200492000Y-90754000D01*
X200419428Y-90971714D01*
X200274285Y-91116857D01*
X200056571Y-91189429D01*
X199911428Y-91189429D01*
X201072571Y-89665429D02*
X202088571Y-89665429D01*
X201435428Y-91189429D01*
D14*
X186547619Y-67595238D02*
X186500000Y-67690476D01*
X186404762Y-67785714D01*
X186261905Y-67928571D01*
X186214286Y-68023810D01*
X186214286Y-68119048D01*
X186452381Y-68071429D02*
X186404762Y-68166667D01*
X186309524Y-68261905D01*
X186119048Y-68309524D01*
X185785714Y-68309524D01*
X185595238Y-68261905D01*
X185500000Y-68166667D01*
X185452381Y-68071429D01*
X185452381Y-67880952D01*
X185500000Y-67785714D01*
X185595238Y-67690476D01*
X185785714Y-67642857D01*
X186119048Y-67642857D01*
X186309524Y-67690476D01*
X186404762Y-67785714D01*
X186452381Y-67880952D01*
X186452381Y-68071429D01*
X185547619Y-67261905D02*
X185500000Y-67214286D01*
X185452381Y-67119048D01*
X185452381Y-66880952D01*
X185500000Y-66785714D01*
X185547619Y-66738095D01*
X185642857Y-66690476D01*
X185738095Y-66690476D01*
X185880952Y-66738095D01*
X186452381Y-67309524D01*
X186452381Y-66690476D01*
X170652381Y-68966666D02*
X170176190Y-69300000D01*
X170652381Y-69538095D02*
X169652381Y-69538095D01*
X169652381Y-69157142D01*
X169700000Y-69061904D01*
X169747619Y-69014285D01*
X169842857Y-68966666D01*
X169985714Y-68966666D01*
X170080952Y-69014285D01*
X170128571Y-69061904D01*
X170176190Y-69157142D01*
X170176190Y-69538095D01*
X170652381Y-68014285D02*
X170652381Y-68585714D01*
X170652381Y-68300000D02*
X169652381Y-68300000D01*
X169795238Y-68395238D01*
X169890476Y-68490476D01*
X169938095Y-68585714D01*
X187452381Y-97666666D02*
X186976190Y-98000000D01*
X187452381Y-98238095D02*
X186452381Y-98238095D01*
X186452381Y-97857142D01*
X186500000Y-97761904D01*
X186547619Y-97714285D01*
X186642857Y-97666666D01*
X186785714Y-97666666D01*
X186880952Y-97714285D01*
X186928571Y-97761904D01*
X186976190Y-97857142D01*
X186976190Y-98238095D01*
X186547619Y-97285714D02*
X186500000Y-97238095D01*
X186452381Y-97142857D01*
X186452381Y-96904761D01*
X186500000Y-96809523D01*
X186547619Y-96761904D01*
X186642857Y-96714285D01*
X186738095Y-96714285D01*
X186880952Y-96761904D01*
X187452381Y-97333333D01*
X187452381Y-96714285D01*
X187152381Y-103166666D02*
X186676190Y-103500000D01*
X187152381Y-103738095D02*
X186152381Y-103738095D01*
X186152381Y-103357142D01*
X186200000Y-103261904D01*
X186247619Y-103214285D01*
X186342857Y-103166666D01*
X186485714Y-103166666D01*
X186580952Y-103214285D01*
X186628571Y-103261904D01*
X186676190Y-103357142D01*
X186676190Y-103738095D01*
X186152381Y-102833333D02*
X186152381Y-102214285D01*
X186533333Y-102547619D01*
X186533333Y-102404761D01*
X186580952Y-102309523D01*
X186628571Y-102261904D01*
X186723810Y-102214285D01*
X186961905Y-102214285D01*
X187057143Y-102261904D01*
X187104762Y-102309523D01*
X187152381Y-102404761D01*
X187152381Y-102690476D01*
X187104762Y-102785714D01*
X187057143Y-102833333D01*
X173833334Y-70752381D02*
X173500000Y-70276190D01*
X173261905Y-70752381D02*
X173261905Y-69752381D01*
X173642858Y-69752381D01*
X173738096Y-69800000D01*
X173785715Y-69847619D01*
X173833334Y-69942857D01*
X173833334Y-70085714D01*
X173785715Y-70180952D01*
X173738096Y-70228571D01*
X173642858Y-70276190D01*
X173261905Y-70276190D01*
X174690477Y-70085714D02*
X174690477Y-70752381D01*
X174452381Y-69704762D02*
X174214286Y-70419048D01*
X174833334Y-70419048D01*
X187652381Y-77166666D02*
X187176190Y-77500000D01*
X187652381Y-77738095D02*
X186652381Y-77738095D01*
X186652381Y-77357142D01*
X186700000Y-77261904D01*
X186747619Y-77214285D01*
X186842857Y-77166666D01*
X186985714Y-77166666D01*
X187080952Y-77214285D01*
X187128571Y-77261904D01*
X187176190Y-77357142D01*
X187176190Y-77738095D01*
X186652381Y-76261904D02*
X186652381Y-76738095D01*
X187128571Y-76785714D01*
X187080952Y-76738095D01*
X187033333Y-76642857D01*
X187033333Y-76404761D01*
X187080952Y-76309523D01*
X187128571Y-76261904D01*
X187223810Y-76214285D01*
X187461905Y-76214285D01*
X187557143Y-76261904D01*
X187604762Y-76309523D01*
X187652381Y-76404761D01*
X187652381Y-76642857D01*
X187604762Y-76738095D01*
X187557143Y-76785714D01*
X188452381Y-91166666D02*
X187976190Y-91500000D01*
X188452381Y-91738095D02*
X187452381Y-91738095D01*
X187452381Y-91357142D01*
X187500000Y-91261904D01*
X187547619Y-91214285D01*
X187642857Y-91166666D01*
X187785714Y-91166666D01*
X187880952Y-91214285D01*
X187928571Y-91261904D01*
X187976190Y-91357142D01*
X187976190Y-91738095D01*
X187452381Y-90833333D02*
X187452381Y-90166666D01*
X188452381Y-90595238D01*
X185333334Y-59252381D02*
X185000000Y-58776190D01*
X184761905Y-59252381D02*
X184761905Y-58252381D01*
X185142858Y-58252381D01*
X185238096Y-58300000D01*
X185285715Y-58347619D01*
X185333334Y-58442857D01*
X185333334Y-58585714D01*
X185285715Y-58680952D01*
X185238096Y-58728571D01*
X185142858Y-58776190D01*
X184761905Y-58776190D01*
X185904762Y-58680952D02*
X185809524Y-58633333D01*
X185761905Y-58585714D01*
X185714286Y-58490476D01*
X185714286Y-58442857D01*
X185761905Y-58347619D01*
X185809524Y-58300000D01*
X185904762Y-58252381D01*
X186095239Y-58252381D01*
X186190477Y-58300000D01*
X186238096Y-58347619D01*
X186285715Y-58442857D01*
X186285715Y-58490476D01*
X186238096Y-58585714D01*
X186190477Y-58633333D01*
X186095239Y-58680952D01*
X185904762Y-58680952D01*
X185809524Y-58728571D01*
X185761905Y-58776190D01*
X185714286Y-58871429D01*
X185714286Y-59061905D01*
X185761905Y-59157143D01*
X185809524Y-59204762D01*
X185904762Y-59252381D01*
X186095239Y-59252381D01*
X186190477Y-59204762D01*
X186238096Y-59157143D01*
X186285715Y-59061905D01*
X186285715Y-58871429D01*
X186238096Y-58776190D01*
X186190477Y-58728571D01*
X186095239Y-58680952D01*
X201652381Y-63166666D02*
X201176190Y-63500000D01*
X201652381Y-63738095D02*
X200652381Y-63738095D01*
X200652381Y-63357142D01*
X200700000Y-63261904D01*
X200747619Y-63214285D01*
X200842857Y-63166666D01*
X200985714Y-63166666D01*
X201080952Y-63214285D01*
X201128571Y-63261904D01*
X201176190Y-63357142D01*
X201176190Y-63738095D01*
X201652381Y-62690476D02*
X201652381Y-62500000D01*
X201604762Y-62404761D01*
X201557143Y-62357142D01*
X201414286Y-62261904D01*
X201223810Y-62214285D01*
X200842857Y-62214285D01*
X200747619Y-62261904D01*
X200700000Y-62309523D01*
X200652381Y-62404761D01*
X200652381Y-62595238D01*
X200700000Y-62690476D01*
X200747619Y-62738095D01*
X200842857Y-62785714D01*
X201080952Y-62785714D01*
X201176190Y-62738095D01*
X201223810Y-62690476D01*
X201271429Y-62595238D01*
X201271429Y-62404761D01*
X201223810Y-62309523D01*
X201176190Y-62261904D01*
X201080952Y-62214285D01*
D18*
X194904762Y-65952381D02*
X194571428Y-65476190D01*
X194333333Y-65952381D02*
X194333333Y-64952381D01*
X194714286Y-64952381D01*
X194809524Y-65000000D01*
X194857143Y-65047619D01*
X194904762Y-65142857D01*
X194904762Y-65285714D01*
X194857143Y-65380952D01*
X194809524Y-65428571D01*
X194714286Y-65476190D01*
X194333333Y-65476190D01*
X195190476Y-64952381D02*
X195523809Y-65952381D01*
X195857143Y-64952381D01*
X196714286Y-65952381D02*
X196142857Y-65952381D01*
X196428571Y-65952381D02*
X196428571Y-64952381D01*
X196333333Y-65095238D01*
X196238095Y-65190476D01*
X196142857Y-65238095D01*
D14*
X193047619Y-85095238D02*
X193000000Y-85190476D01*
X192904762Y-85285714D01*
X192761905Y-85428571D01*
X192714286Y-85523810D01*
X192714286Y-85619048D01*
X192952381Y-85571429D02*
X192904762Y-85666667D01*
X192809524Y-85761905D01*
X192619048Y-85809524D01*
X192285714Y-85809524D01*
X192095238Y-85761905D01*
X192000000Y-85666667D01*
X191952381Y-85571429D01*
X191952381Y-85380952D01*
X192000000Y-85285714D01*
X192095238Y-85190476D01*
X192285714Y-85142857D01*
X192619048Y-85142857D01*
X192809524Y-85190476D01*
X192904762Y-85285714D01*
X192952381Y-85380952D01*
X192952381Y-85571429D01*
X192952381Y-84190476D02*
X192952381Y-84761905D01*
X192952381Y-84476191D02*
X191952381Y-84476191D01*
X192095238Y-84571429D01*
X192190476Y-84666667D01*
X192238095Y-84761905D01*
X179333334Y-77452381D02*
X178857143Y-77452381D01*
X178857143Y-76452381D01*
X180190477Y-77452381D02*
X179619048Y-77452381D01*
X179904762Y-77452381D02*
X179904762Y-76452381D01*
X179809524Y-76595238D01*
X179714286Y-76690476D01*
X179619048Y-76738095D01*
X179583334Y-102952381D02*
X179107143Y-102952381D01*
X179107143Y-101952381D01*
X179869048Y-102047619D02*
X179916667Y-102000000D01*
X180011905Y-101952381D01*
X180250001Y-101952381D01*
X180345239Y-102000000D01*
X180392858Y-102047619D01*
X180440477Y-102142857D01*
X180440477Y-102238095D01*
X180392858Y-102380952D01*
X179821429Y-102952381D01*
X180440477Y-102952381D01*
X179333334Y-97952381D02*
X178857143Y-97952381D01*
X178857143Y-96952381D01*
X179571429Y-96952381D02*
X180190477Y-96952381D01*
X179857143Y-97333333D01*
X180000001Y-97333333D01*
X180095239Y-97380952D01*
X180142858Y-97428571D01*
X180190477Y-97523810D01*
X180190477Y-97761905D01*
X180142858Y-97857143D01*
X180095239Y-97904762D01*
X180000001Y-97952381D01*
X179714286Y-97952381D01*
X179619048Y-97904762D01*
X179571429Y-97857143D01*
X179583334Y-92952381D02*
X179107143Y-92952381D01*
X179107143Y-91952381D01*
X180345239Y-92285714D02*
X180345239Y-92952381D01*
X180107143Y-91904762D02*
X179869048Y-92619048D01*
X180488096Y-92619048D01*
X179333334Y-82952381D02*
X178857143Y-82952381D01*
X178857143Y-81952381D01*
X180095239Y-81952381D02*
X179904762Y-81952381D01*
X179809524Y-82000000D01*
X179761905Y-82047619D01*
X179666667Y-82190476D01*
X179619048Y-82380952D01*
X179619048Y-82761905D01*
X179666667Y-82857143D01*
X179714286Y-82904762D01*
X179809524Y-82952381D01*
X180000001Y-82952381D01*
X180095239Y-82904762D01*
X180142858Y-82857143D01*
X180190477Y-82761905D01*
X180190477Y-82523810D01*
X180142858Y-82428571D01*
X180095239Y-82380952D01*
X180000001Y-82333333D01*
X179809524Y-82333333D01*
X179714286Y-82380952D01*
X179666667Y-82428571D01*
X179619048Y-82523810D01*
X169152381Y-116361905D02*
X169961905Y-116361905D01*
X170057143Y-116314286D01*
X170104762Y-116266667D01*
X170152381Y-116171429D01*
X170152381Y-115980952D01*
X170104762Y-115885714D01*
X170057143Y-115838095D01*
X169961905Y-115790476D01*
X169152381Y-115790476D01*
X170152381Y-114790476D02*
X170152381Y-115361905D01*
X170152381Y-115076191D02*
X169152381Y-115076191D01*
X169295238Y-115171429D01*
X169390476Y-115266667D01*
X169438095Y-115361905D01*
X195319048Y-55128571D02*
X195461905Y-55176190D01*
X195509524Y-55223810D01*
X195557143Y-55319048D01*
X195557143Y-55461905D01*
X195509524Y-55557143D01*
X195461905Y-55604762D01*
X195366667Y-55652381D01*
X194985714Y-55652381D01*
X194985714Y-54652381D01*
X195319048Y-54652381D01*
X195414286Y-54700000D01*
X195461905Y-54747619D01*
X195509524Y-54842857D01*
X195509524Y-54938095D01*
X195461905Y-55033333D01*
X195414286Y-55080952D01*
X195319048Y-55128571D01*
X194985714Y-55128571D01*
X195890476Y-54652381D02*
X196557143Y-54652381D01*
X195890476Y-55652381D01*
X196557143Y-55652381D01*
X197461905Y-55652381D02*
X196890476Y-55652381D01*
X197176190Y-55652381D02*
X197176190Y-54652381D01*
X197080952Y-54795238D01*
X196985714Y-54890476D01*
X196890476Y-54938095D01*
X199629048Y-50611429D02*
X200390953Y-50611429D01*
X200010001Y-50992381D02*
X200010001Y-50230476D01*
M02*
