G04 #@! TF.GenerationSoftware,KiCad,Pcbnew,(5.1.5)-3*
G04 #@! TF.CreationDate,2020-05-10T11:41:13+02:00*
G04 #@! TF.ProjectId,Mentor,4d656e74-6f72-42e6-9b69-6361645f7063,rev?*
G04 #@! TF.SameCoordinates,Original*
G04 #@! TF.FileFunction,Copper,L2,Bot*
G04 #@! TF.FilePolarity,Positive*
%FSLAX46Y46*%
G04 Gerber Fmt 4.6, Leading zero omitted, Abs format (unit mm)*
G04 Created by KiCad (PCBNEW (5.1.5)-3) date 2020-05-10 11:41:13*
%MOMM*%
%LPD*%
G04 APERTURE LIST*
%ADD10C,0.150000*%
%ADD11O,2.197100X1.524000*%
%ADD12R,2.197100X1.524000*%
%ADD13C,7.000000*%
%ADD14C,2.000000*%
%ADD15R,2.286000X1.574800*%
%ADD16O,2.286000X1.574800*%
%ADD17C,0.100000*%
%ADD18R,1.200000X2.200000*%
%ADD19R,5.800000X6.400000*%
%ADD20R,2.000000X2.000000*%
%ADD21C,0.600000*%
%ADD22C,0.500000*%
%ADD23C,1.500000*%
%ADD24C,1.000000*%
%ADD25C,0.250000*%
%ADD26C,0.254000*%
G04 APERTURE END LIST*
D10*
X92000000Y-26000000D02*
X92000000Y-126000000D01*
X42000000Y-126000000D02*
X42000000Y-26000000D01*
X42000000Y-26000000D02*
X92000000Y-26000000D01*
X42000000Y-126000000D02*
X92000000Y-126000000D01*
D11*
X87376200Y-70320000D03*
X87376200Y-67780000D03*
X87376200Y-62700000D03*
X87376200Y-60160000D03*
X87376200Y-57620000D03*
X87376200Y-72860000D03*
X87376200Y-65240000D03*
D12*
X87376200Y-52540000D03*
D11*
X87376200Y-55080000D03*
D13*
X87000000Y-31000000D03*
D12*
X46723800Y-114470000D03*
D11*
X46723800Y-111930000D03*
D14*
X44920000Y-59140000D03*
X44920000Y-54060000D03*
X50000000Y-59140000D03*
X50000000Y-54060000D03*
X52540000Y-59140000D03*
X55080000Y-59140000D03*
X55080000Y-54060000D03*
X52540000Y-54060000D03*
D15*
X64180000Y-71650000D03*
D16*
X64180000Y-74190000D03*
X64180000Y-76730000D03*
X64180000Y-79270000D03*
X64180000Y-81810000D03*
X64180000Y-84350000D03*
X64180000Y-86890000D03*
X64180000Y-89430000D03*
X64180000Y-91970000D03*
X64180000Y-94510000D03*
X64180000Y-97050000D03*
X64180000Y-99590000D03*
X64180000Y-102130000D03*
X64180000Y-104670000D03*
X64180000Y-107210000D03*
X79420000Y-107210000D03*
X79420000Y-104670000D03*
X79420000Y-102130000D03*
X79420000Y-99590000D03*
X79420000Y-97050000D03*
X79420000Y-94510000D03*
X79420000Y-91970000D03*
X79420000Y-89430000D03*
X79420000Y-86890000D03*
X79420000Y-84350000D03*
X79420000Y-81810000D03*
X79420000Y-79270000D03*
X79420000Y-76730000D03*
X79420000Y-74190000D03*
X79420000Y-71650000D03*
D11*
X46723800Y-72930000D03*
X46723800Y-75470000D03*
X46723800Y-67850000D03*
X46723800Y-70390000D03*
D12*
X46723800Y-80550000D03*
D11*
X46723800Y-78010000D03*
X46723800Y-87310000D03*
X46723800Y-89850000D03*
X46723800Y-92390000D03*
X46723800Y-97470000D03*
X46723800Y-100010000D03*
X46723800Y-102550000D03*
X46723800Y-84770000D03*
X46723800Y-94930000D03*
D12*
X46723800Y-107630000D03*
D11*
X46723800Y-105090000D03*
D12*
X87376200Y-99930000D03*
D11*
X87376200Y-102470000D03*
X87376200Y-110740000D03*
D12*
X87376200Y-105660000D03*
D11*
X87376200Y-108200000D03*
X87376200Y-93820000D03*
X87376200Y-91280000D03*
X87376200Y-86200000D03*
X87376200Y-83660000D03*
X87376200Y-81120000D03*
X87376200Y-96360000D03*
X87376200Y-88740000D03*
D12*
X87376200Y-76040000D03*
D11*
X87376200Y-78580000D03*
D13*
X47000000Y-31000000D03*
X47000000Y-121000000D03*
X87000000Y-121000000D03*
D11*
X46523800Y-43400000D03*
X46523800Y-38320000D03*
X46523800Y-40860000D03*
D12*
X46523800Y-48480000D03*
D11*
X46523800Y-45940000D03*
G04 #@! TA.AperFunction,SMDPad,CuDef*
D17*
G36*
X50724505Y-106901204D02*
G01*
X50748773Y-106904804D01*
X50772572Y-106910765D01*
X50795671Y-106919030D01*
X50817850Y-106929520D01*
X50838893Y-106942132D01*
X50858599Y-106956747D01*
X50876777Y-106973223D01*
X50893253Y-106991401D01*
X50907868Y-107011107D01*
X50920480Y-107032150D01*
X50930970Y-107054329D01*
X50939235Y-107077428D01*
X50945196Y-107101227D01*
X50948796Y-107125495D01*
X50950000Y-107149999D01*
X50950000Y-108050001D01*
X50948796Y-108074505D01*
X50945196Y-108098773D01*
X50939235Y-108122572D01*
X50930970Y-108145671D01*
X50920480Y-108167850D01*
X50907868Y-108188893D01*
X50893253Y-108208599D01*
X50876777Y-108226777D01*
X50858599Y-108243253D01*
X50838893Y-108257868D01*
X50817850Y-108270480D01*
X50795671Y-108280970D01*
X50772572Y-108289235D01*
X50748773Y-108295196D01*
X50724505Y-108298796D01*
X50700001Y-108300000D01*
X50049999Y-108300000D01*
X50025495Y-108298796D01*
X50001227Y-108295196D01*
X49977428Y-108289235D01*
X49954329Y-108280970D01*
X49932150Y-108270480D01*
X49911107Y-108257868D01*
X49891401Y-108243253D01*
X49873223Y-108226777D01*
X49856747Y-108208599D01*
X49842132Y-108188893D01*
X49829520Y-108167850D01*
X49819030Y-108145671D01*
X49810765Y-108122572D01*
X49804804Y-108098773D01*
X49801204Y-108074505D01*
X49800000Y-108050001D01*
X49800000Y-107149999D01*
X49801204Y-107125495D01*
X49804804Y-107101227D01*
X49810765Y-107077428D01*
X49819030Y-107054329D01*
X49829520Y-107032150D01*
X49842132Y-107011107D01*
X49856747Y-106991401D01*
X49873223Y-106973223D01*
X49891401Y-106956747D01*
X49911107Y-106942132D01*
X49932150Y-106929520D01*
X49954329Y-106919030D01*
X49977428Y-106910765D01*
X50001227Y-106904804D01*
X50025495Y-106901204D01*
X50049999Y-106900000D01*
X50700001Y-106900000D01*
X50724505Y-106901204D01*
G37*
G04 #@! TD.AperFunction*
G04 #@! TA.AperFunction,SMDPad,CuDef*
G36*
X52774505Y-106901204D02*
G01*
X52798773Y-106904804D01*
X52822572Y-106910765D01*
X52845671Y-106919030D01*
X52867850Y-106929520D01*
X52888893Y-106942132D01*
X52908599Y-106956747D01*
X52926777Y-106973223D01*
X52943253Y-106991401D01*
X52957868Y-107011107D01*
X52970480Y-107032150D01*
X52980970Y-107054329D01*
X52989235Y-107077428D01*
X52995196Y-107101227D01*
X52998796Y-107125495D01*
X53000000Y-107149999D01*
X53000000Y-108050001D01*
X52998796Y-108074505D01*
X52995196Y-108098773D01*
X52989235Y-108122572D01*
X52980970Y-108145671D01*
X52970480Y-108167850D01*
X52957868Y-108188893D01*
X52943253Y-108208599D01*
X52926777Y-108226777D01*
X52908599Y-108243253D01*
X52888893Y-108257868D01*
X52867850Y-108270480D01*
X52845671Y-108280970D01*
X52822572Y-108289235D01*
X52798773Y-108295196D01*
X52774505Y-108298796D01*
X52750001Y-108300000D01*
X52099999Y-108300000D01*
X52075495Y-108298796D01*
X52051227Y-108295196D01*
X52027428Y-108289235D01*
X52004329Y-108280970D01*
X51982150Y-108270480D01*
X51961107Y-108257868D01*
X51941401Y-108243253D01*
X51923223Y-108226777D01*
X51906747Y-108208599D01*
X51892132Y-108188893D01*
X51879520Y-108167850D01*
X51869030Y-108145671D01*
X51860765Y-108122572D01*
X51854804Y-108098773D01*
X51851204Y-108074505D01*
X51850000Y-108050001D01*
X51850000Y-107149999D01*
X51851204Y-107125495D01*
X51854804Y-107101227D01*
X51860765Y-107077428D01*
X51869030Y-107054329D01*
X51879520Y-107032150D01*
X51892132Y-107011107D01*
X51906747Y-106991401D01*
X51923223Y-106973223D01*
X51941401Y-106956747D01*
X51961107Y-106942132D01*
X51982150Y-106929520D01*
X52004329Y-106919030D01*
X52027428Y-106910765D01*
X52051227Y-106904804D01*
X52075495Y-106901204D01*
X52099999Y-106900000D01*
X52750001Y-106900000D01*
X52774505Y-106901204D01*
G37*
G04 #@! TD.AperFunction*
G04 #@! TA.AperFunction,SMDPad,CuDef*
G36*
X69774505Y-92101204D02*
G01*
X69798773Y-92104804D01*
X69822572Y-92110765D01*
X69845671Y-92119030D01*
X69867850Y-92129520D01*
X69888893Y-92142132D01*
X69908599Y-92156747D01*
X69926777Y-92173223D01*
X69943253Y-92191401D01*
X69957868Y-92211107D01*
X69970480Y-92232150D01*
X69980970Y-92254329D01*
X69989235Y-92277428D01*
X69995196Y-92301227D01*
X69998796Y-92325495D01*
X70000000Y-92349999D01*
X70000000Y-93000001D01*
X69998796Y-93024505D01*
X69995196Y-93048773D01*
X69989235Y-93072572D01*
X69980970Y-93095671D01*
X69970480Y-93117850D01*
X69957868Y-93138893D01*
X69943253Y-93158599D01*
X69926777Y-93176777D01*
X69908599Y-93193253D01*
X69888893Y-93207868D01*
X69867850Y-93220480D01*
X69845671Y-93230970D01*
X69822572Y-93239235D01*
X69798773Y-93245196D01*
X69774505Y-93248796D01*
X69750001Y-93250000D01*
X68849999Y-93250000D01*
X68825495Y-93248796D01*
X68801227Y-93245196D01*
X68777428Y-93239235D01*
X68754329Y-93230970D01*
X68732150Y-93220480D01*
X68711107Y-93207868D01*
X68691401Y-93193253D01*
X68673223Y-93176777D01*
X68656747Y-93158599D01*
X68642132Y-93138893D01*
X68629520Y-93117850D01*
X68619030Y-93095671D01*
X68610765Y-93072572D01*
X68604804Y-93048773D01*
X68601204Y-93024505D01*
X68600000Y-93000001D01*
X68600000Y-92349999D01*
X68601204Y-92325495D01*
X68604804Y-92301227D01*
X68610765Y-92277428D01*
X68619030Y-92254329D01*
X68629520Y-92232150D01*
X68642132Y-92211107D01*
X68656747Y-92191401D01*
X68673223Y-92173223D01*
X68691401Y-92156747D01*
X68711107Y-92142132D01*
X68732150Y-92129520D01*
X68754329Y-92119030D01*
X68777428Y-92110765D01*
X68801227Y-92104804D01*
X68825495Y-92101204D01*
X68849999Y-92100000D01*
X69750001Y-92100000D01*
X69774505Y-92101204D01*
G37*
G04 #@! TD.AperFunction*
G04 #@! TA.AperFunction,SMDPad,CuDef*
G36*
X69774505Y-94151204D02*
G01*
X69798773Y-94154804D01*
X69822572Y-94160765D01*
X69845671Y-94169030D01*
X69867850Y-94179520D01*
X69888893Y-94192132D01*
X69908599Y-94206747D01*
X69926777Y-94223223D01*
X69943253Y-94241401D01*
X69957868Y-94261107D01*
X69970480Y-94282150D01*
X69980970Y-94304329D01*
X69989235Y-94327428D01*
X69995196Y-94351227D01*
X69998796Y-94375495D01*
X70000000Y-94399999D01*
X70000000Y-95050001D01*
X69998796Y-95074505D01*
X69995196Y-95098773D01*
X69989235Y-95122572D01*
X69980970Y-95145671D01*
X69970480Y-95167850D01*
X69957868Y-95188893D01*
X69943253Y-95208599D01*
X69926777Y-95226777D01*
X69908599Y-95243253D01*
X69888893Y-95257868D01*
X69867850Y-95270480D01*
X69845671Y-95280970D01*
X69822572Y-95289235D01*
X69798773Y-95295196D01*
X69774505Y-95298796D01*
X69750001Y-95300000D01*
X68849999Y-95300000D01*
X68825495Y-95298796D01*
X68801227Y-95295196D01*
X68777428Y-95289235D01*
X68754329Y-95280970D01*
X68732150Y-95270480D01*
X68711107Y-95257868D01*
X68691401Y-95243253D01*
X68673223Y-95226777D01*
X68656747Y-95208599D01*
X68642132Y-95188893D01*
X68629520Y-95167850D01*
X68619030Y-95145671D01*
X68610765Y-95122572D01*
X68604804Y-95098773D01*
X68601204Y-95074505D01*
X68600000Y-95050001D01*
X68600000Y-94399999D01*
X68601204Y-94375495D01*
X68604804Y-94351227D01*
X68610765Y-94327428D01*
X68619030Y-94304329D01*
X68629520Y-94282150D01*
X68642132Y-94261107D01*
X68656747Y-94241401D01*
X68673223Y-94223223D01*
X68691401Y-94206747D01*
X68711107Y-94192132D01*
X68732150Y-94179520D01*
X68754329Y-94169030D01*
X68777428Y-94160765D01*
X68801227Y-94154804D01*
X68825495Y-94151204D01*
X68849999Y-94150000D01*
X69750001Y-94150000D01*
X69774505Y-94151204D01*
G37*
G04 #@! TD.AperFunction*
D18*
X69520000Y-99400000D03*
X71800000Y-99400000D03*
X74080000Y-99400000D03*
D19*
X71800000Y-105700000D03*
D20*
X85000000Y-46400000D03*
D14*
X85000000Y-38800000D03*
D21*
X71250000Y-50500000D03*
X51000000Y-101000000D03*
X51600000Y-100400000D03*
X52200000Y-99800000D03*
X57000000Y-63500000D03*
X56200000Y-115000000D03*
X63271876Y-116149990D03*
X59993672Y-116149990D03*
X57200000Y-98200008D03*
X58999996Y-68200000D03*
X50810066Y-73210066D03*
X59050000Y-93200004D03*
X59050000Y-73200000D03*
X59049994Y-78200000D03*
X59050000Y-83200000D03*
X59050000Y-88200000D03*
X65050000Y-114200000D03*
X50800000Y-78200000D03*
X50800000Y-83200000D03*
X50800000Y-88200000D03*
X50800000Y-93200000D03*
X50800000Y-98200000D03*
X71000000Y-95000000D03*
X71000000Y-97000000D03*
X73000000Y-93000000D03*
X73000000Y-95000000D03*
X81500000Y-102500000D03*
X83000000Y-102500000D03*
X83000000Y-104000000D03*
X83000000Y-105500000D03*
X83000000Y-107000000D03*
X81500000Y-107000000D03*
X81500000Y-105500000D03*
X81500000Y-104000000D03*
X90000000Y-35000000D03*
X90000000Y-38000000D03*
X90000000Y-41000000D03*
X90000000Y-44000000D03*
X90000000Y-47000000D03*
X90000000Y-50000000D03*
X90000000Y-53000000D03*
X90000000Y-56000000D03*
X90000000Y-59000000D03*
X90000000Y-62000000D03*
X90000000Y-65000000D03*
X90000000Y-68000000D03*
X90000000Y-71000000D03*
X90000000Y-74000000D03*
X90000000Y-77000000D03*
X90000000Y-80000000D03*
X90000000Y-83000000D03*
X90000000Y-86000000D03*
X90000000Y-89000000D03*
X90000000Y-92000000D03*
X90000000Y-95000000D03*
X90000000Y-98000000D03*
X90000000Y-101000000D03*
X90000000Y-104000000D03*
X90000000Y-107000000D03*
X90000000Y-110000000D03*
X90000000Y-113000000D03*
X90000000Y-116000000D03*
X43500001Y-34499999D03*
X43500001Y-37499999D03*
X43500001Y-40499999D03*
X43500001Y-43499999D03*
X43500001Y-46499999D03*
X43500001Y-49499999D03*
X43500001Y-52499999D03*
X43500001Y-55499999D03*
X43500001Y-58499999D03*
X43500001Y-61499999D03*
X43500001Y-64499999D03*
X43500001Y-67499999D03*
X43500001Y-70499999D03*
X43500001Y-73499999D03*
X43500001Y-76499999D03*
X43500001Y-79499999D03*
X43500001Y-82499999D03*
X43500001Y-85499999D03*
X43500001Y-88499999D03*
X43500001Y-91499999D03*
X43500001Y-94499999D03*
X43500001Y-97499999D03*
X43500001Y-100499999D03*
X43500001Y-103499999D03*
X43500001Y-106499999D03*
X43500001Y-109499999D03*
X43500001Y-112499999D03*
X43500001Y-115499999D03*
X52000000Y-123000000D03*
X55000000Y-123000000D03*
X58000000Y-123000000D03*
X61000000Y-123000000D03*
X64000000Y-123000000D03*
X67000000Y-123000000D03*
X70000000Y-123000000D03*
X73000000Y-123000000D03*
X76000000Y-123000000D03*
X79000000Y-123000000D03*
X82000000Y-123000000D03*
X52000000Y-28000000D03*
X55000000Y-28000000D03*
X58000000Y-28000000D03*
X61000000Y-28000000D03*
X64000000Y-28000000D03*
X67000000Y-28000000D03*
X70000000Y-28000000D03*
X73000000Y-28000000D03*
X76000000Y-28000000D03*
X79000000Y-28000000D03*
X82000000Y-28000000D03*
X49200000Y-75800000D03*
X61550000Y-70200000D03*
X74000000Y-92000000D03*
X73300001Y-48550001D03*
X76000000Y-98000000D03*
X68000000Y-51000000D03*
X60750000Y-42000000D03*
X76061719Y-96001043D03*
D22*
X73300000Y-50500000D02*
X85000000Y-38800000D01*
X71250000Y-50500000D02*
X73300000Y-50500000D01*
D23*
X50150000Y-107600000D02*
X46753800Y-107600000D01*
X46753800Y-107600000D02*
X46723800Y-107630000D01*
D24*
X49470000Y-72930000D02*
X46723800Y-72930000D01*
X51600000Y-100400000D02*
X51000000Y-101000000D01*
X52200000Y-99800000D02*
X51600000Y-100400000D01*
X57000000Y-65400000D02*
X57000000Y-95000000D01*
X57000000Y-95000000D02*
X52200000Y-99800000D01*
X57000000Y-65400000D02*
X49470000Y-72930000D01*
X57000000Y-63500000D02*
X57000000Y-65400000D01*
D25*
X56499999Y-115299999D02*
X56200000Y-115000000D01*
X57349990Y-116149990D02*
X56499999Y-115299999D01*
X59993672Y-116149990D02*
X57349990Y-116149990D01*
X65050000Y-114200000D02*
X63271876Y-115978124D01*
X63271876Y-115978124D02*
X63271876Y-116149990D01*
X87376200Y-72860000D02*
X87140000Y-72860000D01*
D22*
X44925250Y-43400000D02*
X46523800Y-43400000D01*
X43500001Y-34499999D02*
X43500001Y-34499999D01*
X43500001Y-41974751D02*
X44925250Y-43400000D01*
X47000000Y-31000000D02*
X43500001Y-34499999D01*
X51949747Y-31000000D02*
X87000000Y-31000000D01*
X47000000Y-31000000D02*
X51949747Y-31000000D01*
X74080000Y-97800000D02*
X74080000Y-99400000D01*
X73280000Y-97000000D02*
X74080000Y-97800000D01*
X71000000Y-97000000D02*
X73000000Y-97000000D01*
X73000000Y-97000000D02*
X73000000Y-95000000D01*
X73000000Y-97000000D02*
X73280000Y-97000000D01*
X73000000Y-95000000D02*
X73000000Y-93000000D01*
X73000000Y-95000000D02*
X71000000Y-95000000D01*
X43500001Y-34499999D02*
X43500001Y-41974751D01*
D24*
X52540000Y-54060000D02*
X52540000Y-59140000D01*
X52500000Y-67000000D02*
X49110000Y-70390000D01*
X52540000Y-59140000D02*
X52500000Y-59180000D01*
X49110000Y-70390000D02*
X46723800Y-70390000D01*
X52500000Y-59180000D02*
X52500000Y-67000000D01*
X49200000Y-80172350D02*
X49200000Y-75800000D01*
X46723800Y-80550000D02*
X48822350Y-80550000D01*
X48822350Y-80550000D02*
X49200000Y-80172350D01*
X87376200Y-60160000D02*
X85340000Y-60160000D01*
X81770000Y-76730000D02*
X79420000Y-76730000D01*
X84300000Y-74200000D02*
X81770000Y-76730000D01*
X84300000Y-61200000D02*
X84300000Y-74200000D01*
X85340000Y-60160000D02*
X84300000Y-61200000D01*
X50000000Y-54060000D02*
X50000000Y-59140000D01*
X61136979Y-72936979D02*
X61136979Y-99263021D01*
X50000000Y-52500000D02*
X51000000Y-51500000D01*
X60200000Y-72000000D02*
X61136979Y-72936979D01*
X50000000Y-54060000D02*
X50000000Y-52500000D01*
X57850000Y-102550000D02*
X46723800Y-102550000D01*
X51000000Y-51500000D02*
X58500000Y-51500000D01*
X61136979Y-99263021D02*
X57850000Y-102550000D01*
X60200000Y-53200000D02*
X60200000Y-72000000D01*
X58500000Y-51500000D02*
X60200000Y-53200000D01*
X71800000Y-99425000D02*
X71800000Y-108575000D01*
X87376200Y-110740000D02*
X73965000Y-110740000D01*
X73965000Y-110740000D02*
X71800000Y-108575000D01*
X79420000Y-79270000D02*
X82870000Y-79270000D01*
X82870000Y-79270000D02*
X83800000Y-80200000D01*
X83800000Y-80200000D02*
X83800000Y-87700000D01*
X83800000Y-87700000D02*
X84840000Y-88740000D01*
X84840000Y-88740000D02*
X87376200Y-88740000D01*
X62336990Y-70986990D02*
X62336990Y-95206990D01*
X61550000Y-70200000D02*
X62336990Y-70986990D01*
X62336990Y-95206990D02*
X64180000Y-97050000D01*
X69260000Y-99425000D02*
X69260000Y-95090000D01*
X69260000Y-95090000D02*
X69300000Y-95050000D01*
X79420000Y-89430000D02*
X71570000Y-89430000D01*
X71570000Y-89430000D02*
X69300000Y-91700000D01*
X69300000Y-91700000D02*
X69300000Y-92350000D01*
D22*
X74030000Y-91970000D02*
X74000000Y-92000000D01*
X79420000Y-91970000D02*
X74030000Y-91970000D01*
X73300001Y-48550001D02*
X73300001Y-44800001D01*
X69360000Y-40860000D02*
X46523800Y-40860000D01*
X73300001Y-44800001D02*
X69360000Y-40860000D01*
X79420000Y-104670000D02*
X77777000Y-104670000D01*
X76000000Y-98424264D02*
X76000000Y-98000000D01*
X77777000Y-104670000D02*
X76000000Y-102893000D01*
X76000000Y-102893000D02*
X76000000Y-98424264D01*
D24*
X64535600Y-91970000D02*
X68000000Y-88505600D01*
X64180000Y-91970000D02*
X64535600Y-91970000D01*
X68000000Y-88505600D02*
X68000000Y-51000000D01*
D22*
X64535600Y-94510000D02*
X64180000Y-94510000D01*
X69000000Y-47750000D02*
X69000000Y-90045600D01*
X63250000Y-42000000D02*
X69000000Y-47750000D01*
X69000000Y-90045600D02*
X64535600Y-94510000D01*
X60750000Y-42000000D02*
X63250000Y-42000000D01*
X77110676Y-97050000D02*
X76061719Y-96001043D01*
X79420000Y-97050000D02*
X77110676Y-97050000D01*
D26*
G36*
X91290001Y-125290000D02*
G01*
X42710000Y-125290000D01*
X42710000Y-123914155D01*
X44265450Y-123914155D01*
X44661634Y-124434550D01*
X45376612Y-124824748D01*
X46153976Y-125067964D01*
X46963853Y-125154851D01*
X47775118Y-125082069D01*
X48556597Y-124852415D01*
X49278256Y-124474715D01*
X49338366Y-124434550D01*
X49734550Y-123914155D01*
X84265450Y-123914155D01*
X84661634Y-124434550D01*
X85376612Y-124824748D01*
X86153976Y-125067964D01*
X86963853Y-125154851D01*
X87775118Y-125082069D01*
X88556597Y-124852415D01*
X89278256Y-124474715D01*
X89338366Y-124434550D01*
X89734550Y-123914155D01*
X87000000Y-121179605D01*
X84265450Y-123914155D01*
X49734550Y-123914155D01*
X47000000Y-121179605D01*
X44265450Y-123914155D01*
X42710000Y-123914155D01*
X42710000Y-120963853D01*
X42845149Y-120963853D01*
X42917931Y-121775118D01*
X43147585Y-122556597D01*
X43525285Y-123278256D01*
X43565450Y-123338366D01*
X44085845Y-123734550D01*
X46820395Y-121000000D01*
X47179605Y-121000000D01*
X49914155Y-123734550D01*
X50434550Y-123338366D01*
X50824748Y-122623388D01*
X51067964Y-121846024D01*
X51154851Y-121036147D01*
X51148366Y-120963853D01*
X82845149Y-120963853D01*
X82917931Y-121775118D01*
X83147585Y-122556597D01*
X83525285Y-123278256D01*
X83565450Y-123338366D01*
X84085845Y-123734550D01*
X86820395Y-121000000D01*
X87179605Y-121000000D01*
X89914155Y-123734550D01*
X90434550Y-123338366D01*
X90824748Y-122623388D01*
X91067964Y-121846024D01*
X91154851Y-121036147D01*
X91082069Y-120224882D01*
X90852415Y-119443403D01*
X90474715Y-118721744D01*
X90434550Y-118661634D01*
X89914155Y-118265450D01*
X87179605Y-121000000D01*
X86820395Y-121000000D01*
X84085845Y-118265450D01*
X83565450Y-118661634D01*
X83175252Y-119376612D01*
X82932036Y-120153976D01*
X82845149Y-120963853D01*
X51148366Y-120963853D01*
X51082069Y-120224882D01*
X50852415Y-119443403D01*
X50474715Y-118721744D01*
X50434550Y-118661634D01*
X49914155Y-118265450D01*
X47179605Y-121000000D01*
X46820395Y-121000000D01*
X44085845Y-118265450D01*
X43565450Y-118661634D01*
X43175252Y-119376612D01*
X42932036Y-120153976D01*
X42845149Y-120963853D01*
X42710000Y-120963853D01*
X42710000Y-118085845D01*
X44265450Y-118085845D01*
X47000000Y-120820395D01*
X49734550Y-118085845D01*
X84265450Y-118085845D01*
X87000000Y-120820395D01*
X89734550Y-118085845D01*
X89338366Y-117565450D01*
X88623388Y-117175252D01*
X87846024Y-116932036D01*
X87036147Y-116845149D01*
X86224882Y-116917931D01*
X85443403Y-117147585D01*
X84721744Y-117525285D01*
X84661634Y-117565450D01*
X84265450Y-118085845D01*
X49734550Y-118085845D01*
X49338366Y-117565450D01*
X48623388Y-117175252D01*
X47846024Y-116932036D01*
X47036147Y-116845149D01*
X46224882Y-116917931D01*
X45443403Y-117147585D01*
X44721744Y-117525285D01*
X44661634Y-117565450D01*
X44265450Y-118085845D01*
X42710000Y-118085845D01*
X42710000Y-113708000D01*
X44987178Y-113708000D01*
X44987178Y-115232000D01*
X44999438Y-115356482D01*
X45035748Y-115476180D01*
X45094713Y-115586494D01*
X45174065Y-115683185D01*
X45270756Y-115762537D01*
X45381070Y-115821502D01*
X45500768Y-115857812D01*
X45625250Y-115870072D01*
X47822350Y-115870072D01*
X47946832Y-115857812D01*
X48066530Y-115821502D01*
X48176844Y-115762537D01*
X48273535Y-115683185D01*
X48352887Y-115586494D01*
X48411852Y-115476180D01*
X48448162Y-115356482D01*
X48460422Y-115232000D01*
X48460422Y-113708000D01*
X48448162Y-113583518D01*
X48411852Y-113463820D01*
X48352887Y-113353506D01*
X48273535Y-113256815D01*
X48176844Y-113177463D01*
X48066530Y-113118498D01*
X47946832Y-113082188D01*
X47861754Y-113073809D01*
X47942079Y-113021006D01*
X48137982Y-112828026D01*
X48292472Y-112600535D01*
X48399612Y-112347276D01*
X48414570Y-112273070D01*
X48292070Y-112057000D01*
X46850800Y-112057000D01*
X46850800Y-112077000D01*
X46596800Y-112077000D01*
X46596800Y-112057000D01*
X45155530Y-112057000D01*
X45033030Y-112273070D01*
X45047988Y-112347276D01*
X45155128Y-112600535D01*
X45309618Y-112828026D01*
X45505521Y-113021006D01*
X45585846Y-113073809D01*
X45500768Y-113082188D01*
X45381070Y-113118498D01*
X45270756Y-113177463D01*
X45174065Y-113256815D01*
X45094713Y-113353506D01*
X45035748Y-113463820D01*
X44999438Y-113583518D01*
X44987178Y-113708000D01*
X42710000Y-113708000D01*
X42710000Y-111586930D01*
X45033030Y-111586930D01*
X45155530Y-111803000D01*
X46596800Y-111803000D01*
X46596800Y-110533000D01*
X46850800Y-110533000D01*
X46850800Y-111803000D01*
X48292070Y-111803000D01*
X48414570Y-111586930D01*
X48399612Y-111512724D01*
X48292472Y-111259465D01*
X48137982Y-111031974D01*
X47942079Y-110838994D01*
X47712292Y-110687941D01*
X47457451Y-110584619D01*
X47187350Y-110533000D01*
X46850800Y-110533000D01*
X46596800Y-110533000D01*
X46260250Y-110533000D01*
X45990149Y-110584619D01*
X45735308Y-110687941D01*
X45505521Y-110838994D01*
X45309618Y-111031974D01*
X45155128Y-111259465D01*
X45047988Y-111512724D01*
X45033030Y-111586930D01*
X42710000Y-111586930D01*
X42710000Y-106868000D01*
X44987178Y-106868000D01*
X44987178Y-108392000D01*
X44999438Y-108516482D01*
X45035748Y-108636180D01*
X45094713Y-108746494D01*
X45174065Y-108843185D01*
X45270756Y-108922537D01*
X45381070Y-108981502D01*
X45500768Y-109017812D01*
X45625250Y-109030072D01*
X47822350Y-109030072D01*
X47946832Y-109017812D01*
X48054999Y-108985000D01*
X50218037Y-108985000D01*
X50421507Y-108964960D01*
X50510145Y-108938072D01*
X50700001Y-108938072D01*
X50873255Y-108921008D01*
X51039851Y-108870472D01*
X51193387Y-108788405D01*
X51327962Y-108677962D01*
X51333342Y-108671406D01*
X51398815Y-108751185D01*
X51495506Y-108830537D01*
X51605820Y-108889502D01*
X51725518Y-108925812D01*
X51850000Y-108938072D01*
X52139250Y-108935000D01*
X52298000Y-108776250D01*
X52298000Y-107727000D01*
X52552000Y-107727000D01*
X52552000Y-108776250D01*
X52710750Y-108935000D01*
X53000000Y-108938072D01*
X53124482Y-108925812D01*
X53244180Y-108889502D01*
X53354494Y-108830537D01*
X53451185Y-108751185D01*
X53530537Y-108654494D01*
X53589502Y-108544180D01*
X53625812Y-108424482D01*
X53638072Y-108300000D01*
X53635000Y-107885750D01*
X53476250Y-107727000D01*
X52552000Y-107727000D01*
X52298000Y-107727000D01*
X52278000Y-107727000D01*
X52278000Y-107473000D01*
X52298000Y-107473000D01*
X52298000Y-106423750D01*
X52552000Y-106423750D01*
X52552000Y-107473000D01*
X53476250Y-107473000D01*
X53635000Y-107314250D01*
X53635773Y-107210000D01*
X62395118Y-107210000D01*
X62422581Y-107488839D01*
X62503916Y-107756963D01*
X62635995Y-108004067D01*
X62813745Y-108220655D01*
X63030333Y-108398405D01*
X63277437Y-108530484D01*
X63545561Y-108611819D01*
X63754525Y-108632400D01*
X64605475Y-108632400D01*
X64814439Y-108611819D01*
X65082563Y-108530484D01*
X65329667Y-108398405D01*
X65546255Y-108220655D01*
X65724005Y-108004067D01*
X65856084Y-107756963D01*
X65937419Y-107488839D01*
X65964882Y-107210000D01*
X65937419Y-106931161D01*
X65856084Y-106663037D01*
X65724005Y-106415933D01*
X65546255Y-106199345D01*
X65329667Y-106021595D01*
X65180955Y-105942107D01*
X65197262Y-105935526D01*
X65431440Y-105782125D01*
X65631192Y-105585986D01*
X65788841Y-105354646D01*
X65898328Y-105096996D01*
X65915010Y-105017060D01*
X65792852Y-104797000D01*
X64307000Y-104797000D01*
X64307000Y-104817000D01*
X64053000Y-104817000D01*
X64053000Y-104797000D01*
X62567148Y-104797000D01*
X62444990Y-105017060D01*
X62461672Y-105096996D01*
X62571159Y-105354646D01*
X62728808Y-105585986D01*
X62928560Y-105782125D01*
X63162738Y-105935526D01*
X63179045Y-105942107D01*
X63030333Y-106021595D01*
X62813745Y-106199345D01*
X62635995Y-106415933D01*
X62503916Y-106663037D01*
X62422581Y-106931161D01*
X62395118Y-107210000D01*
X53635773Y-107210000D01*
X53638072Y-106900000D01*
X53625812Y-106775518D01*
X53589502Y-106655820D01*
X53530537Y-106545506D01*
X53451185Y-106448815D01*
X53354494Y-106369463D01*
X53244180Y-106310498D01*
X53124482Y-106274188D01*
X53000000Y-106261928D01*
X52710750Y-106265000D01*
X52552000Y-106423750D01*
X52298000Y-106423750D01*
X52139250Y-106265000D01*
X51850000Y-106261928D01*
X51725518Y-106274188D01*
X51605820Y-106310498D01*
X51495506Y-106369463D01*
X51398815Y-106448815D01*
X51333342Y-106528594D01*
X51327962Y-106522038D01*
X51193387Y-106411595D01*
X51039851Y-106329528D01*
X50873255Y-106278992D01*
X50700001Y-106261928D01*
X50510145Y-106261928D01*
X50421507Y-106235040D01*
X50218037Y-106215000D01*
X47890366Y-106215000D01*
X47942079Y-106181006D01*
X48137982Y-105988026D01*
X48292472Y-105760535D01*
X48399612Y-105507276D01*
X48414570Y-105433070D01*
X48292070Y-105217000D01*
X46850800Y-105217000D01*
X46850800Y-105237000D01*
X46596800Y-105237000D01*
X46596800Y-105217000D01*
X45155530Y-105217000D01*
X45033030Y-105433070D01*
X45047988Y-105507276D01*
X45155128Y-105760535D01*
X45309618Y-105988026D01*
X45505521Y-106181006D01*
X45585846Y-106233809D01*
X45500768Y-106242188D01*
X45381070Y-106278498D01*
X45270756Y-106337463D01*
X45174065Y-106416815D01*
X45094713Y-106513506D01*
X45035748Y-106623820D01*
X44999438Y-106743518D01*
X44987178Y-106868000D01*
X42710000Y-106868000D01*
X42710000Y-97813070D01*
X45033030Y-97813070D01*
X45047988Y-97887276D01*
X45155128Y-98140535D01*
X45309618Y-98368026D01*
X45505521Y-98561006D01*
X45735308Y-98712059D01*
X45804224Y-98740000D01*
X45735308Y-98767941D01*
X45505521Y-98918994D01*
X45309618Y-99111974D01*
X45155128Y-99339465D01*
X45047988Y-99592724D01*
X45033030Y-99666930D01*
X45155530Y-99883000D01*
X46596800Y-99883000D01*
X46596800Y-97597000D01*
X46850800Y-97597000D01*
X46850800Y-99883000D01*
X48292070Y-99883000D01*
X48414570Y-99666930D01*
X48399612Y-99592724D01*
X48292472Y-99339465D01*
X48137982Y-99111974D01*
X47942079Y-98918994D01*
X47712292Y-98767941D01*
X47643376Y-98740000D01*
X47712292Y-98712059D01*
X47942079Y-98561006D01*
X48137982Y-98368026D01*
X48292472Y-98140535D01*
X48399612Y-97887276D01*
X48414570Y-97813070D01*
X48292070Y-97597000D01*
X46850800Y-97597000D01*
X46596800Y-97597000D01*
X45155530Y-97597000D01*
X45033030Y-97813070D01*
X42710000Y-97813070D01*
X42710000Y-92390000D01*
X44983491Y-92390000D01*
X45010464Y-92663860D01*
X45090346Y-92927195D01*
X45220067Y-93169887D01*
X45394642Y-93382608D01*
X45607363Y-93557183D01*
X45799721Y-93660000D01*
X45607363Y-93762817D01*
X45394642Y-93937392D01*
X45220067Y-94150113D01*
X45090346Y-94392805D01*
X45010464Y-94656140D01*
X44983491Y-94930000D01*
X45010464Y-95203860D01*
X45090346Y-95467195D01*
X45220067Y-95709887D01*
X45394642Y-95922608D01*
X45607363Y-96097183D01*
X45801663Y-96201038D01*
X45735308Y-96227941D01*
X45505521Y-96378994D01*
X45309618Y-96571974D01*
X45155128Y-96799465D01*
X45047988Y-97052724D01*
X45033030Y-97126930D01*
X45155530Y-97343000D01*
X46596800Y-97343000D01*
X46596800Y-97323000D01*
X46850800Y-97323000D01*
X46850800Y-97343000D01*
X48292070Y-97343000D01*
X48414570Y-97126930D01*
X48399612Y-97052724D01*
X48292472Y-96799465D01*
X48137982Y-96571974D01*
X47942079Y-96378994D01*
X47712292Y-96227941D01*
X47645937Y-96201038D01*
X47840237Y-96097183D01*
X48052958Y-95922608D01*
X48227533Y-95709887D01*
X48357254Y-95467195D01*
X48437136Y-95203860D01*
X48464109Y-94930000D01*
X48437136Y-94656140D01*
X48357254Y-94392805D01*
X48227533Y-94150113D01*
X48052958Y-93937392D01*
X47840237Y-93762817D01*
X47647879Y-93660000D01*
X47840237Y-93557183D01*
X48052958Y-93382608D01*
X48227533Y-93169887D01*
X48357254Y-92927195D01*
X48437136Y-92663860D01*
X48464109Y-92390000D01*
X48437136Y-92116140D01*
X48357254Y-91852805D01*
X48227533Y-91610113D01*
X48052958Y-91397392D01*
X47840237Y-91222817D01*
X47645937Y-91118962D01*
X47712292Y-91092059D01*
X47942079Y-90941006D01*
X48137982Y-90748026D01*
X48292472Y-90520535D01*
X48399612Y-90267276D01*
X48414570Y-90193070D01*
X48292070Y-89977000D01*
X46850800Y-89977000D01*
X46850800Y-89997000D01*
X46596800Y-89997000D01*
X46596800Y-89977000D01*
X45155530Y-89977000D01*
X45033030Y-90193070D01*
X45047988Y-90267276D01*
X45155128Y-90520535D01*
X45309618Y-90748026D01*
X45505521Y-90941006D01*
X45735308Y-91092059D01*
X45801663Y-91118962D01*
X45607363Y-91222817D01*
X45394642Y-91397392D01*
X45220067Y-91610113D01*
X45090346Y-91852805D01*
X45010464Y-92116140D01*
X44983491Y-92390000D01*
X42710000Y-92390000D01*
X42710000Y-87310000D01*
X44983491Y-87310000D01*
X45010464Y-87583860D01*
X45090346Y-87847195D01*
X45220067Y-88089887D01*
X45394642Y-88302608D01*
X45607363Y-88477183D01*
X45801663Y-88581038D01*
X45735308Y-88607941D01*
X45505521Y-88758994D01*
X45309618Y-88951974D01*
X45155128Y-89179465D01*
X45047988Y-89432724D01*
X45033030Y-89506930D01*
X45155530Y-89723000D01*
X46596800Y-89723000D01*
X46596800Y-89703000D01*
X46850800Y-89703000D01*
X46850800Y-89723000D01*
X48292070Y-89723000D01*
X48414570Y-89506930D01*
X48399612Y-89432724D01*
X48292472Y-89179465D01*
X48137982Y-88951974D01*
X47942079Y-88758994D01*
X47712292Y-88607941D01*
X47645937Y-88581038D01*
X47840237Y-88477183D01*
X48052958Y-88302608D01*
X48227533Y-88089887D01*
X48357254Y-87847195D01*
X48437136Y-87583860D01*
X48464109Y-87310000D01*
X48437136Y-87036140D01*
X48357254Y-86772805D01*
X48227533Y-86530113D01*
X48052958Y-86317392D01*
X47840237Y-86142817D01*
X47645937Y-86038962D01*
X47712292Y-86012059D01*
X47942079Y-85861006D01*
X48137982Y-85668026D01*
X48292472Y-85440535D01*
X48399612Y-85187276D01*
X48414570Y-85113070D01*
X48292070Y-84897000D01*
X46850800Y-84897000D01*
X46850800Y-84917000D01*
X46596800Y-84917000D01*
X46596800Y-84897000D01*
X45155530Y-84897000D01*
X45033030Y-85113070D01*
X45047988Y-85187276D01*
X45155128Y-85440535D01*
X45309618Y-85668026D01*
X45505521Y-85861006D01*
X45735308Y-86012059D01*
X45801663Y-86038962D01*
X45607363Y-86142817D01*
X45394642Y-86317392D01*
X45220067Y-86530113D01*
X45090346Y-86772805D01*
X45010464Y-87036140D01*
X44983491Y-87310000D01*
X42710000Y-87310000D01*
X42710000Y-84426930D01*
X45033030Y-84426930D01*
X45155530Y-84643000D01*
X46596800Y-84643000D01*
X46596800Y-83373000D01*
X46850800Y-83373000D01*
X46850800Y-84643000D01*
X48292070Y-84643000D01*
X48414570Y-84426930D01*
X48399612Y-84352724D01*
X48292472Y-84099465D01*
X48137982Y-83871974D01*
X47942079Y-83678994D01*
X47712292Y-83527941D01*
X47457451Y-83424619D01*
X47187350Y-83373000D01*
X46850800Y-83373000D01*
X46596800Y-83373000D01*
X46260250Y-83373000D01*
X45990149Y-83424619D01*
X45735308Y-83527941D01*
X45505521Y-83678994D01*
X45309618Y-83871974D01*
X45155128Y-84099465D01*
X45047988Y-84352724D01*
X45033030Y-84426930D01*
X42710000Y-84426930D01*
X42710000Y-58978967D01*
X43285000Y-58978967D01*
X43285000Y-59301033D01*
X43347832Y-59616912D01*
X43471082Y-59914463D01*
X43650013Y-60182252D01*
X43877748Y-60409987D01*
X44145537Y-60588918D01*
X44443088Y-60712168D01*
X44758967Y-60775000D01*
X45081033Y-60775000D01*
X45396912Y-60712168D01*
X45694463Y-60588918D01*
X45962252Y-60409987D01*
X46189987Y-60182252D01*
X46368918Y-59914463D01*
X46492168Y-59616912D01*
X46555000Y-59301033D01*
X46555000Y-58978967D01*
X46492168Y-58663088D01*
X46368918Y-58365537D01*
X46189987Y-58097748D01*
X45962252Y-57870013D01*
X45694463Y-57691082D01*
X45396912Y-57567832D01*
X45081033Y-57505000D01*
X44758967Y-57505000D01*
X44443088Y-57567832D01*
X44145537Y-57691082D01*
X43877748Y-57870013D01*
X43650013Y-58097748D01*
X43471082Y-58365537D01*
X43347832Y-58663088D01*
X43285000Y-58978967D01*
X42710000Y-58978967D01*
X42710000Y-53898967D01*
X43285000Y-53898967D01*
X43285000Y-54221033D01*
X43347832Y-54536912D01*
X43471082Y-54834463D01*
X43650013Y-55102252D01*
X43877748Y-55329987D01*
X44145537Y-55508918D01*
X44443088Y-55632168D01*
X44758967Y-55695000D01*
X45081033Y-55695000D01*
X45396912Y-55632168D01*
X45694463Y-55508918D01*
X45962252Y-55329987D01*
X46189987Y-55102252D01*
X46368918Y-54834463D01*
X46492168Y-54536912D01*
X46555000Y-54221033D01*
X46555000Y-53898967D01*
X46492168Y-53583088D01*
X46368918Y-53285537D01*
X46189987Y-53017748D01*
X45962252Y-52790013D01*
X45694463Y-52611082D01*
X45396912Y-52487832D01*
X45081033Y-52425000D01*
X44758967Y-52425000D01*
X44443088Y-52487832D01*
X44145537Y-52611082D01*
X43877748Y-52790013D01*
X43650013Y-53017748D01*
X43471082Y-53285537D01*
X43347832Y-53583088D01*
X43285000Y-53898967D01*
X42710000Y-53898967D01*
X42710000Y-45940000D01*
X44783491Y-45940000D01*
X44810464Y-46213860D01*
X44890346Y-46477195D01*
X45020067Y-46719887D01*
X45194642Y-46932608D01*
X45379628Y-47084421D01*
X45300768Y-47092188D01*
X45181070Y-47128498D01*
X45070756Y-47187463D01*
X44974065Y-47266815D01*
X44894713Y-47363506D01*
X44835748Y-47473820D01*
X44799438Y-47593518D01*
X44787178Y-47718000D01*
X44787178Y-49242000D01*
X44799438Y-49366482D01*
X44835748Y-49486180D01*
X44894713Y-49596494D01*
X44974065Y-49693185D01*
X45070756Y-49772537D01*
X45181070Y-49831502D01*
X45300768Y-49867812D01*
X45425250Y-49880072D01*
X47622350Y-49880072D01*
X47746832Y-49867812D01*
X47866530Y-49831502D01*
X47976844Y-49772537D01*
X48073535Y-49693185D01*
X48152887Y-49596494D01*
X48211852Y-49486180D01*
X48248162Y-49366482D01*
X48260422Y-49242000D01*
X48260422Y-47718000D01*
X48248162Y-47593518D01*
X48211852Y-47473820D01*
X48152887Y-47363506D01*
X48073535Y-47266815D01*
X47976844Y-47187463D01*
X47866530Y-47128498D01*
X47746832Y-47092188D01*
X47667972Y-47084421D01*
X47852958Y-46932608D01*
X48027533Y-46719887D01*
X48157254Y-46477195D01*
X48237136Y-46213860D01*
X48264109Y-45940000D01*
X48237136Y-45666140D01*
X48157254Y-45402805D01*
X48027533Y-45160113D01*
X47852958Y-44947392D01*
X47640237Y-44772817D01*
X47445937Y-44668962D01*
X47512292Y-44642059D01*
X47742079Y-44491006D01*
X47937982Y-44298026D01*
X48092472Y-44070535D01*
X48199612Y-43817276D01*
X48214570Y-43743070D01*
X48092070Y-43527000D01*
X46650800Y-43527000D01*
X46650800Y-43547000D01*
X46396800Y-43547000D01*
X46396800Y-43527000D01*
X44955530Y-43527000D01*
X44833030Y-43743070D01*
X44847988Y-43817276D01*
X44955128Y-44070535D01*
X45109618Y-44298026D01*
X45305521Y-44491006D01*
X45535308Y-44642059D01*
X45601663Y-44668962D01*
X45407363Y-44772817D01*
X45194642Y-44947392D01*
X45020067Y-45160113D01*
X44890346Y-45402805D01*
X44810464Y-45666140D01*
X44783491Y-45940000D01*
X42710000Y-45940000D01*
X42710000Y-38320000D01*
X44783491Y-38320000D01*
X44810464Y-38593860D01*
X44890346Y-38857195D01*
X45020067Y-39099887D01*
X45194642Y-39312608D01*
X45407363Y-39487183D01*
X45599721Y-39590000D01*
X45407363Y-39692817D01*
X45194642Y-39867392D01*
X45020067Y-40080113D01*
X44890346Y-40322805D01*
X44810464Y-40586140D01*
X44783491Y-40860000D01*
X44810464Y-41133860D01*
X44890346Y-41397195D01*
X45020067Y-41639887D01*
X45194642Y-41852608D01*
X45407363Y-42027183D01*
X45601663Y-42131038D01*
X45535308Y-42157941D01*
X45305521Y-42308994D01*
X45109618Y-42501974D01*
X44955128Y-42729465D01*
X44847988Y-42982724D01*
X44833030Y-43056930D01*
X44955530Y-43273000D01*
X46396800Y-43273000D01*
X46396800Y-43253000D01*
X46650800Y-43253000D01*
X46650800Y-43273000D01*
X48092070Y-43273000D01*
X48214570Y-43056930D01*
X48199612Y-42982724D01*
X48092472Y-42729465D01*
X47937982Y-42501974D01*
X47742079Y-42308994D01*
X47512292Y-42157941D01*
X47445937Y-42131038D01*
X47640237Y-42027183D01*
X47852958Y-41852608D01*
X47941269Y-41745000D01*
X59847405Y-41745000D01*
X59815000Y-41907911D01*
X59815000Y-42092089D01*
X59850932Y-42272729D01*
X59921414Y-42442889D01*
X60023738Y-42596028D01*
X60153972Y-42726262D01*
X60307111Y-42828586D01*
X60477271Y-42899068D01*
X60657911Y-42935000D01*
X60842089Y-42935000D01*
X61022729Y-42899068D01*
X61056692Y-42885000D01*
X62883422Y-42885000D01*
X68115000Y-48116579D01*
X68115000Y-49870835D01*
X68000000Y-49859509D01*
X67777502Y-49881423D01*
X67563554Y-49946324D01*
X67366378Y-50051716D01*
X67193552Y-50193551D01*
X67051717Y-50366377D01*
X66946325Y-50563553D01*
X66881424Y-50777501D01*
X66865001Y-50944248D01*
X66865000Y-88035468D01*
X65893637Y-89006832D01*
X65856084Y-88883037D01*
X65724005Y-88635933D01*
X65546255Y-88419345D01*
X65329667Y-88241595D01*
X65177013Y-88160000D01*
X65329667Y-88078405D01*
X65546255Y-87900655D01*
X65724005Y-87684067D01*
X65856084Y-87436963D01*
X65937419Y-87168839D01*
X65964882Y-86890000D01*
X65937419Y-86611161D01*
X65856084Y-86343037D01*
X65724005Y-86095933D01*
X65546255Y-85879345D01*
X65329667Y-85701595D01*
X65177013Y-85620000D01*
X65329667Y-85538405D01*
X65546255Y-85360655D01*
X65724005Y-85144067D01*
X65856084Y-84896963D01*
X65937419Y-84628839D01*
X65964882Y-84350000D01*
X65937419Y-84071161D01*
X65856084Y-83803037D01*
X65724005Y-83555933D01*
X65546255Y-83339345D01*
X65329667Y-83161595D01*
X65177013Y-83080000D01*
X65329667Y-82998405D01*
X65546255Y-82820655D01*
X65724005Y-82604067D01*
X65856084Y-82356963D01*
X65937419Y-82088839D01*
X65964882Y-81810000D01*
X65937419Y-81531161D01*
X65856084Y-81263037D01*
X65724005Y-81015933D01*
X65546255Y-80799345D01*
X65329667Y-80621595D01*
X65177013Y-80540000D01*
X65329667Y-80458405D01*
X65546255Y-80280655D01*
X65724005Y-80064067D01*
X65856084Y-79816963D01*
X65937419Y-79548839D01*
X65964882Y-79270000D01*
X65937419Y-78991161D01*
X65856084Y-78723037D01*
X65724005Y-78475933D01*
X65546255Y-78259345D01*
X65329667Y-78081595D01*
X65177013Y-78000000D01*
X65329667Y-77918405D01*
X65546255Y-77740655D01*
X65724005Y-77524067D01*
X65856084Y-77276963D01*
X65937419Y-77008839D01*
X65964882Y-76730000D01*
X65937419Y-76451161D01*
X65856084Y-76183037D01*
X65724005Y-75935933D01*
X65546255Y-75719345D01*
X65329667Y-75541595D01*
X65177013Y-75460000D01*
X65329667Y-75378405D01*
X65546255Y-75200655D01*
X65724005Y-74984067D01*
X65856084Y-74736963D01*
X65937419Y-74468839D01*
X65964882Y-74190000D01*
X65937419Y-73911161D01*
X65856084Y-73643037D01*
X65724005Y-73395933D01*
X65546255Y-73179345D01*
X65409326Y-73066970D01*
X65447482Y-73063212D01*
X65567180Y-73026902D01*
X65677494Y-72967937D01*
X65774185Y-72888585D01*
X65853537Y-72791894D01*
X65912502Y-72681580D01*
X65948812Y-72561882D01*
X65961072Y-72437400D01*
X65961072Y-70862600D01*
X65948812Y-70738118D01*
X65912502Y-70618420D01*
X65853537Y-70508106D01*
X65774185Y-70411415D01*
X65677494Y-70332063D01*
X65567180Y-70273098D01*
X65447482Y-70236788D01*
X65323000Y-70224528D01*
X63179538Y-70224528D01*
X63143439Y-70180541D01*
X63100130Y-70144998D01*
X62313143Y-69358012D01*
X62183622Y-69251717D01*
X61986446Y-69146324D01*
X61772498Y-69081423D01*
X61550000Y-69059509D01*
X61335000Y-69080685D01*
X61335000Y-53255751D01*
X61340491Y-53199999D01*
X61318577Y-52977501D01*
X61253676Y-52763553D01*
X61231732Y-52722498D01*
X61148284Y-52566377D01*
X61006449Y-52393551D01*
X60963140Y-52358009D01*
X59341996Y-50736865D01*
X59306449Y-50693551D01*
X59133623Y-50551716D01*
X58936447Y-50446324D01*
X58722499Y-50381423D01*
X58555752Y-50365000D01*
X58555751Y-50365000D01*
X58500000Y-50359509D01*
X58444249Y-50365000D01*
X51055752Y-50365000D01*
X51000000Y-50359509D01*
X50777501Y-50381423D01*
X50563553Y-50446324D01*
X50366377Y-50551716D01*
X50236856Y-50658011D01*
X50236855Y-50658012D01*
X50193551Y-50693551D01*
X50158013Y-50736855D01*
X49236859Y-51658009D01*
X49193552Y-51693551D01*
X49051717Y-51866377D01*
X49015038Y-51935000D01*
X48946324Y-52063554D01*
X48881423Y-52277502D01*
X48859509Y-52500000D01*
X48865000Y-52555751D01*
X48865000Y-52882761D01*
X48730013Y-53017748D01*
X48551082Y-53285537D01*
X48427832Y-53583088D01*
X48365000Y-53898967D01*
X48365000Y-54221033D01*
X48427832Y-54536912D01*
X48551082Y-54834463D01*
X48730013Y-55102252D01*
X48865000Y-55237239D01*
X48865001Y-57962760D01*
X48730013Y-58097748D01*
X48551082Y-58365537D01*
X48427832Y-58663088D01*
X48365000Y-58978967D01*
X48365000Y-59301033D01*
X48427832Y-59616912D01*
X48551082Y-59914463D01*
X48730013Y-60182252D01*
X48957748Y-60409987D01*
X49225537Y-60588918D01*
X49523088Y-60712168D01*
X49838967Y-60775000D01*
X50161033Y-60775000D01*
X50476912Y-60712168D01*
X50774463Y-60588918D01*
X51042252Y-60409987D01*
X51269987Y-60182252D01*
X51270000Y-60182233D01*
X51270013Y-60182252D01*
X51365000Y-60277239D01*
X51365001Y-66529867D01*
X48639869Y-69255000D01*
X47879452Y-69255000D01*
X47840237Y-69222817D01*
X47647879Y-69120000D01*
X47840237Y-69017183D01*
X48052958Y-68842608D01*
X48227533Y-68629887D01*
X48357254Y-68387195D01*
X48437136Y-68123860D01*
X48464109Y-67850000D01*
X48437136Y-67576140D01*
X48357254Y-67312805D01*
X48227533Y-67070113D01*
X48052958Y-66857392D01*
X47840237Y-66682817D01*
X47597545Y-66553096D01*
X47334210Y-66473214D01*
X47128975Y-66453000D01*
X46318625Y-66453000D01*
X46113390Y-66473214D01*
X45850055Y-66553096D01*
X45607363Y-66682817D01*
X45394642Y-66857392D01*
X45220067Y-67070113D01*
X45090346Y-67312805D01*
X45010464Y-67576140D01*
X44983491Y-67850000D01*
X45010464Y-68123860D01*
X45090346Y-68387195D01*
X45220067Y-68629887D01*
X45394642Y-68842608D01*
X45607363Y-69017183D01*
X45799721Y-69120000D01*
X45607363Y-69222817D01*
X45394642Y-69397392D01*
X45220067Y-69610113D01*
X45090346Y-69852805D01*
X45010464Y-70116140D01*
X44983491Y-70390000D01*
X45010464Y-70663860D01*
X45090346Y-70927195D01*
X45220067Y-71169887D01*
X45394642Y-71382608D01*
X45607363Y-71557183D01*
X45799721Y-71660000D01*
X45607363Y-71762817D01*
X45394642Y-71937392D01*
X45220067Y-72150113D01*
X45090346Y-72392805D01*
X45010464Y-72656140D01*
X44983491Y-72930000D01*
X45010464Y-73203860D01*
X45090346Y-73467195D01*
X45220067Y-73709887D01*
X45394642Y-73922608D01*
X45607363Y-74097183D01*
X45801663Y-74201038D01*
X45735308Y-74227941D01*
X45505521Y-74378994D01*
X45309618Y-74571974D01*
X45155128Y-74799465D01*
X45047988Y-75052724D01*
X45033030Y-75126930D01*
X45155530Y-75343000D01*
X46596800Y-75343000D01*
X46596800Y-75323000D01*
X46850800Y-75323000D01*
X46850800Y-75343000D01*
X46870800Y-75343000D01*
X46870800Y-75597000D01*
X46850800Y-75597000D01*
X46850800Y-75617000D01*
X46596800Y-75617000D01*
X46596800Y-75597000D01*
X45155530Y-75597000D01*
X45033030Y-75813070D01*
X45047988Y-75887276D01*
X45155128Y-76140535D01*
X45309618Y-76368026D01*
X45505521Y-76561006D01*
X45735308Y-76712059D01*
X45801663Y-76738962D01*
X45607363Y-76842817D01*
X45394642Y-77017392D01*
X45220067Y-77230113D01*
X45090346Y-77472805D01*
X45010464Y-77736140D01*
X44983491Y-78010000D01*
X45010464Y-78283860D01*
X45090346Y-78547195D01*
X45220067Y-78789887D01*
X45394642Y-79002608D01*
X45579628Y-79154421D01*
X45500768Y-79162188D01*
X45381070Y-79198498D01*
X45270756Y-79257463D01*
X45174065Y-79336815D01*
X45094713Y-79433506D01*
X45035748Y-79543820D01*
X44999438Y-79663518D01*
X44987178Y-79788000D01*
X44987178Y-81312000D01*
X44999438Y-81436482D01*
X45035748Y-81556180D01*
X45094713Y-81666494D01*
X45174065Y-81763185D01*
X45270756Y-81842537D01*
X45381070Y-81901502D01*
X45500768Y-81937812D01*
X45625250Y-81950072D01*
X47822350Y-81950072D01*
X47946832Y-81937812D01*
X48066530Y-81901502D01*
X48176844Y-81842537D01*
X48273535Y-81763185D01*
X48337700Y-81685000D01*
X48766599Y-81685000D01*
X48822350Y-81690491D01*
X48878101Y-81685000D01*
X48878102Y-81685000D01*
X49044849Y-81668577D01*
X49258797Y-81603676D01*
X49455973Y-81498284D01*
X49628799Y-81356449D01*
X49664346Y-81313135D01*
X49963135Y-81014346D01*
X50006449Y-80978799D01*
X50148284Y-80805973D01*
X50253676Y-80608797D01*
X50318577Y-80394849D01*
X50335000Y-80228102D01*
X50335000Y-80228101D01*
X50340491Y-80172350D01*
X50335000Y-80116598D01*
X50335000Y-75744248D01*
X50318577Y-75577501D01*
X50253676Y-75363553D01*
X50148284Y-75166377D01*
X50006449Y-74993551D01*
X49833623Y-74851716D01*
X49636447Y-74746324D01*
X49422499Y-74681423D01*
X49200000Y-74659509D01*
X48977502Y-74681423D01*
X48763554Y-74746324D01*
X48566378Y-74851716D01*
X48393552Y-74993551D01*
X48381033Y-75008806D01*
X48292472Y-74799465D01*
X48137982Y-74571974D01*
X47942079Y-74378994D01*
X47712292Y-74227941D01*
X47645937Y-74201038D01*
X47840237Y-74097183D01*
X47879452Y-74065000D01*
X49414249Y-74065000D01*
X49470000Y-74070491D01*
X49525751Y-74065000D01*
X49525752Y-74065000D01*
X49692499Y-74048577D01*
X49906447Y-73983676D01*
X50103623Y-73878284D01*
X50276449Y-73736449D01*
X50311996Y-73693135D01*
X55865000Y-68140132D01*
X55865001Y-94529867D01*
X51436857Y-98958012D01*
X50158012Y-100236857D01*
X50051717Y-100366378D01*
X49946324Y-100563554D01*
X49881423Y-100777502D01*
X49859509Y-101000000D01*
X49881423Y-101222498D01*
X49939818Y-101415000D01*
X47879452Y-101415000D01*
X47840237Y-101382817D01*
X47645937Y-101278962D01*
X47712292Y-101252059D01*
X47942079Y-101101006D01*
X48137982Y-100908026D01*
X48292472Y-100680535D01*
X48399612Y-100427276D01*
X48414570Y-100353070D01*
X48292070Y-100137000D01*
X46850800Y-100137000D01*
X46850800Y-100157000D01*
X46596800Y-100157000D01*
X46596800Y-100137000D01*
X45155530Y-100137000D01*
X45033030Y-100353070D01*
X45047988Y-100427276D01*
X45155128Y-100680535D01*
X45309618Y-100908026D01*
X45505521Y-101101006D01*
X45735308Y-101252059D01*
X45801663Y-101278962D01*
X45607363Y-101382817D01*
X45394642Y-101557392D01*
X45220067Y-101770113D01*
X45090346Y-102012805D01*
X45010464Y-102276140D01*
X44983491Y-102550000D01*
X45010464Y-102823860D01*
X45090346Y-103087195D01*
X45220067Y-103329887D01*
X45394642Y-103542608D01*
X45607363Y-103717183D01*
X45801663Y-103821038D01*
X45735308Y-103847941D01*
X45505521Y-103998994D01*
X45309618Y-104191974D01*
X45155128Y-104419465D01*
X45047988Y-104672724D01*
X45033030Y-104746930D01*
X45155530Y-104963000D01*
X46596800Y-104963000D01*
X46596800Y-104943000D01*
X46850800Y-104943000D01*
X46850800Y-104963000D01*
X48292070Y-104963000D01*
X48414570Y-104746930D01*
X48399612Y-104672724D01*
X48292472Y-104419465D01*
X48137982Y-104191974D01*
X47942079Y-103998994D01*
X47712292Y-103847941D01*
X47645937Y-103821038D01*
X47840237Y-103717183D01*
X47879452Y-103685000D01*
X57794249Y-103685000D01*
X57850000Y-103690491D01*
X57905751Y-103685000D01*
X57905752Y-103685000D01*
X58072499Y-103668577D01*
X58286447Y-103603676D01*
X58483623Y-103498284D01*
X58656449Y-103356449D01*
X58691996Y-103313135D01*
X61900120Y-100105012D01*
X61943428Y-100069470D01*
X62085263Y-99896644D01*
X62190655Y-99699468D01*
X62255556Y-99485520D01*
X62271979Y-99318773D01*
X62271979Y-99318764D01*
X62277469Y-99263022D01*
X62271979Y-99207280D01*
X62271979Y-96747110D01*
X62411234Y-96886366D01*
X62395118Y-97050000D01*
X62422581Y-97328839D01*
X62503916Y-97596963D01*
X62635995Y-97844067D01*
X62813745Y-98060655D01*
X63030333Y-98238405D01*
X63182987Y-98320000D01*
X63030333Y-98401595D01*
X62813745Y-98579345D01*
X62635995Y-98795933D01*
X62503916Y-99043037D01*
X62422581Y-99311161D01*
X62395118Y-99590000D01*
X62422581Y-99868839D01*
X62503916Y-100136963D01*
X62635995Y-100384067D01*
X62813745Y-100600655D01*
X63030333Y-100778405D01*
X63182987Y-100860000D01*
X63030333Y-100941595D01*
X62813745Y-101119345D01*
X62635995Y-101335933D01*
X62503916Y-101583037D01*
X62422581Y-101851161D01*
X62395118Y-102130000D01*
X62422581Y-102408839D01*
X62503916Y-102676963D01*
X62635995Y-102924067D01*
X62813745Y-103140655D01*
X63030333Y-103318405D01*
X63179045Y-103397893D01*
X63162738Y-103404474D01*
X62928560Y-103557875D01*
X62728808Y-103754014D01*
X62571159Y-103985354D01*
X62461672Y-104243004D01*
X62444990Y-104322940D01*
X62567148Y-104543000D01*
X64053000Y-104543000D01*
X64053000Y-104523000D01*
X64307000Y-104523000D01*
X64307000Y-104543000D01*
X65792852Y-104543000D01*
X65915010Y-104322940D01*
X65898328Y-104243004D01*
X65788841Y-103985354D01*
X65631192Y-103754014D01*
X65431440Y-103557875D01*
X65197262Y-103404474D01*
X65180955Y-103397893D01*
X65329667Y-103318405D01*
X65546255Y-103140655D01*
X65724005Y-102924067D01*
X65856084Y-102676963D01*
X65937419Y-102408839D01*
X65964882Y-102130000D01*
X65937419Y-101851161D01*
X65856084Y-101583037D01*
X65724005Y-101335933D01*
X65546255Y-101119345D01*
X65329667Y-100941595D01*
X65177013Y-100860000D01*
X65329667Y-100778405D01*
X65546255Y-100600655D01*
X65724005Y-100384067D01*
X65856084Y-100136963D01*
X65937419Y-99868839D01*
X65964882Y-99590000D01*
X65937419Y-99311161D01*
X65856084Y-99043037D01*
X65724005Y-98795933D01*
X65546255Y-98579345D01*
X65329667Y-98401595D01*
X65177013Y-98320000D01*
X65329667Y-98238405D01*
X65546255Y-98060655D01*
X65724005Y-97844067D01*
X65856084Y-97596963D01*
X65937419Y-97328839D01*
X65964882Y-97050000D01*
X65937419Y-96771161D01*
X65856084Y-96503037D01*
X65724005Y-96255933D01*
X65546255Y-96039345D01*
X65329667Y-95861595D01*
X65177013Y-95780000D01*
X65329667Y-95698405D01*
X65546255Y-95520655D01*
X65724005Y-95304067D01*
X65856084Y-95056963D01*
X65937419Y-94788839D01*
X65964882Y-94510000D01*
X65948949Y-94348229D01*
X67963539Y-92333639D01*
X67961928Y-92349999D01*
X67961928Y-93000001D01*
X67978992Y-93173255D01*
X68029528Y-93339851D01*
X68111595Y-93493387D01*
X68222038Y-93627962D01*
X68309816Y-93700000D01*
X68222038Y-93772038D01*
X68111595Y-93906613D01*
X68029528Y-94060149D01*
X67978992Y-94226745D01*
X67961928Y-94399999D01*
X67961928Y-95050001D01*
X67978992Y-95223255D01*
X68029528Y-95389851D01*
X68111595Y-95543387D01*
X68125001Y-95559722D01*
X68125000Y-99480751D01*
X68141423Y-99647498D01*
X68206324Y-99861446D01*
X68281928Y-100002893D01*
X68281928Y-100500000D01*
X68294188Y-100624482D01*
X68330498Y-100744180D01*
X68389463Y-100854494D01*
X68468815Y-100951185D01*
X68565506Y-101030537D01*
X68675820Y-101089502D01*
X68795518Y-101125812D01*
X68920000Y-101138072D01*
X70120000Y-101138072D01*
X70244482Y-101125812D01*
X70364180Y-101089502D01*
X70474494Y-101030537D01*
X70571185Y-100951185D01*
X70650537Y-100854494D01*
X70660000Y-100836790D01*
X70665000Y-100846145D01*
X70665000Y-101861928D01*
X68900000Y-101861928D01*
X68775518Y-101874188D01*
X68655820Y-101910498D01*
X68545506Y-101969463D01*
X68448815Y-102048815D01*
X68369463Y-102145506D01*
X68310498Y-102255820D01*
X68274188Y-102375518D01*
X68261928Y-102500000D01*
X68261928Y-108900000D01*
X68274188Y-109024482D01*
X68310498Y-109144180D01*
X68369463Y-109254494D01*
X68448815Y-109351185D01*
X68545506Y-109430537D01*
X68655820Y-109489502D01*
X68775518Y-109525812D01*
X68900000Y-109538072D01*
X71157941Y-109538072D01*
X73123009Y-111503141D01*
X73158551Y-111546449D01*
X73331377Y-111688284D01*
X73528553Y-111793676D01*
X73742501Y-111858577D01*
X73909248Y-111875000D01*
X73909257Y-111875000D01*
X73964999Y-111880490D01*
X74020741Y-111875000D01*
X86220548Y-111875000D01*
X86259763Y-111907183D01*
X86502455Y-112036904D01*
X86765790Y-112116786D01*
X86971025Y-112137000D01*
X87781375Y-112137000D01*
X87986610Y-112116786D01*
X88249945Y-112036904D01*
X88492637Y-111907183D01*
X88705358Y-111732608D01*
X88879933Y-111519887D01*
X89009654Y-111277195D01*
X89089536Y-111013860D01*
X89116509Y-110740000D01*
X89089536Y-110466140D01*
X89009654Y-110202805D01*
X88879933Y-109960113D01*
X88705358Y-109747392D01*
X88492637Y-109572817D01*
X88300279Y-109470000D01*
X88492637Y-109367183D01*
X88705358Y-109192608D01*
X88879933Y-108979887D01*
X89009654Y-108737195D01*
X89089536Y-108473860D01*
X89116509Y-108200000D01*
X89089536Y-107926140D01*
X89009654Y-107662805D01*
X88879933Y-107420113D01*
X88705358Y-107207392D01*
X88520372Y-107055579D01*
X88599232Y-107047812D01*
X88718930Y-107011502D01*
X88829244Y-106952537D01*
X88925935Y-106873185D01*
X89005287Y-106776494D01*
X89064252Y-106666180D01*
X89100562Y-106546482D01*
X89112822Y-106422000D01*
X89109750Y-105945750D01*
X88951000Y-105787000D01*
X87503200Y-105787000D01*
X87503200Y-105807000D01*
X87249200Y-105807000D01*
X87249200Y-105787000D01*
X85801400Y-105787000D01*
X85642650Y-105945750D01*
X85639578Y-106422000D01*
X85651838Y-106546482D01*
X85688148Y-106666180D01*
X85747113Y-106776494D01*
X85826465Y-106873185D01*
X85923156Y-106952537D01*
X86033470Y-107011502D01*
X86153168Y-107047812D01*
X86232028Y-107055579D01*
X86047042Y-107207392D01*
X85872467Y-107420113D01*
X85742746Y-107662805D01*
X85662864Y-107926140D01*
X85635891Y-108200000D01*
X85662864Y-108473860D01*
X85742746Y-108737195D01*
X85872467Y-108979887D01*
X86047042Y-109192608D01*
X86259763Y-109367183D01*
X86452121Y-109470000D01*
X86259763Y-109572817D01*
X86220548Y-109605000D01*
X74435132Y-109605000D01*
X74368204Y-109538072D01*
X74700000Y-109538072D01*
X74824482Y-109525812D01*
X74944180Y-109489502D01*
X75054494Y-109430537D01*
X75151185Y-109351185D01*
X75230537Y-109254494D01*
X75289502Y-109144180D01*
X75325812Y-109024482D01*
X75338072Y-108900000D01*
X75338072Y-103481471D01*
X75371183Y-103521817D01*
X75404956Y-103549534D01*
X77120470Y-105265049D01*
X77148183Y-105298817D01*
X77181951Y-105326530D01*
X77181953Y-105326532D01*
X77282941Y-105409411D01*
X77436686Y-105491589D01*
X77603510Y-105542195D01*
X77733523Y-105555000D01*
X77733531Y-105555000D01*
X77777000Y-105559281D01*
X77820469Y-105555000D01*
X77950622Y-105555000D01*
X78053745Y-105680655D01*
X78270333Y-105858405D01*
X78422987Y-105940000D01*
X78270333Y-106021595D01*
X78053745Y-106199345D01*
X77875995Y-106415933D01*
X77743916Y-106663037D01*
X77662581Y-106931161D01*
X77635118Y-107210000D01*
X77662581Y-107488839D01*
X77743916Y-107756963D01*
X77875995Y-108004067D01*
X78053745Y-108220655D01*
X78270333Y-108398405D01*
X78517437Y-108530484D01*
X78785561Y-108611819D01*
X78994525Y-108632400D01*
X79845475Y-108632400D01*
X80054439Y-108611819D01*
X80322563Y-108530484D01*
X80569667Y-108398405D01*
X80786255Y-108220655D01*
X80964005Y-108004067D01*
X81096084Y-107756963D01*
X81177419Y-107488839D01*
X81204882Y-107210000D01*
X81177419Y-106931161D01*
X81096084Y-106663037D01*
X80964005Y-106415933D01*
X80786255Y-106199345D01*
X80569667Y-106021595D01*
X80417013Y-105940000D01*
X80569667Y-105858405D01*
X80786255Y-105680655D01*
X80964005Y-105464067D01*
X81096084Y-105216963D01*
X81177419Y-104948839D01*
X81182426Y-104898000D01*
X85639578Y-104898000D01*
X85642650Y-105374250D01*
X85801400Y-105533000D01*
X87249200Y-105533000D01*
X87249200Y-104421750D01*
X87503200Y-104421750D01*
X87503200Y-105533000D01*
X88951000Y-105533000D01*
X89109750Y-105374250D01*
X89112822Y-104898000D01*
X89100562Y-104773518D01*
X89064252Y-104653820D01*
X89005287Y-104543506D01*
X88925935Y-104446815D01*
X88829244Y-104367463D01*
X88718930Y-104308498D01*
X88599232Y-104272188D01*
X88474750Y-104259928D01*
X87661950Y-104263000D01*
X87503200Y-104421750D01*
X87249200Y-104421750D01*
X87090450Y-104263000D01*
X86277650Y-104259928D01*
X86153168Y-104272188D01*
X86033470Y-104308498D01*
X85923156Y-104367463D01*
X85826465Y-104446815D01*
X85747113Y-104543506D01*
X85688148Y-104653820D01*
X85651838Y-104773518D01*
X85639578Y-104898000D01*
X81182426Y-104898000D01*
X81204882Y-104670000D01*
X81177419Y-104391161D01*
X81096084Y-104123037D01*
X80964005Y-103875933D01*
X80786255Y-103659345D01*
X80569667Y-103481595D01*
X80417013Y-103400000D01*
X80569667Y-103318405D01*
X80786255Y-103140655D01*
X80964005Y-102924067D01*
X81023333Y-102813070D01*
X85685430Y-102813070D01*
X85700388Y-102887276D01*
X85807528Y-103140535D01*
X85962018Y-103368026D01*
X86157921Y-103561006D01*
X86387708Y-103712059D01*
X86642549Y-103815381D01*
X86912650Y-103867000D01*
X87249200Y-103867000D01*
X87249200Y-102597000D01*
X87503200Y-102597000D01*
X87503200Y-103867000D01*
X87839750Y-103867000D01*
X88109851Y-103815381D01*
X88364692Y-103712059D01*
X88594479Y-103561006D01*
X88790382Y-103368026D01*
X88944872Y-103140535D01*
X89052012Y-102887276D01*
X89066970Y-102813070D01*
X88944470Y-102597000D01*
X87503200Y-102597000D01*
X87249200Y-102597000D01*
X85807930Y-102597000D01*
X85685430Y-102813070D01*
X81023333Y-102813070D01*
X81096084Y-102676963D01*
X81177419Y-102408839D01*
X81204882Y-102130000D01*
X81177419Y-101851161D01*
X81096084Y-101583037D01*
X80964005Y-101335933D01*
X80786255Y-101119345D01*
X80569667Y-100941595D01*
X80420955Y-100862107D01*
X80437262Y-100855526D01*
X80671440Y-100702125D01*
X80871192Y-100505986D01*
X81028841Y-100274646D01*
X81138328Y-100016996D01*
X81155010Y-99937060D01*
X81032852Y-99717000D01*
X79547000Y-99717000D01*
X79547000Y-99737000D01*
X79293000Y-99737000D01*
X79293000Y-99717000D01*
X77807148Y-99717000D01*
X77684990Y-99937060D01*
X77701672Y-100016996D01*
X77811159Y-100274646D01*
X77968808Y-100505986D01*
X78168560Y-100702125D01*
X78402738Y-100855526D01*
X78419045Y-100862107D01*
X78270333Y-100941595D01*
X78053745Y-101119345D01*
X77875995Y-101335933D01*
X77743916Y-101583037D01*
X77662581Y-101851161D01*
X77635118Y-102130000D01*
X77662581Y-102408839D01*
X77743916Y-102676963D01*
X77875995Y-102924067D01*
X78053745Y-103140655D01*
X78270333Y-103318405D01*
X78422987Y-103400000D01*
X78270333Y-103481595D01*
X78053745Y-103659345D01*
X78037598Y-103679020D01*
X76885000Y-102526422D01*
X76885000Y-98306692D01*
X76899068Y-98272729D01*
X76935000Y-98092089D01*
X76935000Y-97921532D01*
X76937186Y-97922195D01*
X77067199Y-97935000D01*
X77067209Y-97935000D01*
X77110675Y-97939281D01*
X77154141Y-97935000D01*
X77950622Y-97935000D01*
X78053745Y-98060655D01*
X78270333Y-98238405D01*
X78419045Y-98317893D01*
X78402738Y-98324474D01*
X78168560Y-98477875D01*
X77968808Y-98674014D01*
X77811159Y-98905354D01*
X77701672Y-99163004D01*
X77684990Y-99242940D01*
X77807148Y-99463000D01*
X79293000Y-99463000D01*
X79293000Y-99443000D01*
X79547000Y-99443000D01*
X79547000Y-99463000D01*
X81032852Y-99463000D01*
X81155010Y-99242940D01*
X81139371Y-99168000D01*
X85639578Y-99168000D01*
X85639578Y-100692000D01*
X85651838Y-100816482D01*
X85688148Y-100936180D01*
X85747113Y-101046494D01*
X85826465Y-101143185D01*
X85923156Y-101222537D01*
X86033470Y-101281502D01*
X86153168Y-101317812D01*
X86238246Y-101326191D01*
X86157921Y-101378994D01*
X85962018Y-101571974D01*
X85807528Y-101799465D01*
X85700388Y-102052724D01*
X85685430Y-102126930D01*
X85807930Y-102343000D01*
X87249200Y-102343000D01*
X87249200Y-102323000D01*
X87503200Y-102323000D01*
X87503200Y-102343000D01*
X88944470Y-102343000D01*
X89066970Y-102126930D01*
X89052012Y-102052724D01*
X88944872Y-101799465D01*
X88790382Y-101571974D01*
X88594479Y-101378994D01*
X88514154Y-101326191D01*
X88599232Y-101317812D01*
X88718930Y-101281502D01*
X88829244Y-101222537D01*
X88925935Y-101143185D01*
X89005287Y-101046494D01*
X89064252Y-100936180D01*
X89100562Y-100816482D01*
X89112822Y-100692000D01*
X89112822Y-99168000D01*
X89100562Y-99043518D01*
X89064252Y-98923820D01*
X89005287Y-98813506D01*
X88925935Y-98716815D01*
X88829244Y-98637463D01*
X88718930Y-98578498D01*
X88599232Y-98542188D01*
X88474750Y-98529928D01*
X86277650Y-98529928D01*
X86153168Y-98542188D01*
X86033470Y-98578498D01*
X85923156Y-98637463D01*
X85826465Y-98716815D01*
X85747113Y-98813506D01*
X85688148Y-98923820D01*
X85651838Y-99043518D01*
X85639578Y-99168000D01*
X81139371Y-99168000D01*
X81138328Y-99163004D01*
X81028841Y-98905354D01*
X80871192Y-98674014D01*
X80671440Y-98477875D01*
X80437262Y-98324474D01*
X80420955Y-98317893D01*
X80569667Y-98238405D01*
X80786255Y-98060655D01*
X80964005Y-97844067D01*
X81096084Y-97596963D01*
X81177419Y-97328839D01*
X81204882Y-97050000D01*
X81177419Y-96771161D01*
X81096084Y-96503037D01*
X80964005Y-96255933D01*
X80786255Y-96039345D01*
X80569667Y-95861595D01*
X80417013Y-95780000D01*
X80569667Y-95698405D01*
X80786255Y-95520655D01*
X80964005Y-95304067D01*
X81096084Y-95056963D01*
X81177419Y-94788839D01*
X81204882Y-94510000D01*
X81177419Y-94231161D01*
X81096084Y-93963037D01*
X80964005Y-93715933D01*
X80786255Y-93499345D01*
X80569667Y-93321595D01*
X80417013Y-93240000D01*
X80569667Y-93158405D01*
X80786255Y-92980655D01*
X80964005Y-92764067D01*
X81096084Y-92516963D01*
X81177419Y-92248839D01*
X81204882Y-91970000D01*
X81177419Y-91691161D01*
X81096084Y-91423037D01*
X80964005Y-91175933D01*
X80786255Y-90959345D01*
X80569667Y-90781595D01*
X80417013Y-90700000D01*
X80569667Y-90618405D01*
X80786255Y-90440655D01*
X80964005Y-90224067D01*
X81096084Y-89976963D01*
X81177419Y-89708839D01*
X81204882Y-89430000D01*
X81177419Y-89151161D01*
X81096084Y-88883037D01*
X80964005Y-88635933D01*
X80786255Y-88419345D01*
X80569667Y-88241595D01*
X80417013Y-88160000D01*
X80569667Y-88078405D01*
X80786255Y-87900655D01*
X80964005Y-87684067D01*
X81096084Y-87436963D01*
X81177419Y-87168839D01*
X81204882Y-86890000D01*
X81177419Y-86611161D01*
X81096084Y-86343037D01*
X80964005Y-86095933D01*
X80786255Y-85879345D01*
X80569667Y-85701595D01*
X80417013Y-85620000D01*
X80569667Y-85538405D01*
X80786255Y-85360655D01*
X80964005Y-85144067D01*
X81096084Y-84896963D01*
X81177419Y-84628839D01*
X81204882Y-84350000D01*
X81177419Y-84071161D01*
X81096084Y-83803037D01*
X80964005Y-83555933D01*
X80786255Y-83339345D01*
X80569667Y-83161595D01*
X80417013Y-83080000D01*
X80569667Y-82998405D01*
X80786255Y-82820655D01*
X80964005Y-82604067D01*
X81096084Y-82356963D01*
X81177419Y-82088839D01*
X81204882Y-81810000D01*
X81177419Y-81531161D01*
X81096084Y-81263037D01*
X80964005Y-81015933D01*
X80786255Y-80799345D01*
X80569667Y-80621595D01*
X80417013Y-80540000D01*
X80569667Y-80458405D01*
X80634741Y-80405000D01*
X82399868Y-80405000D01*
X82665000Y-80670132D01*
X82665001Y-87644239D01*
X82659509Y-87700000D01*
X82681423Y-87922498D01*
X82746324Y-88136446D01*
X82746325Y-88136447D01*
X82851717Y-88333623D01*
X82993552Y-88506449D01*
X83036860Y-88541991D01*
X83998008Y-89503140D01*
X84033551Y-89546449D01*
X84206377Y-89688284D01*
X84403553Y-89793676D01*
X84617500Y-89858577D01*
X84839999Y-89880491D01*
X84895751Y-89875000D01*
X86220548Y-89875000D01*
X86259763Y-89907183D01*
X86452121Y-90010000D01*
X86259763Y-90112817D01*
X86047042Y-90287392D01*
X85872467Y-90500113D01*
X85742746Y-90742805D01*
X85662864Y-91006140D01*
X85635891Y-91280000D01*
X85662864Y-91553860D01*
X85742746Y-91817195D01*
X85872467Y-92059887D01*
X86047042Y-92272608D01*
X86259763Y-92447183D01*
X86452121Y-92550000D01*
X86259763Y-92652817D01*
X86047042Y-92827392D01*
X85872467Y-93040113D01*
X85742746Y-93282805D01*
X85662864Y-93546140D01*
X85635891Y-93820000D01*
X85662864Y-94093860D01*
X85742746Y-94357195D01*
X85872467Y-94599887D01*
X86047042Y-94812608D01*
X86259763Y-94987183D01*
X86452121Y-95090000D01*
X86259763Y-95192817D01*
X86047042Y-95367392D01*
X85872467Y-95580113D01*
X85742746Y-95822805D01*
X85662864Y-96086140D01*
X85635891Y-96360000D01*
X85662864Y-96633860D01*
X85742746Y-96897195D01*
X85872467Y-97139887D01*
X86047042Y-97352608D01*
X86259763Y-97527183D01*
X86502455Y-97656904D01*
X86765790Y-97736786D01*
X86971025Y-97757000D01*
X87781375Y-97757000D01*
X87986610Y-97736786D01*
X88249945Y-97656904D01*
X88492637Y-97527183D01*
X88705358Y-97352608D01*
X88879933Y-97139887D01*
X89009654Y-96897195D01*
X89089536Y-96633860D01*
X89116509Y-96360000D01*
X89089536Y-96086140D01*
X89009654Y-95822805D01*
X88879933Y-95580113D01*
X88705358Y-95367392D01*
X88492637Y-95192817D01*
X88300279Y-95090000D01*
X88492637Y-94987183D01*
X88705358Y-94812608D01*
X88879933Y-94599887D01*
X89009654Y-94357195D01*
X89089536Y-94093860D01*
X89116509Y-93820000D01*
X89089536Y-93546140D01*
X89009654Y-93282805D01*
X88879933Y-93040113D01*
X88705358Y-92827392D01*
X88492637Y-92652817D01*
X88300279Y-92550000D01*
X88492637Y-92447183D01*
X88705358Y-92272608D01*
X88879933Y-92059887D01*
X89009654Y-91817195D01*
X89089536Y-91553860D01*
X89116509Y-91280000D01*
X89089536Y-91006140D01*
X89009654Y-90742805D01*
X88879933Y-90500113D01*
X88705358Y-90287392D01*
X88492637Y-90112817D01*
X88300279Y-90010000D01*
X88492637Y-89907183D01*
X88705358Y-89732608D01*
X88879933Y-89519887D01*
X89009654Y-89277195D01*
X89089536Y-89013860D01*
X89116509Y-88740000D01*
X89089536Y-88466140D01*
X89009654Y-88202805D01*
X88879933Y-87960113D01*
X88705358Y-87747392D01*
X88492637Y-87572817D01*
X88300279Y-87470000D01*
X88492637Y-87367183D01*
X88705358Y-87192608D01*
X88879933Y-86979887D01*
X89009654Y-86737195D01*
X89089536Y-86473860D01*
X89116509Y-86200000D01*
X89089536Y-85926140D01*
X89009654Y-85662805D01*
X88879933Y-85420113D01*
X88705358Y-85207392D01*
X88492637Y-85032817D01*
X88300279Y-84930000D01*
X88492637Y-84827183D01*
X88705358Y-84652608D01*
X88879933Y-84439887D01*
X89009654Y-84197195D01*
X89089536Y-83933860D01*
X89116509Y-83660000D01*
X89089536Y-83386140D01*
X89009654Y-83122805D01*
X88879933Y-82880113D01*
X88705358Y-82667392D01*
X88492637Y-82492817D01*
X88300279Y-82390000D01*
X88492637Y-82287183D01*
X88705358Y-82112608D01*
X88879933Y-81899887D01*
X89009654Y-81657195D01*
X89089536Y-81393860D01*
X89116509Y-81120000D01*
X89089536Y-80846140D01*
X89009654Y-80582805D01*
X88879933Y-80340113D01*
X88705358Y-80127392D01*
X88492637Y-79952817D01*
X88300279Y-79850000D01*
X88492637Y-79747183D01*
X88705358Y-79572608D01*
X88879933Y-79359887D01*
X89009654Y-79117195D01*
X89089536Y-78853860D01*
X89116509Y-78580000D01*
X89089536Y-78306140D01*
X89009654Y-78042805D01*
X88879933Y-77800113D01*
X88705358Y-77587392D01*
X88520372Y-77435579D01*
X88599232Y-77427812D01*
X88718930Y-77391502D01*
X88829244Y-77332537D01*
X88925935Y-77253185D01*
X89005287Y-77156494D01*
X89064252Y-77046180D01*
X89100562Y-76926482D01*
X89112822Y-76802000D01*
X89112822Y-75278000D01*
X89100562Y-75153518D01*
X89064252Y-75033820D01*
X89005287Y-74923506D01*
X88925935Y-74826815D01*
X88829244Y-74747463D01*
X88718930Y-74688498D01*
X88599232Y-74652188D01*
X88474750Y-74639928D01*
X86277650Y-74639928D01*
X86153168Y-74652188D01*
X86033470Y-74688498D01*
X85923156Y-74747463D01*
X85826465Y-74826815D01*
X85747113Y-74923506D01*
X85688148Y-75033820D01*
X85651838Y-75153518D01*
X85639578Y-75278000D01*
X85639578Y-76802000D01*
X85651838Y-76926482D01*
X85688148Y-77046180D01*
X85747113Y-77156494D01*
X85826465Y-77253185D01*
X85923156Y-77332537D01*
X86033470Y-77391502D01*
X86153168Y-77427812D01*
X86232028Y-77435579D01*
X86047042Y-77587392D01*
X85872467Y-77800113D01*
X85742746Y-78042805D01*
X85662864Y-78306140D01*
X85635891Y-78580000D01*
X85662864Y-78853860D01*
X85742746Y-79117195D01*
X85872467Y-79359887D01*
X86047042Y-79572608D01*
X86259763Y-79747183D01*
X86452121Y-79850000D01*
X86259763Y-79952817D01*
X86047042Y-80127392D01*
X85872467Y-80340113D01*
X85742746Y-80582805D01*
X85662864Y-80846140D01*
X85635891Y-81120000D01*
X85662864Y-81393860D01*
X85742746Y-81657195D01*
X85872467Y-81899887D01*
X86047042Y-82112608D01*
X86259763Y-82287183D01*
X86452121Y-82390000D01*
X86259763Y-82492817D01*
X86047042Y-82667392D01*
X85872467Y-82880113D01*
X85742746Y-83122805D01*
X85662864Y-83386140D01*
X85635891Y-83660000D01*
X85662864Y-83933860D01*
X85742746Y-84197195D01*
X85872467Y-84439887D01*
X86047042Y-84652608D01*
X86259763Y-84827183D01*
X86452121Y-84930000D01*
X86259763Y-85032817D01*
X86047042Y-85207392D01*
X85872467Y-85420113D01*
X85742746Y-85662805D01*
X85662864Y-85926140D01*
X85635891Y-86200000D01*
X85662864Y-86473860D01*
X85742746Y-86737195D01*
X85872467Y-86979887D01*
X86047042Y-87192608D01*
X86259763Y-87367183D01*
X86452121Y-87470000D01*
X86259763Y-87572817D01*
X86220548Y-87605000D01*
X85310132Y-87605000D01*
X84935000Y-87229869D01*
X84935000Y-80255752D01*
X84940491Y-80200000D01*
X84918577Y-79977501D01*
X84853676Y-79763553D01*
X84748284Y-79566377D01*
X84641989Y-79436856D01*
X84641987Y-79436854D01*
X84606449Y-79393551D01*
X84563145Y-79358013D01*
X83711995Y-78506864D01*
X83676449Y-78463551D01*
X83503623Y-78321716D01*
X83306447Y-78216324D01*
X83092499Y-78151423D01*
X82925752Y-78135000D01*
X82925751Y-78135000D01*
X82870000Y-78129509D01*
X82814249Y-78135000D01*
X80634741Y-78135000D01*
X80569667Y-78081595D01*
X80417013Y-78000000D01*
X80569667Y-77918405D01*
X80634741Y-77865000D01*
X81714249Y-77865000D01*
X81770000Y-77870491D01*
X81825751Y-77865000D01*
X81825752Y-77865000D01*
X81992499Y-77848577D01*
X82206447Y-77783676D01*
X82403623Y-77678284D01*
X82576449Y-77536449D01*
X82611996Y-77493135D01*
X85063141Y-75041991D01*
X85106449Y-75006449D01*
X85248284Y-74833623D01*
X85353676Y-74636447D01*
X85418577Y-74422499D01*
X85435000Y-74255752D01*
X85435000Y-74255743D01*
X85440490Y-74200001D01*
X85435000Y-74144259D01*
X85435000Y-73203070D01*
X85685430Y-73203070D01*
X85700388Y-73277276D01*
X85807528Y-73530535D01*
X85962018Y-73758026D01*
X86157921Y-73951006D01*
X86387708Y-74102059D01*
X86642549Y-74205381D01*
X86912650Y-74257000D01*
X87249200Y-74257000D01*
X87249200Y-72987000D01*
X87503200Y-72987000D01*
X87503200Y-74257000D01*
X87839750Y-74257000D01*
X88109851Y-74205381D01*
X88364692Y-74102059D01*
X88594479Y-73951006D01*
X88790382Y-73758026D01*
X88944872Y-73530535D01*
X89052012Y-73277276D01*
X89066970Y-73203070D01*
X88944470Y-72987000D01*
X87503200Y-72987000D01*
X87249200Y-72987000D01*
X85807930Y-72987000D01*
X85685430Y-73203070D01*
X85435000Y-73203070D01*
X85435000Y-67780000D01*
X85635891Y-67780000D01*
X85662864Y-68053860D01*
X85742746Y-68317195D01*
X85872467Y-68559887D01*
X86047042Y-68772608D01*
X86259763Y-68947183D01*
X86452121Y-69050000D01*
X86259763Y-69152817D01*
X86047042Y-69327392D01*
X85872467Y-69540113D01*
X85742746Y-69782805D01*
X85662864Y-70046140D01*
X85635891Y-70320000D01*
X85662864Y-70593860D01*
X85742746Y-70857195D01*
X85872467Y-71099887D01*
X86047042Y-71312608D01*
X86259763Y-71487183D01*
X86454063Y-71591038D01*
X86387708Y-71617941D01*
X86157921Y-71768994D01*
X85962018Y-71961974D01*
X85807528Y-72189465D01*
X85700388Y-72442724D01*
X85685430Y-72516930D01*
X85807930Y-72733000D01*
X87249200Y-72733000D01*
X87249200Y-72713000D01*
X87503200Y-72713000D01*
X87503200Y-72733000D01*
X88944470Y-72733000D01*
X89066970Y-72516930D01*
X89052012Y-72442724D01*
X88944872Y-72189465D01*
X88790382Y-71961974D01*
X88594479Y-71768994D01*
X88364692Y-71617941D01*
X88298337Y-71591038D01*
X88492637Y-71487183D01*
X88705358Y-71312608D01*
X88879933Y-71099887D01*
X89009654Y-70857195D01*
X89089536Y-70593860D01*
X89116509Y-70320000D01*
X89089536Y-70046140D01*
X89009654Y-69782805D01*
X88879933Y-69540113D01*
X88705358Y-69327392D01*
X88492637Y-69152817D01*
X88300279Y-69050000D01*
X88492637Y-68947183D01*
X88705358Y-68772608D01*
X88879933Y-68559887D01*
X89009654Y-68317195D01*
X89089536Y-68053860D01*
X89116509Y-67780000D01*
X89089536Y-67506140D01*
X89009654Y-67242805D01*
X88879933Y-67000113D01*
X88705358Y-66787392D01*
X88492637Y-66612817D01*
X88298337Y-66508962D01*
X88364692Y-66482059D01*
X88594479Y-66331006D01*
X88790382Y-66138026D01*
X88944872Y-65910535D01*
X89052012Y-65657276D01*
X89066970Y-65583070D01*
X88944470Y-65367000D01*
X87503200Y-65367000D01*
X87503200Y-65387000D01*
X87249200Y-65387000D01*
X87249200Y-65367000D01*
X85807930Y-65367000D01*
X85685430Y-65583070D01*
X85700388Y-65657276D01*
X85807528Y-65910535D01*
X85962018Y-66138026D01*
X86157921Y-66331006D01*
X86387708Y-66482059D01*
X86454063Y-66508962D01*
X86259763Y-66612817D01*
X86047042Y-66787392D01*
X85872467Y-67000113D01*
X85742746Y-67242805D01*
X85662864Y-67506140D01*
X85635891Y-67780000D01*
X85435000Y-67780000D01*
X85435000Y-61670131D01*
X85810132Y-61295000D01*
X86220548Y-61295000D01*
X86259763Y-61327183D01*
X86452121Y-61430000D01*
X86259763Y-61532817D01*
X86047042Y-61707392D01*
X85872467Y-61920113D01*
X85742746Y-62162805D01*
X85662864Y-62426140D01*
X85635891Y-62700000D01*
X85662864Y-62973860D01*
X85742746Y-63237195D01*
X85872467Y-63479887D01*
X86047042Y-63692608D01*
X86259763Y-63867183D01*
X86454063Y-63971038D01*
X86387708Y-63997941D01*
X86157921Y-64148994D01*
X85962018Y-64341974D01*
X85807528Y-64569465D01*
X85700388Y-64822724D01*
X85685430Y-64896930D01*
X85807930Y-65113000D01*
X87249200Y-65113000D01*
X87249200Y-65093000D01*
X87503200Y-65093000D01*
X87503200Y-65113000D01*
X88944470Y-65113000D01*
X89066970Y-64896930D01*
X89052012Y-64822724D01*
X88944872Y-64569465D01*
X88790382Y-64341974D01*
X88594479Y-64148994D01*
X88364692Y-63997941D01*
X88298337Y-63971038D01*
X88492637Y-63867183D01*
X88705358Y-63692608D01*
X88879933Y-63479887D01*
X89009654Y-63237195D01*
X89089536Y-62973860D01*
X89116509Y-62700000D01*
X89089536Y-62426140D01*
X89009654Y-62162805D01*
X88879933Y-61920113D01*
X88705358Y-61707392D01*
X88492637Y-61532817D01*
X88300279Y-61430000D01*
X88492637Y-61327183D01*
X88705358Y-61152608D01*
X88879933Y-60939887D01*
X89009654Y-60697195D01*
X89089536Y-60433860D01*
X89116509Y-60160000D01*
X89089536Y-59886140D01*
X89009654Y-59622805D01*
X88879933Y-59380113D01*
X88705358Y-59167392D01*
X88492637Y-58992817D01*
X88300279Y-58890000D01*
X88492637Y-58787183D01*
X88705358Y-58612608D01*
X88879933Y-58399887D01*
X89009654Y-58157195D01*
X89089536Y-57893860D01*
X89116509Y-57620000D01*
X89089536Y-57346140D01*
X89009654Y-57082805D01*
X88879933Y-56840113D01*
X88705358Y-56627392D01*
X88492637Y-56452817D01*
X88300279Y-56350000D01*
X88492637Y-56247183D01*
X88705358Y-56072608D01*
X88879933Y-55859887D01*
X89009654Y-55617195D01*
X89089536Y-55353860D01*
X89116509Y-55080000D01*
X89089536Y-54806140D01*
X89009654Y-54542805D01*
X88879933Y-54300113D01*
X88705358Y-54087392D01*
X88520372Y-53935579D01*
X88599232Y-53927812D01*
X88718930Y-53891502D01*
X88829244Y-53832537D01*
X88925935Y-53753185D01*
X89005287Y-53656494D01*
X89064252Y-53546180D01*
X89100562Y-53426482D01*
X89112822Y-53302000D01*
X89109750Y-52825750D01*
X88951000Y-52667000D01*
X87503200Y-52667000D01*
X87503200Y-52687000D01*
X87249200Y-52687000D01*
X87249200Y-52667000D01*
X85801400Y-52667000D01*
X85642650Y-52825750D01*
X85639578Y-53302000D01*
X85651838Y-53426482D01*
X85688148Y-53546180D01*
X85747113Y-53656494D01*
X85826465Y-53753185D01*
X85923156Y-53832537D01*
X86033470Y-53891502D01*
X86153168Y-53927812D01*
X86232028Y-53935579D01*
X86047042Y-54087392D01*
X85872467Y-54300113D01*
X85742746Y-54542805D01*
X85662864Y-54806140D01*
X85635891Y-55080000D01*
X85662864Y-55353860D01*
X85742746Y-55617195D01*
X85872467Y-55859887D01*
X86047042Y-56072608D01*
X86259763Y-56247183D01*
X86452121Y-56350000D01*
X86259763Y-56452817D01*
X86047042Y-56627392D01*
X85872467Y-56840113D01*
X85742746Y-57082805D01*
X85662864Y-57346140D01*
X85635891Y-57620000D01*
X85662864Y-57893860D01*
X85742746Y-58157195D01*
X85872467Y-58399887D01*
X86047042Y-58612608D01*
X86259763Y-58787183D01*
X86452121Y-58890000D01*
X86259763Y-58992817D01*
X86220548Y-59025000D01*
X85395751Y-59025000D01*
X85339999Y-59019509D01*
X85117500Y-59041423D01*
X84903553Y-59106324D01*
X84706377Y-59211716D01*
X84533551Y-59353551D01*
X84498008Y-59396860D01*
X83536864Y-60358004D01*
X83493551Y-60393551D01*
X83351716Y-60566377D01*
X83273790Y-60712168D01*
X83246324Y-60763554D01*
X83181423Y-60977502D01*
X83159509Y-61200000D01*
X83165000Y-61255752D01*
X83165001Y-73729867D01*
X81299869Y-75595000D01*
X80634741Y-75595000D01*
X80569667Y-75541595D01*
X80417013Y-75460000D01*
X80569667Y-75378405D01*
X80786255Y-75200655D01*
X80964005Y-74984067D01*
X81096084Y-74736963D01*
X81177419Y-74468839D01*
X81204882Y-74190000D01*
X81177419Y-73911161D01*
X81096084Y-73643037D01*
X80964005Y-73395933D01*
X80786255Y-73179345D01*
X80569667Y-73001595D01*
X80417013Y-72920000D01*
X80569667Y-72838405D01*
X80786255Y-72660655D01*
X80964005Y-72444067D01*
X81096084Y-72196963D01*
X81177419Y-71928839D01*
X81204882Y-71650000D01*
X81177419Y-71371161D01*
X81096084Y-71103037D01*
X80964005Y-70855933D01*
X80786255Y-70639345D01*
X80569667Y-70461595D01*
X80322563Y-70329516D01*
X80054439Y-70248181D01*
X79845475Y-70227600D01*
X78994525Y-70227600D01*
X78785561Y-70248181D01*
X78517437Y-70329516D01*
X78270333Y-70461595D01*
X78053745Y-70639345D01*
X77875995Y-70855933D01*
X77743916Y-71103037D01*
X77662581Y-71371161D01*
X77635118Y-71650000D01*
X77662581Y-71928839D01*
X77743916Y-72196963D01*
X77875995Y-72444067D01*
X78053745Y-72660655D01*
X78270333Y-72838405D01*
X78422987Y-72920000D01*
X78270333Y-73001595D01*
X78053745Y-73179345D01*
X77875995Y-73395933D01*
X77743916Y-73643037D01*
X77662581Y-73911161D01*
X77635118Y-74190000D01*
X77662581Y-74468839D01*
X77743916Y-74736963D01*
X77875995Y-74984067D01*
X78053745Y-75200655D01*
X78270333Y-75378405D01*
X78422987Y-75460000D01*
X78270333Y-75541595D01*
X78053745Y-75719345D01*
X77875995Y-75935933D01*
X77743916Y-76183037D01*
X77662581Y-76451161D01*
X77635118Y-76730000D01*
X77662581Y-77008839D01*
X77743916Y-77276963D01*
X77875995Y-77524067D01*
X78053745Y-77740655D01*
X78270333Y-77918405D01*
X78422987Y-78000000D01*
X78270333Y-78081595D01*
X78053745Y-78259345D01*
X77875995Y-78475933D01*
X77743916Y-78723037D01*
X77662581Y-78991161D01*
X77635118Y-79270000D01*
X77662581Y-79548839D01*
X77743916Y-79816963D01*
X77875995Y-80064067D01*
X78053745Y-80280655D01*
X78270333Y-80458405D01*
X78422987Y-80540000D01*
X78270333Y-80621595D01*
X78053745Y-80799345D01*
X77875995Y-81015933D01*
X77743916Y-81263037D01*
X77662581Y-81531161D01*
X77635118Y-81810000D01*
X77662581Y-82088839D01*
X77743916Y-82356963D01*
X77875995Y-82604067D01*
X78053745Y-82820655D01*
X78270333Y-82998405D01*
X78422987Y-83080000D01*
X78270333Y-83161595D01*
X78053745Y-83339345D01*
X77875995Y-83555933D01*
X77743916Y-83803037D01*
X77662581Y-84071161D01*
X77635118Y-84350000D01*
X77662581Y-84628839D01*
X77743916Y-84896963D01*
X77875995Y-85144067D01*
X78053745Y-85360655D01*
X78270333Y-85538405D01*
X78422987Y-85620000D01*
X78270333Y-85701595D01*
X78053745Y-85879345D01*
X77875995Y-86095933D01*
X77743916Y-86343037D01*
X77662581Y-86611161D01*
X77635118Y-86890000D01*
X77662581Y-87168839D01*
X77743916Y-87436963D01*
X77875995Y-87684067D01*
X78053745Y-87900655D01*
X78270333Y-88078405D01*
X78422987Y-88160000D01*
X78270333Y-88241595D01*
X78205259Y-88295000D01*
X71625752Y-88295000D01*
X71570000Y-88289509D01*
X71514248Y-88295000D01*
X71347501Y-88311423D01*
X71133553Y-88376324D01*
X70936377Y-88481716D01*
X70763551Y-88623551D01*
X70728009Y-88666859D01*
X69885000Y-89509868D01*
X69885000Y-51778000D01*
X85639578Y-51778000D01*
X85642650Y-52254250D01*
X85801400Y-52413000D01*
X87249200Y-52413000D01*
X87249200Y-51301750D01*
X87503200Y-51301750D01*
X87503200Y-52413000D01*
X88951000Y-52413000D01*
X89109750Y-52254250D01*
X89112822Y-51778000D01*
X89100562Y-51653518D01*
X89064252Y-51533820D01*
X89005287Y-51423506D01*
X88925935Y-51326815D01*
X88829244Y-51247463D01*
X88718930Y-51188498D01*
X88599232Y-51152188D01*
X88474750Y-51139928D01*
X87661950Y-51143000D01*
X87503200Y-51301750D01*
X87249200Y-51301750D01*
X87090450Y-51143000D01*
X86277650Y-51139928D01*
X86153168Y-51152188D01*
X86033470Y-51188498D01*
X85923156Y-51247463D01*
X85826465Y-51326815D01*
X85747113Y-51423506D01*
X85688148Y-51533820D01*
X85651838Y-51653518D01*
X85639578Y-51778000D01*
X69885000Y-51778000D01*
X69885000Y-47793469D01*
X69889281Y-47750000D01*
X69885000Y-47706531D01*
X69885000Y-47706523D01*
X69872195Y-47576510D01*
X69821589Y-47409687D01*
X69739411Y-47255941D01*
X69628817Y-47121183D01*
X69595051Y-47093472D01*
X64246578Y-41745000D01*
X68993422Y-41745000D01*
X72415002Y-45166581D01*
X72415001Y-48243308D01*
X72400933Y-48277272D01*
X72365001Y-48457912D01*
X72365001Y-48642090D01*
X72400933Y-48822730D01*
X72471415Y-48992890D01*
X72573739Y-49146029D01*
X72703973Y-49276263D01*
X72857112Y-49378587D01*
X73027272Y-49449069D01*
X73087394Y-49461028D01*
X72933422Y-49615000D01*
X71556692Y-49615000D01*
X71522729Y-49600932D01*
X71342089Y-49565000D01*
X71157911Y-49565000D01*
X70977271Y-49600932D01*
X70807111Y-49671414D01*
X70653972Y-49773738D01*
X70523738Y-49903972D01*
X70421414Y-50057111D01*
X70350932Y-50227271D01*
X70315000Y-50407911D01*
X70315000Y-50592089D01*
X70350932Y-50772729D01*
X70421414Y-50942889D01*
X70523738Y-51096028D01*
X70653972Y-51226262D01*
X70807111Y-51328586D01*
X70977271Y-51399068D01*
X71157911Y-51435000D01*
X71342089Y-51435000D01*
X71522729Y-51399068D01*
X71556692Y-51385000D01*
X73256531Y-51385000D01*
X73300000Y-51389281D01*
X73343469Y-51385000D01*
X73343477Y-51385000D01*
X73473490Y-51372195D01*
X73640313Y-51321589D01*
X73794059Y-51239411D01*
X73928817Y-51128817D01*
X73956534Y-51095044D01*
X79651578Y-45400000D01*
X83361928Y-45400000D01*
X83361928Y-47400000D01*
X83374188Y-47524482D01*
X83410498Y-47644180D01*
X83469463Y-47754494D01*
X83548815Y-47851185D01*
X83645506Y-47930537D01*
X83755820Y-47989502D01*
X83875518Y-48025812D01*
X84000000Y-48038072D01*
X86000000Y-48038072D01*
X86124482Y-48025812D01*
X86244180Y-47989502D01*
X86354494Y-47930537D01*
X86451185Y-47851185D01*
X86530537Y-47754494D01*
X86589502Y-47644180D01*
X86625812Y-47524482D01*
X86638072Y-47400000D01*
X86638072Y-45400000D01*
X86625812Y-45275518D01*
X86589502Y-45155820D01*
X86530537Y-45045506D01*
X86451185Y-44948815D01*
X86354494Y-44869463D01*
X86244180Y-44810498D01*
X86124482Y-44774188D01*
X86000000Y-44761928D01*
X84000000Y-44761928D01*
X83875518Y-44774188D01*
X83755820Y-44810498D01*
X83645506Y-44869463D01*
X83548815Y-44948815D01*
X83469463Y-45045506D01*
X83410498Y-45155820D01*
X83374188Y-45275518D01*
X83361928Y-45400000D01*
X79651578Y-45400000D01*
X84653475Y-40398104D01*
X84838967Y-40435000D01*
X85161033Y-40435000D01*
X85476912Y-40372168D01*
X85774463Y-40248918D01*
X86042252Y-40069987D01*
X86269987Y-39842252D01*
X86448918Y-39574463D01*
X86572168Y-39276912D01*
X86635000Y-38961033D01*
X86635000Y-38638967D01*
X86572168Y-38323088D01*
X86448918Y-38025537D01*
X86269987Y-37757748D01*
X86042252Y-37530013D01*
X85774463Y-37351082D01*
X85476912Y-37227832D01*
X85161033Y-37165000D01*
X84838967Y-37165000D01*
X84523088Y-37227832D01*
X84225537Y-37351082D01*
X83957748Y-37530013D01*
X83730013Y-37757748D01*
X83551082Y-38025537D01*
X83427832Y-38323088D01*
X83365000Y-38638967D01*
X83365000Y-38961033D01*
X83401896Y-39146525D01*
X74211028Y-48337394D01*
X74199069Y-48277272D01*
X74185001Y-48243309D01*
X74185001Y-44843470D01*
X74189282Y-44800001D01*
X74185001Y-44756532D01*
X74185001Y-44756524D01*
X74172196Y-44626511D01*
X74121590Y-44459688D01*
X74039412Y-44305942D01*
X73928818Y-44171184D01*
X73895050Y-44143471D01*
X70016534Y-40264956D01*
X69988817Y-40231183D01*
X69854059Y-40120589D01*
X69700313Y-40038411D01*
X69533490Y-39987805D01*
X69403477Y-39975000D01*
X69403469Y-39975000D01*
X69360000Y-39970719D01*
X69316531Y-39975000D01*
X47941269Y-39975000D01*
X47852958Y-39867392D01*
X47640237Y-39692817D01*
X47447879Y-39590000D01*
X47640237Y-39487183D01*
X47852958Y-39312608D01*
X48027533Y-39099887D01*
X48157254Y-38857195D01*
X48237136Y-38593860D01*
X48264109Y-38320000D01*
X48237136Y-38046140D01*
X48157254Y-37782805D01*
X48027533Y-37540113D01*
X47852958Y-37327392D01*
X47640237Y-37152817D01*
X47397545Y-37023096D01*
X47134210Y-36943214D01*
X46928975Y-36923000D01*
X46118625Y-36923000D01*
X45913390Y-36943214D01*
X45650055Y-37023096D01*
X45407363Y-37152817D01*
X45194642Y-37327392D01*
X45020067Y-37540113D01*
X44890346Y-37782805D01*
X44810464Y-38046140D01*
X44783491Y-38320000D01*
X42710000Y-38320000D01*
X42710000Y-33914155D01*
X44265450Y-33914155D01*
X44661634Y-34434550D01*
X45376612Y-34824748D01*
X46153976Y-35067964D01*
X46963853Y-35154851D01*
X47775118Y-35082069D01*
X48556597Y-34852415D01*
X49278256Y-34474715D01*
X49338366Y-34434550D01*
X49734550Y-33914155D01*
X84265450Y-33914155D01*
X84661634Y-34434550D01*
X85376612Y-34824748D01*
X86153976Y-35067964D01*
X86963853Y-35154851D01*
X87775118Y-35082069D01*
X88556597Y-34852415D01*
X89278256Y-34474715D01*
X89338366Y-34434550D01*
X89734550Y-33914155D01*
X87000000Y-31179605D01*
X84265450Y-33914155D01*
X49734550Y-33914155D01*
X47000000Y-31179605D01*
X44265450Y-33914155D01*
X42710000Y-33914155D01*
X42710000Y-30963853D01*
X42845149Y-30963853D01*
X42917931Y-31775118D01*
X43147585Y-32556597D01*
X43525285Y-33278256D01*
X43565450Y-33338366D01*
X44085845Y-33734550D01*
X46820395Y-31000000D01*
X47179605Y-31000000D01*
X49914155Y-33734550D01*
X50434550Y-33338366D01*
X50824748Y-32623388D01*
X51067964Y-31846024D01*
X51154851Y-31036147D01*
X51148366Y-30963853D01*
X82845149Y-30963853D01*
X82917931Y-31775118D01*
X83147585Y-32556597D01*
X83525285Y-33278256D01*
X83565450Y-33338366D01*
X84085845Y-33734550D01*
X86820395Y-31000000D01*
X87179605Y-31000000D01*
X89914155Y-33734550D01*
X90434550Y-33338366D01*
X90824748Y-32623388D01*
X91067964Y-31846024D01*
X91154851Y-31036147D01*
X91082069Y-30224882D01*
X90852415Y-29443403D01*
X90474715Y-28721744D01*
X90434550Y-28661634D01*
X89914155Y-28265450D01*
X87179605Y-31000000D01*
X86820395Y-31000000D01*
X84085845Y-28265450D01*
X83565450Y-28661634D01*
X83175252Y-29376612D01*
X82932036Y-30153976D01*
X82845149Y-30963853D01*
X51148366Y-30963853D01*
X51082069Y-30224882D01*
X50852415Y-29443403D01*
X50474715Y-28721744D01*
X50434550Y-28661634D01*
X49914155Y-28265450D01*
X47179605Y-31000000D01*
X46820395Y-31000000D01*
X44085845Y-28265450D01*
X43565450Y-28661634D01*
X43175252Y-29376612D01*
X42932036Y-30153976D01*
X42845149Y-30963853D01*
X42710000Y-30963853D01*
X42710000Y-28085845D01*
X44265450Y-28085845D01*
X47000000Y-30820395D01*
X49734550Y-28085845D01*
X84265450Y-28085845D01*
X87000000Y-30820395D01*
X89734550Y-28085845D01*
X89338366Y-27565450D01*
X88623388Y-27175252D01*
X87846024Y-26932036D01*
X87036147Y-26845149D01*
X86224882Y-26917931D01*
X85443403Y-27147585D01*
X84721744Y-27525285D01*
X84661634Y-27565450D01*
X84265450Y-28085845D01*
X49734550Y-28085845D01*
X49338366Y-27565450D01*
X48623388Y-27175252D01*
X47846024Y-26932036D01*
X47036147Y-26845149D01*
X46224882Y-26917931D01*
X45443403Y-27147585D01*
X44721744Y-27525285D01*
X44661634Y-27565450D01*
X44265450Y-28085845D01*
X42710000Y-28085845D01*
X42710000Y-26710000D01*
X91290000Y-26710000D01*
X91290001Y-125290000D01*
G37*
X91290001Y-125290000D02*
X42710000Y-125290000D01*
X42710000Y-123914155D01*
X44265450Y-123914155D01*
X44661634Y-124434550D01*
X45376612Y-124824748D01*
X46153976Y-125067964D01*
X46963853Y-125154851D01*
X47775118Y-125082069D01*
X48556597Y-124852415D01*
X49278256Y-124474715D01*
X49338366Y-124434550D01*
X49734550Y-123914155D01*
X84265450Y-123914155D01*
X84661634Y-124434550D01*
X85376612Y-124824748D01*
X86153976Y-125067964D01*
X86963853Y-125154851D01*
X87775118Y-125082069D01*
X88556597Y-124852415D01*
X89278256Y-124474715D01*
X89338366Y-124434550D01*
X89734550Y-123914155D01*
X87000000Y-121179605D01*
X84265450Y-123914155D01*
X49734550Y-123914155D01*
X47000000Y-121179605D01*
X44265450Y-123914155D01*
X42710000Y-123914155D01*
X42710000Y-120963853D01*
X42845149Y-120963853D01*
X42917931Y-121775118D01*
X43147585Y-122556597D01*
X43525285Y-123278256D01*
X43565450Y-123338366D01*
X44085845Y-123734550D01*
X46820395Y-121000000D01*
X47179605Y-121000000D01*
X49914155Y-123734550D01*
X50434550Y-123338366D01*
X50824748Y-122623388D01*
X51067964Y-121846024D01*
X51154851Y-121036147D01*
X51148366Y-120963853D01*
X82845149Y-120963853D01*
X82917931Y-121775118D01*
X83147585Y-122556597D01*
X83525285Y-123278256D01*
X83565450Y-123338366D01*
X84085845Y-123734550D01*
X86820395Y-121000000D01*
X87179605Y-121000000D01*
X89914155Y-123734550D01*
X90434550Y-123338366D01*
X90824748Y-122623388D01*
X91067964Y-121846024D01*
X91154851Y-121036147D01*
X91082069Y-120224882D01*
X90852415Y-119443403D01*
X90474715Y-118721744D01*
X90434550Y-118661634D01*
X89914155Y-118265450D01*
X87179605Y-121000000D01*
X86820395Y-121000000D01*
X84085845Y-118265450D01*
X83565450Y-118661634D01*
X83175252Y-119376612D01*
X82932036Y-120153976D01*
X82845149Y-120963853D01*
X51148366Y-120963853D01*
X51082069Y-120224882D01*
X50852415Y-119443403D01*
X50474715Y-118721744D01*
X50434550Y-118661634D01*
X49914155Y-118265450D01*
X47179605Y-121000000D01*
X46820395Y-121000000D01*
X44085845Y-118265450D01*
X43565450Y-118661634D01*
X43175252Y-119376612D01*
X42932036Y-120153976D01*
X42845149Y-120963853D01*
X42710000Y-120963853D01*
X42710000Y-118085845D01*
X44265450Y-118085845D01*
X47000000Y-120820395D01*
X49734550Y-118085845D01*
X84265450Y-118085845D01*
X87000000Y-120820395D01*
X89734550Y-118085845D01*
X89338366Y-117565450D01*
X88623388Y-117175252D01*
X87846024Y-116932036D01*
X87036147Y-116845149D01*
X86224882Y-116917931D01*
X85443403Y-117147585D01*
X84721744Y-117525285D01*
X84661634Y-117565450D01*
X84265450Y-118085845D01*
X49734550Y-118085845D01*
X49338366Y-117565450D01*
X48623388Y-117175252D01*
X47846024Y-116932036D01*
X47036147Y-116845149D01*
X46224882Y-116917931D01*
X45443403Y-117147585D01*
X44721744Y-117525285D01*
X44661634Y-117565450D01*
X44265450Y-118085845D01*
X42710000Y-118085845D01*
X42710000Y-113708000D01*
X44987178Y-113708000D01*
X44987178Y-115232000D01*
X44999438Y-115356482D01*
X45035748Y-115476180D01*
X45094713Y-115586494D01*
X45174065Y-115683185D01*
X45270756Y-115762537D01*
X45381070Y-115821502D01*
X45500768Y-115857812D01*
X45625250Y-115870072D01*
X47822350Y-115870072D01*
X47946832Y-115857812D01*
X48066530Y-115821502D01*
X48176844Y-115762537D01*
X48273535Y-115683185D01*
X48352887Y-115586494D01*
X48411852Y-115476180D01*
X48448162Y-115356482D01*
X48460422Y-115232000D01*
X48460422Y-113708000D01*
X48448162Y-113583518D01*
X48411852Y-113463820D01*
X48352887Y-113353506D01*
X48273535Y-113256815D01*
X48176844Y-113177463D01*
X48066530Y-113118498D01*
X47946832Y-113082188D01*
X47861754Y-113073809D01*
X47942079Y-113021006D01*
X48137982Y-112828026D01*
X48292472Y-112600535D01*
X48399612Y-112347276D01*
X48414570Y-112273070D01*
X48292070Y-112057000D01*
X46850800Y-112057000D01*
X46850800Y-112077000D01*
X46596800Y-112077000D01*
X46596800Y-112057000D01*
X45155530Y-112057000D01*
X45033030Y-112273070D01*
X45047988Y-112347276D01*
X45155128Y-112600535D01*
X45309618Y-112828026D01*
X45505521Y-113021006D01*
X45585846Y-113073809D01*
X45500768Y-113082188D01*
X45381070Y-113118498D01*
X45270756Y-113177463D01*
X45174065Y-113256815D01*
X45094713Y-113353506D01*
X45035748Y-113463820D01*
X44999438Y-113583518D01*
X44987178Y-113708000D01*
X42710000Y-113708000D01*
X42710000Y-111586930D01*
X45033030Y-111586930D01*
X45155530Y-111803000D01*
X46596800Y-111803000D01*
X46596800Y-110533000D01*
X46850800Y-110533000D01*
X46850800Y-111803000D01*
X48292070Y-111803000D01*
X48414570Y-111586930D01*
X48399612Y-111512724D01*
X48292472Y-111259465D01*
X48137982Y-111031974D01*
X47942079Y-110838994D01*
X47712292Y-110687941D01*
X47457451Y-110584619D01*
X47187350Y-110533000D01*
X46850800Y-110533000D01*
X46596800Y-110533000D01*
X46260250Y-110533000D01*
X45990149Y-110584619D01*
X45735308Y-110687941D01*
X45505521Y-110838994D01*
X45309618Y-111031974D01*
X45155128Y-111259465D01*
X45047988Y-111512724D01*
X45033030Y-111586930D01*
X42710000Y-111586930D01*
X42710000Y-106868000D01*
X44987178Y-106868000D01*
X44987178Y-108392000D01*
X44999438Y-108516482D01*
X45035748Y-108636180D01*
X45094713Y-108746494D01*
X45174065Y-108843185D01*
X45270756Y-108922537D01*
X45381070Y-108981502D01*
X45500768Y-109017812D01*
X45625250Y-109030072D01*
X47822350Y-109030072D01*
X47946832Y-109017812D01*
X48054999Y-108985000D01*
X50218037Y-108985000D01*
X50421507Y-108964960D01*
X50510145Y-108938072D01*
X50700001Y-108938072D01*
X50873255Y-108921008D01*
X51039851Y-108870472D01*
X51193387Y-108788405D01*
X51327962Y-108677962D01*
X51333342Y-108671406D01*
X51398815Y-108751185D01*
X51495506Y-108830537D01*
X51605820Y-108889502D01*
X51725518Y-108925812D01*
X51850000Y-108938072D01*
X52139250Y-108935000D01*
X52298000Y-108776250D01*
X52298000Y-107727000D01*
X52552000Y-107727000D01*
X52552000Y-108776250D01*
X52710750Y-108935000D01*
X53000000Y-108938072D01*
X53124482Y-108925812D01*
X53244180Y-108889502D01*
X53354494Y-108830537D01*
X53451185Y-108751185D01*
X53530537Y-108654494D01*
X53589502Y-108544180D01*
X53625812Y-108424482D01*
X53638072Y-108300000D01*
X53635000Y-107885750D01*
X53476250Y-107727000D01*
X52552000Y-107727000D01*
X52298000Y-107727000D01*
X52278000Y-107727000D01*
X52278000Y-107473000D01*
X52298000Y-107473000D01*
X52298000Y-106423750D01*
X52552000Y-106423750D01*
X52552000Y-107473000D01*
X53476250Y-107473000D01*
X53635000Y-107314250D01*
X53635773Y-107210000D01*
X62395118Y-107210000D01*
X62422581Y-107488839D01*
X62503916Y-107756963D01*
X62635995Y-108004067D01*
X62813745Y-108220655D01*
X63030333Y-108398405D01*
X63277437Y-108530484D01*
X63545561Y-108611819D01*
X63754525Y-108632400D01*
X64605475Y-108632400D01*
X64814439Y-108611819D01*
X65082563Y-108530484D01*
X65329667Y-108398405D01*
X65546255Y-108220655D01*
X65724005Y-108004067D01*
X65856084Y-107756963D01*
X65937419Y-107488839D01*
X65964882Y-107210000D01*
X65937419Y-106931161D01*
X65856084Y-106663037D01*
X65724005Y-106415933D01*
X65546255Y-106199345D01*
X65329667Y-106021595D01*
X65180955Y-105942107D01*
X65197262Y-105935526D01*
X65431440Y-105782125D01*
X65631192Y-105585986D01*
X65788841Y-105354646D01*
X65898328Y-105096996D01*
X65915010Y-105017060D01*
X65792852Y-104797000D01*
X64307000Y-104797000D01*
X64307000Y-104817000D01*
X64053000Y-104817000D01*
X64053000Y-104797000D01*
X62567148Y-104797000D01*
X62444990Y-105017060D01*
X62461672Y-105096996D01*
X62571159Y-105354646D01*
X62728808Y-105585986D01*
X62928560Y-105782125D01*
X63162738Y-105935526D01*
X63179045Y-105942107D01*
X63030333Y-106021595D01*
X62813745Y-106199345D01*
X62635995Y-106415933D01*
X62503916Y-106663037D01*
X62422581Y-106931161D01*
X62395118Y-107210000D01*
X53635773Y-107210000D01*
X53638072Y-106900000D01*
X53625812Y-106775518D01*
X53589502Y-106655820D01*
X53530537Y-106545506D01*
X53451185Y-106448815D01*
X53354494Y-106369463D01*
X53244180Y-106310498D01*
X53124482Y-106274188D01*
X53000000Y-106261928D01*
X52710750Y-106265000D01*
X52552000Y-106423750D01*
X52298000Y-106423750D01*
X52139250Y-106265000D01*
X51850000Y-106261928D01*
X51725518Y-106274188D01*
X51605820Y-106310498D01*
X51495506Y-106369463D01*
X51398815Y-106448815D01*
X51333342Y-106528594D01*
X51327962Y-106522038D01*
X51193387Y-106411595D01*
X51039851Y-106329528D01*
X50873255Y-106278992D01*
X50700001Y-106261928D01*
X50510145Y-106261928D01*
X50421507Y-106235040D01*
X50218037Y-106215000D01*
X47890366Y-106215000D01*
X47942079Y-106181006D01*
X48137982Y-105988026D01*
X48292472Y-105760535D01*
X48399612Y-105507276D01*
X48414570Y-105433070D01*
X48292070Y-105217000D01*
X46850800Y-105217000D01*
X46850800Y-105237000D01*
X46596800Y-105237000D01*
X46596800Y-105217000D01*
X45155530Y-105217000D01*
X45033030Y-105433070D01*
X45047988Y-105507276D01*
X45155128Y-105760535D01*
X45309618Y-105988026D01*
X45505521Y-106181006D01*
X45585846Y-106233809D01*
X45500768Y-106242188D01*
X45381070Y-106278498D01*
X45270756Y-106337463D01*
X45174065Y-106416815D01*
X45094713Y-106513506D01*
X45035748Y-106623820D01*
X44999438Y-106743518D01*
X44987178Y-106868000D01*
X42710000Y-106868000D01*
X42710000Y-97813070D01*
X45033030Y-97813070D01*
X45047988Y-97887276D01*
X45155128Y-98140535D01*
X45309618Y-98368026D01*
X45505521Y-98561006D01*
X45735308Y-98712059D01*
X45804224Y-98740000D01*
X45735308Y-98767941D01*
X45505521Y-98918994D01*
X45309618Y-99111974D01*
X45155128Y-99339465D01*
X45047988Y-99592724D01*
X45033030Y-99666930D01*
X45155530Y-99883000D01*
X46596800Y-99883000D01*
X46596800Y-97597000D01*
X46850800Y-97597000D01*
X46850800Y-99883000D01*
X48292070Y-99883000D01*
X48414570Y-99666930D01*
X48399612Y-99592724D01*
X48292472Y-99339465D01*
X48137982Y-99111974D01*
X47942079Y-98918994D01*
X47712292Y-98767941D01*
X47643376Y-98740000D01*
X47712292Y-98712059D01*
X47942079Y-98561006D01*
X48137982Y-98368026D01*
X48292472Y-98140535D01*
X48399612Y-97887276D01*
X48414570Y-97813070D01*
X48292070Y-97597000D01*
X46850800Y-97597000D01*
X46596800Y-97597000D01*
X45155530Y-97597000D01*
X45033030Y-97813070D01*
X42710000Y-97813070D01*
X42710000Y-92390000D01*
X44983491Y-92390000D01*
X45010464Y-92663860D01*
X45090346Y-92927195D01*
X45220067Y-93169887D01*
X45394642Y-93382608D01*
X45607363Y-93557183D01*
X45799721Y-93660000D01*
X45607363Y-93762817D01*
X45394642Y-93937392D01*
X45220067Y-94150113D01*
X45090346Y-94392805D01*
X45010464Y-94656140D01*
X44983491Y-94930000D01*
X45010464Y-95203860D01*
X45090346Y-95467195D01*
X45220067Y-95709887D01*
X45394642Y-95922608D01*
X45607363Y-96097183D01*
X45801663Y-96201038D01*
X45735308Y-96227941D01*
X45505521Y-96378994D01*
X45309618Y-96571974D01*
X45155128Y-96799465D01*
X45047988Y-97052724D01*
X45033030Y-97126930D01*
X45155530Y-97343000D01*
X46596800Y-97343000D01*
X46596800Y-97323000D01*
X46850800Y-97323000D01*
X46850800Y-97343000D01*
X48292070Y-97343000D01*
X48414570Y-97126930D01*
X48399612Y-97052724D01*
X48292472Y-96799465D01*
X48137982Y-96571974D01*
X47942079Y-96378994D01*
X47712292Y-96227941D01*
X47645937Y-96201038D01*
X47840237Y-96097183D01*
X48052958Y-95922608D01*
X48227533Y-95709887D01*
X48357254Y-95467195D01*
X48437136Y-95203860D01*
X48464109Y-94930000D01*
X48437136Y-94656140D01*
X48357254Y-94392805D01*
X48227533Y-94150113D01*
X48052958Y-93937392D01*
X47840237Y-93762817D01*
X47647879Y-93660000D01*
X47840237Y-93557183D01*
X48052958Y-93382608D01*
X48227533Y-93169887D01*
X48357254Y-92927195D01*
X48437136Y-92663860D01*
X48464109Y-92390000D01*
X48437136Y-92116140D01*
X48357254Y-91852805D01*
X48227533Y-91610113D01*
X48052958Y-91397392D01*
X47840237Y-91222817D01*
X47645937Y-91118962D01*
X47712292Y-91092059D01*
X47942079Y-90941006D01*
X48137982Y-90748026D01*
X48292472Y-90520535D01*
X48399612Y-90267276D01*
X48414570Y-90193070D01*
X48292070Y-89977000D01*
X46850800Y-89977000D01*
X46850800Y-89997000D01*
X46596800Y-89997000D01*
X46596800Y-89977000D01*
X45155530Y-89977000D01*
X45033030Y-90193070D01*
X45047988Y-90267276D01*
X45155128Y-90520535D01*
X45309618Y-90748026D01*
X45505521Y-90941006D01*
X45735308Y-91092059D01*
X45801663Y-91118962D01*
X45607363Y-91222817D01*
X45394642Y-91397392D01*
X45220067Y-91610113D01*
X45090346Y-91852805D01*
X45010464Y-92116140D01*
X44983491Y-92390000D01*
X42710000Y-92390000D01*
X42710000Y-87310000D01*
X44983491Y-87310000D01*
X45010464Y-87583860D01*
X45090346Y-87847195D01*
X45220067Y-88089887D01*
X45394642Y-88302608D01*
X45607363Y-88477183D01*
X45801663Y-88581038D01*
X45735308Y-88607941D01*
X45505521Y-88758994D01*
X45309618Y-88951974D01*
X45155128Y-89179465D01*
X45047988Y-89432724D01*
X45033030Y-89506930D01*
X45155530Y-89723000D01*
X46596800Y-89723000D01*
X46596800Y-89703000D01*
X46850800Y-89703000D01*
X46850800Y-89723000D01*
X48292070Y-89723000D01*
X48414570Y-89506930D01*
X48399612Y-89432724D01*
X48292472Y-89179465D01*
X48137982Y-88951974D01*
X47942079Y-88758994D01*
X47712292Y-88607941D01*
X47645937Y-88581038D01*
X47840237Y-88477183D01*
X48052958Y-88302608D01*
X48227533Y-88089887D01*
X48357254Y-87847195D01*
X48437136Y-87583860D01*
X48464109Y-87310000D01*
X48437136Y-87036140D01*
X48357254Y-86772805D01*
X48227533Y-86530113D01*
X48052958Y-86317392D01*
X47840237Y-86142817D01*
X47645937Y-86038962D01*
X47712292Y-86012059D01*
X47942079Y-85861006D01*
X48137982Y-85668026D01*
X48292472Y-85440535D01*
X48399612Y-85187276D01*
X48414570Y-85113070D01*
X48292070Y-84897000D01*
X46850800Y-84897000D01*
X46850800Y-84917000D01*
X46596800Y-84917000D01*
X46596800Y-84897000D01*
X45155530Y-84897000D01*
X45033030Y-85113070D01*
X45047988Y-85187276D01*
X45155128Y-85440535D01*
X45309618Y-85668026D01*
X45505521Y-85861006D01*
X45735308Y-86012059D01*
X45801663Y-86038962D01*
X45607363Y-86142817D01*
X45394642Y-86317392D01*
X45220067Y-86530113D01*
X45090346Y-86772805D01*
X45010464Y-87036140D01*
X44983491Y-87310000D01*
X42710000Y-87310000D01*
X42710000Y-84426930D01*
X45033030Y-84426930D01*
X45155530Y-84643000D01*
X46596800Y-84643000D01*
X46596800Y-83373000D01*
X46850800Y-83373000D01*
X46850800Y-84643000D01*
X48292070Y-84643000D01*
X48414570Y-84426930D01*
X48399612Y-84352724D01*
X48292472Y-84099465D01*
X48137982Y-83871974D01*
X47942079Y-83678994D01*
X47712292Y-83527941D01*
X47457451Y-83424619D01*
X47187350Y-83373000D01*
X46850800Y-83373000D01*
X46596800Y-83373000D01*
X46260250Y-83373000D01*
X45990149Y-83424619D01*
X45735308Y-83527941D01*
X45505521Y-83678994D01*
X45309618Y-83871974D01*
X45155128Y-84099465D01*
X45047988Y-84352724D01*
X45033030Y-84426930D01*
X42710000Y-84426930D01*
X42710000Y-58978967D01*
X43285000Y-58978967D01*
X43285000Y-59301033D01*
X43347832Y-59616912D01*
X43471082Y-59914463D01*
X43650013Y-60182252D01*
X43877748Y-60409987D01*
X44145537Y-60588918D01*
X44443088Y-60712168D01*
X44758967Y-60775000D01*
X45081033Y-60775000D01*
X45396912Y-60712168D01*
X45694463Y-60588918D01*
X45962252Y-60409987D01*
X46189987Y-60182252D01*
X46368918Y-59914463D01*
X46492168Y-59616912D01*
X46555000Y-59301033D01*
X46555000Y-58978967D01*
X46492168Y-58663088D01*
X46368918Y-58365537D01*
X46189987Y-58097748D01*
X45962252Y-57870013D01*
X45694463Y-57691082D01*
X45396912Y-57567832D01*
X45081033Y-57505000D01*
X44758967Y-57505000D01*
X44443088Y-57567832D01*
X44145537Y-57691082D01*
X43877748Y-57870013D01*
X43650013Y-58097748D01*
X43471082Y-58365537D01*
X43347832Y-58663088D01*
X43285000Y-58978967D01*
X42710000Y-58978967D01*
X42710000Y-53898967D01*
X43285000Y-53898967D01*
X43285000Y-54221033D01*
X43347832Y-54536912D01*
X43471082Y-54834463D01*
X43650013Y-55102252D01*
X43877748Y-55329987D01*
X44145537Y-55508918D01*
X44443088Y-55632168D01*
X44758967Y-55695000D01*
X45081033Y-55695000D01*
X45396912Y-55632168D01*
X45694463Y-55508918D01*
X45962252Y-55329987D01*
X46189987Y-55102252D01*
X46368918Y-54834463D01*
X46492168Y-54536912D01*
X46555000Y-54221033D01*
X46555000Y-53898967D01*
X46492168Y-53583088D01*
X46368918Y-53285537D01*
X46189987Y-53017748D01*
X45962252Y-52790013D01*
X45694463Y-52611082D01*
X45396912Y-52487832D01*
X45081033Y-52425000D01*
X44758967Y-52425000D01*
X44443088Y-52487832D01*
X44145537Y-52611082D01*
X43877748Y-52790013D01*
X43650013Y-53017748D01*
X43471082Y-53285537D01*
X43347832Y-53583088D01*
X43285000Y-53898967D01*
X42710000Y-53898967D01*
X42710000Y-45940000D01*
X44783491Y-45940000D01*
X44810464Y-46213860D01*
X44890346Y-46477195D01*
X45020067Y-46719887D01*
X45194642Y-46932608D01*
X45379628Y-47084421D01*
X45300768Y-47092188D01*
X45181070Y-47128498D01*
X45070756Y-47187463D01*
X44974065Y-47266815D01*
X44894713Y-47363506D01*
X44835748Y-47473820D01*
X44799438Y-47593518D01*
X44787178Y-47718000D01*
X44787178Y-49242000D01*
X44799438Y-49366482D01*
X44835748Y-49486180D01*
X44894713Y-49596494D01*
X44974065Y-49693185D01*
X45070756Y-49772537D01*
X45181070Y-49831502D01*
X45300768Y-49867812D01*
X45425250Y-49880072D01*
X47622350Y-49880072D01*
X47746832Y-49867812D01*
X47866530Y-49831502D01*
X47976844Y-49772537D01*
X48073535Y-49693185D01*
X48152887Y-49596494D01*
X48211852Y-49486180D01*
X48248162Y-49366482D01*
X48260422Y-49242000D01*
X48260422Y-47718000D01*
X48248162Y-47593518D01*
X48211852Y-47473820D01*
X48152887Y-47363506D01*
X48073535Y-47266815D01*
X47976844Y-47187463D01*
X47866530Y-47128498D01*
X47746832Y-47092188D01*
X47667972Y-47084421D01*
X47852958Y-46932608D01*
X48027533Y-46719887D01*
X48157254Y-46477195D01*
X48237136Y-46213860D01*
X48264109Y-45940000D01*
X48237136Y-45666140D01*
X48157254Y-45402805D01*
X48027533Y-45160113D01*
X47852958Y-44947392D01*
X47640237Y-44772817D01*
X47445937Y-44668962D01*
X47512292Y-44642059D01*
X47742079Y-44491006D01*
X47937982Y-44298026D01*
X48092472Y-44070535D01*
X48199612Y-43817276D01*
X48214570Y-43743070D01*
X48092070Y-43527000D01*
X46650800Y-43527000D01*
X46650800Y-43547000D01*
X46396800Y-43547000D01*
X46396800Y-43527000D01*
X44955530Y-43527000D01*
X44833030Y-43743070D01*
X44847988Y-43817276D01*
X44955128Y-44070535D01*
X45109618Y-44298026D01*
X45305521Y-44491006D01*
X45535308Y-44642059D01*
X45601663Y-44668962D01*
X45407363Y-44772817D01*
X45194642Y-44947392D01*
X45020067Y-45160113D01*
X44890346Y-45402805D01*
X44810464Y-45666140D01*
X44783491Y-45940000D01*
X42710000Y-45940000D01*
X42710000Y-38320000D01*
X44783491Y-38320000D01*
X44810464Y-38593860D01*
X44890346Y-38857195D01*
X45020067Y-39099887D01*
X45194642Y-39312608D01*
X45407363Y-39487183D01*
X45599721Y-39590000D01*
X45407363Y-39692817D01*
X45194642Y-39867392D01*
X45020067Y-40080113D01*
X44890346Y-40322805D01*
X44810464Y-40586140D01*
X44783491Y-40860000D01*
X44810464Y-41133860D01*
X44890346Y-41397195D01*
X45020067Y-41639887D01*
X45194642Y-41852608D01*
X45407363Y-42027183D01*
X45601663Y-42131038D01*
X45535308Y-42157941D01*
X45305521Y-42308994D01*
X45109618Y-42501974D01*
X44955128Y-42729465D01*
X44847988Y-42982724D01*
X44833030Y-43056930D01*
X44955530Y-43273000D01*
X46396800Y-43273000D01*
X46396800Y-43253000D01*
X46650800Y-43253000D01*
X46650800Y-43273000D01*
X48092070Y-43273000D01*
X48214570Y-43056930D01*
X48199612Y-42982724D01*
X48092472Y-42729465D01*
X47937982Y-42501974D01*
X47742079Y-42308994D01*
X47512292Y-42157941D01*
X47445937Y-42131038D01*
X47640237Y-42027183D01*
X47852958Y-41852608D01*
X47941269Y-41745000D01*
X59847405Y-41745000D01*
X59815000Y-41907911D01*
X59815000Y-42092089D01*
X59850932Y-42272729D01*
X59921414Y-42442889D01*
X60023738Y-42596028D01*
X60153972Y-42726262D01*
X60307111Y-42828586D01*
X60477271Y-42899068D01*
X60657911Y-42935000D01*
X60842089Y-42935000D01*
X61022729Y-42899068D01*
X61056692Y-42885000D01*
X62883422Y-42885000D01*
X68115000Y-48116579D01*
X68115000Y-49870835D01*
X68000000Y-49859509D01*
X67777502Y-49881423D01*
X67563554Y-49946324D01*
X67366378Y-50051716D01*
X67193552Y-50193551D01*
X67051717Y-50366377D01*
X66946325Y-50563553D01*
X66881424Y-50777501D01*
X66865001Y-50944248D01*
X66865000Y-88035468D01*
X65893637Y-89006832D01*
X65856084Y-88883037D01*
X65724005Y-88635933D01*
X65546255Y-88419345D01*
X65329667Y-88241595D01*
X65177013Y-88160000D01*
X65329667Y-88078405D01*
X65546255Y-87900655D01*
X65724005Y-87684067D01*
X65856084Y-87436963D01*
X65937419Y-87168839D01*
X65964882Y-86890000D01*
X65937419Y-86611161D01*
X65856084Y-86343037D01*
X65724005Y-86095933D01*
X65546255Y-85879345D01*
X65329667Y-85701595D01*
X65177013Y-85620000D01*
X65329667Y-85538405D01*
X65546255Y-85360655D01*
X65724005Y-85144067D01*
X65856084Y-84896963D01*
X65937419Y-84628839D01*
X65964882Y-84350000D01*
X65937419Y-84071161D01*
X65856084Y-83803037D01*
X65724005Y-83555933D01*
X65546255Y-83339345D01*
X65329667Y-83161595D01*
X65177013Y-83080000D01*
X65329667Y-82998405D01*
X65546255Y-82820655D01*
X65724005Y-82604067D01*
X65856084Y-82356963D01*
X65937419Y-82088839D01*
X65964882Y-81810000D01*
X65937419Y-81531161D01*
X65856084Y-81263037D01*
X65724005Y-81015933D01*
X65546255Y-80799345D01*
X65329667Y-80621595D01*
X65177013Y-80540000D01*
X65329667Y-80458405D01*
X65546255Y-80280655D01*
X65724005Y-80064067D01*
X65856084Y-79816963D01*
X65937419Y-79548839D01*
X65964882Y-79270000D01*
X65937419Y-78991161D01*
X65856084Y-78723037D01*
X65724005Y-78475933D01*
X65546255Y-78259345D01*
X65329667Y-78081595D01*
X65177013Y-78000000D01*
X65329667Y-77918405D01*
X65546255Y-77740655D01*
X65724005Y-77524067D01*
X65856084Y-77276963D01*
X65937419Y-77008839D01*
X65964882Y-76730000D01*
X65937419Y-76451161D01*
X65856084Y-76183037D01*
X65724005Y-75935933D01*
X65546255Y-75719345D01*
X65329667Y-75541595D01*
X65177013Y-75460000D01*
X65329667Y-75378405D01*
X65546255Y-75200655D01*
X65724005Y-74984067D01*
X65856084Y-74736963D01*
X65937419Y-74468839D01*
X65964882Y-74190000D01*
X65937419Y-73911161D01*
X65856084Y-73643037D01*
X65724005Y-73395933D01*
X65546255Y-73179345D01*
X65409326Y-73066970D01*
X65447482Y-73063212D01*
X65567180Y-73026902D01*
X65677494Y-72967937D01*
X65774185Y-72888585D01*
X65853537Y-72791894D01*
X65912502Y-72681580D01*
X65948812Y-72561882D01*
X65961072Y-72437400D01*
X65961072Y-70862600D01*
X65948812Y-70738118D01*
X65912502Y-70618420D01*
X65853537Y-70508106D01*
X65774185Y-70411415D01*
X65677494Y-70332063D01*
X65567180Y-70273098D01*
X65447482Y-70236788D01*
X65323000Y-70224528D01*
X63179538Y-70224528D01*
X63143439Y-70180541D01*
X63100130Y-70144998D01*
X62313143Y-69358012D01*
X62183622Y-69251717D01*
X61986446Y-69146324D01*
X61772498Y-69081423D01*
X61550000Y-69059509D01*
X61335000Y-69080685D01*
X61335000Y-53255751D01*
X61340491Y-53199999D01*
X61318577Y-52977501D01*
X61253676Y-52763553D01*
X61231732Y-52722498D01*
X61148284Y-52566377D01*
X61006449Y-52393551D01*
X60963140Y-52358009D01*
X59341996Y-50736865D01*
X59306449Y-50693551D01*
X59133623Y-50551716D01*
X58936447Y-50446324D01*
X58722499Y-50381423D01*
X58555752Y-50365000D01*
X58555751Y-50365000D01*
X58500000Y-50359509D01*
X58444249Y-50365000D01*
X51055752Y-50365000D01*
X51000000Y-50359509D01*
X50777501Y-50381423D01*
X50563553Y-50446324D01*
X50366377Y-50551716D01*
X50236856Y-50658011D01*
X50236855Y-50658012D01*
X50193551Y-50693551D01*
X50158013Y-50736855D01*
X49236859Y-51658009D01*
X49193552Y-51693551D01*
X49051717Y-51866377D01*
X49015038Y-51935000D01*
X48946324Y-52063554D01*
X48881423Y-52277502D01*
X48859509Y-52500000D01*
X48865000Y-52555751D01*
X48865000Y-52882761D01*
X48730013Y-53017748D01*
X48551082Y-53285537D01*
X48427832Y-53583088D01*
X48365000Y-53898967D01*
X48365000Y-54221033D01*
X48427832Y-54536912D01*
X48551082Y-54834463D01*
X48730013Y-55102252D01*
X48865000Y-55237239D01*
X48865001Y-57962760D01*
X48730013Y-58097748D01*
X48551082Y-58365537D01*
X48427832Y-58663088D01*
X48365000Y-58978967D01*
X48365000Y-59301033D01*
X48427832Y-59616912D01*
X48551082Y-59914463D01*
X48730013Y-60182252D01*
X48957748Y-60409987D01*
X49225537Y-60588918D01*
X49523088Y-60712168D01*
X49838967Y-60775000D01*
X50161033Y-60775000D01*
X50476912Y-60712168D01*
X50774463Y-60588918D01*
X51042252Y-60409987D01*
X51269987Y-60182252D01*
X51270000Y-60182233D01*
X51270013Y-60182252D01*
X51365000Y-60277239D01*
X51365001Y-66529867D01*
X48639869Y-69255000D01*
X47879452Y-69255000D01*
X47840237Y-69222817D01*
X47647879Y-69120000D01*
X47840237Y-69017183D01*
X48052958Y-68842608D01*
X48227533Y-68629887D01*
X48357254Y-68387195D01*
X48437136Y-68123860D01*
X48464109Y-67850000D01*
X48437136Y-67576140D01*
X48357254Y-67312805D01*
X48227533Y-67070113D01*
X48052958Y-66857392D01*
X47840237Y-66682817D01*
X47597545Y-66553096D01*
X47334210Y-66473214D01*
X47128975Y-66453000D01*
X46318625Y-66453000D01*
X46113390Y-66473214D01*
X45850055Y-66553096D01*
X45607363Y-66682817D01*
X45394642Y-66857392D01*
X45220067Y-67070113D01*
X45090346Y-67312805D01*
X45010464Y-67576140D01*
X44983491Y-67850000D01*
X45010464Y-68123860D01*
X45090346Y-68387195D01*
X45220067Y-68629887D01*
X45394642Y-68842608D01*
X45607363Y-69017183D01*
X45799721Y-69120000D01*
X45607363Y-69222817D01*
X45394642Y-69397392D01*
X45220067Y-69610113D01*
X45090346Y-69852805D01*
X45010464Y-70116140D01*
X44983491Y-70390000D01*
X45010464Y-70663860D01*
X45090346Y-70927195D01*
X45220067Y-71169887D01*
X45394642Y-71382608D01*
X45607363Y-71557183D01*
X45799721Y-71660000D01*
X45607363Y-71762817D01*
X45394642Y-71937392D01*
X45220067Y-72150113D01*
X45090346Y-72392805D01*
X45010464Y-72656140D01*
X44983491Y-72930000D01*
X45010464Y-73203860D01*
X45090346Y-73467195D01*
X45220067Y-73709887D01*
X45394642Y-73922608D01*
X45607363Y-74097183D01*
X45801663Y-74201038D01*
X45735308Y-74227941D01*
X45505521Y-74378994D01*
X45309618Y-74571974D01*
X45155128Y-74799465D01*
X45047988Y-75052724D01*
X45033030Y-75126930D01*
X45155530Y-75343000D01*
X46596800Y-75343000D01*
X46596800Y-75323000D01*
X46850800Y-75323000D01*
X46850800Y-75343000D01*
X46870800Y-75343000D01*
X46870800Y-75597000D01*
X46850800Y-75597000D01*
X46850800Y-75617000D01*
X46596800Y-75617000D01*
X46596800Y-75597000D01*
X45155530Y-75597000D01*
X45033030Y-75813070D01*
X45047988Y-75887276D01*
X45155128Y-76140535D01*
X45309618Y-76368026D01*
X45505521Y-76561006D01*
X45735308Y-76712059D01*
X45801663Y-76738962D01*
X45607363Y-76842817D01*
X45394642Y-77017392D01*
X45220067Y-77230113D01*
X45090346Y-77472805D01*
X45010464Y-77736140D01*
X44983491Y-78010000D01*
X45010464Y-78283860D01*
X45090346Y-78547195D01*
X45220067Y-78789887D01*
X45394642Y-79002608D01*
X45579628Y-79154421D01*
X45500768Y-79162188D01*
X45381070Y-79198498D01*
X45270756Y-79257463D01*
X45174065Y-79336815D01*
X45094713Y-79433506D01*
X45035748Y-79543820D01*
X44999438Y-79663518D01*
X44987178Y-79788000D01*
X44987178Y-81312000D01*
X44999438Y-81436482D01*
X45035748Y-81556180D01*
X45094713Y-81666494D01*
X45174065Y-81763185D01*
X45270756Y-81842537D01*
X45381070Y-81901502D01*
X45500768Y-81937812D01*
X45625250Y-81950072D01*
X47822350Y-81950072D01*
X47946832Y-81937812D01*
X48066530Y-81901502D01*
X48176844Y-81842537D01*
X48273535Y-81763185D01*
X48337700Y-81685000D01*
X48766599Y-81685000D01*
X48822350Y-81690491D01*
X48878101Y-81685000D01*
X48878102Y-81685000D01*
X49044849Y-81668577D01*
X49258797Y-81603676D01*
X49455973Y-81498284D01*
X49628799Y-81356449D01*
X49664346Y-81313135D01*
X49963135Y-81014346D01*
X50006449Y-80978799D01*
X50148284Y-80805973D01*
X50253676Y-80608797D01*
X50318577Y-80394849D01*
X50335000Y-80228102D01*
X50335000Y-80228101D01*
X50340491Y-80172350D01*
X50335000Y-80116598D01*
X50335000Y-75744248D01*
X50318577Y-75577501D01*
X50253676Y-75363553D01*
X50148284Y-75166377D01*
X50006449Y-74993551D01*
X49833623Y-74851716D01*
X49636447Y-74746324D01*
X49422499Y-74681423D01*
X49200000Y-74659509D01*
X48977502Y-74681423D01*
X48763554Y-74746324D01*
X48566378Y-74851716D01*
X48393552Y-74993551D01*
X48381033Y-75008806D01*
X48292472Y-74799465D01*
X48137982Y-74571974D01*
X47942079Y-74378994D01*
X47712292Y-74227941D01*
X47645937Y-74201038D01*
X47840237Y-74097183D01*
X47879452Y-74065000D01*
X49414249Y-74065000D01*
X49470000Y-74070491D01*
X49525751Y-74065000D01*
X49525752Y-74065000D01*
X49692499Y-74048577D01*
X49906447Y-73983676D01*
X50103623Y-73878284D01*
X50276449Y-73736449D01*
X50311996Y-73693135D01*
X55865000Y-68140132D01*
X55865001Y-94529867D01*
X51436857Y-98958012D01*
X50158012Y-100236857D01*
X50051717Y-100366378D01*
X49946324Y-100563554D01*
X49881423Y-100777502D01*
X49859509Y-101000000D01*
X49881423Y-101222498D01*
X49939818Y-101415000D01*
X47879452Y-101415000D01*
X47840237Y-101382817D01*
X47645937Y-101278962D01*
X47712292Y-101252059D01*
X47942079Y-101101006D01*
X48137982Y-100908026D01*
X48292472Y-100680535D01*
X48399612Y-100427276D01*
X48414570Y-100353070D01*
X48292070Y-100137000D01*
X46850800Y-100137000D01*
X46850800Y-100157000D01*
X46596800Y-100157000D01*
X46596800Y-100137000D01*
X45155530Y-100137000D01*
X45033030Y-100353070D01*
X45047988Y-100427276D01*
X45155128Y-100680535D01*
X45309618Y-100908026D01*
X45505521Y-101101006D01*
X45735308Y-101252059D01*
X45801663Y-101278962D01*
X45607363Y-101382817D01*
X45394642Y-101557392D01*
X45220067Y-101770113D01*
X45090346Y-102012805D01*
X45010464Y-102276140D01*
X44983491Y-102550000D01*
X45010464Y-102823860D01*
X45090346Y-103087195D01*
X45220067Y-103329887D01*
X45394642Y-103542608D01*
X45607363Y-103717183D01*
X45801663Y-103821038D01*
X45735308Y-103847941D01*
X45505521Y-103998994D01*
X45309618Y-104191974D01*
X45155128Y-104419465D01*
X45047988Y-104672724D01*
X45033030Y-104746930D01*
X45155530Y-104963000D01*
X46596800Y-104963000D01*
X46596800Y-104943000D01*
X46850800Y-104943000D01*
X46850800Y-104963000D01*
X48292070Y-104963000D01*
X48414570Y-104746930D01*
X48399612Y-104672724D01*
X48292472Y-104419465D01*
X48137982Y-104191974D01*
X47942079Y-103998994D01*
X47712292Y-103847941D01*
X47645937Y-103821038D01*
X47840237Y-103717183D01*
X47879452Y-103685000D01*
X57794249Y-103685000D01*
X57850000Y-103690491D01*
X57905751Y-103685000D01*
X57905752Y-103685000D01*
X58072499Y-103668577D01*
X58286447Y-103603676D01*
X58483623Y-103498284D01*
X58656449Y-103356449D01*
X58691996Y-103313135D01*
X61900120Y-100105012D01*
X61943428Y-100069470D01*
X62085263Y-99896644D01*
X62190655Y-99699468D01*
X62255556Y-99485520D01*
X62271979Y-99318773D01*
X62271979Y-99318764D01*
X62277469Y-99263022D01*
X62271979Y-99207280D01*
X62271979Y-96747110D01*
X62411234Y-96886366D01*
X62395118Y-97050000D01*
X62422581Y-97328839D01*
X62503916Y-97596963D01*
X62635995Y-97844067D01*
X62813745Y-98060655D01*
X63030333Y-98238405D01*
X63182987Y-98320000D01*
X63030333Y-98401595D01*
X62813745Y-98579345D01*
X62635995Y-98795933D01*
X62503916Y-99043037D01*
X62422581Y-99311161D01*
X62395118Y-99590000D01*
X62422581Y-99868839D01*
X62503916Y-100136963D01*
X62635995Y-100384067D01*
X62813745Y-100600655D01*
X63030333Y-100778405D01*
X63182987Y-100860000D01*
X63030333Y-100941595D01*
X62813745Y-101119345D01*
X62635995Y-101335933D01*
X62503916Y-101583037D01*
X62422581Y-101851161D01*
X62395118Y-102130000D01*
X62422581Y-102408839D01*
X62503916Y-102676963D01*
X62635995Y-102924067D01*
X62813745Y-103140655D01*
X63030333Y-103318405D01*
X63179045Y-103397893D01*
X63162738Y-103404474D01*
X62928560Y-103557875D01*
X62728808Y-103754014D01*
X62571159Y-103985354D01*
X62461672Y-104243004D01*
X62444990Y-104322940D01*
X62567148Y-104543000D01*
X64053000Y-104543000D01*
X64053000Y-104523000D01*
X64307000Y-104523000D01*
X64307000Y-104543000D01*
X65792852Y-104543000D01*
X65915010Y-104322940D01*
X65898328Y-104243004D01*
X65788841Y-103985354D01*
X65631192Y-103754014D01*
X65431440Y-103557875D01*
X65197262Y-103404474D01*
X65180955Y-103397893D01*
X65329667Y-103318405D01*
X65546255Y-103140655D01*
X65724005Y-102924067D01*
X65856084Y-102676963D01*
X65937419Y-102408839D01*
X65964882Y-102130000D01*
X65937419Y-101851161D01*
X65856084Y-101583037D01*
X65724005Y-101335933D01*
X65546255Y-101119345D01*
X65329667Y-100941595D01*
X65177013Y-100860000D01*
X65329667Y-100778405D01*
X65546255Y-100600655D01*
X65724005Y-100384067D01*
X65856084Y-100136963D01*
X65937419Y-99868839D01*
X65964882Y-99590000D01*
X65937419Y-99311161D01*
X65856084Y-99043037D01*
X65724005Y-98795933D01*
X65546255Y-98579345D01*
X65329667Y-98401595D01*
X65177013Y-98320000D01*
X65329667Y-98238405D01*
X65546255Y-98060655D01*
X65724005Y-97844067D01*
X65856084Y-97596963D01*
X65937419Y-97328839D01*
X65964882Y-97050000D01*
X65937419Y-96771161D01*
X65856084Y-96503037D01*
X65724005Y-96255933D01*
X65546255Y-96039345D01*
X65329667Y-95861595D01*
X65177013Y-95780000D01*
X65329667Y-95698405D01*
X65546255Y-95520655D01*
X65724005Y-95304067D01*
X65856084Y-95056963D01*
X65937419Y-94788839D01*
X65964882Y-94510000D01*
X65948949Y-94348229D01*
X67963539Y-92333639D01*
X67961928Y-92349999D01*
X67961928Y-93000001D01*
X67978992Y-93173255D01*
X68029528Y-93339851D01*
X68111595Y-93493387D01*
X68222038Y-93627962D01*
X68309816Y-93700000D01*
X68222038Y-93772038D01*
X68111595Y-93906613D01*
X68029528Y-94060149D01*
X67978992Y-94226745D01*
X67961928Y-94399999D01*
X67961928Y-95050001D01*
X67978992Y-95223255D01*
X68029528Y-95389851D01*
X68111595Y-95543387D01*
X68125001Y-95559722D01*
X68125000Y-99480751D01*
X68141423Y-99647498D01*
X68206324Y-99861446D01*
X68281928Y-100002893D01*
X68281928Y-100500000D01*
X68294188Y-100624482D01*
X68330498Y-100744180D01*
X68389463Y-100854494D01*
X68468815Y-100951185D01*
X68565506Y-101030537D01*
X68675820Y-101089502D01*
X68795518Y-101125812D01*
X68920000Y-101138072D01*
X70120000Y-101138072D01*
X70244482Y-101125812D01*
X70364180Y-101089502D01*
X70474494Y-101030537D01*
X70571185Y-100951185D01*
X70650537Y-100854494D01*
X70660000Y-100836790D01*
X70665000Y-100846145D01*
X70665000Y-101861928D01*
X68900000Y-101861928D01*
X68775518Y-101874188D01*
X68655820Y-101910498D01*
X68545506Y-101969463D01*
X68448815Y-102048815D01*
X68369463Y-102145506D01*
X68310498Y-102255820D01*
X68274188Y-102375518D01*
X68261928Y-102500000D01*
X68261928Y-108900000D01*
X68274188Y-109024482D01*
X68310498Y-109144180D01*
X68369463Y-109254494D01*
X68448815Y-109351185D01*
X68545506Y-109430537D01*
X68655820Y-109489502D01*
X68775518Y-109525812D01*
X68900000Y-109538072D01*
X71157941Y-109538072D01*
X73123009Y-111503141D01*
X73158551Y-111546449D01*
X73331377Y-111688284D01*
X73528553Y-111793676D01*
X73742501Y-111858577D01*
X73909248Y-111875000D01*
X73909257Y-111875000D01*
X73964999Y-111880490D01*
X74020741Y-111875000D01*
X86220548Y-111875000D01*
X86259763Y-111907183D01*
X86502455Y-112036904D01*
X86765790Y-112116786D01*
X86971025Y-112137000D01*
X87781375Y-112137000D01*
X87986610Y-112116786D01*
X88249945Y-112036904D01*
X88492637Y-111907183D01*
X88705358Y-111732608D01*
X88879933Y-111519887D01*
X89009654Y-111277195D01*
X89089536Y-111013860D01*
X89116509Y-110740000D01*
X89089536Y-110466140D01*
X89009654Y-110202805D01*
X88879933Y-109960113D01*
X88705358Y-109747392D01*
X88492637Y-109572817D01*
X88300279Y-109470000D01*
X88492637Y-109367183D01*
X88705358Y-109192608D01*
X88879933Y-108979887D01*
X89009654Y-108737195D01*
X89089536Y-108473860D01*
X89116509Y-108200000D01*
X89089536Y-107926140D01*
X89009654Y-107662805D01*
X88879933Y-107420113D01*
X88705358Y-107207392D01*
X88520372Y-107055579D01*
X88599232Y-107047812D01*
X88718930Y-107011502D01*
X88829244Y-106952537D01*
X88925935Y-106873185D01*
X89005287Y-106776494D01*
X89064252Y-106666180D01*
X89100562Y-106546482D01*
X89112822Y-106422000D01*
X89109750Y-105945750D01*
X88951000Y-105787000D01*
X87503200Y-105787000D01*
X87503200Y-105807000D01*
X87249200Y-105807000D01*
X87249200Y-105787000D01*
X85801400Y-105787000D01*
X85642650Y-105945750D01*
X85639578Y-106422000D01*
X85651838Y-106546482D01*
X85688148Y-106666180D01*
X85747113Y-106776494D01*
X85826465Y-106873185D01*
X85923156Y-106952537D01*
X86033470Y-107011502D01*
X86153168Y-107047812D01*
X86232028Y-107055579D01*
X86047042Y-107207392D01*
X85872467Y-107420113D01*
X85742746Y-107662805D01*
X85662864Y-107926140D01*
X85635891Y-108200000D01*
X85662864Y-108473860D01*
X85742746Y-108737195D01*
X85872467Y-108979887D01*
X86047042Y-109192608D01*
X86259763Y-109367183D01*
X86452121Y-109470000D01*
X86259763Y-109572817D01*
X86220548Y-109605000D01*
X74435132Y-109605000D01*
X74368204Y-109538072D01*
X74700000Y-109538072D01*
X74824482Y-109525812D01*
X74944180Y-109489502D01*
X75054494Y-109430537D01*
X75151185Y-109351185D01*
X75230537Y-109254494D01*
X75289502Y-109144180D01*
X75325812Y-109024482D01*
X75338072Y-108900000D01*
X75338072Y-103481471D01*
X75371183Y-103521817D01*
X75404956Y-103549534D01*
X77120470Y-105265049D01*
X77148183Y-105298817D01*
X77181951Y-105326530D01*
X77181953Y-105326532D01*
X77282941Y-105409411D01*
X77436686Y-105491589D01*
X77603510Y-105542195D01*
X77733523Y-105555000D01*
X77733531Y-105555000D01*
X77777000Y-105559281D01*
X77820469Y-105555000D01*
X77950622Y-105555000D01*
X78053745Y-105680655D01*
X78270333Y-105858405D01*
X78422987Y-105940000D01*
X78270333Y-106021595D01*
X78053745Y-106199345D01*
X77875995Y-106415933D01*
X77743916Y-106663037D01*
X77662581Y-106931161D01*
X77635118Y-107210000D01*
X77662581Y-107488839D01*
X77743916Y-107756963D01*
X77875995Y-108004067D01*
X78053745Y-108220655D01*
X78270333Y-108398405D01*
X78517437Y-108530484D01*
X78785561Y-108611819D01*
X78994525Y-108632400D01*
X79845475Y-108632400D01*
X80054439Y-108611819D01*
X80322563Y-108530484D01*
X80569667Y-108398405D01*
X80786255Y-108220655D01*
X80964005Y-108004067D01*
X81096084Y-107756963D01*
X81177419Y-107488839D01*
X81204882Y-107210000D01*
X81177419Y-106931161D01*
X81096084Y-106663037D01*
X80964005Y-106415933D01*
X80786255Y-106199345D01*
X80569667Y-106021595D01*
X80417013Y-105940000D01*
X80569667Y-105858405D01*
X80786255Y-105680655D01*
X80964005Y-105464067D01*
X81096084Y-105216963D01*
X81177419Y-104948839D01*
X81182426Y-104898000D01*
X85639578Y-104898000D01*
X85642650Y-105374250D01*
X85801400Y-105533000D01*
X87249200Y-105533000D01*
X87249200Y-104421750D01*
X87503200Y-104421750D01*
X87503200Y-105533000D01*
X88951000Y-105533000D01*
X89109750Y-105374250D01*
X89112822Y-104898000D01*
X89100562Y-104773518D01*
X89064252Y-104653820D01*
X89005287Y-104543506D01*
X88925935Y-104446815D01*
X88829244Y-104367463D01*
X88718930Y-104308498D01*
X88599232Y-104272188D01*
X88474750Y-104259928D01*
X87661950Y-104263000D01*
X87503200Y-104421750D01*
X87249200Y-104421750D01*
X87090450Y-104263000D01*
X86277650Y-104259928D01*
X86153168Y-104272188D01*
X86033470Y-104308498D01*
X85923156Y-104367463D01*
X85826465Y-104446815D01*
X85747113Y-104543506D01*
X85688148Y-104653820D01*
X85651838Y-104773518D01*
X85639578Y-104898000D01*
X81182426Y-104898000D01*
X81204882Y-104670000D01*
X81177419Y-104391161D01*
X81096084Y-104123037D01*
X80964005Y-103875933D01*
X80786255Y-103659345D01*
X80569667Y-103481595D01*
X80417013Y-103400000D01*
X80569667Y-103318405D01*
X80786255Y-103140655D01*
X80964005Y-102924067D01*
X81023333Y-102813070D01*
X85685430Y-102813070D01*
X85700388Y-102887276D01*
X85807528Y-103140535D01*
X85962018Y-103368026D01*
X86157921Y-103561006D01*
X86387708Y-103712059D01*
X86642549Y-103815381D01*
X86912650Y-103867000D01*
X87249200Y-103867000D01*
X87249200Y-102597000D01*
X87503200Y-102597000D01*
X87503200Y-103867000D01*
X87839750Y-103867000D01*
X88109851Y-103815381D01*
X88364692Y-103712059D01*
X88594479Y-103561006D01*
X88790382Y-103368026D01*
X88944872Y-103140535D01*
X89052012Y-102887276D01*
X89066970Y-102813070D01*
X88944470Y-102597000D01*
X87503200Y-102597000D01*
X87249200Y-102597000D01*
X85807930Y-102597000D01*
X85685430Y-102813070D01*
X81023333Y-102813070D01*
X81096084Y-102676963D01*
X81177419Y-102408839D01*
X81204882Y-102130000D01*
X81177419Y-101851161D01*
X81096084Y-101583037D01*
X80964005Y-101335933D01*
X80786255Y-101119345D01*
X80569667Y-100941595D01*
X80420955Y-100862107D01*
X80437262Y-100855526D01*
X80671440Y-100702125D01*
X80871192Y-100505986D01*
X81028841Y-100274646D01*
X81138328Y-100016996D01*
X81155010Y-99937060D01*
X81032852Y-99717000D01*
X79547000Y-99717000D01*
X79547000Y-99737000D01*
X79293000Y-99737000D01*
X79293000Y-99717000D01*
X77807148Y-99717000D01*
X77684990Y-99937060D01*
X77701672Y-100016996D01*
X77811159Y-100274646D01*
X77968808Y-100505986D01*
X78168560Y-100702125D01*
X78402738Y-100855526D01*
X78419045Y-100862107D01*
X78270333Y-100941595D01*
X78053745Y-101119345D01*
X77875995Y-101335933D01*
X77743916Y-101583037D01*
X77662581Y-101851161D01*
X77635118Y-102130000D01*
X77662581Y-102408839D01*
X77743916Y-102676963D01*
X77875995Y-102924067D01*
X78053745Y-103140655D01*
X78270333Y-103318405D01*
X78422987Y-103400000D01*
X78270333Y-103481595D01*
X78053745Y-103659345D01*
X78037598Y-103679020D01*
X76885000Y-102526422D01*
X76885000Y-98306692D01*
X76899068Y-98272729D01*
X76935000Y-98092089D01*
X76935000Y-97921532D01*
X76937186Y-97922195D01*
X77067199Y-97935000D01*
X77067209Y-97935000D01*
X77110675Y-97939281D01*
X77154141Y-97935000D01*
X77950622Y-97935000D01*
X78053745Y-98060655D01*
X78270333Y-98238405D01*
X78419045Y-98317893D01*
X78402738Y-98324474D01*
X78168560Y-98477875D01*
X77968808Y-98674014D01*
X77811159Y-98905354D01*
X77701672Y-99163004D01*
X77684990Y-99242940D01*
X77807148Y-99463000D01*
X79293000Y-99463000D01*
X79293000Y-99443000D01*
X79547000Y-99443000D01*
X79547000Y-99463000D01*
X81032852Y-99463000D01*
X81155010Y-99242940D01*
X81139371Y-99168000D01*
X85639578Y-99168000D01*
X85639578Y-100692000D01*
X85651838Y-100816482D01*
X85688148Y-100936180D01*
X85747113Y-101046494D01*
X85826465Y-101143185D01*
X85923156Y-101222537D01*
X86033470Y-101281502D01*
X86153168Y-101317812D01*
X86238246Y-101326191D01*
X86157921Y-101378994D01*
X85962018Y-101571974D01*
X85807528Y-101799465D01*
X85700388Y-102052724D01*
X85685430Y-102126930D01*
X85807930Y-102343000D01*
X87249200Y-102343000D01*
X87249200Y-102323000D01*
X87503200Y-102323000D01*
X87503200Y-102343000D01*
X88944470Y-102343000D01*
X89066970Y-102126930D01*
X89052012Y-102052724D01*
X88944872Y-101799465D01*
X88790382Y-101571974D01*
X88594479Y-101378994D01*
X88514154Y-101326191D01*
X88599232Y-101317812D01*
X88718930Y-101281502D01*
X88829244Y-101222537D01*
X88925935Y-101143185D01*
X89005287Y-101046494D01*
X89064252Y-100936180D01*
X89100562Y-100816482D01*
X89112822Y-100692000D01*
X89112822Y-99168000D01*
X89100562Y-99043518D01*
X89064252Y-98923820D01*
X89005287Y-98813506D01*
X88925935Y-98716815D01*
X88829244Y-98637463D01*
X88718930Y-98578498D01*
X88599232Y-98542188D01*
X88474750Y-98529928D01*
X86277650Y-98529928D01*
X86153168Y-98542188D01*
X86033470Y-98578498D01*
X85923156Y-98637463D01*
X85826465Y-98716815D01*
X85747113Y-98813506D01*
X85688148Y-98923820D01*
X85651838Y-99043518D01*
X85639578Y-99168000D01*
X81139371Y-99168000D01*
X81138328Y-99163004D01*
X81028841Y-98905354D01*
X80871192Y-98674014D01*
X80671440Y-98477875D01*
X80437262Y-98324474D01*
X80420955Y-98317893D01*
X80569667Y-98238405D01*
X80786255Y-98060655D01*
X80964005Y-97844067D01*
X81096084Y-97596963D01*
X81177419Y-97328839D01*
X81204882Y-97050000D01*
X81177419Y-96771161D01*
X81096084Y-96503037D01*
X80964005Y-96255933D01*
X80786255Y-96039345D01*
X80569667Y-95861595D01*
X80417013Y-95780000D01*
X80569667Y-95698405D01*
X80786255Y-95520655D01*
X80964005Y-95304067D01*
X81096084Y-95056963D01*
X81177419Y-94788839D01*
X81204882Y-94510000D01*
X81177419Y-94231161D01*
X81096084Y-93963037D01*
X80964005Y-93715933D01*
X80786255Y-93499345D01*
X80569667Y-93321595D01*
X80417013Y-93240000D01*
X80569667Y-93158405D01*
X80786255Y-92980655D01*
X80964005Y-92764067D01*
X81096084Y-92516963D01*
X81177419Y-92248839D01*
X81204882Y-91970000D01*
X81177419Y-91691161D01*
X81096084Y-91423037D01*
X80964005Y-91175933D01*
X80786255Y-90959345D01*
X80569667Y-90781595D01*
X80417013Y-90700000D01*
X80569667Y-90618405D01*
X80786255Y-90440655D01*
X80964005Y-90224067D01*
X81096084Y-89976963D01*
X81177419Y-89708839D01*
X81204882Y-89430000D01*
X81177419Y-89151161D01*
X81096084Y-88883037D01*
X80964005Y-88635933D01*
X80786255Y-88419345D01*
X80569667Y-88241595D01*
X80417013Y-88160000D01*
X80569667Y-88078405D01*
X80786255Y-87900655D01*
X80964005Y-87684067D01*
X81096084Y-87436963D01*
X81177419Y-87168839D01*
X81204882Y-86890000D01*
X81177419Y-86611161D01*
X81096084Y-86343037D01*
X80964005Y-86095933D01*
X80786255Y-85879345D01*
X80569667Y-85701595D01*
X80417013Y-85620000D01*
X80569667Y-85538405D01*
X80786255Y-85360655D01*
X80964005Y-85144067D01*
X81096084Y-84896963D01*
X81177419Y-84628839D01*
X81204882Y-84350000D01*
X81177419Y-84071161D01*
X81096084Y-83803037D01*
X80964005Y-83555933D01*
X80786255Y-83339345D01*
X80569667Y-83161595D01*
X80417013Y-83080000D01*
X80569667Y-82998405D01*
X80786255Y-82820655D01*
X80964005Y-82604067D01*
X81096084Y-82356963D01*
X81177419Y-82088839D01*
X81204882Y-81810000D01*
X81177419Y-81531161D01*
X81096084Y-81263037D01*
X80964005Y-81015933D01*
X80786255Y-80799345D01*
X80569667Y-80621595D01*
X80417013Y-80540000D01*
X80569667Y-80458405D01*
X80634741Y-80405000D01*
X82399868Y-80405000D01*
X82665000Y-80670132D01*
X82665001Y-87644239D01*
X82659509Y-87700000D01*
X82681423Y-87922498D01*
X82746324Y-88136446D01*
X82746325Y-88136447D01*
X82851717Y-88333623D01*
X82993552Y-88506449D01*
X83036860Y-88541991D01*
X83998008Y-89503140D01*
X84033551Y-89546449D01*
X84206377Y-89688284D01*
X84403553Y-89793676D01*
X84617500Y-89858577D01*
X84839999Y-89880491D01*
X84895751Y-89875000D01*
X86220548Y-89875000D01*
X86259763Y-89907183D01*
X86452121Y-90010000D01*
X86259763Y-90112817D01*
X86047042Y-90287392D01*
X85872467Y-90500113D01*
X85742746Y-90742805D01*
X85662864Y-91006140D01*
X85635891Y-91280000D01*
X85662864Y-91553860D01*
X85742746Y-91817195D01*
X85872467Y-92059887D01*
X86047042Y-92272608D01*
X86259763Y-92447183D01*
X86452121Y-92550000D01*
X86259763Y-92652817D01*
X86047042Y-92827392D01*
X85872467Y-93040113D01*
X85742746Y-93282805D01*
X85662864Y-93546140D01*
X85635891Y-93820000D01*
X85662864Y-94093860D01*
X85742746Y-94357195D01*
X85872467Y-94599887D01*
X86047042Y-94812608D01*
X86259763Y-94987183D01*
X86452121Y-95090000D01*
X86259763Y-95192817D01*
X86047042Y-95367392D01*
X85872467Y-95580113D01*
X85742746Y-95822805D01*
X85662864Y-96086140D01*
X85635891Y-96360000D01*
X85662864Y-96633860D01*
X85742746Y-96897195D01*
X85872467Y-97139887D01*
X86047042Y-97352608D01*
X86259763Y-97527183D01*
X86502455Y-97656904D01*
X86765790Y-97736786D01*
X86971025Y-97757000D01*
X87781375Y-97757000D01*
X87986610Y-97736786D01*
X88249945Y-97656904D01*
X88492637Y-97527183D01*
X88705358Y-97352608D01*
X88879933Y-97139887D01*
X89009654Y-96897195D01*
X89089536Y-96633860D01*
X89116509Y-96360000D01*
X89089536Y-96086140D01*
X89009654Y-95822805D01*
X88879933Y-95580113D01*
X88705358Y-95367392D01*
X88492637Y-95192817D01*
X88300279Y-95090000D01*
X88492637Y-94987183D01*
X88705358Y-94812608D01*
X88879933Y-94599887D01*
X89009654Y-94357195D01*
X89089536Y-94093860D01*
X89116509Y-93820000D01*
X89089536Y-93546140D01*
X89009654Y-93282805D01*
X88879933Y-93040113D01*
X88705358Y-92827392D01*
X88492637Y-92652817D01*
X88300279Y-92550000D01*
X88492637Y-92447183D01*
X88705358Y-92272608D01*
X88879933Y-92059887D01*
X89009654Y-91817195D01*
X89089536Y-91553860D01*
X89116509Y-91280000D01*
X89089536Y-91006140D01*
X89009654Y-90742805D01*
X88879933Y-90500113D01*
X88705358Y-90287392D01*
X88492637Y-90112817D01*
X88300279Y-90010000D01*
X88492637Y-89907183D01*
X88705358Y-89732608D01*
X88879933Y-89519887D01*
X89009654Y-89277195D01*
X89089536Y-89013860D01*
X89116509Y-88740000D01*
X89089536Y-88466140D01*
X89009654Y-88202805D01*
X88879933Y-87960113D01*
X88705358Y-87747392D01*
X88492637Y-87572817D01*
X88300279Y-87470000D01*
X88492637Y-87367183D01*
X88705358Y-87192608D01*
X88879933Y-86979887D01*
X89009654Y-86737195D01*
X89089536Y-86473860D01*
X89116509Y-86200000D01*
X89089536Y-85926140D01*
X89009654Y-85662805D01*
X88879933Y-85420113D01*
X88705358Y-85207392D01*
X88492637Y-85032817D01*
X88300279Y-84930000D01*
X88492637Y-84827183D01*
X88705358Y-84652608D01*
X88879933Y-84439887D01*
X89009654Y-84197195D01*
X89089536Y-83933860D01*
X89116509Y-83660000D01*
X89089536Y-83386140D01*
X89009654Y-83122805D01*
X88879933Y-82880113D01*
X88705358Y-82667392D01*
X88492637Y-82492817D01*
X88300279Y-82390000D01*
X88492637Y-82287183D01*
X88705358Y-82112608D01*
X88879933Y-81899887D01*
X89009654Y-81657195D01*
X89089536Y-81393860D01*
X89116509Y-81120000D01*
X89089536Y-80846140D01*
X89009654Y-80582805D01*
X88879933Y-80340113D01*
X88705358Y-80127392D01*
X88492637Y-79952817D01*
X88300279Y-79850000D01*
X88492637Y-79747183D01*
X88705358Y-79572608D01*
X88879933Y-79359887D01*
X89009654Y-79117195D01*
X89089536Y-78853860D01*
X89116509Y-78580000D01*
X89089536Y-78306140D01*
X89009654Y-78042805D01*
X88879933Y-77800113D01*
X88705358Y-77587392D01*
X88520372Y-77435579D01*
X88599232Y-77427812D01*
X88718930Y-77391502D01*
X88829244Y-77332537D01*
X88925935Y-77253185D01*
X89005287Y-77156494D01*
X89064252Y-77046180D01*
X89100562Y-76926482D01*
X89112822Y-76802000D01*
X89112822Y-75278000D01*
X89100562Y-75153518D01*
X89064252Y-75033820D01*
X89005287Y-74923506D01*
X88925935Y-74826815D01*
X88829244Y-74747463D01*
X88718930Y-74688498D01*
X88599232Y-74652188D01*
X88474750Y-74639928D01*
X86277650Y-74639928D01*
X86153168Y-74652188D01*
X86033470Y-74688498D01*
X85923156Y-74747463D01*
X85826465Y-74826815D01*
X85747113Y-74923506D01*
X85688148Y-75033820D01*
X85651838Y-75153518D01*
X85639578Y-75278000D01*
X85639578Y-76802000D01*
X85651838Y-76926482D01*
X85688148Y-77046180D01*
X85747113Y-77156494D01*
X85826465Y-77253185D01*
X85923156Y-77332537D01*
X86033470Y-77391502D01*
X86153168Y-77427812D01*
X86232028Y-77435579D01*
X86047042Y-77587392D01*
X85872467Y-77800113D01*
X85742746Y-78042805D01*
X85662864Y-78306140D01*
X85635891Y-78580000D01*
X85662864Y-78853860D01*
X85742746Y-79117195D01*
X85872467Y-79359887D01*
X86047042Y-79572608D01*
X86259763Y-79747183D01*
X86452121Y-79850000D01*
X86259763Y-79952817D01*
X86047042Y-80127392D01*
X85872467Y-80340113D01*
X85742746Y-80582805D01*
X85662864Y-80846140D01*
X85635891Y-81120000D01*
X85662864Y-81393860D01*
X85742746Y-81657195D01*
X85872467Y-81899887D01*
X86047042Y-82112608D01*
X86259763Y-82287183D01*
X86452121Y-82390000D01*
X86259763Y-82492817D01*
X86047042Y-82667392D01*
X85872467Y-82880113D01*
X85742746Y-83122805D01*
X85662864Y-83386140D01*
X85635891Y-83660000D01*
X85662864Y-83933860D01*
X85742746Y-84197195D01*
X85872467Y-84439887D01*
X86047042Y-84652608D01*
X86259763Y-84827183D01*
X86452121Y-84930000D01*
X86259763Y-85032817D01*
X86047042Y-85207392D01*
X85872467Y-85420113D01*
X85742746Y-85662805D01*
X85662864Y-85926140D01*
X85635891Y-86200000D01*
X85662864Y-86473860D01*
X85742746Y-86737195D01*
X85872467Y-86979887D01*
X86047042Y-87192608D01*
X86259763Y-87367183D01*
X86452121Y-87470000D01*
X86259763Y-87572817D01*
X86220548Y-87605000D01*
X85310132Y-87605000D01*
X84935000Y-87229869D01*
X84935000Y-80255752D01*
X84940491Y-80200000D01*
X84918577Y-79977501D01*
X84853676Y-79763553D01*
X84748284Y-79566377D01*
X84641989Y-79436856D01*
X84641987Y-79436854D01*
X84606449Y-79393551D01*
X84563145Y-79358013D01*
X83711995Y-78506864D01*
X83676449Y-78463551D01*
X83503623Y-78321716D01*
X83306447Y-78216324D01*
X83092499Y-78151423D01*
X82925752Y-78135000D01*
X82925751Y-78135000D01*
X82870000Y-78129509D01*
X82814249Y-78135000D01*
X80634741Y-78135000D01*
X80569667Y-78081595D01*
X80417013Y-78000000D01*
X80569667Y-77918405D01*
X80634741Y-77865000D01*
X81714249Y-77865000D01*
X81770000Y-77870491D01*
X81825751Y-77865000D01*
X81825752Y-77865000D01*
X81992499Y-77848577D01*
X82206447Y-77783676D01*
X82403623Y-77678284D01*
X82576449Y-77536449D01*
X82611996Y-77493135D01*
X85063141Y-75041991D01*
X85106449Y-75006449D01*
X85248284Y-74833623D01*
X85353676Y-74636447D01*
X85418577Y-74422499D01*
X85435000Y-74255752D01*
X85435000Y-74255743D01*
X85440490Y-74200001D01*
X85435000Y-74144259D01*
X85435000Y-73203070D01*
X85685430Y-73203070D01*
X85700388Y-73277276D01*
X85807528Y-73530535D01*
X85962018Y-73758026D01*
X86157921Y-73951006D01*
X86387708Y-74102059D01*
X86642549Y-74205381D01*
X86912650Y-74257000D01*
X87249200Y-74257000D01*
X87249200Y-72987000D01*
X87503200Y-72987000D01*
X87503200Y-74257000D01*
X87839750Y-74257000D01*
X88109851Y-74205381D01*
X88364692Y-74102059D01*
X88594479Y-73951006D01*
X88790382Y-73758026D01*
X88944872Y-73530535D01*
X89052012Y-73277276D01*
X89066970Y-73203070D01*
X88944470Y-72987000D01*
X87503200Y-72987000D01*
X87249200Y-72987000D01*
X85807930Y-72987000D01*
X85685430Y-73203070D01*
X85435000Y-73203070D01*
X85435000Y-67780000D01*
X85635891Y-67780000D01*
X85662864Y-68053860D01*
X85742746Y-68317195D01*
X85872467Y-68559887D01*
X86047042Y-68772608D01*
X86259763Y-68947183D01*
X86452121Y-69050000D01*
X86259763Y-69152817D01*
X86047042Y-69327392D01*
X85872467Y-69540113D01*
X85742746Y-69782805D01*
X85662864Y-70046140D01*
X85635891Y-70320000D01*
X85662864Y-70593860D01*
X85742746Y-70857195D01*
X85872467Y-71099887D01*
X86047042Y-71312608D01*
X86259763Y-71487183D01*
X86454063Y-71591038D01*
X86387708Y-71617941D01*
X86157921Y-71768994D01*
X85962018Y-71961974D01*
X85807528Y-72189465D01*
X85700388Y-72442724D01*
X85685430Y-72516930D01*
X85807930Y-72733000D01*
X87249200Y-72733000D01*
X87249200Y-72713000D01*
X87503200Y-72713000D01*
X87503200Y-72733000D01*
X88944470Y-72733000D01*
X89066970Y-72516930D01*
X89052012Y-72442724D01*
X88944872Y-72189465D01*
X88790382Y-71961974D01*
X88594479Y-71768994D01*
X88364692Y-71617941D01*
X88298337Y-71591038D01*
X88492637Y-71487183D01*
X88705358Y-71312608D01*
X88879933Y-71099887D01*
X89009654Y-70857195D01*
X89089536Y-70593860D01*
X89116509Y-70320000D01*
X89089536Y-70046140D01*
X89009654Y-69782805D01*
X88879933Y-69540113D01*
X88705358Y-69327392D01*
X88492637Y-69152817D01*
X88300279Y-69050000D01*
X88492637Y-68947183D01*
X88705358Y-68772608D01*
X88879933Y-68559887D01*
X89009654Y-68317195D01*
X89089536Y-68053860D01*
X89116509Y-67780000D01*
X89089536Y-67506140D01*
X89009654Y-67242805D01*
X88879933Y-67000113D01*
X88705358Y-66787392D01*
X88492637Y-66612817D01*
X88298337Y-66508962D01*
X88364692Y-66482059D01*
X88594479Y-66331006D01*
X88790382Y-66138026D01*
X88944872Y-65910535D01*
X89052012Y-65657276D01*
X89066970Y-65583070D01*
X88944470Y-65367000D01*
X87503200Y-65367000D01*
X87503200Y-65387000D01*
X87249200Y-65387000D01*
X87249200Y-65367000D01*
X85807930Y-65367000D01*
X85685430Y-65583070D01*
X85700388Y-65657276D01*
X85807528Y-65910535D01*
X85962018Y-66138026D01*
X86157921Y-66331006D01*
X86387708Y-66482059D01*
X86454063Y-66508962D01*
X86259763Y-66612817D01*
X86047042Y-66787392D01*
X85872467Y-67000113D01*
X85742746Y-67242805D01*
X85662864Y-67506140D01*
X85635891Y-67780000D01*
X85435000Y-67780000D01*
X85435000Y-61670131D01*
X85810132Y-61295000D01*
X86220548Y-61295000D01*
X86259763Y-61327183D01*
X86452121Y-61430000D01*
X86259763Y-61532817D01*
X86047042Y-61707392D01*
X85872467Y-61920113D01*
X85742746Y-62162805D01*
X85662864Y-62426140D01*
X85635891Y-62700000D01*
X85662864Y-62973860D01*
X85742746Y-63237195D01*
X85872467Y-63479887D01*
X86047042Y-63692608D01*
X86259763Y-63867183D01*
X86454063Y-63971038D01*
X86387708Y-63997941D01*
X86157921Y-64148994D01*
X85962018Y-64341974D01*
X85807528Y-64569465D01*
X85700388Y-64822724D01*
X85685430Y-64896930D01*
X85807930Y-65113000D01*
X87249200Y-65113000D01*
X87249200Y-65093000D01*
X87503200Y-65093000D01*
X87503200Y-65113000D01*
X88944470Y-65113000D01*
X89066970Y-64896930D01*
X89052012Y-64822724D01*
X88944872Y-64569465D01*
X88790382Y-64341974D01*
X88594479Y-64148994D01*
X88364692Y-63997941D01*
X88298337Y-63971038D01*
X88492637Y-63867183D01*
X88705358Y-63692608D01*
X88879933Y-63479887D01*
X89009654Y-63237195D01*
X89089536Y-62973860D01*
X89116509Y-62700000D01*
X89089536Y-62426140D01*
X89009654Y-62162805D01*
X88879933Y-61920113D01*
X88705358Y-61707392D01*
X88492637Y-61532817D01*
X88300279Y-61430000D01*
X88492637Y-61327183D01*
X88705358Y-61152608D01*
X88879933Y-60939887D01*
X89009654Y-60697195D01*
X89089536Y-60433860D01*
X89116509Y-60160000D01*
X89089536Y-59886140D01*
X89009654Y-59622805D01*
X88879933Y-59380113D01*
X88705358Y-59167392D01*
X88492637Y-58992817D01*
X88300279Y-58890000D01*
X88492637Y-58787183D01*
X88705358Y-58612608D01*
X88879933Y-58399887D01*
X89009654Y-58157195D01*
X89089536Y-57893860D01*
X89116509Y-57620000D01*
X89089536Y-57346140D01*
X89009654Y-57082805D01*
X88879933Y-56840113D01*
X88705358Y-56627392D01*
X88492637Y-56452817D01*
X88300279Y-56350000D01*
X88492637Y-56247183D01*
X88705358Y-56072608D01*
X88879933Y-55859887D01*
X89009654Y-55617195D01*
X89089536Y-55353860D01*
X89116509Y-55080000D01*
X89089536Y-54806140D01*
X89009654Y-54542805D01*
X88879933Y-54300113D01*
X88705358Y-54087392D01*
X88520372Y-53935579D01*
X88599232Y-53927812D01*
X88718930Y-53891502D01*
X88829244Y-53832537D01*
X88925935Y-53753185D01*
X89005287Y-53656494D01*
X89064252Y-53546180D01*
X89100562Y-53426482D01*
X89112822Y-53302000D01*
X89109750Y-52825750D01*
X88951000Y-52667000D01*
X87503200Y-52667000D01*
X87503200Y-52687000D01*
X87249200Y-52687000D01*
X87249200Y-52667000D01*
X85801400Y-52667000D01*
X85642650Y-52825750D01*
X85639578Y-53302000D01*
X85651838Y-53426482D01*
X85688148Y-53546180D01*
X85747113Y-53656494D01*
X85826465Y-53753185D01*
X85923156Y-53832537D01*
X86033470Y-53891502D01*
X86153168Y-53927812D01*
X86232028Y-53935579D01*
X86047042Y-54087392D01*
X85872467Y-54300113D01*
X85742746Y-54542805D01*
X85662864Y-54806140D01*
X85635891Y-55080000D01*
X85662864Y-55353860D01*
X85742746Y-55617195D01*
X85872467Y-55859887D01*
X86047042Y-56072608D01*
X86259763Y-56247183D01*
X86452121Y-56350000D01*
X86259763Y-56452817D01*
X86047042Y-56627392D01*
X85872467Y-56840113D01*
X85742746Y-57082805D01*
X85662864Y-57346140D01*
X85635891Y-57620000D01*
X85662864Y-57893860D01*
X85742746Y-58157195D01*
X85872467Y-58399887D01*
X86047042Y-58612608D01*
X86259763Y-58787183D01*
X86452121Y-58890000D01*
X86259763Y-58992817D01*
X86220548Y-59025000D01*
X85395751Y-59025000D01*
X85339999Y-59019509D01*
X85117500Y-59041423D01*
X84903553Y-59106324D01*
X84706377Y-59211716D01*
X84533551Y-59353551D01*
X84498008Y-59396860D01*
X83536864Y-60358004D01*
X83493551Y-60393551D01*
X83351716Y-60566377D01*
X83273790Y-60712168D01*
X83246324Y-60763554D01*
X83181423Y-60977502D01*
X83159509Y-61200000D01*
X83165000Y-61255752D01*
X83165001Y-73729867D01*
X81299869Y-75595000D01*
X80634741Y-75595000D01*
X80569667Y-75541595D01*
X80417013Y-75460000D01*
X80569667Y-75378405D01*
X80786255Y-75200655D01*
X80964005Y-74984067D01*
X81096084Y-74736963D01*
X81177419Y-74468839D01*
X81204882Y-74190000D01*
X81177419Y-73911161D01*
X81096084Y-73643037D01*
X80964005Y-73395933D01*
X80786255Y-73179345D01*
X80569667Y-73001595D01*
X80417013Y-72920000D01*
X80569667Y-72838405D01*
X80786255Y-72660655D01*
X80964005Y-72444067D01*
X81096084Y-72196963D01*
X81177419Y-71928839D01*
X81204882Y-71650000D01*
X81177419Y-71371161D01*
X81096084Y-71103037D01*
X80964005Y-70855933D01*
X80786255Y-70639345D01*
X80569667Y-70461595D01*
X80322563Y-70329516D01*
X80054439Y-70248181D01*
X79845475Y-70227600D01*
X78994525Y-70227600D01*
X78785561Y-70248181D01*
X78517437Y-70329516D01*
X78270333Y-70461595D01*
X78053745Y-70639345D01*
X77875995Y-70855933D01*
X77743916Y-71103037D01*
X77662581Y-71371161D01*
X77635118Y-71650000D01*
X77662581Y-71928839D01*
X77743916Y-72196963D01*
X77875995Y-72444067D01*
X78053745Y-72660655D01*
X78270333Y-72838405D01*
X78422987Y-72920000D01*
X78270333Y-73001595D01*
X78053745Y-73179345D01*
X77875995Y-73395933D01*
X77743916Y-73643037D01*
X77662581Y-73911161D01*
X77635118Y-74190000D01*
X77662581Y-74468839D01*
X77743916Y-74736963D01*
X77875995Y-74984067D01*
X78053745Y-75200655D01*
X78270333Y-75378405D01*
X78422987Y-75460000D01*
X78270333Y-75541595D01*
X78053745Y-75719345D01*
X77875995Y-75935933D01*
X77743916Y-76183037D01*
X77662581Y-76451161D01*
X77635118Y-76730000D01*
X77662581Y-77008839D01*
X77743916Y-77276963D01*
X77875995Y-77524067D01*
X78053745Y-77740655D01*
X78270333Y-77918405D01*
X78422987Y-78000000D01*
X78270333Y-78081595D01*
X78053745Y-78259345D01*
X77875995Y-78475933D01*
X77743916Y-78723037D01*
X77662581Y-78991161D01*
X77635118Y-79270000D01*
X77662581Y-79548839D01*
X77743916Y-79816963D01*
X77875995Y-80064067D01*
X78053745Y-80280655D01*
X78270333Y-80458405D01*
X78422987Y-80540000D01*
X78270333Y-80621595D01*
X78053745Y-80799345D01*
X77875995Y-81015933D01*
X77743916Y-81263037D01*
X77662581Y-81531161D01*
X77635118Y-81810000D01*
X77662581Y-82088839D01*
X77743916Y-82356963D01*
X77875995Y-82604067D01*
X78053745Y-82820655D01*
X78270333Y-82998405D01*
X78422987Y-83080000D01*
X78270333Y-83161595D01*
X78053745Y-83339345D01*
X77875995Y-83555933D01*
X77743916Y-83803037D01*
X77662581Y-84071161D01*
X77635118Y-84350000D01*
X77662581Y-84628839D01*
X77743916Y-84896963D01*
X77875995Y-85144067D01*
X78053745Y-85360655D01*
X78270333Y-85538405D01*
X78422987Y-85620000D01*
X78270333Y-85701595D01*
X78053745Y-85879345D01*
X77875995Y-86095933D01*
X77743916Y-86343037D01*
X77662581Y-86611161D01*
X77635118Y-86890000D01*
X77662581Y-87168839D01*
X77743916Y-87436963D01*
X77875995Y-87684067D01*
X78053745Y-87900655D01*
X78270333Y-88078405D01*
X78422987Y-88160000D01*
X78270333Y-88241595D01*
X78205259Y-88295000D01*
X71625752Y-88295000D01*
X71570000Y-88289509D01*
X71514248Y-88295000D01*
X71347501Y-88311423D01*
X71133553Y-88376324D01*
X70936377Y-88481716D01*
X70763551Y-88623551D01*
X70728009Y-88666859D01*
X69885000Y-89509868D01*
X69885000Y-51778000D01*
X85639578Y-51778000D01*
X85642650Y-52254250D01*
X85801400Y-52413000D01*
X87249200Y-52413000D01*
X87249200Y-51301750D01*
X87503200Y-51301750D01*
X87503200Y-52413000D01*
X88951000Y-52413000D01*
X89109750Y-52254250D01*
X89112822Y-51778000D01*
X89100562Y-51653518D01*
X89064252Y-51533820D01*
X89005287Y-51423506D01*
X88925935Y-51326815D01*
X88829244Y-51247463D01*
X88718930Y-51188498D01*
X88599232Y-51152188D01*
X88474750Y-51139928D01*
X87661950Y-51143000D01*
X87503200Y-51301750D01*
X87249200Y-51301750D01*
X87090450Y-51143000D01*
X86277650Y-51139928D01*
X86153168Y-51152188D01*
X86033470Y-51188498D01*
X85923156Y-51247463D01*
X85826465Y-51326815D01*
X85747113Y-51423506D01*
X85688148Y-51533820D01*
X85651838Y-51653518D01*
X85639578Y-51778000D01*
X69885000Y-51778000D01*
X69885000Y-47793469D01*
X69889281Y-47750000D01*
X69885000Y-47706531D01*
X69885000Y-47706523D01*
X69872195Y-47576510D01*
X69821589Y-47409687D01*
X69739411Y-47255941D01*
X69628817Y-47121183D01*
X69595051Y-47093472D01*
X64246578Y-41745000D01*
X68993422Y-41745000D01*
X72415002Y-45166581D01*
X72415001Y-48243308D01*
X72400933Y-48277272D01*
X72365001Y-48457912D01*
X72365001Y-48642090D01*
X72400933Y-48822730D01*
X72471415Y-48992890D01*
X72573739Y-49146029D01*
X72703973Y-49276263D01*
X72857112Y-49378587D01*
X73027272Y-49449069D01*
X73087394Y-49461028D01*
X72933422Y-49615000D01*
X71556692Y-49615000D01*
X71522729Y-49600932D01*
X71342089Y-49565000D01*
X71157911Y-49565000D01*
X70977271Y-49600932D01*
X70807111Y-49671414D01*
X70653972Y-49773738D01*
X70523738Y-49903972D01*
X70421414Y-50057111D01*
X70350932Y-50227271D01*
X70315000Y-50407911D01*
X70315000Y-50592089D01*
X70350932Y-50772729D01*
X70421414Y-50942889D01*
X70523738Y-51096028D01*
X70653972Y-51226262D01*
X70807111Y-51328586D01*
X70977271Y-51399068D01*
X71157911Y-51435000D01*
X71342089Y-51435000D01*
X71522729Y-51399068D01*
X71556692Y-51385000D01*
X73256531Y-51385000D01*
X73300000Y-51389281D01*
X73343469Y-51385000D01*
X73343477Y-51385000D01*
X73473490Y-51372195D01*
X73640313Y-51321589D01*
X73794059Y-51239411D01*
X73928817Y-51128817D01*
X73956534Y-51095044D01*
X79651578Y-45400000D01*
X83361928Y-45400000D01*
X83361928Y-47400000D01*
X83374188Y-47524482D01*
X83410498Y-47644180D01*
X83469463Y-47754494D01*
X83548815Y-47851185D01*
X83645506Y-47930537D01*
X83755820Y-47989502D01*
X83875518Y-48025812D01*
X84000000Y-48038072D01*
X86000000Y-48038072D01*
X86124482Y-48025812D01*
X86244180Y-47989502D01*
X86354494Y-47930537D01*
X86451185Y-47851185D01*
X86530537Y-47754494D01*
X86589502Y-47644180D01*
X86625812Y-47524482D01*
X86638072Y-47400000D01*
X86638072Y-45400000D01*
X86625812Y-45275518D01*
X86589502Y-45155820D01*
X86530537Y-45045506D01*
X86451185Y-44948815D01*
X86354494Y-44869463D01*
X86244180Y-44810498D01*
X86124482Y-44774188D01*
X86000000Y-44761928D01*
X84000000Y-44761928D01*
X83875518Y-44774188D01*
X83755820Y-44810498D01*
X83645506Y-44869463D01*
X83548815Y-44948815D01*
X83469463Y-45045506D01*
X83410498Y-45155820D01*
X83374188Y-45275518D01*
X83361928Y-45400000D01*
X79651578Y-45400000D01*
X84653475Y-40398104D01*
X84838967Y-40435000D01*
X85161033Y-40435000D01*
X85476912Y-40372168D01*
X85774463Y-40248918D01*
X86042252Y-40069987D01*
X86269987Y-39842252D01*
X86448918Y-39574463D01*
X86572168Y-39276912D01*
X86635000Y-38961033D01*
X86635000Y-38638967D01*
X86572168Y-38323088D01*
X86448918Y-38025537D01*
X86269987Y-37757748D01*
X86042252Y-37530013D01*
X85774463Y-37351082D01*
X85476912Y-37227832D01*
X85161033Y-37165000D01*
X84838967Y-37165000D01*
X84523088Y-37227832D01*
X84225537Y-37351082D01*
X83957748Y-37530013D01*
X83730013Y-37757748D01*
X83551082Y-38025537D01*
X83427832Y-38323088D01*
X83365000Y-38638967D01*
X83365000Y-38961033D01*
X83401896Y-39146525D01*
X74211028Y-48337394D01*
X74199069Y-48277272D01*
X74185001Y-48243309D01*
X74185001Y-44843470D01*
X74189282Y-44800001D01*
X74185001Y-44756532D01*
X74185001Y-44756524D01*
X74172196Y-44626511D01*
X74121590Y-44459688D01*
X74039412Y-44305942D01*
X73928818Y-44171184D01*
X73895050Y-44143471D01*
X70016534Y-40264956D01*
X69988817Y-40231183D01*
X69854059Y-40120589D01*
X69700313Y-40038411D01*
X69533490Y-39987805D01*
X69403477Y-39975000D01*
X69403469Y-39975000D01*
X69360000Y-39970719D01*
X69316531Y-39975000D01*
X47941269Y-39975000D01*
X47852958Y-39867392D01*
X47640237Y-39692817D01*
X47447879Y-39590000D01*
X47640237Y-39487183D01*
X47852958Y-39312608D01*
X48027533Y-39099887D01*
X48157254Y-38857195D01*
X48237136Y-38593860D01*
X48264109Y-38320000D01*
X48237136Y-38046140D01*
X48157254Y-37782805D01*
X48027533Y-37540113D01*
X47852958Y-37327392D01*
X47640237Y-37152817D01*
X47397545Y-37023096D01*
X47134210Y-36943214D01*
X46928975Y-36923000D01*
X46118625Y-36923000D01*
X45913390Y-36943214D01*
X45650055Y-37023096D01*
X45407363Y-37152817D01*
X45194642Y-37327392D01*
X45020067Y-37540113D01*
X44890346Y-37782805D01*
X44810464Y-38046140D01*
X44783491Y-38320000D01*
X42710000Y-38320000D01*
X42710000Y-33914155D01*
X44265450Y-33914155D01*
X44661634Y-34434550D01*
X45376612Y-34824748D01*
X46153976Y-35067964D01*
X46963853Y-35154851D01*
X47775118Y-35082069D01*
X48556597Y-34852415D01*
X49278256Y-34474715D01*
X49338366Y-34434550D01*
X49734550Y-33914155D01*
X84265450Y-33914155D01*
X84661634Y-34434550D01*
X85376612Y-34824748D01*
X86153976Y-35067964D01*
X86963853Y-35154851D01*
X87775118Y-35082069D01*
X88556597Y-34852415D01*
X89278256Y-34474715D01*
X89338366Y-34434550D01*
X89734550Y-33914155D01*
X87000000Y-31179605D01*
X84265450Y-33914155D01*
X49734550Y-33914155D01*
X47000000Y-31179605D01*
X44265450Y-33914155D01*
X42710000Y-33914155D01*
X42710000Y-30963853D01*
X42845149Y-30963853D01*
X42917931Y-31775118D01*
X43147585Y-32556597D01*
X43525285Y-33278256D01*
X43565450Y-33338366D01*
X44085845Y-33734550D01*
X46820395Y-31000000D01*
X47179605Y-31000000D01*
X49914155Y-33734550D01*
X50434550Y-33338366D01*
X50824748Y-32623388D01*
X51067964Y-31846024D01*
X51154851Y-31036147D01*
X51148366Y-30963853D01*
X82845149Y-30963853D01*
X82917931Y-31775118D01*
X83147585Y-32556597D01*
X83525285Y-33278256D01*
X83565450Y-33338366D01*
X84085845Y-33734550D01*
X86820395Y-31000000D01*
X87179605Y-31000000D01*
X89914155Y-33734550D01*
X90434550Y-33338366D01*
X90824748Y-32623388D01*
X91067964Y-31846024D01*
X91154851Y-31036147D01*
X91082069Y-30224882D01*
X90852415Y-29443403D01*
X90474715Y-28721744D01*
X90434550Y-28661634D01*
X89914155Y-28265450D01*
X87179605Y-31000000D01*
X86820395Y-31000000D01*
X84085845Y-28265450D01*
X83565450Y-28661634D01*
X83175252Y-29376612D01*
X82932036Y-30153976D01*
X82845149Y-30963853D01*
X51148366Y-30963853D01*
X51082069Y-30224882D01*
X50852415Y-29443403D01*
X50474715Y-28721744D01*
X50434550Y-28661634D01*
X49914155Y-28265450D01*
X47179605Y-31000000D01*
X46820395Y-31000000D01*
X44085845Y-28265450D01*
X43565450Y-28661634D01*
X43175252Y-29376612D01*
X42932036Y-30153976D01*
X42845149Y-30963853D01*
X42710000Y-30963853D01*
X42710000Y-28085845D01*
X44265450Y-28085845D01*
X47000000Y-30820395D01*
X49734550Y-28085845D01*
X84265450Y-28085845D01*
X87000000Y-30820395D01*
X89734550Y-28085845D01*
X89338366Y-27565450D01*
X88623388Y-27175252D01*
X87846024Y-26932036D01*
X87036147Y-26845149D01*
X86224882Y-26917931D01*
X85443403Y-27147585D01*
X84721744Y-27525285D01*
X84661634Y-27565450D01*
X84265450Y-28085845D01*
X49734550Y-28085845D01*
X49338366Y-27565450D01*
X48623388Y-27175252D01*
X47846024Y-26932036D01*
X47036147Y-26845149D01*
X46224882Y-26917931D01*
X45443403Y-27147585D01*
X44721744Y-27525285D01*
X44661634Y-27565450D01*
X44265450Y-28085845D01*
X42710000Y-28085845D01*
X42710000Y-26710000D01*
X91290000Y-26710000D01*
X91290001Y-125290000D01*
G36*
X78270333Y-90618405D02*
G01*
X78422987Y-90700000D01*
X78270333Y-90781595D01*
X78053745Y-90959345D01*
X77950622Y-91085000D01*
X74192634Y-91085000D01*
X74092089Y-91065000D01*
X73907911Y-91065000D01*
X73727271Y-91100932D01*
X73557111Y-91171414D01*
X73403972Y-91273738D01*
X73273738Y-91403972D01*
X73171414Y-91557111D01*
X73100932Y-91727271D01*
X73065000Y-91907911D01*
X73065000Y-92092089D01*
X73100932Y-92272729D01*
X73171414Y-92442889D01*
X73273738Y-92596028D01*
X73403972Y-92726262D01*
X73557111Y-92828586D01*
X73727271Y-92899068D01*
X73907911Y-92935000D01*
X74092089Y-92935000D01*
X74272729Y-92899068D01*
X74379119Y-92855000D01*
X77950622Y-92855000D01*
X78053745Y-92980655D01*
X78270333Y-93158405D01*
X78422987Y-93240000D01*
X78270333Y-93321595D01*
X78053745Y-93499345D01*
X77875995Y-93715933D01*
X77743916Y-93963037D01*
X77662581Y-94231161D01*
X77635118Y-94510000D01*
X77662581Y-94788839D01*
X77743916Y-95056963D01*
X77875995Y-95304067D01*
X78053745Y-95520655D01*
X78270333Y-95698405D01*
X78422987Y-95780000D01*
X78270333Y-95861595D01*
X78053745Y-96039345D01*
X77950622Y-96165000D01*
X77477255Y-96165000D01*
X76904374Y-95592120D01*
X76890305Y-95558154D01*
X76787981Y-95405015D01*
X76657747Y-95274781D01*
X76504608Y-95172457D01*
X76334448Y-95101975D01*
X76153808Y-95066043D01*
X75969630Y-95066043D01*
X75788990Y-95101975D01*
X75618830Y-95172457D01*
X75465691Y-95274781D01*
X75335457Y-95405015D01*
X75233133Y-95558154D01*
X75162651Y-95728314D01*
X75126719Y-95908954D01*
X75126719Y-96093132D01*
X75162651Y-96273772D01*
X75233133Y-96443932D01*
X75335457Y-96597071D01*
X75465691Y-96727305D01*
X75618830Y-96829629D01*
X75652796Y-96843698D01*
X75879708Y-97070610D01*
X75727271Y-97100932D01*
X75557111Y-97171414D01*
X75403972Y-97273738D01*
X75273738Y-97403972D01*
X75171414Y-97557111D01*
X75100932Y-97727271D01*
X75084394Y-97810414D01*
X75034494Y-97769463D01*
X74924180Y-97710498D01*
X74804482Y-97674188D01*
X74680000Y-97661928D01*
X74365750Y-97665000D01*
X74207000Y-97823750D01*
X74207000Y-99273000D01*
X74227000Y-99273000D01*
X74227000Y-99527000D01*
X74207000Y-99527000D01*
X74207000Y-100976250D01*
X74365750Y-101135000D01*
X74680000Y-101138072D01*
X74804482Y-101125812D01*
X74924180Y-101089502D01*
X75034494Y-101030537D01*
X75115000Y-100964467D01*
X75115000Y-102019119D01*
X75054494Y-101969463D01*
X74944180Y-101910498D01*
X74824482Y-101874188D01*
X74700000Y-101861928D01*
X72935000Y-101861928D01*
X72935000Y-100846144D01*
X72940000Y-100836790D01*
X72949463Y-100854494D01*
X73028815Y-100951185D01*
X73125506Y-101030537D01*
X73235820Y-101089502D01*
X73355518Y-101125812D01*
X73480000Y-101138072D01*
X73794250Y-101135000D01*
X73953000Y-100976250D01*
X73953000Y-99527000D01*
X73933000Y-99527000D01*
X73933000Y-99273000D01*
X73953000Y-99273000D01*
X73953000Y-97823750D01*
X73794250Y-97665000D01*
X73480000Y-97661928D01*
X73355518Y-97674188D01*
X73235820Y-97710498D01*
X73125506Y-97769463D01*
X73028815Y-97848815D01*
X72949463Y-97945506D01*
X72940000Y-97963210D01*
X72930537Y-97945506D01*
X72851185Y-97848815D01*
X72754494Y-97769463D01*
X72644180Y-97710498D01*
X72524482Y-97674188D01*
X72400000Y-97661928D01*
X71200000Y-97661928D01*
X71075518Y-97674188D01*
X70955820Y-97710498D01*
X70845506Y-97769463D01*
X70748815Y-97848815D01*
X70669463Y-97945506D01*
X70660000Y-97963210D01*
X70650537Y-97945506D01*
X70571185Y-97848815D01*
X70474494Y-97769463D01*
X70395000Y-97726972D01*
X70395000Y-95657201D01*
X70488405Y-95543387D01*
X70570472Y-95389851D01*
X70621008Y-95223255D01*
X70638072Y-95050001D01*
X70638072Y-94399999D01*
X70621008Y-94226745D01*
X70570472Y-94060149D01*
X70488405Y-93906613D01*
X70377962Y-93772038D01*
X70290184Y-93700000D01*
X70377962Y-93627962D01*
X70488405Y-93493387D01*
X70570472Y-93339851D01*
X70621008Y-93173255D01*
X70638072Y-93000001D01*
X70638072Y-92349999D01*
X70621008Y-92176745D01*
X70576177Y-92028955D01*
X72040132Y-90565000D01*
X78205259Y-90565000D01*
X78270333Y-90618405D01*
G37*
X78270333Y-90618405D02*
X78422987Y-90700000D01*
X78270333Y-90781595D01*
X78053745Y-90959345D01*
X77950622Y-91085000D01*
X74192634Y-91085000D01*
X74092089Y-91065000D01*
X73907911Y-91065000D01*
X73727271Y-91100932D01*
X73557111Y-91171414D01*
X73403972Y-91273738D01*
X73273738Y-91403972D01*
X73171414Y-91557111D01*
X73100932Y-91727271D01*
X73065000Y-91907911D01*
X73065000Y-92092089D01*
X73100932Y-92272729D01*
X73171414Y-92442889D01*
X73273738Y-92596028D01*
X73403972Y-92726262D01*
X73557111Y-92828586D01*
X73727271Y-92899068D01*
X73907911Y-92935000D01*
X74092089Y-92935000D01*
X74272729Y-92899068D01*
X74379119Y-92855000D01*
X77950622Y-92855000D01*
X78053745Y-92980655D01*
X78270333Y-93158405D01*
X78422987Y-93240000D01*
X78270333Y-93321595D01*
X78053745Y-93499345D01*
X77875995Y-93715933D01*
X77743916Y-93963037D01*
X77662581Y-94231161D01*
X77635118Y-94510000D01*
X77662581Y-94788839D01*
X77743916Y-95056963D01*
X77875995Y-95304067D01*
X78053745Y-95520655D01*
X78270333Y-95698405D01*
X78422987Y-95780000D01*
X78270333Y-95861595D01*
X78053745Y-96039345D01*
X77950622Y-96165000D01*
X77477255Y-96165000D01*
X76904374Y-95592120D01*
X76890305Y-95558154D01*
X76787981Y-95405015D01*
X76657747Y-95274781D01*
X76504608Y-95172457D01*
X76334448Y-95101975D01*
X76153808Y-95066043D01*
X75969630Y-95066043D01*
X75788990Y-95101975D01*
X75618830Y-95172457D01*
X75465691Y-95274781D01*
X75335457Y-95405015D01*
X75233133Y-95558154D01*
X75162651Y-95728314D01*
X75126719Y-95908954D01*
X75126719Y-96093132D01*
X75162651Y-96273772D01*
X75233133Y-96443932D01*
X75335457Y-96597071D01*
X75465691Y-96727305D01*
X75618830Y-96829629D01*
X75652796Y-96843698D01*
X75879708Y-97070610D01*
X75727271Y-97100932D01*
X75557111Y-97171414D01*
X75403972Y-97273738D01*
X75273738Y-97403972D01*
X75171414Y-97557111D01*
X75100932Y-97727271D01*
X75084394Y-97810414D01*
X75034494Y-97769463D01*
X74924180Y-97710498D01*
X74804482Y-97674188D01*
X74680000Y-97661928D01*
X74365750Y-97665000D01*
X74207000Y-97823750D01*
X74207000Y-99273000D01*
X74227000Y-99273000D01*
X74227000Y-99527000D01*
X74207000Y-99527000D01*
X74207000Y-100976250D01*
X74365750Y-101135000D01*
X74680000Y-101138072D01*
X74804482Y-101125812D01*
X74924180Y-101089502D01*
X75034494Y-101030537D01*
X75115000Y-100964467D01*
X75115000Y-102019119D01*
X75054494Y-101969463D01*
X74944180Y-101910498D01*
X74824482Y-101874188D01*
X74700000Y-101861928D01*
X72935000Y-101861928D01*
X72935000Y-100846144D01*
X72940000Y-100836790D01*
X72949463Y-100854494D01*
X73028815Y-100951185D01*
X73125506Y-101030537D01*
X73235820Y-101089502D01*
X73355518Y-101125812D01*
X73480000Y-101138072D01*
X73794250Y-101135000D01*
X73953000Y-100976250D01*
X73953000Y-99527000D01*
X73933000Y-99527000D01*
X73933000Y-99273000D01*
X73953000Y-99273000D01*
X73953000Y-97823750D01*
X73794250Y-97665000D01*
X73480000Y-97661928D01*
X73355518Y-97674188D01*
X73235820Y-97710498D01*
X73125506Y-97769463D01*
X73028815Y-97848815D01*
X72949463Y-97945506D01*
X72940000Y-97963210D01*
X72930537Y-97945506D01*
X72851185Y-97848815D01*
X72754494Y-97769463D01*
X72644180Y-97710498D01*
X72524482Y-97674188D01*
X72400000Y-97661928D01*
X71200000Y-97661928D01*
X71075518Y-97674188D01*
X70955820Y-97710498D01*
X70845506Y-97769463D01*
X70748815Y-97848815D01*
X70669463Y-97945506D01*
X70660000Y-97963210D01*
X70650537Y-97945506D01*
X70571185Y-97848815D01*
X70474494Y-97769463D01*
X70395000Y-97726972D01*
X70395000Y-95657201D01*
X70488405Y-95543387D01*
X70570472Y-95389851D01*
X70621008Y-95223255D01*
X70638072Y-95050001D01*
X70638072Y-94399999D01*
X70621008Y-94226745D01*
X70570472Y-94060149D01*
X70488405Y-93906613D01*
X70377962Y-93772038D01*
X70290184Y-93700000D01*
X70377962Y-93627962D01*
X70488405Y-93493387D01*
X70570472Y-93339851D01*
X70621008Y-93173255D01*
X70638072Y-93000001D01*
X70638072Y-92349999D01*
X70621008Y-92176745D01*
X70576177Y-92028955D01*
X72040132Y-90565000D01*
X78205259Y-90565000D01*
X78270333Y-90618405D01*
G36*
X59065000Y-53670132D02*
G01*
X59065001Y-71944238D01*
X59059509Y-72000000D01*
X59081423Y-72222498D01*
X59146324Y-72436446D01*
X59176849Y-72493554D01*
X59251717Y-72633623D01*
X59393552Y-72806449D01*
X59436860Y-72841991D01*
X60001979Y-73407111D01*
X60001980Y-98792888D01*
X57379869Y-101415000D01*
X52190131Y-101415000D01*
X53041988Y-100563143D01*
X57763141Y-95841991D01*
X57806449Y-95806449D01*
X57948284Y-95633623D01*
X58053676Y-95436447D01*
X58118577Y-95222499D01*
X58129484Y-95111762D01*
X58140491Y-95000001D01*
X58135000Y-94944249D01*
X58135000Y-65455752D01*
X58140491Y-65400001D01*
X58135000Y-65344248D01*
X58135000Y-63444248D01*
X58118577Y-63277501D01*
X58053676Y-63063553D01*
X57948284Y-62866377D01*
X57806449Y-62693551D01*
X57633623Y-62551716D01*
X57436446Y-62446324D01*
X57222498Y-62381423D01*
X57000000Y-62359509D01*
X56777501Y-62381423D01*
X56563553Y-62446324D01*
X56366377Y-62551716D01*
X56193551Y-62693551D01*
X56051716Y-62866377D01*
X55946324Y-63063554D01*
X55881423Y-63277502D01*
X55865000Y-63444249D01*
X55865001Y-64929867D01*
X53623625Y-67171243D01*
X53635000Y-67055752D01*
X53640491Y-67000000D01*
X53635000Y-66944249D01*
X53635000Y-60357239D01*
X53809987Y-60182252D01*
X53810000Y-60182233D01*
X53810013Y-60182252D01*
X54037748Y-60409987D01*
X54305537Y-60588918D01*
X54603088Y-60712168D01*
X54918967Y-60775000D01*
X55241033Y-60775000D01*
X55556912Y-60712168D01*
X55854463Y-60588918D01*
X56122252Y-60409987D01*
X56349987Y-60182252D01*
X56528918Y-59914463D01*
X56652168Y-59616912D01*
X56715000Y-59301033D01*
X56715000Y-58978967D01*
X56652168Y-58663088D01*
X56528918Y-58365537D01*
X56349987Y-58097748D01*
X56122252Y-57870013D01*
X55854463Y-57691082D01*
X55556912Y-57567832D01*
X55241033Y-57505000D01*
X54918967Y-57505000D01*
X54603088Y-57567832D01*
X54305537Y-57691082D01*
X54037748Y-57870013D01*
X53810013Y-58097748D01*
X53810000Y-58097767D01*
X53809987Y-58097748D01*
X53675000Y-57962761D01*
X53675000Y-55237239D01*
X53809987Y-55102252D01*
X53810000Y-55102233D01*
X53810013Y-55102252D01*
X54037748Y-55329987D01*
X54305537Y-55508918D01*
X54603088Y-55632168D01*
X54918967Y-55695000D01*
X55241033Y-55695000D01*
X55556912Y-55632168D01*
X55854463Y-55508918D01*
X56122252Y-55329987D01*
X56349987Y-55102252D01*
X56528918Y-54834463D01*
X56652168Y-54536912D01*
X56715000Y-54221033D01*
X56715000Y-53898967D01*
X56652168Y-53583088D01*
X56528918Y-53285537D01*
X56349987Y-53017748D01*
X56122252Y-52790013D01*
X55890259Y-52635000D01*
X58029869Y-52635000D01*
X59065000Y-53670132D01*
G37*
X59065000Y-53670132D02*
X59065001Y-71944238D01*
X59059509Y-72000000D01*
X59081423Y-72222498D01*
X59146324Y-72436446D01*
X59176849Y-72493554D01*
X59251717Y-72633623D01*
X59393552Y-72806449D01*
X59436860Y-72841991D01*
X60001979Y-73407111D01*
X60001980Y-98792888D01*
X57379869Y-101415000D01*
X52190131Y-101415000D01*
X53041988Y-100563143D01*
X57763141Y-95841991D01*
X57806449Y-95806449D01*
X57948284Y-95633623D01*
X58053676Y-95436447D01*
X58118577Y-95222499D01*
X58129484Y-95111762D01*
X58140491Y-95000001D01*
X58135000Y-94944249D01*
X58135000Y-65455752D01*
X58140491Y-65400001D01*
X58135000Y-65344248D01*
X58135000Y-63444248D01*
X58118577Y-63277501D01*
X58053676Y-63063553D01*
X57948284Y-62866377D01*
X57806449Y-62693551D01*
X57633623Y-62551716D01*
X57436446Y-62446324D01*
X57222498Y-62381423D01*
X57000000Y-62359509D01*
X56777501Y-62381423D01*
X56563553Y-62446324D01*
X56366377Y-62551716D01*
X56193551Y-62693551D01*
X56051716Y-62866377D01*
X55946324Y-63063554D01*
X55881423Y-63277502D01*
X55865000Y-63444249D01*
X55865001Y-64929867D01*
X53623625Y-67171243D01*
X53635000Y-67055752D01*
X53640491Y-67000000D01*
X53635000Y-66944249D01*
X53635000Y-60357239D01*
X53809987Y-60182252D01*
X53810000Y-60182233D01*
X53810013Y-60182252D01*
X54037748Y-60409987D01*
X54305537Y-60588918D01*
X54603088Y-60712168D01*
X54918967Y-60775000D01*
X55241033Y-60775000D01*
X55556912Y-60712168D01*
X55854463Y-60588918D01*
X56122252Y-60409987D01*
X56349987Y-60182252D01*
X56528918Y-59914463D01*
X56652168Y-59616912D01*
X56715000Y-59301033D01*
X56715000Y-58978967D01*
X56652168Y-58663088D01*
X56528918Y-58365537D01*
X56349987Y-58097748D01*
X56122252Y-57870013D01*
X55854463Y-57691082D01*
X55556912Y-57567832D01*
X55241033Y-57505000D01*
X54918967Y-57505000D01*
X54603088Y-57567832D01*
X54305537Y-57691082D01*
X54037748Y-57870013D01*
X53810013Y-58097748D01*
X53810000Y-58097767D01*
X53809987Y-58097748D01*
X53675000Y-57962761D01*
X53675000Y-55237239D01*
X53809987Y-55102252D01*
X53810000Y-55102233D01*
X53810013Y-55102252D01*
X54037748Y-55329987D01*
X54305537Y-55508918D01*
X54603088Y-55632168D01*
X54918967Y-55695000D01*
X55241033Y-55695000D01*
X55556912Y-55632168D01*
X55854463Y-55508918D01*
X56122252Y-55329987D01*
X56349987Y-55102252D01*
X56528918Y-54834463D01*
X56652168Y-54536912D01*
X56715000Y-54221033D01*
X56715000Y-53898967D01*
X56652168Y-53583088D01*
X56528918Y-53285537D01*
X56349987Y-53017748D01*
X56122252Y-52790013D01*
X55890259Y-52635000D01*
X58029869Y-52635000D01*
X59065000Y-53670132D01*
M02*
