G04 #@! TF.GenerationSoftware,KiCad,Pcbnew,(5.1.5)-3*
G04 #@! TF.CreationDate,2020-05-10T11:41:13+02:00*
G04 #@! TF.ProjectId,Mentor,4d656e74-6f72-42e6-9b69-6361645f7063,rev?*
G04 #@! TF.SameCoordinates,Original*
G04 #@! TF.FileFunction,Legend,Bot*
G04 #@! TF.FilePolarity,Positive*
%FSLAX46Y46*%
G04 Gerber Fmt 4.6, Leading zero omitted, Abs format (unit mm)*
G04 Created by KiCad (PCBNEW (5.1.5)-3) date 2020-05-10 11:41:13*
%MOMM*%
%LPD*%
G04 APERTURE LIST*
%ADD10C,0.300000*%
%ADD11C,0.150000*%
%ADD12C,0.250000*%
%ADD13C,0.120000*%
G04 APERTURE END LIST*
D10*
X67195000Y-38407142D02*
X66980714Y-38469047D01*
X66909285Y-38530952D01*
X66837857Y-38654761D01*
X66837857Y-38840476D01*
X66909285Y-38964285D01*
X66980714Y-39026190D01*
X67123571Y-39088095D01*
X67695000Y-39088095D01*
X67695000Y-37788095D01*
X67195000Y-37788095D01*
X67052142Y-37850000D01*
X66980714Y-37911904D01*
X66909285Y-38035714D01*
X66909285Y-38159523D01*
X66980714Y-38283333D01*
X67052142Y-38345238D01*
X67195000Y-38407142D01*
X67695000Y-38407142D01*
X66337857Y-38221428D02*
X65980714Y-39088095D01*
X65623571Y-38221428D02*
X65980714Y-39088095D01*
X66123571Y-39397619D01*
X66195000Y-39459523D01*
X66337857Y-39521428D01*
X65052142Y-38592857D02*
X63909285Y-38592857D01*
X63195000Y-38221428D02*
X63195000Y-39521428D01*
X63195000Y-38283333D02*
X63052142Y-38221428D01*
X62766428Y-38221428D01*
X62623571Y-38283333D01*
X62552142Y-38345238D01*
X62480714Y-38469047D01*
X62480714Y-38840476D01*
X62552142Y-38964285D01*
X62623571Y-39026190D01*
X62766428Y-39088095D01*
X63052142Y-39088095D01*
X63195000Y-39026190D01*
X61195000Y-39088095D02*
X61195000Y-38407142D01*
X61266428Y-38283333D01*
X61409285Y-38221428D01*
X61695000Y-38221428D01*
X61837857Y-38283333D01*
X61195000Y-39026190D02*
X61337857Y-39088095D01*
X61695000Y-39088095D01*
X61837857Y-39026190D01*
X61909285Y-38902380D01*
X61909285Y-38778571D01*
X61837857Y-38654761D01*
X61695000Y-38592857D01*
X61337857Y-38592857D01*
X61195000Y-38530952D01*
X60552142Y-39026190D02*
X60409285Y-39088095D01*
X60123571Y-39088095D01*
X59980714Y-39026190D01*
X59909285Y-38902380D01*
X59909285Y-38840476D01*
X59980714Y-38716666D01*
X60123571Y-38654761D01*
X60337857Y-38654761D01*
X60480714Y-38592857D01*
X60552142Y-38469047D01*
X60552142Y-38407142D01*
X60480714Y-38283333D01*
X60337857Y-38221428D01*
X60123571Y-38221428D01*
X59980714Y-38283333D01*
X59337857Y-39026190D02*
X59195000Y-39088095D01*
X58909285Y-39088095D01*
X58766428Y-39026190D01*
X58695000Y-38902380D01*
X58695000Y-38840476D01*
X58766428Y-38716666D01*
X58909285Y-38654761D01*
X59123571Y-38654761D01*
X59266428Y-38592857D01*
X59337857Y-38469047D01*
X59337857Y-38407142D01*
X59266428Y-38283333D01*
X59123571Y-38221428D01*
X58909285Y-38221428D01*
X58766428Y-38283333D01*
X56980714Y-37726190D02*
X58266428Y-39397619D01*
X56195000Y-37788095D02*
X55909285Y-37788095D01*
X55766428Y-37850000D01*
X55623571Y-37973809D01*
X55552142Y-38221428D01*
X55552142Y-38654761D01*
X55623571Y-38902380D01*
X55766428Y-39026190D01*
X55909285Y-39088095D01*
X56195000Y-39088095D01*
X56337857Y-39026190D01*
X56480714Y-38902380D01*
X56552142Y-38654761D01*
X56552142Y-38221428D01*
X56480714Y-37973809D01*
X56337857Y-37850000D01*
X56195000Y-37788095D01*
X54909285Y-38221428D02*
X54909285Y-39521428D01*
X54909285Y-38283333D02*
X54766428Y-38221428D01*
X54480714Y-38221428D01*
X54337857Y-38283333D01*
X54266428Y-38345238D01*
X54195000Y-38469047D01*
X54195000Y-38840476D01*
X54266428Y-38964285D01*
X54337857Y-39026190D01*
X54480714Y-39088095D01*
X54766428Y-39088095D01*
X54909285Y-39026190D01*
X52980714Y-39026190D02*
X53123571Y-39088095D01*
X53409285Y-39088095D01*
X53552142Y-39026190D01*
X53623571Y-38902380D01*
X53623571Y-38407142D01*
X53552142Y-38283333D01*
X53409285Y-38221428D01*
X53123571Y-38221428D01*
X52980714Y-38283333D01*
X52909285Y-38407142D01*
X52909285Y-38530952D01*
X53623571Y-38654761D01*
X52266428Y-39088095D02*
X52266428Y-38221428D01*
X52266428Y-38469047D02*
X52195000Y-38345238D01*
X52123571Y-38283333D01*
X51980714Y-38221428D01*
X51837857Y-38221428D01*
X50695000Y-39088095D02*
X50695000Y-38407142D01*
X50766428Y-38283333D01*
X50909285Y-38221428D01*
X51195000Y-38221428D01*
X51337857Y-38283333D01*
X50695000Y-39026190D02*
X50837857Y-39088095D01*
X51195000Y-39088095D01*
X51337857Y-39026190D01*
X51409285Y-38902380D01*
X51409285Y-38778571D01*
X51337857Y-38654761D01*
X51195000Y-38592857D01*
X50837857Y-38592857D01*
X50695000Y-38530952D01*
X50195000Y-38221428D02*
X49623571Y-38221428D01*
X49980714Y-37788095D02*
X49980714Y-38902380D01*
X49909285Y-39026190D01*
X49766428Y-39088095D01*
X49623571Y-39088095D01*
X48552142Y-39026190D02*
X48695000Y-39088095D01*
X48980714Y-39088095D01*
X49123571Y-39026190D01*
X49195000Y-38902380D01*
X49195000Y-38407142D01*
X49123571Y-38283333D01*
X48980714Y-38221428D01*
X48695000Y-38221428D01*
X48552142Y-38283333D01*
X48480714Y-38407142D01*
X48480714Y-38530952D01*
X49195000Y-38654761D01*
X61052142Y-41338095D02*
X61552142Y-40719047D01*
X61909285Y-41338095D02*
X61909285Y-40038095D01*
X61337857Y-40038095D01*
X61195000Y-40100000D01*
X61123571Y-40161904D01*
X61052142Y-40285714D01*
X61052142Y-40471428D01*
X61123571Y-40595238D01*
X61195000Y-40657142D01*
X61337857Y-40719047D01*
X61909285Y-40719047D01*
X59837857Y-41276190D02*
X59980714Y-41338095D01*
X60266428Y-41338095D01*
X60409285Y-41276190D01*
X60480714Y-41152380D01*
X60480714Y-40657142D01*
X60409285Y-40533333D01*
X60266428Y-40471428D01*
X59980714Y-40471428D01*
X59837857Y-40533333D01*
X59766428Y-40657142D01*
X59766428Y-40780952D01*
X60480714Y-40904761D01*
X59195000Y-41276190D02*
X59052142Y-41338095D01*
X58766428Y-41338095D01*
X58623571Y-41276190D01*
X58552142Y-41152380D01*
X58552142Y-41090476D01*
X58623571Y-40966666D01*
X58766428Y-40904761D01*
X58980714Y-40904761D01*
X59123571Y-40842857D01*
X59195000Y-40719047D01*
X59195000Y-40657142D01*
X59123571Y-40533333D01*
X58980714Y-40471428D01*
X58766428Y-40471428D01*
X58623571Y-40533333D01*
X57337857Y-41276190D02*
X57480714Y-41338095D01*
X57766428Y-41338095D01*
X57909285Y-41276190D01*
X57980714Y-41152380D01*
X57980714Y-40657142D01*
X57909285Y-40533333D01*
X57766428Y-40471428D01*
X57480714Y-40471428D01*
X57337857Y-40533333D01*
X57266428Y-40657142D01*
X57266428Y-40780952D01*
X57980714Y-40904761D01*
X56837857Y-40471428D02*
X56266428Y-40471428D01*
X56623571Y-40038095D02*
X56623571Y-41152380D01*
X56552142Y-41276190D01*
X56409285Y-41338095D01*
X56266428Y-41338095D01*
X54695000Y-39976190D02*
X55980714Y-41647619D01*
X54266428Y-40966666D02*
X53552142Y-40966666D01*
X54409285Y-41338095D02*
X53909285Y-40038095D01*
X53409285Y-41338095D01*
X52695000Y-41338095D02*
X52837857Y-41276190D01*
X52909285Y-41152380D01*
X52909285Y-40038095D01*
X51480714Y-41338095D02*
X51480714Y-40657142D01*
X51552142Y-40533333D01*
X51695000Y-40471428D01*
X51980714Y-40471428D01*
X52123571Y-40533333D01*
X51480714Y-41276190D02*
X51623571Y-41338095D01*
X51980714Y-41338095D01*
X52123571Y-41276190D01*
X52195000Y-41152380D01*
X52195000Y-41028571D01*
X52123571Y-40904761D01*
X51980714Y-40842857D01*
X51623571Y-40842857D01*
X51480714Y-40780952D01*
X50766428Y-41338095D02*
X50766428Y-40471428D01*
X50766428Y-40719047D02*
X50695000Y-40595238D01*
X50623571Y-40533333D01*
X50480714Y-40471428D01*
X50337857Y-40471428D01*
X49837857Y-41338095D02*
X49837857Y-40471428D01*
X49837857Y-40595238D02*
X49766428Y-40533333D01*
X49623571Y-40471428D01*
X49409285Y-40471428D01*
X49266428Y-40533333D01*
X49195000Y-40657142D01*
X49195000Y-41338095D01*
X49195000Y-40657142D02*
X49123571Y-40533333D01*
X48980714Y-40471428D01*
X48766428Y-40471428D01*
X48623571Y-40533333D01*
X48552142Y-40657142D01*
X48552142Y-41338095D01*
X51623571Y-42350000D02*
X51766428Y-42288095D01*
X51980714Y-42288095D01*
X52195000Y-42350000D01*
X52337857Y-42473809D01*
X52409285Y-42597619D01*
X52480714Y-42845238D01*
X52480714Y-43030952D01*
X52409285Y-43278571D01*
X52337857Y-43402380D01*
X52195000Y-43526190D01*
X51980714Y-43588095D01*
X51837857Y-43588095D01*
X51623571Y-43526190D01*
X51552142Y-43464285D01*
X51552142Y-43030952D01*
X51837857Y-43030952D01*
X50909285Y-43588095D02*
X50909285Y-42288095D01*
X50052142Y-43588095D01*
X50052142Y-42288095D01*
X49337857Y-43588095D02*
X49337857Y-42288095D01*
X48980714Y-42288095D01*
X48766428Y-42350000D01*
X48623571Y-42473809D01*
X48552142Y-42597619D01*
X48480714Y-42845238D01*
X48480714Y-43030952D01*
X48552142Y-43278571D01*
X48623571Y-43402380D01*
X48766428Y-43526190D01*
X48980714Y-43588095D01*
X49337857Y-43588095D01*
X58909285Y-45838095D02*
X59766428Y-45838095D01*
X59337857Y-45838095D02*
X59337857Y-44538095D01*
X59480714Y-44723809D01*
X59623571Y-44847619D01*
X59766428Y-44909523D01*
X58337857Y-44661904D02*
X58266428Y-44600000D01*
X58123571Y-44538095D01*
X57766428Y-44538095D01*
X57623571Y-44600000D01*
X57552142Y-44661904D01*
X57480714Y-44785714D01*
X57480714Y-44909523D01*
X57552142Y-45095238D01*
X58409285Y-45838095D01*
X57480714Y-45838095D01*
X57052142Y-44538095D02*
X56552142Y-45838095D01*
X56052142Y-44538095D01*
X54480714Y-45776190D02*
X54266428Y-45838095D01*
X53909285Y-45838095D01*
X53766428Y-45776190D01*
X53695000Y-45714285D01*
X53623571Y-45590476D01*
X53623571Y-45466666D01*
X53695000Y-45342857D01*
X53766428Y-45280952D01*
X53909285Y-45219047D01*
X54195000Y-45157142D01*
X54337857Y-45095238D01*
X54409285Y-45033333D01*
X54480714Y-44909523D01*
X54480714Y-44785714D01*
X54409285Y-44661904D01*
X54337857Y-44600000D01*
X54195000Y-44538095D01*
X53837857Y-44538095D01*
X53623571Y-44600000D01*
X52409285Y-45776190D02*
X52552142Y-45838095D01*
X52837857Y-45838095D01*
X52980714Y-45776190D01*
X53052142Y-45652380D01*
X53052142Y-45157142D01*
X52980714Y-45033333D01*
X52837857Y-44971428D01*
X52552142Y-44971428D01*
X52409285Y-45033333D01*
X52337857Y-45157142D01*
X52337857Y-45280952D01*
X53052142Y-45404761D01*
X51695000Y-44971428D02*
X51695000Y-45838095D01*
X51695000Y-45095238D02*
X51623571Y-45033333D01*
X51480714Y-44971428D01*
X51266428Y-44971428D01*
X51123571Y-45033333D01*
X51052142Y-45157142D01*
X51052142Y-45838095D01*
X50409285Y-45776190D02*
X50266428Y-45838095D01*
X49980714Y-45838095D01*
X49837857Y-45776190D01*
X49766428Y-45652380D01*
X49766428Y-45590476D01*
X49837857Y-45466666D01*
X49980714Y-45404761D01*
X50195000Y-45404761D01*
X50337857Y-45342857D01*
X50409285Y-45219047D01*
X50409285Y-45157142D01*
X50337857Y-45033333D01*
X50195000Y-44971428D01*
X49980714Y-44971428D01*
X49837857Y-45033333D01*
X48552142Y-45776190D02*
X48695000Y-45838095D01*
X48980714Y-45838095D01*
X49123571Y-45776190D01*
X49195000Y-45652380D01*
X49195000Y-45157142D01*
X49123571Y-45033333D01*
X48980714Y-44971428D01*
X48695000Y-44971428D01*
X48552142Y-45033333D01*
X48480714Y-45157142D01*
X48480714Y-45280952D01*
X49195000Y-45404761D01*
X59766428Y-46911904D02*
X59695000Y-46850000D01*
X59552142Y-46788095D01*
X59195000Y-46788095D01*
X59052142Y-46850000D01*
X58980714Y-46911904D01*
X58909285Y-47035714D01*
X58909285Y-47159523D01*
X58980714Y-47345238D01*
X59837857Y-48088095D01*
X58909285Y-48088095D01*
X57623571Y-47221428D02*
X57623571Y-48088095D01*
X57980714Y-46726190D02*
X58337857Y-47654761D01*
X57409285Y-47654761D01*
X57052142Y-46788095D02*
X56552142Y-48088095D01*
X56052142Y-46788095D01*
X54480714Y-48026190D02*
X54266428Y-48088095D01*
X53909285Y-48088095D01*
X53766428Y-48026190D01*
X53695000Y-47964285D01*
X53623571Y-47840476D01*
X53623571Y-47716666D01*
X53695000Y-47592857D01*
X53766428Y-47530952D01*
X53909285Y-47469047D01*
X54195000Y-47407142D01*
X54337857Y-47345238D01*
X54409285Y-47283333D01*
X54480714Y-47159523D01*
X54480714Y-47035714D01*
X54409285Y-46911904D01*
X54337857Y-46850000D01*
X54195000Y-46788095D01*
X53837857Y-46788095D01*
X53623571Y-46850000D01*
X52409285Y-48026190D02*
X52552142Y-48088095D01*
X52837857Y-48088095D01*
X52980714Y-48026190D01*
X53052142Y-47902380D01*
X53052142Y-47407142D01*
X52980714Y-47283333D01*
X52837857Y-47221428D01*
X52552142Y-47221428D01*
X52409285Y-47283333D01*
X52337857Y-47407142D01*
X52337857Y-47530952D01*
X53052142Y-47654761D01*
X51695000Y-47221428D02*
X51695000Y-48088095D01*
X51695000Y-47345238D02*
X51623571Y-47283333D01*
X51480714Y-47221428D01*
X51266428Y-47221428D01*
X51123571Y-47283333D01*
X51052142Y-47407142D01*
X51052142Y-48088095D01*
X50409285Y-48026190D02*
X50266428Y-48088095D01*
X49980714Y-48088095D01*
X49837857Y-48026190D01*
X49766428Y-47902380D01*
X49766428Y-47840476D01*
X49837857Y-47716666D01*
X49980714Y-47654761D01*
X50195000Y-47654761D01*
X50337857Y-47592857D01*
X50409285Y-47469047D01*
X50409285Y-47407142D01*
X50337857Y-47283333D01*
X50195000Y-47221428D01*
X49980714Y-47221428D01*
X49837857Y-47283333D01*
X48552142Y-48026190D02*
X48695000Y-48088095D01*
X48980714Y-48088095D01*
X49123571Y-48026190D01*
X49195000Y-47902380D01*
X49195000Y-47407142D01*
X49123571Y-47283333D01*
X48980714Y-47221428D01*
X48695000Y-47221428D01*
X48552142Y-47283333D01*
X48480714Y-47407142D01*
X48480714Y-47530952D01*
X49195000Y-47654761D01*
D11*
X92000000Y-26000000D02*
X92000000Y-126000000D01*
D12*
X75752380Y-81676190D02*
X75752380Y-82247619D01*
X76752380Y-81961904D02*
X75752380Y-81961904D01*
X76752380Y-82723809D02*
X76704761Y-82628571D01*
X76657142Y-82580952D01*
X76561904Y-82533333D01*
X76276190Y-82533333D01*
X76180952Y-82580952D01*
X76133333Y-82628571D01*
X76085714Y-82723809D01*
X76085714Y-82866666D01*
X76133333Y-82961904D01*
X76180952Y-83009523D01*
X76276190Y-83057142D01*
X76561904Y-83057142D01*
X76657142Y-83009523D01*
X76704761Y-82961904D01*
X76752380Y-82866666D01*
X76752380Y-82723809D01*
X76085714Y-84676190D02*
X76752380Y-84676190D01*
X75704761Y-84438095D02*
X76419047Y-84200000D01*
X76419047Y-84819047D01*
X76752380Y-85104761D02*
X76085714Y-85628571D01*
X76085714Y-85104761D02*
X76752380Y-85628571D01*
X76085714Y-86438095D02*
X76752380Y-86438095D01*
X75704761Y-86199999D02*
X76419047Y-85961904D01*
X76419047Y-86580952D01*
X75752380Y-87152380D02*
X75752380Y-87247619D01*
X75800000Y-87342857D01*
X75847619Y-87390476D01*
X75942857Y-87438095D01*
X76133333Y-87485714D01*
X76371428Y-87485714D01*
X76561904Y-87438095D01*
X76657142Y-87390476D01*
X76704761Y-87342857D01*
X76752380Y-87247619D01*
X76752380Y-87152380D01*
X76704761Y-87057142D01*
X76657142Y-87009523D01*
X76561904Y-86961904D01*
X76371428Y-86914285D01*
X76133333Y-86914285D01*
X75942857Y-86961904D01*
X75847619Y-87009523D01*
X75800000Y-87057142D01*
X75752380Y-87152380D01*
X76752380Y-88676190D02*
X75752380Y-88676190D01*
X75752380Y-88914285D01*
X75800000Y-89057142D01*
X75895238Y-89152380D01*
X75990476Y-89200000D01*
X76180952Y-89247619D01*
X76323809Y-89247619D01*
X76514285Y-89200000D01*
X76609523Y-89152380D01*
X76704761Y-89057142D01*
X76752380Y-88914285D01*
X76752380Y-88676190D01*
X76752380Y-89676190D02*
X76085714Y-89676190D01*
X75752380Y-89676190D02*
X75800000Y-89628571D01*
X75847619Y-89676190D01*
X75800000Y-89723809D01*
X75752380Y-89676190D01*
X75847619Y-89676190D01*
X76704761Y-90104761D02*
X76752380Y-90200000D01*
X76752380Y-90390476D01*
X76704761Y-90485714D01*
X76609523Y-90533333D01*
X76561904Y-90533333D01*
X76466666Y-90485714D01*
X76419047Y-90390476D01*
X76419047Y-90247619D01*
X76371428Y-90152380D01*
X76276190Y-90104761D01*
X76228571Y-90104761D01*
X76133333Y-90152380D01*
X76085714Y-90247619D01*
X76085714Y-90390476D01*
X76133333Y-90485714D01*
X76085714Y-90961904D02*
X77085714Y-90961904D01*
X76133333Y-90961904D02*
X76085714Y-91057142D01*
X76085714Y-91247619D01*
X76133333Y-91342857D01*
X76180952Y-91390476D01*
X76276190Y-91438095D01*
X76561904Y-91438095D01*
X76657142Y-91390476D01*
X76704761Y-91342857D01*
X76752380Y-91247619D01*
X76752380Y-91057142D01*
X76704761Y-90961904D01*
X76752380Y-92009523D02*
X76704761Y-91914285D01*
X76609523Y-91866666D01*
X75752380Y-91866666D01*
X76752380Y-92819047D02*
X76228571Y-92819047D01*
X76133333Y-92771428D01*
X76085714Y-92676190D01*
X76085714Y-92485714D01*
X76133333Y-92390476D01*
X76704761Y-92819047D02*
X76752380Y-92723809D01*
X76752380Y-92485714D01*
X76704761Y-92390476D01*
X76609523Y-92342857D01*
X76514285Y-92342857D01*
X76419047Y-92390476D01*
X76371428Y-92485714D01*
X76371428Y-92723809D01*
X76323809Y-92819047D01*
X76085714Y-93199999D02*
X76752380Y-93438095D01*
X76085714Y-93676190D02*
X76752380Y-93438095D01*
X76990476Y-93342857D01*
X77038095Y-93295238D01*
X77085714Y-93199999D01*
X75353571Y-100033333D02*
X75353571Y-99700000D01*
X75877380Y-99700000D02*
X74877380Y-99700000D01*
X74877380Y-100176190D01*
X75877380Y-100557142D02*
X75210714Y-100557142D01*
X75401190Y-100557142D02*
X75305952Y-100604761D01*
X75258333Y-100652380D01*
X75210714Y-100747619D01*
X75210714Y-100842857D01*
X75877380Y-101319047D02*
X75829761Y-101223809D01*
X75782142Y-101176190D01*
X75686904Y-101128571D01*
X75401190Y-101128571D01*
X75305952Y-101176190D01*
X75258333Y-101223809D01*
X75210714Y-101319047D01*
X75210714Y-101461904D01*
X75258333Y-101557142D01*
X75305952Y-101604761D01*
X75401190Y-101652380D01*
X75686904Y-101652380D01*
X75782142Y-101604761D01*
X75829761Y-101557142D01*
X75877380Y-101461904D01*
X75877380Y-101319047D01*
X75877380Y-102080952D02*
X75210714Y-102080952D01*
X75305952Y-102080952D02*
X75258333Y-102128571D01*
X75210714Y-102223809D01*
X75210714Y-102366666D01*
X75258333Y-102461904D01*
X75353571Y-102509523D01*
X75877380Y-102509523D01*
X75353571Y-102509523D02*
X75258333Y-102557142D01*
X75210714Y-102652380D01*
X75210714Y-102795238D01*
X75258333Y-102890476D01*
X75353571Y-102938095D01*
X75877380Y-102938095D01*
X76627380Y-99485714D02*
X77436904Y-99485714D01*
X77532142Y-99533333D01*
X77579761Y-99580952D01*
X77627380Y-99676190D01*
X77627380Y-99866666D01*
X77579761Y-99961904D01*
X77532142Y-100009523D01*
X77436904Y-100057142D01*
X76627380Y-100057142D01*
X77341666Y-101247619D02*
X77341666Y-101723809D01*
X77627380Y-101152380D02*
X76627380Y-101485714D01*
X77627380Y-101819047D01*
X77627380Y-102152380D02*
X76960714Y-102152380D01*
X77055952Y-102152380D02*
X77008333Y-102200000D01*
X76960714Y-102295238D01*
X76960714Y-102438095D01*
X77008333Y-102533333D01*
X77103571Y-102580952D01*
X77627380Y-102580952D01*
X77103571Y-102580952D02*
X77008333Y-102628571D01*
X76960714Y-102723809D01*
X76960714Y-102866666D01*
X77008333Y-102961904D01*
X77103571Y-103009523D01*
X77627380Y-103009523D01*
X76960714Y-103485714D02*
X77960714Y-103485714D01*
X77008333Y-103485714D02*
X76960714Y-103580952D01*
X76960714Y-103771428D01*
X77008333Y-103866666D01*
X77055952Y-103914285D01*
X77151190Y-103961904D01*
X77436904Y-103961904D01*
X77532142Y-103914285D01*
X77579761Y-103866666D01*
X77627380Y-103771428D01*
X77627380Y-103580952D01*
X77579761Y-103485714D01*
X76252380Y-105247619D02*
X76252380Y-105819047D01*
X77252380Y-105533333D02*
X76252380Y-105533333D01*
X77252380Y-106295238D02*
X77204761Y-106200000D01*
X77157142Y-106152380D01*
X77061904Y-106104761D01*
X76776190Y-106104761D01*
X76680952Y-106152380D01*
X76633333Y-106200000D01*
X76585714Y-106295238D01*
X76585714Y-106438095D01*
X76633333Y-106533333D01*
X76680952Y-106580952D01*
X76776190Y-106628571D01*
X77061904Y-106628571D01*
X77157142Y-106580952D01*
X77204761Y-106533333D01*
X77252380Y-106438095D01*
X77252380Y-106295238D01*
X76728571Y-108152380D02*
X76728571Y-107819047D01*
X77252380Y-107819047D02*
X76252380Y-107819047D01*
X76252380Y-108295238D01*
X77252380Y-109104761D02*
X76728571Y-109104761D01*
X76633333Y-109057142D01*
X76585714Y-108961904D01*
X76585714Y-108771428D01*
X76633333Y-108676190D01*
X77204761Y-109104761D02*
X77252380Y-109009523D01*
X77252380Y-108771428D01*
X77204761Y-108676190D01*
X77109523Y-108628571D01*
X77014285Y-108628571D01*
X76919047Y-108676190D01*
X76871428Y-108771428D01*
X76871428Y-109009523D01*
X76823809Y-109104761D01*
X76585714Y-109580952D02*
X77252380Y-109580952D01*
X76680952Y-109580952D02*
X76633333Y-109628571D01*
X76585714Y-109723809D01*
X76585714Y-109866666D01*
X76633333Y-109961904D01*
X76728571Y-110009523D01*
X77252380Y-110009523D01*
X57371428Y-82152380D02*
X56800000Y-82152380D01*
X57085714Y-83152380D02*
X57085714Y-82152380D01*
X56323809Y-83152380D02*
X56419047Y-83104761D01*
X56466666Y-83057142D01*
X56514285Y-82961904D01*
X56514285Y-82676190D01*
X56466666Y-82580952D01*
X56419047Y-82533333D01*
X56323809Y-82485714D01*
X56180952Y-82485714D01*
X56085714Y-82533333D01*
X56038095Y-82580952D01*
X55990476Y-82676190D01*
X55990476Y-82961904D01*
X56038095Y-83057142D01*
X56085714Y-83104761D01*
X56180952Y-83152380D01*
X56323809Y-83152380D01*
X54942857Y-82152380D02*
X54371428Y-82152380D01*
X54657142Y-83152380D02*
X54657142Y-82152380D01*
X53657142Y-83104761D02*
X53752380Y-83152380D01*
X53942857Y-83152380D01*
X54038095Y-83104761D01*
X54085714Y-83009523D01*
X54085714Y-82628571D01*
X54038095Y-82533333D01*
X53942857Y-82485714D01*
X53752380Y-82485714D01*
X53657142Y-82533333D01*
X53609523Y-82628571D01*
X53609523Y-82723809D01*
X54085714Y-82819047D01*
X53038095Y-83152380D02*
X53133333Y-83104761D01*
X53180952Y-83009523D01*
X53180952Y-82152380D01*
X52276190Y-83104761D02*
X52371428Y-83152380D01*
X52561904Y-83152380D01*
X52657142Y-83104761D01*
X52704761Y-83009523D01*
X52704761Y-82628571D01*
X52657142Y-82533333D01*
X52561904Y-82485714D01*
X52371428Y-82485714D01*
X52276190Y-82533333D01*
X52228571Y-82628571D01*
X52228571Y-82723809D01*
X52704761Y-82819047D01*
X51800000Y-83152380D02*
X51800000Y-82485714D01*
X51800000Y-82580952D02*
X51752380Y-82533333D01*
X51657142Y-82485714D01*
X51514285Y-82485714D01*
X51419047Y-82533333D01*
X51371428Y-82628571D01*
X51371428Y-83152380D01*
X51371428Y-82628571D02*
X51323809Y-82533333D01*
X51228571Y-82485714D01*
X51085714Y-82485714D01*
X50990476Y-82533333D01*
X50942857Y-82628571D01*
X50942857Y-83152380D01*
X50038095Y-83152380D02*
X50038095Y-82628571D01*
X50085714Y-82533333D01*
X50180952Y-82485714D01*
X50371428Y-82485714D01*
X50466666Y-82533333D01*
X50038095Y-83104761D02*
X50133333Y-83152380D01*
X50371428Y-83152380D01*
X50466666Y-83104761D01*
X50514285Y-83009523D01*
X50514285Y-82914285D01*
X50466666Y-82819047D01*
X50371428Y-82771428D01*
X50133333Y-82771428D01*
X50038095Y-82723809D01*
X49133333Y-82485714D02*
X49133333Y-83485714D01*
X49133333Y-83104761D02*
X49228571Y-83152380D01*
X49419047Y-83152380D01*
X49514285Y-83104761D01*
X49561904Y-83057142D01*
X49609523Y-82961904D01*
X49609523Y-82676190D01*
X49561904Y-82580952D01*
X49514285Y-82533333D01*
X49419047Y-82485714D01*
X49228571Y-82485714D01*
X49133333Y-82533333D01*
X48228571Y-82485714D02*
X48228571Y-83152380D01*
X48657142Y-82485714D02*
X48657142Y-83009523D01*
X48609523Y-83104761D01*
X48514285Y-83152380D01*
X48371428Y-83152380D01*
X48276190Y-83104761D01*
X48228571Y-83057142D01*
X47371428Y-83104761D02*
X47466666Y-83152380D01*
X47657142Y-83152380D01*
X47752380Y-83104761D01*
X47800000Y-83009523D01*
X47800000Y-82628571D01*
X47752380Y-82533333D01*
X47657142Y-82485714D01*
X47466666Y-82485714D01*
X47371428Y-82533333D01*
X47323809Y-82628571D01*
X47323809Y-82723809D01*
X47800000Y-82819047D01*
D10*
X81697857Y-30128571D02*
X81697857Y-28628571D01*
X81197857Y-29700000D01*
X80697857Y-28628571D01*
X80697857Y-30128571D01*
X79412142Y-30057142D02*
X79555000Y-30128571D01*
X79840714Y-30128571D01*
X79983571Y-30057142D01*
X80055000Y-29914285D01*
X80055000Y-29342857D01*
X79983571Y-29200000D01*
X79840714Y-29128571D01*
X79555000Y-29128571D01*
X79412142Y-29200000D01*
X79340714Y-29342857D01*
X79340714Y-29485714D01*
X80055000Y-29628571D01*
X78697857Y-29128571D02*
X78697857Y-30128571D01*
X78697857Y-29271428D02*
X78626428Y-29200000D01*
X78483571Y-29128571D01*
X78269285Y-29128571D01*
X78126428Y-29200000D01*
X78055000Y-29342857D01*
X78055000Y-30128571D01*
X77555000Y-29128571D02*
X76983571Y-29128571D01*
X77340714Y-28628571D02*
X77340714Y-29914285D01*
X77269285Y-30057142D01*
X77126428Y-30128571D01*
X76983571Y-30128571D01*
X76269285Y-30128571D02*
X76412142Y-30057142D01*
X76483571Y-29985714D01*
X76555000Y-29842857D01*
X76555000Y-29414285D01*
X76483571Y-29271428D01*
X76412142Y-29200000D01*
X76269285Y-29128571D01*
X76055000Y-29128571D01*
X75912142Y-29200000D01*
X75840714Y-29271428D01*
X75769285Y-29414285D01*
X75769285Y-29842857D01*
X75840714Y-29985714D01*
X75912142Y-30057142D01*
X76055000Y-30128571D01*
X76269285Y-30128571D01*
X75126428Y-30128571D02*
X75126428Y-29128571D01*
X75126428Y-29414285D02*
X75055000Y-29271428D01*
X74983571Y-29200000D01*
X74840714Y-29128571D01*
X74697857Y-29128571D01*
X73055000Y-30128571D02*
X73055000Y-28628571D01*
X72555000Y-29700000D01*
X72055000Y-28628571D01*
X72055000Y-30128571D01*
X71197857Y-29628571D02*
X71340714Y-29700000D01*
X71412142Y-29842857D01*
X71412142Y-29914285D01*
X71340714Y-30057142D01*
X71197857Y-30128571D01*
X70912142Y-30128571D01*
X70769285Y-30057142D01*
X71055000Y-29628571D02*
X71197857Y-29628571D01*
X71340714Y-29557142D01*
X71412142Y-29414285D01*
X71412142Y-29342857D01*
X71340714Y-29200000D01*
X71197857Y-29128571D01*
X70912142Y-29128571D01*
X70769285Y-29200000D01*
X70912142Y-28557142D02*
X71126428Y-28771428D01*
X70269285Y-29128571D02*
X69912142Y-30128571D01*
X69555000Y-29342857D01*
X69555000Y-29271428D01*
X69626428Y-29128571D01*
X68983571Y-29342857D02*
X68912142Y-29200000D01*
X68769285Y-29128571D01*
X68126428Y-29128571D01*
X68555000Y-29128571D02*
X68555000Y-29914285D01*
X68483571Y-30057142D01*
X68340714Y-30128571D01*
X67055000Y-29628571D02*
X67055000Y-29914285D01*
X67412142Y-29128571D02*
X67483571Y-29200000D01*
X67555000Y-29342857D01*
X67555000Y-29914285D01*
X67483571Y-30057142D01*
X67340714Y-30128571D01*
X67269285Y-30128571D01*
X67126428Y-30057142D01*
X67055000Y-29914285D01*
X66983571Y-30057142D01*
X66840714Y-30128571D01*
X66769285Y-30128571D01*
X66626428Y-30057142D01*
X66555000Y-29914285D01*
X66555000Y-29342857D01*
X66626428Y-29200000D01*
X66697857Y-29128571D01*
X65912142Y-30628571D02*
X65912142Y-29414285D01*
X65840714Y-29271428D01*
X65769285Y-29200000D01*
X65626428Y-29128571D01*
X65412142Y-29128571D01*
X65269285Y-29200000D01*
X65197857Y-29271428D01*
X65126428Y-29414285D01*
X65126428Y-29842857D01*
X65197857Y-29985714D01*
X65269285Y-30057142D01*
X65412142Y-30128571D01*
X65626428Y-30128571D01*
X65769285Y-30057142D01*
X65912142Y-29914285D01*
X63555000Y-28628571D02*
X63055000Y-30128571D01*
X62555000Y-28628571D01*
X62197857Y-28628571D02*
X61269285Y-28628571D01*
X61769285Y-29200000D01*
X61555000Y-29200000D01*
X61412142Y-29271428D01*
X61340714Y-29342857D01*
X61269285Y-29485714D01*
X61269285Y-29842857D01*
X61340714Y-29985714D01*
X61412142Y-30057142D01*
X61555000Y-30128571D01*
X61983571Y-30128571D01*
X62126428Y-30057142D01*
X62197857Y-29985714D01*
X81412142Y-31178571D02*
X81126428Y-31178571D01*
X80983571Y-31250000D01*
X80840714Y-31392857D01*
X80769285Y-31678571D01*
X80769285Y-32178571D01*
X80840714Y-32464285D01*
X80983571Y-32607142D01*
X81126428Y-32678571D01*
X81412142Y-32678571D01*
X81555000Y-32607142D01*
X81697857Y-32464285D01*
X81769285Y-32178571D01*
X81769285Y-31678571D01*
X81697857Y-31392857D01*
X81555000Y-31250000D01*
X81412142Y-31178571D01*
X80126428Y-32678571D02*
X80126428Y-31178571D01*
X79269285Y-32678571D01*
X79269285Y-31178571D01*
X78697857Y-31178571D02*
X77697857Y-31178571D01*
X78340714Y-32678571D01*
X77126428Y-31892857D02*
X76626428Y-31892857D01*
X76412142Y-32678571D02*
X77126428Y-32678571D01*
X77126428Y-31178571D01*
X76412142Y-31178571D01*
X74769285Y-32821428D02*
X74912142Y-32750000D01*
X75055000Y-32607142D01*
X75269285Y-32392857D01*
X75412142Y-32321428D01*
X75555000Y-32321428D01*
X75483571Y-32678571D02*
X75626428Y-32607142D01*
X75769285Y-32464285D01*
X75840714Y-32178571D01*
X75840714Y-31678571D01*
X75769285Y-31392857D01*
X75626428Y-31250000D01*
X75483571Y-31178571D01*
X75197857Y-31178571D01*
X75055000Y-31250000D01*
X74912142Y-31392857D01*
X74840714Y-31678571D01*
X74840714Y-32178571D01*
X74912142Y-32464285D01*
X75055000Y-32607142D01*
X75197857Y-32678571D01*
X75483571Y-32678571D01*
X73126428Y-32607142D02*
X72912142Y-32678571D01*
X72555000Y-32678571D01*
X72412142Y-32607142D01*
X72340714Y-32535714D01*
X72269285Y-32392857D01*
X72269285Y-32250000D01*
X72340714Y-32107142D01*
X72412142Y-32035714D01*
X72555000Y-31964285D01*
X72840714Y-31892857D01*
X72983571Y-31821428D01*
X73055000Y-31750000D01*
X73126428Y-31607142D01*
X73126428Y-31464285D01*
X73055000Y-31321428D01*
X72983571Y-31250000D01*
X72840714Y-31178571D01*
X72483571Y-31178571D01*
X72269285Y-31250000D01*
X71697857Y-32607142D02*
X71483571Y-32678571D01*
X71126428Y-32678571D01*
X70983571Y-32607142D01*
X70912142Y-32535714D01*
X70840714Y-32392857D01*
X70840714Y-32250000D01*
X70912142Y-32107142D01*
X70983571Y-32035714D01*
X71126428Y-31964285D01*
X71412142Y-31892857D01*
X71555000Y-31821428D01*
X71626428Y-31750000D01*
X71697857Y-31607142D01*
X71697857Y-31464285D01*
X71626428Y-31321428D01*
X71555000Y-31250000D01*
X71412142Y-31178571D01*
X71055000Y-31178571D01*
X70840714Y-31250000D01*
X70197857Y-32678571D02*
X70197857Y-31178571D01*
X69626428Y-31178571D01*
X69483571Y-31250000D01*
X69412142Y-31321428D01*
X69340714Y-31464285D01*
X69340714Y-31678571D01*
X69412142Y-31821428D01*
X69483571Y-31892857D01*
X69626428Y-31964285D01*
X70197857Y-31964285D01*
X68769285Y-32250000D02*
X68055000Y-32250000D01*
X68912142Y-32678571D02*
X68412142Y-31178571D01*
X67912142Y-32678571D01*
X65626428Y-32607142D02*
X65769285Y-32678571D01*
X66055000Y-32678571D01*
X66197857Y-32607142D01*
X66269285Y-32535714D01*
X66340714Y-32392857D01*
X66340714Y-31964285D01*
X66269285Y-31821428D01*
X66197857Y-31750000D01*
X66055000Y-31678571D01*
X65769285Y-31678571D01*
X65626428Y-31750000D01*
X64769285Y-32678571D02*
X64912142Y-32607142D01*
X64983571Y-32535714D01*
X65055000Y-32392857D01*
X65055000Y-31964285D01*
X64983571Y-31821428D01*
X64912142Y-31750000D01*
X64769285Y-31678571D01*
X64555000Y-31678571D01*
X64412142Y-31750000D01*
X64340714Y-31821428D01*
X64269285Y-31964285D01*
X64269285Y-32392857D01*
X64340714Y-32535714D01*
X64412142Y-32607142D01*
X64555000Y-32678571D01*
X64769285Y-32678571D01*
X63626428Y-31678571D02*
X63626428Y-32678571D01*
X63626428Y-31821428D02*
X63555000Y-31750000D01*
X63412142Y-31678571D01*
X63197857Y-31678571D01*
X63055000Y-31750000D01*
X62983571Y-31892857D01*
X62983571Y-32678571D01*
X62483571Y-31678571D02*
X61912142Y-31678571D01*
X62269285Y-31178571D02*
X62269285Y-32464285D01*
X62197857Y-32607142D01*
X62055000Y-32678571D01*
X61912142Y-32678571D01*
X61412142Y-32678571D02*
X61412142Y-31678571D01*
X61412142Y-31964285D02*
X61340714Y-31821428D01*
X61269285Y-31750000D01*
X61126428Y-31678571D01*
X60983571Y-31678571D01*
X60269285Y-32678571D02*
X60412142Y-32607142D01*
X60483571Y-32535714D01*
X60555000Y-32392857D01*
X60555000Y-31964285D01*
X60483571Y-31821428D01*
X60412142Y-31750000D01*
X60269285Y-31678571D01*
X60055000Y-31678571D01*
X59912142Y-31750000D01*
X59840714Y-31821428D01*
X59769285Y-31964285D01*
X59769285Y-32392857D01*
X59840714Y-32535714D01*
X59912142Y-32607142D01*
X60055000Y-32678571D01*
X60269285Y-32678571D01*
X58912142Y-32678571D02*
X59055000Y-32607142D01*
X59126428Y-32464285D01*
X59126428Y-31178571D01*
X57197857Y-32678571D02*
X57197857Y-31178571D01*
X57197857Y-31750000D02*
X57055000Y-31678571D01*
X56769285Y-31678571D01*
X56626428Y-31750000D01*
X56555000Y-31821428D01*
X56483571Y-31964285D01*
X56483571Y-32392857D01*
X56555000Y-32535714D01*
X56626428Y-32607142D01*
X56769285Y-32678571D01*
X57055000Y-32678571D01*
X57197857Y-32607142D01*
X55626428Y-32678571D02*
X55769285Y-32607142D01*
X55840714Y-32535714D01*
X55912142Y-32392857D01*
X55912142Y-31964285D01*
X55840714Y-31821428D01*
X55769285Y-31750000D01*
X55626428Y-31678571D01*
X55412142Y-31678571D01*
X55269285Y-31750000D01*
X55197857Y-31821428D01*
X55126428Y-31964285D01*
X55126428Y-32392857D01*
X55197857Y-32535714D01*
X55269285Y-32607142D01*
X55412142Y-32678571D01*
X55626428Y-32678571D01*
X53840714Y-32678571D02*
X53840714Y-31892857D01*
X53912142Y-31750000D01*
X54055000Y-31678571D01*
X54340714Y-31678571D01*
X54483571Y-31750000D01*
X53840714Y-32607142D02*
X53983571Y-32678571D01*
X54340714Y-32678571D01*
X54483571Y-32607142D01*
X54555000Y-32464285D01*
X54555000Y-32321428D01*
X54483571Y-32178571D01*
X54340714Y-32107142D01*
X53983571Y-32107142D01*
X53840714Y-32035714D01*
X53126428Y-32678571D02*
X53126428Y-31678571D01*
X53126428Y-31964285D02*
X53055000Y-31821428D01*
X52983571Y-31750000D01*
X52840714Y-31678571D01*
X52697857Y-31678571D01*
X51555000Y-32678571D02*
X51555000Y-31178571D01*
X51555000Y-32607142D02*
X51697857Y-32678571D01*
X51983571Y-32678571D01*
X52126428Y-32607142D01*
X52197857Y-32535714D01*
X52269285Y-32392857D01*
X52269285Y-31964285D01*
X52197857Y-31821428D01*
X52126428Y-31750000D01*
X51983571Y-31678571D01*
X51697857Y-31678571D01*
X51555000Y-31750000D01*
X81697857Y-35228571D02*
X81697857Y-33728571D01*
X81340714Y-33728571D01*
X81126428Y-33800000D01*
X80983571Y-33942857D01*
X80912142Y-34085714D01*
X80840714Y-34371428D01*
X80840714Y-34585714D01*
X80912142Y-34871428D01*
X80983571Y-35014285D01*
X81126428Y-35157142D01*
X81340714Y-35228571D01*
X81697857Y-35228571D01*
X80197857Y-35228571D02*
X80197857Y-34228571D01*
X80197857Y-34514285D02*
X80126428Y-34371428D01*
X80055000Y-34300000D01*
X79912142Y-34228571D01*
X79769285Y-34228571D01*
X78626428Y-35228571D02*
X78626428Y-34442857D01*
X78697857Y-34300000D01*
X78840714Y-34228571D01*
X79126428Y-34228571D01*
X79269285Y-34300000D01*
X78626428Y-35157142D02*
X78769285Y-35228571D01*
X79126428Y-35228571D01*
X79269285Y-35157142D01*
X79340714Y-35014285D01*
X79340714Y-34871428D01*
X79269285Y-34728571D01*
X79126428Y-34657142D01*
X78769285Y-34657142D01*
X78626428Y-34585714D01*
X78055000Y-34228571D02*
X77769285Y-35228571D01*
X77483571Y-34514285D01*
X77197857Y-35228571D01*
X76912142Y-34228571D01*
X76340714Y-35228571D02*
X76340714Y-34228571D01*
X76340714Y-33728571D02*
X76412142Y-33800000D01*
X76340714Y-33871428D01*
X76269285Y-33800000D01*
X76340714Y-33728571D01*
X76340714Y-33871428D01*
X75626428Y-34228571D02*
X75626428Y-35228571D01*
X75626428Y-34371428D02*
X75555000Y-34300000D01*
X75412142Y-34228571D01*
X75197857Y-34228571D01*
X75055000Y-34300000D01*
X74983571Y-34442857D01*
X74983571Y-35228571D01*
X73626428Y-34228571D02*
X73626428Y-35442857D01*
X73697857Y-35585714D01*
X73769285Y-35657142D01*
X73912142Y-35728571D01*
X74126428Y-35728571D01*
X74269285Y-35657142D01*
X73626428Y-35157142D02*
X73769285Y-35228571D01*
X74055000Y-35228571D01*
X74197857Y-35157142D01*
X74269285Y-35085714D01*
X74340714Y-34942857D01*
X74340714Y-34514285D01*
X74269285Y-34371428D01*
X74197857Y-34300000D01*
X74055000Y-34228571D01*
X73769285Y-34228571D01*
X73626428Y-34300000D01*
X71983571Y-34228571D02*
X71412142Y-34228571D01*
X71769285Y-35228571D02*
X71769285Y-33942857D01*
X71697857Y-33800000D01*
X71555000Y-33728571D01*
X71412142Y-33728571D01*
X70269285Y-33728571D02*
X70555000Y-33728571D01*
X70697857Y-33800000D01*
X70769285Y-33871428D01*
X70912142Y-34085714D01*
X70983571Y-34371428D01*
X70983571Y-34942857D01*
X70912142Y-35085714D01*
X70840714Y-35157142D01*
X70697857Y-35228571D01*
X70412142Y-35228571D01*
X70269285Y-35157142D01*
X70197857Y-35085714D01*
X70126428Y-34942857D01*
X70126428Y-34585714D01*
X70197857Y-34442857D01*
X70269285Y-34371428D01*
X70412142Y-34300000D01*
X70697857Y-34300000D01*
X70840714Y-34371428D01*
X70912142Y-34442857D01*
X70983571Y-34585714D01*
X69483571Y-35228571D02*
X69483571Y-34228571D01*
X69483571Y-33728571D02*
X69555000Y-33800000D01*
X69483571Y-33871428D01*
X69412142Y-33800000D01*
X69483571Y-33728571D01*
X69483571Y-33871428D01*
X68983571Y-34228571D02*
X68412142Y-34228571D01*
X68769285Y-33728571D02*
X68769285Y-35014285D01*
X68697857Y-35157142D01*
X68555000Y-35228571D01*
X68412142Y-35228571D01*
X67269285Y-34228571D02*
X67269285Y-35228571D01*
X67912142Y-34228571D02*
X67912142Y-35014285D01*
X67840714Y-35157142D01*
X67697857Y-35228571D01*
X67483571Y-35228571D01*
X67340714Y-35157142D01*
X67269285Y-35085714D01*
D11*
X42000000Y-126000000D02*
X42000000Y-26000000D01*
X42000000Y-26000000D02*
X92000000Y-26000000D01*
D10*
X84533571Y-99103571D02*
X85247857Y-99103571D01*
X85319285Y-99817857D01*
X85247857Y-99746428D01*
X85105000Y-99675000D01*
X84747857Y-99675000D01*
X84605000Y-99746428D01*
X84533571Y-99817857D01*
X84462142Y-99960714D01*
X84462142Y-100317857D01*
X84533571Y-100460714D01*
X84605000Y-100532142D01*
X84747857Y-100603571D01*
X85105000Y-100603571D01*
X85247857Y-100532142D01*
X85319285Y-100460714D01*
X83533571Y-99103571D02*
X83390714Y-99103571D01*
X83247857Y-99175000D01*
X83176428Y-99246428D01*
X83105000Y-99389285D01*
X83033571Y-99675000D01*
X83033571Y-100032142D01*
X83105000Y-100317857D01*
X83176428Y-100460714D01*
X83247857Y-100532142D01*
X83390714Y-100603571D01*
X83533571Y-100603571D01*
X83676428Y-100532142D01*
X83747857Y-100460714D01*
X83819285Y-100317857D01*
X83890714Y-100032142D01*
X83890714Y-99675000D01*
X83819285Y-99389285D01*
X83747857Y-99246428D01*
X83676428Y-99175000D01*
X83533571Y-99103571D01*
X82605000Y-99103571D02*
X82105000Y-100603571D01*
X81605000Y-99103571D01*
X84462142Y-101725000D02*
X84605000Y-101653571D01*
X84819285Y-101653571D01*
X85033571Y-101725000D01*
X85176428Y-101867857D01*
X85247857Y-102010714D01*
X85319285Y-102296428D01*
X85319285Y-102510714D01*
X85247857Y-102796428D01*
X85176428Y-102939285D01*
X85033571Y-103082142D01*
X84819285Y-103153571D01*
X84676428Y-103153571D01*
X84462142Y-103082142D01*
X84390714Y-103010714D01*
X84390714Y-102510714D01*
X84676428Y-102510714D01*
X83747857Y-102153571D02*
X83747857Y-103153571D01*
X83747857Y-102296428D02*
X83676428Y-102225000D01*
X83533571Y-102153571D01*
X83319285Y-102153571D01*
X83176428Y-102225000D01*
X83105000Y-102367857D01*
X83105000Y-103153571D01*
X81747857Y-103153571D02*
X81747857Y-101653571D01*
X81747857Y-103082142D02*
X81890714Y-103153571D01*
X82176428Y-103153571D01*
X82319285Y-103082142D01*
X82390714Y-103010714D01*
X82462142Y-102867857D01*
X82462142Y-102439285D01*
X82390714Y-102296428D01*
X82319285Y-102225000D01*
X82176428Y-102153571D01*
X81890714Y-102153571D01*
X81747857Y-102225000D01*
X84462142Y-104900000D02*
X84605000Y-104828571D01*
X84819285Y-104828571D01*
X85033571Y-104900000D01*
X85176428Y-105042857D01*
X85247857Y-105185714D01*
X85319285Y-105471428D01*
X85319285Y-105685714D01*
X85247857Y-105971428D01*
X85176428Y-106114285D01*
X85033571Y-106257142D01*
X84819285Y-106328571D01*
X84676428Y-106328571D01*
X84462142Y-106257142D01*
X84390714Y-106185714D01*
X84390714Y-105685714D01*
X84676428Y-105685714D01*
X83747857Y-105328571D02*
X83747857Y-106328571D01*
X83747857Y-105471428D02*
X83676428Y-105400000D01*
X83533571Y-105328571D01*
X83319285Y-105328571D01*
X83176428Y-105400000D01*
X83105000Y-105542857D01*
X83105000Y-106328571D01*
X81747857Y-106328571D02*
X81747857Y-104828571D01*
X81747857Y-106257142D02*
X81890714Y-106328571D01*
X82176428Y-106328571D01*
X82319285Y-106257142D01*
X82390714Y-106185714D01*
X82462142Y-106042857D01*
X82462142Y-105614285D01*
X82390714Y-105471428D01*
X82319285Y-105400000D01*
X82176428Y-105328571D01*
X81890714Y-105328571D01*
X81747857Y-105400000D01*
X85247857Y-108307142D02*
X84105000Y-108307142D01*
X84676428Y-108878571D02*
X84676428Y-107735714D01*
X82605000Y-108878571D02*
X83462142Y-108878571D01*
X83033571Y-108878571D02*
X83033571Y-107378571D01*
X83176428Y-107592857D01*
X83319285Y-107735714D01*
X83462142Y-107807142D01*
X82033571Y-107521428D02*
X81962142Y-107450000D01*
X81819285Y-107378571D01*
X81462142Y-107378571D01*
X81319285Y-107450000D01*
X81247857Y-107521428D01*
X81176428Y-107664285D01*
X81176428Y-107807142D01*
X81247857Y-108021428D01*
X82105000Y-108878571D01*
X81176428Y-108878571D01*
X80747857Y-107378571D02*
X80247857Y-108878571D01*
X79747857Y-107378571D01*
X84747857Y-110642857D02*
X85247857Y-110642857D01*
X85247857Y-111428571D02*
X85247857Y-109928571D01*
X84533571Y-109928571D01*
X83319285Y-111428571D02*
X83319285Y-110642857D01*
X83390714Y-110500000D01*
X83533571Y-110428571D01*
X83819285Y-110428571D01*
X83962142Y-110500000D01*
X83319285Y-111357142D02*
X83462142Y-111428571D01*
X83819285Y-111428571D01*
X83962142Y-111357142D01*
X84033571Y-111214285D01*
X84033571Y-111071428D01*
X83962142Y-110928571D01*
X83819285Y-110857142D01*
X83462142Y-110857142D01*
X83319285Y-110785714D01*
X82605000Y-110428571D02*
X82605000Y-111428571D01*
X82605000Y-110571428D02*
X82533571Y-110500000D01*
X82390714Y-110428571D01*
X82176428Y-110428571D01*
X82033571Y-110500000D01*
X81962142Y-110642857D01*
X81962142Y-111428571D01*
X84033571Y-53703571D02*
X84747857Y-53703571D01*
X84747857Y-52203571D01*
X82962142Y-53632142D02*
X83105000Y-53703571D01*
X83390714Y-53703571D01*
X83533571Y-53632142D01*
X83605000Y-53489285D01*
X83605000Y-52917857D01*
X83533571Y-52775000D01*
X83390714Y-52703571D01*
X83105000Y-52703571D01*
X82962142Y-52775000D01*
X82890714Y-52917857D01*
X82890714Y-53060714D01*
X83605000Y-53203571D01*
X81605000Y-53703571D02*
X81605000Y-52203571D01*
X81605000Y-53632142D02*
X81747857Y-53703571D01*
X82033571Y-53703571D01*
X82176428Y-53632142D01*
X82247857Y-53560714D01*
X82319285Y-53417857D01*
X82319285Y-52989285D01*
X82247857Y-52846428D01*
X82176428Y-52775000D01*
X82033571Y-52703571D01*
X81747857Y-52703571D01*
X81605000Y-52775000D01*
X81247857Y-53846428D02*
X80105000Y-53846428D01*
X79747857Y-53703571D02*
X79747857Y-52203571D01*
X78890714Y-53703571D02*
X79533571Y-52846428D01*
X78890714Y-52203571D02*
X79747857Y-53060714D01*
X84033571Y-56253571D02*
X84747857Y-56253571D01*
X84747857Y-54753571D01*
X82962142Y-56182142D02*
X83105000Y-56253571D01*
X83390714Y-56253571D01*
X83533571Y-56182142D01*
X83605000Y-56039285D01*
X83605000Y-55467857D01*
X83533571Y-55325000D01*
X83390714Y-55253571D01*
X83105000Y-55253571D01*
X82962142Y-55325000D01*
X82890714Y-55467857D01*
X82890714Y-55610714D01*
X83605000Y-55753571D01*
X81605000Y-56253571D02*
X81605000Y-54753571D01*
X81605000Y-56182142D02*
X81747857Y-56253571D01*
X82033571Y-56253571D01*
X82176428Y-56182142D01*
X82247857Y-56110714D01*
X82319285Y-55967857D01*
X82319285Y-55539285D01*
X82247857Y-55396428D01*
X82176428Y-55325000D01*
X82033571Y-55253571D01*
X81747857Y-55253571D01*
X81605000Y-55325000D01*
X81247857Y-56396428D02*
X80105000Y-56396428D01*
X79819285Y-55825000D02*
X79105000Y-55825000D01*
X79962142Y-56253571D02*
X79462142Y-54753571D01*
X78962142Y-56253571D01*
X84962142Y-57303571D02*
X84462142Y-58803571D01*
X83962142Y-57303571D01*
X82890714Y-58732142D02*
X83033571Y-58803571D01*
X83319285Y-58803571D01*
X83462142Y-58732142D01*
X83533571Y-58589285D01*
X83533571Y-58017857D01*
X83462142Y-57875000D01*
X83319285Y-57803571D01*
X83033571Y-57803571D01*
X82890714Y-57875000D01*
X82819285Y-58017857D01*
X82819285Y-58160714D01*
X83533571Y-58303571D01*
X81605000Y-58732142D02*
X81747857Y-58803571D01*
X82033571Y-58803571D01*
X82176428Y-58732142D01*
X82247857Y-58589285D01*
X82247857Y-58017857D01*
X82176428Y-57875000D01*
X82033571Y-57803571D01*
X81747857Y-57803571D01*
X81605000Y-57875000D01*
X81533571Y-58017857D01*
X81533571Y-58160714D01*
X82247857Y-58303571D01*
X84747857Y-60567857D02*
X84247857Y-60567857D01*
X84033571Y-61353571D02*
X84747857Y-61353571D01*
X84747857Y-59853571D01*
X84033571Y-59853571D01*
X83462142Y-59996428D02*
X83390714Y-59925000D01*
X83247857Y-59853571D01*
X82890714Y-59853571D01*
X82747857Y-59925000D01*
X82676428Y-59996428D01*
X82605000Y-60139285D01*
X82605000Y-60282142D01*
X82676428Y-60496428D01*
X83533571Y-61353571D01*
X82605000Y-61353571D01*
X84962142Y-62403571D02*
X84462142Y-63903571D01*
X83962142Y-62403571D01*
X82819285Y-63903571D02*
X82819285Y-62403571D01*
X82819285Y-63832142D02*
X82962142Y-63903571D01*
X83247857Y-63903571D01*
X83390714Y-63832142D01*
X83462142Y-63760714D01*
X83533571Y-63617857D01*
X83533571Y-63189285D01*
X83462142Y-63046428D01*
X83390714Y-62975000D01*
X83247857Y-62903571D01*
X82962142Y-62903571D01*
X82819285Y-62975000D01*
X81462142Y-63903571D02*
X81462142Y-62403571D01*
X81462142Y-63832142D02*
X81605000Y-63903571D01*
X81890714Y-63903571D01*
X82033571Y-63832142D01*
X82105000Y-63760714D01*
X82176428Y-63617857D01*
X82176428Y-63189285D01*
X82105000Y-63046428D01*
X82033571Y-62975000D01*
X81890714Y-62903571D01*
X81605000Y-62903571D01*
X81462142Y-62975000D01*
X84962142Y-64953571D02*
X84462142Y-66453571D01*
X83962142Y-64953571D01*
X83533571Y-66382142D02*
X83390714Y-66453571D01*
X83105000Y-66453571D01*
X82962142Y-66382142D01*
X82890714Y-66239285D01*
X82890714Y-66167857D01*
X82962142Y-66025000D01*
X83105000Y-65953571D01*
X83319285Y-65953571D01*
X83462142Y-65882142D01*
X83533571Y-65739285D01*
X83533571Y-65667857D01*
X83462142Y-65525000D01*
X83319285Y-65453571D01*
X83105000Y-65453571D01*
X82962142Y-65525000D01*
X82319285Y-66382142D02*
X82176428Y-66453571D01*
X81890714Y-66453571D01*
X81747857Y-66382142D01*
X81676428Y-66239285D01*
X81676428Y-66167857D01*
X81747857Y-66025000D01*
X81890714Y-65953571D01*
X82105000Y-65953571D01*
X82247857Y-65882142D01*
X82319285Y-65739285D01*
X82319285Y-65667857D01*
X82247857Y-65525000D01*
X82105000Y-65453571D01*
X81890714Y-65453571D01*
X81747857Y-65525000D01*
X84962142Y-67503571D02*
X84462142Y-69003571D01*
X83962142Y-67503571D01*
X83176428Y-67503571D02*
X82890714Y-67503571D01*
X82747857Y-67575000D01*
X82605000Y-67717857D01*
X82533571Y-68003571D01*
X82533571Y-68503571D01*
X82605000Y-68789285D01*
X82747857Y-68932142D01*
X82890714Y-69003571D01*
X83176428Y-69003571D01*
X83319285Y-68932142D01*
X83462142Y-68789285D01*
X83533571Y-68503571D01*
X83533571Y-68003571D01*
X83462142Y-67717857D01*
X83319285Y-67575000D01*
X83176428Y-67503571D01*
X83890714Y-71553571D02*
X84390714Y-70839285D01*
X84747857Y-71553571D02*
X84747857Y-70053571D01*
X84176428Y-70053571D01*
X84033571Y-70125000D01*
X83962142Y-70196428D01*
X83890714Y-70339285D01*
X83890714Y-70553571D01*
X83962142Y-70696428D01*
X84033571Y-70767857D01*
X84176428Y-70839285D01*
X84747857Y-70839285D01*
X83319285Y-71482142D02*
X83105000Y-71553571D01*
X82747857Y-71553571D01*
X82605000Y-71482142D01*
X82533571Y-71410714D01*
X82462142Y-71267857D01*
X82462142Y-71125000D01*
X82533571Y-70982142D01*
X82605000Y-70910714D01*
X82747857Y-70839285D01*
X83033571Y-70767857D01*
X83176428Y-70696428D01*
X83247857Y-70625000D01*
X83319285Y-70482142D01*
X83319285Y-70339285D01*
X83247857Y-70196428D01*
X83176428Y-70125000D01*
X83033571Y-70053571D01*
X82676428Y-70053571D01*
X82462142Y-70125000D01*
X83890714Y-74103571D02*
X84390714Y-73389285D01*
X84747857Y-74103571D02*
X84747857Y-72603571D01*
X84176428Y-72603571D01*
X84033571Y-72675000D01*
X83962142Y-72746428D01*
X83890714Y-72889285D01*
X83890714Y-73103571D01*
X83962142Y-73246428D01*
X84033571Y-73317857D01*
X84176428Y-73389285D01*
X84747857Y-73389285D01*
X83390714Y-72603571D02*
X83033571Y-74103571D01*
X82747857Y-73032142D01*
X82462142Y-74103571D01*
X82105000Y-72603571D01*
X84747857Y-75867857D02*
X84247857Y-75867857D01*
X84033571Y-76653571D02*
X84747857Y-76653571D01*
X84747857Y-75153571D01*
X84033571Y-75153571D01*
X82605000Y-76653571D02*
X83462142Y-76653571D01*
X83033571Y-76653571D02*
X83033571Y-75153571D01*
X83176428Y-75367857D01*
X83319285Y-75510714D01*
X83462142Y-75582142D01*
X84747857Y-79203571D02*
X84747857Y-77703571D01*
X84390714Y-77703571D01*
X84176428Y-77775000D01*
X84033571Y-77917857D01*
X83962142Y-78060714D01*
X83890714Y-78346428D01*
X83890714Y-78560714D01*
X83962142Y-78846428D01*
X84033571Y-78989285D01*
X84176428Y-79132142D01*
X84390714Y-79203571D01*
X84747857Y-79203571D01*
X82747857Y-78417857D02*
X82533571Y-78489285D01*
X82462142Y-78560714D01*
X82390714Y-78703571D01*
X82390714Y-78917857D01*
X82462142Y-79060714D01*
X82533571Y-79132142D01*
X82676428Y-79203571D01*
X83247857Y-79203571D01*
X83247857Y-77703571D01*
X82747857Y-77703571D01*
X82605000Y-77775000D01*
X82533571Y-77846428D01*
X82462142Y-77989285D01*
X82462142Y-78132142D01*
X82533571Y-78275000D01*
X82605000Y-78346428D01*
X82747857Y-78417857D01*
X83247857Y-78417857D01*
X81462142Y-77703571D02*
X81319285Y-77703571D01*
X81176428Y-77775000D01*
X81105000Y-77846428D01*
X81033571Y-77989285D01*
X80962142Y-78275000D01*
X80962142Y-78632142D01*
X81033571Y-78917857D01*
X81105000Y-79060714D01*
X81176428Y-79132142D01*
X81319285Y-79203571D01*
X81462142Y-79203571D01*
X81605000Y-79132142D01*
X81676428Y-79060714D01*
X81747857Y-78917857D01*
X81819285Y-78632142D01*
X81819285Y-78275000D01*
X81747857Y-77989285D01*
X81676428Y-77846428D01*
X81605000Y-77775000D01*
X81462142Y-77703571D01*
X84747857Y-81753571D02*
X84747857Y-80253571D01*
X84390714Y-80253571D01*
X84176428Y-80325000D01*
X84033571Y-80467857D01*
X83962142Y-80610714D01*
X83890714Y-80896428D01*
X83890714Y-81110714D01*
X83962142Y-81396428D01*
X84033571Y-81539285D01*
X84176428Y-81682142D01*
X84390714Y-81753571D01*
X84747857Y-81753571D01*
X82747857Y-80967857D02*
X82533571Y-81039285D01*
X82462142Y-81110714D01*
X82390714Y-81253571D01*
X82390714Y-81467857D01*
X82462142Y-81610714D01*
X82533571Y-81682142D01*
X82676428Y-81753571D01*
X83247857Y-81753571D01*
X83247857Y-80253571D01*
X82747857Y-80253571D01*
X82605000Y-80325000D01*
X82533571Y-80396428D01*
X82462142Y-80539285D01*
X82462142Y-80682142D01*
X82533571Y-80825000D01*
X82605000Y-80896428D01*
X82747857Y-80967857D01*
X83247857Y-80967857D01*
X80962142Y-81753571D02*
X81819285Y-81753571D01*
X81390714Y-81753571D02*
X81390714Y-80253571D01*
X81533571Y-80467857D01*
X81676428Y-80610714D01*
X81819285Y-80682142D01*
X84747857Y-84303571D02*
X84747857Y-82803571D01*
X84390714Y-82803571D01*
X84176428Y-82875000D01*
X84033571Y-83017857D01*
X83962142Y-83160714D01*
X83890714Y-83446428D01*
X83890714Y-83660714D01*
X83962142Y-83946428D01*
X84033571Y-84089285D01*
X84176428Y-84232142D01*
X84390714Y-84303571D01*
X84747857Y-84303571D01*
X82747857Y-83517857D02*
X82533571Y-83589285D01*
X82462142Y-83660714D01*
X82390714Y-83803571D01*
X82390714Y-84017857D01*
X82462142Y-84160714D01*
X82533571Y-84232142D01*
X82676428Y-84303571D01*
X83247857Y-84303571D01*
X83247857Y-82803571D01*
X82747857Y-82803571D01*
X82605000Y-82875000D01*
X82533571Y-82946428D01*
X82462142Y-83089285D01*
X82462142Y-83232142D01*
X82533571Y-83375000D01*
X82605000Y-83446428D01*
X82747857Y-83517857D01*
X83247857Y-83517857D01*
X81819285Y-82946428D02*
X81747857Y-82875000D01*
X81605000Y-82803571D01*
X81247857Y-82803571D01*
X81105000Y-82875000D01*
X81033571Y-82946428D01*
X80962142Y-83089285D01*
X80962142Y-83232142D01*
X81033571Y-83446428D01*
X81890714Y-84303571D01*
X80962142Y-84303571D01*
X84747857Y-86853571D02*
X84747857Y-85353571D01*
X84390714Y-85353571D01*
X84176428Y-85425000D01*
X84033571Y-85567857D01*
X83962142Y-85710714D01*
X83890714Y-85996428D01*
X83890714Y-86210714D01*
X83962142Y-86496428D01*
X84033571Y-86639285D01*
X84176428Y-86782142D01*
X84390714Y-86853571D01*
X84747857Y-86853571D01*
X82747857Y-86067857D02*
X82533571Y-86139285D01*
X82462142Y-86210714D01*
X82390714Y-86353571D01*
X82390714Y-86567857D01*
X82462142Y-86710714D01*
X82533571Y-86782142D01*
X82676428Y-86853571D01*
X83247857Y-86853571D01*
X83247857Y-85353571D01*
X82747857Y-85353571D01*
X82605000Y-85425000D01*
X82533571Y-85496428D01*
X82462142Y-85639285D01*
X82462142Y-85782142D01*
X82533571Y-85925000D01*
X82605000Y-85996428D01*
X82747857Y-86067857D01*
X83247857Y-86067857D01*
X81890714Y-85353571D02*
X80962142Y-85353571D01*
X81462142Y-85925000D01*
X81247857Y-85925000D01*
X81105000Y-85996428D01*
X81033571Y-86067857D01*
X80962142Y-86210714D01*
X80962142Y-86567857D01*
X81033571Y-86710714D01*
X81105000Y-86782142D01*
X81247857Y-86853571D01*
X81676428Y-86853571D01*
X81819285Y-86782142D01*
X81890714Y-86710714D01*
X84747857Y-89403571D02*
X84747857Y-87903571D01*
X84390714Y-87903571D01*
X84176428Y-87975000D01*
X84033571Y-88117857D01*
X83962142Y-88260714D01*
X83890714Y-88546428D01*
X83890714Y-88760714D01*
X83962142Y-89046428D01*
X84033571Y-89189285D01*
X84176428Y-89332142D01*
X84390714Y-89403571D01*
X84747857Y-89403571D01*
X82747857Y-88617857D02*
X82533571Y-88689285D01*
X82462142Y-88760714D01*
X82390714Y-88903571D01*
X82390714Y-89117857D01*
X82462142Y-89260714D01*
X82533571Y-89332142D01*
X82676428Y-89403571D01*
X83247857Y-89403571D01*
X83247857Y-87903571D01*
X82747857Y-87903571D01*
X82605000Y-87975000D01*
X82533571Y-88046428D01*
X82462142Y-88189285D01*
X82462142Y-88332142D01*
X82533571Y-88475000D01*
X82605000Y-88546428D01*
X82747857Y-88617857D01*
X83247857Y-88617857D01*
X81105000Y-88403571D02*
X81105000Y-89403571D01*
X81462142Y-87832142D02*
X81819285Y-88903571D01*
X80890714Y-88903571D01*
X84747857Y-91953571D02*
X84747857Y-90453571D01*
X84390714Y-90453571D01*
X84176428Y-90525000D01*
X84033571Y-90667857D01*
X83962142Y-90810714D01*
X83890714Y-91096428D01*
X83890714Y-91310714D01*
X83962142Y-91596428D01*
X84033571Y-91739285D01*
X84176428Y-91882142D01*
X84390714Y-91953571D01*
X84747857Y-91953571D01*
X82747857Y-91167857D02*
X82533571Y-91239285D01*
X82462142Y-91310714D01*
X82390714Y-91453571D01*
X82390714Y-91667857D01*
X82462142Y-91810714D01*
X82533571Y-91882142D01*
X82676428Y-91953571D01*
X83247857Y-91953571D01*
X83247857Y-90453571D01*
X82747857Y-90453571D01*
X82605000Y-90525000D01*
X82533571Y-90596428D01*
X82462142Y-90739285D01*
X82462142Y-90882142D01*
X82533571Y-91025000D01*
X82605000Y-91096428D01*
X82747857Y-91167857D01*
X83247857Y-91167857D01*
X81033571Y-90453571D02*
X81747857Y-90453571D01*
X81819285Y-91167857D01*
X81747857Y-91096428D01*
X81605000Y-91025000D01*
X81247857Y-91025000D01*
X81105000Y-91096428D01*
X81033571Y-91167857D01*
X80962142Y-91310714D01*
X80962142Y-91667857D01*
X81033571Y-91810714D01*
X81105000Y-91882142D01*
X81247857Y-91953571D01*
X81605000Y-91953571D01*
X81747857Y-91882142D01*
X81819285Y-91810714D01*
X84747857Y-94503571D02*
X84747857Y-93003571D01*
X84390714Y-93003571D01*
X84176428Y-93075000D01*
X84033571Y-93217857D01*
X83962142Y-93360714D01*
X83890714Y-93646428D01*
X83890714Y-93860714D01*
X83962142Y-94146428D01*
X84033571Y-94289285D01*
X84176428Y-94432142D01*
X84390714Y-94503571D01*
X84747857Y-94503571D01*
X82747857Y-93717857D02*
X82533571Y-93789285D01*
X82462142Y-93860714D01*
X82390714Y-94003571D01*
X82390714Y-94217857D01*
X82462142Y-94360714D01*
X82533571Y-94432142D01*
X82676428Y-94503571D01*
X83247857Y-94503571D01*
X83247857Y-93003571D01*
X82747857Y-93003571D01*
X82605000Y-93075000D01*
X82533571Y-93146428D01*
X82462142Y-93289285D01*
X82462142Y-93432142D01*
X82533571Y-93575000D01*
X82605000Y-93646428D01*
X82747857Y-93717857D01*
X83247857Y-93717857D01*
X81105000Y-93003571D02*
X81390714Y-93003571D01*
X81533571Y-93075000D01*
X81605000Y-93146428D01*
X81747857Y-93360714D01*
X81819285Y-93646428D01*
X81819285Y-94217857D01*
X81747857Y-94360714D01*
X81676428Y-94432142D01*
X81533571Y-94503571D01*
X81247857Y-94503571D01*
X81105000Y-94432142D01*
X81033571Y-94360714D01*
X80962142Y-94217857D01*
X80962142Y-93860714D01*
X81033571Y-93717857D01*
X81105000Y-93646428D01*
X81247857Y-93575000D01*
X81533571Y-93575000D01*
X81676428Y-93646428D01*
X81747857Y-93717857D01*
X81819285Y-93860714D01*
X84747857Y-97053571D02*
X84747857Y-95553571D01*
X84390714Y-95553571D01*
X84176428Y-95625000D01*
X84033571Y-95767857D01*
X83962142Y-95910714D01*
X83890714Y-96196428D01*
X83890714Y-96410714D01*
X83962142Y-96696428D01*
X84033571Y-96839285D01*
X84176428Y-96982142D01*
X84390714Y-97053571D01*
X84747857Y-97053571D01*
X82747857Y-96267857D02*
X82533571Y-96339285D01*
X82462142Y-96410714D01*
X82390714Y-96553571D01*
X82390714Y-96767857D01*
X82462142Y-96910714D01*
X82533571Y-96982142D01*
X82676428Y-97053571D01*
X83247857Y-97053571D01*
X83247857Y-95553571D01*
X82747857Y-95553571D01*
X82605000Y-95625000D01*
X82533571Y-95696428D01*
X82462142Y-95839285D01*
X82462142Y-95982142D01*
X82533571Y-96125000D01*
X82605000Y-96196428D01*
X82747857Y-96267857D01*
X83247857Y-96267857D01*
X81890714Y-95553571D02*
X80890714Y-95553571D01*
X81533571Y-97053571D01*
X59192857Y-87378571D02*
X59192857Y-86878571D01*
X59978571Y-86878571D02*
X58478571Y-86878571D01*
X58478571Y-87592857D01*
X59978571Y-88164285D02*
X58978571Y-88164285D01*
X59264285Y-88164285D02*
X59121428Y-88235714D01*
X59050000Y-88307142D01*
X58978571Y-88450000D01*
X58978571Y-88592857D01*
X59978571Y-89307142D02*
X59907142Y-89164285D01*
X59835714Y-89092857D01*
X59692857Y-89021428D01*
X59264285Y-89021428D01*
X59121428Y-89092857D01*
X59050000Y-89164285D01*
X58978571Y-89307142D01*
X58978571Y-89521428D01*
X59050000Y-89664285D01*
X59121428Y-89735714D01*
X59264285Y-89807142D01*
X59692857Y-89807142D01*
X59835714Y-89735714D01*
X59907142Y-89664285D01*
X59978571Y-89521428D01*
X59978571Y-89307142D01*
X59978571Y-90450000D02*
X58978571Y-90450000D01*
X59121428Y-90450000D02*
X59050000Y-90521428D01*
X58978571Y-90664285D01*
X58978571Y-90878571D01*
X59050000Y-91021428D01*
X59192857Y-91092857D01*
X59978571Y-91092857D01*
X59192857Y-91092857D02*
X59050000Y-91164285D01*
X58978571Y-91307142D01*
X58978571Y-91521428D01*
X59050000Y-91664285D01*
X59192857Y-91735714D01*
X59978571Y-91735714D01*
X59550000Y-93521428D02*
X59550000Y-94235714D01*
X59978571Y-93378571D02*
X58478571Y-93878571D01*
X59978571Y-94378571D01*
X59978571Y-94878571D02*
X58978571Y-94878571D01*
X59121428Y-94878571D02*
X59050000Y-94950000D01*
X58978571Y-95092857D01*
X58978571Y-95307142D01*
X59050000Y-95450000D01*
X59192857Y-95521428D01*
X59978571Y-95521428D01*
X59192857Y-95521428D02*
X59050000Y-95592857D01*
X58978571Y-95735714D01*
X58978571Y-95950000D01*
X59050000Y-96092857D01*
X59192857Y-96164285D01*
X59978571Y-96164285D01*
X58978571Y-96878571D02*
X60478571Y-96878571D01*
X59050000Y-96878571D02*
X58978571Y-97021428D01*
X58978571Y-97307142D01*
X59050000Y-97450000D01*
X59121428Y-97521428D01*
X59264285Y-97592857D01*
X59692857Y-97592857D01*
X59835714Y-97521428D01*
X59907142Y-97450000D01*
X59978571Y-97307142D01*
X59978571Y-97021428D01*
X59907142Y-96878571D01*
D12*
X58323809Y-62253571D02*
X58657142Y-62253571D01*
X58657142Y-62777380D02*
X58657142Y-61777380D01*
X58180952Y-61777380D01*
X57800000Y-62777380D02*
X57800000Y-62110714D01*
X57800000Y-62301190D02*
X57752380Y-62205952D01*
X57704761Y-62158333D01*
X57609523Y-62110714D01*
X57514285Y-62110714D01*
X57038095Y-62777380D02*
X57133333Y-62729761D01*
X57180952Y-62682142D01*
X57228571Y-62586904D01*
X57228571Y-62301190D01*
X57180952Y-62205952D01*
X57133333Y-62158333D01*
X57038095Y-62110714D01*
X56895238Y-62110714D01*
X56800000Y-62158333D01*
X56752380Y-62205952D01*
X56704761Y-62301190D01*
X56704761Y-62586904D01*
X56752380Y-62682142D01*
X56800000Y-62729761D01*
X56895238Y-62777380D01*
X57038095Y-62777380D01*
X56276190Y-62777380D02*
X56276190Y-62110714D01*
X56276190Y-62205952D02*
X56228571Y-62158333D01*
X56133333Y-62110714D01*
X55990476Y-62110714D01*
X55895238Y-62158333D01*
X55847619Y-62253571D01*
X55847619Y-62777380D01*
X55847619Y-62253571D02*
X55800000Y-62158333D01*
X55704761Y-62110714D01*
X55561904Y-62110714D01*
X55466666Y-62158333D01*
X55419047Y-62253571D01*
X55419047Y-62777380D01*
X54228571Y-62491666D02*
X53752380Y-62491666D01*
X54323809Y-62777380D02*
X53990476Y-61777380D01*
X53657142Y-62777380D01*
X53180952Y-62777380D02*
X53276190Y-62729761D01*
X53323809Y-62634523D01*
X53323809Y-61777380D01*
X52419047Y-62729761D02*
X52514285Y-62777380D01*
X52704761Y-62777380D01*
X52800000Y-62729761D01*
X52847619Y-62634523D01*
X52847619Y-62253571D01*
X52800000Y-62158333D01*
X52704761Y-62110714D01*
X52514285Y-62110714D01*
X52419047Y-62158333D01*
X52371428Y-62253571D01*
X52371428Y-62348809D01*
X52847619Y-62444047D01*
X52038095Y-62777380D02*
X51514285Y-62110714D01*
X52038095Y-62110714D02*
X51514285Y-62777380D01*
X50704761Y-62777380D02*
X50704761Y-62253571D01*
X50752380Y-62158333D01*
X50847619Y-62110714D01*
X51038095Y-62110714D01*
X51133333Y-62158333D01*
X50704761Y-62729761D02*
X50800000Y-62777380D01*
X51038095Y-62777380D01*
X51133333Y-62729761D01*
X51180952Y-62634523D01*
X51180952Y-62539285D01*
X51133333Y-62444047D01*
X51038095Y-62396428D01*
X50800000Y-62396428D01*
X50704761Y-62348809D01*
X50228571Y-62110714D02*
X50228571Y-62777380D01*
X50228571Y-62205952D02*
X50180952Y-62158333D01*
X50085714Y-62110714D01*
X49942857Y-62110714D01*
X49847619Y-62158333D01*
X49800000Y-62253571D01*
X49800000Y-62777380D01*
X48895238Y-62777380D02*
X48895238Y-61777380D01*
X48895238Y-62729761D02*
X48990476Y-62777380D01*
X49180952Y-62777380D01*
X49276190Y-62729761D01*
X49323809Y-62682142D01*
X49371428Y-62586904D01*
X49371428Y-62301190D01*
X49323809Y-62205952D01*
X49276190Y-62158333D01*
X49180952Y-62110714D01*
X48990476Y-62110714D01*
X48895238Y-62158333D01*
X48419047Y-62777380D02*
X48419047Y-62110714D01*
X48419047Y-62301190D02*
X48371428Y-62205952D01*
X48323809Y-62158333D01*
X48228571Y-62110714D01*
X48133333Y-62110714D01*
X47800000Y-62777380D02*
X47800000Y-62110714D01*
X47800000Y-61777380D02*
X47847619Y-61825000D01*
X47800000Y-61872619D01*
X47752380Y-61825000D01*
X47800000Y-61777380D01*
X47800000Y-61872619D01*
X46942857Y-62729761D02*
X47038095Y-62777380D01*
X47228571Y-62777380D01*
X47323809Y-62729761D01*
X47371428Y-62634523D01*
X47371428Y-62253571D01*
X47323809Y-62158333D01*
X47228571Y-62110714D01*
X47038095Y-62110714D01*
X46942857Y-62158333D01*
X46895238Y-62253571D01*
X46895238Y-62348809D01*
X47371428Y-62444047D01*
X56347619Y-64432142D02*
X56395238Y-64479761D01*
X56538095Y-64527380D01*
X56633333Y-64527380D01*
X56776190Y-64479761D01*
X56871428Y-64384523D01*
X56919047Y-64289285D01*
X56966666Y-64098809D01*
X56966666Y-63955952D01*
X56919047Y-63765476D01*
X56871428Y-63670238D01*
X56776190Y-63575000D01*
X56633333Y-63527380D01*
X56538095Y-63527380D01*
X56395238Y-63575000D01*
X56347619Y-63622619D01*
X55776190Y-64527380D02*
X55871428Y-64479761D01*
X55919047Y-64432142D01*
X55966666Y-64336904D01*
X55966666Y-64051190D01*
X55919047Y-63955952D01*
X55871428Y-63908333D01*
X55776190Y-63860714D01*
X55633333Y-63860714D01*
X55538095Y-63908333D01*
X55490476Y-63955952D01*
X55442857Y-64051190D01*
X55442857Y-64336904D01*
X55490476Y-64432142D01*
X55538095Y-64479761D01*
X55633333Y-64527380D01*
X55776190Y-64527380D01*
X55014285Y-63860714D02*
X55014285Y-64527380D01*
X55014285Y-63955952D02*
X54966666Y-63908333D01*
X54871428Y-63860714D01*
X54728571Y-63860714D01*
X54633333Y-63908333D01*
X54585714Y-64003571D01*
X54585714Y-64527380D01*
X54252380Y-63860714D02*
X53871428Y-63860714D01*
X54109523Y-63527380D02*
X54109523Y-64384523D01*
X54061904Y-64479761D01*
X53966666Y-64527380D01*
X53871428Y-64527380D01*
X53538095Y-64527380D02*
X53538095Y-63860714D01*
X53538095Y-64051190D02*
X53490476Y-63955952D01*
X53442857Y-63908333D01*
X53347619Y-63860714D01*
X53252380Y-63860714D01*
X52776190Y-64527380D02*
X52871428Y-64479761D01*
X52919047Y-64432142D01*
X52966666Y-64336904D01*
X52966666Y-64051190D01*
X52919047Y-63955952D01*
X52871428Y-63908333D01*
X52776190Y-63860714D01*
X52633333Y-63860714D01*
X52538095Y-63908333D01*
X52490476Y-63955952D01*
X52442857Y-64051190D01*
X52442857Y-64336904D01*
X52490476Y-64432142D01*
X52538095Y-64479761D01*
X52633333Y-64527380D01*
X52776190Y-64527380D01*
X51871428Y-64527380D02*
X51966666Y-64479761D01*
X52014285Y-64384523D01*
X52014285Y-63527380D01*
X50395238Y-64003571D02*
X50252380Y-64051190D01*
X50204761Y-64098809D01*
X50157142Y-64194047D01*
X50157142Y-64336904D01*
X50204761Y-64432142D01*
X50252380Y-64479761D01*
X50347619Y-64527380D01*
X50728571Y-64527380D01*
X50728571Y-63527380D01*
X50395238Y-63527380D01*
X50300000Y-63575000D01*
X50252380Y-63622619D01*
X50204761Y-63717857D01*
X50204761Y-63813095D01*
X50252380Y-63908333D01*
X50300000Y-63955952D01*
X50395238Y-64003571D01*
X50728571Y-64003571D01*
X49728571Y-64527380D02*
X49728571Y-63860714D01*
X49728571Y-64051190D02*
X49680952Y-63955952D01*
X49633333Y-63908333D01*
X49538095Y-63860714D01*
X49442857Y-63860714D01*
X48680952Y-64527380D02*
X48680952Y-63527380D01*
X48680952Y-64479761D02*
X48776190Y-64527380D01*
X48966666Y-64527380D01*
X49061904Y-64479761D01*
X49109523Y-64432142D01*
X49157142Y-64336904D01*
X49157142Y-64051190D01*
X49109523Y-63955952D01*
X49061904Y-63908333D01*
X48966666Y-63860714D01*
X48776190Y-63860714D01*
X48680952Y-63908333D01*
D10*
X64137857Y-67003571D02*
X63280714Y-67003571D01*
X63709285Y-68503571D02*
X63709285Y-67003571D01*
X62923571Y-67003571D02*
X61923571Y-68503571D01*
X61923571Y-67003571D02*
X62923571Y-68503571D01*
X60280714Y-66932142D02*
X61566428Y-68860714D01*
X58923571Y-68503571D02*
X59423571Y-67789285D01*
X59780714Y-68503571D02*
X59780714Y-67003571D01*
X59209285Y-67003571D01*
X59066428Y-67075000D01*
X58995000Y-67146428D01*
X58923571Y-67289285D01*
X58923571Y-67503571D01*
X58995000Y-67646428D01*
X59066428Y-67717857D01*
X59209285Y-67789285D01*
X59780714Y-67789285D01*
X58423571Y-67003571D02*
X57423571Y-68503571D01*
X57423571Y-67003571D02*
X58423571Y-68503571D01*
X55780714Y-68432142D02*
X55566428Y-68503571D01*
X55209285Y-68503571D01*
X55066428Y-68432142D01*
X54995000Y-68360714D01*
X54923571Y-68217857D01*
X54923571Y-68075000D01*
X54995000Y-67932142D01*
X55066428Y-67860714D01*
X55209285Y-67789285D01*
X55495000Y-67717857D01*
X55637857Y-67646428D01*
X55709285Y-67575000D01*
X55780714Y-67432142D01*
X55780714Y-67289285D01*
X55709285Y-67146428D01*
X55637857Y-67075000D01*
X55495000Y-67003571D01*
X55137857Y-67003571D01*
X54923571Y-67075000D01*
X54495000Y-67503571D02*
X53923571Y-67503571D01*
X54280714Y-67003571D02*
X54280714Y-68289285D01*
X54209285Y-68432142D01*
X54066428Y-68503571D01*
X53923571Y-68503571D01*
X52780714Y-68503571D02*
X52780714Y-67717857D01*
X52852142Y-67575000D01*
X52995000Y-67503571D01*
X53280714Y-67503571D01*
X53423571Y-67575000D01*
X52780714Y-68432142D02*
X52923571Y-68503571D01*
X53280714Y-68503571D01*
X53423571Y-68432142D01*
X53495000Y-68289285D01*
X53495000Y-68146428D01*
X53423571Y-68003571D01*
X53280714Y-67932142D01*
X52923571Y-67932142D01*
X52780714Y-67860714D01*
X52280714Y-67503571D02*
X51709285Y-67503571D01*
X52066428Y-67003571D02*
X52066428Y-68289285D01*
X51995000Y-68432142D01*
X51852142Y-68503571D01*
X51709285Y-68503571D01*
X50566428Y-67503571D02*
X50566428Y-68503571D01*
X51209285Y-67503571D02*
X51209285Y-68289285D01*
X51137857Y-68432142D01*
X50995000Y-68503571D01*
X50780714Y-68503571D01*
X50637857Y-68432142D01*
X50566428Y-68360714D01*
X49923571Y-68432142D02*
X49780714Y-68503571D01*
X49495000Y-68503571D01*
X49352142Y-68432142D01*
X49280714Y-68289285D01*
X49280714Y-68217857D01*
X49352142Y-68075000D01*
X49495000Y-68003571D01*
X49709285Y-68003571D01*
X49852142Y-67932142D01*
X49923571Y-67789285D01*
X49923571Y-67717857D01*
X49852142Y-67575000D01*
X49709285Y-67503571D01*
X49495000Y-67503571D01*
X49352142Y-67575000D01*
X58923571Y-69553571D02*
X58066428Y-69553571D01*
X58495000Y-71053571D02*
X58495000Y-69553571D01*
X57709285Y-69553571D02*
X56709285Y-71053571D01*
X56709285Y-69553571D02*
X57709285Y-71053571D01*
X55280714Y-71053571D02*
X55780714Y-70339285D01*
X56137857Y-71053571D02*
X56137857Y-69553571D01*
X55566428Y-69553571D01*
X55423571Y-69625000D01*
X55352142Y-69696428D01*
X55280714Y-69839285D01*
X55280714Y-70053571D01*
X55352142Y-70196428D01*
X55423571Y-70267857D01*
X55566428Y-70339285D01*
X56137857Y-70339285D01*
X54780714Y-69553571D02*
X53780714Y-71053571D01*
X53780714Y-69553571D02*
X54780714Y-71053571D01*
X53566428Y-71196428D02*
X52423571Y-71196428D01*
X51209285Y-71053571D02*
X51709285Y-70339285D01*
X52066428Y-71053571D02*
X52066428Y-69553571D01*
X51495000Y-69553571D01*
X51352142Y-69625000D01*
X51280714Y-69696428D01*
X51209285Y-69839285D01*
X51209285Y-70053571D01*
X51280714Y-70196428D01*
X51352142Y-70267857D01*
X51495000Y-70339285D01*
X52066428Y-70339285D01*
X50352142Y-71053571D02*
X50495000Y-70982142D01*
X50566428Y-70839285D01*
X50566428Y-69553571D01*
X49923571Y-70053571D02*
X49566428Y-71053571D01*
X49209285Y-70053571D02*
X49566428Y-71053571D01*
X49709285Y-71410714D01*
X49780714Y-71482142D01*
X49923571Y-71553571D01*
X54637857Y-73032142D02*
X53495000Y-73032142D01*
X54066428Y-73603571D02*
X54066428Y-72460714D01*
X51995000Y-73603571D02*
X52852142Y-73603571D01*
X52423571Y-73603571D02*
X52423571Y-72103571D01*
X52566428Y-72317857D01*
X52709285Y-72460714D01*
X52852142Y-72532142D01*
X51423571Y-72246428D02*
X51352142Y-72175000D01*
X51209285Y-72103571D01*
X50852142Y-72103571D01*
X50709285Y-72175000D01*
X50637857Y-72246428D01*
X50566428Y-72389285D01*
X50566428Y-72532142D01*
X50637857Y-72746428D01*
X51495000Y-73603571D01*
X50566428Y-73603571D01*
X50137857Y-72103571D02*
X49637857Y-73603571D01*
X49137857Y-72103571D01*
X52066428Y-74725000D02*
X52209285Y-74653571D01*
X52423571Y-74653571D01*
X52637857Y-74725000D01*
X52780714Y-74867857D01*
X52852142Y-75010714D01*
X52923571Y-75296428D01*
X52923571Y-75510714D01*
X52852142Y-75796428D01*
X52780714Y-75939285D01*
X52637857Y-76082142D01*
X52423571Y-76153571D01*
X52280714Y-76153571D01*
X52066428Y-76082142D01*
X51995000Y-76010714D01*
X51995000Y-75510714D01*
X52280714Y-75510714D01*
X51352142Y-75153571D02*
X51352142Y-76153571D01*
X51352142Y-75296428D02*
X51280714Y-75225000D01*
X51137857Y-75153571D01*
X50923571Y-75153571D01*
X50780714Y-75225000D01*
X50709285Y-75367857D01*
X50709285Y-76153571D01*
X49352142Y-76153571D02*
X49352142Y-74653571D01*
X49352142Y-76082142D02*
X49495000Y-76153571D01*
X49780714Y-76153571D01*
X49923571Y-76082142D01*
X49995000Y-76010714D01*
X50066428Y-75867857D01*
X50066428Y-75439285D01*
X49995000Y-75296428D01*
X49923571Y-75225000D01*
X49780714Y-75153571D01*
X49495000Y-75153571D01*
X49352142Y-75225000D01*
X53137857Y-78703571D02*
X53637857Y-77989285D01*
X53995000Y-78703571D02*
X53995000Y-77203571D01*
X53423571Y-77203571D01*
X53280714Y-77275000D01*
X53209285Y-77346428D01*
X53137857Y-77489285D01*
X53137857Y-77703571D01*
X53209285Y-77846428D01*
X53280714Y-77917857D01*
X53423571Y-77989285D01*
X53995000Y-77989285D01*
X52495000Y-77917857D02*
X51995000Y-77917857D01*
X51780714Y-78703571D02*
X52495000Y-78703571D01*
X52495000Y-77203571D01*
X51780714Y-77203571D01*
X50637857Y-77917857D02*
X51137857Y-77917857D01*
X51137857Y-78703571D02*
X51137857Y-77203571D01*
X50423571Y-77203571D01*
X49137857Y-78703571D02*
X49852142Y-78703571D01*
X49852142Y-77203571D01*
X52637857Y-80467857D02*
X53137857Y-80467857D01*
X53137857Y-81253571D02*
X53137857Y-79753571D01*
X52423571Y-79753571D01*
X51995000Y-79753571D02*
X51637857Y-81253571D01*
X51352142Y-80182142D01*
X51066428Y-81253571D01*
X50709285Y-79753571D01*
X50137857Y-81253571D02*
X50137857Y-79753571D01*
X49780714Y-79753571D01*
X49566428Y-79825000D01*
X49423571Y-79967857D01*
X49352142Y-80110714D01*
X49280714Y-80396428D01*
X49280714Y-80610714D01*
X49352142Y-80896428D01*
X49423571Y-81039285D01*
X49566428Y-81182142D01*
X49780714Y-81253571D01*
X50137857Y-81253571D01*
X51666428Y-84175000D02*
X51809285Y-84103571D01*
X52023571Y-84103571D01*
X52237857Y-84175000D01*
X52380714Y-84317857D01*
X52452142Y-84460714D01*
X52523571Y-84746428D01*
X52523571Y-84960714D01*
X52452142Y-85246428D01*
X52380714Y-85389285D01*
X52237857Y-85532142D01*
X52023571Y-85603571D01*
X51880714Y-85603571D01*
X51666428Y-85532142D01*
X51595000Y-85460714D01*
X51595000Y-84960714D01*
X51880714Y-84960714D01*
X50952142Y-84603571D02*
X50952142Y-85603571D01*
X50952142Y-84746428D02*
X50880714Y-84675000D01*
X50737857Y-84603571D01*
X50523571Y-84603571D01*
X50380714Y-84675000D01*
X50309285Y-84817857D01*
X50309285Y-85603571D01*
X48952142Y-85603571D02*
X48952142Y-84103571D01*
X48952142Y-85532142D02*
X49095000Y-85603571D01*
X49380714Y-85603571D01*
X49523571Y-85532142D01*
X49595000Y-85460714D01*
X49666428Y-85317857D01*
X49666428Y-84889285D01*
X49595000Y-84746428D01*
X49523571Y-84675000D01*
X49380714Y-84603571D01*
X49095000Y-84603571D01*
X48952142Y-84675000D01*
X53737857Y-88010714D02*
X53809285Y-88082142D01*
X54023571Y-88153571D01*
X54166428Y-88153571D01*
X54380714Y-88082142D01*
X54523571Y-87939285D01*
X54595000Y-87796428D01*
X54666428Y-87510714D01*
X54666428Y-87296428D01*
X54595000Y-87010714D01*
X54523571Y-86867857D01*
X54380714Y-86725000D01*
X54166428Y-86653571D01*
X54023571Y-86653571D01*
X53809285Y-86725000D01*
X53737857Y-86796428D01*
X52880714Y-86653571D02*
X53023571Y-86725000D01*
X53095000Y-86867857D01*
X53023571Y-87010714D01*
X52880714Y-87082142D01*
X52737857Y-87010714D01*
X52666428Y-86867857D01*
X52737857Y-86725000D01*
X52880714Y-86653571D01*
X51952142Y-87582142D02*
X50809285Y-87582142D01*
X50095000Y-87153571D02*
X48952142Y-87582142D01*
X50095000Y-88010714D01*
X51666428Y-89275000D02*
X51809285Y-89203571D01*
X52023571Y-89203571D01*
X52237857Y-89275000D01*
X52380714Y-89417857D01*
X52452142Y-89560714D01*
X52523571Y-89846428D01*
X52523571Y-90060714D01*
X52452142Y-90346428D01*
X52380714Y-90489285D01*
X52237857Y-90632142D01*
X52023571Y-90703571D01*
X51880714Y-90703571D01*
X51666428Y-90632142D01*
X51595000Y-90560714D01*
X51595000Y-90060714D01*
X51880714Y-90060714D01*
X50952142Y-89703571D02*
X50952142Y-90703571D01*
X50952142Y-89846428D02*
X50880714Y-89775000D01*
X50737857Y-89703571D01*
X50523571Y-89703571D01*
X50380714Y-89775000D01*
X50309285Y-89917857D01*
X50309285Y-90703571D01*
X48952142Y-90703571D02*
X48952142Y-89203571D01*
X48952142Y-90632142D02*
X49095000Y-90703571D01*
X49380714Y-90703571D01*
X49523571Y-90632142D01*
X49595000Y-90560714D01*
X49666428Y-90417857D01*
X49666428Y-89989285D01*
X49595000Y-89846428D01*
X49523571Y-89775000D01*
X49380714Y-89703571D01*
X49095000Y-89703571D01*
X48952142Y-89775000D01*
X54666428Y-91753571D02*
X54666428Y-92967857D01*
X54595000Y-93110714D01*
X54523571Y-93182142D01*
X54380714Y-93253571D01*
X54095000Y-93253571D01*
X53952142Y-93182142D01*
X53880714Y-93110714D01*
X53809285Y-92967857D01*
X53809285Y-91753571D01*
X51952142Y-92682142D02*
X50809285Y-92682142D01*
X50095000Y-92253571D02*
X48952142Y-92682142D01*
X50095000Y-93110714D01*
X53809285Y-95803571D02*
X53809285Y-94303571D01*
X51952142Y-95232142D02*
X50809285Y-95232142D01*
X50095000Y-94803571D02*
X48952142Y-95232142D01*
X50095000Y-95660714D01*
X51666428Y-96925000D02*
X51809285Y-96853571D01*
X52023571Y-96853571D01*
X52237857Y-96925000D01*
X52380714Y-97067857D01*
X52452142Y-97210714D01*
X52523571Y-97496428D01*
X52523571Y-97710714D01*
X52452142Y-97996428D01*
X52380714Y-98139285D01*
X52237857Y-98282142D01*
X52023571Y-98353571D01*
X51880714Y-98353571D01*
X51666428Y-98282142D01*
X51595000Y-98210714D01*
X51595000Y-97710714D01*
X51880714Y-97710714D01*
X50952142Y-97353571D02*
X50952142Y-98353571D01*
X50952142Y-97496428D02*
X50880714Y-97425000D01*
X50737857Y-97353571D01*
X50523571Y-97353571D01*
X50380714Y-97425000D01*
X50309285Y-97567857D01*
X50309285Y-98353571D01*
X48952142Y-98353571D02*
X48952142Y-96853571D01*
X48952142Y-98282142D02*
X49095000Y-98353571D01*
X49380714Y-98353571D01*
X49523571Y-98282142D01*
X49595000Y-98210714D01*
X49666428Y-98067857D01*
X49666428Y-97639285D01*
X49595000Y-97496428D01*
X49523571Y-97425000D01*
X49380714Y-97353571D01*
X49095000Y-97353571D01*
X48952142Y-97425000D01*
X62380714Y-100903571D02*
X62380714Y-99403571D01*
X61809285Y-99403571D01*
X61666428Y-99475000D01*
X61595000Y-99546428D01*
X61523571Y-99689285D01*
X61523571Y-99903571D01*
X61595000Y-100046428D01*
X61666428Y-100117857D01*
X61809285Y-100189285D01*
X62380714Y-100189285D01*
X61095000Y-99403571D02*
X60237857Y-99403571D01*
X60666428Y-100903571D02*
X60666428Y-99403571D01*
X59952142Y-99403571D02*
X59095000Y-99403571D01*
X59523571Y-100903571D02*
X59523571Y-99403571D01*
X57523571Y-99332142D02*
X58809285Y-101260714D01*
X51666428Y-99475000D02*
X51809285Y-99403571D01*
X52023571Y-99403571D01*
X52237857Y-99475000D01*
X52380714Y-99617857D01*
X52452142Y-99760714D01*
X52523571Y-100046428D01*
X52523571Y-100260714D01*
X52452142Y-100546428D01*
X52380714Y-100689285D01*
X52237857Y-100832142D01*
X52023571Y-100903571D01*
X51880714Y-100903571D01*
X51666428Y-100832142D01*
X51595000Y-100760714D01*
X51595000Y-100260714D01*
X51880714Y-100260714D01*
X50952142Y-99903571D02*
X50952142Y-100903571D01*
X50952142Y-100046428D02*
X50880714Y-99975000D01*
X50737857Y-99903571D01*
X50523571Y-99903571D01*
X50380714Y-99975000D01*
X50309285Y-100117857D01*
X50309285Y-100903571D01*
X48952142Y-100903571D02*
X48952142Y-99403571D01*
X48952142Y-100832142D02*
X49095000Y-100903571D01*
X49380714Y-100903571D01*
X49523571Y-100832142D01*
X49595000Y-100760714D01*
X49666428Y-100617857D01*
X49666428Y-100189285D01*
X49595000Y-100046428D01*
X49523571Y-99975000D01*
X49380714Y-99903571D01*
X49095000Y-99903571D01*
X48952142Y-99975000D01*
X61880714Y-102667857D02*
X61666428Y-102739285D01*
X61595000Y-102810714D01*
X61523571Y-102953571D01*
X61523571Y-103167857D01*
X61595000Y-103310714D01*
X61666428Y-103382142D01*
X61809285Y-103453571D01*
X62380714Y-103453571D01*
X62380714Y-101953571D01*
X61880714Y-101953571D01*
X61737857Y-102025000D01*
X61666428Y-102096428D01*
X61595000Y-102239285D01*
X61595000Y-102382142D01*
X61666428Y-102525000D01*
X61737857Y-102596428D01*
X61880714Y-102667857D01*
X62380714Y-102667857D01*
X60880714Y-103453571D02*
X60880714Y-102453571D01*
X60880714Y-101953571D02*
X60952142Y-102025000D01*
X60880714Y-102096428D01*
X60809285Y-102025000D01*
X60880714Y-101953571D01*
X60880714Y-102096428D01*
X59523571Y-103453571D02*
X59523571Y-102667857D01*
X59595000Y-102525000D01*
X59737857Y-102453571D01*
X60023571Y-102453571D01*
X60166428Y-102525000D01*
X59523571Y-103382142D02*
X59666428Y-103453571D01*
X60023571Y-103453571D01*
X60166428Y-103382142D01*
X60237857Y-103239285D01*
X60237857Y-103096428D01*
X60166428Y-102953571D01*
X60023571Y-102882142D01*
X59666428Y-102882142D01*
X59523571Y-102810714D01*
X58880714Y-103382142D02*
X58737857Y-103453571D01*
X58452142Y-103453571D01*
X58309285Y-103382142D01*
X58237857Y-103239285D01*
X58237857Y-103167857D01*
X58309285Y-103025000D01*
X58452142Y-102953571D01*
X58666428Y-102953571D01*
X58809285Y-102882142D01*
X58880714Y-102739285D01*
X58880714Y-102667857D01*
X58809285Y-102525000D01*
X58666428Y-102453571D01*
X58452142Y-102453571D01*
X58309285Y-102525000D01*
X56452142Y-103453571D02*
X56452142Y-101953571D01*
X56095000Y-101953571D01*
X55880714Y-102025000D01*
X55737857Y-102167857D01*
X55666428Y-102310714D01*
X55595000Y-102596428D01*
X55595000Y-102810714D01*
X55666428Y-103096428D01*
X55737857Y-103239285D01*
X55880714Y-103382142D01*
X56095000Y-103453571D01*
X56452142Y-103453571D01*
X54952142Y-103453571D02*
X54952142Y-102453571D01*
X54952142Y-101953571D02*
X55023571Y-102025000D01*
X54952142Y-102096428D01*
X54880714Y-102025000D01*
X54952142Y-101953571D01*
X54952142Y-102096428D01*
X54309285Y-103382142D02*
X54166428Y-103453571D01*
X53880714Y-103453571D01*
X53737857Y-103382142D01*
X53666428Y-103239285D01*
X53666428Y-103167857D01*
X53737857Y-103025000D01*
X53880714Y-102953571D01*
X54095000Y-102953571D01*
X54237857Y-102882142D01*
X54309285Y-102739285D01*
X54309285Y-102667857D01*
X54237857Y-102525000D01*
X54095000Y-102453571D01*
X53880714Y-102453571D01*
X53737857Y-102525000D01*
X52380714Y-103453571D02*
X52380714Y-102667857D01*
X52452142Y-102525000D01*
X52595000Y-102453571D01*
X52880714Y-102453571D01*
X53023571Y-102525000D01*
X52380714Y-103382142D02*
X52523571Y-103453571D01*
X52880714Y-103453571D01*
X53023571Y-103382142D01*
X53095000Y-103239285D01*
X53095000Y-103096428D01*
X53023571Y-102953571D01*
X52880714Y-102882142D01*
X52523571Y-102882142D01*
X52380714Y-102810714D01*
X51666428Y-103453571D02*
X51666428Y-101953571D01*
X51666428Y-102525000D02*
X51523571Y-102453571D01*
X51237857Y-102453571D01*
X51095000Y-102525000D01*
X51023571Y-102596428D01*
X50952142Y-102739285D01*
X50952142Y-103167857D01*
X51023571Y-103310714D01*
X51095000Y-103382142D01*
X51237857Y-103453571D01*
X51523571Y-103453571D01*
X51666428Y-103382142D01*
X50095000Y-103453571D02*
X50237857Y-103382142D01*
X50309285Y-103239285D01*
X50309285Y-101953571D01*
X48952142Y-103382142D02*
X49095000Y-103453571D01*
X49380714Y-103453571D01*
X49523571Y-103382142D01*
X49595000Y-103239285D01*
X49595000Y-102667857D01*
X49523571Y-102525000D01*
X49380714Y-102453571D01*
X49095000Y-102453571D01*
X48952142Y-102525000D01*
X48880714Y-102667857D01*
X48880714Y-102810714D01*
X49595000Y-102953571D01*
X51666428Y-104575000D02*
X51809285Y-104503571D01*
X52023571Y-104503571D01*
X52237857Y-104575000D01*
X52380714Y-104717857D01*
X52452142Y-104860714D01*
X52523571Y-105146428D01*
X52523571Y-105360714D01*
X52452142Y-105646428D01*
X52380714Y-105789285D01*
X52237857Y-105932142D01*
X52023571Y-106003571D01*
X51880714Y-106003571D01*
X51666428Y-105932142D01*
X51595000Y-105860714D01*
X51595000Y-105360714D01*
X51880714Y-105360714D01*
X50952142Y-105003571D02*
X50952142Y-106003571D01*
X50952142Y-105146428D02*
X50880714Y-105075000D01*
X50737857Y-105003571D01*
X50523571Y-105003571D01*
X50380714Y-105075000D01*
X50309285Y-105217857D01*
X50309285Y-106003571D01*
X48952142Y-106003571D02*
X48952142Y-104503571D01*
X48952142Y-105932142D02*
X49095000Y-106003571D01*
X49380714Y-106003571D01*
X49523571Y-105932142D01*
X49595000Y-105860714D01*
X49666428Y-105717857D01*
X49666428Y-105289285D01*
X49595000Y-105146428D01*
X49523571Y-105075000D01*
X49380714Y-105003571D01*
X49095000Y-105003571D01*
X48952142Y-105075000D01*
X59952142Y-107982142D02*
X58809285Y-107982142D01*
X59380714Y-108553571D02*
X59380714Y-107410714D01*
X57309285Y-108553571D02*
X58166428Y-108553571D01*
X57737857Y-108553571D02*
X57737857Y-107053571D01*
X57880714Y-107267857D01*
X58023571Y-107410714D01*
X58166428Y-107482142D01*
X56737857Y-107196428D02*
X56666428Y-107125000D01*
X56523571Y-107053571D01*
X56166428Y-107053571D01*
X56023571Y-107125000D01*
X55952142Y-107196428D01*
X55880714Y-107339285D01*
X55880714Y-107482142D01*
X55952142Y-107696428D01*
X56809285Y-108553571D01*
X55880714Y-108553571D01*
X55452142Y-107053571D02*
X54952142Y-108553571D01*
X54452142Y-107053571D01*
X52266428Y-111375000D02*
X52409285Y-111303571D01*
X52623571Y-111303571D01*
X52837857Y-111375000D01*
X52980714Y-111517857D01*
X53052142Y-111660714D01*
X53123571Y-111946428D01*
X53123571Y-112160714D01*
X53052142Y-112446428D01*
X52980714Y-112589285D01*
X52837857Y-112732142D01*
X52623571Y-112803571D01*
X52480714Y-112803571D01*
X52266428Y-112732142D01*
X52195000Y-112660714D01*
X52195000Y-112160714D01*
X52480714Y-112160714D01*
X51552142Y-111803571D02*
X51552142Y-112803571D01*
X51552142Y-111946428D02*
X51480714Y-111875000D01*
X51337857Y-111803571D01*
X51123571Y-111803571D01*
X50980714Y-111875000D01*
X50909285Y-112017857D01*
X50909285Y-112803571D01*
X49552142Y-112803571D02*
X49552142Y-111303571D01*
X49552142Y-112732142D02*
X49695000Y-112803571D01*
X49980714Y-112803571D01*
X50123571Y-112732142D01*
X50195000Y-112660714D01*
X50266428Y-112517857D01*
X50266428Y-112089285D01*
X50195000Y-111946428D01*
X50123571Y-111875000D01*
X49980714Y-111803571D01*
X49695000Y-111803571D01*
X49552142Y-111875000D01*
X58052142Y-114782142D02*
X56909285Y-114782142D01*
X57480714Y-115353571D02*
X57480714Y-114210714D01*
X55409285Y-115353571D02*
X56266428Y-115353571D01*
X55837857Y-115353571D02*
X55837857Y-113853571D01*
X55980714Y-114067857D01*
X56123571Y-114210714D01*
X56266428Y-114282142D01*
X54837857Y-113996428D02*
X54766428Y-113925000D01*
X54623571Y-113853571D01*
X54266428Y-113853571D01*
X54123571Y-113925000D01*
X54052142Y-113996428D01*
X53980714Y-114139285D01*
X53980714Y-114282142D01*
X54052142Y-114496428D01*
X54909285Y-115353571D01*
X53980714Y-115353571D01*
X53552142Y-113853571D02*
X53052142Y-115353571D01*
X52552142Y-113853571D01*
X50909285Y-115353571D02*
X50909285Y-114353571D01*
X50909285Y-113853571D02*
X50980714Y-113925000D01*
X50909285Y-113996428D01*
X50837857Y-113925000D01*
X50909285Y-113853571D01*
X50909285Y-113996428D01*
X50195000Y-114353571D02*
X50195000Y-115353571D01*
X50195000Y-114496428D02*
X50123571Y-114425000D01*
X49980714Y-114353571D01*
X49766428Y-114353571D01*
X49623571Y-114425000D01*
X49552142Y-114567857D01*
X49552142Y-115353571D01*
D11*
X42000000Y-126000000D02*
X92000000Y-126000000D01*
D13*
X51138748Y-108310000D02*
X51661252Y-108310000D01*
X51138748Y-106890000D02*
X51661252Y-106890000D01*
X68590000Y-93438748D02*
X68590000Y-93961252D01*
X70010000Y-93438748D02*
X70010000Y-93961252D01*
X68350000Y-102630000D02*
X68350000Y-101130000D01*
X68350000Y-101130000D02*
X68620000Y-101130000D01*
X68620000Y-101130000D02*
X68620000Y-98300000D01*
X75250000Y-102630000D02*
X75250000Y-101130000D01*
X75250000Y-101130000D02*
X74980000Y-101130000D01*
X74980000Y-101130000D02*
X74980000Y-100030000D01*
D11*
X51566666Y-109607142D02*
X51614285Y-109654761D01*
X51757142Y-109702380D01*
X51852380Y-109702380D01*
X51995238Y-109654761D01*
X52090476Y-109559523D01*
X52138095Y-109464285D01*
X52185714Y-109273809D01*
X52185714Y-109130952D01*
X52138095Y-108940476D01*
X52090476Y-108845238D01*
X51995238Y-108750000D01*
X51852380Y-108702380D01*
X51757142Y-108702380D01*
X51614285Y-108750000D01*
X51566666Y-108797619D01*
X50614285Y-109702380D02*
X51185714Y-109702380D01*
X50900000Y-109702380D02*
X50900000Y-108702380D01*
X50995238Y-108845238D01*
X51090476Y-108940476D01*
X51185714Y-108988095D01*
X68102380Y-93533333D02*
X67626190Y-93200000D01*
X68102380Y-92961904D02*
X67102380Y-92961904D01*
X67102380Y-93342857D01*
X67150000Y-93438095D01*
X67197619Y-93485714D01*
X67292857Y-93533333D01*
X67435714Y-93533333D01*
X67530952Y-93485714D01*
X67578571Y-93438095D01*
X67626190Y-93342857D01*
X67626190Y-92961904D01*
X67102380Y-94390476D02*
X67102380Y-94200000D01*
X67150000Y-94104761D01*
X67197619Y-94057142D01*
X67340476Y-93961904D01*
X67530952Y-93914285D01*
X67911904Y-93914285D01*
X68007142Y-93961904D01*
X68054761Y-94009523D01*
X68102380Y-94104761D01*
X68102380Y-94295238D01*
X68054761Y-94390476D01*
X68007142Y-94438095D01*
X67911904Y-94485714D01*
X67673809Y-94485714D01*
X67578571Y-94438095D01*
X67530952Y-94390476D01*
X67483333Y-94295238D01*
X67483333Y-94104761D01*
X67530952Y-94009523D01*
X67578571Y-93961904D01*
X67673809Y-93914285D01*
X67847619Y-103504761D02*
X67800000Y-103409523D01*
X67704761Y-103314285D01*
X67561904Y-103171428D01*
X67514285Y-103076190D01*
X67514285Y-102980952D01*
X67752380Y-103028571D02*
X67704761Y-102933333D01*
X67609523Y-102838095D01*
X67419047Y-102790476D01*
X67085714Y-102790476D01*
X66895238Y-102838095D01*
X66800000Y-102933333D01*
X66752380Y-103028571D01*
X66752380Y-103219047D01*
X66800000Y-103314285D01*
X66895238Y-103409523D01*
X67085714Y-103457142D01*
X67419047Y-103457142D01*
X67609523Y-103409523D01*
X67704761Y-103314285D01*
X67752380Y-103219047D01*
X67752380Y-103028571D01*
X66752380Y-103790476D02*
X66752380Y-104409523D01*
X67133333Y-104076190D01*
X67133333Y-104219047D01*
X67180952Y-104314285D01*
X67228571Y-104361904D01*
X67323809Y-104409523D01*
X67561904Y-104409523D01*
X67657142Y-104361904D01*
X67704761Y-104314285D01*
X67752380Y-104219047D01*
X67752380Y-103933333D01*
X67704761Y-103838095D01*
X67657142Y-103790476D01*
M02*
