G04 #@! TF.GenerationSoftware,KiCad,Pcbnew,(5.1.5)-3*
G04 #@! TF.CreationDate,2020-05-10T11:41:13+02:00*
G04 #@! TF.ProjectId,Mentor,4d656e74-6f72-42e6-9b69-6361645f7063,rev?*
G04 #@! TF.SameCoordinates,Original*
G04 #@! TF.FileFunction,Legend,Top*
G04 #@! TF.FilePolarity,Positive*
%FSLAX46Y46*%
G04 Gerber Fmt 4.6, Leading zero omitted, Abs format (unit mm)*
G04 Created by KiCad (PCBNEW (5.1.5)-3) date 2020-05-10 11:41:13*
%MOMM*%
%LPD*%
G04 APERTURE LIST*
%ADD10C,0.150000*%
%ADD11C,0.300000*%
%ADD12C,0.120000*%
%ADD13C,0.254000*%
%ADD14C,0.050000*%
%ADD15C,0.381000*%
%ADD16C,0.304800*%
%ADD17C,0.125000*%
G04 APERTURE END LIST*
D10*
X50609523Y-110985714D02*
X50609523Y-111795238D01*
X50561904Y-111890476D01*
X50514285Y-111938095D01*
X50419047Y-111985714D01*
X50276190Y-111985714D01*
X50180952Y-111938095D01*
X50609523Y-111604761D02*
X50514285Y-111652380D01*
X50323809Y-111652380D01*
X50228571Y-111604761D01*
X50180952Y-111557142D01*
X50133333Y-111461904D01*
X50133333Y-111176190D01*
X50180952Y-111080952D01*
X50228571Y-111033333D01*
X50323809Y-110985714D01*
X50514285Y-110985714D01*
X50609523Y-111033333D01*
X51085714Y-110985714D02*
X51085714Y-111652380D01*
X51085714Y-111080952D02*
X51133333Y-111033333D01*
X51228571Y-110985714D01*
X51371428Y-110985714D01*
X51466666Y-111033333D01*
X51514285Y-111128571D01*
X51514285Y-111652380D01*
X52419047Y-111652380D02*
X52419047Y-110652380D01*
X52419047Y-111604761D02*
X52323809Y-111652380D01*
X52133333Y-111652380D01*
X52038095Y-111604761D01*
X51990476Y-111557142D01*
X51942857Y-111461904D01*
X51942857Y-111176190D01*
X51990476Y-111080952D01*
X52038095Y-111033333D01*
X52133333Y-110985714D01*
X52323809Y-110985714D01*
X52419047Y-111033333D01*
X50038095Y-116271428D02*
X50800000Y-116271428D01*
X50419047Y-116652380D02*
X50419047Y-115890476D01*
X51800000Y-116652380D02*
X51228571Y-116652380D01*
X51514285Y-116652380D02*
X51514285Y-115652380D01*
X51419047Y-115795238D01*
X51323809Y-115890476D01*
X51228571Y-115938095D01*
X52180952Y-115747619D02*
X52228571Y-115700000D01*
X52323809Y-115652380D01*
X52561904Y-115652380D01*
X52657142Y-115700000D01*
X52704761Y-115747619D01*
X52752380Y-115842857D01*
X52752380Y-115938095D01*
X52704761Y-116080952D01*
X52133333Y-116652380D01*
X52752380Y-116652380D01*
X53038095Y-115652380D02*
X53371428Y-116652380D01*
X53704761Y-115652380D01*
X92000000Y-26000000D02*
X92000000Y-126000000D01*
D11*
X51802142Y-30128571D02*
X51802142Y-28628571D01*
X52302142Y-29700000D01*
X52802142Y-28628571D01*
X52802142Y-30128571D01*
X54087857Y-30057142D02*
X53945000Y-30128571D01*
X53659285Y-30128571D01*
X53516428Y-30057142D01*
X53445000Y-29914285D01*
X53445000Y-29342857D01*
X53516428Y-29200000D01*
X53659285Y-29128571D01*
X53945000Y-29128571D01*
X54087857Y-29200000D01*
X54159285Y-29342857D01*
X54159285Y-29485714D01*
X53445000Y-29628571D01*
X54802142Y-29128571D02*
X54802142Y-30128571D01*
X54802142Y-29271428D02*
X54873571Y-29200000D01*
X55016428Y-29128571D01*
X55230714Y-29128571D01*
X55373571Y-29200000D01*
X55445000Y-29342857D01*
X55445000Y-30128571D01*
X55945000Y-29128571D02*
X56516428Y-29128571D01*
X56159285Y-28628571D02*
X56159285Y-29914285D01*
X56230714Y-30057142D01*
X56373571Y-30128571D01*
X56516428Y-30128571D01*
X57230714Y-30128571D02*
X57087857Y-30057142D01*
X57016428Y-29985714D01*
X56945000Y-29842857D01*
X56945000Y-29414285D01*
X57016428Y-29271428D01*
X57087857Y-29200000D01*
X57230714Y-29128571D01*
X57445000Y-29128571D01*
X57587857Y-29200000D01*
X57659285Y-29271428D01*
X57730714Y-29414285D01*
X57730714Y-29842857D01*
X57659285Y-29985714D01*
X57587857Y-30057142D01*
X57445000Y-30128571D01*
X57230714Y-30128571D01*
X58373571Y-30128571D02*
X58373571Y-29128571D01*
X58373571Y-29414285D02*
X58445000Y-29271428D01*
X58516428Y-29200000D01*
X58659285Y-29128571D01*
X58802142Y-29128571D01*
X60445000Y-30128571D02*
X60445000Y-28628571D01*
X60945000Y-29700000D01*
X61445000Y-28628571D01*
X61445000Y-30128571D01*
X62302142Y-29628571D02*
X62159285Y-29700000D01*
X62087857Y-29842857D01*
X62087857Y-29914285D01*
X62159285Y-30057142D01*
X62302142Y-30128571D01*
X62587857Y-30128571D01*
X62730714Y-30057142D01*
X62445000Y-29628571D02*
X62302142Y-29628571D01*
X62159285Y-29557142D01*
X62087857Y-29414285D01*
X62087857Y-29342857D01*
X62159285Y-29200000D01*
X62302142Y-29128571D01*
X62587857Y-29128571D01*
X62730714Y-29200000D01*
X62587857Y-28557142D02*
X62373571Y-28771428D01*
X63230714Y-29128571D02*
X63587857Y-30128571D01*
X63945000Y-29342857D01*
X63945000Y-29271428D01*
X63873571Y-29128571D01*
X64516428Y-29342857D02*
X64587857Y-29200000D01*
X64730714Y-29128571D01*
X65373571Y-29128571D01*
X64945000Y-29128571D02*
X64945000Y-29914285D01*
X65016428Y-30057142D01*
X65159285Y-30128571D01*
X66445000Y-29628571D02*
X66445000Y-29914285D01*
X66087857Y-29128571D02*
X66016428Y-29200000D01*
X65945000Y-29342857D01*
X65945000Y-29914285D01*
X66016428Y-30057142D01*
X66159285Y-30128571D01*
X66230714Y-30128571D01*
X66373571Y-30057142D01*
X66445000Y-29914285D01*
X66516428Y-30057142D01*
X66659285Y-30128571D01*
X66730714Y-30128571D01*
X66873571Y-30057142D01*
X66945000Y-29914285D01*
X66945000Y-29342857D01*
X66873571Y-29200000D01*
X66802142Y-29128571D01*
X67587857Y-30628571D02*
X67587857Y-29414285D01*
X67659285Y-29271428D01*
X67730714Y-29200000D01*
X67873571Y-29128571D01*
X68087857Y-29128571D01*
X68230714Y-29200000D01*
X68302142Y-29271428D01*
X68373571Y-29414285D01*
X68373571Y-29842857D01*
X68302142Y-29985714D01*
X68230714Y-30057142D01*
X68087857Y-30128571D01*
X67873571Y-30128571D01*
X67730714Y-30057142D01*
X67587857Y-29914285D01*
X69945000Y-28628571D02*
X70445000Y-30128571D01*
X70945000Y-28628571D01*
X71302142Y-28628571D02*
X72230714Y-28628571D01*
X71730714Y-29200000D01*
X71945000Y-29200000D01*
X72087857Y-29271428D01*
X72159285Y-29342857D01*
X72230714Y-29485714D01*
X72230714Y-29842857D01*
X72159285Y-29985714D01*
X72087857Y-30057142D01*
X71945000Y-30128571D01*
X71516428Y-30128571D01*
X71373571Y-30057142D01*
X71302142Y-29985714D01*
X52087857Y-31178571D02*
X52373571Y-31178571D01*
X52516428Y-31250000D01*
X52659285Y-31392857D01*
X52730714Y-31678571D01*
X52730714Y-32178571D01*
X52659285Y-32464285D01*
X52516428Y-32607142D01*
X52373571Y-32678571D01*
X52087857Y-32678571D01*
X51945000Y-32607142D01*
X51802142Y-32464285D01*
X51730714Y-32178571D01*
X51730714Y-31678571D01*
X51802142Y-31392857D01*
X51945000Y-31250000D01*
X52087857Y-31178571D01*
X53373571Y-32678571D02*
X53373571Y-31178571D01*
X54230714Y-32678571D01*
X54230714Y-31178571D01*
X54802142Y-31178571D02*
X55802142Y-31178571D01*
X55159285Y-32678571D01*
X56373571Y-31892857D02*
X56873571Y-31892857D01*
X57087857Y-32678571D02*
X56373571Y-32678571D01*
X56373571Y-31178571D01*
X57087857Y-31178571D01*
X58730714Y-32821428D02*
X58587857Y-32750000D01*
X58445000Y-32607142D01*
X58230714Y-32392857D01*
X58087857Y-32321428D01*
X57945000Y-32321428D01*
X58016428Y-32678571D02*
X57873571Y-32607142D01*
X57730714Y-32464285D01*
X57659285Y-32178571D01*
X57659285Y-31678571D01*
X57730714Y-31392857D01*
X57873571Y-31250000D01*
X58016428Y-31178571D01*
X58302142Y-31178571D01*
X58445000Y-31250000D01*
X58587857Y-31392857D01*
X58659285Y-31678571D01*
X58659285Y-32178571D01*
X58587857Y-32464285D01*
X58445000Y-32607142D01*
X58302142Y-32678571D01*
X58016428Y-32678571D01*
X60373571Y-32607142D02*
X60587857Y-32678571D01*
X60945000Y-32678571D01*
X61087857Y-32607142D01*
X61159285Y-32535714D01*
X61230714Y-32392857D01*
X61230714Y-32250000D01*
X61159285Y-32107142D01*
X61087857Y-32035714D01*
X60945000Y-31964285D01*
X60659285Y-31892857D01*
X60516428Y-31821428D01*
X60445000Y-31750000D01*
X60373571Y-31607142D01*
X60373571Y-31464285D01*
X60445000Y-31321428D01*
X60516428Y-31250000D01*
X60659285Y-31178571D01*
X61016428Y-31178571D01*
X61230714Y-31250000D01*
X61802142Y-32607142D02*
X62016428Y-32678571D01*
X62373571Y-32678571D01*
X62516428Y-32607142D01*
X62587857Y-32535714D01*
X62659285Y-32392857D01*
X62659285Y-32250000D01*
X62587857Y-32107142D01*
X62516428Y-32035714D01*
X62373571Y-31964285D01*
X62087857Y-31892857D01*
X61945000Y-31821428D01*
X61873571Y-31750000D01*
X61802142Y-31607142D01*
X61802142Y-31464285D01*
X61873571Y-31321428D01*
X61945000Y-31250000D01*
X62087857Y-31178571D01*
X62445000Y-31178571D01*
X62659285Y-31250000D01*
X63302142Y-32678571D02*
X63302142Y-31178571D01*
X63873571Y-31178571D01*
X64016428Y-31250000D01*
X64087857Y-31321428D01*
X64159285Y-31464285D01*
X64159285Y-31678571D01*
X64087857Y-31821428D01*
X64016428Y-31892857D01*
X63873571Y-31964285D01*
X63302142Y-31964285D01*
X64730714Y-32250000D02*
X65445000Y-32250000D01*
X64587857Y-32678571D02*
X65087857Y-31178571D01*
X65587857Y-32678571D01*
X67873571Y-32607142D02*
X67730714Y-32678571D01*
X67445000Y-32678571D01*
X67302142Y-32607142D01*
X67230714Y-32535714D01*
X67159285Y-32392857D01*
X67159285Y-31964285D01*
X67230714Y-31821428D01*
X67302142Y-31750000D01*
X67445000Y-31678571D01*
X67730714Y-31678571D01*
X67873571Y-31750000D01*
X68730714Y-32678571D02*
X68587857Y-32607142D01*
X68516428Y-32535714D01*
X68445000Y-32392857D01*
X68445000Y-31964285D01*
X68516428Y-31821428D01*
X68587857Y-31750000D01*
X68730714Y-31678571D01*
X68945000Y-31678571D01*
X69087857Y-31750000D01*
X69159285Y-31821428D01*
X69230714Y-31964285D01*
X69230714Y-32392857D01*
X69159285Y-32535714D01*
X69087857Y-32607142D01*
X68945000Y-32678571D01*
X68730714Y-32678571D01*
X69873571Y-31678571D02*
X69873571Y-32678571D01*
X69873571Y-31821428D02*
X69945000Y-31750000D01*
X70087857Y-31678571D01*
X70302142Y-31678571D01*
X70445000Y-31750000D01*
X70516428Y-31892857D01*
X70516428Y-32678571D01*
X71016428Y-31678571D02*
X71587857Y-31678571D01*
X71230714Y-31178571D02*
X71230714Y-32464285D01*
X71302142Y-32607142D01*
X71445000Y-32678571D01*
X71587857Y-32678571D01*
X72087857Y-32678571D02*
X72087857Y-31678571D01*
X72087857Y-31964285D02*
X72159285Y-31821428D01*
X72230714Y-31750000D01*
X72373571Y-31678571D01*
X72516428Y-31678571D01*
X73230714Y-32678571D02*
X73087857Y-32607142D01*
X73016428Y-32535714D01*
X72945000Y-32392857D01*
X72945000Y-31964285D01*
X73016428Y-31821428D01*
X73087857Y-31750000D01*
X73230714Y-31678571D01*
X73445000Y-31678571D01*
X73587857Y-31750000D01*
X73659285Y-31821428D01*
X73730714Y-31964285D01*
X73730714Y-32392857D01*
X73659285Y-32535714D01*
X73587857Y-32607142D01*
X73445000Y-32678571D01*
X73230714Y-32678571D01*
X74587857Y-32678571D02*
X74445000Y-32607142D01*
X74373571Y-32464285D01*
X74373571Y-31178571D01*
X76302142Y-32678571D02*
X76302142Y-31178571D01*
X76302142Y-31750000D02*
X76445000Y-31678571D01*
X76730714Y-31678571D01*
X76873571Y-31750000D01*
X76945000Y-31821428D01*
X77016428Y-31964285D01*
X77016428Y-32392857D01*
X76945000Y-32535714D01*
X76873571Y-32607142D01*
X76730714Y-32678571D01*
X76445000Y-32678571D01*
X76302142Y-32607142D01*
X77873571Y-32678571D02*
X77730714Y-32607142D01*
X77659285Y-32535714D01*
X77587857Y-32392857D01*
X77587857Y-31964285D01*
X77659285Y-31821428D01*
X77730714Y-31750000D01*
X77873571Y-31678571D01*
X78087857Y-31678571D01*
X78230714Y-31750000D01*
X78302142Y-31821428D01*
X78373571Y-31964285D01*
X78373571Y-32392857D01*
X78302142Y-32535714D01*
X78230714Y-32607142D01*
X78087857Y-32678571D01*
X77873571Y-32678571D01*
X79659285Y-32678571D02*
X79659285Y-31892857D01*
X79587857Y-31750000D01*
X79445000Y-31678571D01*
X79159285Y-31678571D01*
X79016428Y-31750000D01*
X79659285Y-32607142D02*
X79516428Y-32678571D01*
X79159285Y-32678571D01*
X79016428Y-32607142D01*
X78945000Y-32464285D01*
X78945000Y-32321428D01*
X79016428Y-32178571D01*
X79159285Y-32107142D01*
X79516428Y-32107142D01*
X79659285Y-32035714D01*
X80373571Y-32678571D02*
X80373571Y-31678571D01*
X80373571Y-31964285D02*
X80445000Y-31821428D01*
X80516428Y-31750000D01*
X80659285Y-31678571D01*
X80802142Y-31678571D01*
X81945000Y-32678571D02*
X81945000Y-31178571D01*
X81945000Y-32607142D02*
X81802142Y-32678571D01*
X81516428Y-32678571D01*
X81373571Y-32607142D01*
X81302142Y-32535714D01*
X81230714Y-32392857D01*
X81230714Y-31964285D01*
X81302142Y-31821428D01*
X81373571Y-31750000D01*
X81516428Y-31678571D01*
X81802142Y-31678571D01*
X81945000Y-31750000D01*
X51802142Y-35228571D02*
X51802142Y-33728571D01*
X52159285Y-33728571D01*
X52373571Y-33800000D01*
X52516428Y-33942857D01*
X52587857Y-34085714D01*
X52659285Y-34371428D01*
X52659285Y-34585714D01*
X52587857Y-34871428D01*
X52516428Y-35014285D01*
X52373571Y-35157142D01*
X52159285Y-35228571D01*
X51802142Y-35228571D01*
X53302142Y-35228571D02*
X53302142Y-34228571D01*
X53302142Y-34514285D02*
X53373571Y-34371428D01*
X53445000Y-34300000D01*
X53587857Y-34228571D01*
X53730714Y-34228571D01*
X54873571Y-35228571D02*
X54873571Y-34442857D01*
X54802142Y-34300000D01*
X54659285Y-34228571D01*
X54373571Y-34228571D01*
X54230714Y-34300000D01*
X54873571Y-35157142D02*
X54730714Y-35228571D01*
X54373571Y-35228571D01*
X54230714Y-35157142D01*
X54159285Y-35014285D01*
X54159285Y-34871428D01*
X54230714Y-34728571D01*
X54373571Y-34657142D01*
X54730714Y-34657142D01*
X54873571Y-34585714D01*
X55445000Y-34228571D02*
X55730714Y-35228571D01*
X56016428Y-34514285D01*
X56302142Y-35228571D01*
X56587857Y-34228571D01*
X57159285Y-35228571D02*
X57159285Y-34228571D01*
X57159285Y-33728571D02*
X57087857Y-33800000D01*
X57159285Y-33871428D01*
X57230714Y-33800000D01*
X57159285Y-33728571D01*
X57159285Y-33871428D01*
X57873571Y-34228571D02*
X57873571Y-35228571D01*
X57873571Y-34371428D02*
X57945000Y-34300000D01*
X58087857Y-34228571D01*
X58302142Y-34228571D01*
X58445000Y-34300000D01*
X58516428Y-34442857D01*
X58516428Y-35228571D01*
X59873571Y-34228571D02*
X59873571Y-35442857D01*
X59802142Y-35585714D01*
X59730714Y-35657142D01*
X59587857Y-35728571D01*
X59373571Y-35728571D01*
X59230714Y-35657142D01*
X59873571Y-35157142D02*
X59730714Y-35228571D01*
X59445000Y-35228571D01*
X59302142Y-35157142D01*
X59230714Y-35085714D01*
X59159285Y-34942857D01*
X59159285Y-34514285D01*
X59230714Y-34371428D01*
X59302142Y-34300000D01*
X59445000Y-34228571D01*
X59730714Y-34228571D01*
X59873571Y-34300000D01*
X61516428Y-34228571D02*
X62087857Y-34228571D01*
X61730714Y-35228571D02*
X61730714Y-33942857D01*
X61802142Y-33800000D01*
X61945000Y-33728571D01*
X62087857Y-33728571D01*
X63230714Y-33728571D02*
X62945000Y-33728571D01*
X62802142Y-33800000D01*
X62730714Y-33871428D01*
X62587857Y-34085714D01*
X62516428Y-34371428D01*
X62516428Y-34942857D01*
X62587857Y-35085714D01*
X62659285Y-35157142D01*
X62802142Y-35228571D01*
X63087857Y-35228571D01*
X63230714Y-35157142D01*
X63302142Y-35085714D01*
X63373571Y-34942857D01*
X63373571Y-34585714D01*
X63302142Y-34442857D01*
X63230714Y-34371428D01*
X63087857Y-34300000D01*
X62802142Y-34300000D01*
X62659285Y-34371428D01*
X62587857Y-34442857D01*
X62516428Y-34585714D01*
X64016428Y-35228571D02*
X64016428Y-34228571D01*
X64016428Y-33728571D02*
X63945000Y-33800000D01*
X64016428Y-33871428D01*
X64087857Y-33800000D01*
X64016428Y-33728571D01*
X64016428Y-33871428D01*
X64516428Y-34228571D02*
X65087857Y-34228571D01*
X64730714Y-33728571D02*
X64730714Y-35014285D01*
X64802142Y-35157142D01*
X64945000Y-35228571D01*
X65087857Y-35228571D01*
X66230714Y-34228571D02*
X66230714Y-35228571D01*
X65587857Y-34228571D02*
X65587857Y-35014285D01*
X65659285Y-35157142D01*
X65802142Y-35228571D01*
X66016428Y-35228571D01*
X66159285Y-35157142D01*
X66230714Y-35085714D01*
D10*
X42000000Y-126000000D02*
X42000000Y-26000000D01*
X42000000Y-26000000D02*
X92000000Y-26000000D01*
X42000000Y-126000000D02*
X92000000Y-126000000D01*
D12*
X61261252Y-47710000D02*
X60738748Y-47710000D01*
X61261252Y-46290000D02*
X60738748Y-46290000D01*
D13*
X84125000Y-57112000D02*
X84125000Y-70828000D01*
X89586000Y-61684000D02*
X89586000Y-73876000D01*
X90094000Y-61684000D02*
X90094000Y-73876000D01*
X90475000Y-51270000D02*
X90475000Y-74130000D01*
X90094000Y-61176000D02*
X90094000Y-51524000D01*
X89586000Y-61176000D02*
X89586000Y-51524000D01*
X89586000Y-51524000D02*
X90475000Y-51524000D01*
X89586000Y-73876000D02*
X90475000Y-73876000D01*
X89586000Y-61684000D02*
X90475000Y-61684000D01*
X89586000Y-61176000D02*
X90475000Y-61176000D01*
X84125000Y-55588000D02*
X84125000Y-51270000D01*
X84379000Y-71082000D02*
X84379000Y-72098000D01*
X84379000Y-71082000D02*
X84125000Y-70828000D01*
X84379000Y-72098000D02*
X84125000Y-72352000D01*
X84125000Y-72352000D02*
X84125000Y-74130000D01*
X84379000Y-56858000D02*
X84125000Y-57112000D01*
X84379000Y-55842000D02*
X84125000Y-55588000D01*
X84379000Y-55842000D02*
X84379000Y-56858000D01*
X90475000Y-74130000D02*
X84125000Y-74130000D01*
X84125000Y-51270000D02*
X90475000Y-51270000D01*
X44514000Y-115486000D02*
X44514000Y-110914000D01*
X44006000Y-110914000D02*
X44006000Y-115486000D01*
X44514000Y-110914000D02*
X43625000Y-110914000D01*
X44514000Y-115486000D02*
X43625000Y-115486000D01*
X49975000Y-113962000D02*
X49975000Y-115740000D01*
X49975000Y-112438000D02*
X49975000Y-110660000D01*
X49721000Y-112692000D02*
X49975000Y-112438000D01*
X49721000Y-113708000D02*
X49975000Y-113962000D01*
X49721000Y-113708000D02*
X49721000Y-112692000D01*
X43625000Y-110660000D02*
X49975000Y-110660000D01*
X49975000Y-115740000D02*
X43625000Y-115740000D01*
X43625000Y-115740000D02*
X43625000Y-110660000D01*
D14*
X58850000Y-78700000D02*
X58850000Y-82700000D01*
X58850000Y-82700000D02*
X51250000Y-82700000D01*
X51250000Y-82700000D02*
X51250000Y-78700000D01*
X51250000Y-78700000D02*
X58850000Y-78700000D01*
D10*
X45000000Y-56200000D02*
X45000000Y-55700000D01*
X45000000Y-57000000D02*
X45000000Y-57500000D01*
X44900000Y-56800000D02*
X44700000Y-56300000D01*
X44700000Y-56300000D02*
X45300000Y-56300000D01*
X45300000Y-56300000D02*
X45100000Y-56800000D01*
X44500000Y-56900000D02*
X45500000Y-56900000D01*
X46825000Y-54695000D02*
X46825000Y-53425000D01*
X46825000Y-58505000D02*
X46825000Y-59775000D01*
X46190000Y-59140000D02*
X47460000Y-59140000D01*
X56350000Y-52790000D02*
X58890000Y-52790000D01*
X58890000Y-52790000D02*
X58890000Y-60410000D01*
X58890000Y-60410000D02*
X56350000Y-60410000D01*
X43650000Y-60410000D02*
X56350000Y-60410000D01*
X43650000Y-60410000D02*
X43650000Y-52790000D01*
X43650000Y-52790000D02*
X56350000Y-52790000D01*
D15*
X78150000Y-67840000D02*
X78150000Y-111020000D01*
X78150000Y-111020000D02*
X65450000Y-111020000D01*
X65450000Y-111020000D02*
X65450000Y-67840000D01*
X65450000Y-67840000D02*
X78150000Y-67840000D01*
X70530000Y-67840000D02*
X70530000Y-69110000D01*
X70530000Y-69110000D02*
X73070000Y-69110000D01*
X73070000Y-69110000D02*
X73070000Y-67840000D01*
D13*
X44514000Y-71406000D02*
X44514000Y-66834000D01*
X44006000Y-71406000D02*
X44006000Y-66834000D01*
X44006000Y-71914000D02*
X44006000Y-81566000D01*
X44514000Y-71914000D02*
X44514000Y-81566000D01*
X44514000Y-81566000D02*
X43625000Y-81566000D01*
X44514000Y-66834000D02*
X43625000Y-66834000D01*
X44514000Y-71406000D02*
X43625000Y-71406000D01*
X44514000Y-71914000D02*
X43625000Y-71914000D01*
X43625000Y-81820000D02*
X43625000Y-66580000D01*
X49975000Y-75978000D02*
X49975000Y-69882000D01*
X49975000Y-77502000D02*
X49975000Y-81820000D01*
X49721000Y-69628000D02*
X49721000Y-68612000D01*
X49721000Y-69628000D02*
X49975000Y-69882000D01*
X49721000Y-68612000D02*
X49975000Y-68358000D01*
X49975000Y-68358000D02*
X49975000Y-66580000D01*
X49721000Y-76232000D02*
X49975000Y-75978000D01*
X49721000Y-77248000D02*
X49975000Y-77502000D01*
X49721000Y-77248000D02*
X49721000Y-76232000D01*
X43625000Y-66580000D02*
X49975000Y-66580000D01*
X49975000Y-81820000D02*
X43625000Y-81820000D01*
X44514000Y-98486000D02*
X44514000Y-83754000D01*
X44006000Y-98486000D02*
X44006000Y-83754000D01*
X43625000Y-108900000D02*
X43625000Y-83500000D01*
X49975000Y-103058000D02*
X49975000Y-86802000D01*
X44006000Y-98994000D02*
X44006000Y-108646000D01*
X44514000Y-98994000D02*
X44514000Y-108646000D01*
X44514000Y-108646000D02*
X43625000Y-108646000D01*
X44514000Y-83754000D02*
X43625000Y-83754000D01*
X44514000Y-98486000D02*
X43625000Y-98486000D01*
X44514000Y-98994000D02*
X43625000Y-98994000D01*
X49975000Y-104582000D02*
X49975000Y-108900000D01*
X49721000Y-86548000D02*
X49721000Y-85532000D01*
X49721000Y-86548000D02*
X49975000Y-86802000D01*
X49721000Y-85532000D02*
X49975000Y-85278000D01*
X49975000Y-85278000D02*
X49975000Y-83500000D01*
X49721000Y-103312000D02*
X49975000Y-103058000D01*
X49721000Y-104328000D02*
X49975000Y-104582000D01*
X49721000Y-104328000D02*
X49721000Y-103312000D01*
X43625000Y-83500000D02*
X49975000Y-83500000D01*
X49975000Y-108900000D02*
X43625000Y-108900000D01*
X89586000Y-98914000D02*
X89586000Y-103486000D01*
X90094000Y-103486000D02*
X90094000Y-98914000D01*
X89586000Y-103486000D02*
X90475000Y-103486000D01*
X89586000Y-98914000D02*
X90475000Y-98914000D01*
X84125000Y-100438000D02*
X84125000Y-98660000D01*
X84125000Y-101962000D02*
X84125000Y-103740000D01*
X84379000Y-101708000D02*
X84125000Y-101962000D01*
X84379000Y-100692000D02*
X84125000Y-100438000D01*
X84379000Y-100692000D02*
X84379000Y-101708000D01*
X90475000Y-103740000D02*
X84125000Y-103740000D01*
X84125000Y-98660000D02*
X90475000Y-98660000D01*
X90475000Y-98660000D02*
X90475000Y-103740000D01*
X89586000Y-104644000D02*
X89586000Y-111756000D01*
X90094000Y-111756000D02*
X90094000Y-104644000D01*
X89586000Y-111756000D02*
X90475000Y-111756000D01*
X89586000Y-104644000D02*
X90475000Y-104644000D01*
X84125000Y-107692000D02*
X84125000Y-108708000D01*
X84379000Y-108962000D02*
X84379000Y-109978000D01*
X84379000Y-108962000D02*
X84125000Y-108708000D01*
X84379000Y-109978000D02*
X84125000Y-110232000D01*
X84125000Y-110232000D02*
X84125000Y-112010000D01*
X90475000Y-104390000D02*
X90475000Y-112010000D01*
X84125000Y-106168000D02*
X84125000Y-104390000D01*
X84379000Y-107438000D02*
X84125000Y-107692000D01*
X84379000Y-106422000D02*
X84125000Y-106168000D01*
X84379000Y-106422000D02*
X84379000Y-107438000D01*
X90475000Y-112010000D02*
X84125000Y-112010000D01*
X84125000Y-104390000D02*
X90475000Y-104390000D01*
X84125000Y-80612000D02*
X84125000Y-94328000D01*
X89586000Y-85184000D02*
X89586000Y-97376000D01*
X90094000Y-85184000D02*
X90094000Y-97376000D01*
X90475000Y-74770000D02*
X90475000Y-97630000D01*
X90094000Y-84676000D02*
X90094000Y-75024000D01*
X89586000Y-84676000D02*
X89586000Y-75024000D01*
X89586000Y-75024000D02*
X90475000Y-75024000D01*
X89586000Y-97376000D02*
X90475000Y-97376000D01*
X89586000Y-85184000D02*
X90475000Y-85184000D01*
X89586000Y-84676000D02*
X90475000Y-84676000D01*
X84125000Y-79088000D02*
X84125000Y-74770000D01*
X84379000Y-94582000D02*
X84379000Y-95598000D01*
X84379000Y-94582000D02*
X84125000Y-94328000D01*
X84379000Y-95598000D02*
X84125000Y-95852000D01*
X84125000Y-95852000D02*
X84125000Y-97630000D01*
X84379000Y-80358000D02*
X84125000Y-80612000D01*
X84379000Y-79342000D02*
X84125000Y-79088000D01*
X84379000Y-79342000D02*
X84379000Y-80358000D01*
X90475000Y-97630000D02*
X84125000Y-97630000D01*
X84125000Y-74770000D02*
X90475000Y-74770000D01*
D10*
X79100000Y-66000000D02*
X79100000Y-64800000D01*
X79100000Y-64800000D02*
X81500000Y-64800000D01*
X81500000Y-64800000D02*
X81500000Y-66000000D01*
X78100000Y-60600000D02*
X78100000Y-61000000D01*
X78100000Y-61000000D02*
X82500000Y-61000000D01*
X82500000Y-61000000D02*
X82500000Y-60600000D01*
X79300000Y-64200000D02*
X81100000Y-62200000D01*
X81742221Y-63200000D02*
G75*
G03X81742221Y-63200000I-1442221J0D01*
G01*
X77200000Y-60450000D02*
X83400000Y-60450000D01*
X83400000Y-60450000D02*
X83400000Y-65950000D01*
X83400000Y-65950000D02*
X77200000Y-65950000D01*
X77200000Y-65950000D02*
X77200000Y-60450000D01*
D14*
X58600000Y-68200000D02*
X58600000Y-72200000D01*
X58600000Y-72200000D02*
X51000000Y-72200000D01*
X51000000Y-72200000D02*
X51000000Y-68200000D01*
X51000000Y-68200000D02*
X58600000Y-68200000D01*
X58850000Y-93700000D02*
X58850000Y-97700000D01*
X58850000Y-97700000D02*
X51250000Y-97700000D01*
X51250000Y-97700000D02*
X51250000Y-93700000D01*
X51250000Y-93700000D02*
X58850000Y-93700000D01*
X58600000Y-88700000D02*
X58600000Y-92700000D01*
X58600000Y-92700000D02*
X51000000Y-92700000D01*
X51000000Y-92700000D02*
X51000000Y-88700000D01*
X51000000Y-88700000D02*
X58600000Y-88700000D01*
X58850000Y-83700000D02*
X58850000Y-87700000D01*
X58850000Y-87700000D02*
X51250000Y-87700000D01*
X51250000Y-87700000D02*
X51250000Y-83700000D01*
X51250000Y-83700000D02*
X58850000Y-83700000D01*
X58600000Y-73700000D02*
X58600000Y-77700000D01*
X58600000Y-77700000D02*
X51000000Y-77700000D01*
X51000000Y-77700000D02*
X51000000Y-73700000D01*
X51000000Y-73700000D02*
X58600000Y-73700000D01*
D13*
X43806000Y-37304000D02*
X43806000Y-49496000D01*
X44314000Y-49496000D02*
X44314000Y-37304000D01*
X44314000Y-37304000D02*
X43425000Y-37304000D01*
X44314000Y-49496000D02*
X43425000Y-49496000D01*
X43425000Y-49750000D02*
X43425000Y-37050000D01*
X49775000Y-43908000D02*
X49775000Y-40352000D01*
X49775000Y-45432000D02*
X49775000Y-49750000D01*
X49521000Y-40098000D02*
X49521000Y-39082000D01*
X49521000Y-40098000D02*
X49775000Y-40352000D01*
X49521000Y-39082000D02*
X49775000Y-38828000D01*
X49775000Y-38828000D02*
X49775000Y-37050000D01*
X49521000Y-44162000D02*
X49775000Y-43908000D01*
X49521000Y-45178000D02*
X49775000Y-45432000D01*
X49521000Y-45178000D02*
X49521000Y-44162000D01*
X43425000Y-37050000D02*
X49775000Y-37050000D01*
X49775000Y-49750000D02*
X43425000Y-49750000D01*
D12*
X53261252Y-47710000D02*
X52738748Y-47710000D01*
X53261252Y-46290000D02*
X52738748Y-46290000D01*
X53261252Y-43290000D02*
X52738748Y-43290000D01*
X53261252Y-44710000D02*
X52738748Y-44710000D01*
X53261252Y-37290000D02*
X52738748Y-37290000D01*
X53261252Y-38710000D02*
X52738748Y-38710000D01*
X57261252Y-46290000D02*
X56738748Y-46290000D01*
X57261252Y-47710000D02*
X56738748Y-47710000D01*
X57261252Y-44710000D02*
X56738748Y-44710000D01*
X57261252Y-43290000D02*
X56738748Y-43290000D01*
X57261252Y-38710000D02*
X56738748Y-38710000D01*
X57261252Y-37290000D02*
X56738748Y-37290000D01*
X61261252Y-43290000D02*
X60738748Y-43290000D01*
X61261252Y-44710000D02*
X60738748Y-44710000D01*
D10*
X70400000Y-42250000D02*
X70400000Y-36750000D01*
X76600000Y-42250000D02*
X70400000Y-42250000D01*
X76600000Y-36750000D02*
X76600000Y-42250000D01*
X70400000Y-36750000D02*
X76600000Y-36750000D01*
X74942221Y-39500000D02*
G75*
G03X74942221Y-39500000I-1442221J0D01*
G01*
X72500000Y-40500000D02*
X74300000Y-38500000D01*
X75700000Y-37300000D02*
X75700000Y-36900000D01*
X71300000Y-37300000D02*
X75700000Y-37300000D01*
X71300000Y-36900000D02*
X71300000Y-37300000D01*
X74700000Y-41100000D02*
X74700000Y-42300000D01*
X72300000Y-41100000D02*
X74700000Y-41100000D01*
X72300000Y-42300000D02*
X72300000Y-41100000D01*
X63800000Y-42300000D02*
X63800000Y-41100000D01*
X63800000Y-41100000D02*
X66200000Y-41100000D01*
X66200000Y-41100000D02*
X66200000Y-42300000D01*
X62800000Y-36900000D02*
X62800000Y-37300000D01*
X62800000Y-37300000D02*
X67200000Y-37300000D01*
X67200000Y-37300000D02*
X67200000Y-36900000D01*
X64000000Y-40500000D02*
X65800000Y-38500000D01*
X66442221Y-39500000D02*
G75*
G03X66442221Y-39500000I-1442221J0D01*
G01*
X61900000Y-36750000D02*
X68100000Y-36750000D01*
X68100000Y-36750000D02*
X68100000Y-42250000D01*
X68100000Y-42250000D02*
X61900000Y-42250000D01*
X61900000Y-42250000D02*
X61900000Y-36750000D01*
D12*
X51340000Y-65711252D02*
X51340000Y-65188748D01*
X52760000Y-65711252D02*
X52760000Y-65188748D01*
X66090000Y-90961252D02*
X66090000Y-90438748D01*
X67510000Y-90961252D02*
X67510000Y-90438748D01*
X67510000Y-95938748D02*
X67510000Y-96461252D01*
X66090000Y-95938748D02*
X66090000Y-96461252D01*
X55538748Y-65910000D02*
X56061252Y-65910000D01*
X55538748Y-64490000D02*
X56061252Y-64490000D01*
X68010000Y-69938748D02*
X68010000Y-70461252D01*
X66590000Y-69938748D02*
X66590000Y-70461252D01*
X72790000Y-87588748D02*
X72790000Y-88111252D01*
X74210000Y-87588748D02*
X74210000Y-88111252D01*
X69710000Y-57261252D02*
X69710000Y-56738748D01*
X68290000Y-57261252D02*
X68290000Y-56738748D01*
X80590000Y-55938748D02*
X80590000Y-56461252D01*
X82010000Y-55938748D02*
X82010000Y-56461252D01*
X73210000Y-74100000D02*
X73210000Y-80110000D01*
X66390000Y-76350000D02*
X66390000Y-80110000D01*
X73210000Y-80110000D02*
X71950000Y-80110000D01*
X66390000Y-80110000D02*
X67650000Y-80110000D01*
X59890000Y-62610000D02*
X61150000Y-62610000D01*
X66710000Y-62610000D02*
X65450000Y-62610000D01*
X59890000Y-58850000D02*
X59890000Y-62610000D01*
X66710000Y-56600000D02*
X66710000Y-62610000D01*
X59180000Y-111270000D02*
X59180000Y-112370000D01*
X59450000Y-111270000D02*
X59180000Y-111270000D01*
X59450000Y-109770000D02*
X59450000Y-111270000D01*
X52820000Y-111270000D02*
X52820000Y-114100000D01*
X52550000Y-111270000D02*
X52820000Y-111270000D01*
X52550000Y-109770000D02*
X52550000Y-111270000D01*
X70590000Y-114961252D02*
X70590000Y-114438748D01*
X72010000Y-114961252D02*
X72010000Y-114438748D01*
X63090000Y-111438748D02*
X63090000Y-111961252D01*
X64510000Y-111438748D02*
X64510000Y-111961252D01*
X66540000Y-102738748D02*
X66540000Y-103261252D01*
X67960000Y-102738748D02*
X67960000Y-103261252D01*
X47238748Y-63290000D02*
X47761252Y-63290000D01*
X47238748Y-64710000D02*
X47761252Y-64710000D01*
X61800000Y-65740000D02*
X58940000Y-65740000D01*
X58940000Y-65740000D02*
X58940000Y-67660000D01*
X58940000Y-67660000D02*
X61800000Y-67660000D01*
X91100000Y-42600000D02*
G75*
G03X91100000Y-42600000I-6100000J0D01*
G01*
X66290000Y-108500000D02*
X66290000Y-115435000D01*
X66290000Y-115435000D02*
X69710000Y-115435000D01*
X69710000Y-115435000D02*
X69710000Y-108500000D01*
D10*
X60357142Y-49102380D02*
X60023809Y-48626190D01*
X59785714Y-49102380D02*
X59785714Y-48102380D01*
X60166666Y-48102380D01*
X60261904Y-48150000D01*
X60309523Y-48197619D01*
X60357142Y-48292857D01*
X60357142Y-48435714D01*
X60309523Y-48530952D01*
X60261904Y-48578571D01*
X60166666Y-48626190D01*
X59785714Y-48626190D01*
X61309523Y-49102380D02*
X60738095Y-49102380D01*
X61023809Y-49102380D02*
X61023809Y-48102380D01*
X60928571Y-48245238D01*
X60833333Y-48340476D01*
X60738095Y-48388095D01*
X62166666Y-48102380D02*
X61976190Y-48102380D01*
X61880952Y-48150000D01*
X61833333Y-48197619D01*
X61738095Y-48340476D01*
X61690476Y-48530952D01*
X61690476Y-48911904D01*
X61738095Y-49007142D01*
X61785714Y-49054761D01*
X61880952Y-49102380D01*
X62071428Y-49102380D01*
X62166666Y-49054761D01*
X62214285Y-49007142D01*
X62261904Y-48911904D01*
X62261904Y-48673809D01*
X62214285Y-48578571D01*
X62166666Y-48530952D01*
X62071428Y-48483333D01*
X61880952Y-48483333D01*
X61785714Y-48530952D01*
X61738095Y-48578571D01*
X61690476Y-48673809D01*
D16*
X84792000Y-49365428D02*
X84792000Y-50454000D01*
X84719428Y-50671714D01*
X84574285Y-50816857D01*
X84356571Y-50889428D01*
X84211428Y-50889428D01*
X85372571Y-49365428D02*
X86316000Y-49365428D01*
X85808000Y-49946000D01*
X86025714Y-49946000D01*
X86170857Y-50018571D01*
X86243428Y-50091142D01*
X86316000Y-50236285D01*
X86316000Y-50599142D01*
X86243428Y-50744285D01*
X86170857Y-50816857D01*
X86025714Y-50889428D01*
X85590285Y-50889428D01*
X85445142Y-50816857D01*
X85372571Y-50744285D01*
X43492000Y-116165428D02*
X43492000Y-117254000D01*
X43419428Y-117471714D01*
X43274285Y-117616857D01*
X43056571Y-117689428D01*
X42911428Y-117689428D01*
X45016000Y-117689428D02*
X44145142Y-117689428D01*
X44580571Y-117689428D02*
X44580571Y-116165428D01*
X44435428Y-116383142D01*
X44290285Y-116528285D01*
X44145142Y-116600857D01*
D10*
X61383333Y-81152380D02*
X60907142Y-81152380D01*
X60907142Y-80152380D01*
X62192857Y-80152380D02*
X61716666Y-80152380D01*
X61669047Y-80628571D01*
X61716666Y-80580952D01*
X61811904Y-80533333D01*
X62050000Y-80533333D01*
X62145238Y-80580952D01*
X62192857Y-80628571D01*
X62240476Y-80723809D01*
X62240476Y-80961904D01*
X62192857Y-81057142D01*
X62145238Y-81104761D01*
X62050000Y-81152380D01*
X61811904Y-81152380D01*
X61716666Y-81104761D01*
X61669047Y-81057142D01*
D17*
X50726190Y-56885714D02*
X50488095Y-57052380D01*
X50726190Y-57171428D02*
X50226190Y-57171428D01*
X50226190Y-56980952D01*
X50250000Y-56933333D01*
X50273809Y-56909523D01*
X50321428Y-56885714D01*
X50392857Y-56885714D01*
X50440476Y-56909523D01*
X50464285Y-56933333D01*
X50488095Y-56980952D01*
X50488095Y-57171428D01*
X50726190Y-56433333D02*
X50726190Y-56671428D01*
X50226190Y-56671428D01*
X50726190Y-56004761D02*
X50726190Y-56290476D01*
X50726190Y-56147619D02*
X50226190Y-56147619D01*
X50297619Y-56195238D01*
X50345238Y-56242857D01*
X50369047Y-56290476D01*
D16*
X74826333Y-91054666D02*
X76265666Y-91054666D01*
X76435000Y-90970000D01*
X76519666Y-90885333D01*
X76604333Y-90716000D01*
X76604333Y-90377333D01*
X76519666Y-90208000D01*
X76435000Y-90123333D01*
X76265666Y-90038666D01*
X74826333Y-90038666D01*
X74995666Y-89276666D02*
X74911000Y-89192000D01*
X74826333Y-89022666D01*
X74826333Y-88599333D01*
X74911000Y-88430000D01*
X74995666Y-88345333D01*
X75165000Y-88260666D01*
X75334333Y-88260666D01*
X75588333Y-88345333D01*
X76604333Y-89361333D01*
X76604333Y-88260666D01*
X46492000Y-64665428D02*
X46492000Y-65754000D01*
X46419428Y-65971714D01*
X46274285Y-66116857D01*
X46056571Y-66189428D01*
X45911428Y-66189428D01*
X47145142Y-64810571D02*
X47217714Y-64738000D01*
X47362857Y-64665428D01*
X47725714Y-64665428D01*
X47870857Y-64738000D01*
X47943428Y-64810571D01*
X48016000Y-64955714D01*
X48016000Y-65100857D01*
X47943428Y-65318571D01*
X47072571Y-66189428D01*
X48016000Y-66189428D01*
X50792000Y-99165428D02*
X50792000Y-100254000D01*
X50719428Y-100471714D01*
X50574285Y-100616857D01*
X50356571Y-100689428D01*
X50211428Y-100689428D01*
X52170857Y-99673428D02*
X52170857Y-100689428D01*
X51808000Y-99092857D02*
X51445142Y-100181428D01*
X52388571Y-100181428D01*
X82292000Y-100365428D02*
X82292000Y-101454000D01*
X82219428Y-101671714D01*
X82074285Y-101816857D01*
X81856571Y-101889428D01*
X81711428Y-101889428D01*
X83743428Y-100365428D02*
X83017714Y-100365428D01*
X82945142Y-101091142D01*
X83017714Y-101018571D01*
X83162857Y-100946000D01*
X83525714Y-100946000D01*
X83670857Y-101018571D01*
X83743428Y-101091142D01*
X83816000Y-101236285D01*
X83816000Y-101599142D01*
X83743428Y-101744285D01*
X83670857Y-101816857D01*
X83525714Y-101889428D01*
X83162857Y-101889428D01*
X83017714Y-101816857D01*
X82945142Y-101744285D01*
X83792000Y-112365428D02*
X83792000Y-113454000D01*
X83719428Y-113671714D01*
X83574285Y-113816857D01*
X83356571Y-113889428D01*
X83211428Y-113889428D01*
X85170857Y-112365428D02*
X84880571Y-112365428D01*
X84735428Y-112438000D01*
X84662857Y-112510571D01*
X84517714Y-112728285D01*
X84445142Y-113018571D01*
X84445142Y-113599142D01*
X84517714Y-113744285D01*
X84590285Y-113816857D01*
X84735428Y-113889428D01*
X85025714Y-113889428D01*
X85170857Y-113816857D01*
X85243428Y-113744285D01*
X85316000Y-113599142D01*
X85316000Y-113236285D01*
X85243428Y-113091142D01*
X85170857Y-113018571D01*
X85025714Y-112946000D01*
X84735428Y-112946000D01*
X84590285Y-113018571D01*
X84517714Y-113091142D01*
X84445142Y-113236285D01*
X82292000Y-82865428D02*
X82292000Y-83954000D01*
X82219428Y-84171714D01*
X82074285Y-84316857D01*
X81856571Y-84389428D01*
X81711428Y-84389428D01*
X82872571Y-82865428D02*
X83888571Y-82865428D01*
X83235428Y-84389428D01*
D17*
X76704761Y-59152380D02*
X76371428Y-58676190D01*
X76133333Y-59152380D02*
X76133333Y-58152380D01*
X76514285Y-58152380D01*
X76609523Y-58200000D01*
X76657142Y-58247619D01*
X76704761Y-58342857D01*
X76704761Y-58485714D01*
X76657142Y-58580952D01*
X76609523Y-58628571D01*
X76514285Y-58676190D01*
X76133333Y-58676190D01*
X76990476Y-58152380D02*
X77323809Y-59152380D01*
X77657142Y-58152380D01*
X78514285Y-59152380D02*
X77942857Y-59152380D01*
X78228571Y-59152380D02*
X78228571Y-58152380D01*
X78133333Y-58295238D01*
X78038095Y-58390476D01*
X77942857Y-58438095D01*
D10*
X61133333Y-70652380D02*
X60657142Y-70652380D01*
X60657142Y-69652380D01*
X61990476Y-70652380D02*
X61419047Y-70652380D01*
X61704761Y-70652380D02*
X61704761Y-69652380D01*
X61609523Y-69795238D01*
X61514285Y-69890476D01*
X61419047Y-69938095D01*
X61383333Y-96152380D02*
X60907142Y-96152380D01*
X60907142Y-95152380D01*
X61669047Y-95247619D02*
X61716666Y-95200000D01*
X61811904Y-95152380D01*
X62050000Y-95152380D01*
X62145238Y-95200000D01*
X62192857Y-95247619D01*
X62240476Y-95342857D01*
X62240476Y-95438095D01*
X62192857Y-95580952D01*
X61621428Y-96152380D01*
X62240476Y-96152380D01*
X61133333Y-91152380D02*
X60657142Y-91152380D01*
X60657142Y-90152380D01*
X61371428Y-90152380D02*
X61990476Y-90152380D01*
X61657142Y-90533333D01*
X61800000Y-90533333D01*
X61895238Y-90580952D01*
X61942857Y-90628571D01*
X61990476Y-90723809D01*
X61990476Y-90961904D01*
X61942857Y-91057142D01*
X61895238Y-91104761D01*
X61800000Y-91152380D01*
X61514285Y-91152380D01*
X61419047Y-91104761D01*
X61371428Y-91057142D01*
X61383333Y-86152380D02*
X60907142Y-86152380D01*
X60907142Y-85152380D01*
X62145238Y-85485714D02*
X62145238Y-86152380D01*
X61907142Y-85104761D02*
X61669047Y-85819047D01*
X62288095Y-85819047D01*
X61133333Y-76152380D02*
X60657142Y-76152380D01*
X60657142Y-75152380D01*
X61895238Y-75152380D02*
X61704761Y-75152380D01*
X61609523Y-75200000D01*
X61561904Y-75247619D01*
X61466666Y-75390476D01*
X61419047Y-75580952D01*
X61419047Y-75961904D01*
X61466666Y-76057142D01*
X61514285Y-76104761D01*
X61609523Y-76152380D01*
X61800000Y-76152380D01*
X61895238Y-76104761D01*
X61942857Y-76057142D01*
X61990476Y-75961904D01*
X61990476Y-75723809D01*
X61942857Y-75628571D01*
X61895238Y-75580952D01*
X61800000Y-75533333D01*
X61609523Y-75533333D01*
X61514285Y-75580952D01*
X61466666Y-75628571D01*
X61419047Y-75723809D01*
D16*
X48492000Y-35165428D02*
X48492000Y-36254000D01*
X48419428Y-36471714D01*
X48274285Y-36616857D01*
X48056571Y-36689428D01*
X47911428Y-36689428D01*
X49435428Y-35818571D02*
X49290285Y-35746000D01*
X49217714Y-35673428D01*
X49145142Y-35528285D01*
X49145142Y-35455714D01*
X49217714Y-35310571D01*
X49290285Y-35238000D01*
X49435428Y-35165428D01*
X49725714Y-35165428D01*
X49870857Y-35238000D01*
X49943428Y-35310571D01*
X50016000Y-35455714D01*
X50016000Y-35528285D01*
X49943428Y-35673428D01*
X49870857Y-35746000D01*
X49725714Y-35818571D01*
X49435428Y-35818571D01*
X49290285Y-35891142D01*
X49217714Y-35963714D01*
X49145142Y-36108857D01*
X49145142Y-36399142D01*
X49217714Y-36544285D01*
X49290285Y-36616857D01*
X49435428Y-36689428D01*
X49725714Y-36689428D01*
X49870857Y-36616857D01*
X49943428Y-36544285D01*
X50016000Y-36399142D01*
X50016000Y-36108857D01*
X49943428Y-35963714D01*
X49870857Y-35891142D01*
X49725714Y-35818571D01*
D10*
X52357142Y-49102380D02*
X52023809Y-48626190D01*
X51785714Y-49102380D02*
X51785714Y-48102380D01*
X52166666Y-48102380D01*
X52261904Y-48150000D01*
X52309523Y-48197619D01*
X52357142Y-48292857D01*
X52357142Y-48435714D01*
X52309523Y-48530952D01*
X52261904Y-48578571D01*
X52166666Y-48626190D01*
X51785714Y-48626190D01*
X53309523Y-49102380D02*
X52738095Y-49102380D01*
X53023809Y-49102380D02*
X53023809Y-48102380D01*
X52928571Y-48245238D01*
X52833333Y-48340476D01*
X52738095Y-48388095D01*
X53928571Y-48102380D02*
X54023809Y-48102380D01*
X54119047Y-48150000D01*
X54166666Y-48197619D01*
X54214285Y-48292857D01*
X54261904Y-48483333D01*
X54261904Y-48721428D01*
X54214285Y-48911904D01*
X54166666Y-49007142D01*
X54119047Y-49054761D01*
X54023809Y-49102380D01*
X53928571Y-49102380D01*
X53833333Y-49054761D01*
X53785714Y-49007142D01*
X53738095Y-48911904D01*
X53690476Y-48721428D01*
X53690476Y-48483333D01*
X53738095Y-48292857D01*
X53785714Y-48197619D01*
X53833333Y-48150000D01*
X53928571Y-48102380D01*
X52357142Y-42452380D02*
X52023809Y-41976190D01*
X51785714Y-42452380D02*
X51785714Y-41452380D01*
X52166666Y-41452380D01*
X52261904Y-41500000D01*
X52309523Y-41547619D01*
X52357142Y-41642857D01*
X52357142Y-41785714D01*
X52309523Y-41880952D01*
X52261904Y-41928571D01*
X52166666Y-41976190D01*
X51785714Y-41976190D01*
X53309523Y-42452380D02*
X52738095Y-42452380D01*
X53023809Y-42452380D02*
X53023809Y-41452380D01*
X52928571Y-41595238D01*
X52833333Y-41690476D01*
X52738095Y-41738095D01*
X54261904Y-42452380D02*
X53690476Y-42452380D01*
X53976190Y-42452380D02*
X53976190Y-41452380D01*
X53880952Y-41595238D01*
X53785714Y-41690476D01*
X53690476Y-41738095D01*
X52357142Y-40102380D02*
X52023809Y-39626190D01*
X51785714Y-40102380D02*
X51785714Y-39102380D01*
X52166666Y-39102380D01*
X52261904Y-39150000D01*
X52309523Y-39197619D01*
X52357142Y-39292857D01*
X52357142Y-39435714D01*
X52309523Y-39530952D01*
X52261904Y-39578571D01*
X52166666Y-39626190D01*
X51785714Y-39626190D01*
X53309523Y-40102380D02*
X52738095Y-40102380D01*
X53023809Y-40102380D02*
X53023809Y-39102380D01*
X52928571Y-39245238D01*
X52833333Y-39340476D01*
X52738095Y-39388095D01*
X53690476Y-39197619D02*
X53738095Y-39150000D01*
X53833333Y-39102380D01*
X54071428Y-39102380D01*
X54166666Y-39150000D01*
X54214285Y-39197619D01*
X54261904Y-39292857D01*
X54261904Y-39388095D01*
X54214285Y-39530952D01*
X53642857Y-40102380D01*
X54261904Y-40102380D01*
X56357142Y-49102380D02*
X56023809Y-48626190D01*
X55785714Y-49102380D02*
X55785714Y-48102380D01*
X56166666Y-48102380D01*
X56261904Y-48150000D01*
X56309523Y-48197619D01*
X56357142Y-48292857D01*
X56357142Y-48435714D01*
X56309523Y-48530952D01*
X56261904Y-48578571D01*
X56166666Y-48626190D01*
X55785714Y-48626190D01*
X57309523Y-49102380D02*
X56738095Y-49102380D01*
X57023809Y-49102380D02*
X57023809Y-48102380D01*
X56928571Y-48245238D01*
X56833333Y-48340476D01*
X56738095Y-48388095D01*
X57642857Y-48102380D02*
X58261904Y-48102380D01*
X57928571Y-48483333D01*
X58071428Y-48483333D01*
X58166666Y-48530952D01*
X58214285Y-48578571D01*
X58261904Y-48673809D01*
X58261904Y-48911904D01*
X58214285Y-49007142D01*
X58166666Y-49054761D01*
X58071428Y-49102380D01*
X57785714Y-49102380D01*
X57690476Y-49054761D01*
X57642857Y-49007142D01*
X55857142Y-42452380D02*
X55523809Y-41976190D01*
X55285714Y-42452380D02*
X55285714Y-41452380D01*
X55666666Y-41452380D01*
X55761904Y-41500000D01*
X55809523Y-41547619D01*
X55857142Y-41642857D01*
X55857142Y-41785714D01*
X55809523Y-41880952D01*
X55761904Y-41928571D01*
X55666666Y-41976190D01*
X55285714Y-41976190D01*
X56809523Y-42452380D02*
X56238095Y-42452380D01*
X56523809Y-42452380D02*
X56523809Y-41452380D01*
X56428571Y-41595238D01*
X56333333Y-41690476D01*
X56238095Y-41738095D01*
X57666666Y-41785714D02*
X57666666Y-42452380D01*
X57428571Y-41404761D02*
X57190476Y-42119047D01*
X57809523Y-42119047D01*
X56357142Y-40102380D02*
X56023809Y-39626190D01*
X55785714Y-40102380D02*
X55785714Y-39102380D01*
X56166666Y-39102380D01*
X56261904Y-39150000D01*
X56309523Y-39197619D01*
X56357142Y-39292857D01*
X56357142Y-39435714D01*
X56309523Y-39530952D01*
X56261904Y-39578571D01*
X56166666Y-39626190D01*
X55785714Y-39626190D01*
X57309523Y-40102380D02*
X56738095Y-40102380D01*
X57023809Y-40102380D02*
X57023809Y-39102380D01*
X56928571Y-39245238D01*
X56833333Y-39340476D01*
X56738095Y-39388095D01*
X58214285Y-39102380D02*
X57738095Y-39102380D01*
X57690476Y-39578571D01*
X57738095Y-39530952D01*
X57833333Y-39483333D01*
X58071428Y-39483333D01*
X58166666Y-39530952D01*
X58214285Y-39578571D01*
X58261904Y-39673809D01*
X58261904Y-39911904D01*
X58214285Y-40007142D01*
X58166666Y-40054761D01*
X58071428Y-40102380D01*
X57833333Y-40102380D01*
X57738095Y-40054761D01*
X57690476Y-40007142D01*
X60357142Y-42452380D02*
X60023809Y-41976190D01*
X59785714Y-42452380D02*
X59785714Y-41452380D01*
X60166666Y-41452380D01*
X60261904Y-41500000D01*
X60309523Y-41547619D01*
X60357142Y-41642857D01*
X60357142Y-41785714D01*
X60309523Y-41880952D01*
X60261904Y-41928571D01*
X60166666Y-41976190D01*
X59785714Y-41976190D01*
X61309523Y-42452380D02*
X60738095Y-42452380D01*
X61023809Y-42452380D02*
X61023809Y-41452380D01*
X60928571Y-41595238D01*
X60833333Y-41690476D01*
X60738095Y-41738095D01*
X61642857Y-41452380D02*
X62309523Y-41452380D01*
X61880952Y-42452380D01*
D17*
X77602380Y-38926190D02*
X77435714Y-38688095D01*
X77316666Y-38926190D02*
X77316666Y-38426190D01*
X77507142Y-38426190D01*
X77554761Y-38450000D01*
X77578571Y-38473809D01*
X77602380Y-38521428D01*
X77602380Y-38592857D01*
X77578571Y-38640476D01*
X77554761Y-38664285D01*
X77507142Y-38688095D01*
X77316666Y-38688095D01*
X77745238Y-38426190D02*
X77911904Y-38926190D01*
X78078571Y-38426190D01*
X78221428Y-38473809D02*
X78245238Y-38450000D01*
X78292857Y-38426190D01*
X78411904Y-38426190D01*
X78459523Y-38450000D01*
X78483333Y-38473809D01*
X78507142Y-38521428D01*
X78507142Y-38569047D01*
X78483333Y-38640476D01*
X78197619Y-38926190D01*
X78507142Y-38926190D01*
X69102380Y-38926190D02*
X68935714Y-38688095D01*
X68816666Y-38926190D02*
X68816666Y-38426190D01*
X69007142Y-38426190D01*
X69054761Y-38450000D01*
X69078571Y-38473809D01*
X69102380Y-38521428D01*
X69102380Y-38592857D01*
X69078571Y-38640476D01*
X69054761Y-38664285D01*
X69007142Y-38688095D01*
X68816666Y-38688095D01*
X69245238Y-38426190D02*
X69411904Y-38926190D01*
X69578571Y-38426190D01*
X69697619Y-38426190D02*
X70007142Y-38426190D01*
X69840476Y-38616666D01*
X69911904Y-38616666D01*
X69959523Y-38640476D01*
X69983333Y-38664285D01*
X70007142Y-38711904D01*
X70007142Y-38830952D01*
X69983333Y-38878571D01*
X69959523Y-38902380D01*
X69911904Y-38926190D01*
X69769047Y-38926190D01*
X69721428Y-38902380D01*
X69697619Y-38878571D01*
D10*
X50852380Y-65616666D02*
X50376190Y-65950000D01*
X50852380Y-66188095D02*
X49852380Y-66188095D01*
X49852380Y-65807142D01*
X49900000Y-65711904D01*
X49947619Y-65664285D01*
X50042857Y-65616666D01*
X50185714Y-65616666D01*
X50280952Y-65664285D01*
X50328571Y-65711904D01*
X50376190Y-65807142D01*
X50376190Y-66188095D01*
X50852380Y-64664285D02*
X50852380Y-65235714D01*
X50852380Y-64950000D02*
X49852380Y-64950000D01*
X49995238Y-65045238D01*
X50090476Y-65140476D01*
X50138095Y-65235714D01*
X65602380Y-90866666D02*
X65126190Y-91200000D01*
X65602380Y-91438095D02*
X64602380Y-91438095D01*
X64602380Y-91057142D01*
X64650000Y-90961904D01*
X64697619Y-90914285D01*
X64792857Y-90866666D01*
X64935714Y-90866666D01*
X65030952Y-90914285D01*
X65078571Y-90961904D01*
X65126190Y-91057142D01*
X65126190Y-91438095D01*
X64697619Y-90485714D02*
X64650000Y-90438095D01*
X64602380Y-90342857D01*
X64602380Y-90104761D01*
X64650000Y-90009523D01*
X64697619Y-89961904D01*
X64792857Y-89914285D01*
X64888095Y-89914285D01*
X65030952Y-89961904D01*
X65602380Y-90533333D01*
X65602380Y-89914285D01*
X68902380Y-96366666D02*
X68426190Y-96700000D01*
X68902380Y-96938095D02*
X67902380Y-96938095D01*
X67902380Y-96557142D01*
X67950000Y-96461904D01*
X67997619Y-96414285D01*
X68092857Y-96366666D01*
X68235714Y-96366666D01*
X68330952Y-96414285D01*
X68378571Y-96461904D01*
X68426190Y-96557142D01*
X68426190Y-96938095D01*
X67902380Y-96033333D02*
X67902380Y-95414285D01*
X68283333Y-95747619D01*
X68283333Y-95604761D01*
X68330952Y-95509523D01*
X68378571Y-95461904D01*
X68473809Y-95414285D01*
X68711904Y-95414285D01*
X68807142Y-95461904D01*
X68854761Y-95509523D01*
X68902380Y-95604761D01*
X68902380Y-95890476D01*
X68854761Y-95985714D01*
X68807142Y-96033333D01*
X55633333Y-64002380D02*
X55300000Y-63526190D01*
X55061904Y-64002380D02*
X55061904Y-63002380D01*
X55442857Y-63002380D01*
X55538095Y-63050000D01*
X55585714Y-63097619D01*
X55633333Y-63192857D01*
X55633333Y-63335714D01*
X55585714Y-63430952D01*
X55538095Y-63478571D01*
X55442857Y-63526190D01*
X55061904Y-63526190D01*
X56490476Y-63335714D02*
X56490476Y-64002380D01*
X56252380Y-62954761D02*
X56014285Y-63669047D01*
X56633333Y-63669047D01*
X69402380Y-70366666D02*
X68926190Y-70700000D01*
X69402380Y-70938095D02*
X68402380Y-70938095D01*
X68402380Y-70557142D01*
X68450000Y-70461904D01*
X68497619Y-70414285D01*
X68592857Y-70366666D01*
X68735714Y-70366666D01*
X68830952Y-70414285D01*
X68878571Y-70461904D01*
X68926190Y-70557142D01*
X68926190Y-70938095D01*
X68402380Y-69461904D02*
X68402380Y-69938095D01*
X68878571Y-69985714D01*
X68830952Y-69938095D01*
X68783333Y-69842857D01*
X68783333Y-69604761D01*
X68830952Y-69509523D01*
X68878571Y-69461904D01*
X68973809Y-69414285D01*
X69211904Y-69414285D01*
X69307142Y-69461904D01*
X69354761Y-69509523D01*
X69402380Y-69604761D01*
X69402380Y-69842857D01*
X69354761Y-69938095D01*
X69307142Y-69985714D01*
X75602380Y-88016666D02*
X75126190Y-88350000D01*
X75602380Y-88588095D02*
X74602380Y-88588095D01*
X74602380Y-88207142D01*
X74650000Y-88111904D01*
X74697619Y-88064285D01*
X74792857Y-88016666D01*
X74935714Y-88016666D01*
X75030952Y-88064285D01*
X75078571Y-88111904D01*
X75126190Y-88207142D01*
X75126190Y-88588095D01*
X74602380Y-87683333D02*
X74602380Y-87016666D01*
X75602380Y-87445238D01*
X67802380Y-57166666D02*
X67326190Y-57500000D01*
X67802380Y-57738095D02*
X66802380Y-57738095D01*
X66802380Y-57357142D01*
X66850000Y-57261904D01*
X66897619Y-57214285D01*
X66992857Y-57166666D01*
X67135714Y-57166666D01*
X67230952Y-57214285D01*
X67278571Y-57261904D01*
X67326190Y-57357142D01*
X67326190Y-57738095D01*
X67230952Y-56595238D02*
X67183333Y-56690476D01*
X67135714Y-56738095D01*
X67040476Y-56785714D01*
X66992857Y-56785714D01*
X66897619Y-56738095D01*
X66850000Y-56690476D01*
X66802380Y-56595238D01*
X66802380Y-56404761D01*
X66850000Y-56309523D01*
X66897619Y-56261904D01*
X66992857Y-56214285D01*
X67040476Y-56214285D01*
X67135714Y-56261904D01*
X67183333Y-56309523D01*
X67230952Y-56404761D01*
X67230952Y-56595238D01*
X67278571Y-56690476D01*
X67326190Y-56738095D01*
X67421428Y-56785714D01*
X67611904Y-56785714D01*
X67707142Y-56738095D01*
X67754761Y-56690476D01*
X67802380Y-56595238D01*
X67802380Y-56404761D01*
X67754761Y-56309523D01*
X67707142Y-56261904D01*
X67611904Y-56214285D01*
X67421428Y-56214285D01*
X67326190Y-56261904D01*
X67278571Y-56309523D01*
X67230952Y-56404761D01*
X83402380Y-56366666D02*
X82926190Y-56700000D01*
X83402380Y-56938095D02*
X82402380Y-56938095D01*
X82402380Y-56557142D01*
X82450000Y-56461904D01*
X82497619Y-56414285D01*
X82592857Y-56366666D01*
X82735714Y-56366666D01*
X82830952Y-56414285D01*
X82878571Y-56461904D01*
X82926190Y-56557142D01*
X82926190Y-56938095D01*
X83402380Y-55890476D02*
X83402380Y-55700000D01*
X83354761Y-55604761D01*
X83307142Y-55557142D01*
X83164285Y-55461904D01*
X82973809Y-55414285D01*
X82592857Y-55414285D01*
X82497619Y-55461904D01*
X82450000Y-55509523D01*
X82402380Y-55604761D01*
X82402380Y-55795238D01*
X82450000Y-55890476D01*
X82497619Y-55938095D01*
X82592857Y-55985714D01*
X82830952Y-55985714D01*
X82926190Y-55938095D01*
X82973809Y-55890476D01*
X83021428Y-55795238D01*
X83021428Y-55604761D01*
X82973809Y-55509523D01*
X82926190Y-55461904D01*
X82830952Y-55414285D01*
X74847619Y-78295238D02*
X74800000Y-78390476D01*
X74704761Y-78485714D01*
X74561904Y-78628571D01*
X74514285Y-78723809D01*
X74514285Y-78819047D01*
X74752380Y-78771428D02*
X74704761Y-78866666D01*
X74609523Y-78961904D01*
X74419047Y-79009523D01*
X74085714Y-79009523D01*
X73895238Y-78961904D01*
X73800000Y-78866666D01*
X73752380Y-78771428D01*
X73752380Y-78580952D01*
X73800000Y-78485714D01*
X73895238Y-78390476D01*
X74085714Y-78342857D01*
X74419047Y-78342857D01*
X74609523Y-78390476D01*
X74704761Y-78485714D01*
X74752380Y-78580952D01*
X74752380Y-78771428D01*
X74752380Y-77390476D02*
X74752380Y-77961904D01*
X74752380Y-77676190D02*
X73752380Y-77676190D01*
X73895238Y-77771428D01*
X73990476Y-77866666D01*
X74038095Y-77961904D01*
X65547619Y-61095238D02*
X65500000Y-61190476D01*
X65404761Y-61285714D01*
X65261904Y-61428571D01*
X65214285Y-61523809D01*
X65214285Y-61619047D01*
X65452380Y-61571428D02*
X65404761Y-61666666D01*
X65309523Y-61761904D01*
X65119047Y-61809523D01*
X64785714Y-61809523D01*
X64595238Y-61761904D01*
X64500000Y-61666666D01*
X64452380Y-61571428D01*
X64452380Y-61380952D01*
X64500000Y-61285714D01*
X64595238Y-61190476D01*
X64785714Y-61142857D01*
X65119047Y-61142857D01*
X65309523Y-61190476D01*
X65404761Y-61285714D01*
X65452380Y-61380952D01*
X65452380Y-61571428D01*
X64547619Y-60761904D02*
X64500000Y-60714285D01*
X64452380Y-60619047D01*
X64452380Y-60380952D01*
X64500000Y-60285714D01*
X64547619Y-60238095D01*
X64642857Y-60190476D01*
X64738095Y-60190476D01*
X64880952Y-60238095D01*
X65452380Y-60809523D01*
X65452380Y-60190476D01*
X50952380Y-109561904D02*
X51761904Y-109561904D01*
X51857142Y-109514285D01*
X51904761Y-109466666D01*
X51952380Y-109371428D01*
X51952380Y-109180952D01*
X51904761Y-109085714D01*
X51857142Y-109038095D01*
X51761904Y-108990476D01*
X50952380Y-108990476D01*
X51952380Y-107990476D02*
X51952380Y-108561904D01*
X51952380Y-108276190D02*
X50952380Y-108276190D01*
X51095238Y-108371428D01*
X51190476Y-108466666D01*
X51238095Y-108561904D01*
X70833333Y-116357142D02*
X70785714Y-116404761D01*
X70642857Y-116452380D01*
X70547619Y-116452380D01*
X70404761Y-116404761D01*
X70309523Y-116309523D01*
X70261904Y-116214285D01*
X70214285Y-116023809D01*
X70214285Y-115880952D01*
X70261904Y-115690476D01*
X70309523Y-115595238D01*
X70404761Y-115500000D01*
X70547619Y-115452380D01*
X70642857Y-115452380D01*
X70785714Y-115500000D01*
X70833333Y-115547619D01*
X71166666Y-115452380D02*
X71785714Y-115452380D01*
X71452380Y-115833333D01*
X71595238Y-115833333D01*
X71690476Y-115880952D01*
X71738095Y-115928571D01*
X71785714Y-116023809D01*
X71785714Y-116261904D01*
X71738095Y-116357142D01*
X71690476Y-116404761D01*
X71595238Y-116452380D01*
X71309523Y-116452380D01*
X71214285Y-116404761D01*
X71166666Y-116357142D01*
X62357142Y-112166666D02*
X62404761Y-112214285D01*
X62452380Y-112357142D01*
X62452380Y-112452380D01*
X62404761Y-112595238D01*
X62309523Y-112690476D01*
X62214285Y-112738095D01*
X62023809Y-112785714D01*
X61880952Y-112785714D01*
X61690476Y-112738095D01*
X61595238Y-112690476D01*
X61500000Y-112595238D01*
X61452380Y-112452380D01*
X61452380Y-112357142D01*
X61500000Y-112214285D01*
X61547619Y-112166666D01*
X61785714Y-111309523D02*
X62452380Y-111309523D01*
X61404761Y-111547619D02*
X62119047Y-111785714D01*
X62119047Y-111166666D01*
X69257142Y-103166666D02*
X69304761Y-103214285D01*
X69352380Y-103357142D01*
X69352380Y-103452380D01*
X69304761Y-103595238D01*
X69209523Y-103690476D01*
X69114285Y-103738095D01*
X68923809Y-103785714D01*
X68780952Y-103785714D01*
X68590476Y-103738095D01*
X68495238Y-103690476D01*
X68400000Y-103595238D01*
X68352380Y-103452380D01*
X68352380Y-103357142D01*
X68400000Y-103214285D01*
X68447619Y-103166666D01*
X68352380Y-102261904D02*
X68352380Y-102738095D01*
X68828571Y-102785714D01*
X68780952Y-102738095D01*
X68733333Y-102642857D01*
X68733333Y-102404761D01*
X68780952Y-102309523D01*
X68828571Y-102261904D01*
X68923809Y-102214285D01*
X69161904Y-102214285D01*
X69257142Y-102261904D01*
X69304761Y-102309523D01*
X69352380Y-102404761D01*
X69352380Y-102642857D01*
X69304761Y-102738095D01*
X69257142Y-102785714D01*
X47333333Y-62707142D02*
X47285714Y-62754761D01*
X47142857Y-62802380D01*
X47047619Y-62802380D01*
X46904761Y-62754761D01*
X46809523Y-62659523D01*
X46761904Y-62564285D01*
X46714285Y-62373809D01*
X46714285Y-62230952D01*
X46761904Y-62040476D01*
X46809523Y-61945238D01*
X46904761Y-61850000D01*
X47047619Y-61802380D01*
X47142857Y-61802380D01*
X47285714Y-61850000D01*
X47333333Y-61897619D01*
X48190476Y-61802380D02*
X48000000Y-61802380D01*
X47904761Y-61850000D01*
X47857142Y-61897619D01*
X47761904Y-62040476D01*
X47714285Y-62230952D01*
X47714285Y-62611904D01*
X47761904Y-62707142D01*
X47809523Y-62754761D01*
X47904761Y-62802380D01*
X48095238Y-62802380D01*
X48190476Y-62754761D01*
X48238095Y-62707142D01*
X48285714Y-62611904D01*
X48285714Y-62373809D01*
X48238095Y-62278571D01*
X48190476Y-62230952D01*
X48095238Y-62183333D01*
X47904761Y-62183333D01*
X47809523Y-62230952D01*
X47761904Y-62278571D01*
X47714285Y-62373809D01*
X60061904Y-65502380D02*
X60061904Y-64502380D01*
X60300000Y-64502380D01*
X60442857Y-64550000D01*
X60538095Y-64645238D01*
X60585714Y-64740476D01*
X60633333Y-64930952D01*
X60633333Y-65073809D01*
X60585714Y-65264285D01*
X60538095Y-65359523D01*
X60442857Y-65454761D01*
X60300000Y-65502380D01*
X60061904Y-65502380D01*
X61585714Y-65502380D02*
X61014285Y-65502380D01*
X61300000Y-65502380D02*
X61300000Y-64502380D01*
X61204761Y-64645238D01*
X61109523Y-64740476D01*
X61014285Y-64788095D01*
X77728571Y-43480952D02*
X77776190Y-43338095D01*
X77823809Y-43290476D01*
X77919047Y-43242857D01*
X78061904Y-43242857D01*
X78157142Y-43290476D01*
X78204761Y-43338095D01*
X78252380Y-43433333D01*
X78252380Y-43814285D01*
X77252380Y-43814285D01*
X77252380Y-43480952D01*
X77300000Y-43385714D01*
X77347619Y-43338095D01*
X77442857Y-43290476D01*
X77538095Y-43290476D01*
X77633333Y-43338095D01*
X77680952Y-43385714D01*
X77728571Y-43480952D01*
X77728571Y-43814285D01*
X77252380Y-42909523D02*
X77252380Y-42242857D01*
X78252380Y-42909523D01*
X78252380Y-42242857D01*
X78252380Y-41338095D02*
X78252380Y-41909523D01*
X78252380Y-41623809D02*
X77252380Y-41623809D01*
X77395238Y-41719047D01*
X77490476Y-41814285D01*
X77538095Y-41909523D01*
X82531428Y-46790952D02*
X82531428Y-46029047D01*
X82912380Y-46410000D02*
X82150476Y-46410000D01*
X65807142Y-111666666D02*
X65854761Y-111714285D01*
X65902380Y-111857142D01*
X65902380Y-111952380D01*
X65854761Y-112095238D01*
X65759523Y-112190476D01*
X65664285Y-112238095D01*
X65473809Y-112285714D01*
X65330952Y-112285714D01*
X65140476Y-112238095D01*
X65045238Y-112190476D01*
X64950000Y-112095238D01*
X64902380Y-111952380D01*
X64902380Y-111857142D01*
X64950000Y-111714285D01*
X64997619Y-111666666D01*
X64997619Y-111285714D02*
X64950000Y-111238095D01*
X64902380Y-111142857D01*
X64902380Y-110904761D01*
X64950000Y-110809523D01*
X64997619Y-110761904D01*
X65092857Y-110714285D01*
X65188095Y-110714285D01*
X65330952Y-110761904D01*
X65902380Y-111333333D01*
X65902380Y-110714285D01*
M02*
