G04 #@! TF.FileFunction,Soldermask,Top*
%FSLAX46Y46*%
G04 Gerber Fmt 4.6, Leading zero omitted, Abs format (unit mm)*
G04 Created by KiCad (PCBNEW 4.0.7) date 12/30/17 16:03:52*
%MOMM*%
%LPD*%
G01*
G04 APERTURE LIST*
%ADD10C,0.100000*%
%ADD11R,2.597100X1.924000*%
%ADD12O,2.597100X1.924000*%
%ADD13R,2.400000X2.400000*%
%ADD14R,1.900000X1.700000*%
%ADD15C,2.400000*%
%ADD16R,2.686000X1.974800*%
%ADD17O,2.686000X1.974800*%
%ADD18R,2.900000X4.150000*%
%ADD19R,1.650000X1.900000*%
%ADD20R,1.900000X1.650000*%
%ADD21R,1.200000X1.300000*%
%ADD22R,4.200000X2.400000*%
%ADD23R,1.900000X2.400000*%
%ADD24R,1.700000X1.900000*%
%ADD25R,2.900000X2.600000*%
%ADD26R,1.700000X2.600000*%
%ADD27C,7.400000*%
%ADD28R,1.600000X2.600000*%
%ADD29R,6.200000X6.800000*%
%ADD30C,0.254000*%
G04 APERTURE END LIST*
D10*
D11*
X164923800Y-121270000D03*
D12*
X164923800Y-118730000D03*
D13*
X170710000Y-87500000D03*
X175790000Y-87500000D03*
D14*
X173250000Y-86300000D03*
X173250000Y-88700000D03*
D15*
X181080000Y-54460000D03*
X181080000Y-59540000D03*
X176000000Y-54460000D03*
X176000000Y-59540000D03*
X173460000Y-54460000D03*
X170920000Y-54460000D03*
X170920000Y-59540000D03*
X173460000Y-59540000D03*
D16*
X182380000Y-78450000D03*
D17*
X182380000Y-80990000D03*
X182380000Y-83530000D03*
X182380000Y-86070000D03*
X182380000Y-88610000D03*
X182380000Y-91150000D03*
X182380000Y-93690000D03*
X182380000Y-96230000D03*
X182380000Y-98770000D03*
X182380000Y-101310000D03*
X182380000Y-103850000D03*
X182380000Y-106390000D03*
X182380000Y-108930000D03*
X182380000Y-111470000D03*
X182380000Y-114010000D03*
X197620000Y-114010000D03*
X197620000Y-111470000D03*
X197620000Y-108930000D03*
X197620000Y-106390000D03*
X197620000Y-103850000D03*
X197620000Y-101310000D03*
X197620000Y-98770000D03*
X197620000Y-96230000D03*
X197620000Y-93690000D03*
X197620000Y-91150000D03*
X197620000Y-88610000D03*
X197620000Y-86070000D03*
X197620000Y-83530000D03*
X197620000Y-80990000D03*
X197620000Y-78450000D03*
D12*
X205576200Y-77120000D03*
X205576200Y-74580000D03*
X205576200Y-69500000D03*
X205576200Y-66960000D03*
X205576200Y-64420000D03*
X205576200Y-79660000D03*
X205576200Y-72040000D03*
D11*
X205576200Y-59340000D03*
D12*
X205576200Y-61880000D03*
D18*
X186000000Y-123625000D03*
X186000000Y-117375000D03*
D19*
X189500000Y-122750000D03*
X189500000Y-120250000D03*
X185500000Y-113750000D03*
X185500000Y-111250000D03*
D20*
X184250000Y-55500000D03*
X186750000Y-55500000D03*
D21*
X177950000Y-73500000D03*
X180050000Y-73500000D03*
D12*
X164923800Y-79730000D03*
X164923800Y-82270000D03*
X164923800Y-74650000D03*
X164923800Y-77190000D03*
D11*
X164923800Y-87350000D03*
D12*
X164923800Y-84810000D03*
X164923800Y-94110000D03*
X164923800Y-96650000D03*
X164923800Y-99190000D03*
X164923800Y-104270000D03*
X164923800Y-106810000D03*
X164923800Y-109350000D03*
X164923800Y-91570000D03*
X164923800Y-101730000D03*
D11*
X164923800Y-114430000D03*
D12*
X164923800Y-111890000D03*
D11*
X205576200Y-106730000D03*
D12*
X205576200Y-109270000D03*
X205576200Y-117540000D03*
D11*
X205576200Y-112460000D03*
D12*
X205576200Y-115000000D03*
X205576200Y-100620000D03*
X205576200Y-98080000D03*
X205576200Y-93000000D03*
X205576200Y-90460000D03*
X205576200Y-87920000D03*
X205576200Y-103160000D03*
X205576200Y-95540000D03*
D11*
X205576200Y-82840000D03*
D12*
X205576200Y-85380000D03*
D22*
X181500000Y-70650000D03*
D23*
X181500000Y-64350000D03*
X179200000Y-64350000D03*
X183800000Y-64350000D03*
D24*
X170250000Y-73600000D03*
X170250000Y-70900000D03*
X185000000Y-98850000D03*
X185000000Y-96150000D03*
X185000000Y-101650000D03*
X185000000Y-104350000D03*
D14*
X172650000Y-72000000D03*
X175350000Y-72000000D03*
D24*
X185500000Y-75650000D03*
X185500000Y-78350000D03*
X191000000Y-90650000D03*
X191000000Y-93350000D03*
D14*
X184150000Y-60500000D03*
X186850000Y-60500000D03*
D24*
X199500000Y-61650000D03*
X199500000Y-64350000D03*
D25*
X198500000Y-72750000D03*
D26*
X197350000Y-67250000D03*
X199650000Y-67250000D03*
D22*
X188000000Y-88150000D03*
D23*
X188000000Y-81850000D03*
X185700000Y-81850000D03*
X190300000Y-81850000D03*
D27*
X165000000Y-40000000D03*
X205000000Y-40000000D03*
X165000000Y-130000000D03*
X205000000Y-130000000D03*
D13*
X170460000Y-77000000D03*
X175540000Y-77000000D03*
D14*
X173000000Y-75800000D03*
X173000000Y-78200000D03*
D13*
X170710000Y-102500000D03*
X175790000Y-102500000D03*
D14*
X173250000Y-101300000D03*
X173250000Y-103700000D03*
D13*
X170460000Y-97500000D03*
X175540000Y-97500000D03*
D14*
X173000000Y-96300000D03*
X173000000Y-98700000D03*
D13*
X170710000Y-92500000D03*
X175790000Y-92500000D03*
D14*
X173250000Y-91300000D03*
X173250000Y-93700000D03*
D13*
X170460000Y-82500000D03*
X175540000Y-82500000D03*
D14*
X173000000Y-81300000D03*
X173000000Y-83700000D03*
D28*
X171920000Y-119800000D03*
X174200000Y-119800000D03*
X176480000Y-119800000D03*
D29*
X174200000Y-113500000D03*
D13*
X200000000Y-48000000D03*
D15*
X192400000Y-48000000D03*
D30*
G36*
X209873000Y-134873000D02*
X160127000Y-134873000D01*
X160127000Y-38000000D01*
X162873000Y-38000000D01*
X162873000Y-132000000D01*
X162883006Y-132049410D01*
X162911447Y-132091035D01*
X162953841Y-132118315D01*
X163000000Y-132127000D01*
X207000000Y-132127000D01*
X207049410Y-132116994D01*
X207091035Y-132088553D01*
X207118315Y-132046159D01*
X207127000Y-132000000D01*
X207127000Y-38000000D01*
X207116994Y-37950590D01*
X207088553Y-37908965D01*
X207046159Y-37881685D01*
X207000000Y-37873000D01*
X163000000Y-37873000D01*
X162950590Y-37883006D01*
X162908965Y-37911447D01*
X162881685Y-37953841D01*
X162873000Y-38000000D01*
X160127000Y-38000000D01*
X160127000Y-35127000D01*
X209873000Y-35127000D01*
X209873000Y-134873000D01*
X209873000Y-134873000D01*
G37*
X209873000Y-134873000D02*
X160127000Y-134873000D01*
X160127000Y-38000000D01*
X162873000Y-38000000D01*
X162873000Y-132000000D01*
X162883006Y-132049410D01*
X162911447Y-132091035D01*
X162953841Y-132118315D01*
X163000000Y-132127000D01*
X207000000Y-132127000D01*
X207049410Y-132116994D01*
X207091035Y-132088553D01*
X207118315Y-132046159D01*
X207127000Y-132000000D01*
X207127000Y-38000000D01*
X207116994Y-37950590D01*
X207088553Y-37908965D01*
X207046159Y-37881685D01*
X207000000Y-37873000D01*
X163000000Y-37873000D01*
X162950590Y-37883006D01*
X162908965Y-37911447D01*
X162881685Y-37953841D01*
X162873000Y-38000000D01*
X160127000Y-38000000D01*
X160127000Y-35127000D01*
X209873000Y-35127000D01*
X209873000Y-134873000D01*
M02*
