G04 #@! TF.FileFunction,Copper,L1,Top,Signal*
%FSLAX46Y46*%
G04 Gerber Fmt 4.6, Leading zero omitted, Abs format (unit mm)*
G04 Created by KiCad (PCBNEW 4.0.7) date 12/01/17 09:31:09*
%MOMM*%
%LPD*%
G01*
G04 APERTURE LIST*
%ADD10C,0.100000*%
%ADD11R,2.197100X1.524000*%
%ADD12O,2.197100X1.524000*%
%ADD13R,2.000000X2.000000*%
%ADD14R,1.500000X1.300000*%
%ADD15C,2.000000*%
%ADD16R,2.286000X1.574800*%
%ADD17O,2.286000X1.574800*%
%ADD18R,1.600000X1.600000*%
%ADD19C,1.600000*%
%ADD20R,1.500000X1.250000*%
%ADD21R,2.500000X3.750000*%
%ADD22R,1.250000X1.500000*%
%ADD23R,0.800000X0.900000*%
%ADD24R,3.800000X2.000000*%
%ADD25R,1.500000X2.000000*%
%ADD26R,1.300000X1.500000*%
%ADD27R,2.500000X2.200000*%
%ADD28R,1.300000X2.200000*%
%ADD29C,7.000000*%
%ADD30R,1.200000X2.200000*%
%ADD31R,5.800000X6.400000*%
%ADD32R,2.750000X3.050000*%
%ADD33C,0.600000*%
%ADD34C,1.500000*%
%ADD35C,1.000000*%
%ADD36C,0.500000*%
%ADD37C,0.250000*%
%ADD38C,0.254000*%
G04 APERTURE END LIST*
D10*
D11*
X164923800Y-121270000D03*
D12*
X164923800Y-118730000D03*
D13*
X170710000Y-87500000D03*
X175790000Y-87500000D03*
D14*
X173250000Y-86300000D03*
X173250000Y-88700000D03*
D15*
X181080000Y-54460000D03*
X181080000Y-59540000D03*
X176000000Y-54460000D03*
X176000000Y-59540000D03*
X173460000Y-54460000D03*
X170920000Y-54460000D03*
X170920000Y-59540000D03*
X173460000Y-59540000D03*
D16*
X182380000Y-78450000D03*
D17*
X182380000Y-80990000D03*
X182380000Y-83530000D03*
X182380000Y-86070000D03*
X182380000Y-88610000D03*
X182380000Y-91150000D03*
X182380000Y-93690000D03*
X182380000Y-96230000D03*
X182380000Y-98770000D03*
X182380000Y-101310000D03*
X182380000Y-103850000D03*
X182380000Y-106390000D03*
X182380000Y-108930000D03*
X182380000Y-111470000D03*
X182380000Y-114010000D03*
X197620000Y-114010000D03*
X197620000Y-111470000D03*
X197620000Y-108930000D03*
X197620000Y-106390000D03*
X197620000Y-103850000D03*
X197620000Y-101310000D03*
X197620000Y-98770000D03*
X197620000Y-96230000D03*
X197620000Y-93690000D03*
X197620000Y-91150000D03*
X197620000Y-88610000D03*
X197620000Y-86070000D03*
X197620000Y-83530000D03*
X197620000Y-80990000D03*
X197620000Y-78450000D03*
D12*
X205576200Y-77120000D03*
X205576200Y-74580000D03*
X205576200Y-69500000D03*
X205576200Y-66960000D03*
X205576200Y-64420000D03*
X205576200Y-79660000D03*
X205576200Y-72040000D03*
D11*
X205576200Y-59340000D03*
D12*
X205576200Y-61880000D03*
D18*
X192000000Y-68000000D03*
D19*
X188800000Y-68000000D03*
D20*
X172050000Y-124800000D03*
X169550000Y-124800000D03*
D21*
X186000000Y-123625000D03*
X186000000Y-117375000D03*
D22*
X189500000Y-122750000D03*
X189500000Y-120250000D03*
X179800000Y-114150000D03*
X179800000Y-116650000D03*
X185500000Y-113750000D03*
X185500000Y-111250000D03*
D20*
X184250000Y-55500000D03*
X186750000Y-55500000D03*
D23*
X177950000Y-73500000D03*
X180050000Y-73500000D03*
D12*
X164923800Y-79730000D03*
X164923800Y-82270000D03*
X164923800Y-74650000D03*
X164923800Y-77190000D03*
D11*
X164923800Y-87350000D03*
D12*
X164923800Y-84810000D03*
X164923800Y-94110000D03*
X164923800Y-96650000D03*
X164923800Y-99190000D03*
X164923800Y-104270000D03*
X164923800Y-106810000D03*
X164923800Y-109350000D03*
X164923800Y-91570000D03*
X164923800Y-101730000D03*
D11*
X164923800Y-114430000D03*
D12*
X164923800Y-111890000D03*
D11*
X205576200Y-106730000D03*
D12*
X205576200Y-109270000D03*
X205576200Y-117540000D03*
D11*
X205576200Y-112460000D03*
D12*
X205576200Y-115000000D03*
X205576200Y-100620000D03*
X205576200Y-98080000D03*
X205576200Y-93000000D03*
X205576200Y-90460000D03*
X205576200Y-87920000D03*
X205576200Y-103160000D03*
X205576200Y-95540000D03*
D11*
X205576200Y-82840000D03*
D12*
X205576200Y-85380000D03*
D24*
X181500000Y-70650000D03*
D25*
X181500000Y-64350000D03*
X179200000Y-64350000D03*
X183800000Y-64350000D03*
D26*
X170250000Y-73600000D03*
X170250000Y-70900000D03*
X185000000Y-98850000D03*
X185000000Y-96150000D03*
X185000000Y-101650000D03*
X185000000Y-104350000D03*
D14*
X172650000Y-72000000D03*
X175350000Y-72000000D03*
D26*
X185500000Y-75650000D03*
X185500000Y-78350000D03*
X191000000Y-90650000D03*
X191000000Y-93350000D03*
D14*
X184150000Y-60500000D03*
X186850000Y-60500000D03*
D26*
X199500000Y-61650000D03*
X199500000Y-64350000D03*
D27*
X198500000Y-72750000D03*
D28*
X197350000Y-67250000D03*
X199650000Y-67250000D03*
D24*
X188000000Y-88150000D03*
D25*
X188000000Y-81850000D03*
X185700000Y-81850000D03*
X190300000Y-81850000D03*
D29*
X165000000Y-40000000D03*
X205000000Y-40000000D03*
X165000000Y-130000000D03*
X205000000Y-130000000D03*
D13*
X170460000Y-77000000D03*
X175540000Y-77000000D03*
D14*
X173000000Y-75800000D03*
X173000000Y-78200000D03*
D13*
X170710000Y-102500000D03*
X175790000Y-102500000D03*
D14*
X173250000Y-101300000D03*
X173250000Y-103700000D03*
D13*
X170460000Y-97500000D03*
X175540000Y-97500000D03*
D14*
X173000000Y-96300000D03*
X173000000Y-98700000D03*
D13*
X170710000Y-92500000D03*
X175790000Y-92500000D03*
D14*
X173250000Y-91300000D03*
X173250000Y-93700000D03*
D13*
X170460000Y-82500000D03*
X175540000Y-82500000D03*
D14*
X173000000Y-81300000D03*
X173000000Y-83700000D03*
D30*
X171920000Y-119800000D03*
X174200000Y-119800000D03*
X176480000Y-119800000D03*
D31*
X174200000Y-113500000D03*
D32*
X175725000Y-111825000D03*
X172675000Y-115175000D03*
X172675000Y-111825000D03*
X175725000Y-115175000D03*
D33*
X169200000Y-107800000D03*
X169800000Y-107200000D03*
X170400000Y-106600000D03*
X175200000Y-64200000D03*
X175200000Y-65200000D03*
X175200000Y-66800000D03*
X165000000Y-125000000D03*
X165000000Y-45000000D03*
X165000000Y-50000000D03*
X162000000Y-51000000D03*
X162000000Y-56000000D03*
X162000000Y-61000000D03*
X162000000Y-66000000D03*
X162000000Y-71000000D03*
X162000000Y-76000000D03*
X162000000Y-81000000D03*
X162000000Y-86000000D03*
X162000000Y-91000000D03*
X162000000Y-96000000D03*
X162000000Y-101000000D03*
X162000000Y-106000000D03*
X162000000Y-111000000D03*
X162000000Y-116000000D03*
X162000000Y-121000000D03*
X192500000Y-100500000D03*
X190000000Y-100500000D03*
X190000000Y-102000000D03*
X192500000Y-102000000D03*
X175400000Y-105000008D03*
X177199996Y-75000000D03*
X177250010Y-64500000D03*
X177250010Y-70500000D03*
X169010066Y-80010066D03*
X177250010Y-67500000D03*
X177250000Y-100000004D03*
X177250000Y-80000000D03*
X177249994Y-85000000D03*
X177250000Y-90000000D03*
X177250000Y-95000000D03*
X205000000Y-55000000D03*
X205000000Y-50000000D03*
X205000000Y-45000000D03*
X170000000Y-40000000D03*
X175000000Y-40000000D03*
X180000000Y-40000000D03*
X185000000Y-40000000D03*
X190000000Y-40000000D03*
X195000000Y-40000000D03*
X200000000Y-40000000D03*
X170000000Y-130000000D03*
X175000000Y-130000000D03*
X180000000Y-130000000D03*
X185000000Y-130000000D03*
X190000000Y-130000000D03*
X195000000Y-130000000D03*
X200000000Y-130000000D03*
X165000000Y-130000000D03*
X201000000Y-113000000D03*
X201000000Y-111000000D03*
X201000000Y-109000000D03*
X203000000Y-109000000D03*
X203000000Y-111000000D03*
X203000000Y-113000000D03*
X183250000Y-121000000D03*
X181500000Y-123500000D03*
X178250000Y-123500000D03*
X174750000Y-123500000D03*
X169000000Y-85000000D03*
X169000000Y-90000000D03*
X169000000Y-95000000D03*
X169000000Y-100000000D03*
X169000000Y-105000000D03*
X203500000Y-84500000D03*
X203500000Y-86500000D03*
X203500000Y-89000000D03*
X203500000Y-91500000D03*
X196000000Y-77000000D03*
X196000000Y-74500000D03*
X196000000Y-72000000D03*
X196000000Y-69500000D03*
X195500000Y-93000000D03*
X195500000Y-90500000D03*
X195500000Y-88000000D03*
X195500000Y-85500000D03*
X195500000Y-83000000D03*
X195500000Y-80500000D03*
X187000000Y-94000000D03*
X187000000Y-92000000D03*
X185000000Y-92000000D03*
X167400000Y-82600000D03*
X197620000Y-88610000D03*
X179750000Y-77000000D03*
X191000000Y-98500000D03*
D34*
X176400000Y-119400000D02*
X177775000Y-120775000D01*
X177775000Y-120775000D02*
X180225000Y-120775000D01*
X180225000Y-120775000D02*
X182380000Y-118620000D01*
X182380000Y-118620000D02*
X182380000Y-114010000D01*
D35*
X179800000Y-114150000D02*
X182240000Y-114150000D01*
X182240000Y-114150000D02*
X182380000Y-114010000D01*
X199500000Y-64350000D02*
X195650000Y-64350000D01*
X195650000Y-64350000D02*
X192000000Y-68000000D01*
X182380000Y-114010000D02*
X189990000Y-114010000D01*
X189990000Y-114010000D02*
X194000000Y-110000000D01*
X194000000Y-110000000D02*
X194000000Y-70000000D01*
X194000000Y-70000000D02*
X192000000Y-68000000D01*
X182380000Y-114010000D02*
X185240000Y-114010000D01*
X185240000Y-114010000D02*
X185500000Y-113750000D01*
X199500000Y-64350000D02*
X199500000Y-67100000D01*
X199500000Y-67100000D02*
X199650000Y-67250000D01*
X199650000Y-67250000D02*
X199650000Y-68150000D01*
X199650000Y-68150000D02*
X201000000Y-69500000D01*
X201000000Y-69500000D02*
X205576200Y-69500000D01*
X182240000Y-114150000D02*
X182380000Y-114010000D01*
X182140000Y-114250000D02*
X182380000Y-114010000D01*
X188000000Y-81850000D02*
X188000000Y-79000000D01*
X188800000Y-78200000D02*
X188800000Y-68000000D01*
X188000000Y-79000000D02*
X188800000Y-78200000D01*
D36*
X186000000Y-123625000D02*
X186000000Y-125000000D01*
X186000000Y-125000000D02*
X186000000Y-125600000D01*
X186000000Y-125600000D02*
X186000000Y-125000000D01*
X189500000Y-122750000D02*
X189500000Y-125000000D01*
D35*
X186000000Y-123625000D02*
X186000000Y-123800000D01*
X186000000Y-123800000D02*
X184800000Y-125000000D01*
D36*
X172050000Y-124800000D02*
X173400000Y-124800000D01*
X173400000Y-124800000D02*
X173600000Y-125000000D01*
D35*
X169200000Y-107800000D02*
X168900001Y-108099999D01*
X168900001Y-108099999D02*
X168900001Y-112479999D01*
X168900001Y-112479999D02*
X166950000Y-114430000D01*
X169800000Y-107200000D02*
X170400000Y-106600000D01*
X169200000Y-107800000D02*
X169800000Y-107200000D01*
X175200000Y-64200000D02*
X175200000Y-66800000D01*
X177749999Y-61650001D02*
X175200000Y-64200000D01*
X181080000Y-54460000D02*
X177749999Y-57790001D01*
X177749999Y-57790001D02*
X177749999Y-61650001D01*
D34*
X189500000Y-125000000D02*
X186000000Y-125000000D01*
X186000000Y-125000000D02*
X173600000Y-125000000D01*
X171720000Y-123120000D02*
X171720000Y-119200000D01*
X173600000Y-125000000D02*
X171720000Y-123120000D01*
D36*
X186000000Y-123625000D02*
X186000000Y-125200000D01*
D35*
X164923800Y-114430000D02*
X166950000Y-114430000D01*
X166950000Y-114430000D02*
X171720000Y-119200000D01*
X164923800Y-121270000D02*
X169650000Y-121270000D01*
X169650000Y-121270000D02*
X171720000Y-119200000D01*
D36*
X184250000Y-55500000D02*
X182120000Y-55500000D01*
X182120000Y-55500000D02*
X181080000Y-54460000D01*
D34*
X205576200Y-115000000D02*
X201000000Y-115000000D01*
X191000000Y-125000000D02*
X189500000Y-125000000D01*
X201000000Y-115000000D02*
X191000000Y-125000000D01*
D37*
X165000000Y-125000000D02*
X164000000Y-125000000D01*
X165000000Y-130000000D02*
X165000000Y-125000000D01*
X165000000Y-45000000D02*
X165000000Y-40000000D01*
X162000000Y-56000000D02*
X162000000Y-51000000D01*
X162000000Y-66000000D02*
X162000000Y-61000000D01*
X162000000Y-76000000D02*
X162000000Y-71000000D01*
X162000000Y-86000000D02*
X162000000Y-81000000D01*
X162000000Y-96000000D02*
X162000000Y-91000000D01*
X162000000Y-106000000D02*
X162000000Y-101000000D01*
X162000000Y-116000000D02*
X162000000Y-111000000D01*
X162000000Y-123000000D02*
X162000000Y-121000000D01*
X164000000Y-125000000D02*
X162000000Y-123000000D01*
X190000000Y-100500000D02*
X192500000Y-100500000D01*
X192500000Y-102000000D02*
X190000000Y-102000000D01*
D35*
X174975736Y-105000008D02*
X175400000Y-105000008D01*
X173000008Y-105000008D02*
X174975736Y-105000008D01*
X173000000Y-105000000D02*
X173000008Y-105000008D01*
D36*
X176775732Y-75000000D02*
X177199996Y-75000000D01*
X173300000Y-75000000D02*
X176775732Y-75000000D01*
X172500000Y-75800000D02*
X173300000Y-75000000D01*
D37*
X179200000Y-64350000D02*
X177400010Y-64350000D01*
X177400010Y-64350000D02*
X177250010Y-64500000D01*
X177250010Y-70500000D02*
X177250010Y-67500000D01*
D36*
X173000000Y-80000000D02*
X172989934Y-80010066D01*
X169434330Y-80010066D02*
X169010066Y-80010066D01*
X172989934Y-80010066D02*
X169434330Y-80010066D01*
X176825736Y-100000004D02*
X177250000Y-100000004D01*
X173000004Y-100000004D02*
X176825736Y-100000004D01*
X173000000Y-100000000D02*
X173000004Y-100000004D01*
X173000000Y-80000000D02*
X177250000Y-80000000D01*
X173000000Y-85000000D02*
X177249994Y-85000000D01*
X173000000Y-90000000D02*
X177250000Y-90000000D01*
X172500000Y-95000000D02*
X177250000Y-95000000D01*
D37*
X205000000Y-40000000D02*
X205000000Y-45000000D01*
X205000000Y-50000000D02*
X205000000Y-55000000D01*
X180000000Y-40000000D02*
X175000000Y-40000000D01*
X190000000Y-40000000D02*
X185000000Y-40000000D01*
X200000000Y-40000000D02*
X195000000Y-40000000D01*
X205000000Y-130000000D02*
X200000000Y-130000000D01*
X175000000Y-130000000D02*
X170000000Y-130000000D01*
X185000000Y-130000000D02*
X180000000Y-130000000D01*
X195000000Y-130000000D02*
X190000000Y-130000000D01*
X201000000Y-111000000D02*
X201000000Y-113000000D01*
X203000000Y-109000000D02*
X201000000Y-109000000D01*
X203000000Y-113000000D02*
X203000000Y-111000000D01*
X174000000Y-120775000D02*
X174000000Y-122750000D01*
X174000000Y-122750000D02*
X174750000Y-123500000D01*
X183250000Y-121000000D02*
X186000000Y-118250000D01*
X178250000Y-123500000D02*
X181500000Y-123500000D01*
X186000000Y-118250000D02*
X186000000Y-117375000D01*
D36*
X189500000Y-120250000D02*
X188875000Y-120250000D01*
X188875000Y-120250000D02*
X186000000Y-117375000D01*
X172500000Y-80000000D02*
X173000000Y-80000000D01*
X173000000Y-85000000D02*
X169000000Y-85000000D01*
X172500000Y-85000000D02*
X173000000Y-85000000D01*
X173000000Y-90000000D02*
X169000000Y-90000000D01*
X172500000Y-90000000D02*
X173000000Y-90000000D01*
X172500000Y-95000000D02*
X169000000Y-95000000D01*
X173000000Y-100000000D02*
X169000000Y-100000000D01*
X172500000Y-100000000D02*
X173000000Y-100000000D01*
D35*
X173000000Y-105000000D02*
X169000000Y-105000000D01*
X172500000Y-105000000D02*
X173000000Y-105000000D01*
X172500000Y-103700000D02*
X172500000Y-105000000D01*
X172500000Y-105000000D02*
X172500000Y-110125000D01*
X172500000Y-110125000D02*
X174000000Y-111625000D01*
X172500000Y-101300000D02*
X172500000Y-103700000D01*
X172500000Y-98700000D02*
X172500000Y-100000000D01*
X172500000Y-100000000D02*
X172500000Y-101300000D01*
X172500000Y-96300000D02*
X172500000Y-98700000D01*
X172500000Y-93700000D02*
X172500000Y-95000000D01*
X172500000Y-95000000D02*
X172500000Y-96300000D01*
X172500000Y-91300000D02*
X172500000Y-93700000D01*
X172500000Y-88700000D02*
X172500000Y-90000000D01*
X172500000Y-90000000D02*
X172500000Y-91300000D01*
X172500000Y-86300000D02*
X172500000Y-88700000D01*
X172500000Y-83700000D02*
X172500000Y-85000000D01*
X172500000Y-85000000D02*
X172500000Y-86300000D01*
X172500000Y-81300000D02*
X172500000Y-83700000D01*
X172500000Y-78200000D02*
X172500000Y-80000000D01*
X172500000Y-80000000D02*
X172500000Y-81300000D01*
X174000000Y-120775000D02*
X174000000Y-111625000D01*
D37*
X174000000Y-120775000D02*
X174000000Y-123000000D01*
X203500000Y-84500000D02*
X203500000Y-86500000D01*
X203500000Y-89000000D02*
X203500000Y-91500000D01*
X196000000Y-77000000D02*
X196000000Y-77500000D01*
X196000000Y-72000000D02*
X196000000Y-74500000D01*
X197350000Y-68150000D02*
X196000000Y-69500000D01*
X195500000Y-88000000D02*
X195500000Y-90500000D01*
X195500000Y-83000000D02*
X195500000Y-85500000D01*
X195500000Y-78000000D02*
X195500000Y-80500000D01*
X196000000Y-77500000D02*
X195500000Y-78000000D01*
X197350000Y-67250000D02*
X197350000Y-68150000D01*
X185000000Y-96150000D02*
X185000000Y-96000000D01*
X185000000Y-96000000D02*
X187000000Y-94000000D01*
X187000000Y-92000000D02*
X185000000Y-92000000D01*
D36*
X175350000Y-72000000D02*
X177000000Y-72000000D01*
X177950000Y-72950000D02*
X177950000Y-73500000D01*
X177000000Y-72000000D02*
X177950000Y-72950000D01*
D35*
X182380000Y-78450000D02*
X185400000Y-78450000D01*
X185400000Y-78450000D02*
X185500000Y-78350000D01*
D36*
X180050000Y-73500000D02*
X181500000Y-73500000D01*
X182380000Y-74380000D02*
X182380000Y-78450000D01*
X181500000Y-73500000D02*
X182380000Y-74380000D01*
D35*
X170250000Y-73600000D02*
X170250000Y-76790000D01*
X170250000Y-76790000D02*
X170460000Y-77000000D01*
X164923800Y-74650000D02*
X168110000Y-74650000D01*
X168110000Y-74650000D02*
X170460000Y-77000000D01*
D36*
X170150000Y-76950000D02*
X170100000Y-77000000D01*
X170000000Y-76900000D02*
X170100000Y-77000000D01*
D35*
X173460000Y-54460000D02*
X173460000Y-59540000D01*
X167400000Y-82600000D02*
X170360000Y-82600000D01*
X170360000Y-82600000D02*
X170460000Y-82500000D01*
X164923800Y-84810000D02*
X166410000Y-84810000D01*
X166410000Y-84810000D02*
X168710000Y-87110000D01*
X168710000Y-87110000D02*
X168710000Y-87500000D01*
X168710000Y-87500000D02*
X170710000Y-87500000D01*
X197620000Y-78450000D02*
X198550000Y-78450000D01*
X198550000Y-78450000D02*
X199880000Y-77120000D01*
X199880000Y-77120000D02*
X205576200Y-77120000D01*
X205576200Y-74580000D02*
X200330000Y-74580000D01*
X200330000Y-74580000D02*
X198500000Y-72750000D01*
X199500000Y-61650000D02*
X205346200Y-61650000D01*
X205346200Y-61650000D02*
X205576200Y-61880000D01*
X164923800Y-94110000D02*
X165013800Y-94200000D01*
X165013800Y-94200000D02*
X167800000Y-94200000D01*
X167800000Y-94200000D02*
X169500000Y-92500000D01*
X169500000Y-92500000D02*
X170710000Y-92500000D01*
X170460000Y-97500000D02*
X169500000Y-97500000D01*
X169500000Y-97500000D02*
X168000000Y-99000000D01*
X168000000Y-99000000D02*
X165113800Y-99000000D01*
X165113800Y-99000000D02*
X164923800Y-99190000D01*
X176000000Y-54460000D02*
X176000000Y-59540000D01*
X170710000Y-102500000D02*
X170210000Y-102000000D01*
X170210000Y-102000000D02*
X165193800Y-102000000D01*
X165193800Y-102000000D02*
X164923800Y-101730000D01*
X197620000Y-101310000D02*
X198310000Y-101310000D01*
X198310000Y-101310000D02*
X200000000Y-103000000D01*
X200000000Y-103000000D02*
X200000000Y-105500000D01*
X200000000Y-105500000D02*
X201230000Y-106730000D01*
X201230000Y-106730000D02*
X205576200Y-106730000D01*
X205576200Y-100620000D02*
X202620000Y-100620000D01*
X199150000Y-91150000D02*
X197620000Y-91150000D01*
X201500000Y-93500000D02*
X199150000Y-91150000D01*
X201500000Y-99500000D02*
X201500000Y-93500000D01*
X202620000Y-100620000D02*
X201500000Y-99500000D01*
X205576200Y-98080000D02*
X203580000Y-98080000D01*
X200000000Y-87500000D02*
X198570000Y-86070000D01*
X200000000Y-90000000D02*
X200000000Y-87500000D01*
X203000000Y-93000000D02*
X200000000Y-90000000D01*
X203000000Y-97500000D02*
X203000000Y-93000000D01*
X203580000Y-98080000D02*
X203000000Y-97500000D01*
X198570000Y-86070000D02*
X197620000Y-86070000D01*
X205576200Y-103160000D02*
X202160000Y-103160000D01*
X200000000Y-95000000D02*
X198690000Y-93690000D01*
X200000000Y-101000000D02*
X200000000Y-95000000D01*
X202160000Y-103160000D02*
X200000000Y-101000000D01*
X198690000Y-93690000D02*
X197620000Y-93690000D01*
X197620000Y-80990000D02*
X197990000Y-80990000D01*
X197990000Y-80990000D02*
X199840000Y-82840000D01*
X199840000Y-82840000D02*
X205576200Y-82840000D01*
X175900000Y-77000000D02*
X179750000Y-77000000D01*
X182380000Y-96230000D02*
X181770000Y-96230000D01*
X181770000Y-96230000D02*
X179500000Y-98500000D01*
X179500000Y-98500000D02*
X179500000Y-101500000D01*
X179500000Y-101500000D02*
X178500000Y-102500000D01*
X178500000Y-102500000D02*
X175900000Y-102500000D01*
X182380000Y-93690000D02*
X181310000Y-93690000D01*
X181310000Y-93690000D02*
X177500000Y-97500000D01*
X177500000Y-97500000D02*
X175900000Y-97500000D01*
X182380000Y-91150000D02*
X179350000Y-91150000D01*
X178000000Y-92500000D02*
X175900000Y-92500000D01*
X179350000Y-91150000D02*
X178000000Y-92500000D01*
X175900000Y-87500000D02*
X178000000Y-87500000D01*
X179110000Y-88610000D02*
X182380000Y-88610000D01*
X178000000Y-87500000D02*
X179110000Y-88610000D01*
X175900000Y-82500000D02*
X177000000Y-82500000D01*
X177000000Y-82500000D02*
X180570000Y-86070000D01*
X180570000Y-86070000D02*
X182380000Y-86070000D01*
X191000000Y-90650000D02*
X191000000Y-82550000D01*
X191000000Y-82550000D02*
X190300000Y-81850000D01*
D36*
X184150000Y-60500000D02*
X184150000Y-64000000D01*
X184150000Y-64000000D02*
X183800000Y-64350000D01*
D35*
X184000000Y-64150000D02*
X183800000Y-64350000D01*
X185500000Y-75650000D02*
X185500000Y-66050000D01*
X185500000Y-66050000D02*
X183800000Y-64350000D01*
X185000000Y-98850000D02*
X182460000Y-98850000D01*
X182460000Y-98850000D02*
X182380000Y-98770000D01*
X182380000Y-101310000D02*
X184660000Y-101310000D01*
X184660000Y-101310000D02*
X185000000Y-101650000D01*
X191000000Y-93350000D02*
X191000000Y-98500000D01*
X181500000Y-64350000D02*
X181500000Y-59960000D01*
X181500000Y-59960000D02*
X181080000Y-59540000D01*
D38*
G36*
X209290000Y-134290000D02*
X160710000Y-134290000D01*
X160710000Y-132957312D01*
X162222293Y-132957312D01*
X162625762Y-133483924D01*
X164139730Y-134127307D01*
X165784666Y-134142346D01*
X167310145Y-133526750D01*
X167374238Y-133483924D01*
X167777707Y-132957312D01*
X202222293Y-132957312D01*
X202625762Y-133483924D01*
X204139730Y-134127307D01*
X205784666Y-134142346D01*
X207310145Y-133526750D01*
X207374238Y-133483924D01*
X207777707Y-132957312D01*
X205000000Y-130179605D01*
X202222293Y-132957312D01*
X167777707Y-132957312D01*
X165000000Y-130179605D01*
X162222293Y-132957312D01*
X160710000Y-132957312D01*
X160710000Y-130784666D01*
X160857654Y-130784666D01*
X161473250Y-132310145D01*
X161516076Y-132374238D01*
X162042688Y-132777707D01*
X164820395Y-130000000D01*
X165179605Y-130000000D01*
X167957312Y-132777707D01*
X168483924Y-132374238D01*
X169127307Y-130860270D01*
X169127998Y-130784666D01*
X200857654Y-130784666D01*
X201473250Y-132310145D01*
X201516076Y-132374238D01*
X202042688Y-132777707D01*
X204820395Y-130000000D01*
X205179605Y-130000000D01*
X207957312Y-132777707D01*
X208483924Y-132374238D01*
X209127307Y-130860270D01*
X209142346Y-129215334D01*
X208526750Y-127689855D01*
X208483924Y-127625762D01*
X207957312Y-127222293D01*
X205179605Y-130000000D01*
X204820395Y-130000000D01*
X202042688Y-127222293D01*
X201516076Y-127625762D01*
X200872693Y-129139730D01*
X200857654Y-130784666D01*
X169127998Y-130784666D01*
X169142346Y-129215334D01*
X168526750Y-127689855D01*
X168483924Y-127625762D01*
X167957312Y-127222293D01*
X165179605Y-130000000D01*
X164820395Y-130000000D01*
X162042688Y-127222293D01*
X161516076Y-127625762D01*
X160872693Y-129139730D01*
X160857654Y-130784666D01*
X160710000Y-130784666D01*
X160710000Y-127042688D01*
X162222293Y-127042688D01*
X165000000Y-129820395D01*
X167777707Y-127042688D01*
X202222293Y-127042688D01*
X205000000Y-129820395D01*
X207777707Y-127042688D01*
X207374238Y-126516076D01*
X205860270Y-125872693D01*
X204215334Y-125857654D01*
X202689855Y-126473250D01*
X202625762Y-126516076D01*
X202222293Y-127042688D01*
X167777707Y-127042688D01*
X167374238Y-126516076D01*
X165860270Y-125872693D01*
X164215334Y-125857654D01*
X162689855Y-126473250D01*
X162625762Y-126516076D01*
X162222293Y-127042688D01*
X160710000Y-127042688D01*
X160710000Y-125085750D01*
X168165000Y-125085750D01*
X168165000Y-125551310D01*
X168261673Y-125784699D01*
X168440302Y-125963327D01*
X168673691Y-126060000D01*
X169264250Y-126060000D01*
X169423000Y-125901250D01*
X169423000Y-124927000D01*
X168323750Y-124927000D01*
X168165000Y-125085750D01*
X160710000Y-125085750D01*
X160710000Y-124048690D01*
X168165000Y-124048690D01*
X168165000Y-124514250D01*
X168323750Y-124673000D01*
X169423000Y-124673000D01*
X169423000Y-123698750D01*
X169264250Y-123540000D01*
X168673691Y-123540000D01*
X168440302Y-123636673D01*
X168261673Y-123815301D01*
X168165000Y-124048690D01*
X160710000Y-124048690D01*
X160710000Y-118386930D01*
X163233030Y-118386930D01*
X163355530Y-118603000D01*
X164796800Y-118603000D01*
X164796800Y-117333000D01*
X165050800Y-117333000D01*
X165050800Y-118603000D01*
X166492070Y-118603000D01*
X166614570Y-118386930D01*
X166599610Y-118312723D01*
X166337980Y-117831974D01*
X165912291Y-117487941D01*
X165387350Y-117333000D01*
X165050800Y-117333000D01*
X164796800Y-117333000D01*
X164460250Y-117333000D01*
X163935309Y-117487941D01*
X163509620Y-117831974D01*
X163247990Y-118312723D01*
X163233030Y-118386930D01*
X160710000Y-118386930D01*
X160710000Y-113668000D01*
X163177810Y-113668000D01*
X163177810Y-115192000D01*
X163222088Y-115427317D01*
X163361160Y-115643441D01*
X163573360Y-115788431D01*
X163825250Y-115839440D01*
X166022350Y-115839440D01*
X166257667Y-115795162D01*
X166473791Y-115656090D01*
X166513233Y-115598365D01*
X170114868Y-119200000D01*
X169179868Y-120135000D01*
X166536915Y-120135000D01*
X166486440Y-120056559D01*
X166274240Y-119911569D01*
X166044663Y-119865079D01*
X166337980Y-119628026D01*
X166599610Y-119147277D01*
X166614570Y-119073070D01*
X166492070Y-118857000D01*
X165050800Y-118857000D01*
X165050800Y-118877000D01*
X164796800Y-118877000D01*
X164796800Y-118857000D01*
X163355530Y-118857000D01*
X163233030Y-119073070D01*
X163247990Y-119147277D01*
X163509620Y-119628026D01*
X163802616Y-119864819D01*
X163589933Y-119904838D01*
X163373809Y-120043910D01*
X163228819Y-120256110D01*
X163177810Y-120508000D01*
X163177810Y-122032000D01*
X163222088Y-122267317D01*
X163361160Y-122483441D01*
X163573360Y-122628431D01*
X163825250Y-122679440D01*
X166022350Y-122679440D01*
X166257667Y-122635162D01*
X166473791Y-122496090D01*
X166536030Y-122405000D01*
X169650000Y-122405000D01*
X170084346Y-122318603D01*
X170335000Y-122151121D01*
X170335000Y-123120000D01*
X170418543Y-123540000D01*
X169835750Y-123540000D01*
X169677000Y-123698750D01*
X169677000Y-124673000D01*
X169697000Y-124673000D01*
X169697000Y-124927000D01*
X169677000Y-124927000D01*
X169677000Y-125901250D01*
X169835750Y-126060000D01*
X170426309Y-126060000D01*
X170659698Y-125963327D01*
X170800936Y-125822090D01*
X170835910Y-125876441D01*
X171048110Y-126021431D01*
X171300000Y-126072440D01*
X172759987Y-126072440D01*
X173069983Y-126279573D01*
X173600000Y-126385000D01*
X185612486Y-126385000D01*
X185661325Y-126417633D01*
X186000000Y-126485000D01*
X186338675Y-126417633D01*
X186387514Y-126385000D01*
X191000000Y-126385000D01*
X191530017Y-126279573D01*
X191979343Y-125979343D01*
X201573686Y-116385000D01*
X204468050Y-116385000D01*
X204217860Y-116552172D01*
X203915028Y-117005391D01*
X203808688Y-117540000D01*
X203915028Y-118074609D01*
X204217860Y-118527828D01*
X204671079Y-118830660D01*
X205205688Y-118937000D01*
X205946712Y-118937000D01*
X206481321Y-118830660D01*
X206934540Y-118527828D01*
X207237372Y-118074609D01*
X207343712Y-117540000D01*
X207237372Y-117005391D01*
X206934540Y-116552172D01*
X206512241Y-116270000D01*
X206934540Y-115987828D01*
X207237372Y-115534609D01*
X207343712Y-115000000D01*
X207237372Y-114465391D01*
X206934540Y-114012172D01*
X206702309Y-113857000D01*
X206801060Y-113857000D01*
X207034449Y-113760327D01*
X207213077Y-113581698D01*
X207309750Y-113348309D01*
X207309750Y-112745750D01*
X207151000Y-112587000D01*
X205703200Y-112587000D01*
X205703200Y-112607000D01*
X205449200Y-112607000D01*
X205449200Y-112587000D01*
X204001400Y-112587000D01*
X203842650Y-112745750D01*
X203842650Y-113348309D01*
X203939323Y-113581698D01*
X203972625Y-113615000D01*
X201000000Y-113615000D01*
X200469984Y-113720426D01*
X200020657Y-114020657D01*
X190772440Y-123268874D01*
X190772440Y-122000000D01*
X190728162Y-121764683D01*
X190589090Y-121548559D01*
X190520994Y-121502031D01*
X190663327Y-121359698D01*
X190760000Y-121126309D01*
X190760000Y-120535750D01*
X190601250Y-120377000D01*
X189627000Y-120377000D01*
X189627000Y-120397000D01*
X189373000Y-120397000D01*
X189373000Y-120377000D01*
X188398750Y-120377000D01*
X188240000Y-120535750D01*
X188240000Y-121126309D01*
X188336673Y-121359698D01*
X188477910Y-121500936D01*
X188423559Y-121535910D01*
X188278569Y-121748110D01*
X188227560Y-122000000D01*
X188227560Y-123500000D01*
X188249199Y-123615000D01*
X187897440Y-123615000D01*
X187897440Y-121750000D01*
X187853162Y-121514683D01*
X187714090Y-121298559D01*
X187501890Y-121153569D01*
X187250000Y-121102560D01*
X184750000Y-121102560D01*
X184514683Y-121146838D01*
X184298559Y-121285910D01*
X184153569Y-121498110D01*
X184102560Y-121750000D01*
X184102560Y-123615000D01*
X174173686Y-123615000D01*
X173105000Y-122546314D01*
X173105000Y-121303025D01*
X173240301Y-121438327D01*
X173473690Y-121535000D01*
X173914250Y-121535000D01*
X174073000Y-121376250D01*
X174073000Y-119927000D01*
X174053000Y-119927000D01*
X174053000Y-119673000D01*
X174073000Y-119673000D01*
X174073000Y-118223750D01*
X174327000Y-118223750D01*
X174327000Y-119673000D01*
X174347000Y-119673000D01*
X174347000Y-119927000D01*
X174327000Y-119927000D01*
X174327000Y-121376250D01*
X174485750Y-121535000D01*
X174926310Y-121535000D01*
X175159699Y-121438327D01*
X175338327Y-121259698D01*
X175345591Y-121242162D01*
X175415910Y-121351441D01*
X175628110Y-121496431D01*
X175880000Y-121547440D01*
X176588754Y-121547440D01*
X176795657Y-121754343D01*
X177244984Y-122054574D01*
X177775000Y-122160000D01*
X180225000Y-122160000D01*
X180755017Y-122054573D01*
X181204343Y-121754343D01*
X183359343Y-119599343D01*
X183428777Y-119495427D01*
X183659573Y-119150017D01*
X183765000Y-118620000D01*
X183765000Y-117660750D01*
X184115000Y-117660750D01*
X184115000Y-119376309D01*
X184211673Y-119609698D01*
X184390301Y-119788327D01*
X184623690Y-119885000D01*
X185714250Y-119885000D01*
X185873000Y-119726250D01*
X185873000Y-117502000D01*
X186127000Y-117502000D01*
X186127000Y-119726250D01*
X186285750Y-119885000D01*
X187376310Y-119885000D01*
X187609699Y-119788327D01*
X187788327Y-119609698D01*
X187885000Y-119376309D01*
X187885000Y-119373691D01*
X188240000Y-119373691D01*
X188240000Y-119964250D01*
X188398750Y-120123000D01*
X189373000Y-120123000D01*
X189373000Y-119023750D01*
X189627000Y-119023750D01*
X189627000Y-120123000D01*
X190601250Y-120123000D01*
X190760000Y-119964250D01*
X190760000Y-119373691D01*
X190663327Y-119140302D01*
X190484699Y-118961673D01*
X190251310Y-118865000D01*
X189785750Y-118865000D01*
X189627000Y-119023750D01*
X189373000Y-119023750D01*
X189214250Y-118865000D01*
X188748690Y-118865000D01*
X188515301Y-118961673D01*
X188336673Y-119140302D01*
X188240000Y-119373691D01*
X187885000Y-119373691D01*
X187885000Y-117660750D01*
X187726250Y-117502000D01*
X186127000Y-117502000D01*
X185873000Y-117502000D01*
X184273750Y-117502000D01*
X184115000Y-117660750D01*
X183765000Y-117660750D01*
X183765000Y-115145000D01*
X184209727Y-115145000D01*
X184115000Y-115373691D01*
X184115000Y-117089250D01*
X184273750Y-117248000D01*
X185873000Y-117248000D01*
X185873000Y-117228000D01*
X186127000Y-117228000D01*
X186127000Y-117248000D01*
X187726250Y-117248000D01*
X187885000Y-117089250D01*
X187885000Y-115373691D01*
X187790273Y-115145000D01*
X189990000Y-115145000D01*
X190424346Y-115058603D01*
X190792566Y-114812566D01*
X194802566Y-110802566D01*
X195048603Y-110434346D01*
X195064903Y-110352400D01*
X195135000Y-110000000D01*
X195135000Y-78450000D01*
X195807167Y-78450000D01*
X195915441Y-78994329D01*
X196223778Y-79455789D01*
X196619199Y-79720000D01*
X196223778Y-79984211D01*
X195915441Y-80445671D01*
X195807167Y-80990000D01*
X195915441Y-81534329D01*
X196223778Y-81995789D01*
X196619199Y-82260000D01*
X196223778Y-82524211D01*
X195915441Y-82985671D01*
X195807167Y-83530000D01*
X195915441Y-84074329D01*
X196223778Y-84535789D01*
X196619199Y-84800000D01*
X196223778Y-85064211D01*
X195915441Y-85525671D01*
X195807167Y-86070000D01*
X195915441Y-86614329D01*
X196223778Y-87075789D01*
X196619199Y-87340000D01*
X196223778Y-87604211D01*
X195915441Y-88065671D01*
X195807167Y-88610000D01*
X195915441Y-89154329D01*
X196223778Y-89615789D01*
X196619199Y-89880000D01*
X196223778Y-90144211D01*
X195915441Y-90605671D01*
X195807167Y-91150000D01*
X195915441Y-91694329D01*
X196223778Y-92155789D01*
X196619199Y-92420000D01*
X196223778Y-92684211D01*
X195915441Y-93145671D01*
X195807167Y-93690000D01*
X195915441Y-94234329D01*
X196223778Y-94695789D01*
X196619199Y-94960000D01*
X196223778Y-95224211D01*
X195915441Y-95685671D01*
X195807167Y-96230000D01*
X195915441Y-96774329D01*
X196223778Y-97235789D01*
X196619199Y-97500000D01*
X196223778Y-97764211D01*
X195915441Y-98225671D01*
X195807167Y-98770000D01*
X195915441Y-99314329D01*
X196223778Y-99775789D01*
X196619199Y-100040000D01*
X196223778Y-100304211D01*
X195915441Y-100765671D01*
X195807167Y-101310000D01*
X195915441Y-101854329D01*
X196223778Y-102315789D01*
X196619199Y-102580000D01*
X196223778Y-102844211D01*
X195915441Y-103305671D01*
X195807167Y-103850000D01*
X195915441Y-104394329D01*
X196223778Y-104855789D01*
X196618830Y-105119754D01*
X196602738Y-105124475D01*
X196168809Y-105474014D01*
X195901673Y-105963004D01*
X195884990Y-106042940D01*
X196007148Y-106263000D01*
X197493000Y-106263000D01*
X197493000Y-106243000D01*
X197747000Y-106243000D01*
X197747000Y-106263000D01*
X197767000Y-106263000D01*
X197767000Y-106517000D01*
X197747000Y-106517000D01*
X197747000Y-106537000D01*
X197493000Y-106537000D01*
X197493000Y-106517000D01*
X196007148Y-106517000D01*
X195884990Y-106737060D01*
X195901673Y-106816996D01*
X196168809Y-107305986D01*
X196602738Y-107655525D01*
X196618830Y-107660246D01*
X196223778Y-107924211D01*
X195915441Y-108385671D01*
X195807167Y-108930000D01*
X195915441Y-109474329D01*
X196223778Y-109935789D01*
X196619199Y-110200000D01*
X196223778Y-110464211D01*
X195915441Y-110925671D01*
X195807167Y-111470000D01*
X195915441Y-112014329D01*
X196223778Y-112475789D01*
X196619199Y-112740000D01*
X196223778Y-113004211D01*
X195915441Y-113465671D01*
X195807167Y-114010000D01*
X195915441Y-114554329D01*
X196223778Y-115015789D01*
X196685238Y-115324126D01*
X197229567Y-115432400D01*
X198010433Y-115432400D01*
X198554762Y-115324126D01*
X199016222Y-115015789D01*
X199324559Y-114554329D01*
X199432833Y-114010000D01*
X199324559Y-113465671D01*
X199016222Y-113004211D01*
X198620801Y-112740000D01*
X199016222Y-112475789D01*
X199324559Y-112014329D01*
X199412605Y-111571691D01*
X203842650Y-111571691D01*
X203842650Y-112174250D01*
X204001400Y-112333000D01*
X205449200Y-112333000D01*
X205449200Y-111221750D01*
X205703200Y-111221750D01*
X205703200Y-112333000D01*
X207151000Y-112333000D01*
X207309750Y-112174250D01*
X207309750Y-111571691D01*
X207213077Y-111338302D01*
X207034449Y-111159673D01*
X206801060Y-111063000D01*
X205861950Y-111063000D01*
X205703200Y-111221750D01*
X205449200Y-111221750D01*
X205290450Y-111063000D01*
X204351340Y-111063000D01*
X204117951Y-111159673D01*
X203939323Y-111338302D01*
X203842650Y-111571691D01*
X199412605Y-111571691D01*
X199432833Y-111470000D01*
X199324559Y-110925671D01*
X199016222Y-110464211D01*
X198620801Y-110200000D01*
X199016222Y-109935789D01*
X199231855Y-109613070D01*
X203885430Y-109613070D01*
X203900390Y-109687277D01*
X204162020Y-110168026D01*
X204587709Y-110512059D01*
X205112650Y-110667000D01*
X205449200Y-110667000D01*
X205449200Y-109397000D01*
X205703200Y-109397000D01*
X205703200Y-110667000D01*
X206039750Y-110667000D01*
X206564691Y-110512059D01*
X206990380Y-110168026D01*
X207252010Y-109687277D01*
X207266970Y-109613070D01*
X207144470Y-109397000D01*
X205703200Y-109397000D01*
X205449200Y-109397000D01*
X204007930Y-109397000D01*
X203885430Y-109613070D01*
X199231855Y-109613070D01*
X199324559Y-109474329D01*
X199432833Y-108930000D01*
X199324559Y-108385671D01*
X199016222Y-107924211D01*
X198621170Y-107660246D01*
X198637262Y-107655525D01*
X199071191Y-107305986D01*
X199338327Y-106816996D01*
X199355010Y-106737060D01*
X199232853Y-106517002D01*
X199398000Y-106517002D01*
X199398000Y-106503132D01*
X200427434Y-107532566D01*
X200795655Y-107778604D01*
X201230000Y-107865000D01*
X203963085Y-107865000D01*
X204013560Y-107943441D01*
X204225760Y-108088431D01*
X204455337Y-108134921D01*
X204162020Y-108371974D01*
X203900390Y-108852723D01*
X203885430Y-108926930D01*
X204007930Y-109143000D01*
X205449200Y-109143000D01*
X205449200Y-109123000D01*
X205703200Y-109123000D01*
X205703200Y-109143000D01*
X207144470Y-109143000D01*
X207266970Y-108926930D01*
X207252010Y-108852723D01*
X206990380Y-108371974D01*
X206697384Y-108135181D01*
X206910067Y-108095162D01*
X207126191Y-107956090D01*
X207271181Y-107743890D01*
X207322190Y-107492000D01*
X207322190Y-105968000D01*
X207277912Y-105732683D01*
X207138840Y-105516559D01*
X206926640Y-105371569D01*
X206674750Y-105320560D01*
X204477650Y-105320560D01*
X204242333Y-105364838D01*
X204026209Y-105503910D01*
X203963970Y-105595000D01*
X201700132Y-105595000D01*
X201135000Y-105029868D01*
X201135000Y-103740132D01*
X201357434Y-103962566D01*
X201725654Y-104208603D01*
X202160000Y-104295000D01*
X204438118Y-104295000D01*
X204671079Y-104450660D01*
X205205688Y-104557000D01*
X205946712Y-104557000D01*
X206481321Y-104450660D01*
X206934540Y-104147828D01*
X207237372Y-103694609D01*
X207343712Y-103160000D01*
X207237372Y-102625391D01*
X206934540Y-102172172D01*
X206512241Y-101890000D01*
X206934540Y-101607828D01*
X207237372Y-101154609D01*
X207343712Y-100620000D01*
X207237372Y-100085391D01*
X206934540Y-99632172D01*
X206512241Y-99350000D01*
X206934540Y-99067828D01*
X207237372Y-98614609D01*
X207343712Y-98080000D01*
X207237372Y-97545391D01*
X206934540Y-97092172D01*
X206512241Y-96810000D01*
X206934540Y-96527828D01*
X207237372Y-96074609D01*
X207343712Y-95540000D01*
X207237372Y-95005391D01*
X206934540Y-94552172D01*
X206512241Y-94270000D01*
X206934540Y-93987828D01*
X207237372Y-93534609D01*
X207343712Y-93000000D01*
X207237372Y-92465391D01*
X206934540Y-92012172D01*
X206512241Y-91730000D01*
X206934540Y-91447828D01*
X207237372Y-90994609D01*
X207343712Y-90460000D01*
X207237372Y-89925391D01*
X206934540Y-89472172D01*
X206512241Y-89190000D01*
X206934540Y-88907828D01*
X207237372Y-88454609D01*
X207343712Y-87920000D01*
X207237372Y-87385391D01*
X206934540Y-86932172D01*
X206512241Y-86650000D01*
X206934540Y-86367828D01*
X207237372Y-85914609D01*
X207343712Y-85380000D01*
X207237372Y-84845391D01*
X206934540Y-84392172D01*
X206710781Y-84242660D01*
X206910067Y-84205162D01*
X207126191Y-84066090D01*
X207271181Y-83853890D01*
X207322190Y-83602000D01*
X207322190Y-82078000D01*
X207277912Y-81842683D01*
X207138840Y-81626559D01*
X206926640Y-81481569D01*
X206674750Y-81430560D01*
X204477650Y-81430560D01*
X204242333Y-81474838D01*
X204026209Y-81613910D01*
X203963970Y-81705000D01*
X200310132Y-81705000D01*
X199392534Y-80787402D01*
X199324559Y-80445671D01*
X199028824Y-80003070D01*
X203885430Y-80003070D01*
X203900390Y-80077277D01*
X204162020Y-80558026D01*
X204587709Y-80902059D01*
X205112650Y-81057000D01*
X205449200Y-81057000D01*
X205449200Y-79787000D01*
X205703200Y-79787000D01*
X205703200Y-81057000D01*
X206039750Y-81057000D01*
X206564691Y-80902059D01*
X206990380Y-80558026D01*
X207252010Y-80077277D01*
X207266970Y-80003070D01*
X207144470Y-79787000D01*
X205703200Y-79787000D01*
X205449200Y-79787000D01*
X204007930Y-79787000D01*
X203885430Y-80003070D01*
X199028824Y-80003070D01*
X199016222Y-79984211D01*
X198620801Y-79720000D01*
X198938497Y-79507723D01*
X198984346Y-79498603D01*
X199352566Y-79252566D01*
X200350132Y-78255000D01*
X204438118Y-78255000D01*
X204653093Y-78398642D01*
X204587709Y-78417941D01*
X204162020Y-78761974D01*
X203900390Y-79242723D01*
X203885430Y-79316930D01*
X204007930Y-79533000D01*
X205449200Y-79533000D01*
X205449200Y-79513000D01*
X205703200Y-79513000D01*
X205703200Y-79533000D01*
X207144470Y-79533000D01*
X207266970Y-79316930D01*
X207252010Y-79242723D01*
X206990380Y-78761974D01*
X206564691Y-78417941D01*
X206499307Y-78398642D01*
X206934540Y-78107828D01*
X207237372Y-77654609D01*
X207343712Y-77120000D01*
X207237372Y-76585391D01*
X206934540Y-76132172D01*
X206512241Y-75850000D01*
X206934540Y-75567828D01*
X207237372Y-75114609D01*
X207343712Y-74580000D01*
X207237372Y-74045391D01*
X206934540Y-73592172D01*
X206499307Y-73301358D01*
X206564691Y-73282059D01*
X206990380Y-72938026D01*
X207252010Y-72457277D01*
X207266970Y-72383070D01*
X207144470Y-72167000D01*
X205703200Y-72167000D01*
X205703200Y-72187000D01*
X205449200Y-72187000D01*
X205449200Y-72167000D01*
X204007930Y-72167000D01*
X203885430Y-72383070D01*
X203900390Y-72457277D01*
X204162020Y-72938026D01*
X204587709Y-73282059D01*
X204653093Y-73301358D01*
X204438118Y-73445000D01*
X200800132Y-73445000D01*
X200397440Y-73042308D01*
X200397440Y-71650000D01*
X200353162Y-71414683D01*
X200214090Y-71198559D01*
X200001890Y-71053569D01*
X199750000Y-71002560D01*
X197250000Y-71002560D01*
X197014683Y-71046838D01*
X196798559Y-71185910D01*
X196653569Y-71398110D01*
X196602560Y-71650000D01*
X196602560Y-73850000D01*
X196646838Y-74085317D01*
X196785910Y-74301441D01*
X196998110Y-74446431D01*
X197250000Y-74497440D01*
X198642308Y-74497440D01*
X199527434Y-75382566D01*
X199895654Y-75628603D01*
X200330000Y-75715000D01*
X204438118Y-75715000D01*
X204640159Y-75850000D01*
X204438118Y-75985000D01*
X199880000Y-75985000D01*
X199445654Y-76071397D01*
X199241501Y-76207808D01*
X199077434Y-76317434D01*
X198308065Y-77086803D01*
X198010433Y-77027600D01*
X197229567Y-77027600D01*
X196685238Y-77135874D01*
X196223778Y-77444211D01*
X195915441Y-77905671D01*
X195807167Y-78450000D01*
X195135000Y-78450000D01*
X195135000Y-70000000D01*
X195048603Y-69565654D01*
X194802566Y-69197434D01*
X193605132Y-68000000D01*
X194069382Y-67535750D01*
X196065000Y-67535750D01*
X196065000Y-68476310D01*
X196161673Y-68709699D01*
X196340302Y-68888327D01*
X196573691Y-68985000D01*
X197064250Y-68985000D01*
X197223000Y-68826250D01*
X197223000Y-67377000D01*
X196223750Y-67377000D01*
X196065000Y-67535750D01*
X194069382Y-67535750D01*
X195581442Y-66023690D01*
X196065000Y-66023690D01*
X196065000Y-66964250D01*
X196223750Y-67123000D01*
X197223000Y-67123000D01*
X197223000Y-65673750D01*
X197064250Y-65515000D01*
X196573691Y-65515000D01*
X196340302Y-65611673D01*
X196161673Y-65790301D01*
X196065000Y-66023690D01*
X195581442Y-66023690D01*
X196120133Y-65485000D01*
X198343156Y-65485000D01*
X198365000Y-65518946D01*
X198365000Y-65616975D01*
X198359698Y-65611673D01*
X198126309Y-65515000D01*
X197635750Y-65515000D01*
X197477000Y-65673750D01*
X197477000Y-67123000D01*
X197497000Y-67123000D01*
X197497000Y-67377000D01*
X197477000Y-67377000D01*
X197477000Y-68826250D01*
X197635750Y-68985000D01*
X198126309Y-68985000D01*
X198359698Y-68888327D01*
X198500936Y-68747090D01*
X198535910Y-68801441D01*
X198748110Y-68946431D01*
X198864962Y-68970094D01*
X200197434Y-70302566D01*
X200565654Y-70548603D01*
X201000000Y-70635000D01*
X204438118Y-70635000D01*
X204653093Y-70778642D01*
X204587709Y-70797941D01*
X204162020Y-71141974D01*
X203900390Y-71622723D01*
X203885430Y-71696930D01*
X204007930Y-71913000D01*
X205449200Y-71913000D01*
X205449200Y-71893000D01*
X205703200Y-71893000D01*
X205703200Y-71913000D01*
X207144470Y-71913000D01*
X207266970Y-71696930D01*
X207252010Y-71622723D01*
X206990380Y-71141974D01*
X206564691Y-70797941D01*
X206499307Y-70778642D01*
X206934540Y-70487828D01*
X207237372Y-70034609D01*
X207343712Y-69500000D01*
X207237372Y-68965391D01*
X206934540Y-68512172D01*
X206512241Y-68230000D01*
X206934540Y-67947828D01*
X207237372Y-67494609D01*
X207343712Y-66960000D01*
X207237372Y-66425391D01*
X206934540Y-65972172D01*
X206512241Y-65690000D01*
X206934540Y-65407828D01*
X207237372Y-64954609D01*
X207343712Y-64420000D01*
X207237372Y-63885391D01*
X206934540Y-63432172D01*
X206512241Y-63150000D01*
X206934540Y-62867828D01*
X207237372Y-62414609D01*
X207343712Y-61880000D01*
X207237372Y-61345391D01*
X206934540Y-60892172D01*
X206702309Y-60737000D01*
X206801060Y-60737000D01*
X207034449Y-60640327D01*
X207213077Y-60461698D01*
X207309750Y-60228309D01*
X207309750Y-59625750D01*
X207151000Y-59467000D01*
X205703200Y-59467000D01*
X205703200Y-59487000D01*
X205449200Y-59487000D01*
X205449200Y-59467000D01*
X204001400Y-59467000D01*
X203842650Y-59625750D01*
X203842650Y-60228309D01*
X203939323Y-60461698D01*
X203992625Y-60515000D01*
X200656844Y-60515000D01*
X200614090Y-60448559D01*
X200401890Y-60303569D01*
X200150000Y-60252560D01*
X198850000Y-60252560D01*
X198614683Y-60296838D01*
X198398559Y-60435910D01*
X198253569Y-60648110D01*
X198202560Y-60900000D01*
X198202560Y-62400000D01*
X198246838Y-62635317D01*
X198385910Y-62851441D01*
X198598110Y-62996431D01*
X198611197Y-62999081D01*
X198398559Y-63135910D01*
X198344519Y-63215000D01*
X195650000Y-63215000D01*
X195215655Y-63301396D01*
X194847434Y-63547433D01*
X191842308Y-66552560D01*
X191200000Y-66552560D01*
X190964683Y-66596838D01*
X190748559Y-66735910D01*
X190603569Y-66948110D01*
X190552560Y-67200000D01*
X190552560Y-68800000D01*
X190596838Y-69035317D01*
X190735910Y-69251441D01*
X190948110Y-69396431D01*
X191200000Y-69447440D01*
X191842308Y-69447440D01*
X192865000Y-70470132D01*
X192865000Y-109529868D01*
X189519868Y-112875000D01*
X186748920Y-112875000D01*
X186728162Y-112764683D01*
X186589090Y-112548559D01*
X186520994Y-112502031D01*
X186663327Y-112359698D01*
X186760000Y-112126309D01*
X186760000Y-111535750D01*
X186601250Y-111377000D01*
X185627000Y-111377000D01*
X185627000Y-111397000D01*
X185373000Y-111397000D01*
X185373000Y-111377000D01*
X184398750Y-111377000D01*
X184240000Y-111535750D01*
X184240000Y-112126309D01*
X184336673Y-112359698D01*
X184477910Y-112500936D01*
X184423559Y-112535910D01*
X184278569Y-112748110D01*
X184252873Y-112875000D01*
X183582844Y-112875000D01*
X183381170Y-112740246D01*
X183397262Y-112735525D01*
X183831191Y-112385986D01*
X184098327Y-111896996D01*
X184115010Y-111817060D01*
X183992852Y-111597000D01*
X182507000Y-111597000D01*
X182507000Y-111617000D01*
X182253000Y-111617000D01*
X182253000Y-111597000D01*
X180767148Y-111597000D01*
X180644990Y-111817060D01*
X180661673Y-111896996D01*
X180928809Y-112385986D01*
X181362738Y-112735525D01*
X181378830Y-112740246D01*
X180983778Y-113004211D01*
X180976569Y-113015000D01*
X180931844Y-113015000D01*
X180889090Y-112948559D01*
X180676890Y-112803569D01*
X180425000Y-112752560D01*
X179175000Y-112752560D01*
X178939683Y-112796838D01*
X178723559Y-112935910D01*
X178578569Y-113148110D01*
X178527560Y-113400000D01*
X178527560Y-114900000D01*
X178571838Y-115135317D01*
X178710910Y-115351441D01*
X178779006Y-115397969D01*
X178636673Y-115540302D01*
X178540000Y-115773691D01*
X178540000Y-116364250D01*
X178698750Y-116523000D01*
X179673000Y-116523000D01*
X179673000Y-116503000D01*
X179927000Y-116503000D01*
X179927000Y-116523000D01*
X179947000Y-116523000D01*
X179947000Y-116777000D01*
X179927000Y-116777000D01*
X179927000Y-117876250D01*
X180085750Y-118035000D01*
X180551310Y-118035000D01*
X180784699Y-117938327D01*
X180963327Y-117759698D01*
X180995000Y-117683233D01*
X180995000Y-118046314D01*
X179651314Y-119390000D01*
X178348686Y-119390000D01*
X177727440Y-118768754D01*
X177727440Y-118700000D01*
X177683162Y-118464683D01*
X177544090Y-118248559D01*
X177331890Y-118103569D01*
X177080000Y-118052560D01*
X176588826Y-118052560D01*
X176400000Y-118015000D01*
X176211174Y-118052560D01*
X175880000Y-118052560D01*
X175644683Y-118096838D01*
X175428559Y-118235910D01*
X175345462Y-118357527D01*
X175338327Y-118340302D01*
X175159699Y-118161673D01*
X174926310Y-118065000D01*
X174485750Y-118065000D01*
X174327000Y-118223750D01*
X174073000Y-118223750D01*
X173914250Y-118065000D01*
X173473690Y-118065000D01*
X173240301Y-118161673D01*
X173061673Y-118340302D01*
X173054409Y-118357838D01*
X172984090Y-118248559D01*
X172771890Y-118103569D01*
X172520000Y-118052560D01*
X172447768Y-118052560D01*
X172250017Y-117920427D01*
X171994791Y-117869659D01*
X171460132Y-117335000D01*
X174176310Y-117335000D01*
X174200000Y-117325187D01*
X174223690Y-117335000D01*
X177226310Y-117335000D01*
X177459699Y-117238327D01*
X177638327Y-117059698D01*
X177689668Y-116935750D01*
X178540000Y-116935750D01*
X178540000Y-117526309D01*
X178636673Y-117759698D01*
X178815301Y-117938327D01*
X179048690Y-118035000D01*
X179514250Y-118035000D01*
X179673000Y-117876250D01*
X179673000Y-116777000D01*
X178698750Y-116777000D01*
X178540000Y-116935750D01*
X177689668Y-116935750D01*
X177735000Y-116826309D01*
X177735000Y-113523691D01*
X177725187Y-113500000D01*
X177735000Y-113476309D01*
X177735000Y-110173691D01*
X177638327Y-109940302D01*
X177459699Y-109761673D01*
X177226310Y-109665000D01*
X174223690Y-109665000D01*
X174200000Y-109674813D01*
X174176310Y-109665000D01*
X171173690Y-109665000D01*
X170940301Y-109761673D01*
X170761673Y-109940302D01*
X170665000Y-110173691D01*
X170665000Y-113476309D01*
X170674813Y-113500000D01*
X170665000Y-113523691D01*
X170665000Y-116539868D01*
X168555132Y-114430000D01*
X169702567Y-113282565D01*
X169803132Y-113132059D01*
X169948604Y-112914345D01*
X170035001Y-112479999D01*
X170035001Y-108570131D01*
X171202566Y-107402566D01*
X171448603Y-107034345D01*
X171535000Y-106600000D01*
X171448603Y-106165655D01*
X171202566Y-105797434D01*
X170834345Y-105551397D01*
X170400000Y-105465000D01*
X169965655Y-105551397D01*
X169597434Y-105797434D01*
X168097435Y-107297433D01*
X167851398Y-107665653D01*
X167765001Y-108099999D01*
X167765001Y-112009867D01*
X166514579Y-113260289D01*
X166486440Y-113216559D01*
X166274240Y-113071569D01*
X166044663Y-113025079D01*
X166337980Y-112788026D01*
X166599610Y-112307277D01*
X166614570Y-112233070D01*
X166492070Y-112017000D01*
X165050800Y-112017000D01*
X165050800Y-112037000D01*
X164796800Y-112037000D01*
X164796800Y-112017000D01*
X163355530Y-112017000D01*
X163233030Y-112233070D01*
X163247990Y-112307277D01*
X163509620Y-112788026D01*
X163802616Y-113024819D01*
X163589933Y-113064838D01*
X163373809Y-113203910D01*
X163228819Y-113416110D01*
X163177810Y-113668000D01*
X160710000Y-113668000D01*
X160710000Y-109350000D01*
X163156288Y-109350000D01*
X163262628Y-109884609D01*
X163565460Y-110337828D01*
X164000693Y-110628642D01*
X163935309Y-110647941D01*
X163509620Y-110991974D01*
X163247990Y-111472723D01*
X163233030Y-111546930D01*
X163355530Y-111763000D01*
X164796800Y-111763000D01*
X164796800Y-111743000D01*
X165050800Y-111743000D01*
X165050800Y-111763000D01*
X166492070Y-111763000D01*
X166614570Y-111546930D01*
X166599610Y-111472723D01*
X166337980Y-110991974D01*
X165912291Y-110647941D01*
X165846907Y-110628642D01*
X166282140Y-110337828D01*
X166584972Y-109884609D01*
X166691312Y-109350000D01*
X166584972Y-108815391D01*
X166282140Y-108362172D01*
X165846907Y-108071358D01*
X165912291Y-108052059D01*
X166337980Y-107708026D01*
X166599610Y-107227277D01*
X166614570Y-107153070D01*
X166492070Y-106937000D01*
X165050800Y-106937000D01*
X165050800Y-106957000D01*
X164796800Y-106957000D01*
X164796800Y-106937000D01*
X163355530Y-106937000D01*
X163233030Y-107153070D01*
X163247990Y-107227277D01*
X163509620Y-107708026D01*
X163935309Y-108052059D01*
X164000693Y-108071358D01*
X163565460Y-108362172D01*
X163262628Y-108815391D01*
X163156288Y-109350000D01*
X160710000Y-109350000D01*
X160710000Y-104613070D01*
X163233030Y-104613070D01*
X163247990Y-104687277D01*
X163509620Y-105168026D01*
X163935309Y-105512059D01*
X164029973Y-105540000D01*
X163935309Y-105567941D01*
X163509620Y-105911974D01*
X163247990Y-106392723D01*
X163233030Y-106466930D01*
X163355530Y-106683000D01*
X164796800Y-106683000D01*
X164796800Y-104397000D01*
X165050800Y-104397000D01*
X165050800Y-106683000D01*
X166492070Y-106683000D01*
X166614570Y-106466930D01*
X166599610Y-106392723D01*
X166337980Y-105911974D01*
X165912291Y-105567941D01*
X165817627Y-105540000D01*
X165912291Y-105512059D01*
X166337980Y-105168026D01*
X166599610Y-104687277D01*
X166614570Y-104613070D01*
X166492070Y-104397000D01*
X165050800Y-104397000D01*
X164796800Y-104397000D01*
X163355530Y-104397000D01*
X163233030Y-104613070D01*
X160710000Y-104613070D01*
X160710000Y-99190000D01*
X163156288Y-99190000D01*
X163262628Y-99724609D01*
X163565460Y-100177828D01*
X163987759Y-100460000D01*
X163565460Y-100742172D01*
X163262628Y-101195391D01*
X163156288Y-101730000D01*
X163262628Y-102264609D01*
X163565460Y-102717828D01*
X164000693Y-103008642D01*
X163935309Y-103027941D01*
X163509620Y-103371974D01*
X163247990Y-103852723D01*
X163233030Y-103926930D01*
X163355530Y-104143000D01*
X164796800Y-104143000D01*
X164796800Y-104123000D01*
X165050800Y-104123000D01*
X165050800Y-104143000D01*
X166492070Y-104143000D01*
X166614570Y-103926930D01*
X166599610Y-103852723D01*
X166337980Y-103371974D01*
X166044760Y-103135000D01*
X169062560Y-103135000D01*
X169062560Y-103500000D01*
X169106838Y-103735317D01*
X169245910Y-103951441D01*
X169458110Y-104096431D01*
X169710000Y-104147440D01*
X171710000Y-104147440D01*
X171865000Y-104118275D01*
X171865000Y-104476310D01*
X171961673Y-104709699D01*
X172140302Y-104888327D01*
X172373691Y-104985000D01*
X172964250Y-104985000D01*
X173123000Y-104826250D01*
X173123000Y-103827000D01*
X173103000Y-103827000D01*
X173103000Y-103573000D01*
X173123000Y-103573000D01*
X173123000Y-102573750D01*
X173049250Y-102500000D01*
X173123000Y-102426250D01*
X173123000Y-101427000D01*
X173103000Y-101427000D01*
X173103000Y-101173000D01*
X173123000Y-101173000D01*
X173123000Y-100173750D01*
X172964250Y-100015000D01*
X172373691Y-100015000D01*
X172140302Y-100111673D01*
X171961673Y-100290301D01*
X171865000Y-100523690D01*
X171865000Y-100883948D01*
X171710000Y-100852560D01*
X169710000Y-100852560D01*
X169643887Y-100865000D01*
X166364211Y-100865000D01*
X166282140Y-100742172D01*
X165859841Y-100460000D01*
X166282140Y-100177828D01*
X166310757Y-100135000D01*
X168000000Y-100135000D01*
X168434346Y-100048603D01*
X168802566Y-99802566D01*
X169458081Y-99147051D01*
X169460000Y-99147440D01*
X171460000Y-99147440D01*
X171615000Y-99118275D01*
X171615000Y-99476310D01*
X171711673Y-99709699D01*
X171890302Y-99888327D01*
X172123691Y-99985000D01*
X172714250Y-99985000D01*
X172873000Y-99826250D01*
X172873000Y-98827000D01*
X172853000Y-98827000D01*
X172853000Y-98573000D01*
X172873000Y-98573000D01*
X172873000Y-97573750D01*
X172799250Y-97500000D01*
X172873000Y-97426250D01*
X172873000Y-96427000D01*
X172853000Y-96427000D01*
X172853000Y-96173000D01*
X172873000Y-96173000D01*
X172873000Y-95173750D01*
X172714250Y-95015000D01*
X172123691Y-95015000D01*
X171890302Y-95111673D01*
X171711673Y-95290301D01*
X171615000Y-95523690D01*
X171615000Y-95883948D01*
X171460000Y-95852560D01*
X169460000Y-95852560D01*
X169224683Y-95896838D01*
X169008559Y-96035910D01*
X168863569Y-96248110D01*
X168812560Y-96500000D01*
X168812560Y-96620509D01*
X168697434Y-96697434D01*
X167529868Y-97865000D01*
X165945772Y-97865000D01*
X166337980Y-97548026D01*
X166599610Y-97067277D01*
X166614570Y-96993070D01*
X166492070Y-96777000D01*
X165050800Y-96777000D01*
X165050800Y-96797000D01*
X164796800Y-96797000D01*
X164796800Y-96777000D01*
X163355530Y-96777000D01*
X163233030Y-96993070D01*
X163247990Y-97067277D01*
X163509620Y-97548026D01*
X163935309Y-97892059D01*
X164000693Y-97911358D01*
X163565460Y-98202172D01*
X163262628Y-98655391D01*
X163156288Y-99190000D01*
X160710000Y-99190000D01*
X160710000Y-94110000D01*
X163156288Y-94110000D01*
X163262628Y-94644609D01*
X163565460Y-95097828D01*
X164000693Y-95388642D01*
X163935309Y-95407941D01*
X163509620Y-95751974D01*
X163247990Y-96232723D01*
X163233030Y-96306930D01*
X163355530Y-96523000D01*
X164796800Y-96523000D01*
X164796800Y-96503000D01*
X165050800Y-96503000D01*
X165050800Y-96523000D01*
X166492070Y-96523000D01*
X166614570Y-96306930D01*
X166599610Y-96232723D01*
X166337980Y-95751974D01*
X165912291Y-95407941D01*
X165846907Y-95388642D01*
X165927188Y-95335000D01*
X167800000Y-95335000D01*
X168234346Y-95248603D01*
X168602566Y-95002566D01*
X169500181Y-94104951D01*
X169710000Y-94147440D01*
X171710000Y-94147440D01*
X171865000Y-94118275D01*
X171865000Y-94476310D01*
X171961673Y-94709699D01*
X172140302Y-94888327D01*
X172373691Y-94985000D01*
X172964250Y-94985000D01*
X173123000Y-94826250D01*
X173123000Y-93827000D01*
X173103000Y-93827000D01*
X173103000Y-93573000D01*
X173123000Y-93573000D01*
X173123000Y-92573750D01*
X173049250Y-92500000D01*
X173123000Y-92426250D01*
X173123000Y-91427000D01*
X173103000Y-91427000D01*
X173103000Y-91173000D01*
X173123000Y-91173000D01*
X173123000Y-90173750D01*
X172964250Y-90015000D01*
X172373691Y-90015000D01*
X172140302Y-90111673D01*
X171961673Y-90290301D01*
X171865000Y-90523690D01*
X171865000Y-90883948D01*
X171710000Y-90852560D01*
X169710000Y-90852560D01*
X169474683Y-90896838D01*
X169258559Y-91035910D01*
X169113569Y-91248110D01*
X169072686Y-91449998D01*
X169065654Y-91451397D01*
X168702081Y-91694329D01*
X168697434Y-91697434D01*
X167329868Y-93065000D01*
X166196576Y-93065000D01*
X165846907Y-92831358D01*
X165912291Y-92812059D01*
X166337980Y-92468026D01*
X166599610Y-91987277D01*
X166614570Y-91913070D01*
X166492070Y-91697000D01*
X165050800Y-91697000D01*
X165050800Y-91717000D01*
X164796800Y-91717000D01*
X164796800Y-91697000D01*
X163355530Y-91697000D01*
X163233030Y-91913070D01*
X163247990Y-91987277D01*
X163509620Y-92468026D01*
X163935309Y-92812059D01*
X164000693Y-92831358D01*
X163565460Y-93122172D01*
X163262628Y-93575391D01*
X163156288Y-94110000D01*
X160710000Y-94110000D01*
X160710000Y-91226930D01*
X163233030Y-91226930D01*
X163355530Y-91443000D01*
X164796800Y-91443000D01*
X164796800Y-90173000D01*
X165050800Y-90173000D01*
X165050800Y-91443000D01*
X166492070Y-91443000D01*
X166614570Y-91226930D01*
X166599610Y-91152723D01*
X166337980Y-90671974D01*
X165912291Y-90327941D01*
X165387350Y-90173000D01*
X165050800Y-90173000D01*
X164796800Y-90173000D01*
X164460250Y-90173000D01*
X163935309Y-90327941D01*
X163509620Y-90671974D01*
X163247990Y-91152723D01*
X163233030Y-91226930D01*
X160710000Y-91226930D01*
X160710000Y-74650000D01*
X163156288Y-74650000D01*
X163262628Y-75184609D01*
X163565460Y-75637828D01*
X163987759Y-75920000D01*
X163565460Y-76202172D01*
X163262628Y-76655391D01*
X163156288Y-77190000D01*
X163262628Y-77724609D01*
X163565460Y-78177828D01*
X163987759Y-78460000D01*
X163565460Y-78742172D01*
X163262628Y-79195391D01*
X163156288Y-79730000D01*
X163262628Y-80264609D01*
X163565460Y-80717828D01*
X164000693Y-81008642D01*
X163935309Y-81027941D01*
X163509620Y-81371974D01*
X163247990Y-81852723D01*
X163233030Y-81926930D01*
X163355530Y-82143000D01*
X164796800Y-82143000D01*
X164796800Y-82123000D01*
X165050800Y-82123000D01*
X165050800Y-82143000D01*
X165070800Y-82143000D01*
X165070800Y-82397000D01*
X165050800Y-82397000D01*
X165050800Y-82417000D01*
X164796800Y-82417000D01*
X164796800Y-82397000D01*
X163355530Y-82397000D01*
X163233030Y-82613070D01*
X163247990Y-82687277D01*
X163509620Y-83168026D01*
X163935309Y-83512059D01*
X164000693Y-83531358D01*
X163565460Y-83822172D01*
X163262628Y-84275391D01*
X163156288Y-84810000D01*
X163262628Y-85344609D01*
X163565460Y-85797828D01*
X163789219Y-85947340D01*
X163589933Y-85984838D01*
X163373809Y-86123910D01*
X163228819Y-86336110D01*
X163177810Y-86588000D01*
X163177810Y-88112000D01*
X163222088Y-88347317D01*
X163361160Y-88563441D01*
X163573360Y-88708431D01*
X163825250Y-88759440D01*
X166022350Y-88759440D01*
X166257667Y-88715162D01*
X166473791Y-88576090D01*
X166618781Y-88363890D01*
X166669790Y-88112000D01*
X166669790Y-86674922D01*
X167594897Y-87600029D01*
X167661397Y-87934346D01*
X167907434Y-88302566D01*
X168275654Y-88548603D01*
X168710000Y-88635000D01*
X169087962Y-88635000D01*
X169106838Y-88735317D01*
X169245910Y-88951441D01*
X169458110Y-89096431D01*
X169710000Y-89147440D01*
X171710000Y-89147440D01*
X171865000Y-89118275D01*
X171865000Y-89476310D01*
X171961673Y-89709699D01*
X172140302Y-89888327D01*
X172373691Y-89985000D01*
X172964250Y-89985000D01*
X173123000Y-89826250D01*
X173123000Y-88827000D01*
X173103000Y-88827000D01*
X173103000Y-88573000D01*
X173123000Y-88573000D01*
X173123000Y-87573750D01*
X173049250Y-87500000D01*
X173123000Y-87426250D01*
X173123000Y-86427000D01*
X173103000Y-86427000D01*
X173103000Y-86173000D01*
X173123000Y-86173000D01*
X173123000Y-85173750D01*
X172964250Y-85015000D01*
X172373691Y-85015000D01*
X172140302Y-85111673D01*
X171961673Y-85290301D01*
X171865000Y-85523690D01*
X171865000Y-85883948D01*
X171710000Y-85852560D01*
X169710000Y-85852560D01*
X169474683Y-85896838D01*
X169258559Y-86035910D01*
X169251449Y-86046317D01*
X167212566Y-84007434D01*
X167147697Y-83964090D01*
X166844346Y-83761397D01*
X166410000Y-83675000D01*
X166061882Y-83675000D01*
X165846907Y-83531358D01*
X165912291Y-83512059D01*
X166337980Y-83168026D01*
X166384097Y-83083285D01*
X166597434Y-83402566D01*
X166965654Y-83648603D01*
X167400000Y-83735000D01*
X168856778Y-83735000D01*
X168856838Y-83735317D01*
X168995910Y-83951441D01*
X169208110Y-84096431D01*
X169460000Y-84147440D01*
X171460000Y-84147440D01*
X171615000Y-84118275D01*
X171615000Y-84476310D01*
X171711673Y-84709699D01*
X171890302Y-84888327D01*
X172123691Y-84985000D01*
X172714250Y-84985000D01*
X172873000Y-84826250D01*
X172873000Y-83827000D01*
X172853000Y-83827000D01*
X172853000Y-83573000D01*
X172873000Y-83573000D01*
X172873000Y-82573750D01*
X172799250Y-82500000D01*
X172873000Y-82426250D01*
X172873000Y-81427000D01*
X172853000Y-81427000D01*
X172853000Y-81173000D01*
X172873000Y-81173000D01*
X172873000Y-80173750D01*
X172714250Y-80015000D01*
X172123691Y-80015000D01*
X171890302Y-80111673D01*
X171711673Y-80290301D01*
X171615000Y-80523690D01*
X171615000Y-80883948D01*
X171460000Y-80852560D01*
X169460000Y-80852560D01*
X169224683Y-80896838D01*
X169008559Y-81035910D01*
X168863569Y-81248110D01*
X168819648Y-81465000D01*
X167400000Y-81465000D01*
X166965654Y-81551397D01*
X166597434Y-81797434D01*
X166582050Y-81820457D01*
X166337980Y-81371974D01*
X165912291Y-81027941D01*
X165846907Y-81008642D01*
X166282140Y-80717828D01*
X166584972Y-80264609D01*
X166691312Y-79730000D01*
X166584972Y-79195391D01*
X166282140Y-78742172D01*
X165859841Y-78460000D01*
X166282140Y-78177828D01*
X166584972Y-77724609D01*
X166691312Y-77190000D01*
X166584972Y-76655391D01*
X166282140Y-76202172D01*
X165859841Y-75920000D01*
X166061882Y-75785000D01*
X167639868Y-75785000D01*
X168812560Y-76957692D01*
X168812560Y-78000000D01*
X168856838Y-78235317D01*
X168995910Y-78451441D01*
X169208110Y-78596431D01*
X169460000Y-78647440D01*
X171460000Y-78647440D01*
X171615000Y-78618275D01*
X171615000Y-78976310D01*
X171711673Y-79209699D01*
X171890302Y-79388327D01*
X172123691Y-79485000D01*
X172714250Y-79485000D01*
X172873000Y-79326250D01*
X172873000Y-78327000D01*
X172853000Y-78327000D01*
X172853000Y-78073000D01*
X172873000Y-78073000D01*
X172873000Y-77073750D01*
X172799250Y-77000000D01*
X172873000Y-76926250D01*
X172873000Y-75927000D01*
X172853000Y-75927000D01*
X172853000Y-75673000D01*
X172873000Y-75673000D01*
X172873000Y-74673750D01*
X173127000Y-74673750D01*
X173127000Y-75673000D01*
X173147000Y-75673000D01*
X173147000Y-75927000D01*
X173127000Y-75927000D01*
X173127000Y-76926250D01*
X173200750Y-77000000D01*
X173127000Y-77073750D01*
X173127000Y-78073000D01*
X173147000Y-78073000D01*
X173147000Y-78327000D01*
X173127000Y-78327000D01*
X173127000Y-79326250D01*
X173285750Y-79485000D01*
X173876309Y-79485000D01*
X174109698Y-79388327D01*
X174288327Y-79209699D01*
X174385000Y-78976310D01*
X174385000Y-78616052D01*
X174540000Y-78647440D01*
X176540000Y-78647440D01*
X176775317Y-78603162D01*
X176991441Y-78464090D01*
X177136431Y-78251890D01*
X177160102Y-78135000D01*
X179750000Y-78135000D01*
X180184346Y-78048603D01*
X180552566Y-77802566D01*
X180589560Y-77747201D01*
X180589560Y-79237400D01*
X180633838Y-79472717D01*
X180772910Y-79688841D01*
X180985110Y-79833831D01*
X181156803Y-79868600D01*
X180983778Y-79984211D01*
X180675441Y-80445671D01*
X180567167Y-80990000D01*
X180675441Y-81534329D01*
X180983778Y-81995789D01*
X181379199Y-82260000D01*
X180983778Y-82524211D01*
X180675441Y-82985671D01*
X180567167Y-83530000D01*
X180675441Y-84074329D01*
X180983778Y-84535789D01*
X181379199Y-84800000D01*
X181177156Y-84935000D01*
X181040132Y-84935000D01*
X177802566Y-81697434D01*
X177434346Y-81451397D01*
X177168339Y-81398485D01*
X177143162Y-81264683D01*
X177004090Y-81048559D01*
X176791890Y-80903569D01*
X176540000Y-80852560D01*
X174540000Y-80852560D01*
X174385000Y-80881725D01*
X174385000Y-80523690D01*
X174288327Y-80290301D01*
X174109698Y-80111673D01*
X173876309Y-80015000D01*
X173285750Y-80015000D01*
X173127000Y-80173750D01*
X173127000Y-81173000D01*
X173147000Y-81173000D01*
X173147000Y-81427000D01*
X173127000Y-81427000D01*
X173127000Y-82426250D01*
X173200750Y-82500000D01*
X173127000Y-82573750D01*
X173127000Y-83573000D01*
X173147000Y-83573000D01*
X173147000Y-83827000D01*
X173127000Y-83827000D01*
X173127000Y-84826250D01*
X173285750Y-84985000D01*
X173876309Y-84985000D01*
X174109698Y-84888327D01*
X174288327Y-84709699D01*
X174385000Y-84476310D01*
X174385000Y-84116052D01*
X174540000Y-84147440D01*
X176540000Y-84147440D01*
X176775317Y-84103162D01*
X176910830Y-84015962D01*
X179767434Y-86872566D01*
X180135654Y-87118603D01*
X180570000Y-87205000D01*
X181177156Y-87205000D01*
X181379199Y-87340000D01*
X181177156Y-87475000D01*
X179580132Y-87475000D01*
X178802566Y-86697434D01*
X178700656Y-86629340D01*
X178434346Y-86451397D01*
X178000000Y-86365000D01*
X177412038Y-86365000D01*
X177393162Y-86264683D01*
X177254090Y-86048559D01*
X177041890Y-85903569D01*
X176790000Y-85852560D01*
X174790000Y-85852560D01*
X174635000Y-85881725D01*
X174635000Y-85523690D01*
X174538327Y-85290301D01*
X174359698Y-85111673D01*
X174126309Y-85015000D01*
X173535750Y-85015000D01*
X173377000Y-85173750D01*
X173377000Y-86173000D01*
X173397000Y-86173000D01*
X173397000Y-86427000D01*
X173377000Y-86427000D01*
X173377000Y-87426250D01*
X173450750Y-87500000D01*
X173377000Y-87573750D01*
X173377000Y-88573000D01*
X173397000Y-88573000D01*
X173397000Y-88827000D01*
X173377000Y-88827000D01*
X173377000Y-89826250D01*
X173535750Y-89985000D01*
X174126309Y-89985000D01*
X174359698Y-89888327D01*
X174538327Y-89709699D01*
X174635000Y-89476310D01*
X174635000Y-89116052D01*
X174790000Y-89147440D01*
X176790000Y-89147440D01*
X177025317Y-89103162D01*
X177241441Y-88964090D01*
X177386431Y-88751890D01*
X177410102Y-88635000D01*
X177529868Y-88635000D01*
X178307434Y-89412566D01*
X178675654Y-89658603D01*
X179110000Y-89745000D01*
X181177156Y-89745000D01*
X181379199Y-89880000D01*
X181177156Y-90015000D01*
X179350000Y-90015000D01*
X178915654Y-90101397D01*
X178547434Y-90347434D01*
X177529868Y-91365000D01*
X177412038Y-91365000D01*
X177393162Y-91264683D01*
X177254090Y-91048559D01*
X177041890Y-90903569D01*
X176790000Y-90852560D01*
X174790000Y-90852560D01*
X174635000Y-90881725D01*
X174635000Y-90523690D01*
X174538327Y-90290301D01*
X174359698Y-90111673D01*
X174126309Y-90015000D01*
X173535750Y-90015000D01*
X173377000Y-90173750D01*
X173377000Y-91173000D01*
X173397000Y-91173000D01*
X173397000Y-91427000D01*
X173377000Y-91427000D01*
X173377000Y-92426250D01*
X173450750Y-92500000D01*
X173377000Y-92573750D01*
X173377000Y-93573000D01*
X173397000Y-93573000D01*
X173397000Y-93827000D01*
X173377000Y-93827000D01*
X173377000Y-94826250D01*
X173535750Y-94985000D01*
X174126309Y-94985000D01*
X174359698Y-94888327D01*
X174538327Y-94709699D01*
X174635000Y-94476310D01*
X174635000Y-94116052D01*
X174790000Y-94147440D01*
X176790000Y-94147440D01*
X177025317Y-94103162D01*
X177241441Y-93964090D01*
X177386431Y-93751890D01*
X177410102Y-93635000D01*
X178000000Y-93635000D01*
X178434346Y-93548603D01*
X178802566Y-93302566D01*
X179820132Y-92285000D01*
X181177156Y-92285000D01*
X181379199Y-92420000D01*
X181120847Y-92592625D01*
X180875655Y-92641396D01*
X180507434Y-92887434D01*
X177138081Y-96256787D01*
X177004090Y-96048559D01*
X176791890Y-95903569D01*
X176540000Y-95852560D01*
X174540000Y-95852560D01*
X174385000Y-95881725D01*
X174385000Y-95523690D01*
X174288327Y-95290301D01*
X174109698Y-95111673D01*
X173876309Y-95015000D01*
X173285750Y-95015000D01*
X173127000Y-95173750D01*
X173127000Y-96173000D01*
X173147000Y-96173000D01*
X173147000Y-96427000D01*
X173127000Y-96427000D01*
X173127000Y-97426250D01*
X173200750Y-97500000D01*
X173127000Y-97573750D01*
X173127000Y-98573000D01*
X173147000Y-98573000D01*
X173147000Y-98827000D01*
X173127000Y-98827000D01*
X173127000Y-99826250D01*
X173285750Y-99985000D01*
X173876309Y-99985000D01*
X174109698Y-99888327D01*
X174288327Y-99709699D01*
X174385000Y-99476310D01*
X174385000Y-99116052D01*
X174540000Y-99147440D01*
X176540000Y-99147440D01*
X176775317Y-99103162D01*
X176991441Y-98964090D01*
X177136431Y-98751890D01*
X177160102Y-98635000D01*
X177500000Y-98635000D01*
X177934346Y-98548603D01*
X178302566Y-98302566D01*
X178429526Y-98175606D01*
X178365000Y-98500000D01*
X178365000Y-101029867D01*
X178029868Y-101365000D01*
X177412038Y-101365000D01*
X177393162Y-101264683D01*
X177254090Y-101048559D01*
X177041890Y-100903569D01*
X176790000Y-100852560D01*
X174790000Y-100852560D01*
X174635000Y-100881725D01*
X174635000Y-100523690D01*
X174538327Y-100290301D01*
X174359698Y-100111673D01*
X174126309Y-100015000D01*
X173535750Y-100015000D01*
X173377000Y-100173750D01*
X173377000Y-101173000D01*
X173397000Y-101173000D01*
X173397000Y-101427000D01*
X173377000Y-101427000D01*
X173377000Y-102426250D01*
X173450750Y-102500000D01*
X173377000Y-102573750D01*
X173377000Y-103573000D01*
X173397000Y-103573000D01*
X173397000Y-103827000D01*
X173377000Y-103827000D01*
X173377000Y-104826250D01*
X173535750Y-104985000D01*
X174126309Y-104985000D01*
X174359698Y-104888327D01*
X174538327Y-104709699D01*
X174635000Y-104476310D01*
X174635000Y-104116052D01*
X174790000Y-104147440D01*
X176790000Y-104147440D01*
X177025317Y-104103162D01*
X177241441Y-103964090D01*
X177386431Y-103751890D01*
X177410102Y-103635000D01*
X178500000Y-103635000D01*
X178934346Y-103548603D01*
X179302566Y-103302566D01*
X180302567Y-102302566D01*
X180548604Y-101934345D01*
X180619980Y-101575510D01*
X180675441Y-101854329D01*
X180983778Y-102315789D01*
X181379199Y-102580000D01*
X180983778Y-102844211D01*
X180675441Y-103305671D01*
X180567167Y-103850000D01*
X180675441Y-104394329D01*
X180983778Y-104855789D01*
X181379199Y-105120000D01*
X180983778Y-105384211D01*
X180675441Y-105845671D01*
X180567167Y-106390000D01*
X180675441Y-106934329D01*
X180983778Y-107395789D01*
X181379199Y-107660000D01*
X180983778Y-107924211D01*
X180675441Y-108385671D01*
X180567167Y-108930000D01*
X180675441Y-109474329D01*
X180983778Y-109935789D01*
X181378830Y-110199754D01*
X181362738Y-110204475D01*
X180928809Y-110554014D01*
X180661673Y-111043004D01*
X180644990Y-111122940D01*
X180767148Y-111343000D01*
X182253000Y-111343000D01*
X182253000Y-111323000D01*
X182507000Y-111323000D01*
X182507000Y-111343000D01*
X183992852Y-111343000D01*
X184115010Y-111122940D01*
X184098327Y-111043004D01*
X183831191Y-110554014D01*
X183607333Y-110373691D01*
X184240000Y-110373691D01*
X184240000Y-110964250D01*
X184398750Y-111123000D01*
X185373000Y-111123000D01*
X185373000Y-110023750D01*
X185627000Y-110023750D01*
X185627000Y-111123000D01*
X186601250Y-111123000D01*
X186760000Y-110964250D01*
X186760000Y-110373691D01*
X186663327Y-110140302D01*
X186484699Y-109961673D01*
X186251310Y-109865000D01*
X185785750Y-109865000D01*
X185627000Y-110023750D01*
X185373000Y-110023750D01*
X185214250Y-109865000D01*
X184748690Y-109865000D01*
X184515301Y-109961673D01*
X184336673Y-110140302D01*
X184240000Y-110373691D01*
X183607333Y-110373691D01*
X183397262Y-110204475D01*
X183381170Y-110199754D01*
X183776222Y-109935789D01*
X184084559Y-109474329D01*
X184192833Y-108930000D01*
X184084559Y-108385671D01*
X183776222Y-107924211D01*
X183380801Y-107660000D01*
X183776222Y-107395789D01*
X184084559Y-106934329D01*
X184192833Y-106390000D01*
X184084559Y-105845671D01*
X183856841Y-105504866D01*
X183990301Y-105638327D01*
X184223690Y-105735000D01*
X184714250Y-105735000D01*
X184873000Y-105576250D01*
X184873000Y-104477000D01*
X185127000Y-104477000D01*
X185127000Y-105576250D01*
X185285750Y-105735000D01*
X185776310Y-105735000D01*
X186009699Y-105638327D01*
X186188327Y-105459698D01*
X186285000Y-105226309D01*
X186285000Y-104635750D01*
X186126250Y-104477000D01*
X185127000Y-104477000D01*
X184873000Y-104477000D01*
X184853000Y-104477000D01*
X184853000Y-104223000D01*
X184873000Y-104223000D01*
X184873000Y-104203000D01*
X185127000Y-104203000D01*
X185127000Y-104223000D01*
X186126250Y-104223000D01*
X186285000Y-104064250D01*
X186285000Y-103473691D01*
X186188327Y-103240302D01*
X186009699Y-103061673D01*
X185873713Y-103005346D01*
X185885317Y-103003162D01*
X186101441Y-102864090D01*
X186246431Y-102651890D01*
X186297440Y-102400000D01*
X186297440Y-100900000D01*
X186253162Y-100664683D01*
X186114090Y-100448559D01*
X185901890Y-100303569D01*
X185650000Y-100252560D01*
X185049920Y-100252560D01*
X185024180Y-100247440D01*
X185650000Y-100247440D01*
X185885317Y-100203162D01*
X186101441Y-100064090D01*
X186246431Y-99851890D01*
X186297440Y-99600000D01*
X186297440Y-98100000D01*
X186253162Y-97864683D01*
X186114090Y-97648559D01*
X185901890Y-97503569D01*
X185868510Y-97496809D01*
X186009699Y-97438327D01*
X186188327Y-97259698D01*
X186285000Y-97026309D01*
X186285000Y-96435750D01*
X186126250Y-96277000D01*
X185127000Y-96277000D01*
X185127000Y-96297000D01*
X184873000Y-96297000D01*
X184873000Y-96277000D01*
X184853000Y-96277000D01*
X184853000Y-96023000D01*
X184873000Y-96023000D01*
X184873000Y-94923750D01*
X185127000Y-94923750D01*
X185127000Y-96023000D01*
X186126250Y-96023000D01*
X186285000Y-95864250D01*
X186285000Y-95273691D01*
X186188327Y-95040302D01*
X186009699Y-94861673D01*
X185776310Y-94765000D01*
X185285750Y-94765000D01*
X185127000Y-94923750D01*
X184873000Y-94923750D01*
X184714250Y-94765000D01*
X184223690Y-94765000D01*
X183990301Y-94861673D01*
X183811673Y-95040302D01*
X183744324Y-95202897D01*
X183380801Y-94960000D01*
X183776222Y-94695789D01*
X184084559Y-94234329D01*
X184192833Y-93690000D01*
X184084559Y-93145671D01*
X183776222Y-92684211D01*
X183380801Y-92420000D01*
X183776222Y-92155789D01*
X184084559Y-91694329D01*
X184192833Y-91150000D01*
X184084559Y-90605671D01*
X183776222Y-90144211D01*
X183380801Y-89880000D01*
X183776222Y-89615789D01*
X184084559Y-89154329D01*
X184192833Y-88610000D01*
X184084559Y-88065671D01*
X183776222Y-87604211D01*
X183380801Y-87340000D01*
X183665157Y-87150000D01*
X185452560Y-87150000D01*
X185452560Y-89150000D01*
X185496838Y-89385317D01*
X185635910Y-89601441D01*
X185848110Y-89746431D01*
X186100000Y-89797440D01*
X189723329Y-89797440D01*
X189702560Y-89900000D01*
X189702560Y-91400000D01*
X189746838Y-91635317D01*
X189885910Y-91851441D01*
X190098110Y-91996431D01*
X190111197Y-91999081D01*
X189898559Y-92135910D01*
X189753569Y-92348110D01*
X189702560Y-92600000D01*
X189702560Y-94100000D01*
X189746838Y-94335317D01*
X189865000Y-94518946D01*
X189865000Y-98500000D01*
X189951397Y-98934346D01*
X190197434Y-99302566D01*
X190565654Y-99548603D01*
X191000000Y-99635000D01*
X191434346Y-99548603D01*
X191802566Y-99302566D01*
X192048603Y-98934346D01*
X192135000Y-98500000D01*
X192135000Y-94514975D01*
X192246431Y-94351890D01*
X192297440Y-94100000D01*
X192297440Y-92600000D01*
X192253162Y-92364683D01*
X192114090Y-92148559D01*
X191901890Y-92003569D01*
X191888803Y-92000919D01*
X192101441Y-91864090D01*
X192246431Y-91651890D01*
X192297440Y-91400000D01*
X192297440Y-89900000D01*
X192253162Y-89664683D01*
X192135000Y-89481054D01*
X192135000Y-82550000D01*
X192048603Y-82115654D01*
X192018804Y-82071057D01*
X191802566Y-81747433D01*
X191697440Y-81642307D01*
X191697440Y-80850000D01*
X191653162Y-80614683D01*
X191514090Y-80398559D01*
X191301890Y-80253569D01*
X191050000Y-80202560D01*
X189550000Y-80202560D01*
X189314683Y-80246838D01*
X189148523Y-80353759D01*
X189135000Y-80344519D01*
X189135000Y-79470132D01*
X189602566Y-79002566D01*
X189681559Y-78884345D01*
X189848603Y-78634346D01*
X189935000Y-78200000D01*
X189935000Y-68894606D01*
X190015824Y-68813923D01*
X190234750Y-68286691D01*
X190235248Y-67715813D01*
X190017243Y-67188200D01*
X189613923Y-66784176D01*
X189086691Y-66565250D01*
X188515813Y-66564752D01*
X187988200Y-66782757D01*
X187584176Y-67186077D01*
X187365250Y-67713309D01*
X187364752Y-68284187D01*
X187582757Y-68811800D01*
X187665000Y-68894187D01*
X187665000Y-77729868D01*
X187197434Y-78197434D01*
X186951397Y-78565654D01*
X186865000Y-79000000D01*
X186865000Y-80343156D01*
X186850508Y-80352482D01*
X186809699Y-80311673D01*
X186576310Y-80215000D01*
X185985750Y-80215000D01*
X185827000Y-80373750D01*
X185827000Y-81723000D01*
X185847000Y-81723000D01*
X185847000Y-81977000D01*
X185827000Y-81977000D01*
X185827000Y-83326250D01*
X185985750Y-83485000D01*
X186576310Y-83485000D01*
X186809699Y-83388327D01*
X186851660Y-83346366D01*
X186998110Y-83446431D01*
X187250000Y-83497440D01*
X188750000Y-83497440D01*
X188985317Y-83453162D01*
X189151477Y-83346241D01*
X189298110Y-83446431D01*
X189550000Y-83497440D01*
X189865000Y-83497440D01*
X189865000Y-86502560D01*
X186100000Y-86502560D01*
X185864683Y-86546838D01*
X185648559Y-86685910D01*
X185503569Y-86898110D01*
X185452560Y-87150000D01*
X183665157Y-87150000D01*
X183776222Y-87075789D01*
X184084559Y-86614329D01*
X184192833Y-86070000D01*
X184084559Y-85525671D01*
X183776222Y-85064211D01*
X183380801Y-84800000D01*
X183776222Y-84535789D01*
X184084559Y-84074329D01*
X184192833Y-83530000D01*
X184084559Y-82985671D01*
X183776222Y-82524211D01*
X183380801Y-82260000D01*
X183566754Y-82135750D01*
X184315000Y-82135750D01*
X184315000Y-82976309D01*
X184411673Y-83209698D01*
X184590301Y-83388327D01*
X184823690Y-83485000D01*
X185414250Y-83485000D01*
X185573000Y-83326250D01*
X185573000Y-81977000D01*
X184473750Y-81977000D01*
X184315000Y-82135750D01*
X183566754Y-82135750D01*
X183776222Y-81995789D01*
X184084559Y-81534329D01*
X184192833Y-80990000D01*
X184139861Y-80723691D01*
X184315000Y-80723691D01*
X184315000Y-81564250D01*
X184473750Y-81723000D01*
X185573000Y-81723000D01*
X185573000Y-80373750D01*
X185414250Y-80215000D01*
X184823690Y-80215000D01*
X184590301Y-80311673D01*
X184411673Y-80490302D01*
X184315000Y-80723691D01*
X184139861Y-80723691D01*
X184084559Y-80445671D01*
X183776222Y-79984211D01*
X183604540Y-79869497D01*
X183758317Y-79840562D01*
X183974441Y-79701490D01*
X184054035Y-79585000D01*
X184435025Y-79585000D01*
X184598110Y-79696431D01*
X184850000Y-79747440D01*
X186150000Y-79747440D01*
X186385317Y-79703162D01*
X186601441Y-79564090D01*
X186746431Y-79351890D01*
X186797440Y-79100000D01*
X186797440Y-77600000D01*
X186753162Y-77364683D01*
X186614090Y-77148559D01*
X186401890Y-77003569D01*
X186388803Y-77000919D01*
X186601441Y-76864090D01*
X186746431Y-76651890D01*
X186797440Y-76400000D01*
X186797440Y-74900000D01*
X186753162Y-74664683D01*
X186635000Y-74481054D01*
X186635000Y-66050000D01*
X186548603Y-65615654D01*
X186302566Y-65247434D01*
X185197440Y-64142308D01*
X185197440Y-63350000D01*
X185153162Y-63114683D01*
X185035000Y-62931054D01*
X185035000Y-61772038D01*
X185135317Y-61753162D01*
X185351441Y-61614090D01*
X185496431Y-61401890D01*
X185503191Y-61368510D01*
X185561673Y-61509699D01*
X185740302Y-61688327D01*
X185973691Y-61785000D01*
X186564250Y-61785000D01*
X186723000Y-61626250D01*
X186723000Y-60627000D01*
X186977000Y-60627000D01*
X186977000Y-61626250D01*
X187135750Y-61785000D01*
X187726309Y-61785000D01*
X187959698Y-61688327D01*
X188138327Y-61509699D01*
X188235000Y-61276310D01*
X188235000Y-60785750D01*
X188076250Y-60627000D01*
X186977000Y-60627000D01*
X186723000Y-60627000D01*
X186703000Y-60627000D01*
X186703000Y-60373000D01*
X186723000Y-60373000D01*
X186723000Y-59373750D01*
X186977000Y-59373750D01*
X186977000Y-60373000D01*
X188076250Y-60373000D01*
X188235000Y-60214250D01*
X188235000Y-59723690D01*
X188138327Y-59490301D01*
X187959698Y-59311673D01*
X187726309Y-59215000D01*
X187135750Y-59215000D01*
X186977000Y-59373750D01*
X186723000Y-59373750D01*
X186564250Y-59215000D01*
X185973691Y-59215000D01*
X185740302Y-59311673D01*
X185561673Y-59490301D01*
X185505346Y-59626287D01*
X185503162Y-59614683D01*
X185364090Y-59398559D01*
X185151890Y-59253569D01*
X184900000Y-59202560D01*
X183400000Y-59202560D01*
X183164683Y-59246838D01*
X182948559Y-59385910D01*
X182803569Y-59598110D01*
X182752560Y-59850000D01*
X182752560Y-61150000D01*
X182796838Y-61385317D01*
X182935910Y-61601441D01*
X183148110Y-61746431D01*
X183265000Y-61770102D01*
X183265000Y-62702560D01*
X183050000Y-62702560D01*
X182814683Y-62746838D01*
X182648523Y-62853759D01*
X182635000Y-62844519D01*
X182635000Y-60058626D01*
X182714716Y-59866648D01*
X182715284Y-59216205D01*
X182466894Y-58615057D01*
X182303814Y-58451691D01*
X203842650Y-58451691D01*
X203842650Y-59054250D01*
X204001400Y-59213000D01*
X205449200Y-59213000D01*
X205449200Y-58101750D01*
X205703200Y-58101750D01*
X205703200Y-59213000D01*
X207151000Y-59213000D01*
X207309750Y-59054250D01*
X207309750Y-58451691D01*
X207213077Y-58218302D01*
X207034449Y-58039673D01*
X206801060Y-57943000D01*
X205861950Y-57943000D01*
X205703200Y-58101750D01*
X205449200Y-58101750D01*
X205290450Y-57943000D01*
X204351340Y-57943000D01*
X204117951Y-58039673D01*
X203939323Y-58218302D01*
X203842650Y-58451691D01*
X182303814Y-58451691D01*
X182007363Y-58154722D01*
X181406648Y-57905284D01*
X180756205Y-57904716D01*
X180155057Y-58153106D01*
X179694722Y-58612637D01*
X179445284Y-59213352D01*
X179444716Y-59863795D01*
X179693106Y-60464943D01*
X180152637Y-60925278D01*
X180365000Y-61013459D01*
X180365000Y-62843156D01*
X180350508Y-62852482D01*
X180309699Y-62811673D01*
X180076310Y-62715000D01*
X179485750Y-62715000D01*
X179327000Y-62873750D01*
X179327000Y-64223000D01*
X179347000Y-64223000D01*
X179347000Y-64477000D01*
X179327000Y-64477000D01*
X179327000Y-65826250D01*
X179485750Y-65985000D01*
X180076310Y-65985000D01*
X180309699Y-65888327D01*
X180351660Y-65846366D01*
X180498110Y-65946431D01*
X180750000Y-65997440D01*
X182250000Y-65997440D01*
X182485317Y-65953162D01*
X182651477Y-65846241D01*
X182798110Y-65946431D01*
X183050000Y-65997440D01*
X183842308Y-65997440D01*
X184365000Y-66520132D01*
X184365000Y-74485025D01*
X184253569Y-74648110D01*
X184202560Y-74900000D01*
X184202560Y-76400000D01*
X184246838Y-76635317D01*
X184385910Y-76851441D01*
X184598110Y-76996431D01*
X184611197Y-76999081D01*
X184398559Y-77135910D01*
X184276192Y-77315000D01*
X184053910Y-77315000D01*
X183987090Y-77211159D01*
X183774890Y-77066169D01*
X183523000Y-77015160D01*
X183265000Y-77015160D01*
X183265000Y-74380005D01*
X183265001Y-74380000D01*
X183197633Y-74041326D01*
X183197633Y-74041325D01*
X183005790Y-73754210D01*
X183005787Y-73754208D01*
X182125790Y-72874210D01*
X182036701Y-72814683D01*
X181838675Y-72682367D01*
X181782484Y-72671190D01*
X181500000Y-72614999D01*
X181499995Y-72615000D01*
X180924669Y-72615000D01*
X180914090Y-72598559D01*
X180701890Y-72453569D01*
X180450000Y-72402560D01*
X179650000Y-72402560D01*
X179414683Y-72446838D01*
X179198559Y-72585910D01*
X179053569Y-72798110D01*
X179002560Y-73050000D01*
X179002560Y-73950000D01*
X179046838Y-74185317D01*
X179185910Y-74401441D01*
X179398110Y-74546431D01*
X179650000Y-74597440D01*
X180450000Y-74597440D01*
X180685317Y-74553162D01*
X180901441Y-74414090D01*
X180921317Y-74385000D01*
X181133420Y-74385000D01*
X181495000Y-74746579D01*
X181495000Y-77015160D01*
X181237000Y-77015160D01*
X181001683Y-77059438D01*
X180854314Y-77154267D01*
X180885000Y-77000000D01*
X180798603Y-76565654D01*
X180552566Y-76197434D01*
X180184346Y-75951397D01*
X179750000Y-75865000D01*
X177162038Y-75865000D01*
X177143162Y-75764683D01*
X177004090Y-75548559D01*
X176791890Y-75403569D01*
X176540000Y-75352560D01*
X174540000Y-75352560D01*
X174385000Y-75381725D01*
X174385000Y-75023690D01*
X174288327Y-74790301D01*
X174109698Y-74611673D01*
X173876309Y-74515000D01*
X173285750Y-74515000D01*
X173127000Y-74673750D01*
X172873000Y-74673750D01*
X172714250Y-74515000D01*
X172123691Y-74515000D01*
X171890302Y-74611673D01*
X171711673Y-74790301D01*
X171615000Y-75023690D01*
X171615000Y-75383948D01*
X171460000Y-75352560D01*
X171385000Y-75352560D01*
X171385000Y-74764975D01*
X171496431Y-74601890D01*
X171547440Y-74350000D01*
X171547440Y-73191284D01*
X171773691Y-73285000D01*
X172364250Y-73285000D01*
X172523000Y-73126250D01*
X172523000Y-72127000D01*
X172503000Y-72127000D01*
X172503000Y-71873000D01*
X172523000Y-71873000D01*
X172523000Y-70873750D01*
X172777000Y-70873750D01*
X172777000Y-71873000D01*
X172797000Y-71873000D01*
X172797000Y-72127000D01*
X172777000Y-72127000D01*
X172777000Y-73126250D01*
X172935750Y-73285000D01*
X173526309Y-73285000D01*
X173759698Y-73188327D01*
X173938327Y-73009699D01*
X173994654Y-72873713D01*
X173996838Y-72885317D01*
X174135910Y-73101441D01*
X174348110Y-73246431D01*
X174600000Y-73297440D01*
X176100000Y-73297440D01*
X176335317Y-73253162D01*
X176551441Y-73114090D01*
X176677710Y-72929289D01*
X176902560Y-73154139D01*
X176902560Y-73950000D01*
X176946838Y-74185317D01*
X177085910Y-74401441D01*
X177298110Y-74546431D01*
X177550000Y-74597440D01*
X178350000Y-74597440D01*
X178585317Y-74553162D01*
X178801441Y-74414090D01*
X178946431Y-74201890D01*
X178997440Y-73950000D01*
X178997440Y-73050000D01*
X178953162Y-72814683D01*
X178814090Y-72598559D01*
X178712910Y-72529426D01*
X178575790Y-72324210D01*
X178575787Y-72324208D01*
X177625790Y-71374210D01*
X177589557Y-71350000D01*
X177338675Y-71182367D01*
X177282484Y-71171190D01*
X177000000Y-71114999D01*
X176999995Y-71115000D01*
X176703222Y-71115000D01*
X176703162Y-71114683D01*
X176564090Y-70898559D01*
X176351890Y-70753569D01*
X176100000Y-70702560D01*
X174600000Y-70702560D01*
X174364683Y-70746838D01*
X174148559Y-70885910D01*
X174003569Y-71098110D01*
X173996809Y-71131490D01*
X173938327Y-70990301D01*
X173759698Y-70811673D01*
X173526309Y-70715000D01*
X172935750Y-70715000D01*
X172777000Y-70873750D01*
X172523000Y-70873750D01*
X172364250Y-70715000D01*
X171773691Y-70715000D01*
X171540302Y-70811673D01*
X171535000Y-70816975D01*
X171535000Y-70772998D01*
X171376252Y-70772998D01*
X171535000Y-70614250D01*
X171535000Y-70023691D01*
X171438327Y-69790302D01*
X171298026Y-69650000D01*
X178952560Y-69650000D01*
X178952560Y-71650000D01*
X178996838Y-71885317D01*
X179135910Y-72101441D01*
X179348110Y-72246431D01*
X179600000Y-72297440D01*
X183400000Y-72297440D01*
X183635317Y-72253162D01*
X183851441Y-72114090D01*
X183996431Y-71901890D01*
X184047440Y-71650000D01*
X184047440Y-69650000D01*
X184003162Y-69414683D01*
X183864090Y-69198559D01*
X183651890Y-69053569D01*
X183400000Y-69002560D01*
X179600000Y-69002560D01*
X179364683Y-69046838D01*
X179148559Y-69185910D01*
X179003569Y-69398110D01*
X178952560Y-69650000D01*
X171298026Y-69650000D01*
X171259699Y-69611673D01*
X171026310Y-69515000D01*
X170535750Y-69515000D01*
X170377000Y-69673750D01*
X170377000Y-70773000D01*
X170397000Y-70773000D01*
X170397000Y-71027000D01*
X170377000Y-71027000D01*
X170377000Y-71047000D01*
X170123000Y-71047000D01*
X170123000Y-71027000D01*
X169123750Y-71027000D01*
X168965000Y-71185750D01*
X168965000Y-71776309D01*
X169061673Y-72009698D01*
X169240301Y-72188327D01*
X169376287Y-72244654D01*
X169364683Y-72246838D01*
X169148559Y-72385910D01*
X169003569Y-72598110D01*
X168952560Y-72850000D01*
X168952560Y-73887428D01*
X168912566Y-73847434D01*
X168893959Y-73835001D01*
X168544346Y-73601397D01*
X168110000Y-73515000D01*
X166061882Y-73515000D01*
X165828921Y-73359340D01*
X165294312Y-73253000D01*
X164553288Y-73253000D01*
X164018679Y-73359340D01*
X163565460Y-73662172D01*
X163262628Y-74115391D01*
X163156288Y-74650000D01*
X160710000Y-74650000D01*
X160710000Y-70023691D01*
X168965000Y-70023691D01*
X168965000Y-70614250D01*
X169123750Y-70773000D01*
X170123000Y-70773000D01*
X170123000Y-69673750D01*
X169964250Y-69515000D01*
X169473690Y-69515000D01*
X169240301Y-69611673D01*
X169061673Y-69790302D01*
X168965000Y-70023691D01*
X160710000Y-70023691D01*
X160710000Y-54783795D01*
X169284716Y-54783795D01*
X169533106Y-55384943D01*
X169992637Y-55845278D01*
X170593352Y-56094716D01*
X171243795Y-56095284D01*
X171844943Y-55846894D01*
X172190199Y-55502241D01*
X172325000Y-55637278D01*
X172325000Y-58362796D01*
X172189801Y-58497759D01*
X171847363Y-58154722D01*
X171246648Y-57905284D01*
X170596205Y-57904716D01*
X169995057Y-58153106D01*
X169534722Y-58612637D01*
X169285284Y-59213352D01*
X169284716Y-59863795D01*
X169533106Y-60464943D01*
X169992637Y-60925278D01*
X170593352Y-61174716D01*
X171243795Y-61175284D01*
X171844943Y-60926894D01*
X172190199Y-60582241D01*
X172532637Y-60925278D01*
X173133352Y-61174716D01*
X173783795Y-61175284D01*
X174384943Y-60926894D01*
X174730199Y-60582241D01*
X175072637Y-60925278D01*
X175673352Y-61174716D01*
X176323795Y-61175284D01*
X176614999Y-61054961D01*
X176614999Y-61179869D01*
X174397434Y-63397434D01*
X174151397Y-63765654D01*
X174065000Y-64200000D01*
X174065000Y-66800000D01*
X174151397Y-67234346D01*
X174397434Y-67602566D01*
X174765654Y-67848603D01*
X175200000Y-67935000D01*
X175634346Y-67848603D01*
X176002566Y-67602566D01*
X176248603Y-67234346D01*
X176335000Y-66800000D01*
X176335000Y-64670132D01*
X176369382Y-64635750D01*
X177815000Y-64635750D01*
X177815000Y-65476309D01*
X177911673Y-65709698D01*
X178090301Y-65888327D01*
X178323690Y-65985000D01*
X178914250Y-65985000D01*
X179073000Y-65826250D01*
X179073000Y-64477000D01*
X177973750Y-64477000D01*
X177815000Y-64635750D01*
X176369382Y-64635750D01*
X177838730Y-63166402D01*
X177815000Y-63223691D01*
X177815000Y-64064250D01*
X177973750Y-64223000D01*
X179073000Y-64223000D01*
X179073000Y-62873750D01*
X178914250Y-62715000D01*
X178323690Y-62715000D01*
X178266403Y-62738729D01*
X178552565Y-62452567D01*
X178644922Y-62314345D01*
X178798602Y-62084347D01*
X178884999Y-61650001D01*
X178884999Y-58260133D01*
X181050157Y-56094975D01*
X181403795Y-56095284D01*
X181446188Y-56077767D01*
X181494208Y-56125787D01*
X181494210Y-56125790D01*
X181781325Y-56317633D01*
X182120000Y-56385001D01*
X182120005Y-56385000D01*
X182912721Y-56385000D01*
X183035910Y-56576441D01*
X183248110Y-56721431D01*
X183500000Y-56772440D01*
X185000000Y-56772440D01*
X185235317Y-56728162D01*
X185451441Y-56589090D01*
X185497969Y-56520994D01*
X185640302Y-56663327D01*
X185873691Y-56760000D01*
X186464250Y-56760000D01*
X186623000Y-56601250D01*
X186623000Y-55627000D01*
X186877000Y-55627000D01*
X186877000Y-56601250D01*
X187035750Y-56760000D01*
X187626309Y-56760000D01*
X187859698Y-56663327D01*
X188038327Y-56484699D01*
X188135000Y-56251310D01*
X188135000Y-55785750D01*
X187976250Y-55627000D01*
X186877000Y-55627000D01*
X186623000Y-55627000D01*
X186603000Y-55627000D01*
X186603000Y-55373000D01*
X186623000Y-55373000D01*
X186623000Y-54398750D01*
X186877000Y-54398750D01*
X186877000Y-55373000D01*
X187976250Y-55373000D01*
X188135000Y-55214250D01*
X188135000Y-54748690D01*
X188038327Y-54515301D01*
X187859698Y-54336673D01*
X187626309Y-54240000D01*
X187035750Y-54240000D01*
X186877000Y-54398750D01*
X186623000Y-54398750D01*
X186464250Y-54240000D01*
X185873691Y-54240000D01*
X185640302Y-54336673D01*
X185499064Y-54477910D01*
X185464090Y-54423559D01*
X185251890Y-54278569D01*
X185000000Y-54227560D01*
X183500000Y-54227560D01*
X183264683Y-54271838D01*
X183048559Y-54410910D01*
X182909110Y-54615000D01*
X182714866Y-54615000D01*
X182715284Y-54136205D01*
X182466894Y-53535057D01*
X182007363Y-53074722D01*
X181406648Y-52825284D01*
X180756205Y-52824716D01*
X180155057Y-53073106D01*
X179694722Y-53532637D01*
X179445284Y-54133352D01*
X179444973Y-54489895D01*
X177135000Y-56799868D01*
X177135000Y-55637204D01*
X177385278Y-55387363D01*
X177634716Y-54786648D01*
X177635284Y-54136205D01*
X177386894Y-53535057D01*
X176927363Y-53074722D01*
X176326648Y-52825284D01*
X175676205Y-52824716D01*
X175075057Y-53073106D01*
X174729801Y-53417759D01*
X174387363Y-53074722D01*
X173786648Y-52825284D01*
X173136205Y-52824716D01*
X172535057Y-53073106D01*
X172189801Y-53417759D01*
X171847363Y-53074722D01*
X171246648Y-52825284D01*
X170596205Y-52824716D01*
X169995057Y-53073106D01*
X169534722Y-53532637D01*
X169285284Y-54133352D01*
X169284716Y-54783795D01*
X160710000Y-54783795D01*
X160710000Y-42957312D01*
X162222293Y-42957312D01*
X162625762Y-43483924D01*
X164139730Y-44127307D01*
X165784666Y-44142346D01*
X167310145Y-43526750D01*
X167374238Y-43483924D01*
X167777707Y-42957312D01*
X202222293Y-42957312D01*
X202625762Y-43483924D01*
X204139730Y-44127307D01*
X205784666Y-44142346D01*
X207310145Y-43526750D01*
X207374238Y-43483924D01*
X207777707Y-42957312D01*
X205000000Y-40179605D01*
X202222293Y-42957312D01*
X167777707Y-42957312D01*
X165000000Y-40179605D01*
X162222293Y-42957312D01*
X160710000Y-42957312D01*
X160710000Y-40784666D01*
X160857654Y-40784666D01*
X161473250Y-42310145D01*
X161516076Y-42374238D01*
X162042688Y-42777707D01*
X164820395Y-40000000D01*
X165179605Y-40000000D01*
X167957312Y-42777707D01*
X168483924Y-42374238D01*
X169127307Y-40860270D01*
X169127998Y-40784666D01*
X200857654Y-40784666D01*
X201473250Y-42310145D01*
X201516076Y-42374238D01*
X202042688Y-42777707D01*
X204820395Y-40000000D01*
X205179605Y-40000000D01*
X207957312Y-42777707D01*
X208483924Y-42374238D01*
X209127307Y-40860270D01*
X209142346Y-39215334D01*
X208526750Y-37689855D01*
X208483924Y-37625762D01*
X207957312Y-37222293D01*
X205179605Y-40000000D01*
X204820395Y-40000000D01*
X202042688Y-37222293D01*
X201516076Y-37625762D01*
X200872693Y-39139730D01*
X200857654Y-40784666D01*
X169127998Y-40784666D01*
X169142346Y-39215334D01*
X168526750Y-37689855D01*
X168483924Y-37625762D01*
X167957312Y-37222293D01*
X165179605Y-40000000D01*
X164820395Y-40000000D01*
X162042688Y-37222293D01*
X161516076Y-37625762D01*
X160872693Y-39139730D01*
X160857654Y-40784666D01*
X160710000Y-40784666D01*
X160710000Y-37042688D01*
X162222293Y-37042688D01*
X165000000Y-39820395D01*
X167777707Y-37042688D01*
X202222293Y-37042688D01*
X205000000Y-39820395D01*
X207777707Y-37042688D01*
X207374238Y-36516076D01*
X205860270Y-35872693D01*
X204215334Y-35857654D01*
X202689855Y-36473250D01*
X202625762Y-36516076D01*
X202222293Y-37042688D01*
X167777707Y-37042688D01*
X167374238Y-36516076D01*
X165860270Y-35872693D01*
X164215334Y-35857654D01*
X162689855Y-36473250D01*
X162625762Y-36516076D01*
X162222293Y-37042688D01*
X160710000Y-37042688D01*
X160710000Y-35710000D01*
X209290000Y-35710000D01*
X209290000Y-134290000D01*
X209290000Y-134290000D01*
G37*
X209290000Y-134290000D02*
X160710000Y-134290000D01*
X160710000Y-132957312D01*
X162222293Y-132957312D01*
X162625762Y-133483924D01*
X164139730Y-134127307D01*
X165784666Y-134142346D01*
X167310145Y-133526750D01*
X167374238Y-133483924D01*
X167777707Y-132957312D01*
X202222293Y-132957312D01*
X202625762Y-133483924D01*
X204139730Y-134127307D01*
X205784666Y-134142346D01*
X207310145Y-133526750D01*
X207374238Y-133483924D01*
X207777707Y-132957312D01*
X205000000Y-130179605D01*
X202222293Y-132957312D01*
X167777707Y-132957312D01*
X165000000Y-130179605D01*
X162222293Y-132957312D01*
X160710000Y-132957312D01*
X160710000Y-130784666D01*
X160857654Y-130784666D01*
X161473250Y-132310145D01*
X161516076Y-132374238D01*
X162042688Y-132777707D01*
X164820395Y-130000000D01*
X165179605Y-130000000D01*
X167957312Y-132777707D01*
X168483924Y-132374238D01*
X169127307Y-130860270D01*
X169127998Y-130784666D01*
X200857654Y-130784666D01*
X201473250Y-132310145D01*
X201516076Y-132374238D01*
X202042688Y-132777707D01*
X204820395Y-130000000D01*
X205179605Y-130000000D01*
X207957312Y-132777707D01*
X208483924Y-132374238D01*
X209127307Y-130860270D01*
X209142346Y-129215334D01*
X208526750Y-127689855D01*
X208483924Y-127625762D01*
X207957312Y-127222293D01*
X205179605Y-130000000D01*
X204820395Y-130000000D01*
X202042688Y-127222293D01*
X201516076Y-127625762D01*
X200872693Y-129139730D01*
X200857654Y-130784666D01*
X169127998Y-130784666D01*
X169142346Y-129215334D01*
X168526750Y-127689855D01*
X168483924Y-127625762D01*
X167957312Y-127222293D01*
X165179605Y-130000000D01*
X164820395Y-130000000D01*
X162042688Y-127222293D01*
X161516076Y-127625762D01*
X160872693Y-129139730D01*
X160857654Y-130784666D01*
X160710000Y-130784666D01*
X160710000Y-127042688D01*
X162222293Y-127042688D01*
X165000000Y-129820395D01*
X167777707Y-127042688D01*
X202222293Y-127042688D01*
X205000000Y-129820395D01*
X207777707Y-127042688D01*
X207374238Y-126516076D01*
X205860270Y-125872693D01*
X204215334Y-125857654D01*
X202689855Y-126473250D01*
X202625762Y-126516076D01*
X202222293Y-127042688D01*
X167777707Y-127042688D01*
X167374238Y-126516076D01*
X165860270Y-125872693D01*
X164215334Y-125857654D01*
X162689855Y-126473250D01*
X162625762Y-126516076D01*
X162222293Y-127042688D01*
X160710000Y-127042688D01*
X160710000Y-125085750D01*
X168165000Y-125085750D01*
X168165000Y-125551310D01*
X168261673Y-125784699D01*
X168440302Y-125963327D01*
X168673691Y-126060000D01*
X169264250Y-126060000D01*
X169423000Y-125901250D01*
X169423000Y-124927000D01*
X168323750Y-124927000D01*
X168165000Y-125085750D01*
X160710000Y-125085750D01*
X160710000Y-124048690D01*
X168165000Y-124048690D01*
X168165000Y-124514250D01*
X168323750Y-124673000D01*
X169423000Y-124673000D01*
X169423000Y-123698750D01*
X169264250Y-123540000D01*
X168673691Y-123540000D01*
X168440302Y-123636673D01*
X168261673Y-123815301D01*
X168165000Y-124048690D01*
X160710000Y-124048690D01*
X160710000Y-118386930D01*
X163233030Y-118386930D01*
X163355530Y-118603000D01*
X164796800Y-118603000D01*
X164796800Y-117333000D01*
X165050800Y-117333000D01*
X165050800Y-118603000D01*
X166492070Y-118603000D01*
X166614570Y-118386930D01*
X166599610Y-118312723D01*
X166337980Y-117831974D01*
X165912291Y-117487941D01*
X165387350Y-117333000D01*
X165050800Y-117333000D01*
X164796800Y-117333000D01*
X164460250Y-117333000D01*
X163935309Y-117487941D01*
X163509620Y-117831974D01*
X163247990Y-118312723D01*
X163233030Y-118386930D01*
X160710000Y-118386930D01*
X160710000Y-113668000D01*
X163177810Y-113668000D01*
X163177810Y-115192000D01*
X163222088Y-115427317D01*
X163361160Y-115643441D01*
X163573360Y-115788431D01*
X163825250Y-115839440D01*
X166022350Y-115839440D01*
X166257667Y-115795162D01*
X166473791Y-115656090D01*
X166513233Y-115598365D01*
X170114868Y-119200000D01*
X169179868Y-120135000D01*
X166536915Y-120135000D01*
X166486440Y-120056559D01*
X166274240Y-119911569D01*
X166044663Y-119865079D01*
X166337980Y-119628026D01*
X166599610Y-119147277D01*
X166614570Y-119073070D01*
X166492070Y-118857000D01*
X165050800Y-118857000D01*
X165050800Y-118877000D01*
X164796800Y-118877000D01*
X164796800Y-118857000D01*
X163355530Y-118857000D01*
X163233030Y-119073070D01*
X163247990Y-119147277D01*
X163509620Y-119628026D01*
X163802616Y-119864819D01*
X163589933Y-119904838D01*
X163373809Y-120043910D01*
X163228819Y-120256110D01*
X163177810Y-120508000D01*
X163177810Y-122032000D01*
X163222088Y-122267317D01*
X163361160Y-122483441D01*
X163573360Y-122628431D01*
X163825250Y-122679440D01*
X166022350Y-122679440D01*
X166257667Y-122635162D01*
X166473791Y-122496090D01*
X166536030Y-122405000D01*
X169650000Y-122405000D01*
X170084346Y-122318603D01*
X170335000Y-122151121D01*
X170335000Y-123120000D01*
X170418543Y-123540000D01*
X169835750Y-123540000D01*
X169677000Y-123698750D01*
X169677000Y-124673000D01*
X169697000Y-124673000D01*
X169697000Y-124927000D01*
X169677000Y-124927000D01*
X169677000Y-125901250D01*
X169835750Y-126060000D01*
X170426309Y-126060000D01*
X170659698Y-125963327D01*
X170800936Y-125822090D01*
X170835910Y-125876441D01*
X171048110Y-126021431D01*
X171300000Y-126072440D01*
X172759987Y-126072440D01*
X173069983Y-126279573D01*
X173600000Y-126385000D01*
X185612486Y-126385000D01*
X185661325Y-126417633D01*
X186000000Y-126485000D01*
X186338675Y-126417633D01*
X186387514Y-126385000D01*
X191000000Y-126385000D01*
X191530017Y-126279573D01*
X191979343Y-125979343D01*
X201573686Y-116385000D01*
X204468050Y-116385000D01*
X204217860Y-116552172D01*
X203915028Y-117005391D01*
X203808688Y-117540000D01*
X203915028Y-118074609D01*
X204217860Y-118527828D01*
X204671079Y-118830660D01*
X205205688Y-118937000D01*
X205946712Y-118937000D01*
X206481321Y-118830660D01*
X206934540Y-118527828D01*
X207237372Y-118074609D01*
X207343712Y-117540000D01*
X207237372Y-117005391D01*
X206934540Y-116552172D01*
X206512241Y-116270000D01*
X206934540Y-115987828D01*
X207237372Y-115534609D01*
X207343712Y-115000000D01*
X207237372Y-114465391D01*
X206934540Y-114012172D01*
X206702309Y-113857000D01*
X206801060Y-113857000D01*
X207034449Y-113760327D01*
X207213077Y-113581698D01*
X207309750Y-113348309D01*
X207309750Y-112745750D01*
X207151000Y-112587000D01*
X205703200Y-112587000D01*
X205703200Y-112607000D01*
X205449200Y-112607000D01*
X205449200Y-112587000D01*
X204001400Y-112587000D01*
X203842650Y-112745750D01*
X203842650Y-113348309D01*
X203939323Y-113581698D01*
X203972625Y-113615000D01*
X201000000Y-113615000D01*
X200469984Y-113720426D01*
X200020657Y-114020657D01*
X190772440Y-123268874D01*
X190772440Y-122000000D01*
X190728162Y-121764683D01*
X190589090Y-121548559D01*
X190520994Y-121502031D01*
X190663327Y-121359698D01*
X190760000Y-121126309D01*
X190760000Y-120535750D01*
X190601250Y-120377000D01*
X189627000Y-120377000D01*
X189627000Y-120397000D01*
X189373000Y-120397000D01*
X189373000Y-120377000D01*
X188398750Y-120377000D01*
X188240000Y-120535750D01*
X188240000Y-121126309D01*
X188336673Y-121359698D01*
X188477910Y-121500936D01*
X188423559Y-121535910D01*
X188278569Y-121748110D01*
X188227560Y-122000000D01*
X188227560Y-123500000D01*
X188249199Y-123615000D01*
X187897440Y-123615000D01*
X187897440Y-121750000D01*
X187853162Y-121514683D01*
X187714090Y-121298559D01*
X187501890Y-121153569D01*
X187250000Y-121102560D01*
X184750000Y-121102560D01*
X184514683Y-121146838D01*
X184298559Y-121285910D01*
X184153569Y-121498110D01*
X184102560Y-121750000D01*
X184102560Y-123615000D01*
X174173686Y-123615000D01*
X173105000Y-122546314D01*
X173105000Y-121303025D01*
X173240301Y-121438327D01*
X173473690Y-121535000D01*
X173914250Y-121535000D01*
X174073000Y-121376250D01*
X174073000Y-119927000D01*
X174053000Y-119927000D01*
X174053000Y-119673000D01*
X174073000Y-119673000D01*
X174073000Y-118223750D01*
X174327000Y-118223750D01*
X174327000Y-119673000D01*
X174347000Y-119673000D01*
X174347000Y-119927000D01*
X174327000Y-119927000D01*
X174327000Y-121376250D01*
X174485750Y-121535000D01*
X174926310Y-121535000D01*
X175159699Y-121438327D01*
X175338327Y-121259698D01*
X175345591Y-121242162D01*
X175415910Y-121351441D01*
X175628110Y-121496431D01*
X175880000Y-121547440D01*
X176588754Y-121547440D01*
X176795657Y-121754343D01*
X177244984Y-122054574D01*
X177775000Y-122160000D01*
X180225000Y-122160000D01*
X180755017Y-122054573D01*
X181204343Y-121754343D01*
X183359343Y-119599343D01*
X183428777Y-119495427D01*
X183659573Y-119150017D01*
X183765000Y-118620000D01*
X183765000Y-117660750D01*
X184115000Y-117660750D01*
X184115000Y-119376309D01*
X184211673Y-119609698D01*
X184390301Y-119788327D01*
X184623690Y-119885000D01*
X185714250Y-119885000D01*
X185873000Y-119726250D01*
X185873000Y-117502000D01*
X186127000Y-117502000D01*
X186127000Y-119726250D01*
X186285750Y-119885000D01*
X187376310Y-119885000D01*
X187609699Y-119788327D01*
X187788327Y-119609698D01*
X187885000Y-119376309D01*
X187885000Y-119373691D01*
X188240000Y-119373691D01*
X188240000Y-119964250D01*
X188398750Y-120123000D01*
X189373000Y-120123000D01*
X189373000Y-119023750D01*
X189627000Y-119023750D01*
X189627000Y-120123000D01*
X190601250Y-120123000D01*
X190760000Y-119964250D01*
X190760000Y-119373691D01*
X190663327Y-119140302D01*
X190484699Y-118961673D01*
X190251310Y-118865000D01*
X189785750Y-118865000D01*
X189627000Y-119023750D01*
X189373000Y-119023750D01*
X189214250Y-118865000D01*
X188748690Y-118865000D01*
X188515301Y-118961673D01*
X188336673Y-119140302D01*
X188240000Y-119373691D01*
X187885000Y-119373691D01*
X187885000Y-117660750D01*
X187726250Y-117502000D01*
X186127000Y-117502000D01*
X185873000Y-117502000D01*
X184273750Y-117502000D01*
X184115000Y-117660750D01*
X183765000Y-117660750D01*
X183765000Y-115145000D01*
X184209727Y-115145000D01*
X184115000Y-115373691D01*
X184115000Y-117089250D01*
X184273750Y-117248000D01*
X185873000Y-117248000D01*
X185873000Y-117228000D01*
X186127000Y-117228000D01*
X186127000Y-117248000D01*
X187726250Y-117248000D01*
X187885000Y-117089250D01*
X187885000Y-115373691D01*
X187790273Y-115145000D01*
X189990000Y-115145000D01*
X190424346Y-115058603D01*
X190792566Y-114812566D01*
X194802566Y-110802566D01*
X195048603Y-110434346D01*
X195064903Y-110352400D01*
X195135000Y-110000000D01*
X195135000Y-78450000D01*
X195807167Y-78450000D01*
X195915441Y-78994329D01*
X196223778Y-79455789D01*
X196619199Y-79720000D01*
X196223778Y-79984211D01*
X195915441Y-80445671D01*
X195807167Y-80990000D01*
X195915441Y-81534329D01*
X196223778Y-81995789D01*
X196619199Y-82260000D01*
X196223778Y-82524211D01*
X195915441Y-82985671D01*
X195807167Y-83530000D01*
X195915441Y-84074329D01*
X196223778Y-84535789D01*
X196619199Y-84800000D01*
X196223778Y-85064211D01*
X195915441Y-85525671D01*
X195807167Y-86070000D01*
X195915441Y-86614329D01*
X196223778Y-87075789D01*
X196619199Y-87340000D01*
X196223778Y-87604211D01*
X195915441Y-88065671D01*
X195807167Y-88610000D01*
X195915441Y-89154329D01*
X196223778Y-89615789D01*
X196619199Y-89880000D01*
X196223778Y-90144211D01*
X195915441Y-90605671D01*
X195807167Y-91150000D01*
X195915441Y-91694329D01*
X196223778Y-92155789D01*
X196619199Y-92420000D01*
X196223778Y-92684211D01*
X195915441Y-93145671D01*
X195807167Y-93690000D01*
X195915441Y-94234329D01*
X196223778Y-94695789D01*
X196619199Y-94960000D01*
X196223778Y-95224211D01*
X195915441Y-95685671D01*
X195807167Y-96230000D01*
X195915441Y-96774329D01*
X196223778Y-97235789D01*
X196619199Y-97500000D01*
X196223778Y-97764211D01*
X195915441Y-98225671D01*
X195807167Y-98770000D01*
X195915441Y-99314329D01*
X196223778Y-99775789D01*
X196619199Y-100040000D01*
X196223778Y-100304211D01*
X195915441Y-100765671D01*
X195807167Y-101310000D01*
X195915441Y-101854329D01*
X196223778Y-102315789D01*
X196619199Y-102580000D01*
X196223778Y-102844211D01*
X195915441Y-103305671D01*
X195807167Y-103850000D01*
X195915441Y-104394329D01*
X196223778Y-104855789D01*
X196618830Y-105119754D01*
X196602738Y-105124475D01*
X196168809Y-105474014D01*
X195901673Y-105963004D01*
X195884990Y-106042940D01*
X196007148Y-106263000D01*
X197493000Y-106263000D01*
X197493000Y-106243000D01*
X197747000Y-106243000D01*
X197747000Y-106263000D01*
X197767000Y-106263000D01*
X197767000Y-106517000D01*
X197747000Y-106517000D01*
X197747000Y-106537000D01*
X197493000Y-106537000D01*
X197493000Y-106517000D01*
X196007148Y-106517000D01*
X195884990Y-106737060D01*
X195901673Y-106816996D01*
X196168809Y-107305986D01*
X196602738Y-107655525D01*
X196618830Y-107660246D01*
X196223778Y-107924211D01*
X195915441Y-108385671D01*
X195807167Y-108930000D01*
X195915441Y-109474329D01*
X196223778Y-109935789D01*
X196619199Y-110200000D01*
X196223778Y-110464211D01*
X195915441Y-110925671D01*
X195807167Y-111470000D01*
X195915441Y-112014329D01*
X196223778Y-112475789D01*
X196619199Y-112740000D01*
X196223778Y-113004211D01*
X195915441Y-113465671D01*
X195807167Y-114010000D01*
X195915441Y-114554329D01*
X196223778Y-115015789D01*
X196685238Y-115324126D01*
X197229567Y-115432400D01*
X198010433Y-115432400D01*
X198554762Y-115324126D01*
X199016222Y-115015789D01*
X199324559Y-114554329D01*
X199432833Y-114010000D01*
X199324559Y-113465671D01*
X199016222Y-113004211D01*
X198620801Y-112740000D01*
X199016222Y-112475789D01*
X199324559Y-112014329D01*
X199412605Y-111571691D01*
X203842650Y-111571691D01*
X203842650Y-112174250D01*
X204001400Y-112333000D01*
X205449200Y-112333000D01*
X205449200Y-111221750D01*
X205703200Y-111221750D01*
X205703200Y-112333000D01*
X207151000Y-112333000D01*
X207309750Y-112174250D01*
X207309750Y-111571691D01*
X207213077Y-111338302D01*
X207034449Y-111159673D01*
X206801060Y-111063000D01*
X205861950Y-111063000D01*
X205703200Y-111221750D01*
X205449200Y-111221750D01*
X205290450Y-111063000D01*
X204351340Y-111063000D01*
X204117951Y-111159673D01*
X203939323Y-111338302D01*
X203842650Y-111571691D01*
X199412605Y-111571691D01*
X199432833Y-111470000D01*
X199324559Y-110925671D01*
X199016222Y-110464211D01*
X198620801Y-110200000D01*
X199016222Y-109935789D01*
X199231855Y-109613070D01*
X203885430Y-109613070D01*
X203900390Y-109687277D01*
X204162020Y-110168026D01*
X204587709Y-110512059D01*
X205112650Y-110667000D01*
X205449200Y-110667000D01*
X205449200Y-109397000D01*
X205703200Y-109397000D01*
X205703200Y-110667000D01*
X206039750Y-110667000D01*
X206564691Y-110512059D01*
X206990380Y-110168026D01*
X207252010Y-109687277D01*
X207266970Y-109613070D01*
X207144470Y-109397000D01*
X205703200Y-109397000D01*
X205449200Y-109397000D01*
X204007930Y-109397000D01*
X203885430Y-109613070D01*
X199231855Y-109613070D01*
X199324559Y-109474329D01*
X199432833Y-108930000D01*
X199324559Y-108385671D01*
X199016222Y-107924211D01*
X198621170Y-107660246D01*
X198637262Y-107655525D01*
X199071191Y-107305986D01*
X199338327Y-106816996D01*
X199355010Y-106737060D01*
X199232853Y-106517002D01*
X199398000Y-106517002D01*
X199398000Y-106503132D01*
X200427434Y-107532566D01*
X200795655Y-107778604D01*
X201230000Y-107865000D01*
X203963085Y-107865000D01*
X204013560Y-107943441D01*
X204225760Y-108088431D01*
X204455337Y-108134921D01*
X204162020Y-108371974D01*
X203900390Y-108852723D01*
X203885430Y-108926930D01*
X204007930Y-109143000D01*
X205449200Y-109143000D01*
X205449200Y-109123000D01*
X205703200Y-109123000D01*
X205703200Y-109143000D01*
X207144470Y-109143000D01*
X207266970Y-108926930D01*
X207252010Y-108852723D01*
X206990380Y-108371974D01*
X206697384Y-108135181D01*
X206910067Y-108095162D01*
X207126191Y-107956090D01*
X207271181Y-107743890D01*
X207322190Y-107492000D01*
X207322190Y-105968000D01*
X207277912Y-105732683D01*
X207138840Y-105516559D01*
X206926640Y-105371569D01*
X206674750Y-105320560D01*
X204477650Y-105320560D01*
X204242333Y-105364838D01*
X204026209Y-105503910D01*
X203963970Y-105595000D01*
X201700132Y-105595000D01*
X201135000Y-105029868D01*
X201135000Y-103740132D01*
X201357434Y-103962566D01*
X201725654Y-104208603D01*
X202160000Y-104295000D01*
X204438118Y-104295000D01*
X204671079Y-104450660D01*
X205205688Y-104557000D01*
X205946712Y-104557000D01*
X206481321Y-104450660D01*
X206934540Y-104147828D01*
X207237372Y-103694609D01*
X207343712Y-103160000D01*
X207237372Y-102625391D01*
X206934540Y-102172172D01*
X206512241Y-101890000D01*
X206934540Y-101607828D01*
X207237372Y-101154609D01*
X207343712Y-100620000D01*
X207237372Y-100085391D01*
X206934540Y-99632172D01*
X206512241Y-99350000D01*
X206934540Y-99067828D01*
X207237372Y-98614609D01*
X207343712Y-98080000D01*
X207237372Y-97545391D01*
X206934540Y-97092172D01*
X206512241Y-96810000D01*
X206934540Y-96527828D01*
X207237372Y-96074609D01*
X207343712Y-95540000D01*
X207237372Y-95005391D01*
X206934540Y-94552172D01*
X206512241Y-94270000D01*
X206934540Y-93987828D01*
X207237372Y-93534609D01*
X207343712Y-93000000D01*
X207237372Y-92465391D01*
X206934540Y-92012172D01*
X206512241Y-91730000D01*
X206934540Y-91447828D01*
X207237372Y-90994609D01*
X207343712Y-90460000D01*
X207237372Y-89925391D01*
X206934540Y-89472172D01*
X206512241Y-89190000D01*
X206934540Y-88907828D01*
X207237372Y-88454609D01*
X207343712Y-87920000D01*
X207237372Y-87385391D01*
X206934540Y-86932172D01*
X206512241Y-86650000D01*
X206934540Y-86367828D01*
X207237372Y-85914609D01*
X207343712Y-85380000D01*
X207237372Y-84845391D01*
X206934540Y-84392172D01*
X206710781Y-84242660D01*
X206910067Y-84205162D01*
X207126191Y-84066090D01*
X207271181Y-83853890D01*
X207322190Y-83602000D01*
X207322190Y-82078000D01*
X207277912Y-81842683D01*
X207138840Y-81626559D01*
X206926640Y-81481569D01*
X206674750Y-81430560D01*
X204477650Y-81430560D01*
X204242333Y-81474838D01*
X204026209Y-81613910D01*
X203963970Y-81705000D01*
X200310132Y-81705000D01*
X199392534Y-80787402D01*
X199324559Y-80445671D01*
X199028824Y-80003070D01*
X203885430Y-80003070D01*
X203900390Y-80077277D01*
X204162020Y-80558026D01*
X204587709Y-80902059D01*
X205112650Y-81057000D01*
X205449200Y-81057000D01*
X205449200Y-79787000D01*
X205703200Y-79787000D01*
X205703200Y-81057000D01*
X206039750Y-81057000D01*
X206564691Y-80902059D01*
X206990380Y-80558026D01*
X207252010Y-80077277D01*
X207266970Y-80003070D01*
X207144470Y-79787000D01*
X205703200Y-79787000D01*
X205449200Y-79787000D01*
X204007930Y-79787000D01*
X203885430Y-80003070D01*
X199028824Y-80003070D01*
X199016222Y-79984211D01*
X198620801Y-79720000D01*
X198938497Y-79507723D01*
X198984346Y-79498603D01*
X199352566Y-79252566D01*
X200350132Y-78255000D01*
X204438118Y-78255000D01*
X204653093Y-78398642D01*
X204587709Y-78417941D01*
X204162020Y-78761974D01*
X203900390Y-79242723D01*
X203885430Y-79316930D01*
X204007930Y-79533000D01*
X205449200Y-79533000D01*
X205449200Y-79513000D01*
X205703200Y-79513000D01*
X205703200Y-79533000D01*
X207144470Y-79533000D01*
X207266970Y-79316930D01*
X207252010Y-79242723D01*
X206990380Y-78761974D01*
X206564691Y-78417941D01*
X206499307Y-78398642D01*
X206934540Y-78107828D01*
X207237372Y-77654609D01*
X207343712Y-77120000D01*
X207237372Y-76585391D01*
X206934540Y-76132172D01*
X206512241Y-75850000D01*
X206934540Y-75567828D01*
X207237372Y-75114609D01*
X207343712Y-74580000D01*
X207237372Y-74045391D01*
X206934540Y-73592172D01*
X206499307Y-73301358D01*
X206564691Y-73282059D01*
X206990380Y-72938026D01*
X207252010Y-72457277D01*
X207266970Y-72383070D01*
X207144470Y-72167000D01*
X205703200Y-72167000D01*
X205703200Y-72187000D01*
X205449200Y-72187000D01*
X205449200Y-72167000D01*
X204007930Y-72167000D01*
X203885430Y-72383070D01*
X203900390Y-72457277D01*
X204162020Y-72938026D01*
X204587709Y-73282059D01*
X204653093Y-73301358D01*
X204438118Y-73445000D01*
X200800132Y-73445000D01*
X200397440Y-73042308D01*
X200397440Y-71650000D01*
X200353162Y-71414683D01*
X200214090Y-71198559D01*
X200001890Y-71053569D01*
X199750000Y-71002560D01*
X197250000Y-71002560D01*
X197014683Y-71046838D01*
X196798559Y-71185910D01*
X196653569Y-71398110D01*
X196602560Y-71650000D01*
X196602560Y-73850000D01*
X196646838Y-74085317D01*
X196785910Y-74301441D01*
X196998110Y-74446431D01*
X197250000Y-74497440D01*
X198642308Y-74497440D01*
X199527434Y-75382566D01*
X199895654Y-75628603D01*
X200330000Y-75715000D01*
X204438118Y-75715000D01*
X204640159Y-75850000D01*
X204438118Y-75985000D01*
X199880000Y-75985000D01*
X199445654Y-76071397D01*
X199241501Y-76207808D01*
X199077434Y-76317434D01*
X198308065Y-77086803D01*
X198010433Y-77027600D01*
X197229567Y-77027600D01*
X196685238Y-77135874D01*
X196223778Y-77444211D01*
X195915441Y-77905671D01*
X195807167Y-78450000D01*
X195135000Y-78450000D01*
X195135000Y-70000000D01*
X195048603Y-69565654D01*
X194802566Y-69197434D01*
X193605132Y-68000000D01*
X194069382Y-67535750D01*
X196065000Y-67535750D01*
X196065000Y-68476310D01*
X196161673Y-68709699D01*
X196340302Y-68888327D01*
X196573691Y-68985000D01*
X197064250Y-68985000D01*
X197223000Y-68826250D01*
X197223000Y-67377000D01*
X196223750Y-67377000D01*
X196065000Y-67535750D01*
X194069382Y-67535750D01*
X195581442Y-66023690D01*
X196065000Y-66023690D01*
X196065000Y-66964250D01*
X196223750Y-67123000D01*
X197223000Y-67123000D01*
X197223000Y-65673750D01*
X197064250Y-65515000D01*
X196573691Y-65515000D01*
X196340302Y-65611673D01*
X196161673Y-65790301D01*
X196065000Y-66023690D01*
X195581442Y-66023690D01*
X196120133Y-65485000D01*
X198343156Y-65485000D01*
X198365000Y-65518946D01*
X198365000Y-65616975D01*
X198359698Y-65611673D01*
X198126309Y-65515000D01*
X197635750Y-65515000D01*
X197477000Y-65673750D01*
X197477000Y-67123000D01*
X197497000Y-67123000D01*
X197497000Y-67377000D01*
X197477000Y-67377000D01*
X197477000Y-68826250D01*
X197635750Y-68985000D01*
X198126309Y-68985000D01*
X198359698Y-68888327D01*
X198500936Y-68747090D01*
X198535910Y-68801441D01*
X198748110Y-68946431D01*
X198864962Y-68970094D01*
X200197434Y-70302566D01*
X200565654Y-70548603D01*
X201000000Y-70635000D01*
X204438118Y-70635000D01*
X204653093Y-70778642D01*
X204587709Y-70797941D01*
X204162020Y-71141974D01*
X203900390Y-71622723D01*
X203885430Y-71696930D01*
X204007930Y-71913000D01*
X205449200Y-71913000D01*
X205449200Y-71893000D01*
X205703200Y-71893000D01*
X205703200Y-71913000D01*
X207144470Y-71913000D01*
X207266970Y-71696930D01*
X207252010Y-71622723D01*
X206990380Y-71141974D01*
X206564691Y-70797941D01*
X206499307Y-70778642D01*
X206934540Y-70487828D01*
X207237372Y-70034609D01*
X207343712Y-69500000D01*
X207237372Y-68965391D01*
X206934540Y-68512172D01*
X206512241Y-68230000D01*
X206934540Y-67947828D01*
X207237372Y-67494609D01*
X207343712Y-66960000D01*
X207237372Y-66425391D01*
X206934540Y-65972172D01*
X206512241Y-65690000D01*
X206934540Y-65407828D01*
X207237372Y-64954609D01*
X207343712Y-64420000D01*
X207237372Y-63885391D01*
X206934540Y-63432172D01*
X206512241Y-63150000D01*
X206934540Y-62867828D01*
X207237372Y-62414609D01*
X207343712Y-61880000D01*
X207237372Y-61345391D01*
X206934540Y-60892172D01*
X206702309Y-60737000D01*
X206801060Y-60737000D01*
X207034449Y-60640327D01*
X207213077Y-60461698D01*
X207309750Y-60228309D01*
X207309750Y-59625750D01*
X207151000Y-59467000D01*
X205703200Y-59467000D01*
X205703200Y-59487000D01*
X205449200Y-59487000D01*
X205449200Y-59467000D01*
X204001400Y-59467000D01*
X203842650Y-59625750D01*
X203842650Y-60228309D01*
X203939323Y-60461698D01*
X203992625Y-60515000D01*
X200656844Y-60515000D01*
X200614090Y-60448559D01*
X200401890Y-60303569D01*
X200150000Y-60252560D01*
X198850000Y-60252560D01*
X198614683Y-60296838D01*
X198398559Y-60435910D01*
X198253569Y-60648110D01*
X198202560Y-60900000D01*
X198202560Y-62400000D01*
X198246838Y-62635317D01*
X198385910Y-62851441D01*
X198598110Y-62996431D01*
X198611197Y-62999081D01*
X198398559Y-63135910D01*
X198344519Y-63215000D01*
X195650000Y-63215000D01*
X195215655Y-63301396D01*
X194847434Y-63547433D01*
X191842308Y-66552560D01*
X191200000Y-66552560D01*
X190964683Y-66596838D01*
X190748559Y-66735910D01*
X190603569Y-66948110D01*
X190552560Y-67200000D01*
X190552560Y-68800000D01*
X190596838Y-69035317D01*
X190735910Y-69251441D01*
X190948110Y-69396431D01*
X191200000Y-69447440D01*
X191842308Y-69447440D01*
X192865000Y-70470132D01*
X192865000Y-109529868D01*
X189519868Y-112875000D01*
X186748920Y-112875000D01*
X186728162Y-112764683D01*
X186589090Y-112548559D01*
X186520994Y-112502031D01*
X186663327Y-112359698D01*
X186760000Y-112126309D01*
X186760000Y-111535750D01*
X186601250Y-111377000D01*
X185627000Y-111377000D01*
X185627000Y-111397000D01*
X185373000Y-111397000D01*
X185373000Y-111377000D01*
X184398750Y-111377000D01*
X184240000Y-111535750D01*
X184240000Y-112126309D01*
X184336673Y-112359698D01*
X184477910Y-112500936D01*
X184423559Y-112535910D01*
X184278569Y-112748110D01*
X184252873Y-112875000D01*
X183582844Y-112875000D01*
X183381170Y-112740246D01*
X183397262Y-112735525D01*
X183831191Y-112385986D01*
X184098327Y-111896996D01*
X184115010Y-111817060D01*
X183992852Y-111597000D01*
X182507000Y-111597000D01*
X182507000Y-111617000D01*
X182253000Y-111617000D01*
X182253000Y-111597000D01*
X180767148Y-111597000D01*
X180644990Y-111817060D01*
X180661673Y-111896996D01*
X180928809Y-112385986D01*
X181362738Y-112735525D01*
X181378830Y-112740246D01*
X180983778Y-113004211D01*
X180976569Y-113015000D01*
X180931844Y-113015000D01*
X180889090Y-112948559D01*
X180676890Y-112803569D01*
X180425000Y-112752560D01*
X179175000Y-112752560D01*
X178939683Y-112796838D01*
X178723559Y-112935910D01*
X178578569Y-113148110D01*
X178527560Y-113400000D01*
X178527560Y-114900000D01*
X178571838Y-115135317D01*
X178710910Y-115351441D01*
X178779006Y-115397969D01*
X178636673Y-115540302D01*
X178540000Y-115773691D01*
X178540000Y-116364250D01*
X178698750Y-116523000D01*
X179673000Y-116523000D01*
X179673000Y-116503000D01*
X179927000Y-116503000D01*
X179927000Y-116523000D01*
X179947000Y-116523000D01*
X179947000Y-116777000D01*
X179927000Y-116777000D01*
X179927000Y-117876250D01*
X180085750Y-118035000D01*
X180551310Y-118035000D01*
X180784699Y-117938327D01*
X180963327Y-117759698D01*
X180995000Y-117683233D01*
X180995000Y-118046314D01*
X179651314Y-119390000D01*
X178348686Y-119390000D01*
X177727440Y-118768754D01*
X177727440Y-118700000D01*
X177683162Y-118464683D01*
X177544090Y-118248559D01*
X177331890Y-118103569D01*
X177080000Y-118052560D01*
X176588826Y-118052560D01*
X176400000Y-118015000D01*
X176211174Y-118052560D01*
X175880000Y-118052560D01*
X175644683Y-118096838D01*
X175428559Y-118235910D01*
X175345462Y-118357527D01*
X175338327Y-118340302D01*
X175159699Y-118161673D01*
X174926310Y-118065000D01*
X174485750Y-118065000D01*
X174327000Y-118223750D01*
X174073000Y-118223750D01*
X173914250Y-118065000D01*
X173473690Y-118065000D01*
X173240301Y-118161673D01*
X173061673Y-118340302D01*
X173054409Y-118357838D01*
X172984090Y-118248559D01*
X172771890Y-118103569D01*
X172520000Y-118052560D01*
X172447768Y-118052560D01*
X172250017Y-117920427D01*
X171994791Y-117869659D01*
X171460132Y-117335000D01*
X174176310Y-117335000D01*
X174200000Y-117325187D01*
X174223690Y-117335000D01*
X177226310Y-117335000D01*
X177459699Y-117238327D01*
X177638327Y-117059698D01*
X177689668Y-116935750D01*
X178540000Y-116935750D01*
X178540000Y-117526309D01*
X178636673Y-117759698D01*
X178815301Y-117938327D01*
X179048690Y-118035000D01*
X179514250Y-118035000D01*
X179673000Y-117876250D01*
X179673000Y-116777000D01*
X178698750Y-116777000D01*
X178540000Y-116935750D01*
X177689668Y-116935750D01*
X177735000Y-116826309D01*
X177735000Y-113523691D01*
X177725187Y-113500000D01*
X177735000Y-113476309D01*
X177735000Y-110173691D01*
X177638327Y-109940302D01*
X177459699Y-109761673D01*
X177226310Y-109665000D01*
X174223690Y-109665000D01*
X174200000Y-109674813D01*
X174176310Y-109665000D01*
X171173690Y-109665000D01*
X170940301Y-109761673D01*
X170761673Y-109940302D01*
X170665000Y-110173691D01*
X170665000Y-113476309D01*
X170674813Y-113500000D01*
X170665000Y-113523691D01*
X170665000Y-116539868D01*
X168555132Y-114430000D01*
X169702567Y-113282565D01*
X169803132Y-113132059D01*
X169948604Y-112914345D01*
X170035001Y-112479999D01*
X170035001Y-108570131D01*
X171202566Y-107402566D01*
X171448603Y-107034345D01*
X171535000Y-106600000D01*
X171448603Y-106165655D01*
X171202566Y-105797434D01*
X170834345Y-105551397D01*
X170400000Y-105465000D01*
X169965655Y-105551397D01*
X169597434Y-105797434D01*
X168097435Y-107297433D01*
X167851398Y-107665653D01*
X167765001Y-108099999D01*
X167765001Y-112009867D01*
X166514579Y-113260289D01*
X166486440Y-113216559D01*
X166274240Y-113071569D01*
X166044663Y-113025079D01*
X166337980Y-112788026D01*
X166599610Y-112307277D01*
X166614570Y-112233070D01*
X166492070Y-112017000D01*
X165050800Y-112017000D01*
X165050800Y-112037000D01*
X164796800Y-112037000D01*
X164796800Y-112017000D01*
X163355530Y-112017000D01*
X163233030Y-112233070D01*
X163247990Y-112307277D01*
X163509620Y-112788026D01*
X163802616Y-113024819D01*
X163589933Y-113064838D01*
X163373809Y-113203910D01*
X163228819Y-113416110D01*
X163177810Y-113668000D01*
X160710000Y-113668000D01*
X160710000Y-109350000D01*
X163156288Y-109350000D01*
X163262628Y-109884609D01*
X163565460Y-110337828D01*
X164000693Y-110628642D01*
X163935309Y-110647941D01*
X163509620Y-110991974D01*
X163247990Y-111472723D01*
X163233030Y-111546930D01*
X163355530Y-111763000D01*
X164796800Y-111763000D01*
X164796800Y-111743000D01*
X165050800Y-111743000D01*
X165050800Y-111763000D01*
X166492070Y-111763000D01*
X166614570Y-111546930D01*
X166599610Y-111472723D01*
X166337980Y-110991974D01*
X165912291Y-110647941D01*
X165846907Y-110628642D01*
X166282140Y-110337828D01*
X166584972Y-109884609D01*
X166691312Y-109350000D01*
X166584972Y-108815391D01*
X166282140Y-108362172D01*
X165846907Y-108071358D01*
X165912291Y-108052059D01*
X166337980Y-107708026D01*
X166599610Y-107227277D01*
X166614570Y-107153070D01*
X166492070Y-106937000D01*
X165050800Y-106937000D01*
X165050800Y-106957000D01*
X164796800Y-106957000D01*
X164796800Y-106937000D01*
X163355530Y-106937000D01*
X163233030Y-107153070D01*
X163247990Y-107227277D01*
X163509620Y-107708026D01*
X163935309Y-108052059D01*
X164000693Y-108071358D01*
X163565460Y-108362172D01*
X163262628Y-108815391D01*
X163156288Y-109350000D01*
X160710000Y-109350000D01*
X160710000Y-104613070D01*
X163233030Y-104613070D01*
X163247990Y-104687277D01*
X163509620Y-105168026D01*
X163935309Y-105512059D01*
X164029973Y-105540000D01*
X163935309Y-105567941D01*
X163509620Y-105911974D01*
X163247990Y-106392723D01*
X163233030Y-106466930D01*
X163355530Y-106683000D01*
X164796800Y-106683000D01*
X164796800Y-104397000D01*
X165050800Y-104397000D01*
X165050800Y-106683000D01*
X166492070Y-106683000D01*
X166614570Y-106466930D01*
X166599610Y-106392723D01*
X166337980Y-105911974D01*
X165912291Y-105567941D01*
X165817627Y-105540000D01*
X165912291Y-105512059D01*
X166337980Y-105168026D01*
X166599610Y-104687277D01*
X166614570Y-104613070D01*
X166492070Y-104397000D01*
X165050800Y-104397000D01*
X164796800Y-104397000D01*
X163355530Y-104397000D01*
X163233030Y-104613070D01*
X160710000Y-104613070D01*
X160710000Y-99190000D01*
X163156288Y-99190000D01*
X163262628Y-99724609D01*
X163565460Y-100177828D01*
X163987759Y-100460000D01*
X163565460Y-100742172D01*
X163262628Y-101195391D01*
X163156288Y-101730000D01*
X163262628Y-102264609D01*
X163565460Y-102717828D01*
X164000693Y-103008642D01*
X163935309Y-103027941D01*
X163509620Y-103371974D01*
X163247990Y-103852723D01*
X163233030Y-103926930D01*
X163355530Y-104143000D01*
X164796800Y-104143000D01*
X164796800Y-104123000D01*
X165050800Y-104123000D01*
X165050800Y-104143000D01*
X166492070Y-104143000D01*
X166614570Y-103926930D01*
X166599610Y-103852723D01*
X166337980Y-103371974D01*
X166044760Y-103135000D01*
X169062560Y-103135000D01*
X169062560Y-103500000D01*
X169106838Y-103735317D01*
X169245910Y-103951441D01*
X169458110Y-104096431D01*
X169710000Y-104147440D01*
X171710000Y-104147440D01*
X171865000Y-104118275D01*
X171865000Y-104476310D01*
X171961673Y-104709699D01*
X172140302Y-104888327D01*
X172373691Y-104985000D01*
X172964250Y-104985000D01*
X173123000Y-104826250D01*
X173123000Y-103827000D01*
X173103000Y-103827000D01*
X173103000Y-103573000D01*
X173123000Y-103573000D01*
X173123000Y-102573750D01*
X173049250Y-102500000D01*
X173123000Y-102426250D01*
X173123000Y-101427000D01*
X173103000Y-101427000D01*
X173103000Y-101173000D01*
X173123000Y-101173000D01*
X173123000Y-100173750D01*
X172964250Y-100015000D01*
X172373691Y-100015000D01*
X172140302Y-100111673D01*
X171961673Y-100290301D01*
X171865000Y-100523690D01*
X171865000Y-100883948D01*
X171710000Y-100852560D01*
X169710000Y-100852560D01*
X169643887Y-100865000D01*
X166364211Y-100865000D01*
X166282140Y-100742172D01*
X165859841Y-100460000D01*
X166282140Y-100177828D01*
X166310757Y-100135000D01*
X168000000Y-100135000D01*
X168434346Y-100048603D01*
X168802566Y-99802566D01*
X169458081Y-99147051D01*
X169460000Y-99147440D01*
X171460000Y-99147440D01*
X171615000Y-99118275D01*
X171615000Y-99476310D01*
X171711673Y-99709699D01*
X171890302Y-99888327D01*
X172123691Y-99985000D01*
X172714250Y-99985000D01*
X172873000Y-99826250D01*
X172873000Y-98827000D01*
X172853000Y-98827000D01*
X172853000Y-98573000D01*
X172873000Y-98573000D01*
X172873000Y-97573750D01*
X172799250Y-97500000D01*
X172873000Y-97426250D01*
X172873000Y-96427000D01*
X172853000Y-96427000D01*
X172853000Y-96173000D01*
X172873000Y-96173000D01*
X172873000Y-95173750D01*
X172714250Y-95015000D01*
X172123691Y-95015000D01*
X171890302Y-95111673D01*
X171711673Y-95290301D01*
X171615000Y-95523690D01*
X171615000Y-95883948D01*
X171460000Y-95852560D01*
X169460000Y-95852560D01*
X169224683Y-95896838D01*
X169008559Y-96035910D01*
X168863569Y-96248110D01*
X168812560Y-96500000D01*
X168812560Y-96620509D01*
X168697434Y-96697434D01*
X167529868Y-97865000D01*
X165945772Y-97865000D01*
X166337980Y-97548026D01*
X166599610Y-97067277D01*
X166614570Y-96993070D01*
X166492070Y-96777000D01*
X165050800Y-96777000D01*
X165050800Y-96797000D01*
X164796800Y-96797000D01*
X164796800Y-96777000D01*
X163355530Y-96777000D01*
X163233030Y-96993070D01*
X163247990Y-97067277D01*
X163509620Y-97548026D01*
X163935309Y-97892059D01*
X164000693Y-97911358D01*
X163565460Y-98202172D01*
X163262628Y-98655391D01*
X163156288Y-99190000D01*
X160710000Y-99190000D01*
X160710000Y-94110000D01*
X163156288Y-94110000D01*
X163262628Y-94644609D01*
X163565460Y-95097828D01*
X164000693Y-95388642D01*
X163935309Y-95407941D01*
X163509620Y-95751974D01*
X163247990Y-96232723D01*
X163233030Y-96306930D01*
X163355530Y-96523000D01*
X164796800Y-96523000D01*
X164796800Y-96503000D01*
X165050800Y-96503000D01*
X165050800Y-96523000D01*
X166492070Y-96523000D01*
X166614570Y-96306930D01*
X166599610Y-96232723D01*
X166337980Y-95751974D01*
X165912291Y-95407941D01*
X165846907Y-95388642D01*
X165927188Y-95335000D01*
X167800000Y-95335000D01*
X168234346Y-95248603D01*
X168602566Y-95002566D01*
X169500181Y-94104951D01*
X169710000Y-94147440D01*
X171710000Y-94147440D01*
X171865000Y-94118275D01*
X171865000Y-94476310D01*
X171961673Y-94709699D01*
X172140302Y-94888327D01*
X172373691Y-94985000D01*
X172964250Y-94985000D01*
X173123000Y-94826250D01*
X173123000Y-93827000D01*
X173103000Y-93827000D01*
X173103000Y-93573000D01*
X173123000Y-93573000D01*
X173123000Y-92573750D01*
X173049250Y-92500000D01*
X173123000Y-92426250D01*
X173123000Y-91427000D01*
X173103000Y-91427000D01*
X173103000Y-91173000D01*
X173123000Y-91173000D01*
X173123000Y-90173750D01*
X172964250Y-90015000D01*
X172373691Y-90015000D01*
X172140302Y-90111673D01*
X171961673Y-90290301D01*
X171865000Y-90523690D01*
X171865000Y-90883948D01*
X171710000Y-90852560D01*
X169710000Y-90852560D01*
X169474683Y-90896838D01*
X169258559Y-91035910D01*
X169113569Y-91248110D01*
X169072686Y-91449998D01*
X169065654Y-91451397D01*
X168702081Y-91694329D01*
X168697434Y-91697434D01*
X167329868Y-93065000D01*
X166196576Y-93065000D01*
X165846907Y-92831358D01*
X165912291Y-92812059D01*
X166337980Y-92468026D01*
X166599610Y-91987277D01*
X166614570Y-91913070D01*
X166492070Y-91697000D01*
X165050800Y-91697000D01*
X165050800Y-91717000D01*
X164796800Y-91717000D01*
X164796800Y-91697000D01*
X163355530Y-91697000D01*
X163233030Y-91913070D01*
X163247990Y-91987277D01*
X163509620Y-92468026D01*
X163935309Y-92812059D01*
X164000693Y-92831358D01*
X163565460Y-93122172D01*
X163262628Y-93575391D01*
X163156288Y-94110000D01*
X160710000Y-94110000D01*
X160710000Y-91226930D01*
X163233030Y-91226930D01*
X163355530Y-91443000D01*
X164796800Y-91443000D01*
X164796800Y-90173000D01*
X165050800Y-90173000D01*
X165050800Y-91443000D01*
X166492070Y-91443000D01*
X166614570Y-91226930D01*
X166599610Y-91152723D01*
X166337980Y-90671974D01*
X165912291Y-90327941D01*
X165387350Y-90173000D01*
X165050800Y-90173000D01*
X164796800Y-90173000D01*
X164460250Y-90173000D01*
X163935309Y-90327941D01*
X163509620Y-90671974D01*
X163247990Y-91152723D01*
X163233030Y-91226930D01*
X160710000Y-91226930D01*
X160710000Y-74650000D01*
X163156288Y-74650000D01*
X163262628Y-75184609D01*
X163565460Y-75637828D01*
X163987759Y-75920000D01*
X163565460Y-76202172D01*
X163262628Y-76655391D01*
X163156288Y-77190000D01*
X163262628Y-77724609D01*
X163565460Y-78177828D01*
X163987759Y-78460000D01*
X163565460Y-78742172D01*
X163262628Y-79195391D01*
X163156288Y-79730000D01*
X163262628Y-80264609D01*
X163565460Y-80717828D01*
X164000693Y-81008642D01*
X163935309Y-81027941D01*
X163509620Y-81371974D01*
X163247990Y-81852723D01*
X163233030Y-81926930D01*
X163355530Y-82143000D01*
X164796800Y-82143000D01*
X164796800Y-82123000D01*
X165050800Y-82123000D01*
X165050800Y-82143000D01*
X165070800Y-82143000D01*
X165070800Y-82397000D01*
X165050800Y-82397000D01*
X165050800Y-82417000D01*
X164796800Y-82417000D01*
X164796800Y-82397000D01*
X163355530Y-82397000D01*
X163233030Y-82613070D01*
X163247990Y-82687277D01*
X163509620Y-83168026D01*
X163935309Y-83512059D01*
X164000693Y-83531358D01*
X163565460Y-83822172D01*
X163262628Y-84275391D01*
X163156288Y-84810000D01*
X163262628Y-85344609D01*
X163565460Y-85797828D01*
X163789219Y-85947340D01*
X163589933Y-85984838D01*
X163373809Y-86123910D01*
X163228819Y-86336110D01*
X163177810Y-86588000D01*
X163177810Y-88112000D01*
X163222088Y-88347317D01*
X163361160Y-88563441D01*
X163573360Y-88708431D01*
X163825250Y-88759440D01*
X166022350Y-88759440D01*
X166257667Y-88715162D01*
X166473791Y-88576090D01*
X166618781Y-88363890D01*
X166669790Y-88112000D01*
X166669790Y-86674922D01*
X167594897Y-87600029D01*
X167661397Y-87934346D01*
X167907434Y-88302566D01*
X168275654Y-88548603D01*
X168710000Y-88635000D01*
X169087962Y-88635000D01*
X169106838Y-88735317D01*
X169245910Y-88951441D01*
X169458110Y-89096431D01*
X169710000Y-89147440D01*
X171710000Y-89147440D01*
X171865000Y-89118275D01*
X171865000Y-89476310D01*
X171961673Y-89709699D01*
X172140302Y-89888327D01*
X172373691Y-89985000D01*
X172964250Y-89985000D01*
X173123000Y-89826250D01*
X173123000Y-88827000D01*
X173103000Y-88827000D01*
X173103000Y-88573000D01*
X173123000Y-88573000D01*
X173123000Y-87573750D01*
X173049250Y-87500000D01*
X173123000Y-87426250D01*
X173123000Y-86427000D01*
X173103000Y-86427000D01*
X173103000Y-86173000D01*
X173123000Y-86173000D01*
X173123000Y-85173750D01*
X172964250Y-85015000D01*
X172373691Y-85015000D01*
X172140302Y-85111673D01*
X171961673Y-85290301D01*
X171865000Y-85523690D01*
X171865000Y-85883948D01*
X171710000Y-85852560D01*
X169710000Y-85852560D01*
X169474683Y-85896838D01*
X169258559Y-86035910D01*
X169251449Y-86046317D01*
X167212566Y-84007434D01*
X167147697Y-83964090D01*
X166844346Y-83761397D01*
X166410000Y-83675000D01*
X166061882Y-83675000D01*
X165846907Y-83531358D01*
X165912291Y-83512059D01*
X166337980Y-83168026D01*
X166384097Y-83083285D01*
X166597434Y-83402566D01*
X166965654Y-83648603D01*
X167400000Y-83735000D01*
X168856778Y-83735000D01*
X168856838Y-83735317D01*
X168995910Y-83951441D01*
X169208110Y-84096431D01*
X169460000Y-84147440D01*
X171460000Y-84147440D01*
X171615000Y-84118275D01*
X171615000Y-84476310D01*
X171711673Y-84709699D01*
X171890302Y-84888327D01*
X172123691Y-84985000D01*
X172714250Y-84985000D01*
X172873000Y-84826250D01*
X172873000Y-83827000D01*
X172853000Y-83827000D01*
X172853000Y-83573000D01*
X172873000Y-83573000D01*
X172873000Y-82573750D01*
X172799250Y-82500000D01*
X172873000Y-82426250D01*
X172873000Y-81427000D01*
X172853000Y-81427000D01*
X172853000Y-81173000D01*
X172873000Y-81173000D01*
X172873000Y-80173750D01*
X172714250Y-80015000D01*
X172123691Y-80015000D01*
X171890302Y-80111673D01*
X171711673Y-80290301D01*
X171615000Y-80523690D01*
X171615000Y-80883948D01*
X171460000Y-80852560D01*
X169460000Y-80852560D01*
X169224683Y-80896838D01*
X169008559Y-81035910D01*
X168863569Y-81248110D01*
X168819648Y-81465000D01*
X167400000Y-81465000D01*
X166965654Y-81551397D01*
X166597434Y-81797434D01*
X166582050Y-81820457D01*
X166337980Y-81371974D01*
X165912291Y-81027941D01*
X165846907Y-81008642D01*
X166282140Y-80717828D01*
X166584972Y-80264609D01*
X166691312Y-79730000D01*
X166584972Y-79195391D01*
X166282140Y-78742172D01*
X165859841Y-78460000D01*
X166282140Y-78177828D01*
X166584972Y-77724609D01*
X166691312Y-77190000D01*
X166584972Y-76655391D01*
X166282140Y-76202172D01*
X165859841Y-75920000D01*
X166061882Y-75785000D01*
X167639868Y-75785000D01*
X168812560Y-76957692D01*
X168812560Y-78000000D01*
X168856838Y-78235317D01*
X168995910Y-78451441D01*
X169208110Y-78596431D01*
X169460000Y-78647440D01*
X171460000Y-78647440D01*
X171615000Y-78618275D01*
X171615000Y-78976310D01*
X171711673Y-79209699D01*
X171890302Y-79388327D01*
X172123691Y-79485000D01*
X172714250Y-79485000D01*
X172873000Y-79326250D01*
X172873000Y-78327000D01*
X172853000Y-78327000D01*
X172853000Y-78073000D01*
X172873000Y-78073000D01*
X172873000Y-77073750D01*
X172799250Y-77000000D01*
X172873000Y-76926250D01*
X172873000Y-75927000D01*
X172853000Y-75927000D01*
X172853000Y-75673000D01*
X172873000Y-75673000D01*
X172873000Y-74673750D01*
X173127000Y-74673750D01*
X173127000Y-75673000D01*
X173147000Y-75673000D01*
X173147000Y-75927000D01*
X173127000Y-75927000D01*
X173127000Y-76926250D01*
X173200750Y-77000000D01*
X173127000Y-77073750D01*
X173127000Y-78073000D01*
X173147000Y-78073000D01*
X173147000Y-78327000D01*
X173127000Y-78327000D01*
X173127000Y-79326250D01*
X173285750Y-79485000D01*
X173876309Y-79485000D01*
X174109698Y-79388327D01*
X174288327Y-79209699D01*
X174385000Y-78976310D01*
X174385000Y-78616052D01*
X174540000Y-78647440D01*
X176540000Y-78647440D01*
X176775317Y-78603162D01*
X176991441Y-78464090D01*
X177136431Y-78251890D01*
X177160102Y-78135000D01*
X179750000Y-78135000D01*
X180184346Y-78048603D01*
X180552566Y-77802566D01*
X180589560Y-77747201D01*
X180589560Y-79237400D01*
X180633838Y-79472717D01*
X180772910Y-79688841D01*
X180985110Y-79833831D01*
X181156803Y-79868600D01*
X180983778Y-79984211D01*
X180675441Y-80445671D01*
X180567167Y-80990000D01*
X180675441Y-81534329D01*
X180983778Y-81995789D01*
X181379199Y-82260000D01*
X180983778Y-82524211D01*
X180675441Y-82985671D01*
X180567167Y-83530000D01*
X180675441Y-84074329D01*
X180983778Y-84535789D01*
X181379199Y-84800000D01*
X181177156Y-84935000D01*
X181040132Y-84935000D01*
X177802566Y-81697434D01*
X177434346Y-81451397D01*
X177168339Y-81398485D01*
X177143162Y-81264683D01*
X177004090Y-81048559D01*
X176791890Y-80903569D01*
X176540000Y-80852560D01*
X174540000Y-80852560D01*
X174385000Y-80881725D01*
X174385000Y-80523690D01*
X174288327Y-80290301D01*
X174109698Y-80111673D01*
X173876309Y-80015000D01*
X173285750Y-80015000D01*
X173127000Y-80173750D01*
X173127000Y-81173000D01*
X173147000Y-81173000D01*
X173147000Y-81427000D01*
X173127000Y-81427000D01*
X173127000Y-82426250D01*
X173200750Y-82500000D01*
X173127000Y-82573750D01*
X173127000Y-83573000D01*
X173147000Y-83573000D01*
X173147000Y-83827000D01*
X173127000Y-83827000D01*
X173127000Y-84826250D01*
X173285750Y-84985000D01*
X173876309Y-84985000D01*
X174109698Y-84888327D01*
X174288327Y-84709699D01*
X174385000Y-84476310D01*
X174385000Y-84116052D01*
X174540000Y-84147440D01*
X176540000Y-84147440D01*
X176775317Y-84103162D01*
X176910830Y-84015962D01*
X179767434Y-86872566D01*
X180135654Y-87118603D01*
X180570000Y-87205000D01*
X181177156Y-87205000D01*
X181379199Y-87340000D01*
X181177156Y-87475000D01*
X179580132Y-87475000D01*
X178802566Y-86697434D01*
X178700656Y-86629340D01*
X178434346Y-86451397D01*
X178000000Y-86365000D01*
X177412038Y-86365000D01*
X177393162Y-86264683D01*
X177254090Y-86048559D01*
X177041890Y-85903569D01*
X176790000Y-85852560D01*
X174790000Y-85852560D01*
X174635000Y-85881725D01*
X174635000Y-85523690D01*
X174538327Y-85290301D01*
X174359698Y-85111673D01*
X174126309Y-85015000D01*
X173535750Y-85015000D01*
X173377000Y-85173750D01*
X173377000Y-86173000D01*
X173397000Y-86173000D01*
X173397000Y-86427000D01*
X173377000Y-86427000D01*
X173377000Y-87426250D01*
X173450750Y-87500000D01*
X173377000Y-87573750D01*
X173377000Y-88573000D01*
X173397000Y-88573000D01*
X173397000Y-88827000D01*
X173377000Y-88827000D01*
X173377000Y-89826250D01*
X173535750Y-89985000D01*
X174126309Y-89985000D01*
X174359698Y-89888327D01*
X174538327Y-89709699D01*
X174635000Y-89476310D01*
X174635000Y-89116052D01*
X174790000Y-89147440D01*
X176790000Y-89147440D01*
X177025317Y-89103162D01*
X177241441Y-88964090D01*
X177386431Y-88751890D01*
X177410102Y-88635000D01*
X177529868Y-88635000D01*
X178307434Y-89412566D01*
X178675654Y-89658603D01*
X179110000Y-89745000D01*
X181177156Y-89745000D01*
X181379199Y-89880000D01*
X181177156Y-90015000D01*
X179350000Y-90015000D01*
X178915654Y-90101397D01*
X178547434Y-90347434D01*
X177529868Y-91365000D01*
X177412038Y-91365000D01*
X177393162Y-91264683D01*
X177254090Y-91048559D01*
X177041890Y-90903569D01*
X176790000Y-90852560D01*
X174790000Y-90852560D01*
X174635000Y-90881725D01*
X174635000Y-90523690D01*
X174538327Y-90290301D01*
X174359698Y-90111673D01*
X174126309Y-90015000D01*
X173535750Y-90015000D01*
X173377000Y-90173750D01*
X173377000Y-91173000D01*
X173397000Y-91173000D01*
X173397000Y-91427000D01*
X173377000Y-91427000D01*
X173377000Y-92426250D01*
X173450750Y-92500000D01*
X173377000Y-92573750D01*
X173377000Y-93573000D01*
X173397000Y-93573000D01*
X173397000Y-93827000D01*
X173377000Y-93827000D01*
X173377000Y-94826250D01*
X173535750Y-94985000D01*
X174126309Y-94985000D01*
X174359698Y-94888327D01*
X174538327Y-94709699D01*
X174635000Y-94476310D01*
X174635000Y-94116052D01*
X174790000Y-94147440D01*
X176790000Y-94147440D01*
X177025317Y-94103162D01*
X177241441Y-93964090D01*
X177386431Y-93751890D01*
X177410102Y-93635000D01*
X178000000Y-93635000D01*
X178434346Y-93548603D01*
X178802566Y-93302566D01*
X179820132Y-92285000D01*
X181177156Y-92285000D01*
X181379199Y-92420000D01*
X181120847Y-92592625D01*
X180875655Y-92641396D01*
X180507434Y-92887434D01*
X177138081Y-96256787D01*
X177004090Y-96048559D01*
X176791890Y-95903569D01*
X176540000Y-95852560D01*
X174540000Y-95852560D01*
X174385000Y-95881725D01*
X174385000Y-95523690D01*
X174288327Y-95290301D01*
X174109698Y-95111673D01*
X173876309Y-95015000D01*
X173285750Y-95015000D01*
X173127000Y-95173750D01*
X173127000Y-96173000D01*
X173147000Y-96173000D01*
X173147000Y-96427000D01*
X173127000Y-96427000D01*
X173127000Y-97426250D01*
X173200750Y-97500000D01*
X173127000Y-97573750D01*
X173127000Y-98573000D01*
X173147000Y-98573000D01*
X173147000Y-98827000D01*
X173127000Y-98827000D01*
X173127000Y-99826250D01*
X173285750Y-99985000D01*
X173876309Y-99985000D01*
X174109698Y-99888327D01*
X174288327Y-99709699D01*
X174385000Y-99476310D01*
X174385000Y-99116052D01*
X174540000Y-99147440D01*
X176540000Y-99147440D01*
X176775317Y-99103162D01*
X176991441Y-98964090D01*
X177136431Y-98751890D01*
X177160102Y-98635000D01*
X177500000Y-98635000D01*
X177934346Y-98548603D01*
X178302566Y-98302566D01*
X178429526Y-98175606D01*
X178365000Y-98500000D01*
X178365000Y-101029867D01*
X178029868Y-101365000D01*
X177412038Y-101365000D01*
X177393162Y-101264683D01*
X177254090Y-101048559D01*
X177041890Y-100903569D01*
X176790000Y-100852560D01*
X174790000Y-100852560D01*
X174635000Y-100881725D01*
X174635000Y-100523690D01*
X174538327Y-100290301D01*
X174359698Y-100111673D01*
X174126309Y-100015000D01*
X173535750Y-100015000D01*
X173377000Y-100173750D01*
X173377000Y-101173000D01*
X173397000Y-101173000D01*
X173397000Y-101427000D01*
X173377000Y-101427000D01*
X173377000Y-102426250D01*
X173450750Y-102500000D01*
X173377000Y-102573750D01*
X173377000Y-103573000D01*
X173397000Y-103573000D01*
X173397000Y-103827000D01*
X173377000Y-103827000D01*
X173377000Y-104826250D01*
X173535750Y-104985000D01*
X174126309Y-104985000D01*
X174359698Y-104888327D01*
X174538327Y-104709699D01*
X174635000Y-104476310D01*
X174635000Y-104116052D01*
X174790000Y-104147440D01*
X176790000Y-104147440D01*
X177025317Y-104103162D01*
X177241441Y-103964090D01*
X177386431Y-103751890D01*
X177410102Y-103635000D01*
X178500000Y-103635000D01*
X178934346Y-103548603D01*
X179302566Y-103302566D01*
X180302567Y-102302566D01*
X180548604Y-101934345D01*
X180619980Y-101575510D01*
X180675441Y-101854329D01*
X180983778Y-102315789D01*
X181379199Y-102580000D01*
X180983778Y-102844211D01*
X180675441Y-103305671D01*
X180567167Y-103850000D01*
X180675441Y-104394329D01*
X180983778Y-104855789D01*
X181379199Y-105120000D01*
X180983778Y-105384211D01*
X180675441Y-105845671D01*
X180567167Y-106390000D01*
X180675441Y-106934329D01*
X180983778Y-107395789D01*
X181379199Y-107660000D01*
X180983778Y-107924211D01*
X180675441Y-108385671D01*
X180567167Y-108930000D01*
X180675441Y-109474329D01*
X180983778Y-109935789D01*
X181378830Y-110199754D01*
X181362738Y-110204475D01*
X180928809Y-110554014D01*
X180661673Y-111043004D01*
X180644990Y-111122940D01*
X180767148Y-111343000D01*
X182253000Y-111343000D01*
X182253000Y-111323000D01*
X182507000Y-111323000D01*
X182507000Y-111343000D01*
X183992852Y-111343000D01*
X184115010Y-111122940D01*
X184098327Y-111043004D01*
X183831191Y-110554014D01*
X183607333Y-110373691D01*
X184240000Y-110373691D01*
X184240000Y-110964250D01*
X184398750Y-111123000D01*
X185373000Y-111123000D01*
X185373000Y-110023750D01*
X185627000Y-110023750D01*
X185627000Y-111123000D01*
X186601250Y-111123000D01*
X186760000Y-110964250D01*
X186760000Y-110373691D01*
X186663327Y-110140302D01*
X186484699Y-109961673D01*
X186251310Y-109865000D01*
X185785750Y-109865000D01*
X185627000Y-110023750D01*
X185373000Y-110023750D01*
X185214250Y-109865000D01*
X184748690Y-109865000D01*
X184515301Y-109961673D01*
X184336673Y-110140302D01*
X184240000Y-110373691D01*
X183607333Y-110373691D01*
X183397262Y-110204475D01*
X183381170Y-110199754D01*
X183776222Y-109935789D01*
X184084559Y-109474329D01*
X184192833Y-108930000D01*
X184084559Y-108385671D01*
X183776222Y-107924211D01*
X183380801Y-107660000D01*
X183776222Y-107395789D01*
X184084559Y-106934329D01*
X184192833Y-106390000D01*
X184084559Y-105845671D01*
X183856841Y-105504866D01*
X183990301Y-105638327D01*
X184223690Y-105735000D01*
X184714250Y-105735000D01*
X184873000Y-105576250D01*
X184873000Y-104477000D01*
X185127000Y-104477000D01*
X185127000Y-105576250D01*
X185285750Y-105735000D01*
X185776310Y-105735000D01*
X186009699Y-105638327D01*
X186188327Y-105459698D01*
X186285000Y-105226309D01*
X186285000Y-104635750D01*
X186126250Y-104477000D01*
X185127000Y-104477000D01*
X184873000Y-104477000D01*
X184853000Y-104477000D01*
X184853000Y-104223000D01*
X184873000Y-104223000D01*
X184873000Y-104203000D01*
X185127000Y-104203000D01*
X185127000Y-104223000D01*
X186126250Y-104223000D01*
X186285000Y-104064250D01*
X186285000Y-103473691D01*
X186188327Y-103240302D01*
X186009699Y-103061673D01*
X185873713Y-103005346D01*
X185885317Y-103003162D01*
X186101441Y-102864090D01*
X186246431Y-102651890D01*
X186297440Y-102400000D01*
X186297440Y-100900000D01*
X186253162Y-100664683D01*
X186114090Y-100448559D01*
X185901890Y-100303569D01*
X185650000Y-100252560D01*
X185049920Y-100252560D01*
X185024180Y-100247440D01*
X185650000Y-100247440D01*
X185885317Y-100203162D01*
X186101441Y-100064090D01*
X186246431Y-99851890D01*
X186297440Y-99600000D01*
X186297440Y-98100000D01*
X186253162Y-97864683D01*
X186114090Y-97648559D01*
X185901890Y-97503569D01*
X185868510Y-97496809D01*
X186009699Y-97438327D01*
X186188327Y-97259698D01*
X186285000Y-97026309D01*
X186285000Y-96435750D01*
X186126250Y-96277000D01*
X185127000Y-96277000D01*
X185127000Y-96297000D01*
X184873000Y-96297000D01*
X184873000Y-96277000D01*
X184853000Y-96277000D01*
X184853000Y-96023000D01*
X184873000Y-96023000D01*
X184873000Y-94923750D01*
X185127000Y-94923750D01*
X185127000Y-96023000D01*
X186126250Y-96023000D01*
X186285000Y-95864250D01*
X186285000Y-95273691D01*
X186188327Y-95040302D01*
X186009699Y-94861673D01*
X185776310Y-94765000D01*
X185285750Y-94765000D01*
X185127000Y-94923750D01*
X184873000Y-94923750D01*
X184714250Y-94765000D01*
X184223690Y-94765000D01*
X183990301Y-94861673D01*
X183811673Y-95040302D01*
X183744324Y-95202897D01*
X183380801Y-94960000D01*
X183776222Y-94695789D01*
X184084559Y-94234329D01*
X184192833Y-93690000D01*
X184084559Y-93145671D01*
X183776222Y-92684211D01*
X183380801Y-92420000D01*
X183776222Y-92155789D01*
X184084559Y-91694329D01*
X184192833Y-91150000D01*
X184084559Y-90605671D01*
X183776222Y-90144211D01*
X183380801Y-89880000D01*
X183776222Y-89615789D01*
X184084559Y-89154329D01*
X184192833Y-88610000D01*
X184084559Y-88065671D01*
X183776222Y-87604211D01*
X183380801Y-87340000D01*
X183665157Y-87150000D01*
X185452560Y-87150000D01*
X185452560Y-89150000D01*
X185496838Y-89385317D01*
X185635910Y-89601441D01*
X185848110Y-89746431D01*
X186100000Y-89797440D01*
X189723329Y-89797440D01*
X189702560Y-89900000D01*
X189702560Y-91400000D01*
X189746838Y-91635317D01*
X189885910Y-91851441D01*
X190098110Y-91996431D01*
X190111197Y-91999081D01*
X189898559Y-92135910D01*
X189753569Y-92348110D01*
X189702560Y-92600000D01*
X189702560Y-94100000D01*
X189746838Y-94335317D01*
X189865000Y-94518946D01*
X189865000Y-98500000D01*
X189951397Y-98934346D01*
X190197434Y-99302566D01*
X190565654Y-99548603D01*
X191000000Y-99635000D01*
X191434346Y-99548603D01*
X191802566Y-99302566D01*
X192048603Y-98934346D01*
X192135000Y-98500000D01*
X192135000Y-94514975D01*
X192246431Y-94351890D01*
X192297440Y-94100000D01*
X192297440Y-92600000D01*
X192253162Y-92364683D01*
X192114090Y-92148559D01*
X191901890Y-92003569D01*
X191888803Y-92000919D01*
X192101441Y-91864090D01*
X192246431Y-91651890D01*
X192297440Y-91400000D01*
X192297440Y-89900000D01*
X192253162Y-89664683D01*
X192135000Y-89481054D01*
X192135000Y-82550000D01*
X192048603Y-82115654D01*
X192018804Y-82071057D01*
X191802566Y-81747433D01*
X191697440Y-81642307D01*
X191697440Y-80850000D01*
X191653162Y-80614683D01*
X191514090Y-80398559D01*
X191301890Y-80253569D01*
X191050000Y-80202560D01*
X189550000Y-80202560D01*
X189314683Y-80246838D01*
X189148523Y-80353759D01*
X189135000Y-80344519D01*
X189135000Y-79470132D01*
X189602566Y-79002566D01*
X189681559Y-78884345D01*
X189848603Y-78634346D01*
X189935000Y-78200000D01*
X189935000Y-68894606D01*
X190015824Y-68813923D01*
X190234750Y-68286691D01*
X190235248Y-67715813D01*
X190017243Y-67188200D01*
X189613923Y-66784176D01*
X189086691Y-66565250D01*
X188515813Y-66564752D01*
X187988200Y-66782757D01*
X187584176Y-67186077D01*
X187365250Y-67713309D01*
X187364752Y-68284187D01*
X187582757Y-68811800D01*
X187665000Y-68894187D01*
X187665000Y-77729868D01*
X187197434Y-78197434D01*
X186951397Y-78565654D01*
X186865000Y-79000000D01*
X186865000Y-80343156D01*
X186850508Y-80352482D01*
X186809699Y-80311673D01*
X186576310Y-80215000D01*
X185985750Y-80215000D01*
X185827000Y-80373750D01*
X185827000Y-81723000D01*
X185847000Y-81723000D01*
X185847000Y-81977000D01*
X185827000Y-81977000D01*
X185827000Y-83326250D01*
X185985750Y-83485000D01*
X186576310Y-83485000D01*
X186809699Y-83388327D01*
X186851660Y-83346366D01*
X186998110Y-83446431D01*
X187250000Y-83497440D01*
X188750000Y-83497440D01*
X188985317Y-83453162D01*
X189151477Y-83346241D01*
X189298110Y-83446431D01*
X189550000Y-83497440D01*
X189865000Y-83497440D01*
X189865000Y-86502560D01*
X186100000Y-86502560D01*
X185864683Y-86546838D01*
X185648559Y-86685910D01*
X185503569Y-86898110D01*
X185452560Y-87150000D01*
X183665157Y-87150000D01*
X183776222Y-87075789D01*
X184084559Y-86614329D01*
X184192833Y-86070000D01*
X184084559Y-85525671D01*
X183776222Y-85064211D01*
X183380801Y-84800000D01*
X183776222Y-84535789D01*
X184084559Y-84074329D01*
X184192833Y-83530000D01*
X184084559Y-82985671D01*
X183776222Y-82524211D01*
X183380801Y-82260000D01*
X183566754Y-82135750D01*
X184315000Y-82135750D01*
X184315000Y-82976309D01*
X184411673Y-83209698D01*
X184590301Y-83388327D01*
X184823690Y-83485000D01*
X185414250Y-83485000D01*
X185573000Y-83326250D01*
X185573000Y-81977000D01*
X184473750Y-81977000D01*
X184315000Y-82135750D01*
X183566754Y-82135750D01*
X183776222Y-81995789D01*
X184084559Y-81534329D01*
X184192833Y-80990000D01*
X184139861Y-80723691D01*
X184315000Y-80723691D01*
X184315000Y-81564250D01*
X184473750Y-81723000D01*
X185573000Y-81723000D01*
X185573000Y-80373750D01*
X185414250Y-80215000D01*
X184823690Y-80215000D01*
X184590301Y-80311673D01*
X184411673Y-80490302D01*
X184315000Y-80723691D01*
X184139861Y-80723691D01*
X184084559Y-80445671D01*
X183776222Y-79984211D01*
X183604540Y-79869497D01*
X183758317Y-79840562D01*
X183974441Y-79701490D01*
X184054035Y-79585000D01*
X184435025Y-79585000D01*
X184598110Y-79696431D01*
X184850000Y-79747440D01*
X186150000Y-79747440D01*
X186385317Y-79703162D01*
X186601441Y-79564090D01*
X186746431Y-79351890D01*
X186797440Y-79100000D01*
X186797440Y-77600000D01*
X186753162Y-77364683D01*
X186614090Y-77148559D01*
X186401890Y-77003569D01*
X186388803Y-77000919D01*
X186601441Y-76864090D01*
X186746431Y-76651890D01*
X186797440Y-76400000D01*
X186797440Y-74900000D01*
X186753162Y-74664683D01*
X186635000Y-74481054D01*
X186635000Y-66050000D01*
X186548603Y-65615654D01*
X186302566Y-65247434D01*
X185197440Y-64142308D01*
X185197440Y-63350000D01*
X185153162Y-63114683D01*
X185035000Y-62931054D01*
X185035000Y-61772038D01*
X185135317Y-61753162D01*
X185351441Y-61614090D01*
X185496431Y-61401890D01*
X185503191Y-61368510D01*
X185561673Y-61509699D01*
X185740302Y-61688327D01*
X185973691Y-61785000D01*
X186564250Y-61785000D01*
X186723000Y-61626250D01*
X186723000Y-60627000D01*
X186977000Y-60627000D01*
X186977000Y-61626250D01*
X187135750Y-61785000D01*
X187726309Y-61785000D01*
X187959698Y-61688327D01*
X188138327Y-61509699D01*
X188235000Y-61276310D01*
X188235000Y-60785750D01*
X188076250Y-60627000D01*
X186977000Y-60627000D01*
X186723000Y-60627000D01*
X186703000Y-60627000D01*
X186703000Y-60373000D01*
X186723000Y-60373000D01*
X186723000Y-59373750D01*
X186977000Y-59373750D01*
X186977000Y-60373000D01*
X188076250Y-60373000D01*
X188235000Y-60214250D01*
X188235000Y-59723690D01*
X188138327Y-59490301D01*
X187959698Y-59311673D01*
X187726309Y-59215000D01*
X187135750Y-59215000D01*
X186977000Y-59373750D01*
X186723000Y-59373750D01*
X186564250Y-59215000D01*
X185973691Y-59215000D01*
X185740302Y-59311673D01*
X185561673Y-59490301D01*
X185505346Y-59626287D01*
X185503162Y-59614683D01*
X185364090Y-59398559D01*
X185151890Y-59253569D01*
X184900000Y-59202560D01*
X183400000Y-59202560D01*
X183164683Y-59246838D01*
X182948559Y-59385910D01*
X182803569Y-59598110D01*
X182752560Y-59850000D01*
X182752560Y-61150000D01*
X182796838Y-61385317D01*
X182935910Y-61601441D01*
X183148110Y-61746431D01*
X183265000Y-61770102D01*
X183265000Y-62702560D01*
X183050000Y-62702560D01*
X182814683Y-62746838D01*
X182648523Y-62853759D01*
X182635000Y-62844519D01*
X182635000Y-60058626D01*
X182714716Y-59866648D01*
X182715284Y-59216205D01*
X182466894Y-58615057D01*
X182303814Y-58451691D01*
X203842650Y-58451691D01*
X203842650Y-59054250D01*
X204001400Y-59213000D01*
X205449200Y-59213000D01*
X205449200Y-58101750D01*
X205703200Y-58101750D01*
X205703200Y-59213000D01*
X207151000Y-59213000D01*
X207309750Y-59054250D01*
X207309750Y-58451691D01*
X207213077Y-58218302D01*
X207034449Y-58039673D01*
X206801060Y-57943000D01*
X205861950Y-57943000D01*
X205703200Y-58101750D01*
X205449200Y-58101750D01*
X205290450Y-57943000D01*
X204351340Y-57943000D01*
X204117951Y-58039673D01*
X203939323Y-58218302D01*
X203842650Y-58451691D01*
X182303814Y-58451691D01*
X182007363Y-58154722D01*
X181406648Y-57905284D01*
X180756205Y-57904716D01*
X180155057Y-58153106D01*
X179694722Y-58612637D01*
X179445284Y-59213352D01*
X179444716Y-59863795D01*
X179693106Y-60464943D01*
X180152637Y-60925278D01*
X180365000Y-61013459D01*
X180365000Y-62843156D01*
X180350508Y-62852482D01*
X180309699Y-62811673D01*
X180076310Y-62715000D01*
X179485750Y-62715000D01*
X179327000Y-62873750D01*
X179327000Y-64223000D01*
X179347000Y-64223000D01*
X179347000Y-64477000D01*
X179327000Y-64477000D01*
X179327000Y-65826250D01*
X179485750Y-65985000D01*
X180076310Y-65985000D01*
X180309699Y-65888327D01*
X180351660Y-65846366D01*
X180498110Y-65946431D01*
X180750000Y-65997440D01*
X182250000Y-65997440D01*
X182485317Y-65953162D01*
X182651477Y-65846241D01*
X182798110Y-65946431D01*
X183050000Y-65997440D01*
X183842308Y-65997440D01*
X184365000Y-66520132D01*
X184365000Y-74485025D01*
X184253569Y-74648110D01*
X184202560Y-74900000D01*
X184202560Y-76400000D01*
X184246838Y-76635317D01*
X184385910Y-76851441D01*
X184598110Y-76996431D01*
X184611197Y-76999081D01*
X184398559Y-77135910D01*
X184276192Y-77315000D01*
X184053910Y-77315000D01*
X183987090Y-77211159D01*
X183774890Y-77066169D01*
X183523000Y-77015160D01*
X183265000Y-77015160D01*
X183265000Y-74380005D01*
X183265001Y-74380000D01*
X183197633Y-74041326D01*
X183197633Y-74041325D01*
X183005790Y-73754210D01*
X183005787Y-73754208D01*
X182125790Y-72874210D01*
X182036701Y-72814683D01*
X181838675Y-72682367D01*
X181782484Y-72671190D01*
X181500000Y-72614999D01*
X181499995Y-72615000D01*
X180924669Y-72615000D01*
X180914090Y-72598559D01*
X180701890Y-72453569D01*
X180450000Y-72402560D01*
X179650000Y-72402560D01*
X179414683Y-72446838D01*
X179198559Y-72585910D01*
X179053569Y-72798110D01*
X179002560Y-73050000D01*
X179002560Y-73950000D01*
X179046838Y-74185317D01*
X179185910Y-74401441D01*
X179398110Y-74546431D01*
X179650000Y-74597440D01*
X180450000Y-74597440D01*
X180685317Y-74553162D01*
X180901441Y-74414090D01*
X180921317Y-74385000D01*
X181133420Y-74385000D01*
X181495000Y-74746579D01*
X181495000Y-77015160D01*
X181237000Y-77015160D01*
X181001683Y-77059438D01*
X180854314Y-77154267D01*
X180885000Y-77000000D01*
X180798603Y-76565654D01*
X180552566Y-76197434D01*
X180184346Y-75951397D01*
X179750000Y-75865000D01*
X177162038Y-75865000D01*
X177143162Y-75764683D01*
X177004090Y-75548559D01*
X176791890Y-75403569D01*
X176540000Y-75352560D01*
X174540000Y-75352560D01*
X174385000Y-75381725D01*
X174385000Y-75023690D01*
X174288327Y-74790301D01*
X174109698Y-74611673D01*
X173876309Y-74515000D01*
X173285750Y-74515000D01*
X173127000Y-74673750D01*
X172873000Y-74673750D01*
X172714250Y-74515000D01*
X172123691Y-74515000D01*
X171890302Y-74611673D01*
X171711673Y-74790301D01*
X171615000Y-75023690D01*
X171615000Y-75383948D01*
X171460000Y-75352560D01*
X171385000Y-75352560D01*
X171385000Y-74764975D01*
X171496431Y-74601890D01*
X171547440Y-74350000D01*
X171547440Y-73191284D01*
X171773691Y-73285000D01*
X172364250Y-73285000D01*
X172523000Y-73126250D01*
X172523000Y-72127000D01*
X172503000Y-72127000D01*
X172503000Y-71873000D01*
X172523000Y-71873000D01*
X172523000Y-70873750D01*
X172777000Y-70873750D01*
X172777000Y-71873000D01*
X172797000Y-71873000D01*
X172797000Y-72127000D01*
X172777000Y-72127000D01*
X172777000Y-73126250D01*
X172935750Y-73285000D01*
X173526309Y-73285000D01*
X173759698Y-73188327D01*
X173938327Y-73009699D01*
X173994654Y-72873713D01*
X173996838Y-72885317D01*
X174135910Y-73101441D01*
X174348110Y-73246431D01*
X174600000Y-73297440D01*
X176100000Y-73297440D01*
X176335317Y-73253162D01*
X176551441Y-73114090D01*
X176677710Y-72929289D01*
X176902560Y-73154139D01*
X176902560Y-73950000D01*
X176946838Y-74185317D01*
X177085910Y-74401441D01*
X177298110Y-74546431D01*
X177550000Y-74597440D01*
X178350000Y-74597440D01*
X178585317Y-74553162D01*
X178801441Y-74414090D01*
X178946431Y-74201890D01*
X178997440Y-73950000D01*
X178997440Y-73050000D01*
X178953162Y-72814683D01*
X178814090Y-72598559D01*
X178712910Y-72529426D01*
X178575790Y-72324210D01*
X178575787Y-72324208D01*
X177625790Y-71374210D01*
X177589557Y-71350000D01*
X177338675Y-71182367D01*
X177282484Y-71171190D01*
X177000000Y-71114999D01*
X176999995Y-71115000D01*
X176703222Y-71115000D01*
X176703162Y-71114683D01*
X176564090Y-70898559D01*
X176351890Y-70753569D01*
X176100000Y-70702560D01*
X174600000Y-70702560D01*
X174364683Y-70746838D01*
X174148559Y-70885910D01*
X174003569Y-71098110D01*
X173996809Y-71131490D01*
X173938327Y-70990301D01*
X173759698Y-70811673D01*
X173526309Y-70715000D01*
X172935750Y-70715000D01*
X172777000Y-70873750D01*
X172523000Y-70873750D01*
X172364250Y-70715000D01*
X171773691Y-70715000D01*
X171540302Y-70811673D01*
X171535000Y-70816975D01*
X171535000Y-70772998D01*
X171376252Y-70772998D01*
X171535000Y-70614250D01*
X171535000Y-70023691D01*
X171438327Y-69790302D01*
X171298026Y-69650000D01*
X178952560Y-69650000D01*
X178952560Y-71650000D01*
X178996838Y-71885317D01*
X179135910Y-72101441D01*
X179348110Y-72246431D01*
X179600000Y-72297440D01*
X183400000Y-72297440D01*
X183635317Y-72253162D01*
X183851441Y-72114090D01*
X183996431Y-71901890D01*
X184047440Y-71650000D01*
X184047440Y-69650000D01*
X184003162Y-69414683D01*
X183864090Y-69198559D01*
X183651890Y-69053569D01*
X183400000Y-69002560D01*
X179600000Y-69002560D01*
X179364683Y-69046838D01*
X179148559Y-69185910D01*
X179003569Y-69398110D01*
X178952560Y-69650000D01*
X171298026Y-69650000D01*
X171259699Y-69611673D01*
X171026310Y-69515000D01*
X170535750Y-69515000D01*
X170377000Y-69673750D01*
X170377000Y-70773000D01*
X170397000Y-70773000D01*
X170397000Y-71027000D01*
X170377000Y-71027000D01*
X170377000Y-71047000D01*
X170123000Y-71047000D01*
X170123000Y-71027000D01*
X169123750Y-71027000D01*
X168965000Y-71185750D01*
X168965000Y-71776309D01*
X169061673Y-72009698D01*
X169240301Y-72188327D01*
X169376287Y-72244654D01*
X169364683Y-72246838D01*
X169148559Y-72385910D01*
X169003569Y-72598110D01*
X168952560Y-72850000D01*
X168952560Y-73887428D01*
X168912566Y-73847434D01*
X168893959Y-73835001D01*
X168544346Y-73601397D01*
X168110000Y-73515000D01*
X166061882Y-73515000D01*
X165828921Y-73359340D01*
X165294312Y-73253000D01*
X164553288Y-73253000D01*
X164018679Y-73359340D01*
X163565460Y-73662172D01*
X163262628Y-74115391D01*
X163156288Y-74650000D01*
X160710000Y-74650000D01*
X160710000Y-70023691D01*
X168965000Y-70023691D01*
X168965000Y-70614250D01*
X169123750Y-70773000D01*
X170123000Y-70773000D01*
X170123000Y-69673750D01*
X169964250Y-69515000D01*
X169473690Y-69515000D01*
X169240301Y-69611673D01*
X169061673Y-69790302D01*
X168965000Y-70023691D01*
X160710000Y-70023691D01*
X160710000Y-54783795D01*
X169284716Y-54783795D01*
X169533106Y-55384943D01*
X169992637Y-55845278D01*
X170593352Y-56094716D01*
X171243795Y-56095284D01*
X171844943Y-55846894D01*
X172190199Y-55502241D01*
X172325000Y-55637278D01*
X172325000Y-58362796D01*
X172189801Y-58497759D01*
X171847363Y-58154722D01*
X171246648Y-57905284D01*
X170596205Y-57904716D01*
X169995057Y-58153106D01*
X169534722Y-58612637D01*
X169285284Y-59213352D01*
X169284716Y-59863795D01*
X169533106Y-60464943D01*
X169992637Y-60925278D01*
X170593352Y-61174716D01*
X171243795Y-61175284D01*
X171844943Y-60926894D01*
X172190199Y-60582241D01*
X172532637Y-60925278D01*
X173133352Y-61174716D01*
X173783795Y-61175284D01*
X174384943Y-60926894D01*
X174730199Y-60582241D01*
X175072637Y-60925278D01*
X175673352Y-61174716D01*
X176323795Y-61175284D01*
X176614999Y-61054961D01*
X176614999Y-61179869D01*
X174397434Y-63397434D01*
X174151397Y-63765654D01*
X174065000Y-64200000D01*
X174065000Y-66800000D01*
X174151397Y-67234346D01*
X174397434Y-67602566D01*
X174765654Y-67848603D01*
X175200000Y-67935000D01*
X175634346Y-67848603D01*
X176002566Y-67602566D01*
X176248603Y-67234346D01*
X176335000Y-66800000D01*
X176335000Y-64670132D01*
X176369382Y-64635750D01*
X177815000Y-64635750D01*
X177815000Y-65476309D01*
X177911673Y-65709698D01*
X178090301Y-65888327D01*
X178323690Y-65985000D01*
X178914250Y-65985000D01*
X179073000Y-65826250D01*
X179073000Y-64477000D01*
X177973750Y-64477000D01*
X177815000Y-64635750D01*
X176369382Y-64635750D01*
X177838730Y-63166402D01*
X177815000Y-63223691D01*
X177815000Y-64064250D01*
X177973750Y-64223000D01*
X179073000Y-64223000D01*
X179073000Y-62873750D01*
X178914250Y-62715000D01*
X178323690Y-62715000D01*
X178266403Y-62738729D01*
X178552565Y-62452567D01*
X178644922Y-62314345D01*
X178798602Y-62084347D01*
X178884999Y-61650001D01*
X178884999Y-58260133D01*
X181050157Y-56094975D01*
X181403795Y-56095284D01*
X181446188Y-56077767D01*
X181494208Y-56125787D01*
X181494210Y-56125790D01*
X181781325Y-56317633D01*
X182120000Y-56385001D01*
X182120005Y-56385000D01*
X182912721Y-56385000D01*
X183035910Y-56576441D01*
X183248110Y-56721431D01*
X183500000Y-56772440D01*
X185000000Y-56772440D01*
X185235317Y-56728162D01*
X185451441Y-56589090D01*
X185497969Y-56520994D01*
X185640302Y-56663327D01*
X185873691Y-56760000D01*
X186464250Y-56760000D01*
X186623000Y-56601250D01*
X186623000Y-55627000D01*
X186877000Y-55627000D01*
X186877000Y-56601250D01*
X187035750Y-56760000D01*
X187626309Y-56760000D01*
X187859698Y-56663327D01*
X188038327Y-56484699D01*
X188135000Y-56251310D01*
X188135000Y-55785750D01*
X187976250Y-55627000D01*
X186877000Y-55627000D01*
X186623000Y-55627000D01*
X186603000Y-55627000D01*
X186603000Y-55373000D01*
X186623000Y-55373000D01*
X186623000Y-54398750D01*
X186877000Y-54398750D01*
X186877000Y-55373000D01*
X187976250Y-55373000D01*
X188135000Y-55214250D01*
X188135000Y-54748690D01*
X188038327Y-54515301D01*
X187859698Y-54336673D01*
X187626309Y-54240000D01*
X187035750Y-54240000D01*
X186877000Y-54398750D01*
X186623000Y-54398750D01*
X186464250Y-54240000D01*
X185873691Y-54240000D01*
X185640302Y-54336673D01*
X185499064Y-54477910D01*
X185464090Y-54423559D01*
X185251890Y-54278569D01*
X185000000Y-54227560D01*
X183500000Y-54227560D01*
X183264683Y-54271838D01*
X183048559Y-54410910D01*
X182909110Y-54615000D01*
X182714866Y-54615000D01*
X182715284Y-54136205D01*
X182466894Y-53535057D01*
X182007363Y-53074722D01*
X181406648Y-52825284D01*
X180756205Y-52824716D01*
X180155057Y-53073106D01*
X179694722Y-53532637D01*
X179445284Y-54133352D01*
X179444973Y-54489895D01*
X177135000Y-56799868D01*
X177135000Y-55637204D01*
X177385278Y-55387363D01*
X177634716Y-54786648D01*
X177635284Y-54136205D01*
X177386894Y-53535057D01*
X176927363Y-53074722D01*
X176326648Y-52825284D01*
X175676205Y-52824716D01*
X175075057Y-53073106D01*
X174729801Y-53417759D01*
X174387363Y-53074722D01*
X173786648Y-52825284D01*
X173136205Y-52824716D01*
X172535057Y-53073106D01*
X172189801Y-53417759D01*
X171847363Y-53074722D01*
X171246648Y-52825284D01*
X170596205Y-52824716D01*
X169995057Y-53073106D01*
X169534722Y-53532637D01*
X169285284Y-54133352D01*
X169284716Y-54783795D01*
X160710000Y-54783795D01*
X160710000Y-42957312D01*
X162222293Y-42957312D01*
X162625762Y-43483924D01*
X164139730Y-44127307D01*
X165784666Y-44142346D01*
X167310145Y-43526750D01*
X167374238Y-43483924D01*
X167777707Y-42957312D01*
X202222293Y-42957312D01*
X202625762Y-43483924D01*
X204139730Y-44127307D01*
X205784666Y-44142346D01*
X207310145Y-43526750D01*
X207374238Y-43483924D01*
X207777707Y-42957312D01*
X205000000Y-40179605D01*
X202222293Y-42957312D01*
X167777707Y-42957312D01*
X165000000Y-40179605D01*
X162222293Y-42957312D01*
X160710000Y-42957312D01*
X160710000Y-40784666D01*
X160857654Y-40784666D01*
X161473250Y-42310145D01*
X161516076Y-42374238D01*
X162042688Y-42777707D01*
X164820395Y-40000000D01*
X165179605Y-40000000D01*
X167957312Y-42777707D01*
X168483924Y-42374238D01*
X169127307Y-40860270D01*
X169127998Y-40784666D01*
X200857654Y-40784666D01*
X201473250Y-42310145D01*
X201516076Y-42374238D01*
X202042688Y-42777707D01*
X204820395Y-40000000D01*
X205179605Y-40000000D01*
X207957312Y-42777707D01*
X208483924Y-42374238D01*
X209127307Y-40860270D01*
X209142346Y-39215334D01*
X208526750Y-37689855D01*
X208483924Y-37625762D01*
X207957312Y-37222293D01*
X205179605Y-40000000D01*
X204820395Y-40000000D01*
X202042688Y-37222293D01*
X201516076Y-37625762D01*
X200872693Y-39139730D01*
X200857654Y-40784666D01*
X169127998Y-40784666D01*
X169142346Y-39215334D01*
X168526750Y-37689855D01*
X168483924Y-37625762D01*
X167957312Y-37222293D01*
X165179605Y-40000000D01*
X164820395Y-40000000D01*
X162042688Y-37222293D01*
X161516076Y-37625762D01*
X160872693Y-39139730D01*
X160857654Y-40784666D01*
X160710000Y-40784666D01*
X160710000Y-37042688D01*
X162222293Y-37042688D01*
X165000000Y-39820395D01*
X167777707Y-37042688D01*
X202222293Y-37042688D01*
X205000000Y-39820395D01*
X207777707Y-37042688D01*
X207374238Y-36516076D01*
X205860270Y-35872693D01*
X204215334Y-35857654D01*
X202689855Y-36473250D01*
X202625762Y-36516076D01*
X202222293Y-37042688D01*
X167777707Y-37042688D01*
X167374238Y-36516076D01*
X165860270Y-35872693D01*
X164215334Y-35857654D01*
X162689855Y-36473250D01*
X162625762Y-36516076D01*
X162222293Y-37042688D01*
X160710000Y-37042688D01*
X160710000Y-35710000D01*
X209290000Y-35710000D01*
X209290000Y-134290000D01*
G36*
X199405654Y-83888603D02*
X199840000Y-83975000D01*
X203963085Y-83975000D01*
X204013560Y-84053441D01*
X204225760Y-84198431D01*
X204442213Y-84242264D01*
X204217860Y-84392172D01*
X203915028Y-84845391D01*
X203808688Y-85380000D01*
X203915028Y-85914609D01*
X204217860Y-86367828D01*
X204640159Y-86650000D01*
X204217860Y-86932172D01*
X203915028Y-87385391D01*
X203808688Y-87920000D01*
X203915028Y-88454609D01*
X204217860Y-88907828D01*
X204640159Y-89190000D01*
X204217860Y-89472172D01*
X203915028Y-89925391D01*
X203808688Y-90460000D01*
X203915028Y-90994609D01*
X204217860Y-91447828D01*
X204640159Y-91730000D01*
X204217860Y-92012172D01*
X203948319Y-92415568D01*
X203802566Y-92197434D01*
X201135000Y-89529868D01*
X201135000Y-87500000D01*
X201048603Y-87065654D01*
X200802566Y-86697434D01*
X199372566Y-85267434D01*
X199139453Y-85111673D01*
X199004346Y-85021397D01*
X198930020Y-85006613D01*
X198620801Y-84800000D01*
X199016222Y-84535789D01*
X199324559Y-84074329D01*
X199366682Y-83862563D01*
X199405654Y-83888603D01*
X199405654Y-83888603D01*
G37*
X199405654Y-83888603D02*
X199840000Y-83975000D01*
X203963085Y-83975000D01*
X204013560Y-84053441D01*
X204225760Y-84198431D01*
X204442213Y-84242264D01*
X204217860Y-84392172D01*
X203915028Y-84845391D01*
X203808688Y-85380000D01*
X203915028Y-85914609D01*
X204217860Y-86367828D01*
X204640159Y-86650000D01*
X204217860Y-86932172D01*
X203915028Y-87385391D01*
X203808688Y-87920000D01*
X203915028Y-88454609D01*
X204217860Y-88907828D01*
X204640159Y-89190000D01*
X204217860Y-89472172D01*
X203915028Y-89925391D01*
X203808688Y-90460000D01*
X203915028Y-90994609D01*
X204217860Y-91447828D01*
X204640159Y-91730000D01*
X204217860Y-92012172D01*
X203948319Y-92415568D01*
X203802566Y-92197434D01*
X201135000Y-89529868D01*
X201135000Y-87500000D01*
X201048603Y-87065654D01*
X200802566Y-86697434D01*
X199372566Y-85267434D01*
X199139453Y-85111673D01*
X199004346Y-85021397D01*
X198930020Y-85006613D01*
X198620801Y-84800000D01*
X199016222Y-84535789D01*
X199324559Y-84074329D01*
X199366682Y-83862563D01*
X199405654Y-83888603D01*
M02*
