G04 #@! TF.FileFunction,Soldermask,Bot*
%FSLAX46Y46*%
G04 Gerber Fmt 4.6, Leading zero omitted, Abs format (unit mm)*
G04 Created by KiCad (PCBNEW 4.0.7) date 12/30/17 16:03:52*
%MOMM*%
%LPD*%
G01*
G04 APERTURE LIST*
%ADD10C,0.100000*%
%ADD11R,2.597100X1.924000*%
%ADD12O,2.597100X1.924000*%
%ADD13C,2.400000*%
%ADD14R,2.686000X1.974800*%
%ADD15O,2.686000X1.974800*%
%ADD16R,1.900000X1.650000*%
%ADD17R,1.650000X1.900000*%
%ADD18R,1.700000X1.900000*%
%ADD19C,7.400000*%
%ADD20R,1.600000X2.600000*%
%ADD21R,6.200000X6.800000*%
%ADD22R,2.400000X2.400000*%
%ADD23C,0.254000*%
G04 APERTURE END LIST*
D10*
D11*
X164923800Y-121270000D03*
D12*
X164923800Y-118730000D03*
D13*
X181080000Y-54460000D03*
X181080000Y-59540000D03*
X176000000Y-54460000D03*
X176000000Y-59540000D03*
X173460000Y-54460000D03*
X170920000Y-54460000D03*
X170920000Y-59540000D03*
X173460000Y-59540000D03*
D14*
X182380000Y-78450000D03*
D15*
X182380000Y-80990000D03*
X182380000Y-83530000D03*
X182380000Y-86070000D03*
X182380000Y-88610000D03*
X182380000Y-91150000D03*
X182380000Y-93690000D03*
X182380000Y-96230000D03*
X182380000Y-98770000D03*
X182380000Y-101310000D03*
X182380000Y-103850000D03*
X182380000Y-106390000D03*
X182380000Y-108930000D03*
X182380000Y-111470000D03*
X182380000Y-114010000D03*
X197620000Y-114010000D03*
X197620000Y-111470000D03*
X197620000Y-108930000D03*
X197620000Y-106390000D03*
X197620000Y-103850000D03*
X197620000Y-101310000D03*
X197620000Y-98770000D03*
X197620000Y-96230000D03*
X197620000Y-93690000D03*
X197620000Y-91150000D03*
X197620000Y-88610000D03*
X197620000Y-86070000D03*
X197620000Y-83530000D03*
X197620000Y-80990000D03*
X197620000Y-78450000D03*
D12*
X205576200Y-77120000D03*
X205576200Y-74580000D03*
X205576200Y-69500000D03*
X205576200Y-66960000D03*
X205576200Y-64420000D03*
X205576200Y-79660000D03*
X205576200Y-72040000D03*
D11*
X205576200Y-59340000D03*
D12*
X205576200Y-61880000D03*
D16*
X168350000Y-114400000D03*
X170850000Y-114400000D03*
D17*
X179800000Y-114150000D03*
X179800000Y-116650000D03*
D12*
X164923800Y-79730000D03*
X164923800Y-82270000D03*
X164923800Y-74650000D03*
X164923800Y-77190000D03*
D11*
X164923800Y-87350000D03*
D12*
X164923800Y-84810000D03*
X164923800Y-94110000D03*
X164923800Y-96650000D03*
X164923800Y-99190000D03*
X164923800Y-104270000D03*
X164923800Y-106810000D03*
X164923800Y-109350000D03*
X164923800Y-91570000D03*
X164923800Y-101730000D03*
D11*
X164923800Y-114430000D03*
D12*
X164923800Y-111890000D03*
D11*
X205576200Y-106730000D03*
D12*
X205576200Y-109270000D03*
X205576200Y-117540000D03*
D11*
X205576200Y-112460000D03*
D12*
X205576200Y-115000000D03*
X205576200Y-100620000D03*
X205576200Y-98080000D03*
X205576200Y-93000000D03*
X205576200Y-90460000D03*
X205576200Y-87920000D03*
X205576200Y-103160000D03*
X205576200Y-95540000D03*
D11*
X205576200Y-82840000D03*
D12*
X205576200Y-85380000D03*
D18*
X187500000Y-99150000D03*
X187500000Y-101850000D03*
D19*
X165000000Y-40000000D03*
X205000000Y-40000000D03*
X165000000Y-130000000D03*
X205000000Y-130000000D03*
D20*
X187720000Y-106200000D03*
X190000000Y-106200000D03*
X192280000Y-106200000D03*
D21*
X190000000Y-112500000D03*
D22*
X200000000Y-48000000D03*
D13*
X192400000Y-48000000D03*
D23*
G36*
X209873000Y-134873000D02*
X160127000Y-134873000D01*
X160127000Y-38000000D01*
X162873000Y-38000000D01*
X162873000Y-132000000D01*
X162883006Y-132049410D01*
X162911447Y-132091035D01*
X162953841Y-132118315D01*
X163000000Y-132127000D01*
X207000000Y-132127000D01*
X207049410Y-132116994D01*
X207091035Y-132088553D01*
X207118315Y-132046159D01*
X207127000Y-132000000D01*
X207127000Y-38000000D01*
X207116994Y-37950590D01*
X207088553Y-37908965D01*
X207046159Y-37881685D01*
X207000000Y-37873000D01*
X163000000Y-37873000D01*
X162950590Y-37883006D01*
X162908965Y-37911447D01*
X162881685Y-37953841D01*
X162873000Y-38000000D01*
X160127000Y-38000000D01*
X160127000Y-35127000D01*
X209873000Y-35127000D01*
X209873000Y-134873000D01*
X209873000Y-134873000D01*
G37*
X209873000Y-134873000D02*
X160127000Y-134873000D01*
X160127000Y-38000000D01*
X162873000Y-38000000D01*
X162873000Y-132000000D01*
X162883006Y-132049410D01*
X162911447Y-132091035D01*
X162953841Y-132118315D01*
X163000000Y-132127000D01*
X207000000Y-132127000D01*
X207049410Y-132116994D01*
X207091035Y-132088553D01*
X207118315Y-132046159D01*
X207127000Y-132000000D01*
X207127000Y-38000000D01*
X207116994Y-37950590D01*
X207088553Y-37908965D01*
X207046159Y-37881685D01*
X207000000Y-37873000D01*
X163000000Y-37873000D01*
X162950590Y-37883006D01*
X162908965Y-37911447D01*
X162881685Y-37953841D01*
X162873000Y-38000000D01*
X160127000Y-38000000D01*
X160127000Y-35127000D01*
X209873000Y-35127000D01*
X209873000Y-134873000D01*
M02*
