G04 #@! TF.FileFunction,Legend,Bot*
%FSLAX46Y46*%
G04 Gerber Fmt 4.6, Leading zero omitted, Abs format (unit mm)*
G04 Created by KiCad (PCBNEW 4.0.7) date 12/30/17 16:03:51*
%MOMM*%
%LPD*%
G01*
G04 APERTURE LIST*
%ADD10C,0.100000*%
%ADD11C,0.300000*%
%ADD12C,0.250000*%
%ADD13C,0.120000*%
%ADD14C,0.150000*%
G04 APERTURE END LIST*
D10*
D11*
X202928571Y-105903571D02*
X203642857Y-105903571D01*
X203714286Y-106617857D01*
X203642857Y-106546429D01*
X203500000Y-106475000D01*
X203142857Y-106475000D01*
X203000000Y-106546429D01*
X202928571Y-106617857D01*
X202857143Y-106760714D01*
X202857143Y-107117857D01*
X202928571Y-107260714D01*
X203000000Y-107332143D01*
X203142857Y-107403571D01*
X203500000Y-107403571D01*
X203642857Y-107332143D01*
X203714286Y-107260714D01*
X201928572Y-105903571D02*
X201785715Y-105903571D01*
X201642858Y-105975000D01*
X201571429Y-106046429D01*
X201500000Y-106189286D01*
X201428572Y-106475000D01*
X201428572Y-106832143D01*
X201500000Y-107117857D01*
X201571429Y-107260714D01*
X201642858Y-107332143D01*
X201785715Y-107403571D01*
X201928572Y-107403571D01*
X202071429Y-107332143D01*
X202142858Y-107260714D01*
X202214286Y-107117857D01*
X202285715Y-106832143D01*
X202285715Y-106475000D01*
X202214286Y-106189286D01*
X202142858Y-106046429D01*
X202071429Y-105975000D01*
X201928572Y-105903571D01*
X201000001Y-105903571D02*
X200500001Y-107403571D01*
X200000001Y-105903571D01*
X202857143Y-108525000D02*
X203000000Y-108453571D01*
X203214286Y-108453571D01*
X203428571Y-108525000D01*
X203571429Y-108667857D01*
X203642857Y-108810714D01*
X203714286Y-109096429D01*
X203714286Y-109310714D01*
X203642857Y-109596429D01*
X203571429Y-109739286D01*
X203428571Y-109882143D01*
X203214286Y-109953571D01*
X203071429Y-109953571D01*
X202857143Y-109882143D01*
X202785714Y-109810714D01*
X202785714Y-109310714D01*
X203071429Y-109310714D01*
X202142857Y-108953571D02*
X202142857Y-109953571D01*
X202142857Y-109096429D02*
X202071429Y-109025000D01*
X201928571Y-108953571D01*
X201714286Y-108953571D01*
X201571429Y-109025000D01*
X201500000Y-109167857D01*
X201500000Y-109953571D01*
X200142857Y-109953571D02*
X200142857Y-108453571D01*
X200142857Y-109882143D02*
X200285714Y-109953571D01*
X200571428Y-109953571D01*
X200714286Y-109882143D01*
X200785714Y-109810714D01*
X200857143Y-109667857D01*
X200857143Y-109239286D01*
X200785714Y-109096429D01*
X200714286Y-109025000D01*
X200571428Y-108953571D01*
X200285714Y-108953571D01*
X200142857Y-109025000D01*
X202857143Y-111700000D02*
X203000000Y-111628571D01*
X203214286Y-111628571D01*
X203428571Y-111700000D01*
X203571429Y-111842857D01*
X203642857Y-111985714D01*
X203714286Y-112271429D01*
X203714286Y-112485714D01*
X203642857Y-112771429D01*
X203571429Y-112914286D01*
X203428571Y-113057143D01*
X203214286Y-113128571D01*
X203071429Y-113128571D01*
X202857143Y-113057143D01*
X202785714Y-112985714D01*
X202785714Y-112485714D01*
X203071429Y-112485714D01*
X202142857Y-112128571D02*
X202142857Y-113128571D01*
X202142857Y-112271429D02*
X202071429Y-112200000D01*
X201928571Y-112128571D01*
X201714286Y-112128571D01*
X201571429Y-112200000D01*
X201500000Y-112342857D01*
X201500000Y-113128571D01*
X200142857Y-113128571D02*
X200142857Y-111628571D01*
X200142857Y-113057143D02*
X200285714Y-113128571D01*
X200571428Y-113128571D01*
X200714286Y-113057143D01*
X200785714Y-112985714D01*
X200857143Y-112842857D01*
X200857143Y-112414286D01*
X200785714Y-112271429D01*
X200714286Y-112200000D01*
X200571428Y-112128571D01*
X200285714Y-112128571D01*
X200142857Y-112200000D01*
X203642857Y-115107143D02*
X202500000Y-115107143D01*
X203071429Y-115678571D02*
X203071429Y-114535714D01*
X201000000Y-115678571D02*
X201857143Y-115678571D01*
X201428571Y-115678571D02*
X201428571Y-114178571D01*
X201571428Y-114392857D01*
X201714286Y-114535714D01*
X201857143Y-114607143D01*
X200428572Y-114321429D02*
X200357143Y-114250000D01*
X200214286Y-114178571D01*
X199857143Y-114178571D01*
X199714286Y-114250000D01*
X199642857Y-114321429D01*
X199571429Y-114464286D01*
X199571429Y-114607143D01*
X199642857Y-114821429D01*
X200500000Y-115678571D01*
X199571429Y-115678571D01*
X199142858Y-114178571D02*
X198642858Y-115678571D01*
X198142858Y-114178571D01*
X203142857Y-117442857D02*
X203642857Y-117442857D01*
X203642857Y-118228571D02*
X203642857Y-116728571D01*
X202928571Y-116728571D01*
X201714286Y-118228571D02*
X201714286Y-117442857D01*
X201785715Y-117300000D01*
X201928572Y-117228571D01*
X202214286Y-117228571D01*
X202357143Y-117300000D01*
X201714286Y-118157143D02*
X201857143Y-118228571D01*
X202214286Y-118228571D01*
X202357143Y-118157143D01*
X202428572Y-118014286D01*
X202428572Y-117871429D01*
X202357143Y-117728571D01*
X202214286Y-117657143D01*
X201857143Y-117657143D01*
X201714286Y-117585714D01*
X201000000Y-117228571D02*
X201000000Y-118228571D01*
X201000000Y-117371429D02*
X200928572Y-117300000D01*
X200785714Y-117228571D01*
X200571429Y-117228571D01*
X200428572Y-117300000D01*
X200357143Y-117442857D01*
X200357143Y-118228571D01*
X202428571Y-60503571D02*
X203142857Y-60503571D01*
X203142857Y-59003571D01*
X201357143Y-60432143D02*
X201500000Y-60503571D01*
X201785714Y-60503571D01*
X201928571Y-60432143D01*
X202000000Y-60289286D01*
X202000000Y-59717857D01*
X201928571Y-59575000D01*
X201785714Y-59503571D01*
X201500000Y-59503571D01*
X201357143Y-59575000D01*
X201285714Y-59717857D01*
X201285714Y-59860714D01*
X202000000Y-60003571D01*
X200000000Y-60503571D02*
X200000000Y-59003571D01*
X200000000Y-60432143D02*
X200142857Y-60503571D01*
X200428571Y-60503571D01*
X200571429Y-60432143D01*
X200642857Y-60360714D01*
X200714286Y-60217857D01*
X200714286Y-59789286D01*
X200642857Y-59646429D01*
X200571429Y-59575000D01*
X200428571Y-59503571D01*
X200142857Y-59503571D01*
X200000000Y-59575000D01*
X199642857Y-60646429D02*
X198500000Y-60646429D01*
X198142857Y-60503571D02*
X198142857Y-59003571D01*
X197285714Y-60503571D02*
X197928571Y-59646429D01*
X197285714Y-59003571D02*
X198142857Y-59860714D01*
X202428571Y-63053571D02*
X203142857Y-63053571D01*
X203142857Y-61553571D01*
X201357143Y-62982143D02*
X201500000Y-63053571D01*
X201785714Y-63053571D01*
X201928571Y-62982143D01*
X202000000Y-62839286D01*
X202000000Y-62267857D01*
X201928571Y-62125000D01*
X201785714Y-62053571D01*
X201500000Y-62053571D01*
X201357143Y-62125000D01*
X201285714Y-62267857D01*
X201285714Y-62410714D01*
X202000000Y-62553571D01*
X200000000Y-63053571D02*
X200000000Y-61553571D01*
X200000000Y-62982143D02*
X200142857Y-63053571D01*
X200428571Y-63053571D01*
X200571429Y-62982143D01*
X200642857Y-62910714D01*
X200714286Y-62767857D01*
X200714286Y-62339286D01*
X200642857Y-62196429D01*
X200571429Y-62125000D01*
X200428571Y-62053571D01*
X200142857Y-62053571D01*
X200000000Y-62125000D01*
X199642857Y-63196429D02*
X198500000Y-63196429D01*
X198214286Y-62625000D02*
X197500000Y-62625000D01*
X198357143Y-63053571D02*
X197857143Y-61553571D01*
X197357143Y-63053571D01*
X203357143Y-64103571D02*
X202857143Y-65603571D01*
X202357143Y-64103571D01*
X201285715Y-65532143D02*
X201428572Y-65603571D01*
X201714286Y-65603571D01*
X201857143Y-65532143D01*
X201928572Y-65389286D01*
X201928572Y-64817857D01*
X201857143Y-64675000D01*
X201714286Y-64603571D01*
X201428572Y-64603571D01*
X201285715Y-64675000D01*
X201214286Y-64817857D01*
X201214286Y-64960714D01*
X201928572Y-65103571D01*
X200000001Y-65532143D02*
X200142858Y-65603571D01*
X200428572Y-65603571D01*
X200571429Y-65532143D01*
X200642858Y-65389286D01*
X200642858Y-64817857D01*
X200571429Y-64675000D01*
X200428572Y-64603571D01*
X200142858Y-64603571D01*
X200000001Y-64675000D01*
X199928572Y-64817857D01*
X199928572Y-64960714D01*
X200642858Y-65103571D01*
X203142857Y-67367857D02*
X202642857Y-67367857D01*
X202428571Y-68153571D02*
X203142857Y-68153571D01*
X203142857Y-66653571D01*
X202428571Y-66653571D01*
X201857143Y-66796429D02*
X201785714Y-66725000D01*
X201642857Y-66653571D01*
X201285714Y-66653571D01*
X201142857Y-66725000D01*
X201071428Y-66796429D01*
X201000000Y-66939286D01*
X201000000Y-67082143D01*
X201071428Y-67296429D01*
X201928571Y-68153571D01*
X201000000Y-68153571D01*
X203357143Y-69203571D02*
X202857143Y-70703571D01*
X202357143Y-69203571D01*
X201214286Y-70703571D02*
X201214286Y-69203571D01*
X201214286Y-70632143D02*
X201357143Y-70703571D01*
X201642857Y-70703571D01*
X201785715Y-70632143D01*
X201857143Y-70560714D01*
X201928572Y-70417857D01*
X201928572Y-69989286D01*
X201857143Y-69846429D01*
X201785715Y-69775000D01*
X201642857Y-69703571D01*
X201357143Y-69703571D01*
X201214286Y-69775000D01*
X199857143Y-70703571D02*
X199857143Y-69203571D01*
X199857143Y-70632143D02*
X200000000Y-70703571D01*
X200285714Y-70703571D01*
X200428572Y-70632143D01*
X200500000Y-70560714D01*
X200571429Y-70417857D01*
X200571429Y-69989286D01*
X200500000Y-69846429D01*
X200428572Y-69775000D01*
X200285714Y-69703571D01*
X200000000Y-69703571D01*
X199857143Y-69775000D01*
X203357143Y-71753571D02*
X202857143Y-73253571D01*
X202357143Y-71753571D01*
X201928572Y-73182143D02*
X201785715Y-73253571D01*
X201500000Y-73253571D01*
X201357143Y-73182143D01*
X201285715Y-73039286D01*
X201285715Y-72967857D01*
X201357143Y-72825000D01*
X201500000Y-72753571D01*
X201714286Y-72753571D01*
X201857143Y-72682143D01*
X201928572Y-72539286D01*
X201928572Y-72467857D01*
X201857143Y-72325000D01*
X201714286Y-72253571D01*
X201500000Y-72253571D01*
X201357143Y-72325000D01*
X200714286Y-73182143D02*
X200571429Y-73253571D01*
X200285714Y-73253571D01*
X200142857Y-73182143D01*
X200071429Y-73039286D01*
X200071429Y-72967857D01*
X200142857Y-72825000D01*
X200285714Y-72753571D01*
X200500000Y-72753571D01*
X200642857Y-72682143D01*
X200714286Y-72539286D01*
X200714286Y-72467857D01*
X200642857Y-72325000D01*
X200500000Y-72253571D01*
X200285714Y-72253571D01*
X200142857Y-72325000D01*
X203357143Y-74303571D02*
X202857143Y-75803571D01*
X202357143Y-74303571D01*
X201571429Y-74303571D02*
X201285715Y-74303571D01*
X201142857Y-74375000D01*
X201000000Y-74517857D01*
X200928572Y-74803571D01*
X200928572Y-75303571D01*
X201000000Y-75589286D01*
X201142857Y-75732143D01*
X201285715Y-75803571D01*
X201571429Y-75803571D01*
X201714286Y-75732143D01*
X201857143Y-75589286D01*
X201928572Y-75303571D01*
X201928572Y-74803571D01*
X201857143Y-74517857D01*
X201714286Y-74375000D01*
X201571429Y-74303571D01*
X202285714Y-78353571D02*
X202785714Y-77639286D01*
X203142857Y-78353571D02*
X203142857Y-76853571D01*
X202571429Y-76853571D01*
X202428571Y-76925000D01*
X202357143Y-76996429D01*
X202285714Y-77139286D01*
X202285714Y-77353571D01*
X202357143Y-77496429D01*
X202428571Y-77567857D01*
X202571429Y-77639286D01*
X203142857Y-77639286D01*
X201714286Y-78282143D02*
X201500000Y-78353571D01*
X201142857Y-78353571D01*
X201000000Y-78282143D01*
X200928571Y-78210714D01*
X200857143Y-78067857D01*
X200857143Y-77925000D01*
X200928571Y-77782143D01*
X201000000Y-77710714D01*
X201142857Y-77639286D01*
X201428571Y-77567857D01*
X201571429Y-77496429D01*
X201642857Y-77425000D01*
X201714286Y-77282143D01*
X201714286Y-77139286D01*
X201642857Y-76996429D01*
X201571429Y-76925000D01*
X201428571Y-76853571D01*
X201071429Y-76853571D01*
X200857143Y-76925000D01*
X202285714Y-80903571D02*
X202785714Y-80189286D01*
X203142857Y-80903571D02*
X203142857Y-79403571D01*
X202571429Y-79403571D01*
X202428571Y-79475000D01*
X202357143Y-79546429D01*
X202285714Y-79689286D01*
X202285714Y-79903571D01*
X202357143Y-80046429D01*
X202428571Y-80117857D01*
X202571429Y-80189286D01*
X203142857Y-80189286D01*
X201785714Y-79403571D02*
X201428571Y-80903571D01*
X201142857Y-79832143D01*
X200857143Y-80903571D01*
X200500000Y-79403571D01*
X203142857Y-82667857D02*
X202642857Y-82667857D01*
X202428571Y-83453571D02*
X203142857Y-83453571D01*
X203142857Y-81953571D01*
X202428571Y-81953571D01*
X201000000Y-83453571D02*
X201857143Y-83453571D01*
X201428571Y-83453571D02*
X201428571Y-81953571D01*
X201571428Y-82167857D01*
X201714286Y-82310714D01*
X201857143Y-82382143D01*
X203142857Y-86003571D02*
X203142857Y-84503571D01*
X202785714Y-84503571D01*
X202571429Y-84575000D01*
X202428571Y-84717857D01*
X202357143Y-84860714D01*
X202285714Y-85146429D01*
X202285714Y-85360714D01*
X202357143Y-85646429D01*
X202428571Y-85789286D01*
X202571429Y-85932143D01*
X202785714Y-86003571D01*
X203142857Y-86003571D01*
X201142857Y-85217857D02*
X200928571Y-85289286D01*
X200857143Y-85360714D01*
X200785714Y-85503571D01*
X200785714Y-85717857D01*
X200857143Y-85860714D01*
X200928571Y-85932143D01*
X201071429Y-86003571D01*
X201642857Y-86003571D01*
X201642857Y-84503571D01*
X201142857Y-84503571D01*
X201000000Y-84575000D01*
X200928571Y-84646429D01*
X200857143Y-84789286D01*
X200857143Y-84932143D01*
X200928571Y-85075000D01*
X201000000Y-85146429D01*
X201142857Y-85217857D01*
X201642857Y-85217857D01*
X199857143Y-84503571D02*
X199714286Y-84503571D01*
X199571429Y-84575000D01*
X199500000Y-84646429D01*
X199428571Y-84789286D01*
X199357143Y-85075000D01*
X199357143Y-85432143D01*
X199428571Y-85717857D01*
X199500000Y-85860714D01*
X199571429Y-85932143D01*
X199714286Y-86003571D01*
X199857143Y-86003571D01*
X200000000Y-85932143D01*
X200071429Y-85860714D01*
X200142857Y-85717857D01*
X200214286Y-85432143D01*
X200214286Y-85075000D01*
X200142857Y-84789286D01*
X200071429Y-84646429D01*
X200000000Y-84575000D01*
X199857143Y-84503571D01*
X203142857Y-88553571D02*
X203142857Y-87053571D01*
X202785714Y-87053571D01*
X202571429Y-87125000D01*
X202428571Y-87267857D01*
X202357143Y-87410714D01*
X202285714Y-87696429D01*
X202285714Y-87910714D01*
X202357143Y-88196429D01*
X202428571Y-88339286D01*
X202571429Y-88482143D01*
X202785714Y-88553571D01*
X203142857Y-88553571D01*
X201142857Y-87767857D02*
X200928571Y-87839286D01*
X200857143Y-87910714D01*
X200785714Y-88053571D01*
X200785714Y-88267857D01*
X200857143Y-88410714D01*
X200928571Y-88482143D01*
X201071429Y-88553571D01*
X201642857Y-88553571D01*
X201642857Y-87053571D01*
X201142857Y-87053571D01*
X201000000Y-87125000D01*
X200928571Y-87196429D01*
X200857143Y-87339286D01*
X200857143Y-87482143D01*
X200928571Y-87625000D01*
X201000000Y-87696429D01*
X201142857Y-87767857D01*
X201642857Y-87767857D01*
X199357143Y-88553571D02*
X200214286Y-88553571D01*
X199785714Y-88553571D02*
X199785714Y-87053571D01*
X199928571Y-87267857D01*
X200071429Y-87410714D01*
X200214286Y-87482143D01*
X203142857Y-91103571D02*
X203142857Y-89603571D01*
X202785714Y-89603571D01*
X202571429Y-89675000D01*
X202428571Y-89817857D01*
X202357143Y-89960714D01*
X202285714Y-90246429D01*
X202285714Y-90460714D01*
X202357143Y-90746429D01*
X202428571Y-90889286D01*
X202571429Y-91032143D01*
X202785714Y-91103571D01*
X203142857Y-91103571D01*
X201142857Y-90317857D02*
X200928571Y-90389286D01*
X200857143Y-90460714D01*
X200785714Y-90603571D01*
X200785714Y-90817857D01*
X200857143Y-90960714D01*
X200928571Y-91032143D01*
X201071429Y-91103571D01*
X201642857Y-91103571D01*
X201642857Y-89603571D01*
X201142857Y-89603571D01*
X201000000Y-89675000D01*
X200928571Y-89746429D01*
X200857143Y-89889286D01*
X200857143Y-90032143D01*
X200928571Y-90175000D01*
X201000000Y-90246429D01*
X201142857Y-90317857D01*
X201642857Y-90317857D01*
X200214286Y-89746429D02*
X200142857Y-89675000D01*
X200000000Y-89603571D01*
X199642857Y-89603571D01*
X199500000Y-89675000D01*
X199428571Y-89746429D01*
X199357143Y-89889286D01*
X199357143Y-90032143D01*
X199428571Y-90246429D01*
X200285714Y-91103571D01*
X199357143Y-91103571D01*
X203142857Y-93653571D02*
X203142857Y-92153571D01*
X202785714Y-92153571D01*
X202571429Y-92225000D01*
X202428571Y-92367857D01*
X202357143Y-92510714D01*
X202285714Y-92796429D01*
X202285714Y-93010714D01*
X202357143Y-93296429D01*
X202428571Y-93439286D01*
X202571429Y-93582143D01*
X202785714Y-93653571D01*
X203142857Y-93653571D01*
X201142857Y-92867857D02*
X200928571Y-92939286D01*
X200857143Y-93010714D01*
X200785714Y-93153571D01*
X200785714Y-93367857D01*
X200857143Y-93510714D01*
X200928571Y-93582143D01*
X201071429Y-93653571D01*
X201642857Y-93653571D01*
X201642857Y-92153571D01*
X201142857Y-92153571D01*
X201000000Y-92225000D01*
X200928571Y-92296429D01*
X200857143Y-92439286D01*
X200857143Y-92582143D01*
X200928571Y-92725000D01*
X201000000Y-92796429D01*
X201142857Y-92867857D01*
X201642857Y-92867857D01*
X200285714Y-92153571D02*
X199357143Y-92153571D01*
X199857143Y-92725000D01*
X199642857Y-92725000D01*
X199500000Y-92796429D01*
X199428571Y-92867857D01*
X199357143Y-93010714D01*
X199357143Y-93367857D01*
X199428571Y-93510714D01*
X199500000Y-93582143D01*
X199642857Y-93653571D01*
X200071429Y-93653571D01*
X200214286Y-93582143D01*
X200285714Y-93510714D01*
X203142857Y-96203571D02*
X203142857Y-94703571D01*
X202785714Y-94703571D01*
X202571429Y-94775000D01*
X202428571Y-94917857D01*
X202357143Y-95060714D01*
X202285714Y-95346429D01*
X202285714Y-95560714D01*
X202357143Y-95846429D01*
X202428571Y-95989286D01*
X202571429Y-96132143D01*
X202785714Y-96203571D01*
X203142857Y-96203571D01*
X201142857Y-95417857D02*
X200928571Y-95489286D01*
X200857143Y-95560714D01*
X200785714Y-95703571D01*
X200785714Y-95917857D01*
X200857143Y-96060714D01*
X200928571Y-96132143D01*
X201071429Y-96203571D01*
X201642857Y-96203571D01*
X201642857Y-94703571D01*
X201142857Y-94703571D01*
X201000000Y-94775000D01*
X200928571Y-94846429D01*
X200857143Y-94989286D01*
X200857143Y-95132143D01*
X200928571Y-95275000D01*
X201000000Y-95346429D01*
X201142857Y-95417857D01*
X201642857Y-95417857D01*
X199500000Y-95203571D02*
X199500000Y-96203571D01*
X199857143Y-94632143D02*
X200214286Y-95703571D01*
X199285714Y-95703571D01*
X203142857Y-98753571D02*
X203142857Y-97253571D01*
X202785714Y-97253571D01*
X202571429Y-97325000D01*
X202428571Y-97467857D01*
X202357143Y-97610714D01*
X202285714Y-97896429D01*
X202285714Y-98110714D01*
X202357143Y-98396429D01*
X202428571Y-98539286D01*
X202571429Y-98682143D01*
X202785714Y-98753571D01*
X203142857Y-98753571D01*
X201142857Y-97967857D02*
X200928571Y-98039286D01*
X200857143Y-98110714D01*
X200785714Y-98253571D01*
X200785714Y-98467857D01*
X200857143Y-98610714D01*
X200928571Y-98682143D01*
X201071429Y-98753571D01*
X201642857Y-98753571D01*
X201642857Y-97253571D01*
X201142857Y-97253571D01*
X201000000Y-97325000D01*
X200928571Y-97396429D01*
X200857143Y-97539286D01*
X200857143Y-97682143D01*
X200928571Y-97825000D01*
X201000000Y-97896429D01*
X201142857Y-97967857D01*
X201642857Y-97967857D01*
X199428571Y-97253571D02*
X200142857Y-97253571D01*
X200214286Y-97967857D01*
X200142857Y-97896429D01*
X200000000Y-97825000D01*
X199642857Y-97825000D01*
X199500000Y-97896429D01*
X199428571Y-97967857D01*
X199357143Y-98110714D01*
X199357143Y-98467857D01*
X199428571Y-98610714D01*
X199500000Y-98682143D01*
X199642857Y-98753571D01*
X200000000Y-98753571D01*
X200142857Y-98682143D01*
X200214286Y-98610714D01*
X203142857Y-101303571D02*
X203142857Y-99803571D01*
X202785714Y-99803571D01*
X202571429Y-99875000D01*
X202428571Y-100017857D01*
X202357143Y-100160714D01*
X202285714Y-100446429D01*
X202285714Y-100660714D01*
X202357143Y-100946429D01*
X202428571Y-101089286D01*
X202571429Y-101232143D01*
X202785714Y-101303571D01*
X203142857Y-101303571D01*
X201142857Y-100517857D02*
X200928571Y-100589286D01*
X200857143Y-100660714D01*
X200785714Y-100803571D01*
X200785714Y-101017857D01*
X200857143Y-101160714D01*
X200928571Y-101232143D01*
X201071429Y-101303571D01*
X201642857Y-101303571D01*
X201642857Y-99803571D01*
X201142857Y-99803571D01*
X201000000Y-99875000D01*
X200928571Y-99946429D01*
X200857143Y-100089286D01*
X200857143Y-100232143D01*
X200928571Y-100375000D01*
X201000000Y-100446429D01*
X201142857Y-100517857D01*
X201642857Y-100517857D01*
X199500000Y-99803571D02*
X199785714Y-99803571D01*
X199928571Y-99875000D01*
X200000000Y-99946429D01*
X200142857Y-100160714D01*
X200214286Y-100446429D01*
X200214286Y-101017857D01*
X200142857Y-101160714D01*
X200071429Y-101232143D01*
X199928571Y-101303571D01*
X199642857Y-101303571D01*
X199500000Y-101232143D01*
X199428571Y-101160714D01*
X199357143Y-101017857D01*
X199357143Y-100660714D01*
X199428571Y-100517857D01*
X199500000Y-100446429D01*
X199642857Y-100375000D01*
X199928571Y-100375000D01*
X200071429Y-100446429D01*
X200142857Y-100517857D01*
X200214286Y-100660714D01*
X203142857Y-103853571D02*
X203142857Y-102353571D01*
X202785714Y-102353571D01*
X202571429Y-102425000D01*
X202428571Y-102567857D01*
X202357143Y-102710714D01*
X202285714Y-102996429D01*
X202285714Y-103210714D01*
X202357143Y-103496429D01*
X202428571Y-103639286D01*
X202571429Y-103782143D01*
X202785714Y-103853571D01*
X203142857Y-103853571D01*
X201142857Y-103067857D02*
X200928571Y-103139286D01*
X200857143Y-103210714D01*
X200785714Y-103353571D01*
X200785714Y-103567857D01*
X200857143Y-103710714D01*
X200928571Y-103782143D01*
X201071429Y-103853571D01*
X201642857Y-103853571D01*
X201642857Y-102353571D01*
X201142857Y-102353571D01*
X201000000Y-102425000D01*
X200928571Y-102496429D01*
X200857143Y-102639286D01*
X200857143Y-102782143D01*
X200928571Y-102925000D01*
X201000000Y-102996429D01*
X201142857Y-103067857D01*
X201642857Y-103067857D01*
X200285714Y-102353571D02*
X199285714Y-102353571D01*
X199928571Y-103853571D01*
X177392857Y-94178572D02*
X177392857Y-93678572D01*
X178178571Y-93678572D02*
X176678571Y-93678572D01*
X176678571Y-94392858D01*
X178178571Y-94964286D02*
X177178571Y-94964286D01*
X177464286Y-94964286D02*
X177321429Y-95035714D01*
X177250000Y-95107143D01*
X177178571Y-95250000D01*
X177178571Y-95392857D01*
X178178571Y-96107143D02*
X178107143Y-95964285D01*
X178035714Y-95892857D01*
X177892857Y-95821428D01*
X177464286Y-95821428D01*
X177321429Y-95892857D01*
X177250000Y-95964285D01*
X177178571Y-96107143D01*
X177178571Y-96321428D01*
X177250000Y-96464285D01*
X177321429Y-96535714D01*
X177464286Y-96607143D01*
X177892857Y-96607143D01*
X178035714Y-96535714D01*
X178107143Y-96464285D01*
X178178571Y-96321428D01*
X178178571Y-96107143D01*
X178178571Y-97250000D02*
X177178571Y-97250000D01*
X177321429Y-97250000D02*
X177250000Y-97321428D01*
X177178571Y-97464286D01*
X177178571Y-97678571D01*
X177250000Y-97821428D01*
X177392857Y-97892857D01*
X178178571Y-97892857D01*
X177392857Y-97892857D02*
X177250000Y-97964286D01*
X177178571Y-98107143D01*
X177178571Y-98321428D01*
X177250000Y-98464286D01*
X177392857Y-98535714D01*
X178178571Y-98535714D01*
X177750000Y-100321428D02*
X177750000Y-101035714D01*
X178178571Y-100178571D02*
X176678571Y-100678571D01*
X178178571Y-101178571D01*
X178178571Y-101678571D02*
X177178571Y-101678571D01*
X177321429Y-101678571D02*
X177250000Y-101749999D01*
X177178571Y-101892857D01*
X177178571Y-102107142D01*
X177250000Y-102249999D01*
X177392857Y-102321428D01*
X178178571Y-102321428D01*
X177392857Y-102321428D02*
X177250000Y-102392857D01*
X177178571Y-102535714D01*
X177178571Y-102749999D01*
X177250000Y-102892857D01*
X177392857Y-102964285D01*
X178178571Y-102964285D01*
X177178571Y-103678571D02*
X178678571Y-103678571D01*
X177250000Y-103678571D02*
X177178571Y-103821428D01*
X177178571Y-104107142D01*
X177250000Y-104249999D01*
X177321429Y-104321428D01*
X177464286Y-104392857D01*
X177892857Y-104392857D01*
X178035714Y-104321428D01*
X178107143Y-104249999D01*
X178178571Y-104107142D01*
X178178571Y-103821428D01*
X178107143Y-103678571D01*
D12*
X176523810Y-69053571D02*
X176857144Y-69053571D01*
X176857144Y-69577381D02*
X176857144Y-68577381D01*
X176380953Y-68577381D01*
X176000001Y-69577381D02*
X176000001Y-68910714D01*
X176000001Y-69101190D02*
X175952382Y-69005952D01*
X175904763Y-68958333D01*
X175809525Y-68910714D01*
X175714286Y-68910714D01*
X175238096Y-69577381D02*
X175333334Y-69529762D01*
X175380953Y-69482143D01*
X175428572Y-69386905D01*
X175428572Y-69101190D01*
X175380953Y-69005952D01*
X175333334Y-68958333D01*
X175238096Y-68910714D01*
X175095238Y-68910714D01*
X175000000Y-68958333D01*
X174952381Y-69005952D01*
X174904762Y-69101190D01*
X174904762Y-69386905D01*
X174952381Y-69482143D01*
X175000000Y-69529762D01*
X175095238Y-69577381D01*
X175238096Y-69577381D01*
X174476191Y-69577381D02*
X174476191Y-68910714D01*
X174476191Y-69005952D02*
X174428572Y-68958333D01*
X174333334Y-68910714D01*
X174190476Y-68910714D01*
X174095238Y-68958333D01*
X174047619Y-69053571D01*
X174047619Y-69577381D01*
X174047619Y-69053571D02*
X174000000Y-68958333D01*
X173904762Y-68910714D01*
X173761905Y-68910714D01*
X173666667Y-68958333D01*
X173619048Y-69053571D01*
X173619048Y-69577381D01*
X172428572Y-69291667D02*
X171952381Y-69291667D01*
X172523810Y-69577381D02*
X172190477Y-68577381D01*
X171857143Y-69577381D01*
X171380953Y-69577381D02*
X171476191Y-69529762D01*
X171523810Y-69434524D01*
X171523810Y-68577381D01*
X170619047Y-69529762D02*
X170714285Y-69577381D01*
X170904762Y-69577381D01*
X171000000Y-69529762D01*
X171047619Y-69434524D01*
X171047619Y-69053571D01*
X171000000Y-68958333D01*
X170904762Y-68910714D01*
X170714285Y-68910714D01*
X170619047Y-68958333D01*
X170571428Y-69053571D01*
X170571428Y-69148810D01*
X171047619Y-69244048D01*
X170238095Y-69577381D02*
X169714285Y-68910714D01*
X170238095Y-68910714D02*
X169714285Y-69577381D01*
X168904761Y-69577381D02*
X168904761Y-69053571D01*
X168952380Y-68958333D01*
X169047618Y-68910714D01*
X169238095Y-68910714D01*
X169333333Y-68958333D01*
X168904761Y-69529762D02*
X168999999Y-69577381D01*
X169238095Y-69577381D01*
X169333333Y-69529762D01*
X169380952Y-69434524D01*
X169380952Y-69339286D01*
X169333333Y-69244048D01*
X169238095Y-69196429D01*
X168999999Y-69196429D01*
X168904761Y-69148810D01*
X168428571Y-68910714D02*
X168428571Y-69577381D01*
X168428571Y-69005952D02*
X168380952Y-68958333D01*
X168285714Y-68910714D01*
X168142856Y-68910714D01*
X168047618Y-68958333D01*
X167999999Y-69053571D01*
X167999999Y-69577381D01*
X167095237Y-69577381D02*
X167095237Y-68577381D01*
X167095237Y-69529762D02*
X167190475Y-69577381D01*
X167380952Y-69577381D01*
X167476190Y-69529762D01*
X167523809Y-69482143D01*
X167571428Y-69386905D01*
X167571428Y-69101190D01*
X167523809Y-69005952D01*
X167476190Y-68958333D01*
X167380952Y-68910714D01*
X167190475Y-68910714D01*
X167095237Y-68958333D01*
X166619047Y-69577381D02*
X166619047Y-68910714D01*
X166619047Y-69101190D02*
X166571428Y-69005952D01*
X166523809Y-68958333D01*
X166428571Y-68910714D01*
X166333332Y-68910714D01*
X165999999Y-69577381D02*
X165999999Y-68910714D01*
X165999999Y-68577381D02*
X166047618Y-68625000D01*
X165999999Y-68672619D01*
X165952380Y-68625000D01*
X165999999Y-68577381D01*
X165999999Y-68672619D01*
X165142856Y-69529762D02*
X165238094Y-69577381D01*
X165428571Y-69577381D01*
X165523809Y-69529762D01*
X165571428Y-69434524D01*
X165571428Y-69053571D01*
X165523809Y-68958333D01*
X165428571Y-68910714D01*
X165238094Y-68910714D01*
X165142856Y-68958333D01*
X165095237Y-69053571D01*
X165095237Y-69148810D01*
X165571428Y-69244048D01*
X174547620Y-71232143D02*
X174595239Y-71279762D01*
X174738096Y-71327381D01*
X174833334Y-71327381D01*
X174976192Y-71279762D01*
X175071430Y-71184524D01*
X175119049Y-71089286D01*
X175166668Y-70898810D01*
X175166668Y-70755952D01*
X175119049Y-70565476D01*
X175071430Y-70470238D01*
X174976192Y-70375000D01*
X174833334Y-70327381D01*
X174738096Y-70327381D01*
X174595239Y-70375000D01*
X174547620Y-70422619D01*
X173976192Y-71327381D02*
X174071430Y-71279762D01*
X174119049Y-71232143D01*
X174166668Y-71136905D01*
X174166668Y-70851190D01*
X174119049Y-70755952D01*
X174071430Y-70708333D01*
X173976192Y-70660714D01*
X173833334Y-70660714D01*
X173738096Y-70708333D01*
X173690477Y-70755952D01*
X173642858Y-70851190D01*
X173642858Y-71136905D01*
X173690477Y-71232143D01*
X173738096Y-71279762D01*
X173833334Y-71327381D01*
X173976192Y-71327381D01*
X173214287Y-70660714D02*
X173214287Y-71327381D01*
X173214287Y-70755952D02*
X173166668Y-70708333D01*
X173071430Y-70660714D01*
X172928572Y-70660714D01*
X172833334Y-70708333D01*
X172785715Y-70803571D01*
X172785715Y-71327381D01*
X172452382Y-70660714D02*
X172071430Y-70660714D01*
X172309525Y-70327381D02*
X172309525Y-71184524D01*
X172261906Y-71279762D01*
X172166668Y-71327381D01*
X172071430Y-71327381D01*
X171738096Y-71327381D02*
X171738096Y-70660714D01*
X171738096Y-70851190D02*
X171690477Y-70755952D01*
X171642858Y-70708333D01*
X171547620Y-70660714D01*
X171452381Y-70660714D01*
X170976191Y-71327381D02*
X171071429Y-71279762D01*
X171119048Y-71232143D01*
X171166667Y-71136905D01*
X171166667Y-70851190D01*
X171119048Y-70755952D01*
X171071429Y-70708333D01*
X170976191Y-70660714D01*
X170833333Y-70660714D01*
X170738095Y-70708333D01*
X170690476Y-70755952D01*
X170642857Y-70851190D01*
X170642857Y-71136905D01*
X170690476Y-71232143D01*
X170738095Y-71279762D01*
X170833333Y-71327381D01*
X170976191Y-71327381D01*
X170071429Y-71327381D02*
X170166667Y-71279762D01*
X170214286Y-71184524D01*
X170214286Y-70327381D01*
X168595237Y-70803571D02*
X168452380Y-70851190D01*
X168404761Y-70898810D01*
X168357142Y-70994048D01*
X168357142Y-71136905D01*
X168404761Y-71232143D01*
X168452380Y-71279762D01*
X168547618Y-71327381D01*
X168928571Y-71327381D01*
X168928571Y-70327381D01*
X168595237Y-70327381D01*
X168499999Y-70375000D01*
X168452380Y-70422619D01*
X168404761Y-70517857D01*
X168404761Y-70613095D01*
X168452380Y-70708333D01*
X168499999Y-70755952D01*
X168595237Y-70803571D01*
X168928571Y-70803571D01*
X167928571Y-71327381D02*
X167928571Y-70660714D01*
X167928571Y-70851190D02*
X167880952Y-70755952D01*
X167833333Y-70708333D01*
X167738095Y-70660714D01*
X167642856Y-70660714D01*
X166880951Y-71327381D02*
X166880951Y-70327381D01*
X166880951Y-71279762D02*
X166976189Y-71327381D01*
X167166666Y-71327381D01*
X167261904Y-71279762D01*
X167309523Y-71232143D01*
X167357142Y-71136905D01*
X167357142Y-70851190D01*
X167309523Y-70755952D01*
X167261904Y-70708333D01*
X167166666Y-70660714D01*
X166976189Y-70660714D01*
X166880951Y-70708333D01*
D11*
X182142857Y-73803571D02*
X181285714Y-73803571D01*
X181714285Y-75303571D02*
X181714285Y-73803571D01*
X180928571Y-73803571D02*
X179928571Y-75303571D01*
X179928571Y-73803571D02*
X180928571Y-75303571D01*
X178285715Y-73732143D02*
X179571429Y-75660714D01*
X176928571Y-75303571D02*
X177428571Y-74589286D01*
X177785714Y-75303571D02*
X177785714Y-73803571D01*
X177214286Y-73803571D01*
X177071428Y-73875000D01*
X177000000Y-73946429D01*
X176928571Y-74089286D01*
X176928571Y-74303571D01*
X177000000Y-74446429D01*
X177071428Y-74517857D01*
X177214286Y-74589286D01*
X177785714Y-74589286D01*
X176428571Y-73803571D02*
X175428571Y-75303571D01*
X175428571Y-73803571D02*
X176428571Y-75303571D01*
X173785715Y-75232143D02*
X173571429Y-75303571D01*
X173214286Y-75303571D01*
X173071429Y-75232143D01*
X173000000Y-75160714D01*
X172928572Y-75017857D01*
X172928572Y-74875000D01*
X173000000Y-74732143D01*
X173071429Y-74660714D01*
X173214286Y-74589286D01*
X173500000Y-74517857D01*
X173642858Y-74446429D01*
X173714286Y-74375000D01*
X173785715Y-74232143D01*
X173785715Y-74089286D01*
X173714286Y-73946429D01*
X173642858Y-73875000D01*
X173500000Y-73803571D01*
X173142858Y-73803571D01*
X172928572Y-73875000D01*
X172500001Y-74303571D02*
X171928572Y-74303571D01*
X172285715Y-73803571D02*
X172285715Y-75089286D01*
X172214287Y-75232143D01*
X172071429Y-75303571D01*
X171928572Y-75303571D01*
X170785715Y-75303571D02*
X170785715Y-74517857D01*
X170857144Y-74375000D01*
X171000001Y-74303571D01*
X171285715Y-74303571D01*
X171428572Y-74375000D01*
X170785715Y-75232143D02*
X170928572Y-75303571D01*
X171285715Y-75303571D01*
X171428572Y-75232143D01*
X171500001Y-75089286D01*
X171500001Y-74946429D01*
X171428572Y-74803571D01*
X171285715Y-74732143D01*
X170928572Y-74732143D01*
X170785715Y-74660714D01*
X170285715Y-74303571D02*
X169714286Y-74303571D01*
X170071429Y-73803571D02*
X170071429Y-75089286D01*
X170000001Y-75232143D01*
X169857143Y-75303571D01*
X169714286Y-75303571D01*
X168571429Y-74303571D02*
X168571429Y-75303571D01*
X169214286Y-74303571D02*
X169214286Y-75089286D01*
X169142858Y-75232143D01*
X169000000Y-75303571D01*
X168785715Y-75303571D01*
X168642858Y-75232143D01*
X168571429Y-75160714D01*
X167928572Y-75232143D02*
X167785715Y-75303571D01*
X167500000Y-75303571D01*
X167357143Y-75232143D01*
X167285715Y-75089286D01*
X167285715Y-75017857D01*
X167357143Y-74875000D01*
X167500000Y-74803571D01*
X167714286Y-74803571D01*
X167857143Y-74732143D01*
X167928572Y-74589286D01*
X167928572Y-74517857D01*
X167857143Y-74375000D01*
X167714286Y-74303571D01*
X167500000Y-74303571D01*
X167357143Y-74375000D01*
X176928570Y-76353571D02*
X176071427Y-76353571D01*
X176499998Y-77853571D02*
X176499998Y-76353571D01*
X175714284Y-76353571D02*
X174714284Y-77853571D01*
X174714284Y-76353571D02*
X175714284Y-77853571D01*
X173285713Y-77853571D02*
X173785713Y-77139286D01*
X174142856Y-77853571D02*
X174142856Y-76353571D01*
X173571428Y-76353571D01*
X173428570Y-76425000D01*
X173357142Y-76496429D01*
X173285713Y-76639286D01*
X173285713Y-76853571D01*
X173357142Y-76996429D01*
X173428570Y-77067857D01*
X173571428Y-77139286D01*
X174142856Y-77139286D01*
X172785713Y-76353571D02*
X171785713Y-77853571D01*
X171785713Y-76353571D02*
X172785713Y-77853571D01*
X171571428Y-77996429D02*
X170428571Y-77996429D01*
X169214285Y-77853571D02*
X169714285Y-77139286D01*
X170071428Y-77853571D02*
X170071428Y-76353571D01*
X169500000Y-76353571D01*
X169357142Y-76425000D01*
X169285714Y-76496429D01*
X169214285Y-76639286D01*
X169214285Y-76853571D01*
X169285714Y-76996429D01*
X169357142Y-77067857D01*
X169500000Y-77139286D01*
X170071428Y-77139286D01*
X168357142Y-77853571D02*
X168500000Y-77782143D01*
X168571428Y-77639286D01*
X168571428Y-76353571D01*
X167928571Y-76853571D02*
X167571428Y-77853571D01*
X167214286Y-76853571D02*
X167571428Y-77853571D01*
X167714286Y-78210714D01*
X167785714Y-78282143D01*
X167928571Y-78353571D01*
X172642856Y-79832143D02*
X171499999Y-79832143D01*
X172071428Y-80403571D02*
X172071428Y-79260714D01*
X169999999Y-80403571D02*
X170857142Y-80403571D01*
X170428570Y-80403571D02*
X170428570Y-78903571D01*
X170571427Y-79117857D01*
X170714285Y-79260714D01*
X170857142Y-79332143D01*
X169428571Y-79046429D02*
X169357142Y-78975000D01*
X169214285Y-78903571D01*
X168857142Y-78903571D01*
X168714285Y-78975000D01*
X168642856Y-79046429D01*
X168571428Y-79189286D01*
X168571428Y-79332143D01*
X168642856Y-79546429D01*
X169499999Y-80403571D01*
X168571428Y-80403571D01*
X168142857Y-78903571D02*
X167642857Y-80403571D01*
X167142857Y-78903571D01*
X170071429Y-81525000D02*
X170214286Y-81453571D01*
X170428572Y-81453571D01*
X170642857Y-81525000D01*
X170785715Y-81667857D01*
X170857143Y-81810714D01*
X170928572Y-82096429D01*
X170928572Y-82310714D01*
X170857143Y-82596429D01*
X170785715Y-82739286D01*
X170642857Y-82882143D01*
X170428572Y-82953571D01*
X170285715Y-82953571D01*
X170071429Y-82882143D01*
X170000000Y-82810714D01*
X170000000Y-82310714D01*
X170285715Y-82310714D01*
X169357143Y-81953571D02*
X169357143Y-82953571D01*
X169357143Y-82096429D02*
X169285715Y-82025000D01*
X169142857Y-81953571D01*
X168928572Y-81953571D01*
X168785715Y-82025000D01*
X168714286Y-82167857D01*
X168714286Y-82953571D01*
X167357143Y-82953571D02*
X167357143Y-81453571D01*
X167357143Y-82882143D02*
X167500000Y-82953571D01*
X167785714Y-82953571D01*
X167928572Y-82882143D01*
X168000000Y-82810714D01*
X168071429Y-82667857D01*
X168071429Y-82239286D01*
X168000000Y-82096429D01*
X167928572Y-82025000D01*
X167785714Y-81953571D01*
X167500000Y-81953571D01*
X167357143Y-82025000D01*
X171142857Y-85503571D02*
X171642857Y-84789286D01*
X172000000Y-85503571D02*
X172000000Y-84003571D01*
X171428572Y-84003571D01*
X171285714Y-84075000D01*
X171214286Y-84146429D01*
X171142857Y-84289286D01*
X171142857Y-84503571D01*
X171214286Y-84646429D01*
X171285714Y-84717857D01*
X171428572Y-84789286D01*
X172000000Y-84789286D01*
X170500000Y-84717857D02*
X170000000Y-84717857D01*
X169785714Y-85503571D02*
X170500000Y-85503571D01*
X170500000Y-84003571D01*
X169785714Y-84003571D01*
X168642857Y-84717857D02*
X169142857Y-84717857D01*
X169142857Y-85503571D02*
X169142857Y-84003571D01*
X168428571Y-84003571D01*
X167142857Y-85503571D02*
X167857143Y-85503571D01*
X167857143Y-84003571D01*
X170642857Y-87267857D02*
X171142857Y-87267857D01*
X171142857Y-88053571D02*
X171142857Y-86553571D01*
X170428571Y-86553571D01*
X170000000Y-86553571D02*
X169642857Y-88053571D01*
X169357143Y-86982143D01*
X169071429Y-88053571D01*
X168714286Y-86553571D01*
X168142857Y-88053571D02*
X168142857Y-86553571D01*
X167785714Y-86553571D01*
X167571429Y-86625000D01*
X167428571Y-86767857D01*
X167357143Y-86910714D01*
X167285714Y-87196429D01*
X167285714Y-87410714D01*
X167357143Y-87696429D01*
X167428571Y-87839286D01*
X167571429Y-87982143D01*
X167785714Y-88053571D01*
X168142857Y-88053571D01*
X169671429Y-90975000D02*
X169814286Y-90903571D01*
X170028572Y-90903571D01*
X170242857Y-90975000D01*
X170385715Y-91117857D01*
X170457143Y-91260714D01*
X170528572Y-91546429D01*
X170528572Y-91760714D01*
X170457143Y-92046429D01*
X170385715Y-92189286D01*
X170242857Y-92332143D01*
X170028572Y-92403571D01*
X169885715Y-92403571D01*
X169671429Y-92332143D01*
X169600000Y-92260714D01*
X169600000Y-91760714D01*
X169885715Y-91760714D01*
X168957143Y-91403571D02*
X168957143Y-92403571D01*
X168957143Y-91546429D02*
X168885715Y-91475000D01*
X168742857Y-91403571D01*
X168528572Y-91403571D01*
X168385715Y-91475000D01*
X168314286Y-91617857D01*
X168314286Y-92403571D01*
X166957143Y-92403571D02*
X166957143Y-90903571D01*
X166957143Y-92332143D02*
X167100000Y-92403571D01*
X167385714Y-92403571D01*
X167528572Y-92332143D01*
X167600000Y-92260714D01*
X167671429Y-92117857D01*
X167671429Y-91689286D01*
X167600000Y-91546429D01*
X167528572Y-91475000D01*
X167385714Y-91403571D01*
X167100000Y-91403571D01*
X166957143Y-91475000D01*
X171742857Y-94810714D02*
X171814286Y-94882143D01*
X172028572Y-94953571D01*
X172171429Y-94953571D01*
X172385714Y-94882143D01*
X172528572Y-94739286D01*
X172600000Y-94596429D01*
X172671429Y-94310714D01*
X172671429Y-94096429D01*
X172600000Y-93810714D01*
X172528572Y-93667857D01*
X172385714Y-93525000D01*
X172171429Y-93453571D01*
X172028572Y-93453571D01*
X171814286Y-93525000D01*
X171742857Y-93596429D01*
X170885714Y-93453571D02*
X171028572Y-93525000D01*
X171100000Y-93667857D01*
X171028572Y-93810714D01*
X170885714Y-93882143D01*
X170742857Y-93810714D01*
X170671429Y-93667857D01*
X170742857Y-93525000D01*
X170885714Y-93453571D01*
X169957143Y-94382143D02*
X168814286Y-94382143D01*
X168100000Y-93953571D02*
X166957143Y-94382143D01*
X168100000Y-94810714D01*
X169671429Y-96075000D02*
X169814286Y-96003571D01*
X170028572Y-96003571D01*
X170242857Y-96075000D01*
X170385715Y-96217857D01*
X170457143Y-96360714D01*
X170528572Y-96646429D01*
X170528572Y-96860714D01*
X170457143Y-97146429D01*
X170385715Y-97289286D01*
X170242857Y-97432143D01*
X170028572Y-97503571D01*
X169885715Y-97503571D01*
X169671429Y-97432143D01*
X169600000Y-97360714D01*
X169600000Y-96860714D01*
X169885715Y-96860714D01*
X168957143Y-96503571D02*
X168957143Y-97503571D01*
X168957143Y-96646429D02*
X168885715Y-96575000D01*
X168742857Y-96503571D01*
X168528572Y-96503571D01*
X168385715Y-96575000D01*
X168314286Y-96717857D01*
X168314286Y-97503571D01*
X166957143Y-97503571D02*
X166957143Y-96003571D01*
X166957143Y-97432143D02*
X167100000Y-97503571D01*
X167385714Y-97503571D01*
X167528572Y-97432143D01*
X167600000Y-97360714D01*
X167671429Y-97217857D01*
X167671429Y-96789286D01*
X167600000Y-96646429D01*
X167528572Y-96575000D01*
X167385714Y-96503571D01*
X167100000Y-96503571D01*
X166957143Y-96575000D01*
X172671429Y-98553571D02*
X172671429Y-99767857D01*
X172600001Y-99910714D01*
X172528572Y-99982143D01*
X172385715Y-100053571D01*
X172100001Y-100053571D01*
X171957143Y-99982143D01*
X171885715Y-99910714D01*
X171814286Y-99767857D01*
X171814286Y-98553571D01*
X169957143Y-99482143D02*
X168814286Y-99482143D01*
X168100000Y-99053571D02*
X166957143Y-99482143D01*
X168100000Y-99910714D01*
X171814286Y-102603571D02*
X171814286Y-101103571D01*
X169957143Y-102032143D02*
X168814286Y-102032143D01*
X168100000Y-101603571D02*
X166957143Y-102032143D01*
X168100000Y-102460714D01*
X169671429Y-103725000D02*
X169814286Y-103653571D01*
X170028572Y-103653571D01*
X170242857Y-103725000D01*
X170385715Y-103867857D01*
X170457143Y-104010714D01*
X170528572Y-104296429D01*
X170528572Y-104510714D01*
X170457143Y-104796429D01*
X170385715Y-104939286D01*
X170242857Y-105082143D01*
X170028572Y-105153571D01*
X169885715Y-105153571D01*
X169671429Y-105082143D01*
X169600000Y-105010714D01*
X169600000Y-104510714D01*
X169885715Y-104510714D01*
X168957143Y-104153571D02*
X168957143Y-105153571D01*
X168957143Y-104296429D02*
X168885715Y-104225000D01*
X168742857Y-104153571D01*
X168528572Y-104153571D01*
X168385715Y-104225000D01*
X168314286Y-104367857D01*
X168314286Y-105153571D01*
X166957143Y-105153571D02*
X166957143Y-103653571D01*
X166957143Y-105082143D02*
X167100000Y-105153571D01*
X167385714Y-105153571D01*
X167528572Y-105082143D01*
X167600000Y-105010714D01*
X167671429Y-104867857D01*
X167671429Y-104439286D01*
X167600000Y-104296429D01*
X167528572Y-104225000D01*
X167385714Y-104153571D01*
X167100000Y-104153571D01*
X166957143Y-104225000D01*
X180385714Y-107703571D02*
X180385714Y-106203571D01*
X179814286Y-106203571D01*
X179671428Y-106275000D01*
X179600000Y-106346429D01*
X179528571Y-106489286D01*
X179528571Y-106703571D01*
X179600000Y-106846429D01*
X179671428Y-106917857D01*
X179814286Y-106989286D01*
X180385714Y-106989286D01*
X179100000Y-106203571D02*
X178242857Y-106203571D01*
X178671428Y-107703571D02*
X178671428Y-106203571D01*
X177957143Y-106203571D02*
X177100000Y-106203571D01*
X177528571Y-107703571D02*
X177528571Y-106203571D01*
X175528572Y-106132143D02*
X176814286Y-108060714D01*
X169671429Y-106275000D02*
X169814286Y-106203571D01*
X170028572Y-106203571D01*
X170242857Y-106275000D01*
X170385715Y-106417857D01*
X170457143Y-106560714D01*
X170528572Y-106846429D01*
X170528572Y-107060714D01*
X170457143Y-107346429D01*
X170385715Y-107489286D01*
X170242857Y-107632143D01*
X170028572Y-107703571D01*
X169885715Y-107703571D01*
X169671429Y-107632143D01*
X169600000Y-107560714D01*
X169600000Y-107060714D01*
X169885715Y-107060714D01*
X168957143Y-106703571D02*
X168957143Y-107703571D01*
X168957143Y-106846429D02*
X168885715Y-106775000D01*
X168742857Y-106703571D01*
X168528572Y-106703571D01*
X168385715Y-106775000D01*
X168314286Y-106917857D01*
X168314286Y-107703571D01*
X166957143Y-107703571D02*
X166957143Y-106203571D01*
X166957143Y-107632143D02*
X167100000Y-107703571D01*
X167385714Y-107703571D01*
X167528572Y-107632143D01*
X167600000Y-107560714D01*
X167671429Y-107417857D01*
X167671429Y-106989286D01*
X167600000Y-106846429D01*
X167528572Y-106775000D01*
X167385714Y-106703571D01*
X167100000Y-106703571D01*
X166957143Y-106775000D01*
X179885715Y-109467857D02*
X179671429Y-109539286D01*
X179600001Y-109610714D01*
X179528572Y-109753571D01*
X179528572Y-109967857D01*
X179600001Y-110110714D01*
X179671429Y-110182143D01*
X179814287Y-110253571D01*
X180385715Y-110253571D01*
X180385715Y-108753571D01*
X179885715Y-108753571D01*
X179742858Y-108825000D01*
X179671429Y-108896429D01*
X179600001Y-109039286D01*
X179600001Y-109182143D01*
X179671429Y-109325000D01*
X179742858Y-109396429D01*
X179885715Y-109467857D01*
X180385715Y-109467857D01*
X178885715Y-110253571D02*
X178885715Y-109253571D01*
X178885715Y-108753571D02*
X178957144Y-108825000D01*
X178885715Y-108896429D01*
X178814287Y-108825000D01*
X178885715Y-108753571D01*
X178885715Y-108896429D01*
X177528572Y-110253571D02*
X177528572Y-109467857D01*
X177600001Y-109325000D01*
X177742858Y-109253571D01*
X178028572Y-109253571D01*
X178171429Y-109325000D01*
X177528572Y-110182143D02*
X177671429Y-110253571D01*
X178028572Y-110253571D01*
X178171429Y-110182143D01*
X178242858Y-110039286D01*
X178242858Y-109896429D01*
X178171429Y-109753571D01*
X178028572Y-109682143D01*
X177671429Y-109682143D01*
X177528572Y-109610714D01*
X176885715Y-110182143D02*
X176742858Y-110253571D01*
X176457143Y-110253571D01*
X176314286Y-110182143D01*
X176242858Y-110039286D01*
X176242858Y-109967857D01*
X176314286Y-109825000D01*
X176457143Y-109753571D01*
X176671429Y-109753571D01*
X176814286Y-109682143D01*
X176885715Y-109539286D01*
X176885715Y-109467857D01*
X176814286Y-109325000D01*
X176671429Y-109253571D01*
X176457143Y-109253571D01*
X176314286Y-109325000D01*
X174457143Y-110253571D02*
X174457143Y-108753571D01*
X174100000Y-108753571D01*
X173885715Y-108825000D01*
X173742857Y-108967857D01*
X173671429Y-109110714D01*
X173600000Y-109396429D01*
X173600000Y-109610714D01*
X173671429Y-109896429D01*
X173742857Y-110039286D01*
X173885715Y-110182143D01*
X174100000Y-110253571D01*
X174457143Y-110253571D01*
X172957143Y-110253571D02*
X172957143Y-109253571D01*
X172957143Y-108753571D02*
X173028572Y-108825000D01*
X172957143Y-108896429D01*
X172885715Y-108825000D01*
X172957143Y-108753571D01*
X172957143Y-108896429D01*
X172314286Y-110182143D02*
X172171429Y-110253571D01*
X171885714Y-110253571D01*
X171742857Y-110182143D01*
X171671429Y-110039286D01*
X171671429Y-109967857D01*
X171742857Y-109825000D01*
X171885714Y-109753571D01*
X172100000Y-109753571D01*
X172242857Y-109682143D01*
X172314286Y-109539286D01*
X172314286Y-109467857D01*
X172242857Y-109325000D01*
X172100000Y-109253571D01*
X171885714Y-109253571D01*
X171742857Y-109325000D01*
X170385714Y-110253571D02*
X170385714Y-109467857D01*
X170457143Y-109325000D01*
X170600000Y-109253571D01*
X170885714Y-109253571D01*
X171028571Y-109325000D01*
X170385714Y-110182143D02*
X170528571Y-110253571D01*
X170885714Y-110253571D01*
X171028571Y-110182143D01*
X171100000Y-110039286D01*
X171100000Y-109896429D01*
X171028571Y-109753571D01*
X170885714Y-109682143D01*
X170528571Y-109682143D01*
X170385714Y-109610714D01*
X169671428Y-110253571D02*
X169671428Y-108753571D01*
X169671428Y-109325000D02*
X169528571Y-109253571D01*
X169242857Y-109253571D01*
X169100000Y-109325000D01*
X169028571Y-109396429D01*
X168957142Y-109539286D01*
X168957142Y-109967857D01*
X169028571Y-110110714D01*
X169100000Y-110182143D01*
X169242857Y-110253571D01*
X169528571Y-110253571D01*
X169671428Y-110182143D01*
X168099999Y-110253571D02*
X168242857Y-110182143D01*
X168314285Y-110039286D01*
X168314285Y-108753571D01*
X166957143Y-110182143D02*
X167100000Y-110253571D01*
X167385714Y-110253571D01*
X167528571Y-110182143D01*
X167600000Y-110039286D01*
X167600000Y-109467857D01*
X167528571Y-109325000D01*
X167385714Y-109253571D01*
X167100000Y-109253571D01*
X166957143Y-109325000D01*
X166885714Y-109467857D01*
X166885714Y-109610714D01*
X167600000Y-109753571D01*
X169671429Y-111375000D02*
X169814286Y-111303571D01*
X170028572Y-111303571D01*
X170242857Y-111375000D01*
X170385715Y-111517857D01*
X170457143Y-111660714D01*
X170528572Y-111946429D01*
X170528572Y-112160714D01*
X170457143Y-112446429D01*
X170385715Y-112589286D01*
X170242857Y-112732143D01*
X170028572Y-112803571D01*
X169885715Y-112803571D01*
X169671429Y-112732143D01*
X169600000Y-112660714D01*
X169600000Y-112160714D01*
X169885715Y-112160714D01*
X168957143Y-111803571D02*
X168957143Y-112803571D01*
X168957143Y-111946429D02*
X168885715Y-111875000D01*
X168742857Y-111803571D01*
X168528572Y-111803571D01*
X168385715Y-111875000D01*
X168314286Y-112017857D01*
X168314286Y-112803571D01*
X166957143Y-112803571D02*
X166957143Y-111303571D01*
X166957143Y-112732143D02*
X167100000Y-112803571D01*
X167385714Y-112803571D01*
X167528572Y-112732143D01*
X167600000Y-112660714D01*
X167671429Y-112517857D01*
X167671429Y-112089286D01*
X167600000Y-111946429D01*
X167528572Y-111875000D01*
X167385714Y-111803571D01*
X167100000Y-111803571D01*
X166957143Y-111875000D01*
X177957141Y-114782143D02*
X176814284Y-114782143D01*
X177385713Y-115353571D02*
X177385713Y-114210714D01*
X175314284Y-115353571D02*
X176171427Y-115353571D01*
X175742855Y-115353571D02*
X175742855Y-113853571D01*
X175885712Y-114067857D01*
X176028570Y-114210714D01*
X176171427Y-114282143D01*
X174742856Y-113996429D02*
X174671427Y-113925000D01*
X174528570Y-113853571D01*
X174171427Y-113853571D01*
X174028570Y-113925000D01*
X173957141Y-113996429D01*
X173885713Y-114139286D01*
X173885713Y-114282143D01*
X173957141Y-114496429D01*
X174814284Y-115353571D01*
X173885713Y-115353571D01*
X173457142Y-113853571D02*
X172957142Y-115353571D01*
X172457142Y-113853571D01*
X170271429Y-118175000D02*
X170414286Y-118103571D01*
X170628572Y-118103571D01*
X170842857Y-118175000D01*
X170985715Y-118317857D01*
X171057143Y-118460714D01*
X171128572Y-118746429D01*
X171128572Y-118960714D01*
X171057143Y-119246429D01*
X170985715Y-119389286D01*
X170842857Y-119532143D01*
X170628572Y-119603571D01*
X170485715Y-119603571D01*
X170271429Y-119532143D01*
X170200000Y-119460714D01*
X170200000Y-118960714D01*
X170485715Y-118960714D01*
X169557143Y-118603571D02*
X169557143Y-119603571D01*
X169557143Y-118746429D02*
X169485715Y-118675000D01*
X169342857Y-118603571D01*
X169128572Y-118603571D01*
X168985715Y-118675000D01*
X168914286Y-118817857D01*
X168914286Y-119603571D01*
X167557143Y-119603571D02*
X167557143Y-118103571D01*
X167557143Y-119532143D02*
X167700000Y-119603571D01*
X167985714Y-119603571D01*
X168128572Y-119532143D01*
X168200000Y-119460714D01*
X168271429Y-119317857D01*
X168271429Y-118889286D01*
X168200000Y-118746429D01*
X168128572Y-118675000D01*
X167985714Y-118603571D01*
X167700000Y-118603571D01*
X167557143Y-118675000D01*
X176057142Y-121582143D02*
X174914285Y-121582143D01*
X175485714Y-122153571D02*
X175485714Y-121010714D01*
X173414285Y-122153571D02*
X174271428Y-122153571D01*
X173842856Y-122153571D02*
X173842856Y-120653571D01*
X173985713Y-120867857D01*
X174128571Y-121010714D01*
X174271428Y-121082143D01*
X172842857Y-120796429D02*
X172771428Y-120725000D01*
X172628571Y-120653571D01*
X172271428Y-120653571D01*
X172128571Y-120725000D01*
X172057142Y-120796429D01*
X171985714Y-120939286D01*
X171985714Y-121082143D01*
X172057142Y-121296429D01*
X172914285Y-122153571D01*
X171985714Y-122153571D01*
X171557143Y-120653571D02*
X171057143Y-122153571D01*
X170557143Y-120653571D01*
X168914286Y-122153571D02*
X168914286Y-121153571D01*
X168914286Y-120653571D02*
X168985715Y-120725000D01*
X168914286Y-120796429D01*
X168842858Y-120725000D01*
X168914286Y-120653571D01*
X168914286Y-120796429D01*
X168200000Y-121153571D02*
X168200000Y-122153571D01*
X168200000Y-121296429D02*
X168128572Y-121225000D01*
X167985714Y-121153571D01*
X167771429Y-121153571D01*
X167628572Y-121225000D01*
X167557143Y-121367857D01*
X167557143Y-122153571D01*
D13*
X170100000Y-115250000D02*
X169100000Y-115250000D01*
X169100000Y-113550000D02*
X170100000Y-113550000D01*
X178950000Y-115900000D02*
X178950000Y-114900000D01*
X180650000Y-114900000D02*
X180650000Y-115900000D01*
X188380000Y-101100000D02*
X188380000Y-99900000D01*
X186620000Y-99900000D02*
X186620000Y-101100000D01*
X186550000Y-109430000D02*
X186550000Y-107930000D01*
X186550000Y-107930000D02*
X186820000Y-107930000D01*
X186820000Y-107930000D02*
X186820000Y-105100000D01*
X193450000Y-109430000D02*
X193450000Y-107930000D01*
X193450000Y-107930000D02*
X193180000Y-107930000D01*
X193180000Y-107930000D02*
X193180000Y-106830000D01*
D14*
X171566666Y-117157143D02*
X171614285Y-117204762D01*
X171757142Y-117252381D01*
X171852380Y-117252381D01*
X171995238Y-117204762D01*
X172090476Y-117109524D01*
X172138095Y-117014286D01*
X172185714Y-116823810D01*
X172185714Y-116680952D01*
X172138095Y-116490476D01*
X172090476Y-116395238D01*
X171995238Y-116300000D01*
X171852380Y-116252381D01*
X171757142Y-116252381D01*
X171614285Y-116300000D01*
X171566666Y-116347619D01*
X170614285Y-117252381D02*
X171185714Y-117252381D01*
X170900000Y-117252381D02*
X170900000Y-116252381D01*
X170995238Y-116395238D01*
X171090476Y-116490476D01*
X171185714Y-116538095D01*
X178357143Y-116633334D02*
X178404762Y-116585715D01*
X178452381Y-116442858D01*
X178452381Y-116347620D01*
X178404762Y-116204762D01*
X178309524Y-116109524D01*
X178214286Y-116061905D01*
X178023810Y-116014286D01*
X177880952Y-116014286D01*
X177690476Y-116061905D01*
X177595238Y-116109524D01*
X177500000Y-116204762D01*
X177452381Y-116347620D01*
X177452381Y-116442858D01*
X177500000Y-116585715D01*
X177547619Y-116633334D01*
X177785714Y-117490477D02*
X178452381Y-117490477D01*
X177404762Y-117252381D02*
X178119048Y-117014286D01*
X178119048Y-117633334D01*
X186252381Y-100333334D02*
X185776190Y-100000000D01*
X186252381Y-99761905D02*
X185252381Y-99761905D01*
X185252381Y-100142858D01*
X185300000Y-100238096D01*
X185347619Y-100285715D01*
X185442857Y-100333334D01*
X185585714Y-100333334D01*
X185680952Y-100285715D01*
X185728571Y-100238096D01*
X185776190Y-100142858D01*
X185776190Y-99761905D01*
X185252381Y-101190477D02*
X185252381Y-101000000D01*
X185300000Y-100904762D01*
X185347619Y-100857143D01*
X185490476Y-100761905D01*
X185680952Y-100714286D01*
X186061905Y-100714286D01*
X186157143Y-100761905D01*
X186204762Y-100809524D01*
X186252381Y-100904762D01*
X186252381Y-101095239D01*
X186204762Y-101190477D01*
X186157143Y-101238096D01*
X186061905Y-101285715D01*
X185823810Y-101285715D01*
X185728571Y-101238096D01*
X185680952Y-101190477D01*
X185633333Y-101095239D01*
X185633333Y-100904762D01*
X185680952Y-100809524D01*
X185728571Y-100761905D01*
X185823810Y-100714286D01*
X186047619Y-110304762D02*
X186000000Y-110209524D01*
X185904762Y-110114286D01*
X185761905Y-109971429D01*
X185714286Y-109876190D01*
X185714286Y-109780952D01*
X185952381Y-109828571D02*
X185904762Y-109733333D01*
X185809524Y-109638095D01*
X185619048Y-109590476D01*
X185285714Y-109590476D01*
X185095238Y-109638095D01*
X185000000Y-109733333D01*
X184952381Y-109828571D01*
X184952381Y-110019048D01*
X185000000Y-110114286D01*
X185095238Y-110209524D01*
X185285714Y-110257143D01*
X185619048Y-110257143D01*
X185809524Y-110209524D01*
X185904762Y-110114286D01*
X185952381Y-110019048D01*
X185952381Y-109828571D01*
X184952381Y-110590476D02*
X184952381Y-111209524D01*
X185333333Y-110876190D01*
X185333333Y-111019048D01*
X185380952Y-111114286D01*
X185428571Y-111161905D01*
X185523810Y-111209524D01*
X185761905Y-111209524D01*
X185857143Y-111161905D01*
X185904762Y-111114286D01*
X185952381Y-111019048D01*
X185952381Y-110733333D01*
X185904762Y-110638095D01*
X185857143Y-110590476D01*
M02*
